<svg xmlns="http://www.w3.org/2000/svg"><defs><font name="Jigmo Regular" horiz-adv-x="1024" vert-adv-y="1024"><font-face font-family="Jigmo" font-weight="400" font-stretch="normal" units-per-em="1024" ascent="995" descent="169"/><glyph glyph-name="undefined" unicode="㓇" horiz-adv-x="1024" vert-adv-y="918" d="M882-25 842 16 806 60l-33 47-28 49-25 52-21 55-17 57-12 61-6 52-10-56-21-77-28-72-35-65-43-60-50-55L421 1 357-41 287-76l-5 8 64 44 56 47 50 50 42 54 36 58 29 63 23 68 16 72 6 51H350v21H607v5l3 82V702l-10-2-54-10-56-8-56-7-60-4-1 9 57 16 55 14 53 15 52 15 52 15 48 15 48 17 45 16 45 17 37 16 6 2 4-10 45-40 1-17-21 9-6-2-45-15-47-15-49-13-49-12-29-7V546l-1-1-6-85H852l54 54 65-54V439H674l18-53 21-56 22-53 25-49 28-46 30-44 34-40 36-38 38-34L968-6l16-12-59-44-43 37zM157 181l9-16 13-31 9-32 7-33 2-35-1-35-12-21-24-6-21 12-7 24 4 28 1 29-1 27-5 28-7 27-10 28-13 27-16 28-19 28-21 29 6 7 30-23 26-24 11-12 8 11 19 28 21 31 22 36 24 41 25 43 27 49 29 51 30 56 34 59 9-4-24-64-24-59-22-55-23-51-21-47-20-42-19-39-19-35-17-31-16-27-4-5zm44 459-7 14-8 14-9 13-12 14-12 13-14 13-15 14-16 13-18 12 4 9 43-14 19-8 19-9 18-11 16-12 16-13 14-14 13-15 12-17 2-24-15-19-25-2-19 15-6 14z"/><glyph glyph-name="undefined" unicode="㔴" horiz-adv-x="1024" vert-adv-y="918" d="M856 853l65-54V777H168V25H856l54 53 64-53V3H168V-34L103-67V831l65-32H802l54 54zM794 69 779 82 763 95l-19 12-20 12-21 12-23 12-24 12-26 13-28 12 2 9 31-4 29-4 28-6 26-7 25-8 24-9 22-10 21-11 20-12 19-12 11-22-7-24-22-11-24 7-13 13zM444 206l14-22 27-28 1-18-20 7-12-6-25-12-27-11-27-12-28-10-29-10-31-10-31-8-33-8-34-6-3 9 30 16 30 15 28 15 28 14 26 14 26 14 24 14 23 15 22 14 17 11 4 3zm-260 8v21H407v97H241v21H407v93l65-11 16-11-16-10V353H628v93l64-11 16-11-16-10V353h68l44 49 54-49V332H692V235H797l54 54 64-54V214H184zM628 332H472V235H628v97zM344 456V440l-65-32V740l65-32H755l32 27 59-48-26-22V446l-65-33v43H344zM517 571H344V478H517v93zm238 0H582V478H755v93zM517 687H344V593H517v94zm238 0H582V593H755v94z"/><glyph glyph-name="undefined" unicode="㚜" horiz-adv-x="1024" vert-adv-y="918" d="M668 545l-15-9 6-111H867l54 54 64-54V404H662l17-93 29-90 35-70 11 11 38 44 32 49 25 47 5 10 55-35 9-17-20-1-23-38-38-50-44-47-18-16 9-12 41-40 41-28 36-17 21-6 30 129h11L953-1l22-9 10-23-10-22-22-10V-6h-1l1-59-33 4-40 12-46 21L785 6 736 53 725 68 693 46 637 13 576-14 511-37 441-54 367-66l-1 10 70 22L501-9l60 27 56 31 50 34 29 24-7 9-41 80-32 99-19 109H39v21H594l-6 125-1 18 65-13 16-10zM51 42l10 1 47 4 48 5 50 4 50 5 51 5 52 6 54 5 54 5 57 5 57 3 1-9-55-15-55-13-54-11-53-11-51-10-51-9-50-9-49-9-48-7-25-4-9-18L70-21 51 42zM157 354l65-33H437l32 27 59-48-27-22V153l-64-32v32H222V116L157 83V354zm280-54H222V175H437V3e2zM816 471l-6 9-7 9-8 9-10 9-11 9-11 9-13 9-14 10-16 7 3 9 17-4 18-2 16-3 16-4 16-5 14-6 13-6 13-8 13-8 11-9 7-24-11-22-23-7-22 11-5 8zm74 45-42 19-40 21-39 22-37 24-35 24-34 26-32 28-29 29-24 27H462l-16-17-41-37-47-35-52-33-57-31-64-30-69-27-74-24-4 9 70 34 65 34 58 34 53 35 47 35 41 36 16 17H61v21H408l28 35 24 38 18 37 2 7 56-33 11-17-22-2-13-24-30-41H838l54 54 65-54V736H6e2l16-10 34-21 35-21 36-20 36-19 38-18 39-17 40-16 41-16 43-15 37-13-62-53-43 19z"/><glyph glyph-name="undefined" unicode="㚤" horiz-adv-x="1024" vert-adv-y="918" d="M353 1e2l-19 25-20 24-23 24-7 7v-1l-40-65-44-58L151 8 97-33 38-65l-4 8L85-17l46 45 42 50 37 57 33 64 5 13-6 5-28 21-29 20-32 20-16 10-6-22-18-62-62 19 18 60 17 62 17 62 15 62 16 63 14 64 2 9H36v22H155l6 32 13 65 13 64 11 65 2 10 61-21 15-13-18-7-8-46-12-65-13-65-4-19H337l33 27 59-49-27-16-4-1-10-76-18-94-24-87-29-79-12-28 19-14 27-22 26-25 24-25 22-28 5-24-13-20-24-5-21 13-17 26zM892-46 847-20 803 19 761 75l-38 72-34 92-29 114-22 138-2 24-231-22-2 21 232 22-11 121-4 190v19l64-13 16-11-15-9 4-172 10-119 156 15 49 59 69-48 2-21-274-26 1-22 21-133 28-108 31-85 34-64 35-46 34-31 29-17 28 123h11L943 5l6-2 20-15 4-24-14-20-24-4-43 14zM336 605H216l-5-23-15-64-15-64-16-63-16-63-8-26 21-6 36-13 34-15 31-17 8 18 23 77 19 84 15 91 8 84zm5e2 88-7 13-8 14-8 13-10 14-11 13-11 14-13 13-13 14-15 13 5 8 18-8 19-8 17-9 17-9 16-11 15-12 14-12 13-14 12-14 11-14 3-24-15-20-24-3-20 15-5 14z"/><glyph glyph-name="undefined" unicode="㦯" horiz-adv-x="1024" vert-adv-y="918" d="M668 847l-16-9 7-184H867l54 53 64-53V632H661l18-150 30-138 35-104 8 11 37 68 33 73 28 79 3 8 58-28 12-16-20-4-25-63-38-76-43-70-27-36 18-37 42-62 41-42 36-26 17-7 29 126h11L953 3l22-9 10-23-10-23-22-9-36 6-42 18L829-4 780 46l-48 70-8 16-27-30-57-50L579 9 513-27 443-55 368-76l-3 9 70 30L499-2l60 40 55 45 50 51 37 45-14 30-40 117-32 145-18 161H39v22H595l-8 199v18l65-13 16-11zM49 67l11 1 47 7 47 8 49 8 51 8 51 9 53 9 53 9 55 10 57 9 57 8 3-9-55-19-55-17-53-16-53-15-52-14-51-12-50-13-48-12-48-10-25-6L85-9 71 5 49 67zM492 253l-7 20-8 21-4 8-23-7-45-14-44-13-42-11-41-11-39-10-38-9-36-8-35-8-11-3-9-19-12 15-21 62 10 1 33 4 35 4 22 3 3 7 12 33 24 63 13 31 12 32 23 62 11 32 9 26 5 13 57-31 11-16-20-4-5-12-15-30-15-30-16-31-16-30-34-59-19-29-15-24 28 4 40 6 41 6 43 6 45 6 47 6 20 2-8 17-11 21-12 21-13 22-14 22-14 22 7 7 21-17 21-17 18-18 18-19 16-19 15-20 14-21 12-20 12-21 10-22-1-24-18-17-25 2-17 17-5 20zM814 741l-6 13-8 13-8 13-10 12-10 12-12 13-12 12-13 12-16 11 4 8 18-6 18-6 18-7 17-9 16-9 14-11 15-12 13-12 13-14 11-15 3-24-15-20-25-3-19 15-6 14z"/><glyph glyph-name="undefined" unicode="㨨" horiz-adv-x="1024" vert-adv-y="918" d="M496-3V-40L431-73V383l65-32H845l32 26 59-48-27-21V-24L845-56V-3H496zM82-18V-2h76 6l5 1 5 2 2 2 2 5 1 5v6V315l-9-6-63-35-12-7-3-20-17 9-37 54 10 4 32 14 33 15 32 14 34 15V632H53v22H179V863l65-10 16-11-16-10V654h11l54 53 64-53V632H244V401l29 13 33 14 32 13 26 10 8 4 22 9 8 4V776l53-26 20 13 20 13 19 12 18 11 17 12 15 11 14 11 14 10 8 8 4 3 29-41 9-10 1-20-20 9-15-8-18-8-19-7-20-8-21-7-22-7-23-6-18-5V498l24 12 27 13 29 13 31 13 11 5-6 18-8 18-9 19-10 18-11 18-12 18-14 17 6 8 20-13 19-13 17-15 16-16 14-18 14-18 12-20 11-21 9-21 8-23-4-24-19-15-25 5-15 20-3 19-4 19-1 3-6-5-25-21-26-19-25-18-24-17-23-15-22-15-22-14-20-12-3-21-17 9-28 39-5-4-28-21-30-20-30-19-16-10V19L243 6 241-8l-5-12-7-13-8-11-11-8-12-7-13-4-14-3-13-1v33L82-18zM638 163H496V19H638V163zm207 0H703V19H845V163zM638 329H496V184H638V329zm207 0H703V184H845V329zm90 129-6-12-8-11-10-10-10-8-11-7-12-5-13-4-13-2-14-1v33L730 447v16H838h7l6 1 5 2 4 1 4 3 3 3 4 3 3 4 2 5 3 7 4 13 4 18 3 20 3 24 3 28 1 30 2 34 1 37v73H821l-5-53-10-58-13-54-18-49-21-44-24-40-28-35-32-30-35-24-39-17-4 8 31 26 27 28 24 31 21 34 18 38 15 42 12 46 9 50 6 55 2 46H674v21H9e2l32 27 59-48-27-16V736 695 657l-2-35-2-32-2-29-4-27-4-24-4-21-6-19-5-12z"/><glyph glyph-name="undefined" unicode="䁷" horiz-adv-x="1024" vert-adv-y="918" d="M70 327 48 339l-7 23 11 22 7 4 7 5 8 8 7 11 7 13 6 15 6 17 6 20 5 21 4 24h9l2-24 2-18h44L149 830l63-27 23 8 23 9 22 8 21 8 19 7 17 9 16 7 15 8 8 4v1l5 2 5-11 42-38 1-18-21 9h-1l-16-6-18-4-20-4-19-4-22-4-23-3-24-3-26-1-23-1 5-74h70l44 49 53-49V691H223l6-95h83l33 38 43-38V575H231l6-95H786l6 95H663v21H793l6 95H663v21H801l5 95H652v21H808l32 27 59-48-27-16-6-3-15-308h48l3 2v2h1l28 23 59-48-26-17-21-8v-1l-10-11-22-23-12-11-13-11-14-12-14-11-15-13-5 4-18-14V-40L756-72v54H268V-56L204-88V406l64-32H756l32 27 55-45 4 7 9 16 8 16 7 14 7 15 7 13 5 13 4 9H129l1-6-1-21-1-19-4-18-5-17-6-16-9-15-11-13-23-7zM756 111H268V3H756V111zm0 121H268V132H756V232zm0 121H268V253H756V353zM568 521l-12 15-13 15-6 6-8-5-27-16-30-13-31-12-33-10-35-7-2 9 30 17 28 17 27 17 24 17 23 18-3 4-16 14-18 13-18 14-19 13 3 9 24-7 22-7 22-8 21-9 13-8 9 9 17 20 16 20 11 16 3 6-22 11-10 14-11 14-5 7-16-13-26-18-27-15-28-14-29-12-31-8-4 9 26 18 24 18 23 18 21 19 21 19 13 14-13 11-15 11-16 12-17 13-19 10 3 9 22-5 21-5 21-6 20-8 19-9 14 18 15 24 14 25 3 4 52-38 9-17H621l-6-9-20-24-13-14 5-3 16-14 15-15 7-23-12-22-19-5 49-39 7-18-22 1-5-6-21-21-21-18 15-12 17-14 16-16 7-23-12-22-23-7-22 11-11 16z"/><glyph glyph-name="undefined" unicode="䄩" horiz-adv-x="1024" vert-adv-y="918" d="M366 296l-8 13-9 12-10 13-11 12-12 12-13 12-14 12-12 10V-45L213-77V361l-15-37-20-46-22-44-25-42-27-39-29-37L44 81l-7 6 22 40 21 41 20 42 18 42 18 44 15 45 14 47 13 48 10 49 6 34H41v22H213V722l-26-6-42-10-45-7-48-7-2 10 45 17 42 15 40 15 37 14 34 14 31 13 28 14 25 12 21 12 15 9 4 3 11-18 31-32 1-18-20 8-14-6-25-11-29-9-31-10-19-6V541h39l54 54 64-54V519H277V409l4-1 20-5 18-7 18-8 16-9 17-10 15-11 14-12 14-12 12-14 5-24-13-21-24-5-20 13-7 13zM721 842l-16-10 4-171 9-119 137 14 48 59 70-47 2-21-255-26 2-22 20-133 25-108 29-85 32-64 32-47 33-30 23-15 28 121h10L944 5l7-2 20-15 4-25-15-19-24-4-41 14-42 27-42 39-39 55-35 73-33 91-26 114-20 139-2 23-214-22-3 21 215 22-10 121-4 190v19l64-13 17-11zM842 694l-6 13-7 13-8 14-8 13-10 14-11 13-11 14-13 14-14 12 5 8 18-9 18-7 16-9 16-10 15-11 14-12 14-12 12-13 11-14 11-15 2-25-16-18-24-3-19 16-5 14z"/><glyph glyph-name="undefined" unicode="䈅" horiz-adv-x="1024" vert-adv-y="918" d="M668 584l-15-9 6-120H867l54 54 64-54V433H662l17-1e2 29-97 35-74 11 11 37 47 32 52 28 55 3 6 55-34 11-16-21-2-23-41-39-54-43-49-20-20 11-15 41-43 40-29 37-19 20-6 30 128h11L953-1l22-10 10-22-10-23-22-10V-6l-1-60-32 5-41 12-46 23-49 36-49 51-10 14-31-23-57-34-60-30-66-25-69-18-75-13-1 9 70 24L501-9l60 29 55 33 51 36 30 26-9 13-40 85-32 105-19 115H39v22H594l-6 135-1 18 65-13 16-11zM51 44l10 1 47 5 48 5 49 5 51 5 51 6 52 5 54 6 54 6 56 5 58 5 1-10-55-15-55-13-54-13-53-11-51-10-51-10L213 6 164-2l-48-9-25-4-9-18L70-19 51 44zM157 376l65-32H437l32 27 59-48-27-22V166l-64-32v32H222V128L157 96V376zm280-53H222V188H437V323zM816 507l-6 9-8 9-8 10-9 9-11 10-11 9-13 10-14 10-16 7 3 9 17-4 18-3 17-3 16-5 15-6 15-6 14-7 12-9 13-8 11-10 7-24-12-22-24-6-21 12-5 9zM338 643l-5 11-7 12-8 12-10 12-11 13-13 13-14 12-17 14-12 8H216l-13-20-21-28-24-26-26-26-28-24-30-22-32-20-6 8 25 28 24 27 22 27 20 28 18 27 16 27 14 28 12 29 10 29 7 24 4 14 59-27 12-15-20-6-5-12-15-31-10-18H426l54 54 64-54V750H276l5-2 19-8 18-8 17-10 16-11 14-11 13-12 11-14 11-14 1-25-17-18-24-1-19 16-3 11zm425 0-5 11-7 12-8 12-10 12-11 13-13 13-15 12-16 14-12 8H639l-11-16-22-25-24-25-25-23-28-21-30-20-33-16-6 8 26 25 24 25 22 24 20 25 18 26 16 25 14 27 12 27 10 27 6 23 1 3 1 2 2 9 60-28 12-15-21-5-4-11-15-30-12-20H856l54 54 64-54V750H701l5-2 19-8 18-8 17-10 15-11 14-11 13-12 12-14 10-14 1-25-16-18-24-1-19 16-3 11z"/><glyph glyph-name="undefined" unicode="䋚" horiz-adv-x="1024" vert-adv-y="918" d="M324 355l-4 19-1 5-3-1-27-12-28-11-10-4V-45L186-77V331l-9-3-29-8-30-7-29-7-8-1-9-20-13 15-20 63 11 1 30 3 42 4 9 19 20 39 41 77 20 39 40 77 19 39 20 39 18 39 3 6 54-35 9-18-19-1-12-20-22-38-23-37-24-37-24-38-24-36-26-36-26-36-27-35-4-4 23 3 28 4 29 4 57 9 29 3 4 1-4 14-6 18-7 17-7 16-8 17-9 17-10 15 7 7 15-12 16-12 14-14 14-15 13-17 11-18 11-19 9-20 9-21 8-22-4-24-20-15-24 4-15 20-3 21zM482-18V-2h86 7l5 1 5 2 1 1 1 1 1 2 1 3 1 5V355l-12-25-20-35-21-35-22-33-23-32-25-30-26-28-28-27-28-23-3-15-21-14-23 5-14 20-3 22-4 22-3 21-5 20-6 19-6 19-6 18-8 17-8 18-9 17 8 6 15-13 15-13 14-16 12-17 12-18 11-20 10-20 9-23 8-23 5-15 13 20 20 31 20 31 20 32 18 33 18 33 16 35 15 36 15 37 12 32 5 13 33-18V644l-10-17-17-30-19-29-20-28-21-27-23-26-23-24-25-23-26-21-7 7 18 28 18 27 35 55 16 28 15 29 14 30 14 30 23 57 5 12 33-19v64H380v21H590l32 27 59-48-27-22V19 6L651-8l-4-12-7-13-8-11-11-8-12-7-13-4-14-3-14-1v33L482-18zm329 0V-2h64 7l5 1 5 2 2 2 1 2 1 3v5l1 6V361l-15-28-20-34-22-34-23-32-25-31-26-31-27-28-30-27-31-25-6 7 45 64 21 32 21 32 20 32 18 33 18 34 16 35 15 35 12 30 5 12 34-19V647l-11-21-19-30-20-29-21-29-22-28-24-26-24-25-27-24-28-21-7 7 20 28 19 29 19 28 19 28 17 29 16 29 16 31 14 30 13 31 11 27 1 3 1 2v-1l3 7 34-19v64H690v21H897l32 27 59-48-27-22V19L960 6 958-8l-4-12-7-13-9-11-10-8-13-7-13-4-13-3-14-1v33L811-18zM99 266l63-18 15-13-19-8-1-9-7-30-8-29-9-29-11-28-12-28L97 46 82 19 65-6 46-31l-8 5L47 3 64 60l8 28 7 27 6 28 4 27 4 28 3 28 1 22 2 18zm28 286-5 17-6 16-7 15-8 16-9 15-11 15-11 15-12 15-14 14 5 8 18-9 19-10 17-11 15-13 2-1 4 9 8 22 9 23 9 22 9 22 9 22 17 44 9 21 6 17 4 12 56-34 11-16-21-2-13-24-39-61-28-40-15-19-16-18-8-10 3-2 14-15 12-16 12-17 11-19 9-19-1-24-19-17-24 2-17 18-4 17z"/><glyph glyph-name="undefined" unicode="䍞" horiz-adv-x="1024" vert-adv-y="918" d="M725 603l-15 18-17 18-10 9-26-19-30-20-33-19-4-2 62-13 16-11-15-9 6-116H867l54 54 64-54V418H662l17-98 29-93 36-73 10 12 37 46 32 50 28 54v-1l3 6 55-34 10-17-21-2-23-38-38-53-43-48-20-18 10-14 42-42 40-29L903 9l20-7 30 129h11L953-3l22-10 10-22-10-23-22-10V-9h-1l1-59-33 5-41 11-46 23L785 6 735 55 725 70 694 47 637 13 576-15 511-39 441-57 367-70l-1 10 70 22 65 26 60 29 56 32 50 35 30 25-8 11-41 83-32 102-19 113H39v21H594l-6 131-1 16-28-14-38-16-5 9 33 25 29 24 28 23 25 23 18 18-16 12-23 17-25 17-26 17-27 18 4 9 32-9 31-10 28-11 27-13 25-13 14 18 15 23 14 23 8 17 5 11 55-35 10-16-21-2-5-7-19-25-21-24-12-11 6-4 22-17 20-18 19-19 7-23-11-22-24-7-22 11-14 18zM51 41l10 1 47 4 48 5 49 5 51 5 51 5 52 6 54 5 54 6 56 5 58 4 1-10-55-14-55-14-54-12-53-10-51-11-51-10-50-9-49-8-48-9-25-4-9-18L70-22 51 41zM157 364l65-32H437l32 27 59-49-27-21V158l-64-32v32H222V120L157 88V364zm280-54H222V180H437V310zM816 489l-6 9-7 9-9 9-9 9-11 9-11 10-13 9-14 10-16 7 3 10 17-4 18-3 16-4 16-4 16-5 14-6V805H204V548l-65-32V859l65-33H820l32 27 59-48-27-22V555l-36-17 11-8 12-9 7-24-12-22-23-6-22 11-5 9zM417 604l-15 17-16 18-9 9-24-19-29-20-31-19-34-17-36-17-5 8 30 26 29 23 25 24 25 23 17 17-17 13-23 17-24 17-26 17-27 18 4 9 32-9 30-10 29-11 27-13 24-13 14 18 15 23 14 23 9 18 5 11 55-36 9-17-21-1-5-7-19-25-21-24-11-12 4-3 22-17 20-18 18-19 6-24-12-21-23-7-22 11-13 19z"/><glyph glyph-name="undefined" unicode="䔬" horiz-adv-x="1024" vert-adv-y="918" d="M817-55 798-41 776-27 753-14 728-1 701 12 672 25 642 38 609 52 575 66l2 9 37-3 36-6 33-7 32-8 31-9 28-10 27-11L827 9 851-4l22-14 12-21-6-24-21-12-24 6-17 14zM389 93l10-16 33-34 2-18-20 8-23-10-30-13L329-3 296-15 263-27 227-38 191-48 152-58l-39-8-41-7-2 9 37 17 36 16 36 16L213 1l32 15 32 15 30 15 29 16 27 15 22 13 4 3zM66 103v21H345V230H136v22H345V352l65-11 16-10-16-10V252H614V352l65-11 16-10-16-10V252H791l44 48 53-48V230H679V124H840l54 54 64-54V103H66zM614 230H410V124H614V230zM254 366V328l-65-32V668l65-33H770l32 27 59-48-26-22V344l-65-32v54H254zM480 490H254V387H480V490zm290 0H544V387H770V490zM480 614H254V511H480V614zm290 0H544V511H770V614zM630 876l65-11 16-11-16-9V776H861l54 54 65-54V755H695V681l-65-33V755H394V681l-65-33V755H44v21H329V876l65-11 16-11-16-9V776H630V876z"/><glyph glyph-name="undefined" unicode="䗷" horiz-adv-x="1024" vert-adv-y="918" d="M638-45l-14 1-13 2-13 4-12 7-11 9-9 11-7 12-4 13-2 13-1 14V198l64-10 16-11-16-10V41l1-7 1-4 2-5 2-2 5-2 4-1 7-1H821l32 135h11L853 19 873 6l13-19-13-19-20-13H638zM344 66l-1 22-3 21-4 22v2l-12-9-25-19-27-18-27-17-28-17-29-15-29-15L129 8 99-6 89-10 84-31 68-19 36 37l10 4 61 20 31 11 29 11 27 10V337H129V272L64 240V686l65-32h65V869l64-11 16-11-16-9V654h65l32 27 59-49-27-21V337l-64-33v33H258V119l27 11 29 11 18 7-1 4-7 21-7 21-9 22-9 22-11 22 7 6 19-18 17-18 15-20 14-21 12-21 10-23 9-23 8-24 5-24 5-26-8-23-22-10-23 8-12 21V66zm90-84L412-6l-6 23 11 22 8 5 9 6 8 9 8 12 7 14 7 17 6 18 5 22 5 24 3 25 10 1 3-27 3-25 1-23-1-22-2-21-4-20-6-19-7-17L470 2 458-12l-24-6zM923 47l-3 15-4 15-5 15-6 15-7 15-8 15-9 15-10 16-13 14 6 7 16-11 17-10 16-12 13-12 14-14 12-15 11-16 9-17 8-17 7-18-4-24L963 8l-24 4-15 20-1 15zM717 110l-3 12-5 12-6 11-6 11-6 12-8 11-8 11-8 11-11 9 5 9 13-7 14-6 14-6 13-8 13-9 11-10 11-11 11-11 10-13 9-14V99L764 82l-25-1-18 17-4 12zM499 519l65-32H831l32 27 59-48-27-22V251l-64-33v33H564l-65-33V519zM831 358H564V272H831v86zM194 632H129V358h65V632zm129 0H258V358h65V632zM831 466H564V380H831v86zM794 732l57-30 11-16-23-4-13-20-9-14-10-14-11-15-11-14-13-15-13-14-2-3H869l44 48 54-48V552H428v21H742l4 10 7 19 6 18 6 17 6 16 4 16 5 15 5 14 3 14 2 8h-1l5 12zM589 611l-2 14-2 13-6 24-4 12-8 22-5 11-8 10 7 7 10-7 11-7 12-8 10-10 10-10 9-12 8-13 8-14 7-15 7-15-4-24-20-15-24 4-15 19-1 14zM464 734v22H665V869l65-11 16-11-16-9V756h83l53 54 65-54V734H464z"/><glyph glyph-name="undefined" unicode="䘝" horiz-adv-x="1024" vert-adv-y="918" d="M363 212l-9 15-8 16-11 16-12 16-13 16-14 16-16 16-10 10V-45L206-77V352l-29-28-43-39-47-36-49-34-7 8 42 41 41 42 37 42 36 43 19 25v1h1l13 17 31 44 28 45 25 45 24 46 10 24H57v21H206V874l64-11 16-10-16-10V659h75l33 27 59-48-27-17-13-5-15-29-28-47-30-46-33-45-26-32h5V356l3-2 22-10 12-7 4 5 12 19 11 17 9 16 9 15 8 14 6 12 6 12 4 10 1 4h-1l5 10 54-37 9-17H419l-1-1-10-11-12-10-12-12-13-12-15-12-17-13-17-13-3-3 17-11 18-14 17-14 16-15 14-16 13-16 12-18 2-24-16-19-24-2-19 16-6 15zM892-46 847-20 803 19 761 75l-38 72-34 92-29 114-22 138-2 24-231-22-2 21 232 22-11 121-4 190v19l64-13 16-11-15-9 4-172 10-119 156 15 49 59 69-48 2-21-274-26 1-22 21-133 28-108 31-85 34-64 35-46 34-31 29-17 28 123h11L943 5l6-2 20-15 4-24-14-20-24-4-43 14zM836 693l-7 13-8 14-8 13-10 14-11 13-11 14-13 13-13 14-15 13 5 8 18-8 19-8 17-9 17-9 16-11 15-12 14-12 13-14 12-14 11-14 3-24-15-20-24-3-20 15-5 14z"/><glyph glyph-name="undefined" unicode="䣧" horiz-adv-x="1024" vert-adv-y="918" d="M425 837l65-54V761H333V611h66l30 27 56-49-27-19V3L399-26V35H129V-29L65-61V643l64-32h51V761H36v22H372l53 54zm316 5-16-10 4-171 9-119 116 13 48 59 70-46 2-21-235-26 2-22 18-134 24-109 27-85 30-63 30-46 30-31 18-12 27 119h11L946 5l7-2 20-15 3-25-15-19-24-4-39 15-39 26-39 41-37 54-33 72-29 92-25 114-19 138-2 22-196-21-3 21 198 21-9 122-5 190v19l65-13 16-11zM399 170H129V57H399V170zm-4 157 4-5V589H333V363l1-7 1-5 1-4 2-2 3-3 3-1 3-1h1l30 112h10L378 339l17-12zM279 761H239V611h40V761zm569-66-5 13-6 13-8 14-7 13-9 13-10 14-10 13-11 14-13 11 5 8 16-8 17-8 16-9 15-10 14-11 13-11 13-12 12-14 11-14 10-14 1-25-16-18-24-2-19 16-5 14zM360 280l-14 1-12 3-13 4-11 7-10 8-8 11-6 11-4 13-2 13-1 12V589H238l-2-42-4-49-5-45-7-42-10-38-10-35-13-30-15-27-17-22-19-17-7 6 10 21 9 24 9 26 7 30 6 33 4 36 4 40 2 44v47 40H129V191H399V298l-4-6-17-12H360z"/><glyph glyph-name="undefined" unicode="䧕" horiz-adv-x="1024" vert-adv-y="918" d="M339 256l-2-10-6-13-6-12-8-10-10-10-11-7-12-6-13-4-14-2-13-1v32l-54 16v16h54l7 1 5 1 4 1 4 1 2 3 4 3 4 18 5 23 3 23v24l-2 24-5 24-8 26-10 26-14 27-16 28-19 30 1 2-5 3 12 31 13 30 12 29 11 27 11 27 10 26 8 25 8 24 7 24v1H151V-45L86-77V831l65-32H3e2l32 27 60-49-27-16-11-4-1-2-10-23-12-25-13-24-14-26-15-25-17-26-18-26-20-26-17-20 27-21 24-24 21-26 19-26 14-28 12-29 7-29 4-31 1-30-3-31-4-3zM753 847l-15-9 4-184H867l54 53 65-53V632H743l15-168 21-142 16-65 30 61 29 73 24 74 4 13 59-26 12-15-19-5-23-63-34-76-39-70-23-33 22-60 30-58 29-37 24-21 29 124h10L949 3l22-9 10-23-10-23-22-9-29 5-34 16-36 30-37 47-35 66-10 26-22-26-53-50L635 9 573-27 507-55 437-76l-3 9 65 30L559-2l55 40 51 45 46 50 38 49-4 11-29 117-23 147-14 175H361v22H678l-5 199v18l64-13 16-11zM330 97l11 4 31 8 32 8 32 9 33 9 34 10 34 10 35 11 36 10 36 11 38 9 4-9-34-20-34-18-33-16-34-16-33-15-32-14-33-13-31-13-31-12-11-4-6-20-15 13-29 58zm67 449 65-32H572l32 27 60-49-27-21V272l-65-32v32H462V208l-65-33V546zm175-54H462V294H572V492zM860 745l-7 12-7 13-7 12-8 12-9 12-21 24-11 11-14 11 5 8 16-7 17-5 15-7 15-8 15-9 13-11 14-10 12-12 12-13 11-13 3-24-15-20-24-3-20 14-5 13z"/><glyph glyph-name="undefined" unicode="䮙" horiz-adv-x="1024" vert-adv-y="918" d="M794 847l-16-9 4-184h84l54 53 65-53V632H783l11-168 19-143 11-50 19 45 24 73 21 80h1l2 9 60-25 13-15-19-6-20-62-29-76-33-70-21-34 20-62 26-58 25-37 13-13 27 118h11L953 3l22-9 10-23-10-23-22-9-28 5-31 17L863-8 832 39l-30 66-6 17-13-18-46-50-49-44-53-36-58-29-61-21-3 9 55 30L618-2l47 39 43 45 39 50 31 48-4 14-24 116-20 147-12 175H452v22H717l-4 199v18l65-13 16-11zM358-24l-8-11-9-10-10-8-10-8-12-6-12-5-13-3-13-1-14-1v32L171-29v16h86l8 1 7 1 6 1 4 2 5 3 5 3 4 4 4 4 4 5 4 7 8 18 8 21 7 25 5 28 5 31 4 35 2 38 1 41v39h-1v43H139L74 304V831l65-32H297l54 54 65-54V777H285V648h28l44 49 54-49V627H285V503h28l44 49 54-49V482H285V358h62l32 27 59-48-26-16 1-21V254l-2-43-2-40-4-37-5-35-6-32-8-29-10-27-11-23-7-12zM69-6 46 2 36 25l8 23 7 6 7 11 8 13 6 17 7 21 5 24 4 27 4 30 3 33 3 37h9l7-36 5-34 3-31 1-29-1-27-2-26-4-22-6-21-8-19L92 4 69-6zM422 97l10 3 27 8 27 9 27 8 57 20 30 10 30 10 30 11 32 10 33 10 4-9-28-19-28-19-29-16-28-16-28-14-27-14-27-14-27-12-27-12-6-3-4-20-16 11-32 58zM192 47l-24-6-21 13-6 24 3 13 4 14 2 15 1 16 1 17v17l-1 19-1 19-1 20-4 21 9 4 9-20 10-19 8-19 6-18 6-19 5-18 3-19 2-17 1-18V68L192 47zm24 86v14 14l-1 14-2 14-3 15-3 15-4 15-4 16-7 15 8 5 11-13 12-12 11-14 9-14 8-14 8-15 6-16 6-16 4-16 4-17-8-22-22-11-24 8-10 22 1 13zm59 63-1 11-2 11-2 12-4 11-4 11-5 11-6 12-7 12-9 10 6 8 12-8 13-7 12-9 11-9 11-10 9-11 9-12 8-13 7-14 6-14-4-24-20-14-24 5-15 19-1 12zM478 546l65-32h84l32 27 59-49-26-21V272l-65-32v32H543V208l-65-33V546zm149-54H543V294h84V492zM220 482H139V358h81V482zm0 145H139V503h81V627zm0 150H139V648h81V777zm652-30-5 13-5 11-13 24-7 12-8 11-8 12-9 12-11 10 5 8 13-7 15-6 14-7 13-9 13-9 12-10 12-11 11-11 10-13 9-14 2-24-15-19-25-1-19 15-4 13z"/><glyph glyph-name="undefined" unicode="䮸" horiz-adv-x="1024" vert-adv-y="918" d="M108-44 89-28 87-4l15 20 8 2 9 4 8 5 8 6 8 8 7 10 7 11 7 13 6 15 3 16h10V89l1-17V55l-2-16-4-16-5-14-8-14-9-13-11-12-12-11-25-3zM496 26v6 8l-1 9-3 10-4 10-5 11-6 12-7 12-11 12 6 7 13-10 13-7 12-8 12-9 9-9 10-10 8-9 7-11 5-12 5-12-8-23L529-9 506-2 494 20l2 6zM909-15l-6-12-8-11-8-10-11-8-11-7-12-5-13-4-14-2-13-1v33L706-26v16H820l6 1 5 1 4 2 4 2 3 3 3 3 3 4 3 6 2 7 3 7 2 8 1 10 1 11 1 12 2 14V97l-2-1v43H259l-64-32V441l64-32H785l33 38 40-35 6 11 8 14 7 14 6 12 5 13 3 6H129v-5-20l-2-18-3-17-5-16-7-16-9-14-10-13-24-5-21 11-7 25 12 20 7 4 7 5 7 7 7 9 7 12 7 14 6 16 5 18 6 21 3 22h9l2-23 2-15h44L149 833l64-26 22 7 23 9 22 8 21 7 19 8 18 7 16 7 14 8 9 4 4 3 5-11 44-39V808l-20 9-3-1-17-5-18-5-19-3-20-4-22-3-22-3-24-2-26-1-23-1 5-68h70l44 49 53-49V7e2H223l6-87h83l33 37 43-37V591H231l6-87H786l6 87H663v22H794l5 87H663v21H801l5 88H652v22H808l32 26 59-48-27-16-6-3-15-286h48l3 2 1 2h1l27 23 59-49-26-16-22-9-10-10-10-10-11-11-12-10-13-11-14-11-15-10-14-13-7 7 7 10H555V326H763l34 38 43-38V305H555V244H742l44 48 54-48V222H555V161H861l33 27 59-49-26-15V113 96l-1-17V63l-1-15-2-14-2-12-3-13-3-11-6-13zM669 32l-2 8-2 9-4 10-4 10-6 10-7 10-8 12-8 11-12 9 5 9 14-8 14-5 13-7 12-7 12-8 11-9 10-10 9-10 8-11 7-11-2-25L710 3 686 5 670 23l-1 9zM367-18l-23-8-22 12-8 23 3 6 2 6 2 7v9 8l-2 10-2 10-3 11-5 12-7 11 7 6 9-9 12-8 9-9 9-9 8-10 7-10 5-11 5-11 4-12 2-12-12-22zM490 222H259V161H490v61zm0 83H259V244H490v61zm0 83H259V326H490v62zm67 166-13 14-6 6-9-6-28-14-29-13-31-10-33-9-35-6-2 9 30 16 28 16 27 16 25 17 22 16-3 2-16 13-35 26-20 12 3 9 23-6 23-6 21-8 21-8 15-7 9 8 17 19 16 19 10 15 1 2-20 11-9 13-11 13-6 7-17-13-25-16-27-15-28-12-30-11-30-7-4 9 26 17 24 17 23 17 22 18 20 19 11 11-10 9-16 11-16 12-17 11-19 10 3 10 22-5 21-5 20-5 20-8 19-8h2l14 18 15 22 13 23 3 5 52-40 7-17H620l-6-7-20-23-10-11 2-1 16-13 15-13 7-24-10-22-17-5 45-38 7-18-21 2-5-5-21-20-19-15 12-9 16-13 17-15 7-23-11-23-23-7-22 11-22 29z"/><glyph glyph-name="undefined" unicode="䯆" horiz-adv-x="1024" vert-adv-y="918" d="M370-17V-1h64 6l5 2 4 1h2l1 1V4l1 2 1 3 1 5 1 6V126H218V-38L153-70V446l65-32H456l32 27 59-49-27-21V20 7L517-6l-4-13-7-13-9-10-11-10-12-6-13-4-13-3-14-1v33L370-17zM919 35l32 135h11L951 35l20-12L983 3 971-16 951-29H742l-14 1-13 2-13 4-13 7-10 9-9 11-7 12-4 13-2 14-1 13V858l65-11 16-10-16-10V51l1-5 1-5 2-2 5-2 5-1 7-1H919zM456 259H218V147H456V259zm0 133H218V281H456V392zM71 387 49 399l-6 24 12 21 4 2 6 3 6 6 7 9 6 12 5 14 6 16 5 19 4 20 2 23h10l2-23 2-11h32V853l65-33H457l32 27 59-48-27-22V534h38l3 2v1l29 24 59-49-27-16-22-9-2-3-9-9-8-9-10-10-10-10-11-11-11-10-10-12-8 5 7 14 6 15 4 14 5 13 4 12 4 12 3 11 1 3H122l1-9 1-19-1-18-2-16-4-16-5-15-8-14-10-12-23-6zM457 799H217V534h90V729l65-32h85V799zm0-124H372V534h85V675z"/><glyph glyph-name="undefined" unicode="䰥" horiz-adv-x="1024" vert-adv-y="918" d="M832 10l-1 5-2 5-5 7-6 7-22-4-35-8-30-7-28-5-24-6-22-4-18-4-9-2H906l32 134h11L938-6l19-13 13-20-13-19-19-13H589l-14 1-13 2-13 4-12 7-11 9-9 10-7 13-4 13-2 13-1 14V155H434l4-2-21-35-25-33-29-30-34-27L291 4 249-18 202-36 152-52 98-65 39-74l-2 9L92-45l51 20L189-4l41 23 36 23 32 25 27 27 22 27 18 28 3 6H235V90L170 58V410l65-33H425l3 4 6 11 12 22 12 20 6 10 6 10 3 5-33-5-73-7-1 10 71 17 65 18 62 20 56 22 51 25 17 10-37 50-34 70-20 78H39v21H594l-6 79-1 18 65-12 16-11-15-9 5-65H887l44 49 54-49V767H663l15-56 28-58 34-47 4-3 14 10 37 31 31 33 26 33 4 5 49-42 6-18-20 2-20-22-39-35-43-31-4-2 36-24 40-19 38-12 24-5 30 131h11L953 504l22-10 10-23-10-22-22-10-31 3-39 7-45 15-49 23-49 32-16 15-34-17-56-21-60-18-65-14-13-2 32-34 4-19-24 6-8-6-11-6-9-6-10-6-11-7-11-6-2-1H773l32 27 59-48-27-22V155l-64-32v32H568V8l1-5 1-3 1-2 1-1h1l1-1 4-1 4-1h22L588 49l11 2 8-2h12l15-1h20l5 8 8 14 8 13 8 12 7 11 6 12 6 10 6 11 2 5h-1l6 8 49-43 6-18-24 3-1-1-10-8-11-9-11-8-13-9-13-9-2-2h43 31l35-1h11l-4 5-11 9-12 11-15 8 4 9 16-7 16-4 15-3 12-4 13-4 11-4 9-4 10-5 8-5 9-7 3-24L875-2 851-6 831 8l1 2zM472 257H235V176H377l2 4 7-4h86v81zm301 0H536V176H773v81zM472 356H235V278H472v78zm301 0H536V278H773v78zM52 533l11 1 47 2 48 3 49 2 50 3 51 3 52 2 54 3 54 3 56 1 57 1 1-9-55-12-56-10-54-9-53-8-51-8-52-7-50-7-48-6-48-6-25-3-10-18-12 15-16 64zM157 749l65-32H437l32 27 59-48-27-22V596l-64-33v33H222l-65-33V749zm280-53H222V617H437v79zM818 808l-5 6-7 7-9 7-9 7-12 7-11 7-14 7-14 8-17 5 2 10 17-2 18-1 15-1 16-1 14-3 14-2 13-3 12-4 23-10 11-22-7-24-22-11-23 7-5 6z"/><glyph glyph-name="undefined" unicode="䴬" horiz-adv-x="1024" vert-adv-y="918" d="M436 356l-9 13-10 13-12 13-14 13-15 13-17 12-17 13-13 8V353l-64-33v13l-10-3-4-14-12-28H372l32 27 60-48-27-16-11-5-14-32-27-49-20-29 13-9 21-16 20-18 20-18 8-23-10-23-24-8-22 11-16 19-16 18-17 18-9 9-14-16-39-37-43-32-46-28-50-23L87-58 29-71l-2 9L79-39l49 25 44 27 41 31 36 33 32 36 14 18-9 8-20 17-20 17-22 16-22 17 5 9 27-8 26-10 25-12 24-12 10-6 16 27 21 45 10 28H229l-7-16-18-32-20-30-22-29-24-27-26-27L84 82 53 59l-7 7L69 96l22 29 19 29 19 29 16 30 15 30 12 30 12 31 8 31 6 26 4 15 60-25 3-3V466l-5-5-25-27-27-26-29-25-31-24-33-23-36-21-38-20-5 8 31 28 30 28 28 27 26 27 24 27 23 27 20 28 19 28 17 27 11 21V713H50v21H265V874l64-11 16-10-16-10V734h70l54 54 64-54V713H329V473l23-5 22-7 21-8 20-9 19-11 18-12 16-13 15-14 14-15 5-24-14-21-23-4-21 12-8 14zM741 842l-16-10 4-171 9-119 116 13 48 59 70-46 2-21-235-26 2-22 18-134 24-109 27-85 30-63 30-46 30-31 18-12 27 119h11L946 5l7-2 20-15 3-25-15-19-24-4-39 15-39 26-39 41-37 54-33 72-29 92-25 114-19 138-2 22-161-17v-9l-19-16-24 2-17 18v9l-2 8-2 9-3 9-4 10-5 10-6 10-8 11-7 11-2 2-10-17-12-18-14-18-30-33-8 6 10 20 7 20 7 20 6 19 5 19 4 18 4 18 2 19 1 18 1 12h-1l2 17 63-18 15-13-20-9-6-19-7-21-9-19-5-11 4-2 13-6 13-6 11-7 12-8 10-8 10-9 8-10 8-11 4-6 161 17-9 122-5 190v19l65-13 16-11zM176 545v6l-1 5-1 7-3 7-3 8-4 7-3 4-10-23-13-25-14-24-17-22-18-20-20-19-21-15-7 7 13 22 12 22 12 22 10 23 9 23 8 24 6 26 6 25 4 27 3 23 1 17 63-20 15-13-19-8-3-10-8-30-4-12 10-4 10-4 10-5 8-5 9-7 7-6 7-8 6-9-2-24-18-17-25 3-16 18 1 4zM848 695l-5 13-6 13-8 14-7 13-9 13-10 14-10 13-11 14-13 11 5 8 16-8 17-8 16-9 15-10 14-11 13-11 13-12 12-14 11-14 10-14 1-25-16-18-24-2-19 16-5 14z"/><glyph glyph-name="undefined" unicode="𠐥" horiz-adv-x="1024" vert-adv-y="918" d="M277 872l58-30 12-15-20-4-16-40-24-59-26-57-27-56-28-55-6-10 31-5 16-11-16-10V-45L166-77V488l-21-36-32-50-34-48-37-46-8 4L88 417l26 52 26 54 25 54 23 55 23 57 23 57 20 58 23 68zM784-5l32 135h7l5 8 19-9 20-8 18-9 17-10 15-12 14-12 13-13 12-14 10-15 8-16-2-25-18-16-24 2L913-1l-2 12-4 13-5 12-7 13-8 13-9 13-12 14-12 14-14 14-13 10L816-5l20-13 13-19-13-19-20-13H535l-14 1-13 2-13 4-12 7-11 9-9 11-6 12-5 13-2 13-1 14V145l65-11 16-10-16-10V17 10l1-5 1-3 1-1V-1l1-1 3-1h3l5-1 6-1H784zM288-46 268-31 266-6l15 19 11 4 10 6 9 7 9 9 9 10 7 14 7 15 6 18 5 20 3 22h9l3-22 3-22V73l-2-20-4-19-6-18-8-18-11-15-13-14-15-13-25-2zM656 63l-5 10-7 11-7 10-8 10-10 11-10 10-12 10-11 11-15 8 4 9 16-5 17-4 15-5 15-6 15-7 14-8 13-9 12-9 12-11 11-11 4-25-13-20-25-4-20 14-5 10zM334 778v22H602v78l64-11 16-11-16-9V8e2H816l54 54 64-54V778H772l50-33 9-18H807l-2-2-10-11-10-11-11-11-13-12-13-13-15-12-15-14-1-1H881l44 49 54-49V619H618l48-8 16-11-16-10V557H840l33 27 59-49-27-21V428l-65-32v32H666V369l-22-11H850l32 26 60-48-27-22V197l-65-32v32H414l-64-32V390l64-32H602v70H431l-64-32V589l64-32H602v62H289v21H7e2l7 10 9 18 9 17 8 16 7 15 7 14 6 12 5 13 4 11 2 5h-1l2 3v2l2 2H334zM850 336H414V218H850V336zM602 535H431V449H602v86zm238 0H666V449H840v86zM5e2 671l-3 10-2 10-4 10-4 10-6 10-6 12-7 11-8 11-11 10 5 8 13-8 14-6 13-7 12-7 11-9 11-9 9-10 9-11 8-11 7-12-1-24-18-17-25 2-16 18-1 9z"/><glyph glyph-name="undefined" unicode="𠡾" horiz-adv-x="1024" vert-adv-y="918" d="M909-9l-8-10-8-10-11-9-10-7-12-6-12-4-13-4-13-1-13-1v32L701-13V3H809l7 1 7 1 6 1 5 2 5 3 5 3 4 4 4 4 4 5 4 7 8 19 8 27 8 37 7 44 6 52 5 60 4 68 2 75 2 83v79H782l-4-83-10-93-14-86-20-79-26-72-30-64-36-57L6e2-5 553-45 501-76l-5 8 44 39 38 44 34 48 29 56 25 62 20 68 15 76 10 83 6 90 1 80H573v22H718V842l64-11 17-11-17-9V6e2H910l33 27 59-49-27-16-1-64-1-84-3-76-4-69-5-62-6-54-8-48-8-40-10-34L916 3 909-9zM184-21V-5h86l7 1h5l3 1 2 1 1 1 1 1V2l2 3 1 5V176l-8-7-22-16-44-29-23-14-22-13-23-14-47-25-3-2-4-21L80 45 44 99l9 5 25 9 24 10 25 9 24 9 24 10 25 9 49 18 25 9 18 5V465l64-11 16-10-16-10V218h2l26-7 25-10 26-11 24-14 25-14 24-16 23-18 23-19 23-20 8-23-10-23-23-9-22 10-19 21-18 20-20 19-19 17-20 18-21 16-20 15-22 15-15 10V17 3l-3-14-4-13-7-11-8-11-11-9-13-7-13-4-13-3H270v32L184-21zm2 274-7 13-7 14-8 12-9 13-19 26-11 14-10 13-13 12 5 8 16-9 16-7 16-9 15-9 14-10 14-11 13-11 12-12 12-12 11-13 5-24-14-21-24-4-21 14-6 13zM511 397l52-39 8-18-23 1-23-25-29-26-15-12-17-11-17-12-18-10-19-11-6 8 14 15 13 16 12 16 12 15 11 15 9 15 10 15 16 29 5 9 2 4v1l3 5zM47 471v21H297V6e2H122v21H297V729H1e2v21H297V869l64-11 17-11-17-9V750h79l54 54 65-54V729H361V621h77l44 49 54-49V6e2H361V492H513l44 49 54-49V471H47z"/><glyph glyph-name="undefined" unicode="𠢉" horiz-adv-x="1024" vert-adv-y="918" d="M883-9l-8-10-8-10-10-9-11-7-12-6-12-4-13-4-13-1-13-1v32L708-13V3h75l7 1 7 1 6 1 5 2 5 3 4 3 5 4 4 4 4 5 4 7 8 19 9 27 7 37 7 44 6 52 4 60 4 68 3 75 1 83 1 79H756l-3-83-10-93-14-86-20-79-26-72-30-64-36-57L575-5 529-45 477-76l-5 8 43 39 39 44 33 48 29 56 25 62 19 68 15 76 11 83 6 90v80H549v22H693V842l64-11 16-11-16-9V6e2H884l32 27 59-49-26-16-1-64-2-84-2-76-4-69-5-62-6-54-7-48-9-40-10-34L890 3 883-9zM321-18V-2h65 7l4 1 5 2 1 1 1 1 1 2 1 3 1 5V121H173V-34L109-67V121H40v22h69V261H40v22h69V433l64-32h86v91H40v22H174V621H72v22H174v91H59v22H174V858l65-11 16-10-16-10V756H341V858l65-11 16-10-16-10V756h24l44 48 54-48V734H406V643h11l44 48 54-48V621H406V514h43l44 48 53-48V492H324V401h83l32 27 60-48-27-22V283h18l24 32 32-32V261H472V143h18l24 32 32-32V121H472V19L471 6 469-8l-5-12-6-13-9-11-11-8-12-7-13-4-13-3-14-1v33L321-18zM259 261H173V143h86V261zm148 0H324V143h83V261zM259 380H173V283h86v97zm148 0H324V283h83v97zM341 621H239V514H341V621zm0 113H239V643H341v91z"/><glyph glyph-name="undefined" unicode="𠥦" horiz-adv-x="1024" vert-adv-y="918" d="M867 847l54-48V777H168V25H856l54 53 64-53V3H168V-34L103-67V831l65-32H823l44 48zM824 61l-16 9-18 8-19 9-21 9-22 8-25 9-26 9-27 10-30 9 2 10 31-1 29-1 28-3 27-4 26-3 23-5 22-6 22-5 19-7 19-7 15-19-2-24-18-16-25 2-14 9zM462 173l4-10 46-40 1-17-21 9-7-3-25-7-25-7-27-7-27-6-29-6-30-5-30-5-33-4-33-4-34-1-2 9 32 12 31 11 30 11 29 10 28 10 27 10 25 10 25 10 23 10 22 10zm-276 4v21H419v66H246v22H419v59l65-11 16-11-16-10V286H647v59l65-11 16-11-16-10V286h76l44 48 54-48V264H712V198H847l44 49 54-49V177H186zm461 87H484V198H647v66zM362 353l-65-32V555l65-32H769l32 26 59-48-27-21V353l-64-32v32H362zm172 74H362V375H534v52zm235 0H598V375H769v52zM534 501H362V448H534v53zm235 0H598V448H769v53zm92 256 60-48-27-21V561l-65-33v66l-11 5-11-5-20-7-21-6-22-7-23-6-26-6-27-5-28-5-30-4-31-3-2 9 29 12 27 12 26 11 24 11 23 10 21 10 19 10 18 10 16 9 10 6-1 1 1-1 4 3 8-14 27-27v45l-18 8-13-5-18-6-20-6-20-5-22-6-24-4-24-5-26-3-28-4-28-3-3 10 27 11 25 10 23 11 23 10 21 9 38 19 12 6H578v22H829l32 26zm-360 0 59-48-27-21V561l-65-33v68l-6 3-11-4-20-7-20-7-22-6-24-6-26-6-28-6-29-4-31-5-33-3-2 9 30 13 29 12 27 11 25 11 23 10 22 10 19 10 18 9 15 9 9 6 5 3 8-15 22-22v88H433l31-31 1-18-21 9-9-4-19-6-19-6-20-5-22-6-24-4-24-5-27-3-28-4-30-3-2 10 28 11 25 11 24 10 23 10 21 9 19 10 18 8 12 7H217v22H468l33 26zm328-48H799l30-28v28z"/><glyph glyph-name="undefined" unicode="𠨔" horiz-adv-x="1024" vert-adv-y="918" d="M39 130l11 3 27 6 28 6 10 3V777H49v22H379l54 54 64-54V777H4e2V-45L335-77V184l-31-16-32-16-31-14-31-13-30-13-29-11-29-11L94 80l-6-2-7-20L67 70 39 130zM895 761l59-48-26-22V3L863-29V35H497V57H863V380H517v21H863V713H493v21H863l32 27zM335 777H180V164l15 4 32 8 33 9 34 10 35 9 6 1V777z"/><glyph glyph-name="undefined" unicode="𠩥" horiz-adv-x="1024" vert-adv-y="918" d="M125 831l64-32H867l54 54 64-54V777H189V449l-3-75-5-71-8-66-10-61-13-57-16-51-19-45L94-18 70-52 42-80l-7 6L52-41 68-5 82 35 95 80l10 50 8 54 7 59 3 64 2 69V831zM216-43v21H547V140H320v22H547V305H284v22H756l54 54 64-54V305H611V162H724l54 54 65-54V140H611V-22H833l54 54 64-54V-43H216zM323 722l65-32H761l32 27 59-49-27-21V428l-64-32v54H388V412l-65-32V722zm438-54H388V471H761V668z"/><glyph glyph-name="undefined" unicode="𠪙" horiz-adv-x="1024" vert-adv-y="918" d="M125 831l64-32H867l54 54 64-54V777H189V449l-3-75-5-71-8-66-10-61-13-57-16-51-19-45L94-18 70-52 42-80l-7 6L52-41 68-5 82 35 95 80l10 50 8 54 7 59 3 64 2 69V831zM852-45 836-30 817-16 798-1 776 13 753 27 729 40 702 54 645 82l3 10 33-5 31-6 30-8 28-9 27-10 26-12 23-12 24-13L890 3l20-15 10-23-8-23-23-10-23 8-14 15zM478 108l23-34 16-18V37l-19 8-10-6-27-14-27-15L404-3 374-16 343-28 310-40 277-51l-35-9-36-8-4 9 33 18 31 17L296-8 325 9l29 16 27 16 26 17 25 16 23 17 23 17zM199 123v22H440V262H260v21H440V394l64-11 17-11-17-10V283H675V394l64-11 17-11-17-10V283h62l53 54 65-54V262H739V145H862l54 53 64-53V123H199zM675 262H504V145H675V262zM368 411V373l-65-32V737l65-32H811l33 27 59-49-27-21V389l-65-32v54H368zM558 547H368V432H558V547zm253 0H622V432H811V547zM558 683H368V569H558V683zm253 0H622V569H811V683z"/><glyph glyph-name="undefined" unicode="𠶷" horiz-adv-x="1024" vert-adv-y="918" d="M699 748l53-37 8-18H737l-6-7-12-13-13-14-29-29-18-16-17-16-20-16-5-4H851l53 54 65-54V556H544V471H829l32 27 60-49-27-21V283l-65-32v53H544V194H755l32 27 59-48-26-22V-22L755-54V-1H274V-38L209-70V226l65-32H480V304H195V267l-65-33V503l65-32H480v85H55v22H599l10 14 14 22 13 20 11 19 11 18 10 17 9 15 8 15 6 13 3 8 5 9zm56-575H544v-3H480v3H274V21H755V173zM480 449H195V326H480V449zm349 0H544V326H829V449zM344 617l-4 12-5 13-6 12-7 13-9 14-10 13-10 13-12 14-15 12 6 8 17-8 17-8 17-9 15-11 14-10 13-12 12-13 11-13 11-15 8-15-1-24-18-17-24 1-17 17-3 13zM114 750v22H480v96l64-11 16-11-16-9V772H792l53 54 65-54V750H114z"/><glyph glyph-name="undefined" unicode="𡊁" horiz-adv-x="1024" vert-adv-y="918" d="M37 123l9 4 25 8 25 9 28 10 29 12 16 6V552H53v21H169V847l65-10 16-11-16-10V573h25l44 48 54-48V552H234V199l14 6 36 14 36 15 39 15 5-8-34-24-33-23-32-20-32-20-30-17-29-17-28-15-26-14L91 77 86 56 71 67 37 123zm314 0 9 5 26 14 23 13V726l46-23h1l35 32 18 16 19 16 18 16 55 48 14 13 1 1 3 3h1l39-51 1-20-19 8-24-16-22-13-21-13-21-12-22-12-21-12-22-10-15-6V190l21 11 28 15 29 14 29 15 30 14 30 12 6-8-25-22-26-21-25-20-26-19-26-19-25-18-50-36-25-18-6-4-1-20-17 8-43 49zm467 9v16h54l7 1 4 1 5 2 1 1 1 1 1 1 1 4 1 4V702H735V-56L671-88V756l64-32H893l32 26 60-48-27-21V170l-1-14-2-13-4-13-7-12-9-11-11-9-12-7-13-4-13-2-14-1v32l-54 16z"/><glyph glyph-name="undefined" unicode="𡊶" horiz-adv-x="1024" vert-adv-y="918" d="M622 863l42-48 3-19-20 5-3-2-21-14-21-14-21-12-22-12-23-10-23-10-23-7-18-5V444h80l44 48 54-48V423H472V116h83l44 49 54-49V95H472V30L408-2V767l60-30 10 7 20 13 19 14 19 14 35 29 17 16 16 16 13 12 5 5zM811 1e2v16h54l7 1 5 1 5 1 1 1v1l2 2 1 3 1 5V745H746V-45L681-77V799l65-32H887l32 26 59-48-27-21V138 124l-3-13-4-13-7-13-8-10-12-9-11-7-13-4-14-2-14-1V84l-54 16zM43 123l10 4 25 8 26 9 28 10 29 12 18 7V552H60v21H179V847l64-10 16-11-16-10V573h29l44 48 54-48V552H243V198l16 7 36 14 37 15 40 15 5-8-35-24-34-23-33-20-32-20-31-17-30-17-28-15-27-14-26-13-4-1-4-22L77 67 43 123z"/><glyph glyph-name="undefined" unicode="𡌳" horiz-adv-x="1024" vert-adv-y="918" d="M50-18V3H480V140H120v22H480V272l64-11 16-10-16-10V162H786l54 54 64-54V140H544V3H856l54 54L974 3V-18H50zM668 852l-15-9 6-107H867l54 54 64-54V714H662l17-90 29-87 36-69 11 11 37 44 32 47 25 46 5 10 55-36 9-17-21-1-22-36-39-49-43-46-18-15 8-12 42-38 40-27 37-17 21-6 30 129h11L953 320l22-9 10-23-10-22-22-10-33 4-40 11-46 21-49 33-49 46-11 15-32-22-56-31-62-27-65-22-69-17-74-11-1 9 70 22 65 24 60 28 56 30 51 33 28 23-7 8-40 78-33 97-19 106H39v22H594l-6 121-1 19 65-13 16-11zM51 362l10 1 47 4 49 4 49 5 50 5 51 4 52 5 54 6 54 5 57 4 57 4 1-10-55-14-55-13-54-11-53-11-52-10-50-9-50-9-49-8-48-8-25-4-9-18-13 15-18 63zM157 667l65-33H437l32 27 59-48-27-22V470l-64-32v32H222V454l-65-33V667zm280-54H222V491H437V613zM816 781l-6 8-7 9-17 18-11 8-12 9-13 9-14 10-16 7 3 9 17-4 18-2 16-3 16-4 15-5 15-5 13-7 13-7 12-8 12-9 7-23-11-22-23-8-22 11-5 9z"/><glyph glyph-name="undefined" unicode="𡟔" horiz-adv-x="1024" vert-adv-y="918" d="M327 102l-17 24-18 25-21 23-3 3-35-62-40-58L148 8 98-33 44-65l-6 8L85-17l42 44 37 51 34 57 29 63 5 14-5 5-25 21-26 20-28 20-12 8-5-19-17-62-62 16 16 62 16 62 15 61 15 63 14 63 13 63 2 10H41v22H147l6 32 12 64 10 65 10 59 3 16 62-21 14-12-17-8-8-45-11-65-12-65-4-20H313l32 27 59-49-27-16-3-1-9-75-18-94-21-87-26-80-12-28 18-14 25-23 23-24 23-26 19-27 4-25-14-20-24-4-20 14-15 27zM849 237H577V23H849V237zM312 605H208l-5-23-12-64-14-63-15-64-15-62-7-27 17-6 33-13 32-15 25-15 5 15 22 78 17 84 13 91 8 84zM892 319l-33 32-28 35-23 39-19 41-15 45-10 48-3 29-1-5-21-61-26-56-32-50-38-45-44-38-49-32-31-14 58-29H849l32 27 59-48-26-22V-20L849-52V2H577V-36L512-68V283l-17-8-60-18-3 9 54 28 48 31 43 35 36 38 30 43 25 47 21 52 14 57 10 62 3 54H669l-4-7-18-27-21-26-23-26-25-24-28-22-7 7 20 29 18 28 16 28 15 27 13 28 11 27 9 27 7 27 5 27 3 27h1l1 11 62-20 15-14-20-8-2-9-10-31-12-29-14-29H893l2 2v2l1-1 29 24 59-48-27-16-19-8-2-3-10-12-10-12-11-13-12-12-13-12-13-13-15-12-14-13-7 5 10 17 8 17 8 16 7 15 7 15 6 15 6 13 5 13H781l-4-32 3-17 9-50 13-47 15-42 18-38 20-34 24-31 26-27 29-24 32-20 22-14-59-46-37 28zM381 444l10 5 22 8 22 10 22 10 23 12 23 12 24 12 24 13 24 13 26 14 27 14 6-8-20-22-21-21-22-19-22-18-22-17-21-16-22-15-22-14-22-14-2-1-3-21-17 10-37 53zM544 772l53-48V702H388v22H5e2l44 48z"/><glyph glyph-name="undefined" unicode="𡿿" horiz-adv-x="1024" vert-adv-y="918" d="M668 847l-16-9 7-184H867l54 53 64-53V632H661l18-150 30-138 37-111 18-36 26 57 23 65 18 71 13 70 2 16 62-21 15-13-19-7-13-59-23-75-29-69-33-63-16-23 40-59 41-42 36-26 17-7 29 126h11L953 3l22-9 10-23-10-23-22-9-36 6-42 18L829-4 780 46 749 92 722 61 672 17 617-21 557-52 492-76l-4 9 59 33L601 3l48 41 43 45 32 43-37 77-40 117-32 145-18 161H39v22H595l-8 199v18l65-13 16-11zM151-32l-3 12-6 11-6 12-8 13-9 11-10 13L97 52 84 65 69 76l1 1H69l-6 7L76 98l11 15 11 15 9 13 9 14 8 13 8 13 7 11 6 12 3 7h-1l6 9 51-40 7-18-23 1-5-4-12-11-12-11-13-10-14-10-15-11-15-9-17-9-7-5 13-6 18-7 17-7 16-9 15-10 14-11 13-11L195 8 205-6l9-15-1-24-18-17H171L154-44l-3 12zM319-15 315-5 310 5l-6 11-8 11-9 11-11 11-12 12-14 12-16 10 1 1-7 8 13 14 11 17 11 15 10 14 9 14 9 14 8 14 7 12 6 13 3 8 5 9 52-38 8-18H357l-6-6-12-12-12-11-14-12-14-12-15-10-16-11-17-10-8-6 14-5 17-5 18-6 16-8 14-8 14-10 13-10 12-11 10-12L381 1V-23L364-41H339L322-25l-3 10zM496 2l-3 9-5 9-7 10-7 10-9 11-11 10-11 11-14 10-15 9v2-1l-7 8 13 15 10 15 11 15 10 15 9 14 8 14 7 13 7 13 6 13 4 7 4 10 53-38 8-18H533l-5-6-12-12-13-12-13-11-13-12-15-10-16-11-16-10-8-6 13-3 17-5 17-5 15-6 15-7 14-8 12-9 11-10 11-11 9-12 1-25-16-19-25-1L498-6l-2 8zM51 293l11 1 47 4 48 4 49 4 50 5 51 4 52 5 54 5 55 4 56 4 57 3 1-9-55-14-55-12-54-11-53-10-52-10-51-9-49-8-49-8-48-8-25-4-10-18-12 15-18 63zM151 581l65-32H432l32 27 59-49-27-21V394l-64-33v33H216V377l-65-32V581zm281-54H216V415H432V527zM814 741l-6 13-8 13-8 13-10 12-10 12-12 13-12 12-13 12-16 11 4 8 18-6 18-6 18-7 17-9 16-9 14-11 15-12 13-12 13-14 11-15 3-24-15-20-25-3-19 15-6 14z"/><glyph glyph-name="undefined" unicode="𢂗" horiz-adv-x="1024" vert-adv-y="918" d="M711 38V54h75l7 1 4 1 5 2 2 2 2 5 1 4 1 7V283H539V-51L474-83V283H206V27L141-5V337l65-33H474v84l65-11 16-11-16-10V304H808l32 27 59-48-27-22V76l-1-14-2-13-4-13-7-12-9-11-11-9-12-7-13-4-13-2-14-1V22L711 38zM447 882l2-7 52-44 2-17-23 10-15-4-30-7-31-6-31-6-32-5-33-4-33-4-34-3-35-2-36-1h-5V657H349l53 54 65-54V635H165V491H353l54 54 65-54V470H165V405l-64-32V835l64-32v-2l2 1 34 9 34 8 32 9 33 9 61 17 30 9 28 9 23 8v1l1-1 4 2zM766 486v16h81l5 1 5 2 2 2 2 5 1 5 1 7V798H601V412l-65-32V852l65-32H863l32 27 59-49-27-21V524l-1-14-2-14-4-13-7-12-9-11-11-8-12-7-13-5-14-2H841v32l-75 16z"/><glyph glyph-name="undefined" unicode="𢇙" horiz-adv-x="1024" vert-adv-y="918" d="M136 750l64-32H507V874l64-11 16-10-16-10V718H856l54 54 64-54V697H2e2V380l-3-61-6-58-9-55-12-52-16-48-18-45-21-42L91-18 63-52 31-81l-7 7L46-39 66-3 84 35 99 76l12 43 10 46 8 50 5 52 2 54V750zM820-31 756 18 7e2 74l-50 62-42 69-35 76-28 82-7 27-298-26-2 21 295 26-9 40-14 94-7 101v13l65-11 17-10-16-10 5-76 13-89 11-46 213 18 48 58 70-48 1-21-327-29 4-14 25-76 33-70 38-62 44-56 52-50 57-44L879 9l26 114h11L906-7l14-9 16-19-3-24-18-16-25 2-70 42zM743 527l-6 13-6 12-8 12-10 13-11 13-12 13-14 13-15 13-17 12 4 9 20-8 20-7 19-8 17-9 16-11 16-10 14-12 13-12 11-14 11-14 1-25-16-19-24-2-19 17-4 11z"/><glyph glyph-name="undefined" unicode="𢍺" horiz-adv-x="1024" vert-adv-y="918" d="M456-9 442-8 429-6 416-2 403 5l-10 9-9 11-7 12-4 13-2 13-1 14V437L60 375l-4 21 314 63V838l65-11 16-11-16-10V472l401 81 43 64 74-40 4-21L435 450V70l1-4 1-5 1-1 1-1 2-1 3-1 5-1H829l32 134h11L861 56l19-13 13-19L880 4 861-9H456zM694 692l-4 12-6 12-7 13-9 12-11 13-13 13-14 14-16 13-18 12 4 9 21-8 21-7 19-8 18-10 17-10 15-12 14-12 12-14 11-15 10-16-1-25-18-17-25 1-17 18-3 12z"/><glyph glyph-name="undefined" unicode="𢎀" horiz-adv-x="1024" vert-adv-y="918" d="M630-26v16H738l6 1h5l3 1 2 2h1l1 1 1 2 1 4 1 4v7V120H265V-47L2e2-79V447l65-33H759l33 27 59-48-27-22V12L823-2l-2-14-5-12-7-12-8-11-11-9-12-7-13-4-14-3H738v32L630-26zM759 256H265V142H759V256zm0 137H265V278H759V393zm65 37-80 30-71 34-63 39-54 43-46 49-37 52-12 25L73 686v21l378 16-6 12-18 62-8 60-1 3v2l-1 12 65-8 17-10-14-9 5-37 16-52 15-32 311 14 51 56 67-51 1-22-419-18 28-39 40-42 47-39 57-34 66-32 74-28 47-13 29 125h10L920 469l8-2 19-15 4-24-15-20-25-4-87 26zM725 780l-7 8-9 8-12 9-13 8-16 10-17 9-19 10-21 10-23 9 2 9 25-3 24-3 22-3 20-5 19-4 18-5 16-6 15-7 14-7 12-8 10-23-9-23-23-9-23 9-5 7z"/><glyph glyph-name="undefined" unicode="𢎃" horiz-adv-x="1024" vert-adv-y="918" d="M874-51 832-29 787 6 740 59l-44 71-42 92-33 116-26 141-14 169H60v22H581V849l1 12 64-15 15-11-15-9V670H829l54 54 64-54V648H646l13-161 24-135 32-107 37-84 40-63 39-44 36-29 20-10 28 123h11L916 4l3-1L940-9l7-24-12-21-24-7-37 10zM110 560l64-32H440l33 27 59-49-27-21V54L440 22V86H174V22L110-11V560zM440 303H174V108H440V303zm0 203H174V324H440V506zM789 725l-7 9-7 10-8 10-10 9-11 11-11 10-13 10-14 11-16 9 4 9 18-5 17-5 18-4 15-6 16-6 14-7 14-7 13-8 11-9 12-9 7-24-12-22-23-6-22 11-5 9z"/><glyph glyph-name="undefined" unicode="𢎉" horiz-adv-x="1024" vert-adv-y="918" d="M423-13V3h75l6 1h5l4 1 1 1 1 2h1l1 2 1 3 1 5 1 7V431H443l-1-3-18-32-18-29-20-29-22-26-23-24-8 6 14 30 14 29 14 30 13 31 12 32 11 33 11 34 9 35 9 36 7 37 3 10 60-25 13-14-19-6-5-18-13-37-13-36-15-34-5-9H586l44 49 52-47-3 26-11 168H60v22H668l-1 173v1 4l1 13 64-14 16-12-16-8 1-157h96l54 54 64-54V648H733l10-162 18-135 24-110 27-84 29-63 28-44 25-27 27 115h10L921 5l5-2 20-14 6-23-14-21-23-6-31 12-32 23-34 36-34 53-32 71-30 91-25 114-13 1e2v-8H584V25l-1-14-2-13-4-13-7-12-9-11-11-9-12-7-13-4-14-2-13-1v32L423-13zM157 631l60-25 13-14-19-6-5-18-12-37-14-35-14-35-4-9H282l44 49 54-49V431H255V-28L191-61V431H152l-1-3-17-31-18-30-18-28-21-27-22-24-8 6 13 29 12 30 13 30 12 31 11 32 11 32 10 35 9 35 8 36 7 32 4 15zM818 731l-3 8-4 9-4 9-6 10-6 9-7 9-8 10-8 11-11 8 5 8 13-6 13-4 12-5 13-6 11-6 11-7 10-8 10-8 9-9 8-9 3-25-15-19-25-3-19 16-2 8z"/><glyph glyph-name="undefined" unicode="𢓀" horiz-adv-x="1024" vert-adv-y="918" d="M340 660l52-38 8-18H380l-16-23-29-39-31-38-32-37-34-35-8-8 38-7 16-11-16-9V-40L203-72V398l-37-32-38-32-40-28-43-27-6 8 36 34 34 35 33 35 32 35 31 36 29 37 28 38 26 39 26 39 20 36 2 3 1 1 3 5zM888-46 842-20 795 19 750 74l-41 72-36 92-30 115-24 138-2 24-249-22-1 21 248 22-11 121-5 190v19l64-13 16-11-15-9 4-172 11-119 177 15 48 59 70-48 1-21-294-26 2-22 23-133 28-107 33-85 36-64 38-46 37-31 34-19 28 124h11L941 5l6-2 20-14 5-24-14-20-25-5-45 14zM299 864l52-38 8-18H338l-12-17-26-34-27-33-27-31-29-30-30-28-30-28-32-25-33-23-34-22-6 8 27 29 27 29 26 30 26 30 25 31 24 31 24 32 22 34 22 34 18 31 1 1 2 3 3 4zM829 692l-7 13-8 14-10 14-10 13-12 14-12 13-14 14-14 14-17 13 5 9 19-9 20-8 18-8 18-10 17-11 15-11 15-13 14-13 13-14 12-15 3-24-14-20-24-3-20 14-7 14z"/><glyph glyph-name="undefined" unicode="𢖺" horiz-adv-x="1024" vert-adv-y="918" d="M179 863l64-10 16-11-16-10V-45L179-77V863zM888-46 842-20 795 19 750 74l-41 72-36 92-30 115-24 138-2 24-232-21-1-12-20-16-25 4-15 19-1 14-3 15-4 14-5 16-5 15-7 16-7 17-9 16-9 18-11 17 7 6 16-14 15-13 15-13 13-15 13-14 10-15 11-15 9-16 8-16 3-7 232 21-11 121-5 190v19l64-13 16-11-15-9 4-172 11-119 177 15 48 59 70-48 1-21-294-26 2-22 23-133 28-107 33-85 36-64 38-46 37-31 34-19 28 124h11L941 5l6-2 20-14 5-24-14-20-25-5-45 14zM80 389l-24 5-13 20 5 24 8 9 8 11 8 14 7 16 8 19 8 21 7 23 8 25 7 27 8 30 9-1 1-31V572l-1-27-2-25-3-24-4-22-4-20-6-19-6-17-8-16-21-13zM829 692l-7 13-8 14-10 14-10 13-12 14-12 13-14 14-14 14-17 13 5 9 19-9 20-8 18-8 18-10 17-11 15-11 15-13 14-13 13-14 12-15 3-24-14-20-24-3-20 14-7 14z"/><glyph glyph-name="undefined" unicode="𢡃" horiz-adv-x="1024" vert-adv-y="918" d="M733 7l33 134h10v-4l2 4 25-7 25-7 23-9 21-9 19-10 18-11 16-12 14-14 13-14 11-16V8L947-10l-25-1L904 5l-4 11-5 11-8 13-9 12-12 13-14 13-17 13-18 14-20 14-21 12L766 7 785-6l13-19-13-20-19-13H377l-13 1-14 3-13 4-12 6-11 9-9 11-6 12-5 13-2 14-1 13V147l65-10 16-11-16-10V28 22l1-5 1-3 1-2 1-1 1-1 2-1 3-1h5l6-1H733zM64-35 46-18 48 6 65 24l15 4 14 6 13 7 11 8 10 10 9 12 8 14 7 16 6 18 3 21h10l2-22 2-21-1-20-4-20-6-19-10-18L142 3 126-12 108-25 88-37 64-35zM565 63l-8 11-10 10-11 11-13 10-13 11-15 10-16 10-18 11-19 8 3 10 21-4 21-3 20-5 18-5 19-7 17-7 16-8 15-9 15-9 13-11 8-23-10-23-23-8-22 10-8 10zM323 659l-3 9-3 9-3 10-11 27-4 9-5 9-3 2H125v22H480V863l64-10 16-11-16-10V756H781l54 54 64-54V734H716l34-29 6-18-25 3-8-6-9-8-11-8-10-8-12-8-12-9-8-5H871l44 48 54-48V616H544V547H747l33 27 59-49-27-21V412l-65-32v32H544V333H792l32 27 59-49-27-21V201l-64-32v32H232l-64-32V365l64-32H480v79H276l-65-32V579l65-32H480v69H55v22H338l-13 10-2 11zM792 311H232V223H792v88zM480 525H276V433H480v92zm267 0H544V433H747v92zM317 734l5-2 9-6 10-6 9-7 8-8 9-9 8-9 8-10 1-24-13-15H642l4 5 7 14 7 13 7 12 6 12 6 11 6 11 4 10 4 8H317z"/><glyph glyph-name="undefined" unicode="𢨳" horiz-adv-x="1024" vert-adv-y="918" d="M217 405l-20-21-28-22-32-18-35-16-38-11-4 9 33 20 29 22 25 22 20 22 18 24 13 25 10 26 6 27 3 30V821l65-32v-2l31 4 61 8 61 8 58 9 58 10 57 9 55 12 54 11 53 13 51 13 2-7 55-46 2-16-23 11-21-5-54-10-54-9-56-9-57-7-58-6-59-4-60-3-62-3-62 1-32 1V719H824l32 27 59-49-27-21V553l-64-32v43H281l-3-27-8-36-12-33-16-31-6-7 46-23v-2l31 4 61 9 61 8 58 8 58 10 57 10 55 11 54 11 53 13 51 14 2-8 55-46 2-16-23 11-21-4-54-11-54-9-56-8-57-8-58-6-59-4-60-3-62-2H314l-32 1V337H824l32 27 59-48-27-22V161l-64-33v54H281l-3-27-8-36-12-33-16-31-21-28L197 2 169-19 137-38 102-53 64-65l-4 9L93-35l29 21L147 8l20 23 18 23 13 25 10 26 6 28 3 29V405zm607-89H282V204H824V316zm0 381H282V585H824V697z"/><glyph glyph-name="undefined" unicode="𢫽" horiz-adv-x="1024" vert-adv-y="918" d="M451 454l-4-72-7-68-8-64-11-60-12-55-15-51-17-47L357-6 334-44 309-76l-8 6 15 36L330 5l13 43 11 47 10 50 8 53 6 58 5 63 3 66 1 70V791l62-31 15 2 60 10 58 10 56 10 54 11 52 12 49 13 48 14 46 15 44 16 3-9 49-41 1-17-22 9-10-3-47-14-49-11-50-11-53-10-53-8-56-6-58-5-59-3-61-2-15 1V454zM725 287H835V462H727V313l-2-26zM80-18V-2h75 6l5 1 5 2 2 2 2 5 1 5 1 6V314l-8-5-30-18-30-17-11-6-2-21-17 9-39 54 10 4 31 14 32 14 62 29 2 1V632H56v22H177V863l64-10 16-11-16-10V654h26l44 48 54-48V632H241V402l58 26 31 13 32 13 5-8-26-22-28-21-28-20-28-19-16-10V19L240 6 238-8l-4-12-7-13-9-11-11-8-12-7-13-4-14-3-13-1v33L80-18zM835 659H727V484H835V659zM663 462H480v22H663V659H527v21H835l32 27 59-48-27-22V484h12l33 37 43-37V462H899V233l-64-32v65H724l-1-9-8-53-12-49-17-45-21-42-25-37L611-2 577-30 540-53 499-70l-5 8 35 27L558-8l27 30 22 32 18 35 14 38 12 42 7 44 4 48v5H514v21H662l1 26V462z"/><glyph glyph-name="undefined" unicode="𢬃" horiz-adv-x="1024" vert-adv-y="918" d="M92-18V-2h75 7l5 1 5 2 2 2 1 5 1 5 1 6V316l-13-7-32-18-33-17-14-8-3-20-16 10-37 54 10 4 34 14 67 30 34 13 3 2V632H56v22H189V863l64-10 17-11-17-10V654h19l53 53 65-53V632H253V401l33 13 34 14 33 13 35 13 4-8-29-22-29-21-31-20-31-19-19-11V19L252 6 250-8l-4-12-7-13-9-11-10-8-13-7-13-4-13-3-14-1v33L92-18zM627 863l44-47 3-19-20 5-2-2-19-15-19-13-21-12-20-12-21-10-21-10-22-8-14-3V444h83l33 38 43-38V423H495V116h65l44 49 54-49V95H495V30L431-2V767l58-30 8 7 18 12 17 14 17 14 16 14 15 15 16 15 14 17 11 12h1l3 4 2 2zM793 1e2v16h53l7 1 5 1 5 1 2 2 1 5 1 5 1 7V745H745V-45L680-77V799l65-32H868l32 26 59-48-27-21V138l-1-14-2-13-4-13-7-13-9-10-10-9-13-7-13-4-13-2-14-1V84l-53 16z"/><glyph glyph-name="undefined" unicode="𢮮" horiz-adv-x="1024" vert-adv-y="918" d="M330 130l11 3 22 5 24 7 7 1V777H345v22H624l44 48 54-48V777H641V-45L577-77V180l-19-12-27-15-25-14-26-14-25-12-25-12-23-11-24-9-2-1-6-21-15 12-30 59zM71-18V-2h75 7l5 1 5 2 2 2 1 5 1 5 1 6V316l-11-7-32-18-45-24-3-21-17 10-37 54 10 4 33 14 33 15 33 14 36 16V632H38v22H168V863l64-10 17-11-17-10V654h16l53 53 65-53V632H232V401l32 13 32 14 34 13 33 13 5-8-29-22-29-21-30-20-30-19-18-11V19L231 6 229-8l-4-12-7-13-9-11-10-8-13-7-13-4-13-3-14-1v33L71-18zM931 761l59-48-27-22V3L899-29V35H694V57H899V380H706v21H899V713H692v21H899l32 27zM577 471H458V166l5 2 26 8 28 9 29 9 29 9 2 1V471zm0 306H458V492H577V777z"/><glyph glyph-name="undefined" unicode="𣟥" horiz-adv-x="1024" vert-adv-y="918" d="M703 61l-4 10-5 10-6 9-6 9-8 10-8 10-9 9-10 10-12 8 4 9 14-6h4v79H484V212l-65-32V390l65-32H657v63H523l-65-32V592l65-32H657v63H390l2-2V6e2H257V472l18-6 17-6 15-8 16-10 14-10 14-11 13-11 12-13 12-13 4-25-15-20-24-4-20 15-6 12-6 13-8 13-9 11-9 13-9 12-11 11-12 12-6 6V-40L192-72V419l-6-17-18-47-20-46-22-45-24-43-26-41-28-39-9 5 19 44 19 44 17 44 16 46 15 46 13 47 13 49 10 48 10 51 5 35H44v21H192V863l65-10 16-11-16-10V621h37l44 49 39-35v9H736l6 9 7 17 7 17 7 15 6 14 5 14 5 12 4 12 4 10 1 4-1 1 2 4v1l2 3H416v21H646v76l65-11 16-11-16-10V798H823l53 54 65-54V777H796l51-32 10-17-25-2h-1l-8-10-10-11-10-11-11-12-25-25-15-12-1-1H904l33 38 43-38V623H708l13-3 16-10-16-10V560H845l32 27 59-49-27-21V421l-64-32v32H721V358H884l32 27 59-48-26-22V217l-65-32v43H721V178l-60-30 6-2 14-5 13-5 13-6 13-7 11-9 11-9 10-9 9-11 4-24-14-20-25-4-20 15-3 9zM611-66l-14 1-12 2-14 4-12 7-10 9-10 11-6 12-4 13-3 13-1 14V138l65-11 16-10-16-10V20 13l1-4 1-4 1-1 1-1 1-1 2-1 3-1 5-1 6-1H813l32 135h11v-3 1l17-8 17-8 16-9 15-9 13-10 12-12 12-12 10-14 9-14 8-15-3-24-18-16-25 3L923 2l-1 11-3 11-4 12-5 12-7 12-7 12-9 13-11 13-11 13-10 8L845-2l20-13 13-19-13-19-20-13H611zM394-44 374-29 370-5l15 20 8 3 8 5 8 6 8 9 7 10 7 12 6 15 6 16 5 19 2 21h10l2-21 3-21 1-19-1-19-3-18-4-16-7-16-9-16-11-13-13-12-24-4zM657 337H484V249H657v88zm227 0H721V249H884v88zM657 538H523V443H657v95zm188 0H721V443H845v95zM557 675l-1 9-3 10-2 9-4 10-4 10-5 10-6 11-7 11-9 9 6 7 12-7 12-5 11-7 11-8 11-8 9-9 9-9 8-11 8-10 6-12-2-24-19-16-24 2-16 19-1 9z"/><glyph glyph-name="undefined" unicode="𣟻" horiz-adv-x="1024" vert-adv-y="918" d="M309 363l-6 13-7 12-8 12-8 12-9 12-11 12-15 16V-40L181-72V412l-3-9-18-48-19-46-21-45-22-43-26-41-27-39-8 5 17 43 17 44 17 45 15 46 14 46 13 47 12 48 10 49 8 51 5 35H41v21H181V863l64-10 16-11-16-10V621h29l44 49 54-49V6e2H245V471l16-5 17-7 15-8 15-9 14-10 13-11 12-12 12-12 11-14 3-24-14-20-25-3-19 15-6 12zM595-60l-14 1-13 3-13 4-12 6-11 9-9 11-6 12-4 13-3 13-1 14V135l65-10 16-11-16-10V26 19l1-4 1-4 1-1 1-1 3-2 3-1 5-1H810l32 134h11l-1-12 1 1 17-8 18-6 16-8 16-9 13-9 13-11 12-11 11-13 9-13 8-14-2-25-18-16-24 2L925 5l-2 11-2 10-5 11-5 11-7 12-8 12-10 12-11 12-12 13-12 9L842 5 861-8l13-19-13-20-19-13H595zM368-38 349-23 347 2l15 19 9 3 9 4 8 6 8 7 7 10 7 11 7 13 5 16 6 17 1 19 10 1 2-20 3-20V70l-1-18-3-17-5-17-7-15-10-14-11-14-14-11-25-2zM695 61l-5 9-4 9-7 9-7 9-8 9-8 10-10 9-11 10-12 7 3 9 14-5 6-1v74H463l-65-32V376l65-32H646v59H503l-64-33V567l64-32H646v67l65-11 16-10-16-10V535H843l15 13-2 1 8 12 6 14 5 12 5 11 5 11 4 10 3 7H437l1-7V603l-1-15-2-15-4-14-7-14-8-12-10-11-25-4-20 14-4 24 14 21h5l5 3 6 4 6 6 7 9 5 11 5 13 5 15 5 17 1 19 10 1 2-20 1-7H559l-12 13-1 10-1 10-2 9-3 9-3 10-3 9-4 9-5 10-5 10-7 7 5 8 10-6 11-5 10-6 10-6 9-8 10-8 8-9 15-20 7-12-1-25-11-9H717l3 5 6 15 5 15 6 13 5 14 5 12 5 12 8 24 2 5H409v22H633v90l64-11 17-11-17-10V785H803l54 54 64-54V763H783l38-25 8-18H805l-1-2-18-20-10-10-11-11-11-10-11-11-10-8H895l5 3v3l1-1 27 22 59-49-27-16-30-12-5-4-9-8-9-8-11-8-11-8-5-4 55-45-27-21V403l-65-33v33H711V344H884l32 27 59-48-26-22V209l-65-33v43H711V174l-59-30h4l14-5 13-5 13-6 13-6 12-7 11-9 11-9 9-10 5-24-14-21-24-4-20 14-4 9zM646 323H463V241H646v82zm238 0H711V241H884v82zM646 513H503V424H646v89zm197 0H711V424H843v89z"/><glyph glyph-name="undefined" unicode="𣴤" horiz-adv-x="1024" vert-adv-y="918" d="M776 847l-16-9 5-184h91l53 53 65-53V632H767l12-151 20-140 16-72 17 45 22 74 17 74 4 15 61-24 13-14-19-6-17-62-27-75-29-70-19-38 14-44 29-62 27-42 18-18 26 116h11L953 3l22-9 10-23-10-23-23-9-31 7-31 21L858 1 825 51l-30 64-7-10-39-50-43-44-46-37-49-29-51-21-4 9 45 29L643-3l38 39 36 44 33 50 24 45-12 37-26 117-21 145-13 158H337v22H701l-6 199v18l65-13 16-11zM203 121l3-4 12-34 8-37 4-40 1-43-12-22-23-7-22 11-8 23 3 38V40l-4 31-6 27-10 25-12 23-16 20-20 19-24 17-29 16 3 9 34-6 31-11 28-17 12-11 9 18 11 27 15 34 17 42 21 50 23 58 28 65 30 72 35 81 9-4-24-84-23-75-21-68-19-59-16-51-14-44-10-35-8-28-5-20-2-11-9-29zm421-1-1 13-2 14-2 4-5-3-28-11-28-11-57-19-29-9-29-9-58-17-7-3-8-19-14 13-25 61 11 2 30 5 19 4 5 9 23 39 23 37 21 36 21 36 20 34 19 33 19 32 17 32 14 25 6 10 52-38 8-18H619l-8-11-21-30-21-31-23-32-24-31-25-34-26-33-28-34-23-26 129 21 30 4 30 3 5 1-2 6-6 14-7 15-9 16-9 17-12 15 6 7 16-13 16-11 15-12 13-13 12-14 11-14 9-15 9-16 7-16 6-17-6-23-20-14-25 6-13 21-1 12zM431 317l-3 9-5 11-7 11-8 12-9 12-11 13-13 14-13 15-16 13 5 8 19-10 18-8 18-9 4-2 7 14 11 25 11 22 11 22 10 21 9 20 9 19 8 19 7 17 4 11-1 1 6 11 55-34 10-17-22-2-9-15-13-17-12-18-14-18-15-19-16-19-16-19-19-20-10-11h1l14-10 14-10 12-10 11-11 10-11 9-12 1-24-17-19-24-1-18 17-3 9zM152 468l-6 11-8 11-9 11-11 11-12 11-15 11-16 12-16 11-20 10 4 9 21-5 21-4 20-6 18-7 18-8 17-8 15-11 14-10 13-13 12-13 4-24-15-20-24-4-20 14-5 11zm86 257-6 10-7 11-9 10-10 12-12 11-14 11-16 12-16 12-20 11 4 9 21-6 21-5 20-6 18-7 17-8 16-9 15-10 14-10 12-11 11-13 4-24-15-20-24-4-20 15-4 9zm610 21-3 13-9 25-5 12-6 11-6 12-7 11-8 12-9 9 5 8 13-7 13-6 13-8 12-8 12-11 11-10 10-12 10-13 9-14 8-14-1-25-17-17-25 1-17 18-3 13z"/><glyph glyph-name="undefined" unicode="𣴲" horiz-adv-x="1024" vert-adv-y="918" d="M345-25V-9H459l5 1 3 1 2 1 1 1 1 1 2 5 1 4v7V444l65-11 16-10-16-10V401l16-53 21-50 26-45 27-35 15 8 33 16 59 30 27 14 24 13 24 13 21 12 20 11 13 9 5 3 8-16 35-34 1-18-20 8-14-6-23-9-24-9-25-10-28-9-29-10-31-9-33-10-35-9-10-2 28-28 43-33 48-29 56-26 61-22 68-19 46-11-63-57L857 2 791 30 732 62 680 99l-44 41-38 45-30 49-21 53-8 33V12L538-2l-2-13-5-13-7-12-8-11-11-9-12-6-13-4-14-3-13-1v33L345-25zm18 343 59-48-27-16-10-4-6-18-19-38-24-35-29-33-33-29-37-27-42-24-46-20L99 8 45-6 42 3 92 27l45 25 40 25 36 26 31 28 26 29 22 30 17 31 13 33 4 16H70v21H330l33 27zM872 573l-51 15-48 16 29-23-27-21V427l-65-32v54H308V411l-65-32V608l-11-3-59-15-63-12-66-10-2 10 64 20 59 20 56 20 51 22 48 22 44 23 39 25 36 25 32 27 28 27 1 1 41-45 10-5 35-19 37-18 39-18 41-15 43-15 44-14 48-12 50-11 52-10 49-9-64-60-53 14zm-162 8H308V470H710V581zM527 749l-17-15-38-26-41-25-44-22-48-21-52-19-11-3 32-15H710l22 18-6 3-43 20-41 22-38 23-35 25-31 28-5 5-6 2zM347 874l40-51 1-19-19 7-5-2-24-14-25-13-28-12-29-12-30-11-33-10-34-9-36-8-38-6-3 10 34 16 33 15 31 15 29 15 28 14 26 15 23 15 22 15 20 15 13 12 4 3zM838 739l-18 13-19 12-21 12-22 12-24 12-25 12-27 12-28 13-30 14 3 9 32-3 31-5 30-7 29-7 26-8 26-9 24-9 22-10 23-10 19-11 14-21-4-24-21-13-25 4-15 12z"/><glyph glyph-name="undefined" unicode="𣵽" horiz-adv-x="1024" vert-adv-y="918" d="M873-48 833-20 797 10 764 44 736 81l-26 39-21 43-17 46-13 49-7 46H629l-10-43-26-73-34-67-41-58-48-48-55-40-61-30-67-21-3 9 61 30L399-2l46 42 41 49 33 55 27 62 21 69 5 29H310v22H576l5 27 8 85 2 63-31-5-56-7-57-5-59-2-59 1v9l57 11 57 10 56 11 54 13 54 12 52 15 51 16 50 16 49 18 48 20 4-10 46-40 1-17-21 9-6-2-51-18-52-15-54-14-53-12-16-3-4-79-13-89-4-18H837l54 54 65-54V304H664l16-40 21-43 23-40 24-36 27-33 29-30 32-27 34-24 36-20L945-7l32-15-61-50-43 24zM198 121l3-5 12-33 8-37 4-40V-37L214-58l-23-8-22 11-8 23 3 38V40l-4 31-6 28-9 25-11 22-16 21-18 18-23 17-27 16 3 9 33-7 29-11 27-17 10-9 7 16 11 27 14 35 17 42 20 50 22 57 26 66 30 72 33 80 10-2-24-84-22-76-19-67-18-60-15-51-13-43-10-36-7-28-5-19-1-11-10-30zM148 469l-6 11-7 10-9 12-10 11-12 11-13 11-15 11-16 11-18 10 3 9 21-5 20-4 19-6 18-7 16-8 17-9 14-10 14-11 12-12 11-13 3-25-14-19-24-3-20 14-4 11zM722 868l64-11 16-11-16-9V752h52l54 54 65-54V731H786V641l-64-32V731H538V641l-65-32V731H303v21H473V868l65-11 16-11-16-9V752H722V868zM229 726l-5 10-7 10-8 11-10 11-11 12-13 11-15 12-15 11-18 11 3 9 21-7 20-4 18-7 18-7 16-8 16-9 14-9 13-10 12-12 10-13 3-24-14-19-25-3-20 15-3 9z"/><glyph glyph-name="undefined" unicode="𣽢" horiz-adv-x="1024" vert-adv-y="918" d="M781 745l57-32 10-16-23-3-3-6-10-13-10-14-12-15-11-15-13-17-15-16-15-17-5-5H867l54 54 65-54V554H687V469H836l32 27 60-49-27-21V280l-65-32v54H687V188H848l32 27 59-49-26-21V-28L848-61V-7H460V-45L396-77V220l64-32H622V302H472V264l-64-32V501l64-32H622v85H323v22H716l7 13 8 22 8 20 8 18 7 18 7 16 5 16 5 14 4 13 2 7h-1l2 4v2l3 6zM194 151l-8-31 2-4 11-34 7-36 4-40V-37L199-58l-23-8-22 11-8 23 3 38V40l-3 32-5 27-9 25-11 23-13 20-17 18-20 17-25 16 3 9 30-7 28-11 25-17 7-7 6 14 10 27 13 34 16 42 18 50 21 58 25 65 27 73 32 80 9-2-21-84-20-75-18-68-16-59-14-52-11-43-9-35-7-28-4-20-2-11zm266 15V15H848V166H460zM622 447H472V323H622V447zm214 0H687V323H836V447zM134 470l-6 11-6 10-8 11-9 11-10 11-12 11-13 11-15 11-17 10 4 9 19-6 19-4 18-6 16-7 16-7 15-9 14-11 13-10 12-13 10-13 2-24-15-20-24-2-20 15-3 11zM524 619l-2 12-4 13-3 12-5 13-4 13-6 12-7 13-7 13-10 12 6 7 13-9 14-9 12-9 12-10 11-12 10-12 10-12 9-14 8-14 6-15-3-24-19-15-25 3-15 19-1 13zM209 727l-5 10-5 10-8 11-9 11-10 11-12 11-12 12-15 11-17 11 5 9 18-7 19-5 18-6 16-7 16-9 14-8 14-10 12-10 11-12 10-12 2-24-15-20-25-2-19 16-3 9zm157 22v22H622v97l65-11 16-11-16-9V771H824l54 54 65-54V749H366z"/><glyph glyph-name="undefined" unicode="𤝩" horiz-adv-x="1024" vert-adv-y="918" d="M523-18V-2H631h7l5 1 4 2 3 2 1 5 1 5 1 6V354l-6-12-32-52-33-50-36-47-38-45-40-43-42-40-45-37L334-5l-6 7 39 41 39 42 36 44 35 45 32 46 31 48 29 50 27 51 25 54 12 32H339v21H905l2 2 2 4 1-1 27 22 59-48-27-16-16-7-1-2-15-21-15-21-16-21-18-22-18-21-20-22-21-22-22-22-25-21-7 6 16 28 16 26 15 26 15 24 14 24 13 24 12 22 12 22 8 16H717V19L716 6 714-8l-4-12-7-13-9-11-11-8-12-7-13-4-13-3-14-1v33L523-18zM294-19l-8-11-9-10-10-8-10-7-12-6-13-5-12-3-13-2-14-1v32L118-24V-8h75l8 1 7 1 6 2 5 1 5 3 4 3 4 4 5 4 4 6 4 6 14 35 14 57 9 74 3 86-5 94-6 34-4-9-20-39-23-38-26-36-27-34-30-33-31-31-35-28-37-26-6 7 29 33 28 34 25 34 24 34 22 35 21 36 17 38 16 37 15 39 12 41 7 20-14 51-13 30-26-28-38-33-38-31-40-26-41-24-6 8 35 32 33 32 33 34 31 36 31 39 6 9-8 19-57 93-71 88 6 7 88-77 66-93 1-2 24 38 26 45 25 48 23 48 3 8 56-34 10-17-20-2-18-32-29-48-30-45-33-43-13-16 24-49 33-104 20-103 9-99V185l-7-79-13-65L301-8l-7-11zM660 529l-12 22-13 20-14 20-16 20-17 20-18 18-19 19-20 19-21 19 5 8 27-10 26-13 24-14 23-16 22-17 21-19 18-19 7 9 20 25 19 25 18 23 17 23 16 21 14 21 14 21 5 9H407v21H818l1 1 4 7 3-2 25 21 59-48-27-16-20-9v-1l-16-18-17-19-19-20-19-19-22-20-23-21-24-20-26-20-10-7 8-9 17-22 16-23 2-25-15-19-24-3-20 15-11 22z"/><glyph glyph-name="undefined" unicode="𤞎" horiz-adv-x="1024" vert-adv-y="918" d="M895 9 864 35 835 63 808 92l-26 32-25 33-23 34-21 37-18 38V-42L630-74V226l-6-11-27-41-28-38-30-35-33-33-34-29-37-27-38-24-41-19-5 8L385 5l32 29 31 31 29 32 27 33 25 36 23 37 22 39 19 42 9 20H371v22H630V471l65-11 16-11-16-9V326H835l54 54 64-54V304H695v-1l19-25 25-32 27-31 26-30 27-28 28-26 28-25 29-22 31-21 30-19 21-13-59-47L895 9zM296-19l-7-11-9-10-10-8-11-7-11-6-13-5-13-3-13-2-13-1v32L121-24V-8h75l7 1 7 1 6 2 5 1 5 3 4 3 5 4 4 4 4 6 4 6 14 35 14 57 9 74 3 86-5 94-5 34-4-9-21-39-23-38-25-36-27-34-29-33-32-31-34-28-36-26-7 7 29 33 27 34 26 34 24 34 21 35 20 36 18 38 16 37 14 39 12 41 7 21-14 50-13 30-25-27-37-34-37-31-40-26-42-24-5 8 34 32 33 32 32 34 32 36 29 39 7 9-8 20-56 92-71 88 7 7 86-77 66-93v-1l25 37 25 45 25 48 23 50 3 6 55-34 10-16-20-2-17-33-29-48-30-45-33-43-13-16 24-49 33-104 20-103 9-99V185l-7-79-13-65L303-8l-7-11zM852 399l-54 22-51 28-46 34-35 31-46-32-55-31-59-25-63-18-67-12-2 9 63 22 58 26 53 29 48 33 39 32-14 16-34 48-29 52-24 57-18 55H428v22H790l32 27 59-49-27-16-11-5-18-41-31-56-37-52-41-46-11-10 29-22 44-26 46-21 49-17 52-12 48-11-63-59-58 18zM784 775H529l24-45 32-51 34-45 35-41 14-12 11 11 35 45 30 49 26 53 14 36z"/><glyph glyph-name="undefined" unicode="𤞞" horiz-adv-x="1024" vert-adv-y="918" d="M453 333l65-32H796l33 27 59-48-27-22V-15L796-47V7H518V-31L453-63V333zm343-53H518V28H796V280zm97 31-36 26-34 29-31 31-30 35-27 37-24 40-22 43-19 46-24-45-29-46-31-43-34-40-37-36-40-34-41-31-45-27-32-15 1-5-1-91-8-80-14-65-19-50-7-11-8-10-9-9-11-9-11-7-11-6-13-4-12-3-13-2-14-1v32L132-24V-8h75l8 1 7 1 6 2 5 1 5 3 5 3 5 4 4 4 4 6 4 6 16 35 15 57 10 74 2 85-5 94-7 41-7-15-23-40-24-37-27-36-29-35-32-33-34-30-36-29-39-26-6 9 31 33 30 33 28 34 26 34 24 36 21 36 20 37 17 38 16 39 13 40 6 19-15 51-14 33-31-30-39-33-41-31-42-27-45-23-5 8 38 32 36 32 35 35 34 36 32 38 7 9-9 19-61 92-77 89 6 7 93-77 71-93 2-4 29 41 28 46 26 47 26 50 3 6 54-36 9-16-19-2-19-32-32-49-32-45-35-43-13-15 25-48 36-105 21-103 8-79 22 17 38 33 36 34 34 36 31 38 28 40 27 42 23 45 22 46 17 45 4 12 58-31 11-15-20-4-6-12 9-14 26-40 27-37 28-35 29-31 30-28 31-26 33-22 34-20 35-16 30-15-61-49-39 22zM543 836l54-34 10-18-21-1-6-11-19-28-20-27-22-26-23-25-24-24-26-22-28-20-29-19-30-17-6 8 24 25 23 24 22 25 20 25 19 25 19 25 16 27 16 27 15 27 12 28h1l3 6zM872 635l-14 22-14 21-16 21-17 21-17 20-18 20-18 19-40 40 5 8 27-11 25-14 24-15 23-17 22-18 21-19 20-20 19-21 18-22 17-23 4-24-14-20-25-4-19 14-13 22z"/><glyph glyph-name="undefined" unicode="𤬩" horiz-adv-x="1024" vert-adv-y="918" d="M9e2 8l32 134h11L932 8 952-5l13-19-13-20-20-12H732l-14 1-13 2-13 4-12 7-11 9-9 10-7 13-4 13-1 6L580-1 489-14 406-25 331-35l-66-9-58-8-50-6-42-7-33-4-3-1-9-19L57-74 39-11l11 1L76-9l33 2 43 3 50 2 41 3 67 381H53v22H836l45 45-49 13-79 28-70 31-62 36-54 41-46 45-36 49-13 25L89 702l-1 21 373 15-4 8-19 58-8 56v3l-1 3v11l65-7 16-10-13-10 4-32 15-47 16-30 306 12 51 56 67-52 1-21-413-16 26-35 39-38 47-36 56-32 65-29 74-26 46-13 29 126h11L926 503l7-2 20-14 4-25-14-20-25-3-9 2 45-37V382H376L356 271H646l33 27 59-49-27-21V23l1-5 2-5 2-2 1-1 4-1h4l7-1H9e2zM529 82 519 96l-11 13-13 13-13 13-16 12-16 12-18 12-19 12-22 11 3 9 24-5 23-4 23-6 21-8 20-10 19-10 18-12 17-13 16-15 14-16 6-23-13-21-24-6-21 13-8 15zM734 788l-7 7-9 8-11 8-14 9-15 8-36 19-21 9-23 8 2 10 25-4 23-1 22-3 20-4 19-4 17-4 16-6 15-6 13-6 13-8 10-22-8-23-23-10-23 8-5 7zM646 249H352L310 5l18 1 74 4 84 5 92 4 69 3-1 8V249z"/><glyph glyph-name="undefined" unicode="𤯟" horiz-adv-x="1024" vert-adv-y="918" d="M697-33l-10-8-10-8-11-7-11-6-12-5-12-3-13-3-12-1-13-1v33L485-26v16H6e2l8 1 7 1 7 2 6 3 6 3 6 4 6 4 11 11 6 9 8 17 8 23 3 11H242L227 9 157-9l51 242H55v22H212l40 192 48-38H727l32 27 59-48-26-17-3-1-3-40-7-61-2-14h74l53 54 65-54V233H775l-2-18-7-50-8-44-5-20h60l54 53 64-53V79H749l-9-30-9-28L720-3 706-23l-9-10zm13 266H274L246 101H687l7 32 8 42 7 48 1 10zM521 123l-8 8-10 9-11 9-14 10-15 9-17 10-18 11-20 12-22 9 3 9 24-4 23-4 22-5 20-4 18-6 17-6 16-6 15-6 14-7 12-8 10-23-8-23-22-10-23 9-6 7zM726 388H306L278 255H713l2 21 6 59 5 53zM531 277l-7 8-9 9-11 9-12 9-14 9-15 10-17 9-18 11-20 8 3 9 21-4 21-3 20-3 19-4 17-5 16-5 16-6 14-6 13-7 13-8 10-22-8-24-23-10-23 9-6 7zM60 476v22H480V605H189v22H480V734H260l-6-6-26-25-28-25-30-24-32-24-34-23-36-22-5 9 29 29 28 29 26 28 25 27 24 27 22 27 20 27 19 26 17 26 13 21 5 9 52-39 7-18-20 1-7-9-21-26-21-23H480V869l64-11 16-11-16-9V756H792l53 54 65-54V734H544V627H737l44 48 54-48V605H544V498H866l44 48 54-48V476H60z"/><glyph glyph-name="undefined" unicode="𤺆" horiz-adv-x="1024" vert-adv-y="918" d="M856-51 842-37 826-24 808-10 789 3 768 16 746 28 722 41 697 55 671 68l2 9 30-4 29-6 27-7 26-8 25-10 23-10 22-11L876 9 895-4l19-14 9-22-8-23-23-10-23 8-13 14zM515 93l24-35 14-17 1-19-19 8-7-4-25-13L478-1 451-13 423-25 394-36 365-47l-31-9-32-9-34-7-3 9 29 17 29 16 27 15L377 1l25 15 25 15 24 16 22 15 21 15 16 13 5 3zM32 278l11 5 14 4 16 5 16 6 18 7 17 7 19 9 19 9 20 10 18 8v64V772l65-32H534V874l64-11 16-10-16-10V740H856l54 53 64-53V718H265V412l-4-67-7-64-11-60-15-55-19-51-22-47-27-42-30-37L96-44 58-70l-6 8L81-29 107 6l23 39 20 41 16 45 14 49 9 52 7 56 2 34-2-2-17-16-16-14-17-14-16-13-16-11-16-11-11-6-5-23-16 11-34 55zM263 105v22H480V234H318v22H480V358l64-11 16-10-16-10V256H695V358l64-11 16-10-16-10V256h43l54 54 65-54V234H759V127h99l54 54 64-54V105H263zM695 234H544V127H695V234zM420 373V335l-65-32V680l65-32H820l32 27 59-49-27-21V352l-64-33v54H420zM587 5e2H420V395H587V5e2zm233 0H652V395H820V5e2zm-712 8-3 17-4 16-5 16-5 16-6 14-7 15-8 14-9 14-10 11 6 8 14-9 15-9 15-11 13-12 13-14 11-16 10-16 10-18 8-19 8-20-4-24-20-15-25 4-14 20-3 18zM587 626H420V521H587V626zm233 0H652V521H820V626z"/><glyph glyph-name="undefined" unicode="𤼌" horiz-adv-x="1024" vert-adv-y="918" d="M855-58l-15 9-17 10-19 9-20 10-21 9-24 9L714 8 687 18 659 28l2 10 30-2 29-2 27-3 26-5 25-4 23-6 22-6 21-7 19-7 18-8 15-20-3-25-20-14-25 3-13 10zM27 284l9 4 14 4 15 5 15 6 15 7 16 7 17 9 18 9 18 10 3 1 1 10V788l64-32H517V874l65-11 16-10-16-10V756H877l44 48 53-48V734H232V423l-3-69-7-65-10-62-13-56-18-52-21-48-24-43-28-38L77-43 42-70l-6 7L61-30 85 6l21 39 17 42 15 46 12 50 9 54 6 58 1 17-2-2-14-14-15-14-15-12-14-12-15-11-9-5-4-24-17 10-34 56zM504 58l5-11L551 9l1-18-20 9-2-1-24-8-25-8-27-8-26-7-28-7-29-6-30-6-32-5-32-5-34-2-2 9 31 13 30 13 29 11L359-6 386 4l25 11 25 11 24 11 22 10 17 8v1l5 2zM238 69V90H463v76H295v22H463v65l64-11 16-10-16-10V188H685v65l64-11 16-10-16-10V188h70l44 48 53-48V166H749V90H856l53 54 65-54V69H238zm447 97H527V90H685v76zM409 264l-64-32V483l64-32H802l33 27 59-48-27-22V264l-65-32v32H409zm165 83H409V286H574v61zm228 0H638V286H802v61zM574 430H409V369H574v61zm228 0H638V369H802v61zM543 710l59-48-27-22V494l-65-33v74l-9 4-5-2-18-8-21-8-21-7-24-7-25-7-27-6-28-6-31-6-32-5-3 10 29 14 28 12 26 13 24 12 23 10 20 11 19 11 17 10 15 10 8 6 5 3 13-22 17-17V662H473l4-7 26-28 1-18-20 8-4-1-17-7-19-7-20-7-22-6-22-6-25-5-26-5-27-4-29-3-2 9 26 11 25 12 23 11 22 10 20 11 19 10 16 9 16 10 4 3H267v21H510l33 27zm350 0 59-48-27-22V494l-64-33v72l-14 6-5-3-19-8-21-8-22-7-23-7-25-7-25-6-28-6-29-5-31-5-3 10 28 13 27 13 24 12 24 11 22 11 20 11 19 11 17 10 15 10 9 7v1-1l4 3 13-21 23-23V662H827l2-3 31-31V610l-20 8-7-3-17-7-20-6-20-7-21-6-23-6-24-5-26-5-26-4-28-3-3 9 26 11 23 12 23 11 22 10 20 11 19 10 17 10 16 9 4 3H618v21H861l32 27zM94 526l-3 16-3 17-4 15-5 15-6 15-7 14-7 14-8 14-11 11 6 9 14-10 15-9 14-11 14-12 12-14 10-16 11-17 8-18 8-19 7-20-6-24-20-14-24 6-14 20-1 18z"/><glyph glyph-name="undefined" unicode="𥡪" horiz-adv-x="1024" vert-adv-y="918" d="M327 298l-6 13-8 12-9 12-9 12-9 12-11 12-12 12-6 6V-45L192-77V341l-6-16-18-46-20-44-22-41-24-40-26-38L48 82l-9 5 19 40 19 40 17 42 16 42 15 44 13 45 13 47 10 48 10 50 5 34H44v22H192V720l-18-4-37-9-41-8-42-7-3 10 40 17 37 15 35 15 32 14 30 14 27 13 25 13 21 13 19 11 12 9v1-1l4 3 18-27 22-24V769l-19 9-7-3-23-11-25-10-27-10-15-5V541h16l54 54 65-54V519H257V408l18-6 17-7 15-8 16-9 14-10 14-11 13-12 12-12 12-14 4-24-15-20-24-4-20 14-6 13zm467-62 60-26 12-14-19-6-2-5-20-50-10-25-24-49-13-25-14-25-15-23-8-12H859l54 54 65-54V-45H385v21H725l5 20 8 27 15 53 7 26 7 25 7 26 6 25 6 25 4 19 1 5h1l2 9zM570 45l-3 20-4 19-4 20-6 19-6 19-6 18-7 19-9 19-9 19 8 6 15-15 15-16 14-16 13-17 12-19 10-20 10-19 8-21 8-22 6-23-6-23L609-2 585 4 572 25l-2 20zM420 245v22H649V385l65-11 16-11-16-9V267H824l54 53 64-53V245H420zM936 855l59-48-27-22V436l-64-32V607l-14-19-18-21-19-21-21-20-23-19-24-17-26-16-27-15-30-13-5 8 23 22 22 21 21 20 18 21 18 20 16 20 15 21 13 21 11 22 10 21 3 6 37-24V747l-16-1-1-2-14-20-14-19-16-18-17-18-19-16-19-16-21-15-22-14-24-13-5 8 17 20 16 19 16 19 14 19 13 18 12 19 11 18 10 19 8 19 6 14h-1l6 11 55-34 5-7v50H7e2v21H904l32 27zm-304 0 59-48-27-22V436l-64-32V613l-1-2-17-22-17-22-19-21-21-20-22-19-24-17-25-16-27-15-29-13-5 8 22 22 21 20 20 21 19 20 17 20 16 21 14 21 13 21 11 22 8 16-1 1 6 10 41-26V746l-18-1-1-1-14-20-15-19-17-18-19-18-19-17-20-15-23-16-23-13-25-13-6 8 20 20 17 19 17 19 16 19 14 19 13 18 12 19 11 19 9 19 6 14 5 11 55-35 5-9v52H395v21H6e2l32 27z"/><glyph glyph-name="undefined" unicode="𥤌" horiz-adv-x="1024" vert-adv-y="918" d="M304 299l-5 12-7 13-8 11-8 13-9 12-10 11-11 12-4 4V-45L178-77V332l-3-7-17-45-19-45-21-41-22-40-25-37L44 82l-8 5 17 39 17 41 16 41 15 43 14 44 13 45 11 47 10 48 9 49 5 35H40v22H178V719l-14-3-36-9-37-8-41-7-3 10 37 17 35 15 33 15 26 12 4 2 28 13 25 14 23 13 20 12 17 12 11 8 4 4 26-37 13-15 1-19-20 8-2-1-22-11-25-10-25-10-14-5V541h28l44 48 53-48V519H242V407l16-5 16-7 15-8 15-10 13-10 14-11 12-11 12-13 11-13 2-25-14-19-24-4-20 15-6 13zM873-53 860-42 846-31 831-20 814-10 795 1 775 12 731 34 707 44l2 10 27-4 25-3 25-5 23-5 22-7 21-7 20-8 19-9L908-4l17-10 11-22-7-24-22-11-23 7-11 11zM564 72l12-20 30-31V3l-19 8-11-5L554-4 531-14 507-24l-26-8-25-9-27-7-28-7-29-6-30-5-4 9 27 15 26 13 25 13L440-3 463 9l23 13 21 12 20 13 19 12 14 10 4 3zM336 95v21H530v97H387v21H530v81l64-11 16-10-16-10V234H725v81l64-11 17-10-17-10V234h46l44 49 53-49V213H789V116h76l53 54 65-54V95H336zM725 213H594V116H725v97zM490 332V316l-64-32V586l64-32H829l32 27 59-49-27-21V321l-64-32v43H490zM628 432H490V354H628v78zm201 0H692V354H829v78zM628 532H490V454H628v78zm201 0H692V454H829v78zm83 330 59-49-27-21V604l-64-33v91l-11 4-14-9-18-10-20-9-21-10-22-8-24-9-25-8-26-7-27-7-4 9 24 14 23 15 21 14 20 13 19 13 17 13 16 12 14 12 13 12 8 8 1 1 2 2h1l33-39v66l-19 7-12-7-18-8-18-9-19-7-21-9-22-7-22-6-25-6-25-6-4 9 23 12 20 14 20 12 19 12 16 12 16 11 15 12 13 11 12 11 2 1H670v22H880l32 27zm-308 0 59-49-27-21V604l-64-33v93l-6 2-14-8-18-10-20-9-21-9-23-9-24-9-26-8-27-7-29-8-4 9 26 15 23 15 23 14 21 13 19 13 17 13 16 12 15 12 12 11 7 7 4 5 29-35v61l-22 7-11-7-17-8-19-9-19-8-21-8-21-7-24-6-25-6-25-6-4 9 23 12 21 14 20 12 19 12 17 12 16 11 14 12 13 10 11 11 2 2H363v22H572l32 27zm-32-49H536l34-40 2-16v56zm308 0H848l32-40v40z"/><glyph glyph-name="undefined" unicode="𥫝" horiz-adv-x="1024" vert-adv-y="918" d="M776-32 7e2 10 632 58l-59 55-52 61-42 66-34 73-9 27L70 317l-2 22 361 22-10 30-17 84-7 84-1 17 65-9 16-11-14-9 5-63 15-76 14-43 287 18 50 57 68-49 1-22-399-25 2-7 31-66 38-59 46-54 54-49 62-44 69-40L843 9l28 119h11L872-3l11-5 18-17 1-25-17-18-25-1-84 37zM683 456l-6 11-9 11-11 11-12 12-14 11-16 12-18 13-19 12-21 12 3 8 24-6 23-5 22-6 20-8 18-8 18-9 16-10 15-10 14-12 12-12 5-24-14-21-23-5-21 13-6 10zM338 634l-6 11-6 12-8 12-10 13-11 13-13 12-14 13-17 14-12 8H216l-13-20-21-28-24-27-26-26-27-24-31-22-32-21-6 8 25 28 24 28 22 27 20 27 18 28 16 28 14 29 12 28 10 30 7 25 4 13 59-27 12-15-20-5-5-13-15-31-10-18H426l54 54 64-54V742H275l6-2 19-8 18-9 17-10 16-10 14-12 13-13 11-14 11-14 1-24-17-19-24-1-19 17-3 11zm425 0-6 11-6 12-8 12-10 13-11 13-13 12-15 13-16 14-12 8H639l-11-16-22-26-24-25-25-23-28-21-30-20-33-17-6 8 26 25 24 25 22 25 20 25 18 26 16 26 14 27 11 27 11 28 6 24 1 2 1 3 2 8 60-27 12-15-20-5-5-12-15-30-11-20H856l54 54 64-54V742H7e2l6-2 19-8 18-9 17-10 15-10 14-12 13-13 12-14 10-14 1-24-16-19-24-1-19 17-3 11z"/><glyph glyph-name="undefined" unicode="𥸪" horiz-adv-x="1024" vert-adv-y="918" d="M560 315l-14-8 7-34 15-45 21-40 29-36 35-33 43-30 51-26 59-24 67-20L949 3 998-8 935-67 855-46 783-20 721 10 666 44 620 81l-37 42-27 46-18 49-5 33-12-43-27-51-36-46-45-41-53-35L298 6 228-18 149-37 61-51 59-41l84 23L218 9l65 29 55 32 47 36 36 38 27 40 18 44 11 47 3 51v13l64-13 16-11zM856 430l-47 20-44 20-41 22-39 23-36 24-34 25-31 26-28 28-17 22V408l-65-32V597l-28-20-39-25-42-24-44-22-46-21-48-18-50-18-54-15-55-13-3 9 52 23 49 23 47 23 45 23 42 24 39 25 38 26 35 27 25 20H72v22H474V878l65-10 16-11-16-10V666H823l53 53 65-53V644H557l14-9 32-19 33-20 36-19 37-18 39-17 41-17 44-16 46-15 47-15 41-13-63-55-48 19zM801 855l41-49 2-19-20 6-18-12-19-13-20-12-21-12-22-13-23-12-24-12-26-11-26-12-5 8 22 19 20 19 20 17 19 16 19 17 17 16 17 15 17 15 15 14 10 11h-1l3 2 2 2h1zM297 711l-8 13-10 12-12 13-12 13-14 14-16 14-17 14-17 15-20 14 4 8 23-8 23-8 21-9 20-10 18-10 18-11 16-11 15-12 14-12 13-13 5-24-12-21-24-5-21 12-7 12z"/><glyph glyph-name="undefined" unicode="𦈸" horiz-adv-x="1024" vert-adv-y="918" d="M792 847l-16-9 4-184h86l54 53 64-53V632H781l12-168 18-143 11-50 20 45 25 73 21 80 2 9 60-25 14-15-20-6-19-62-30-76-34-70-20-33 20-63 26-58 25-37 13-13 27 118h11L953 3l22-9 10-23-10-23-23-9-28 5-30 17L862-8 831 39l-30 66-6 18-14-19-45-50-50-44-54-36-58-29-61-21-3 9 55 30L616-2l47 39 43 45 39 50 32 49-4 13-25 116-19 147-13 175H448v22H715l-4 199v18l64-13 17-11zM135 57V-8L70-40V374l65-11 16-10-16-10V78h74V449H44v22H209V681H155l-15-34-18-35-19-35-21-35-23-36-9 5 14 40 13 38 13 37 12 36 11 35 10 34 8 33 8 33 6 31 4 26 3 15 61-22 14-14-19-7-4-12-10-32-11-33-13-34-5-13H305l54 54 64-54V681H274V471h58l54 54 64-54V449H274V78h77V374l59-11 15-10-15-10V25L351-5V57H135zM418 97l11 3 27 8 26 9 28 8 57 20 30 10 30 10 31 11 32 10 33 10 4-9-28-19-28-19-29-16-28-16-28-14-28-14-28-14-53-24-6-3-5-20-16 11-32 58zm60 447 59-30h88l32 27 59-49-27-21V272l-64-32v32H537V208l-59-30V544zm147-52H537V294h88V492zM871 747l-5 13-5 11-6 12-14 24-8 11-17 24-12 10 5 8 14-7 15-6 14-7 13-8 13-9 12-11 12-10 11-12 10-13 10-14 2-24-17-19-24-1-19 15-4 13z"/><glyph glyph-name="undefined" unicode="𦎘" horiz-adv-x="1024" vert-adv-y="918" d="M794 847l-16-9 4-184h89l53 53 65-53V632H783l12-168 19-143 11-51 20 46 25 73 21 74h-1l4 15 60-25 13-15-19-6-19-62-30-76-35-70-20-33 20-63 26-58 25-37 14-13 28 118h10L957 3l22-9 10-23-10-23-22-9-28 5-31 17L866-8 834 39l-31 66-5 18-15-19-46-50-50-44-55-36-58-29-61-21-4 9 56 30L616-2l48 39 44 45 39 50 32 49-4 13-25 116-19 147-13 175H446v22H718l-5 199v18l65-13 16-11zM256 369l-2-56 41 11 44 11 47 12 49 11 3-10-45-21-44-19-42-18-41-16-15-7-3-30-10-59-14-53-16-49-21-43L162-4 134-34 101-59 66-76l-5 8L89-43l23 28 20 31 18 36 15 40 11 45 9 50 5 55v1l-36-15-33-13-33-13-9-4-6-20-15 12-31 57 10 4 31 9 34 9 35 11 37 10 18 5 1 8-1 66v91H77v22H192V643H42v21H258l6 14 7 21 8 21 7 20 8 18 6 18 7 17 5 17 5 15 4 10h-1l5 11 56-33 10-16-22-3-16-24-11-16-11-16-25-33-14-17-15-18-4-6h32l54 54 64-54V643H256V482h18l54 53 65-53V460H256V369zM417 97l10 3 27 8 27 9 29 8 28 10 29 10 30 10 31 10 31 11 33 10 33 10 4-9-29-19-29-19-29-16-28-16-29-14-28-14-28-14-27-13-27-11-6-3-5-20-15 11-32 58zm57 449 64-32h87l33 27 59-49-27-21V272l-65-32v32H538V208l-64-33V546zm151-54H538V294h87V492zM131 709l-2 14-2 13-4 13-3 14-5 13-5 14-6 13-5 14-9 13 7 6 12-10 13-9 12-11 11-11 10-13 10-13 8-14 8-15 8-15 6-15-4-25-20-15-24 5-15 20-1 14zm744 38-5 12-5 12-13 24-8 12-8 11-8 12-10 12-11 10 5 8 14-7 14-6 14-7 14-8 13-9 12-11 12-10 11-12 21-26 1-25-15-19-25-1-19 15-4 13z"/><glyph glyph-name="undefined" unicode="𦏵" horiz-adv-x="1024" vert-adv-y="918" d="M137-18V-2h75 7l5 1 5 2 1 1V3l1 2 1 3 2 5V343l-6-12-18-36-19-34-21-34-21-31-23-30-24-29-25-26L49 87l-7 5 18 31 19 31 17 31 18 32 16 33 16 34 15 34 14 36 13 37 11 33 4 13 31-16V633l-3-5-17-30-18-30-18-28-19-27-21-25-21-25-23-23-25-20-7 6 16 27 16 28 15 26 15 28 15 28 14 29 13 29 12 31 11 31 10 26 4 12 31-15v61H45v21H234l32 27 59-48-27-22V19L297 6 295-8l-4-12-7-13-9-11-10-8-13-7-13-4-13-3-14-1v33L137-18zm290 0V-2h65 6l5 1 3 2h2l1 1 1 1 1 2 1 3 1 5v6V349l-7-15-19-35-21-33-21-32-22-31-24-30-26-29-27-27-29-26-7 7 21 32 20 31 19 32 18 32 18 33 17 32 15 34 15 35 14 35 12 35 3 8 31-17V637l-5-10-17-30-18-30-20-28-20-28-22-26-23-25-24-24-26-22-7 7 18 28 17 28 17 28 16 29 16 28 14 30 14 29 13 31 12 31 11 31 3 7 31-16v62H328v21H513l32 27 59-48-26-22V518l135 17-8 123-4 189v19l65-13 16-11-16-10 4-172 7-117 77 10 46 60 71-45 2-21-195-25 2-24 15-134 20-109 24-85 25-64 26-46 25-31 7-6 27 115h10L949 6l9-4 18-16 3-24-16-19-24-3-35 16-34 27-33 40-31 55-28 72-26 91-21 114-16 137-1 22-136-18V19L577 6 574-8l-4-12-6-13-9-11-11-8-12-7-13-4-13-3-14-1v33L427-18zM861 697l-4 13-5 13-6 14-13 25-7 13-8 14-9 13-10 11 5 8 14-9 15-8 14-9 13-10 12-11 12-12 11-12 11-13 9-14 9-15V684l-17-18H882l-17 17-4 14z"/><glyph glyph-name="undefined" unicode="𦐂" horiz-adv-x="1024" vert-adv-y="918" d="M749 847l-16-9 5-204 7-75 128 10 50 58 68-49 2-21-246-19 9-86 24-143 18-64 24 46 30 68 26 75 3 7 58-29 12-15-19-4-24-58-35-71-38-65-15-21 24-59 34-54 31-34 25-18 29 125h11L963 3l23-9 9-23-9-23-23-9-26 3-33 13-38 27-40 44-39 64-13 29-26-31-49-47L647 2 592-32 534-58 472-76l-3 9 56 28L577-7l49 37 45 42 43 46 39 52-3 8-33 117-25 149-9 89-102-8-1 21 101 8-7 77-6 222v18l64-13 17-11zM391-8V9h64 7l5 1 5 2 1 1v1l1 2 1 3 2 5V350l-3-4-17-35-19-34-20-32-21-31-23-30-23-29-26-27-27-25-7 6 18 31 18 31 18 32 17 32 16 32 15 34 15 33 13 34 13 35 10 31h-1l5 13 29-14V638l-16-30-17-30-18-28-19-27-21-27-21-25-23-24-25-22-8 6 16 29 17 28 15 28 29 57 14 29 12 30 12 30 11 31 9 26h-1l5 13 29-14v59H309l-27-21V30l-1-13-2-14-4-13-7-12-9-11-10-8-13-7-13-5-13-2-14-1v32L121-8V9h75 7l5 1 5 2 2 2 1 5 1 5 1 6V345l-1-3-17-35-18-35-19-33-20-32-21-30-23-29-24-27L50 97l-8 6 33 62 17 31 15 31 16 33 14 34 14 34 13 36 11 37 10 32v1l2 5 2 8 29-14V636l-14-27-16-29-17-28-19-27-19-26-20-25-22-22-23-21-8 6 15 27 14 27 28 55 13 28 13 28 12 30 11 30 11 30 8 27 4 13 29-14v59H46v22H218l32 27 57-47v20H477l32 27 59-49-27-21V30l-1-13-2-14-4-13-7-12-9-11-10-8-13-7-13-5-13-2-14-1v32L391-8zM874 696l-6 14-7 14-7 14-9 14-10 13-11 14-13 13-12 14-16 13 5 8 19-8 18-8 18-9 16-11 16-11 14-12 14-13 13-15 11-15 11-16V685l-16-19H897l-18 16-5 14z"/><glyph glyph-name="undefined" unicode="𦑌" horiz-adv-x="1024" vert-adv-y="918" d="M793 847l-16-9 4-184h76l54 53 64-53V632H782l12-169 17-142 10-47 17 42 23 73 21 79 3 9 60-24 13-14-19-6-19-63-28-75-33-70-19-34 19-64 25-58 24-37 10-11 27 117h11L946 3l22-9 10-23-10-23-23-9-28 6-29 17L857-8 827 39l-28 66-5 16-12-17-44-50-48-44-52-36-55-29-59-21-3 9 52 30L622-3l45 40 41 44 38 50 30 50-4 14-24 116-19 146-12 175H462v22H717l-4 199v18l64-13 16-11zM293-19V-5h53l6 1h4l3 2v1l1 1 1 3 2 3 1 6v7V313l-4-10-15-34-16-32-17-32-18-30-19-29-21-28-22-26-6 4V19L225 6 223-8l-5-12-6-13-9-11-11-8-12-7-13-4-14-3-13-1v33L75-18V-2h65 6l5 1 3 2h3V2l1 1 1 2 1 3 1 5v6V298l-13-35-16-33-16-32-17-30-18-29-20-27L40 87l-8 5 12 30 11 30 24 63 11 32 10 34 10 35 10 35 9 37 7 32 3 15 22-9V593l-9-22-14-28-15-27-15-26-16-25-18-23-19-22-9 5 10 27 10 26 10 27 10 28 10 28 9 28 9 30 8 30 8 31 6 26 3 14 22-10v57H36v21H161l33 27 44-36v9H364l30 27 56-48-27-19V19 6L421-6l-4-12-6-12-7-10-9-9-11-7-12-4-13-3-13-1v30L293-19zM432 96l11 4 25 8 53 17 27 9 27 11 29 10 29 10 30 11 31 10 31 10 5-9-28-19-27-19-27-16-27-15-27-15-26-14-26-14-26-12-26-12-4-2-5-21-16 12-33 56zM364 767H253l-27-22V103l37 88 24 63 12 34 10 33 10 34 9 35 7 31 4 14 25-11V602l-1-2-13-30-15-29-15-28-17-26-17-26-19-24-21-22-8 5 12 28 10 27 23 56 10 29 10 29 10 29 8 31 8 31 6 26 2 5 2 9 25-11v58zM489 544l59-30h82l32 27 59-49-27-21V272l-64-32v32H548V208l-59-30V544zm141-52H548V294h82V492zM866 748l-5 12-10 24-7 12-6 11-8 12-8 11-8 12-11 9 6 9 13-8 14-5 13-8 13-8 12-9 12-10 11-11 11-12 10-12 10-14 1-24-16-19-25-1-18 16-4 13z"/><glyph glyph-name="undefined" unicode="𦒖" horiz-adv-x="1024" vert-adv-y="918" d="M651 120l48-44 5-18-20 3-3-3-18-17-19-17L624 8 604-8 582-24 560-38 537-51 514-63 488-75l-5 8 19 19L557 7l33 37 16 17 15 19 14 18 10 15 2 3 2 1 2 3zM891-37l-9 16L871-5 860 11 848 26 835 41 805 71 789 86 771 99l4 9 43-16 21-10 19-12 19-12 17-14 17-14 15-17L941-3l14-18 3-25-14-19-25-3-20 14-8 17zM324-18V-2h54 7l4 1 5 2 1 1 1 1 1 2 1 3 1 5V317l-6-15-16-34-17-32-18-32-19-30-21-29-22-27-23-26-8 6 14 31 15 31 28 63 12 32 13 33 11 33 11 35 11 35 7 30 2 5v1l2 8 24-10V605l-3-6-14-30-16-28-16-28-18-26-18-26-20-24-22-23-7 6 12 28 12 28 13 28 12 28 11 28 11 29 10 30 10 30 9 31 7 27 3 13 24-10v57H275l-27-22V19L247 6 245-8l-4-12-7-13-9-11-11-8-12-7-13-4-14-3-13-1v33L87-18V-2h75 6l5 1 5 2 2 2 1 2 1 3 1 5 1 6V309l-5-12-15-34-17-33-17-32-18-31-19-28-21-27L50 87l-8 5 25 61 26 62 13 33 11 33 11 35 10 36 10 36 9 38 3 9 24-10V604l-2-4-14-30-15-28-15-26-16-27-18-25-19-23-20-21-8 6 11 26 23 54 10 27 11 28 10 29 10 29 9 30 8 31 8 32 3 8 24-10v57H45v21H184l32 27 47-39v12H399l32 27 59-48-26-22V19L463 6 460-8l-4-12-6-13-9-11-11-8-12-7-13-4-13-3-14-1v33L324-18zM483 148v22H627V310H522v21H627V460l64-11 16-10-16-10V331h88V460l64-11 16-10-16-10V331h28l33 38 43-38V310H843V170h25l54 54 65-54V148H483zM779 310H691V170h88V310zM603 483V418l-65-32V853l65-32H867l32 27 59-49-27-21V451l-64-33v65H603zM703 641H603V504H703V641zm164 0H767V504H867V641zM703 799H603V663H703V799zm164 0H767V663H867V799z"/><glyph glyph-name="undefined" unicode="𦔜" horiz-adv-x="1024" vert-adv-y="918" d="M424 148v1l-8-10H391l-18 16-6 15-6 15-8 16-8 14-10 15-11 15-11 14-13 15-14 15-3 3V-56L218-88V224l-11-32-20-42-22-40-24-38-27-35L84 3 51-27l-7 7L68 16 90 53l20 37 19 39 16 40 14 41 13 43 10 44 8 45 4 32H53v22H218V541H70v21H218V674l-35-3-41-2H99l-46 2v9l43 9 42 9 40 8 38 9 2 1V853l65-11 16-11-16-10V733l3 1 32 10 31 11 28 12 21 9 5 2 4-11 44-38 1-17-21 8-3-1-31-10-31-9-34-8-35-7-14-2V562h30l54 54 64-54V541H283V396h47l54 53 65-53V374H283V307l11-5 20-9 18-10 18-12 16-12 15-14 14-14 13-15 12-17 11-17 1-12H590V310H469v21H590V460l65-11 16-10-16-10V331H761V460l64-11 17-10-17-10V331h24l44 49 54-49V310H825V170h48l54 54 65-54V148H424zm193-27 46-46 5-19-21 4-3-3-20-17-21-17L581 6 558-9 535-24 510-39 485-52 458-65 430-75l-5 8 22 20 22 19 21 18L510 8l20 18 19 19 18 18 17 18 16 19 12 14 5 7zM888-39 877-23 865-6 852 10 837 25 822 40 805 55 787 70 769 85l-20 15 3 9 25-8 24-9 22-9 22-11 20-13 20-14 18-14 17-16L936-2l15-18 5-24-14-21-24-4-21 13-9 17zM761 310H655V170H761V310zM556 483V418l-64-32V853l64-32H860l32 27 59-49-27-21V451l-64-33v65H556zM676 641H556V504H676V641zm184 0H740V504H860V641zM676 799H556V663H676V799zm184 0H740V663H860V799z"/><glyph glyph-name="undefined" unicode="𦘳" horiz-adv-x="1024" vert-adv-y="918" d="M108 853l64-33H351l33 27 59-48-27-22V19L415 6 413-8l-5-12-6-13-9-11-11-8-12-7-13-4-14-3-13-1v33L233-18V-2h97 6l5 1 5 2 2 2 1 2 1 3 1 5v6V326H172V304l-2-58-5-54-7-49-9-45-11-41-14-37-16-31L90-39 69-60 46-75l-7 7L53-47 66-23 77 3l9 31 8 34 6 39 4 43 3 47 1 52v55V853zM922 14l32 134h11L954 14 973 1l13-19-13-20-19-13H759l-14 2-13 2-13 4-12 7-11 9-9 10-7 13-4 13-2 13-1 13V288H551V224l-65-33V675l65-11 16-10-16-10V310H673V869l65-11 16-11-16-9V310h72l54 53 64-53V288H738V29l1-5 1-5 3-2 4-1 5-1 7-1H922zM351 568H172V347H351V568zm0 231H172V589H351V799z"/><glyph glyph-name="undefined" unicode="𦙊" horiz-adv-x="1024" vert-adv-y="918" d="M603-24V-8H717l5 2 3 1 2 1h1l1 1 2 5 1 5v7V150H316l-1-16-8-30-11-29-15-28-18-24L241 0 216-20 188-39 156-54 121-66l-4 9 29 21 25 21L193 6l18 21 15 22 11 23 9 22 5 24 3 24V473l64-32H732l33 27 59-49-27-21V14L796 0l-2-13-5-13-7-13-8-10-11-9-12-7-13-4-14-3H711v32L603-24zM732 283H318V171H732V283zm0 136H318V305H732V419zm141 21-56 14-53 17-49 23-46 25-41 31-38 34-33 39-29 42-17 35-33-56-44-52-50-44-56-38-64-31-69-26-77-22-83-18-3 9 80 29 73 29 64 31 57 34 50 38 41 43 35 48 29 55 23 63 16 70 2 13 62-23 14-13-20-7-16-58-25-62 29-34 34-34 36-31 38-27 20-11 8 13 23 36 22 33 19 32 18 28 16 27 14 24 13 22 10 19 6 12h-1l2 4 1 1 3 6 53-37 9-18H869l-14-18-16-21-18-23-20-25-22-26-25-27-26-30-29-31-10-10 5-3 43-19 46-17 49-12 53-9 54-5 58-5-64-65-60 9zM139 577l-18 17-1 24 17 19 17 7 17 9 16 13 15 15 15 18 15 20 14 25 13 26 14 30 13 33 9-2-3-36-5-34-8-31-11-29-12-26-14-25-17-22-18-19-21-17-22-15H139z"/><glyph glyph-name="undefined" unicode="𦮮" horiz-adv-x="1024" vert-adv-y="918" d="M674 408l-6-63H852l54 53 65-53V323H675l17-38 20-42 23-40 24-37 28-35 29-33 33-30 36-28 38-26 42-24 24-15-60-47-44 30-40 32-37 35-33 37-29 39-25 41-21 43-17 46-13 47-6 43-10-46-21-61-29-56-36-51-43-47-50-41-56-37-63-31-70-26-4 9 64 35L403 6l50 40 43 43 35 45 29 48 22 52 16 55 5 34H350v22H607v2l3 63V525l-11-2-54-6-55-6-57-5-59-2-1 10 57 13 56 12 53 13 53 11 51 13 49 12 47 13 46 13 45 14 37 13 6 1 2-8 51-43 2-16-23 10-14-4-45-12-46-10-48-10-50-9-50-9-22-3 45-8 16-10-16-10V409l-1-1zM184-34l-24-6-21 13-6 24 4 20 1 20-2 19-4 20-7 20-9 21-13 22-16 22-19 22-23 23 6 8 29-16 26-18 10-9 11 11 19 21 21 24 22 28 24 30 25 34 27 37 28 39 31 43 33 44 8-5-23-50-24-47-23-43-23-40-21-37-21-34-20-31-18-27-18-25-14-19 5-6 13-24 10-26 7-26 3-27-2-28-12-21zm18 511-7 11-7 10-10 11-11 11-12 11-14 10-15 12-17 11-18 10 3 9 21-6 20-4 19-5 19-7 17-7 16-8 16-9 14-11 13-11 11-12 5-24-13-21-24-5-21 14-5 10zM630 874l65-11 16-10-16-10V761H861l54 53 65-53V739H695V652l-65-33V739H394V652l-65-33V739H44v22H329V874l65-11 16-10-16-10V761H630V874z"/><glyph glyph-name="undefined" unicode="𦱂" horiz-adv-x="1024" vert-adv-y="918" d="M668 613l-15-9 6-129H867l54 54 64-54V454H662l17-108 29-102 36-79 10 11 36 51 33 54 28 57 3 8 56-33 10-16-21-3-23-43-38-57-43-53-22-21 12-19 42-45 40-31L904 5l19-6 30 128h11L953-8l22-9 10-23-10-22-22-10-34 4-40 14-47 24L783 8 734 61 724 76 694 52 638 16 577-16 511-42 442-62 368-76l-3 9 71 24 65 27 59 32 56 34 50 38 32 29-10 15-40 89-32 111-19 122H39v21H594l-6 144-1 18 65-13 16-11zM50 40l11 1 47 5 48 6 49 5 50 6 52 6 52 6 54 6 54 7 56 6 58 4 1-9-55-16-55-14-54-12-52-12-52-11-51-11-50-9-49-9-48-9-24-5L82-37 70-23 50 40zM157 390l65-32H437l32 27 59-48-27-22V171l-64-32v32H222V134l-65-32V390zm280-53H222V193H437V337zM815 532l-6 10-7 10-8 10-9 9-11 10-12 10-13 10-14 10-15 8 3 9 17-4 18-3 17-4 16-6 16-6 14-7 14-8 13-8 12-10 12-11 6-23-13-22-23-6-22 13-5 9zM630 874l65-11 16-10-16-10V750H861l54 54 65-54V729H695V681l-65-32v80H394V631l-65-32V729H44v21H329V874l65-11 16-10-16-10V750H630V874z"/><glyph glyph-name="undefined" unicode="𦺳" horiz-adv-x="1024" vert-adv-y="918" d="M114 594v21H480v78l64-11 16-11-16-9V615H792l53 54 65-54V594H705l45-38 7-17-24 1-4-3-12-11-13-10-14-12-15-12-17-12-18-12-19-13H871l44 48 54-48V433H544V367H829l32 27 60-49-27-21V215l-65-33v43H544V135H755l32 27 59-48-26-22V-41L755-73v43H274V-46L209-78V168l65-33H480v90H195V209l-65-32V399l65-32H480v66H55v22H6e2l10 11 14 18 13 18 12 16 11 15 10 14 9 14 7 12 7 11 2 5-1 1 3 3-583 1zM755 114H274V-9H755V114zM480 345H195V247H480v98zm349 0H544V247H829v98zM344 482l-3 10-5 10-6 11-7 11-8 11-11 11-10 11-13 13-14 10 5 9 16-8 17-5 16-7 15-8 14-8 13-9 12-10 11-10 10-12 9-12 1-24-17-19-24-1-19 17-2 9zM630 875l65-11 16-10-16-10V785H861l54 54 65-54V764H695V699l-65-32v97H394V699l-65-32v97H44v21H329v90l65-11 16-10-16-10V785H630v90z"/><glyph glyph-name="undefined" unicode="𧃟" horiz-adv-x="1024" vert-adv-y="918" d="M820-59 801-49 779-39l-23 9-25 10-28 9L674-1 643 9 610 19 575 30l2 10 37-1 35-2 32-4 32-4 30-5 28-6 26-6 25-8 23-7 22-8 15-19-1-25-19-15-24 1-18 10zM394 61l3-10 47-40 1-17-21 9-8-2-29-9-30-8-32-8-32-7-33-7-35-7-37-6-37-5-39-4-40-2-2 9 38 13 37 13 35 11L215-5 248 6l32 11 30 11 29 11 28 11 21 9 6 2zM66 71V92H345v78H136v21H345v67l65-11 16-10-16-10V191H614v67l65-11 16-10-16-10V191H791l44 49 53-49V170H679V92H840l54 54 64-54V71H66zm548 99H410V92H614v78zM267 269l-65-32V490l65-32H757l32 27 60-48-27-22V269l-65-32v32H267zm213 84H267V291H480v62zm277 0H544V291H757v62zM480 437H267V375H480v62zm277 0H544V375H757v62zM860 720l59-49-27-21V501l-64-33v75l-18 7-17-6-22-9-25-7-25-8-28-7-29-7-32-7-33-5-35-5-36-4-3 9 34 14 33 13 30 12 29 12 27 11 25 11 24 11 21 11 19 10 13 8 5 3 7-15 36-34V671H786l35-32V622l-20 8-18-6-20-7-23-7-24-7-26-6-27-6-29-6-31-4-32-5-34-2-2 9 31 13 30 12 28 11 27 11 25 10 23 10 22 10 19 10 4 1H527v22H828l32 27zm-425 0 59-49-27-21V501l-64-33v77l-13 5-16-6-22-7-24-9-26-7-28-7-30-7-31-6-35-7-36-5-39-4-2 9 36 15 34 13 31 12 30 12 28 11 26 11 23 11 21 11 19 9 12 8 4 3 8-15 30-29V671H355l34-32 1-18-20 8-14-5-21-7-22-7-25-7-25-6-27-6-29-6-32-4-32-5-35-2-2 9 32 13 30 12 29 11 27 11 25 10 23 10 21 10 20 10 3 1H102v22H403l32 27zM630 874l65-11 16-10-16-10V804H882l44 49 54-49V783H695V737l-65-32v78H394V737l-65-32v78H44v21H329v70l65-11 16-10-16-10V804H630v70z"/><glyph glyph-name="undefined" unicode="𧌒" horiz-adv-x="1024" vert-adv-y="918" d="M874-42 862-25 847-9 831 9 815 22l-48-9L697 2 627-8l-73-9-74-8-76-7-76-7-79-6-79-6-60-3-10-17L88-55 75 9H86l81 2 79 2 78 2 77 3 76 3h3V143H249V105L184 73V326l65-32H480v75l64-11 16-11-16-9V294H775l33 26 59-48-27-21V143l-65-32v32H544V24h7l72 3 72 4 70 2 36 1-10 8-23 17-25 16-27 17-29 18 3 9 34-8 32-10 29-11 28-13 25-14 24-16 22-16 20-17L922-5l16-20 5-24-14-20-24-4-20 13-11 18zM480 272H249V165H480V272zm295 0H544V165H775V272zM661 855l-14-9 5-84H838l54 54 65-54V740H655l15-72 27-72 33-57 10 9 34 37 30 39 26 42 3 5 53-38 8-17H873l-20-28-36-42-41-38-12-9 3-4 39-32 38-23 34-14 18-4 30 129h11L926 416l23-8 9-24-9-22-23-10-30 3-38 10-43 18-46 27-47 39-11 13-29-17-53-26-57-22-62-19-65-13-69-9-2 10 66 19 62 21 57 24 52 25 48 29 21 15-2 3-39 66-31 82-18 90H67v22H587l-6 98v18l64-12 16-11zM79 452l10 1 44 2 45 4 46 3 47 4 49 4 48 4 51 3 52 4 52 3 54 2 1-10-52-12-52-11-50-11-50-9-49-9-47-8-48-7-45-7-45-7-22-4-10-17-12 14-17 64zm98 257 64-32H439l32 27 59-49-27-21V535l-64-32v32H241V519l-64-32V709zm262-54H241V556H439v99zM797 793l-5 8-6 8-8 7-8 8-11 8-11 7-12 9-13 8-15 6 2 9 17-3 16-1 15-2 15-3 14-3 13-4 13-5 12-5 11-6 11-7 9-23-10-23-23-9-22 10-4 6z"/><glyph glyph-name="undefined" unicode="𧑌" horiz-adv-x="1024" vert-adv-y="918" d="M599 121l45-46 3-19-19 4-5-4-21-17-22-16L558 6 534-10 509-25 484-39 458-52 430-65 401-75l-5 8 24 20 22 19 22 18L486 9l21 18 38 36 18 19 17 19 13 14v1l6 5zM882-40 870-23 858-7 844 9 828 25 812 40 794 55 775 70 756 85l-22 15 4 9 26-8 24-8 24-10 22-11 22-13 19-13 20-15 18-16L929-2l16-18 5-24-13-21-24-5-21 14-10 16zM353 66l-1 22-3 21-4 21-1 3-12-9-26-19-27-18-28-18-29-16-29-15-30-16L132 8 101-6 90-11 85-31 70-20 37 38l11 3L79 51l31 10 32 11 58 21V337H131V272L67 240V686l64-32h69V869l64-11 16-11-16-9V654h68l32 27 59-49-27-21V337l-64-33v33H264V119l29 11 29 11 19 7-1 4-7 21-8 21-9 22-9 22-12 22 8 6 18-18 18-18 15-20 14-21 13-21 10-22 9-23 8-25 6-24 4-25-8-24-22-10-23 8-11 21-1 22zm42 82v22H570V310H442v21H570V460l65-11 16-10-16-10V331H749V460l65-11 16-10-16-10V331h30l44 49 54-49V310H814V170h56l54 54 64-54V148H395zM749 310H635V170H749V310zM2e2 632H131V358h69V632zm132 0H264V358h68V632zM531 481V417l-65-33V850l65-32H853l32 27 59-49-27-21V449l-64-32v64H531zM660 639H531V503H660V639zm193 0H724V503H853V639zM660 796H531V660H660V796zm193 0H724V660H853V796z"/><glyph glyph-name="undefined" unicode="𧔁" horiz-adv-x="1024" vert-adv-y="918" d="M443-31l-1 7-2 7-3 9-4 6-16-4-40-8-41-8-40-6-39-6-39-6-38-6-75-11-14-2L81-77 68-62 52 1 63 2l74 3 38 3 39 1 39 2h1V76H157L93 44V223l64-32h97v59l64-11 17-11-17-9V191h92l32 27 59-49-27-21V76L417 47l5-1 14-6 11-5 12-7 11-7 10-8 9-8 8-10 7-10-1-25-18-16-25 1-16 17-1 7zm473-1-1 8-2 7-4 9-3 4-8-2-39-8-39-7-79-13-39-5-39-6-39-4-56-7-10-18-12 15L531 5h11l38 1 40 2 38 1 39 1 14 1V76H620L555 44V223l65-32h91v59l48-8v26H259l-64-33V438l64-33H480v76H211l-65-32V654l65-33H480v66H50v22H877l44 48 53-48V687H525l19-3 16-11-16-10V621H813l32 27 59-48-26-22V470l-65-32v43H544V413l-16-8H759l32 27 59-48-27-22V268l-54-28 6-1 17-11-17-9V191h92l32 27 59-49-27-21V76L882 52l10-4 14-6 13-6 12-6 11-8 10-8 9-9 9-9 7-11-1-25-18-16-25 1-16 17-1 6zM867 76H775V13h1l40 1 40 1h39l-5 6-9 11-10 10-3 3-1-1v1l-9 7 5 8 4-2V76zM410 76H318V13h15l41 2h41l8-1-3 5-9 11-9 10-11 8 4 8 13-6h2V76zm301 93H620V98h91v71zm156 0H775V98h92v71zm-613 0H157V98h97v71zm156 0H318V98h92v71zM759 384H485l-5-3v3H259V289H759v95zM480 6e2H211V503H480v97zm333 0H544V503H813v97zm0 276 65-53V801H146v22H759l54 53z"/><glyph glyph-name="undefined" unicode="𧕢" horiz-adv-x="1024" vert-adv-y="918" d="M443-38l-1 8-2 8-4 9-3 6-16-4-40-9-41-7-40-7-39-7-39-6-38-6-37-6-52-7L81-84 68-69 52-6 62-5 99-3l38 2 38 2 39 2 39 2h1V75H157L93 43V227l64-32h97v62l64-11 17-11-17-9V195h92l32 26 59-48-27-21V75L414 45l9-3 13-5 12-7 12-7 11-7 9-9 9-9 8-10 7-11-1-25-18-17-25 2-16 18-1 7zm473 0-1 8-2 8-4 9-2 4-9-2-39-8-39-8-40-7-78-12-39-5-39-5-56-7-10-18-12 15L531-2h11l38 2 39 1 78 3 14 1V75H620L555 43V227l65-32h91v62l44-7v23H274l-65-33V446l65-33H480v72H195l-65-32V638l65-32H480v51H55v22H361l-15 11-1 7-3 8-5 8-6 9-7 9-8 10-10 9-11 11-13 10-15 9 4 9 17-6 16-4 16-5 15-5 13-6 13-7 12-8 11-8 10-9 9-10 3-24-14-18H602l9 9 14 16 13 14 12 14 11 14 10 11 9 12 8 11 6 9v1H114v22H480v64l64-11 16-11-16-9V812H792l53 54 65-54V790H711l36-34 6-19-25 4-1-1-12-8-13-8-14-10-15-9-16-9-18-10-13-7H871l44 48 54-48V657H544V606H829l32 27 60-49-27-21V485l-65-32v32H544V413H755l32 27 59-48-26-22V273l-51-26 6-1 17-11-17-9V195h92l32 26 59-48-27-21V75L879 49l14-4 14-7 13-6 11-8 12-8 10-8 9-10 9-10 7-11-2-25-18-17-25 2-16 18-1 7zM867 75H775V7l81 2h39l-6 8-8 11-10 12-13 9 5 9 4-2V75zM410 75H318V7l15 1 41 1h41 9l-5 7-8 10-9 11-11 9 4 8 14-7 1-1V75zm301 98H620V97h91v76zm156 0H775V97h92v76zm-613 0H157V97h97v76zm156 0H318V97h92v76zM755 392H274V294H755v98zM480 584H195V506H480v78zm349 0H544V506H829v78z"/><glyph glyph-name="undefined" unicode="𧾰" horiz-adv-x="1024" vert-adv-y="918" d="M760-50 614-46 489-35 386-18 3e2 9 232 45 181 89h-2v3l-36 53-21 62-6-48-8-46-9-43L88 28 75-10 60-46 43-79l-9 4 7 35L48-3l6 40 5 40 4 42 3 45 2 47v48l-1 51-1 48-1 18 65-12 16-10-16-11-1-33-3-46 16-48 29-55 8-9V487H44v22H179V675H55v22H179V869l64-11 16-11-16-9V697h15l44 48 54-48V675H243V509h21l44 48 53-48V487H243l16-11-16-9V299h37l33 38 43-38V277H243V92l13-9 61-27 23-6-1 8 26 12 27 13 25 12 24 11 23 12 23 10 21 12 20 11 19 11 14 9 5 3 8-15 36-35V106l-20 8-16-6-22-9-23-8-24-8-25-8-26-7-26-6-28-6-29-4-24-3 50-12 98-13 121-7H760l170 6 61 2-59-73-172-2zM874 56 861 66 847 76 832 86 815 96l-19 9-21 10-21 10-23 10-24 10 2 9 26-2 26-3 24-4 23-4 22-6 21-5 20-7 18-7 18-8 16-9 12-21-5-24-21-13-24 6-11 9zM336 188v22H530v82H387v21H530v70l64-10 16-11-16-10V313H725v70l64-10 17-11-17-10V313h46l44 49 53-49V292H789V210h96l44 48 54-48V188H336zM725 292H594V210H725v82zM490 396V380l-64-32V625l64-32H829l32 27 59-49-27-21V385l-64-32v43H490zm138 88H490V418H628v66zm201 0H692V418H829v66zM628 571H490V505H628v66zm201 0H692V505H829v66zm51 134v55l-20 8-13-6-17-7-18-7-19-6-21-7-21-5-23-5-24-5-25-6-3 10 22 11 21 12 20 12 18 11 17 11 16 10 15 10 13 10 8 6H670v22H880l32 27 59-49-27-21V637l-64-32v74l-13 6-14-7-18-9-19-8-21-7-22-8-23-7-25-6-26-6-27-6-4 10 25 13 22 13 22 12 20 12 19 12 17 11 16 11 15 11 13 11 7 7 4 3 32-42zM604 866l59-49-27-21V637l-64-32v76l-9 4-13-7-18-8-19-8-21-7-23-8-24-7-25-6-27-6-29-7-3 10 25 13 24 13 22 13 21 13 20 11 17 11 17 12 14 10 13 11 6 6h-1l3 2 2 1 28-37V817H539l29-39 1-19-21 9-11-5-17-8-18-7-19-6-20-7-23-5-23-5-24-5-26-6-2 10 23 11 21 12 20 12 18 11 18 11 16 10 14 10 13 10 8 6H363v22H572l32 27zm276-49H851l21-30 8-9v39z"/><glyph glyph-name="undefined" unicode="𨄯" horiz-adv-x="1024" vert-adv-y="918" d="M804-61 688-60 584-56l-91 8-79 11-66 17L294 0 254 25 231 51 213 30 190 9 166-11 139-30 110-46 79-60 46-71l-4 9L69-42 94-22 117-2l22 21 19 21 16 22 15 23 13 23 11 24 7 20 4 12 58-31 11-15-21-4-4-9-16-27-7-8 27-18 37-16 50-13 63-10 42-4V189H265l-65-33V351l65-32H749l32 27 59-49-27-21V178l-64-32v43H528V106H770l54 54 64-54V85H528V5l58-2H688L802 6l127 8 60 3-56-74-129-4zM749 297H265V210H749v87zM206 397v16h86 7l8 2 2 1 1 1v1l1 2 2 3v5l1 6V570H165v22H444l44 48 54-48V570H378V434 421l-3-13-4-13-7-13-8-11-12-9-12-6-12-4-14-3-14-1v33l-86 16zm480 3v16H789l5 1 3 1 2 1 1 1 1 1 1 2 1 3 1 5V707H545v21H804V877l64-11 17-11-17-9V728h17l44 49 53-49V707H868V438 424l-3-14-4-13-7-12-8-11-11-8-12-7-13-5-14-2H782v32l-96 16zM89 882l65-33H457l32 27 59-48-27-22V734l-56-28 37-33V652H189v21H405l44 48 8-7v20H154V642l-2-36-4-34-7-32-8-31-10-29-12-28-13-25-16-23-18-20-21-17-7 6 11 23 10 23 9 23 7 25 6 26 6 27 3 28 2 30 1 32-2 32V882zM214 546l57-32 10-17-24-3-5-6-10-13-12-14-13-13-13-13-15-12-16-13-17-13-17-14-7 7 13 17 11 18 11 17 9 16 9 15 7 15 7 14 5 14 4 12 2 7 4 11zM482 440l-1 6-3 8-4 8-6 9-7 11-9 10-10 12-11 13-15 11 6 8 15-9 17-6 14-7 14-7 13-6 11-7 10-8 9-8 9-8 7-10-1-25-17-17-24 1-18 17 1 4zM671 547l-4 9-6 11-8 10-10 12-11 11-14 13-15 12-17 13-20 12 5 9 21-7 22-7 19-7 19-8 16-9 16-9 14-10 12-11 12-12 9-13 1-25-16-18-24-1-19 16-2 9zM457 828H154V756H457v72z"/><glyph glyph-name="undefined" unicode="𨌯" horiz-adv-x="1024" vert-adv-y="918" d="M215 869l65-11 16-11-16-9V724h45l54 53 65-53V702H280V6e2h64l33 27 59-49-27-21V256l-65-32v53H280V154h54l54 54 64-54V132H280V-45L215-77V132H42v22H215V277H150V240L86 208V632l64-32h65V702H51v22H215V869zM758-24V-8h64l7 1 4 1 4 1 2 1 1 1v1l2 1 1 4V8l1 6V121H594V-45L529-77V433l65-32H844l32 27 59-48-27-22V14 1l-3-14-4-13-7-12-9-11-11-9-11-7-13-4-14-2-14-1v32L758-24zm86 275H594V143H844V251zm0 129H594V272H844V380zM215 433H150V299h65V433zm129 0H280V299h64V433zM698 707l-7-18-9-21-9-21-10-20-10-21-11-21-12-21-12-21-9-14 21 2 40 2 41 2 43 4 44 2 46 3 24 1-7 13-12 22-14 22-14 22-14 22-15 22 6 7 23-15 22-18 20-18 18-20 18-21 17-21 15-23 15-23 13-25 13-25V441l-18-17-24 1-17 17-9 24-10 24-10 23-9 19-28-8-45-11-43-10-43-8-41-7-39-7-39-6-37-6-35-4-13-2-10-17-12 15-15 64h11l34 1 36 1 32 1v2l6 23 6 23 6 23 6 22 5 23 11 43 5 20H451v22H687V869l64-11 16-11-16-9V729H868l54 54 64-54V707H698zM215 578H150V455h65V578zm129 0H280V455h64V578z"/><glyph glyph-name="undefined" unicode="𨙒" horiz-adv-x="1024" vert-adv-y="918" d="M796-51 677-49l-99 6-81 10-66 14L378 0 336 23 303 50 278 81l-12 20-12-12-19-19-19-16-20-17-19-15-58-44-19-13-1-22-18 9L39 2 49 7 69 17 89 27l42 21 22 11 21 11 37 19V353H50v21H211l32 27 59-48-27-22V112l19-16 29-21 12-7 7 3 27 12 26 12 25 11 24 12 24 11 22 11 21 12 20 10 15 9 4 3 7-13 38-37V106l-20 9-18-7-22-9-24-9-25-7-26-8-26-7-28-6-28-6-16-2 32-12 49-12 61-8 78-6 96-1 117 2 140 6 61 2-58-73-142-3zM869 56 856 66 841 76l-16 9-18 10-20 10-21 10-22 10-24 10-25 10 2 9 27-2 27-3 25-3 24-5 22-5 22-6 20-7 19-7 18-8 16-9 13-21-5-24-21-13-24 5-11 10zM311 188v22H513v82H364v21H513v70l65-10 16-11-16-10V313H715v70l64-10 16-11-16-10V313h52l44 49 54-49V292H779V210h84l53 53 65-53V188H311zM715 292H578V210H715v82zM471 396V380l-65-32V625l65-32H822l32 27 60-49-27-21V385l-65-32v43H471zm143 88H471V418H614v66zm208 0H679V418H822v66zM192 509l-12 15-12 13-12 14-14 13-14 13-15 12-16 13-16 12-18 12 4 9 21-6 20-5 20-8 20-8 18-10 19-10 17-11 17-13 17-13 15-14 8-24-11-22-23-7-22 11-11 14zm422 62H471V505H614v66zm208 0H679V505H822v66zM589 866l59-49-27-21V637l-64-32v75l-11 5-14-7-18-8-21-8-21-7-23-8-25-7-27-7-27-6-30-6-3 10 27 14 24 13 23 12 23 13 19 12 19 11 16 11 15 10 13 11 8 6 4 3 29-40V817H522l25-35 4-4h-1 1V759l-21 9-11-6-18-7-18-7-20-6-21-7-22-5-25-6-25-4-26-6-3 10 24 11 22 13 21 11 19 11 18 11 17 10 15 11 13 9 8 6H339v22H557l32 27zm318 0 59-49-27-21V637l-64-32v74l-14 6-15-8-19-8-20-8-21-7-23-8-24-7-25-6-27-6-28-6-3 10 25 13 23 13 23 12 20 12 20 12 18 11 17 12 15 10 13 11 8 7v1-1l4 4 33-46V817H845l12-19 17-18 1-20-21 9-15-7-17-7-19-7-20-6-21-7-22-5-24-6-24-4-26-6-3 10 23 11 22 13 20 11 19 11 19 11 16 10 15 11 14 9 8 6H657v22H875l32 27zM242 699l-10 14-10 14-12 14-12 13-13 14-14 13-15 13-17 13-17 12 4 9 21-7 20-7 20-8 19-8 18-10 17-12 17-12 15-12 15-14 14-14 6-24-12-22-24-5-21 12-9 14z"/><glyph glyph-name="undefined" unicode="𨾍" horiz-adv-x="1024" vert-adv-y="918" d="M257-24V-40L192-73V368l-13-16-29-32-30-32-34-30-35-31-7 7 27 37 27 36 25 35 23 35 23 34 20 35 19 34 18 33 16 33 12 29 4 11 56-33 10-16-20-3-8-15-20-34-22-33-2-5h5V428H486l3 5 6 15 7 14 7 14 22 44 8 15 7 16 6 10h-1l6 9 51-40 7-18-22 1-20-23-24-23-12-12-12-11-12-10-8-6H784l54 54 64-54V406H554V287H722l53 53 65-53V265H554V139H722l53 53 65-53V117H554V-3H836l54 54L954-3V-24H257zM489 117H257V-3H489V117zm0 148H257V139H489V265zm0 141H257V287H489V406zm392 85-67 11-63 18-57 26-52 33-47 40-41 48-23 37L60 692v21l458 11-28 59-22 63-1 3-1 2-2 9 64 9 18-6-11-12 15-43 26-55 17-27 236 6 52 55 66-53V713l-340-8 34-40 40-34 44-28 49-22 54-17 59-9 35-2 31 133h11L953 551l22-9 10-23-10-22-22-10-72 4zM743 770l-4 8-5 10-7 10-9 9-10 11-12 10-14 11-15 11-17 9 3 9 19-5 20-4 18-5 17-7 15-7 15-8 13-9 12-10 11-11 10-13 1-25-17-18-24-1-19 16-1 9z"/></font>
</defs>
</svg>
