<svg xmlns="http://www.w3.org/2000/svg"><defs><font name="Jigmo Regular" horiz-adv-x="1024" vert-adv-y="1024"><font-face font-family="Jigmo" font-weight="400" font-stretch="normal" units-per-em="1024" ascent="995" descent="169"/><glyph glyph-name="undefined" unicode="㔏" horiz-adv-x="1024" vert-adv-y="918" d="M607 419l64-53V344H526l-8-32-10-35-13-33-14-32-5-10H588l33 27 59-48-27-22V-25L588-58V-4H476V-41L411-74V105l-2-2-22-22-25-19-7 6 16 26 15 26 14 26 11 24v21h10l4 10 10 30 9 30 8 32 7 33 2 18H360v22H553l54 53zm-319 0 65-53V344H208l-8-32-11-35-12-33-13-32-5-10H270l32 27 59-48-26-22V-25L270-58V-4H158V-41L93-74V105l-2-2L68 81 44 62l-7 6L53 94l15 26 14 26 11 24v21h10l4 10 10 30 9 30 8 32 7 33 2 18H42v22H235l53 53zM764-24V-8H871l7 1 5 1 5 2 1 1v1l1 1 2 4 1 5V863l64-10 16-11-16-10V14 1l-3-14-4-13-7-12-8-11-11-9-13-7-12-4-14-2-14-1v32L764-24zM588 181H476V18H588V181zm-318 0H158V18H270V181zM719 783l64-11 17-11-17-9V138l-64-33V783zM560 867l64-54V792H353l-15-34-17-33-20-30-23-30-2-2H505l32 27 59-48-26-22V462l-65-32v43H265V456l-65-32V593l-6-4-32-21-35-19-39-16-4 8 31 25 30 25 27 25 24 26 4 4v8h6l12 14 20 27 17 28 15 29 12 30 3 10H89v21H506l54 54zM505 642H265V494H505V642z"/><glyph glyph-name="undefined" unicode="㬏" horiz-adv-x="1024" vert-adv-y="918" d="M798 197l65-54V121H703V-34L638-67V121H513v22H744l54 54zM64 777l65-32H262l32 27 59-48-26-22V89L262 57v64H129V57L64 25V777zM262 423H129V143H262V423zm309-43H466V170l22 15 20 18 16 17 14 19 11 21 9 22 7 24 4 26 2 28v20zM824 256l27 91h11l-11-91 16-11 11-16-11-16-16-11H792l-13 1-13 1-13 4-11 6-11 8-9 10-7 12-5 12-3 13-1 14v97H634l-2-25-7-34-9-31-12-28-16-25-18-23-22-19-24-15-27-12-28-8-3 8V-40L401-72V433l65-32H898l32 27 59-48-26-22V14L961 1l-2-14-4-13-7-12-9-11-10-9-13-7-13-4-13-2-14-1v32L812-24V-8h64l7 1 5 1 5 2 2 2 1 5 1 5 1 6V380H771V283l-1-7 1-5v-3l1-5 1-1 2-2 4-1 6-2 7-1h32zM262 724H129V444H262V724zm211-13 64-33H826l32 27 59-48-27-22V490l-64-33v44H537V484l-64-32V711zm353-54H537V522H826V657zm96 196 65-54V777H4e2v22H868l54 54z"/><glyph glyph-name="undefined" unicode="㱹" horiz-adv-x="1024" vert-adv-y="918" d="M181 280l-2 15-4 14-4 13-6 13-6 12-8 13-8 12-10 12-2-5-24-44-27-40-30-36-8 5 20 42 19 42 18 45 16 47 15 49 13 51 11 54 10 56 8 59 5 47H46v21H268l54 54 65-54V756H241l-9-56-11-60-14-58-4-14h91l33 27 59-49-27-16-4-1-8-67-16-85-20-80-25-74-29-68-33-60-37-55L145-8 99-48 49-81l-5 8L86-33l38 44 34 49 31 55 27 59 23 65 20 72 15 77 12 83 7 75H197l-6-19-18-52-20-50-14-29h2l16-7 14-8 14-11 13-11 12-13 11-15 9-16 9-17 7-19-4-24-20-15-24 5-14 19-3 16zM413 827l64-32H846l54 53 65-53V773H477V398l-3-64-7-60-10-56-13-53-17-49-20-46-24-42L356-9 324-41 290-68l-6 7 25 34L332 8l20 38 18 41 14 43 11 47 9 50 6 54 3 57v60V827zM446-40v22h91V187l65-11 16-11-16-10V-18h97V277l65-10 16-11-16-10V144h88l44 48 54-48V123H764V-18H873l54 53 65-53V-40H446zM919 351l-14 20-13 23-11 22-10 24-6 16V284l-65-32V438l-9-15-19-25-21-24-22-21-25-20-27-18-6 8 18 24 18 25 17 24 14 25 13 25 12 26 10 26 8 28 6 28 2 11H738v22h62v81l-11-1-24-4-25-2-26-3-3 9 25 10 23 11 22 10 21 9 20 9 19 8 18 8 17 8 17 8 10 5 5 2 3-9 48-41 1-16-22 9-8-3-17-4-18-4-20-5-10-2V587h12l44 48 53-48V565H865V551l1-4 12-22 12-22 12-21 12-20 13-18 14-18 14-16 15-16 16-14 6-7-57-42-16 20zM675 448l-2 6-3 7-4 6-5 7-6 7-6 7-3 2V284l-64-32V441l-1-1-14-23-16-21-17-20-19-18-20-17-8 6 13 22 11 23 11 22 19 45 8 24 8 24 6 25 6 25 1 8H491v22h91v79h-2l-26-3-27-2-28-3-3 9 27 10 26 10 23 9 10 4v1h2l10 4 20 8 18 8 16 8 14 8 12 7 6 4h-1 1l4 2 7-12 38-37 1-18-21 9-10-4-17-4-17-4-19-4V587h26l24 32 32-32V565H646V513l4-1 10-1 11-2 10-3 11-3 9-5 9-4 9-5 9-6 6-24-11-21-24-7-22 11-2 6z"/><glyph glyph-name="undefined" unicode="㷴" horiz-adv-x="1024" vert-adv-y="918" d="M125 831l64-32H867l54 54 64-54V777H189V433l-3-73-5-69-8-65-10-59-13-55-16-49-19-44L94-20 70-54 42-80l-7 6L53-42 68-7 82 32 95 75l10 48 8 52 7 58 3 62 2 67V831zM832 273l41-50 3-19-20 6-18-12-18-12-20-12-21-12-21-12-23-11-23-12-25-10-19-8 4-4 30-29 36-24 41-21 46-16L877 3l58-7 55-7-63-64-64 13-57 17-52 22L708 5 669 39 636 77l-25 42-18 48-4 23-3-12-24-55-32-48-41-42L442-3 387-31 324-53 255-68l-76-8-2 9 73 19 65 22L371 1l47 30 40 35 31 38 25 43 16 48 10 52 3 58v13l65-14 16-11-19-10-4-45 4-15 18-45 22-39 16-21 17 15 19 17 20 17 19 15 17 16 18 15 16 15 45 45zM286 67 267 82l-2 24 15 20 15 6 15 8 13 9 13 11 11 13 11 14 10 16 9 17 9 20 7 22 9-1-1-24V214l-4-22-6-22-8-20-10-19-13-18-15-16-16-15-19-14-24-1zM505 427l-5 9-6 10-9 11-10 11-11 13-13 13-14 12V337l-65-33V484l-15-18-21-23-25-23-25-22-27-21-30-20-31-19-6 8 24 27 23 25 22 26 21 24 19 25 17 24 16 24 13 24 12 23H216v21H372v86l-24-3-39-3-42-2-45-1-1 9 43 12 40 10 38 10 35 9 32 8 30 9 27 8 23 7 21 8 14 6 5 1 2-8 50-42 1-17-22 10-11-4-21-5-24-4-26-5-29-4-12-2V589h31l44 49 54-49V568H437V530l10-4 20-8 17-8 17-9 14-9 14-9 13-9 10-10 11-10 3-24-13-21-24-4-21 14-3 8zm395-63-25 19-22 20-20 22-18 24-15 25-3 6V337l-65-33V494l-9-14-20-26-22-24-23-23-26-20-26-19-29-16-31-14-4 8 23 22 23 22 21 23 19 22 18 24 17 24 15 26 12 26 12 27 2 6H598v21H732v86l-24-3-39-3-42-2-45-1-1 9 43 12 40 10 38 10 35 9 33 8 29 9 27 8 24 7 21 8 13 6 5 1 3-8 49-42 2-17-22 10-12-4-21-5-24-4-26-5-29-4-12-2V589h38l53 54 65-54V568H797V556l9-15 15-22 16-20 17-18 18-18 20-15 21-14 21-11 24-11 29-15-61-49-26 16z"/><glyph glyph-name="undefined" unicode="㺡" horiz-adv-x="1024" vert-adv-y="918" d="M446 374l-2-47 11 21 12 23 12 23 11 24 11 23 9 25 8 25 7 25 7 26 1 10H449V449l-3-75zM404-38v21h99V194l64-11 17-11-17-10V-17H679V287l53-11 14-11-14-9V150H839l44 48 54-48V128H732V-17H863l53 54 65-54V-38H404zM278-18l-8-11-9-10-10-9-10-7-12-6-13-5-12-3-13-2-14-1v32L102-24V-8h75l8 1 6 1 6 2 5 1 5 3 8 6 4 5 4 6 4 6 14 35 12 57 9 74 3 86-5 94-4 28-2-2-19-40-22-37-24-36-26-35-28-32-30-32-32-28-35-26-7 7 27 33 26 34 24 34 22 33 21 36 19 36 16 37 15 38 14 39 11 40 7 22-13 50-11 29-23-26-35-34-36-31-38-26-40-24-6 8 33 32 31 32 30 34 29 36 28 38 7 10-8 20-52 92-66 88 6 7 83-78 62-92 21 36 24 45 23 47 20 45 5 12 56-33 10-17-20-2-16-32-27-48-29-46-31-42-13-16 23-50 32-104 18-103 9-99V185l-6-79-12-64L284-6l-6-12zM910 328l-16 23-14 22-12 24-11 24-10 25-4 13V258l-59-30V430l-17-26-20-26-22-25-24-22-27-21-28-19-7 8 21 26 20 25 17 26 17 26 14 25 12 27 11 28 9 28 7 29 3 13H711v21h73v87l-17-3-26-4-27-3-28-2-3 9 26 11 25 11 24 10 23 9 22 9 21 9 20 8 19 8 17 8 12 6 5 2 3-9 48-42 1-16-21 9-10-3-18-5-20-4-20-4-17-4V573h26l44 48 54-48V552H843v-5l7-14 13-24 11-22 13-23 13-20 14-19 15-19 15-17 16-16 17-15 8-7-59-43-16 20zM647 430l-3 6-4 6-4 7-6 7-7 8-7 7-8 8V258l-59-30V433l-7-13-16-23-17-22-18-21-20-19-22-17-6 6-1-21-6-65-8-61-9-56-12-51-13-46-16-40-18-35-21-29-8 5 11 33 9 36 9 39 7 45 7 50 5 54 3 60 3 64v69l-1 74V831l65-32H865l54 54 64-54V777H449V573H549v83l-8-1-27-3-30-2-31-2-2 9 30 10 27 11 26 9 23 9 22 9 19 8 18 8 15 7 14 8 6 4v1-1l5 3 5-12 40-37 1-18-20 8-14-4-17-5-19-4-19-4-5-1V573h16l34 38 43-38V552H608V497h8l12-2 22-6 10-4 11-4 9-5 10-5 9-6 7-24-11-22-24-7-22 12-2 6z"/><glyph glyph-name="undefined" unicode="㻺" horiz-adv-x="1024" vert-adv-y="918" d="M125 855l64-32H867l54 54 64-54V802H189V467l-3-78-5-72-8-68-10-62-13-57-16-52-19-47L94-10 70-45 42-74l-7 6L52-34 68 3 82 44 95 90l10 50 8 55 7 60 3 66 2 70V855zM189-31V-9H550V133H275v21H550V294H235v22H811l54 53 64-53V294H614V154H770l53 54 65-54V133H614V-9H857l53 54L975-9V-31H189zM815 19l-9 9-11 10-11 9-12 10-14 9-14 10-15 10-16 10-18 9 3 9 19-4 20-3 19-4 17-5 17-4 17-6 30-13 14-8 13-7 11-22-7-24L846 3l-23 7-8 9zM508 462l-4 8-6 10-8 10-10 11-12 11-12 13-15 13V373l-64-33V514l-17-18-22-22-23-22-26-21-27-20-29-20-31-17-6 7 24 27 23 24 22 24 21 25 18 23 18 24 16 23 14 23 11 21H221v22H377v83l-26-2-39-3-41-2-45-1-1 10 42 11 40 11 38 9 35 8 32 8 30 8 26 8 25 8 21 7 14 4 5 2 2-8 52-44 2-16-23 11-15-5-22-4-23-4-26-4-29-3-10-2V617h30l44 48 54-48V595H441V560l11-4 19-7 17-8 16-8 15-8 13-8 13-8 11-10 9-10 5-24-14-20-25-4-20 14-3 7zm394-65-24 18-23 20-20 21-18 24-16 24-3 7V373l-65-33V521l-8-11-19-25-23-23-23-22-25-20-27-18-28-15-31-13-5 8 24 21 22 22 21 22 20 22 18 23 17 24 15 24 14 25 12 26 2 4H6e2v22H733v83l-23-2-39-3-43-2-45-1-1 10 43 11 41 11 38 9 35 8 33 8 30 8 28 8 24 8 21 7 14 4 5 2 3-8 52-44 1-16-22 11-16-5-22-4-23-4-26-4-29-3-14-2V617h37l53 53 65-53V595H798V584l9-13 15-22 16-19 18-18 18-17 19-14 21-14 22-12 23-10 30-15-60-49-27 16z"/><glyph glyph-name="undefined" unicode="㽁" horiz-adv-x="1024" vert-adv-y="918" d="M125 855l64-32H867l54 54 64-54V802H189V467l-3-78-5-72-8-68-10-62-13-57-16-52-19-47L94-10 70-45 42-74l-7 6L52-34 68 3 82 44 95 90l10 50 8 55 7 60 3 66 2 70V855zM912 17l32 135h11L944 17 964 4l12-19-12-19-20-13H786l-14 1-13 2-13 4-12 7-11 9-9 11-6 12-5 13-2 13-1 14V197H466L430 13l26 2 44 1 45 1 47 1 47-1 1-10L594-3l-46-8-45-8-44-7-43-7-82-13-40-6-39-6-16-3-10-18-12 15L199-1l10 1 39 3 39 2 41 3 36 2 56 286H213v21H835l53 54 65-54V296H486l-16-77H7e2l32 27 60-49-27-21V39 32l1-5 1-3 1-1 1-1 1-2h2l3-1 5-1 6-1H912zM602 59l-9 12-9 11-11 10-10 11-12 11-13 10-14 10-14 11-16 8 2 9 19-4 18-3 18-5 17-5 17-7 16-8 15-9 15-9 14-10 13-12 8-23-11-22-24-8-22 11-7 11zM508 462l-4 8-6 10-8 10-10 11-12 11-12 13-15 13V373l-64-33V514l-17-18-22-22-23-22-26-21-27-20-29-20-31-17-6 7 24 27 23 24 22 24 21 25 18 23 18 24 16 23 14 23 11 21H221v22H377v83l-26-2-39-3-41-2-45-1-1 10 42 11 40 11 38 9 35 8 32 8 30 8 26 8 25 8 21 7 14 4 5 2 2-8 52-44 2-16-23 11-15-5-22-4-23-4-26-4-29-3-10-2V617h30l44 48 54-48V595H441V560l11-4 19-7 17-8 16-8 15-8 13-8 13-8 11-10 9-10 5-24-14-20-25-4-20 14-3 7zm394-65-24 18-23 20-20 21-18 24-16 24-3 7V373l-65-33V521l-8-11-19-25-23-23-23-22-25-20-27-18-28-15-31-13-5 8 24 21 22 22 21 22 20 22 18 23 17 24 15 24 14 25 12 26 2 4H6e2v22H733v83l-23-2-39-3-43-2-45-1-1 10 43 11 41 11 38 9 35 8 33 8 30 8 28 8 24 8 21 7 14 4 5 2 3-8 52-44 1-16-22 11-16-5-22-4-23-4-26-4-29-3-14-2V617h37l53 53 65-53V595H798V584l9-13 15-22 16-19 18-18 18-17 19-14 21-14 22-12 23-10 30-15-60-49-27 16z"/><glyph glyph-name="undefined" unicode="㿛" horiz-adv-x="1024" vert-adv-y="918" d="M344 6l10 2 24 2 25 2 24 2V206l65-10 16-11-16-10V119h81l33 37 43-37V97H492V21l30 3 34 4 36 4 38 3 40 2 1-9-38-13L597 3 563-6 529-16l-32-8-30-8-28-7-26-6-26-6h-1l-9-19-13 14L344 6zM32 289l10 5 14 3 14 6 16 6 16 6 16 8 36 17 19 11 19 9v52V796l59-29H528V874l65-11 16-10-16-10V767H898l33 37 43-37V745H251V412l-3-67-7-63-11-60-14-55-18-51-21-47-26-42-29-38L89-43 52-70l-6 7L75-30 101 5l22 39 20 41 16 45 13 49 9 52 7 57 3 47-3-4-16-15-15-15-15-13-15-13-16-12-15-10-8-6-4-23-17 10-35 55zM309 444l64-33H594v88l43-11 10-11-10-8V411H851l43 48-21-11V598H724V470l-49-24V644l49-24H873l29 27 57-49-27-18V477l-36-18 53-48V390H701l48-8 16-11-16-10V327H866l32 27 59-49-27-21V221l-64-32v32H373V205l-2-32-5-31-6-31-9-29-10-28-13-27L314 2 297-22 278-44 256-63l-7 5 12 26L272-7l10 25 9 25 6 26 6 26 4 26 2 28 1 28-1 28V444zM904 16l24 101-17 7-10-4-18-6-17-5-18-5-19-4-19-4-20-4-20-2-22-2-12-1V38l1-7V26l1-3 1-2 2-2 2-1 3-1 5-1H904zM503 305H373V243H503v62zm182 0H567V243H685v62zm181 0H749V243H866v62zM503 390H373V327H503v63zm16 0 48-8 17-11-17-10V327H685v63H519zm12 257 51-49-27-13V470l-48-24V598H356V467l-54-27V647l54-27H507l24 27zM407 583l54-10 13-11-13-9V476l-54-27V583zm363 9 54-10 13-11-13-9V481l-54-27V592zM103 530l-3 17-4 16-5 16-5 15-7 15-7 14-7 14-9 14-11 12 6 8 15-9 15-9 14-11 14-12 12-14 11-16 11-17 9-17 9-19 7-20-4-24-20-15-24 4-14 20-3 18zM545 726l54-49V656H270v21H501l44 49zm379 0 54-49V656H640v21H880l44 49zM956 3l12-19-12-19-20-13H758 744l-13 3-13 4-12 7-11 8-9 11-7 12-4 13-2 14-1 14V202l64-11 16-10-16-10V1e2l8 3 19 10 18 8 17 10 17 8 16 9 15 8 14 9 14 9 8 6 5 3 8-15 36-35v-4l5 22h11L936 16 956 3z"/><glyph glyph-name="undefined" unicode="㿨" horiz-adv-x="1024" vert-adv-y="918" d="M379 831l64-32H860l54 54 64-54V777H443V449l-2-75-4-71-6-65-8-61-9-56-12-51-14-46-15-40-18-35-21-29-8 5 10 33L346-6l8 39 8 45 6 50 5 54 4 60 2 64 1 69-1 74V831zM399-38v21h99V194l65-11 16-11-16-10V-17H675V287l54-11 14-11-14-9V150H837l44 48 54-48V128H729V-17H860l54 54 65-54V-38H399zM181 859l61-24 13-14-20-7-6-18-8-19-7-20-8-20-9-20-9-20-10-20-11-21-5-9h87l32 27 60-49-27-21V59L249 27V91H121V27L57-5V679l64-32h27l3 15 3 22 3 22 4 21 3 22 7 41 7 54 1 4v1l2 10zm68-493H121V113H249V366zm660-28-16 22-14 22-12 23-11 25-10 25-3 13V268l-60-29V438l-16-25-20-26-22-25-24-22-26-21-29-17-6 7 21 25 19 26 18 25 16 25 14 27 12 26 11 27 9 28 7 29 2 12H711v22h72v85l-16-3-26-3-27-3-28-3-3 9 26 12 25 10 24 10 23 9 22 9 20 9 20 8 19 8 17 8 12 5-1 1h1l5 2 3-9 48-42 1-16-21 9-10-3-18-4-20-5-20-4-16-4V581h24l44 48 54-48V559H843v-5l6-13 12-24 13-22 12-22 13-20 14-19 15-18 15-18 16-15 16-15 8-8-58-42-16 20zM647 438l-3 7-4 6-4 7-6 7-6 7-7 8-8 7V268l-59-29V442l-7-12-16-24-17-22-18-21-20-18-21-17-7 6 13 24 12 23 12 22 11 23 10 24 9 24 9 25 7 25 5 27 2 8H447v22H550v82l-8-1-27-3-29-2-31-3-2 10 29 10 27 10 26 10 23 9 21 8 20 8 17 8 16 8 13 7 7 4 4 3 6-12 40-38 1-17-21 8-14-4-16-4-19-5-20-4-4-1V581h16l33 37 43-37V559H609V505h7l12-2 11-2 12-4 10-3 10-4 10-5 9-5 9-6 7-24-11-22-23-7-22 11-3 6zM249 625H121V388H249V625z"/><glyph glyph-name="undefined" unicode="㿭" horiz-adv-x="1024" vert-adv-y="918" d="M5e2 724l64-33H683V874l65-11 16-10-16-10V691H897l33 27 59-48-27-16-16-7-3-4-10-13-10-14-10-15-12-16-13-16-14-16-15-18-15-18-8 5 10 22 8 21 7 20 8 19 7 17 6 17 6 15 5 15v2H748V439h94l32 27 59-49-27-16-8-3-17-53-29-70-32-65-37-58-15-21 15-18 38-34 40-30 44-24L952 4l34-14-62-51-52 27L824-2 781 35 742 77l-8 11-34-37-48-41-52-36-55-28-58-22-4 9 53 30L584-2l45 39 41 42 37 46-29 49-26 56-21 59-16 64-9 64H564V369l-3-64-5-59-9-56-12-52-14-47-18-43-20-38-24-34-27-29-29-22-7 7 21 29L435-8l16 34 14 37 12 41 9 45 7 49 5 53 2 57v61V724zM110 777l62-31 27 11 28 10 27 10 27 10 26 10 25 10 25 10 23 10 19 9 4 2 4-10 46-40 1-17-21 9-6-2-25-8-53-14-27-7-28-6-29-5-29-5-30-5-31-2V509H359l54 53 65-53V487H347V273l17-9 24-16 21-17 20-18 18-19 16-20 4-24-14-20-24-4-21 14-9 17-13 17-14 18-16 18-9 7V-45L283-77V269l-17 12-28 19-30 19 4 9 35-10 32-12 4-1V487H175V412l-3-64-4-60-7-57-9-53-11-50-13-46-15-43L95 1 74-34 51-63l-8 4L56-25 68 12 79 51l9 41 8 45 7 48 4 52 3 55 1 58-1 62V777zM617 417l20-57 24-60 26-54 29-49 20-27 6 8 30 57 27 62 24 67 14 53H617zm66 253H564V439H683V670z"/><glyph glyph-name="undefined" unicode="䁻" horiz-adv-x="1024" vert-adv-y="918" d="M896-6 863 15 832 38 802 62 773 88l-27 28-25 28-23 31-21 32-4 7V-38L609-70V179l-14-17-28-32-30-31-33-27-34-26-37-23L394 2 353-16 310-30l-3 8L344 3l36 24 33 25 32 26 29 27 27 29 26 31 23 31 21 34 4 8H328v21H609v94l64-11 16-10-16-10V259H836l53 54 65-54V238H677l18-17 27-25 27-25 28-23 29-22 29-20 30-19 31-18 33-16 32-15 31-15-61-49L896-6zM53 791l65-32H223l32 27 59-48-27-22V101L223 68v65H118V68L53 36V791zM223 343H118V154H223V343zm685 55-1 17-1 7-7-5-18-9-17-10-18-9-17-8-18-8-17-9-14-6-7-21-15 13-18 39-53-27v33H603V357l-65-32v42l-20-12-23 6-14 20v17l-2 17v7l-8-5-17-9-18-10-17-9-18-8-35-17-14-5-7-22-14 13-28 59 10 3 37 6 6 2 2 7 10 32 11 32 11 33 11 35 4 12-18 1-17 18-3 13-3 13-4 13-4 13-5 13-5 12-5 13-6 12-6 13-8 12 7 7 11-10 13-8 12-9v-1l2 10 13 55 4 19 4 18 9 37 3 14h-1l4 14 59-28 12-15-21-5-7-17-9-17-9-18-9-17-19-34-11-16-10-13 7-7 10-12 10-11 9-13 8-14 2 6 12 39 12 40 11 37 4 13 59-28 12-15-20-5-8-21-16-40-15-38-16-37-15-35-16-33-17-32-17-30-14-23 7 1 37 8 19 3 20 4 13 2-1 7-2 18-2 17-7 37-3 19-5 19 9 3 10-16 11-16 10-17 8-17 9-17 8-17 7-17 6-18 4-13V786l65-32h11l2 3 4 15 6 27 3 13 3 12 2 11 2 12 2 10v5h-1l5 13 58-29 11-16-24-5-7-9-7-11-8-10-18-22-10-11-7-8h57l32 27 59-49-17-13 6-5 12-8 12-9 1-1 2 10 3 18 9 37 4 19 5 18 8 37 3 14h-1l5 14 59-28 12-15-22-5-7-17-8-17-10-18-9-17-9-17-10-17-10-16-10-13 7-7 10-12 9-11 10-13 8-13 2 5 12 39 11 40 11 37 4 13 59-28 12-15-19-5-9-21-15-40-15-38-16-37-16-35-16-33-16-32-17-30-14-23 6 1 38 8 19 3 19 4 14 2-1 7-2 18-3 17-6 37-4 19-5 19 9 3 10-16 12-16 9-17 9-17 8-17 8-17 7-17 6-18 6-18 6-18-6-23-21-13-24 6-13 20-1 17zM223 540H118V364H223V540zm572 63-3 13-4 13-9 26-5 12-6 13-5 12-6 13-5 7-1-1V414l26 4 7 2 2 7 9 32 11 32 11 33 12 35 4 12-18 1-18 18-2 13zM687 568H603V416h84V568zM223 738H118V562H223V738zm464-6H603V590h84V732z"/><glyph glyph-name="undefined" unicode="䃯" horiz-adv-x="1024" vert-adv-y="918" d="M903-10 873 13 845 38 817 63 792 91l-25 29-22 31-21 32-18 33V-47L641-79V179l-6-9-26-35-28-33-30-30-33-28-33-25L449-4 411-24 371-40l-4 8L401-6l31 25 31 27 28 28 26 29 25 31 23 33 21 34 20 36 5 13H387v21H641V392H614V354l-65-32V507l-2-2-13-20-14-20-16-19-14-19-16-19-15-18-15-19-15-18-1-1 4-21-19 4-53 38 7 8 19 15 17 16 19 15 18 15 18 16 19 15 18 16 39 29 15 10V764l65-32h13l3 11 3 19 3 18 3 17 2 14 2 14 2 13 1 10 1 10v2l-2 1 2 5 3 9 59-28 12-14-25-7-3-5-7-11-7-12-8-14-8-14-10-15-10-17-3-6h92l33 27 59-48-27-22V370l-65-32v54H667l39-7 16-10-16-10V271H842l53 54 65-54V250H706l17-20 26-28 25-26 26-25 26-24 28-22 28-21 28-19 30-18 30-16 25-14-60-48-32 21zM271 466l32 26 60-48-27-21V62L271 30V95H185V30L121-2V360l-21-38-29-46-30-44-9 5 21 49 21 49 19 49 18 49 10 28v5h1l6 17 15 50 14 51 13 52 10 52 6 36H50v21H241l54 54 64-54V724H252l-12-49-15-54-16-52-18-51-20-51-1-1H271zm0-22H185V116h86V444zm637-56-9 15-10 15-10 15-11 15-11 14-25 28-13 14-15 12 5 8 37-15 18-9 17-10 16-12 16-12 15-14 15-14 14-15 14-17 4-24-14-20-24-4-20 13-9 17zM732 556H614V413H732V556zM908 774l52-37 8-18H946l-10-13-13-16-14-15-14-16-15-17-16-16-18-16-18-16-19-17-7 6 13 21 11 22 12 20 12 20 10 18 11 19 18 34 8 17 5 11 1 2 1 3 4 4zM732 711H614V577H732V711zM458 635l-5 17-6 16-5 17-6 16-14 31-15 31-10 14 7 7 14-11 14-11 14-12 13-13 12-14 11-16 12-16 10-16 10-18 9-18-1-24-18-17-25 1-16 18-5 18z"/><glyph glyph-name="undefined" unicode="䍥" horiz-adv-x="1024" vert-adv-y="918" d="M115 593l64-32H831l44 48 54-48V539H179V305l-2-56-6-52-7-49-11-44-12-42-16-37L108-8 87-38 64-62 38-81l-6 7L49-48 63-22 77 8 88 40l9 35 7 39 6 42 4 46 1 50v53V593zM149-47v21H292V107l64-11 16-11-16-9V-26H522V182l64-11 16-10-16-10V91H762l54 54 64-54V69H586V-26H794l54 54 65-54V-47H149zM457 293l-5 5-7 6-7 6-8 6-10 6-10 6-11 7-7 4V193l-64-32V313l-6-6-17-17-19-15-20-14-21-13-23-11-24-11-5 8 19 18 17 17 16 17 15 17 13 17 12 17 10 18 9 17 5 12H195v22H328v47l-17-1-33-1H242l-38 1-1 10 37 9 34 9 33 8 30 7 27 6 25 6 24 6 19 6 19 6 10 4h-1l6 2 2-8 53-45 2-16-23 11-18-5-18-2-20-3-22-3-24-2h-6V406h22l44 48 54-48V384H392V353l11 1h14l13-1h12l12-2 11-2 11-2 10-2 10-4 13-20-4-24-20-14-25 5-3 5zm386-72-25 17-22 17-20 18-17 21-16 21-13 23V193l-65-32V317l-20-20-22-19-23-18-25-16-27-14-28-12-31-10-4 9 25 18 22 19 22 19 20 19 18 19 17 20 15 20 14 21 11 20H541v22H659l1 2 5-2v44l-6-1-32-1-33-1-34 1-35 2-1 10 34 8 32 8 32 7 31 7 30 6 30 7 28 7 27 7 27 7 21 5 5 2 2-7 56-47 2-16-24 12-22-5-27-4-29-4-29-3-8-1-12-7V414h59l54 54 64-54V392H732l13-16 15-17 16-17 17-15 18-13 20-12 20-11 22-9 23-9 34-14-61-51-26 13zM173 648V632l-64-33V861l64-33H851l32 27 59-48-27-22V637l-64-32v43H173zM356 807H173V669H356V807zm247 0H421V669H603V807zm248 0H668V669H851V807z"/><glyph glyph-name="undefined" unicode="䍽" horiz-adv-x="1024" vert-adv-y="918" d="M248 369l-2-55 35 10 41 11 42 12 45 11 4-10-42-21-40-19-38-18-37-16-13-6-3-31-9-59-13-53-15-48-19-43L160-3 134-34 104-59 71-76l-5 8L91-43l21 27 18 32 16 35 13 40 11 46 8 50 4 55-29-13-31-14-29-12-8-4-4-20-16 11-33 57 11 4 29 9 30 9 33 11 33 10 16 5 1 8-1 66v91H81v22H184V643H49v21H246l6 14 6 21 7 20 7 20 6 18 6 18 5 17 6 17 4 15 3 10h-1l2 5 3 7 57-32 10-16-22-3-5-10-10-15-9-15-11-16-12-16-11-18-13-17-15-18-4-6h40l44 49 54-49V643H248V482h25l44 48 54-48V460H248V369zM417 827l64-32H838l54 53 64-53V773H481V398l-3-64-7-60-10-56-12-53-17-49-20-46-23-42L362-9 331-41 298-68l-7 7 25 34L338 8l20 38 16 41 15 43 11 47 8 50 6 54 3 57V827zM450-40v22h88V187l65-11 16-11-16-10V-18h93V277l64-10 16-11-16-10V144h84l44 48 54-48V123H760V-18H864l53 53 65-53V-40H450zM911 351l-14 21-12 22-12 23-9 23-5 13V284l-64-32V436l-8-12-19-26-19-23-23-22-24-20-27-18-6 8 18 24 17 24 16 25 15 25 12 25 11 26 10 26 8 27 6 28 2 12H735v22h60v82l-10-2-24-3-24-3-26-3-2 9 23 10 22 11 22 10 21 9 19 9 19 8 18 8 17 8 15 8 10 5 5 2 4-10 46-40 1-17-21 9-7-2-17-4-18-4-18-5-11-2V587h30l33 37 43-37V565H859V550l1-3 12-23 11-21 12-21 12-20 13-19 13-17 14-17 15-15 16-14 5-7-57-42-15 20zM673 448l-2 6-3 7-4 6-5 7-5 7-7 7-1 1V284l-64-32V439l-14-22-15-21-17-20-19-18-20-17-7 6 12 22 11 22 10 23 10 22 9 23 8 24 7 24 7 24 5 26 1 8H494v22h88v79h-1l-25-3-27-2-28-3-2 9 26 10 25 10 23 9 9 4v1h3l9 4 19 8 18 8 15 8 14 8 12 7 5 3 4 3 8-14 37-36 1-17-21 8-10-3-15-4-17-4-18-4V587h22l25 32 32-32V565H646V513l3-1 10-1 11-2 10-3 10-4 9-4 9-4 9-5 8-6 6-24-11-21-24-7-22 12-1 5zM128 709l-1 14-3 14-2 13-4 13-3 14-15 40-7 13 7 6 10-10 13-10 11-11 11-11 9-12 9-14 9-14 7-14 7-15 6-16-5-24-20-15-24 5-14 20-1 14z"/><glyph glyph-name="undefined" unicode="䔉" horiz-adv-x="1024" vert-adv-y="918" d="M891 61 862 89l-26 30-25 32-21 36-18 37-13 33V-42L695-75V272l-19-37-24-41-25-39-28-37-30-35-32-31-34-29L466-3l-6 7 29 34 27 33 26 35 24 36 22 37 21 39 19 41 17 42 15 44 8 25H528v21H695V543l-35-6-47-7-52-6-54-5-1 9 52 16 49 15 46 12 42 13 40 12 36 11 33 11 30 10 26 10 23 9 3-9 49-41 1-17-22 9-10-3-25-6-29-7-32-7-59-12V391h76l53 54 65-54V370H759V349l14-32 19-37 20-35 21-32 23-29 24-26 26-23 26-21 29-18 21-14-59-46-32 25zM422 157l-7 14-9 16-11 16-12 17-15 17-16 18-18 19-5 5V-42L265-75V258l-4-6-24-39-26-38-28-37-31-36-32-36L85 31 48-3 41 4 70 44 98 84l26 39 26 39 23 38 21 39 20 38 17 39 17 38 5 16H71v21H265V543l-37-6-47-7-51-6-53-5-2 9 52 16 47 15 46 12 42 13 3 1v3h9l27 8 36 11 32 11 30 10 26 10 22 9 4-9 48-41 1-17-21 9-10-3-26-6-28-7-31-7-35-7-20-4V391h43l54 54 64-54V370H329V306l21-11 23-15 21-14 20-15 17-16 16-15 14-16 13-16 11-17 2-24-16-19-25-1-19 17-5 13zM624 874l64-11 16-10-16-10V761H843l53 53 65-53V739H688V652l-64-33V739H4e2V652l-65-33V739H63v22H335V874l65-11 16-10-16-10V761H624V874z"/><glyph glyph-name="undefined" unicode="䟏" horiz-adv-x="1024" vert-adv-y="918" d="M760-50 614-46 489-35 386-18 3e2 9 232 45 181 89h-2v3l-36 53-21 62-6-48-8-46-9-43L88 28 75-10 60-46 43-79l-9 4 7 35L48-3l6 40 5 40 4 42 3 45 2 47v48l-1 51-1 48-1 18 65-12 16-10-16-11-1-33-3-46 16-48 29-55 8-9V487H44v22H179V675H55v22H179V869l64-11 16-11-16-9V697h15l44 48 54-48V675H243V509h21l44 48 53-48V487H243l16-11-16-9V299h37l33 38 43-38V277H243V92l13-9 61-27 80-19 98-13 121-7H760l170 6 61 2-59-73-172-2zM895 97l-30 19-29 21-27 21-26 23-25 24-23 26-21 27-19 29v1V76L630 44V256l-8-10-26-29-28-26-30-24-32-22-33-21-36-18-37-15-40-11-4 9 35 21 32 22 30 22 29 23 27 25 25 25 22 26 21 28 19 29 2 3H376v22H630v82l65-11 16-11-16-10V335H831l54 54 64-54V313H697l16-12 24-22 26-20 25-20 26-19 27-17 27-17 29-15 29-14 31-13 31-14-61-50-32 17zm9 358-1 19-5-4-31-17-32-16-16-7-27-12-7-22-14 13-17 36-53-27v33H630l-64-33v7l-15-10-24 5-13 21-1 14-1 19-5-4-32-17-32-16-15-7-27-12-7-22-15 13-27 59 10 3 33 5 7 1 1 4 8 28 10 28 20 60 3 8H429l-18 18-2 11-5 22-4 11-4 11-4 11-4 11-5 12-5 11-8 10 7 7 9-8 12-7 11-7v-1l1 8 4 16 3 16 4 17 8 32 3 17 4 16 2 11h-1l2 4v1l3 8 58-28 12-16-21-4-6-12-8-15-18-30-18-29-10-13-8-11 6-5 9-10 9-10 9-11 6-8 11 34 11 35 9 31 4 13 59-28 10-14v67l64-32h8l1 2 4 14 5 23 3 12 2 10 1 11 2 9 1 10 1 3h-2l5 13 57-30 12-16-26-5-11-13-8-10-16-18-9-9-6-6h47l32 27 60-48-17-13 2-1 11-7 11-7 1-1 1 8 4 16 3 16 4 17 7 32 3 17 4 16 2 11 1 4v1l3 8 59-28 11-16-21-4-6-12-8-15-17-30-19-29-9-13-8-11 6-5 9-10 9-10 8-11 6-8 11 34 11 35 9 31 4 13 59-28 12-16-20-4-7-16-14-35-14-33-15-32-14-30-15-29-15-28-16-27-10-15 2 1 17 2 18 3 17 3 17 2 11 2-2 20-2 16-3 16-2 16-3 16-4 16 8 4 9-14 10-14 10-14 16-29 7-15 7-15 12-30 4-15-5-24-21-13-24 5-13 21-1 14zM701 603H630V472h71V603zm1e2 31-6 22-3 11-4 11-5 11-4 11-5 12-5 11-2 2-1-1V473l21 3 6 1 1 4 9 28 10 28 19 60 3 8H820l-17 18-2 11zM566 730l-18-4-7-16-14-35-14-33-15-32-14-30-16-29-15-28-15-27-10-15 1 1 17 2 18 3 17 3 18 2 11 2-2 20-2 16-3 16-3 16-2 16-5 16 9 4 8-14 11-14 9-14 16-29 7-15 7-15 6-13V730zm135 16H630V624h71V746z"/><glyph glyph-name="undefined" unicode="䟐" horiz-adv-x="1024" vert-adv-y="918" d="M467 442l-2-19 11 18 10 19 9 20 8 18 8 20 13 40 5 21 5 21v4H469V507l-2-65zM438 92v21h83V271l64-10 16-11-16-10V113h87V361l64-10 16-11-16-10V252h84l44 49 54-49V231H736V113h85l54 54 64-54V92H438zM881 420l-16 19-14 20-12 21-9 19V371l-64-32V494l-7-10-17-22-17-20-19-18-21-16-21-13-7 7 14 20 14 20 12 21 12 22 11 22 10 23 9 23 8 25 8 26 2 9H695v22h71v59l-13-2-22-1H709l-23-1-2 10 22 7 21 9 39 15 19 7 18 8 18 8 17 7 16 8 11 6 5 2 4-10 46-40 1-16-21 9-6-3-19-5-18-4-14-3 3-2-16-10V635h29l34 38 43-38V613H830V598l5-10 11-22 12-21 13-19 13-17 13-15 14-13 15-12 15-10 16-12-59-44-17 17zM628 505l-2 5-2 5-3 6-4 6-5 6-3 4V371l-65-32V491l-8-11-14-18-16-17-17-15-17-14-7 6-2-41-6-56-7-53-9-48-11-44-12-39-15-35-16-30-19-24 27-6 98-13 120-6H756l169 5 62 2-59-73-171-1-147 3L487-26 384-8 299 18 231 53 179 98h-2v3l-35 52-21 61-6-47-7-46-9-43L88 38 75-1 60-36 43-69l-9 4 7 35L48 7l5 38 5 40 5 42 2 44 2 47 1 48-1 50-2 47v18l65-11 16-10-17-11-1-33-2-46 15-46 29-55 7-8V492H44v21H177V678H55v21H177V870l65-11 16-11-16-9V699h14l44 49 54-49V678H242V513h20l44 49 53-49V492H242l16-11-16-10V306h35l34 38 43-38V284H242V101l12-10 62-26 50-12-7 4 9 28 9 31 7 35 7 38 5 42 4 47 3 51 2 55 1 60-2 63V842l65-32H832l54 53 64-53V788H469V626h75v62l-20-1-24-1-25-3-2 10 24 7 22 10 20 8 5 2v3h6l9 3 17 7 16 8 14 7 11 6 11 7 4 3h-1 1l4 3 6-13 40-37 1-18-21 9-11-3-14-3-15-3-13-3V626h11l24 32 33-32V604H609V562h9l10-2 8-1 9-3 8-2 9-3 8-4 8-5 7-24-12-22-23-7-22 12v4z"/><glyph glyph-name="undefined" unicode="䣓" horiz-adv-x="1024" vert-adv-y="918" d="M951 127l-6-12-8-11-9-9-11-8-11-7-12-6-13-3-14-2-13-1v32l-54 16v16h54l7 1 6 1 10 3 4 2 3 3 3 4 3 4 4 5 2 7 8 21 6 26 3 31-1 35-5 35-10 37-17 35-23 35-33 34-39 35-8 4 15 35 14 35 14 32 13 33 13 31 12 30 11 30 10 28 9 28 1 5H715V-45L651-77V831l64-32H894l32 27 60-49-27-16-11-4-3-7-13-27-14-29-15-28-16-30-17-30-19-30-20-30-22-30-17-23 50-19 41-32 33-37 24-40 16-42 10-42 3-41V203l-4-34-8-30-6-12zM454 259l25 69h10l-10-69 14-10 2-3V364H4e2V288l-1-6v-6l1-3v-3l1-2 1-2 2-2 4-2 6-2 7-1h33zm-50-71 64-54V113H356V-35L291-67V113H178v21H350l54 54zM249 364H157V181l8 8 13 16 12 16 11 17 10 18 10 19 8 21 8 22 7 23 5 23zM156 707l65-32H432l32 27 59-48-27-22V471l-64-32v43H221V466l-65-32V707zm276-53H221V504H432V654zm71 191 64-54V769H91v22H449l54 54zM559-4l-2-14-5-13-6-11-9-11-11-9-12-7-13-4-14-3H474v32L420-28v16h54l6 1h5l3 1 2 1 2 2 1 2 1 3 1 5v7V223l-2-3-14-10H408l-13 2-12 3-11 5-11 8-9 10-7 11-5 12-3 14-2 13v76H275l36-17 13-15-20-5-3-7-12-24-12-23-14-22-16-20-16-17-17-16-19-13-20-10-18-8V-39L93-71V418l64-33H495l33 27 59-48-27-22V10L559-4z"/><glyph glyph-name="undefined" unicode="䤙" horiz-adv-x="1024" vert-adv-y="918" d="M629-26 628-3l-2 9h-1L6e2-4 549-21l-25-7-24-8-47-14-24-6-1-1-8-20-13 14L383-2l11 2 23 3 24 3 24 3 25 3 23 3V118H460V102L412 78V291l48-24h53v83l53-11 14-11-14-8V267h49l24 27 51-48-27-14V118L615 94v24H566V21l28 3 27 1h2l-1 6-4 12-3 12-4 12-7 11 8 6 9-9 11-9 10-9 9-10 9-11 7-11 8-12 6-12 6-13 5-14-5-23-21-14-24 5-13 21v11zm302 0v11L930-3l-1 7-21-8-25-8-24-8-25-7-25-7-49-13-24-6-3-1-9-19-13 14L690 3l11 2 25 2 25 3 49 4h5V118H756V102L708 78V291l48-24h49v83l54-11 13-11-13-8V267h43l29 27 57-48-27-19V118L902 89v29H859V20l17 2 26 2 23 1-5 20-9 26-8 12 8 6 10-11 11-9 11-9 10-11 8-11 8-12 8-12 7-13 6-13 5-14-6-23-21-14-23 5-14 21v11zM325 837l64-54V761H267V611h49l25 27 51-49-27-13V3L316-21V35H109V-29L45-61V643l64-32h30V761H28v22H271l54 54zm-9-667H109V57H316V170zm489 76H756V140h49V246zm97 0H859V140h43V246zm-389 0H460V140h53V246zm102 0H566V140h49V246zM305 336l11-5V589H267V363l1-7 2-5 2-5 28 106h11L3e2 339l5-3zM140 589H109V268l7 23 6 27 6 29 4 33 4 37 2 40 2 44v48 40zM902 372l-31 24-28 25-27 28-24 31-21 32-19 34-15 37-13 38-8 37h-7l-17-13-19-14-6-4 15-17 20-26 16-25 14-25 12-23 9-24 6-24 4-23 1-23-2-22-4-2-3-11-5-12-7-12-8-10-11-9-11-8-12-6-13-4-13-2H661v32l-75 16v16h82l6 1 4 2 4 2 3 1 2 3 2 2 4 18 4 12 3 15 1 17v11l-22-17-28-19-30-18-31-17-32-15-34-14-35-13-37-10-38-8-4 9 35 18 33 18 31 18 30 18 28 18 27 20 25 20 24 20 22 21 20 22 2-2-2 8-2 4-2-1-25-17-26-17-28-15-28-15-30-13-31-12-32-11-33-9-34-7-4 9 30 17 30 17 28 16 27 16 26 17 25 17 24 17 22 19 21 18 17 17-4 8-4-2-22-14-24-13-26-12-27-11-29-11-30-9-33-8-34-7-3 9 30 16 29 17 27 15 25 15 23 15 22 14 20 15 12 10H398v22H752l7 41H573l-1-5-69-20 33 170 61-24 14-13-17-5-4-18H772l32 27 60-48-27-16-9-4-10-85h57l44 48 54-48V658H728l17-28 20-33 21-31 9-12 9 8 11 11 11 10 11 11 28 27 8 9 4 4-1 1 4 3 40-51 1-19-23 8h-1l-25-11-13-5-14-6-30-10-10-3 3-3 23-27 25-23 25-22 28-19 29-17 30-16 28-14-60-49-34 21zM219 761H193V611h26V761zm551 24H586l-8-42H763l7 42zM297 280l-13 2-13 2-12 5-11 7-10 8-8 10-6 12-3 12-1 13-1 12V589H193l-2-41-3-49-5-45-6-42-7-38-9-34-10-31-13-26-14-22-15-17V191H316v98l-10-5-6-4h-3z"/><glyph glyph-name="undefined" unicode="䥶" horiz-adv-x="1024" vert-adv-y="918" d="M412 831l65-32H872l54 54 64-54V777H477V449l-3-75-4-71-6-65-7-61-10-56-11-51-13-45-15-41-17-35-20-29-9 5 10 33 8 35 9 40 7 45 6 50 5 54 3 60 2 64 1 69-1 74V831zM329 663l-5 13-7 13-8 14-9 13-11 14-11 14-14 15-14 14-7 6-9-24-18-43-20-43-21-41-22-40-13-20H268l44 48 54-48V546H264V396h28l44 48 53-48V374H264V70l49 13 33 9 34 7 4-9-31-17-30-17-30-15-31-13-31-13-63-25-31-12-31-10-10-4-7-19L75-42 48 17l10 3 31 7 32 7 32 7 46 12V374H70v22H199V546H127l-24-34-28-36-30-35-7 6 41 80 19 40 19 40 17 41 16 41 15 42 14 43 13 43 10 39 3 14 60-25 13-15-20-5-8-26-3-8 11-5 20-9 18-9 18-11 16-11 14-13 14-13 13-14 11-14 10-15 1-25-16-18-25-1-18 17-5 13zM432-38v21h95V194l65-11 16-11-16-10V-17H698V287l54-11 13-11-13-9V150h99l44 48 54-48V128H752V-17H873l53 54 65-54V-38H432zM115 141v17l-1 16-3 16-3 15-4 16-5 17-6 16-7 17-9 16 8 6 13-13 14-13 13-14 11-15 10-17 10-17 7-17 7-19 5-19 4-19-8-24-21-11-24 8-11 22v16zM320 312l59-28 12-15-22-5-5-12-18-32-9-16-10-16-10-16-11-16-12-15-11-16-9 5 6 18 5 18 4 18 5 18 5 18 8 34 4 17 3 17 2 11 4 13zm602 27-15 21-13 22-12 24-10 24-9 25-2 7V268l-59-29V434l-14-21-19-26-22-24-23-23-25-20-28-18-6 7 20 25 18 26 17 24 15 26 14 26 11 27 11 27 8 28 7 29 2 12H734v22h68v85l-15-3-25-3-26-3-27-3-2 9 25 11 24 11 22 10 22 9 21 9 20 8 19 9 18 8 17 8 10 5v1-1l5 3 4-10 47-41 1-16-21 9-9-3-17-4-19-5-20-4-15-3V581h19l44 48 54-48V559H861v-6l18-36 11-23 13-21 13-20 13-20 14-18 15-17 15-16 16-15 7-7-58-42-16 21zM671 439l-3 6-4 7-4 6-5 7-6 7-7 8-6 6V268l-59-29V438l-5-8-15-24-17-22-17-21-20-18-20-17-8 6 13 24 12 22 11 23 10 23 10 23 8 25 8 24 7 26 6 26 2 9H479v22h98v82l-6-1-27-3-28-2-30-3-1 10 28 10 25 10 25 10 22 8 21 9 19 8 17 8 14 7 12 8 7 4h-1 1l4 3 7-14 38-36 1-17-20 8-12-4-16-4-18-5-20-4-3-1V581h31l25 32 32-32V559H636V505l7-1 11-1 21-6 11-3 19-9 9-5 9-7 6-24-11-21-24-7-21 12-2 6z"/><glyph glyph-name="undefined" unicode="䮥" horiz-adv-x="1024" vert-adv-y="918" d="M773 197l65-54V121H711V-34L647-67V121H548v22H720l53 54zM354-24l-7-11-9-10-10-8-11-8-11-6-13-5-13-3-13-1-13-1v32L168-29v16h86l7 1 7 1 6 1 5 2 5 3 4 3 5 4 4 4 4 5 3 7 9 18 8 21 7 25 6 28 4 31 4 35 2 38 1 41v39h-1v43H135L70 304V831l65-32H295l54 54 64-54V777H281V648h29l44 49 54-49V627H281V503h29l44 49 54-49V482H281V358h63l33 27 59-48-27-16 1-21V254l-2-43-2-40-4-37-5-35-6-32-9-29-9-27-12-24-7-11zM64-6 41 2 31 25l8 23 7 6 7 11 8 13 7 17 6 21 5 24 5 27 3 30 4 33 2 37h10l6-36 5-34 3-31 1-29V110l-2-26-5-22-5-21-8-19L86 4 64-6zM187 47l-23-6-21 13-6 24 3 13 3 14 2 15 2 16 1 17v17l-1 19-1 19-2 20-3 21 9 4 9-20 9-19 9-19 6-18 6-19 4-18 4-19 2-17 1-18V68L187 47zm25 86 1 14-1 14-1 14-2 14-2 15-4 15-3 15-5 16-7 15 8 5 11-13 11-12 11-14 10-14 9-14 7-15 6-16 6-16 5-16 3-17-8-22-23-11-22 8-11 22 1 13zm60 63-3 22-3 11-3 11-5 12-5 11-12 24-10 10 6 8 12-8 13-7 12-9 12-9 10-10 10-11 9-12 7-13 8-14 6-14-5-24-20-14-24 5-14 19-1 12zM591 380H515V175l12 10 15 17 13 17 11 19 9 20 7 22 5 24 3 27 1 29v20zM802 256l27 91h10l-10-91 16-11 11-16-11-16-16-11H789l-14 1-12 1-13 4-12 6-10 8-10 10-6 12-5 12-3 13-1 14v97H654l-2-25-5-33-8-31-11-28-13-25-16-22-18-20-21-15-23-12-22-8V-40L450-72V433l65-32H862l32 27 59-48-27-22V14L925 1l-2-14-4-13-6-12-10-11-10-9-13-7-13-4-13-2-14-1v32L787-24V-8h53l7 1 5 1 5 2 2 2 1 1V3l1 5 1 6V380H767V271l1-3v-2l2-3 1-1 2-2 3-1 6-2 7-1h13zM216 482H135V358h81V482zM509 711l65-33H802l33 27 59-48-27-22V490l-65-33v44H574V484l-65-32V711zM216 627H135V503h81V627zm586 30H574V522H802V657zM216 777H135V648h81V777zm660 76 65-54V777H454v22H823l53 54z"/><glyph glyph-name="undefined" unicode="䰘" horiz-adv-x="1024" vert-adv-y="918" d="M743-29v16H851l6 1 5 1 5 1 2 2 2 5 1 5V9 842l65-11 16-11-16-9V9L936-5l-3-13-4-13-7-13-8-10-11-9-13-7-12-4-14-2-13-1v32L743-29zM93 837l64-11 16-11-16-10V-45L93-77V837zM692 148l33-46 5-6 1-19-19 8-21-13-40-22-41-19-43-18L522-2 477-15 429-25l-49-8-50-5-52-2-1 9 50 13L374-5 420 9l44 15 43 17 40 18 39 20 37 22 35 23 34 24zm-90 51 37-52 1-19-19 8-11-7-31-17-32-15-32-14-34-12-35-11-35-9-37-7-38-5-39-2-1 10 36 12 35 13 33 13 33 13 31 15 30 15 29 17 27 17 27 18 25 19zm-85 54 40-51 1-19-20 7-3-2-23-13-24-12-24-11-25-10-26-9-28-7-28-7-29-4-30-3-3 9 27 13 26 12 25 13 24 12 23 12 21 13 21 14 19 14 19 14 13 12 4 3zM750 150l-32 12-30 14-30 15-28 16-27 17-25 19-25 20-23 22-1 1-10 3-11-9-28-21-30-20-32-18-32-16-35-15-35-13-37-10-40-9-40-6-2 9 37 16 34 17 34 16 32 17 30 18 29 19 27 20 24 20 24 22 5 5-50-25v56l-3 1-2-2-19-15-20-14-21-14-22-12-23-10-24-10-25-9-27-7-27-5-3 9 23 14 22 14 21 14 20 14 19 14 18 15 16 14 15 16 14 15 10 13 2 2 1 1 3 3 32-33V492H365l30-27 6-18-22 3-15-13-17-14-17-12-18-11-19-11-19-9-21-8-21-7-21-6-4 8 17 13 17 14 16 13 15 13 14 14 14 13 12 15 12 14 11 15v1H216v21H423l33 27 59-48-27-22V347l3 3 36-39 17-8 27-14 27-13 27-13 56-22 29-10 29-9 31-8 31-7 44-12-63-56-32 11zm13 390 59-48-27-22V299l-64-32v95l-3 1-12-9-16-10-17-11-17-9-18-8-19-7-19-6-42-11-3 9 18 10 16 13 16 11 15 12 13 12 13 12 11 12 11 12 9 13 5 7 2 3 1 2 2 2 34-31V492H673l29-27 6-18-21 3-16-14-17-13-18-12-19-12-19-10-21-9-21-9-45-12-4 8 20 13 17 14 17 13 16 13 15 14 14 14 13 14 12 14 11 15 1 1H523v21H731l32 27zM534 578v22H646v91H539v22H646v70H539v21H738l54 54 64-54V783H711V713h31l44 48 54-48V691H711V6e2h47l44 48 54-48V578H534zm-355 0v22H297v86H195v21H297v70H179v22H378l53 54 65-54V777H361V707h26l44 49 54-49V686H361V6e2h37l44 48 54-48V578H179z"/><glyph glyph-name="undefined" unicode="䰛" horiz-adv-x="1024" vert-adv-y="918" d="M399 260v58l-8-52 8-6zm-71-69 54-49V121H294V-25L230-58V121H142v21H284l44 49zM880-56l-14 1-14 2-13 5-12 7-11 8-8 11-7 12-5 13-2 14V30 63l-3-1-36-17-35-15L651 2 617-11 553-35 513-50l-6-20-15 12L463 1l10 3 31 8 32 8 30 7 35 734H502v22H834l54 54 64-54V761H665l-9-193H794l32 27 59-49-27-21V24l1-5 2-5 2-2 5-2 5-1h7 24l33 134h10L937 9 956-4l13-20-13-19-19-13H880zM794 546H655L632 45l5 1 35 9 37 9 37 9 39 8 9 2V546zM195 369H130V196l10 15 9 16 9 17 8 17 7 19 7 21 6 21 5 23 3 19 1 2v3zM710 252l-2 20-2 20-4 20-5 19-4 18-6 18-14 37-9 17 7 6 15-14 15-15 13-16 13-17 10-19 10-19 9-21 7-22 7-22 5-24-7-23-21-12-24 7-12 21-1 21zM266 369H222l36-15 8-9v24zM118 710l65-32H346l32 27 59-49-27-21V476l-64-32v43H183V470l-65-32V710zm228-54H183V508H346V656zm53 190 65-54V770H70v22H345l54 54zM366 266l25 69h8v34H331V295l-1-6v-6l1-3v-3l1-2 1-2 2-2 4-2 6-2 7-1h14zM462 6 460-8l-4-12-7-13-9-11-11-9-12-6-13-4-13-3-14-1v33L323-18V-2h54 7l4 1 5 2 2 2 2 5 1 5 1 6V223l-8-6H339l-12 2-13 3-12 5-10 8-9 10-8 11-4 12-4 14-1 13v43l-15-4-2-6-10-25-11-22-12-22-13-19-14-17-15-16-16-13-16-10-12-6V-29L66-61V423l64-32H399l32 27 59-49-27-21V19L462 6z"/><glyph glyph-name="undefined" unicode="䰜" horiz-adv-x="1024" vert-adv-y="918" d="M644 252v73l-11-66 11-7zm-72-71 53-48V111H539V-39L474-72V111H388v22H528l44 48zM241-18l-6-12-8-11-9-10-10-9-11-7-12-6-13-3-14-2-13-1v32L80-31v16h72l6 2 5 1 3 2 4 2 3 3 2 3 3 4 3 6 3 6 3 12 3 18 3 22 3 26 3 31 2 35 2 39 2 43 2 47v39H106l-3-66-66-29L55 610l60-34h84V777H67v21H199l32 27 60-48-27-22V522l-65-32v64H116l-9-206H208l32 27 59-49-27-16-1-25-1-48-3-43-2-40-2-36-3-32-3-28-4-24-3-21-5-18-4-13zm698 0-6-12-7-11-9-10-10-9-11-7-13-6-12-3-14-2-13-1v32L790-31v16h61l6 2 4 1 4 2 4 2 3 3 2 3 3 4 3 6 2 6 4 12 3 18 3 22 3 26 2 31 3 35 2 39 2 43 2 47v39H805l-3-66-66-29 17 379 61-34h84V777H766v21H898l32 27 59-48-26-22V522l-65-32v64H815l-9-206H907l32 27 59-49-27-16-1-25-2-48-2-43-2-40-3-36-2-32-3-28-4-24-3-21-5-18-5-13zM433 366H377V184l2 1 10 14 9 14 8 17 7 18 7 21 4 25 5 26 3 30 1 16zM364 714l65-32H589l33 27 59-49-27-21V475l-65-32v43H429V470l-65-32V714zm225-54H429V507H589V660zm53 193 64-54V777H317v22H588l54 54zM609 259l24 69h11v38H579V281l1-5v-4l1-3 3-4 2-2 4-2 6-1 7-1h6zM702-8l-2-12-3-12-5-12-8-10-10-9-11-7-12-4-12-3-12-1v30L573-33v14h54l4 1h4l3 2 2 2 2 3 1 3 1 6V217l-11-7H603l-13 1-12 1-12 4-12 5-10 8-8 10-7 11-5 12-3 13-1 13v78H496l-4-25-7-32-10-29-10-27-12-23-14-21-15-17-17-13-19-9-11-2V-43L313-75V420l64-32H644l29 26 57-48-27-19V5L702-8z"/><glyph glyph-name="undefined" unicode="𠘟" horiz-adv-x="1024" vert-adv-y="918" d="M343 827l64-32H837l53 53 65-53V773H407V398l-3-64-8-60-10-57-15-53-19-49-22-46-27-41L273-9 239-41 202-68l-7 7 30 34L251 9l22 38 20 40 16 44 14 46 9 50 7 54 4 57V827zM376-40v22H482V187l64-11 17-11-17-10V-18H662V277l65-10 16-11-16-10V144H841l44 48 54-48V123H727V-18H866l54 53 65-53V-40H376zM137 180l8-17 12-30 8-32 6-33 2-34V0L160-22l-23-6-21 11-8 24 4 29 1 29-1 28-4 27-6 28-8 27-12 28-13 27-16 28-17 29 7 6 26-22 24-24 6-8 3 6 18 27 18 32 20 36 21 40 22 45 24 48 26 52 28 55 29 60 9-4-20-63-19-60-20-54-19-51-18-47-18-42-17-39-15-35-15-30-14-28-5-7zM908 349l-16 21-14 22-13 23-12 24-10 24-4 11V284l-64-32V447l-17-24-21-26-22-23-25-22-27-20-30-17-6 8 22 25 21 25 18 24 17 25 15 25 13 26 11 26 9 28 8 27 2 11H702v22h73v81l-16-2-27-3-28-3-29-2-2 9 27 11 25 11 25 9 24 9 23 10 22 8 20 8 20 8 18 7 13 6h-1 1l4 2 3-8 50-43 1-16-22 9-11-3-20-5-20-4-21-4-15-3V587h29l44 48 54-48V565H839v-8l5-9 13-23 12-22 13-20 14-20 14-18 15-18 15-16 17-15 17-15 9-9-57-43-18 20zM636 447l-3 6-4 6-5 7-6 7-15 15-7 6V284l-65-32V450l-7-11-16-23-17-21-19-20-20-18-22-17-7 7 14 23 13 22 13 22 11 23 11 23 9 24 9 24 7 25 7 25 1 7H427v22H531v78l-6-1-29-2-30-2-32-2-2 9 31 10 28 11 26 9 25 9 23 8 20 8 18 8 17 7 13 8 7 4 5 3 5-12 42-38 1-18-20 9-1-1-16-4-18-5-19-3-20-5h-3V587h18l33 37 43-37V565H596V513h6l12-2 12-2 11-3 11-3 10-4 10-4 10-5 9-6 8-24-11-22-23-8-22 10-3 7zM168 642l-5 14-7 13-8 14-9 13-10 13-12 13-12 13-14 13-16 12 5 9 19-8 18-7 19-8 16-9 16-11 15-13 14-13 12-13 12-16 11-16V631l-16-19H192l-19 16-5 14z"/><glyph glyph-name="undefined" unicode="𠟄" horiz-adv-x="1024" vert-adv-y="918" d="M125 831l64-32H867l54 54 64-54V777H189V433l-3-73-5-69-8-65-10-59-13-55-16-49-19-44L94-20 70-54 42-80l-7 6L53-42 68-7 82 32 95 75l10 48 8 52 7 58 3 62 2 67V831zM815-41l-11-7-10-6-12-6-11-4-12-4-12-3-25-3H709v32L602-26v16H718l9 1 7 1 8 2 8 3 7 2 7 4 7 4 7 4 7 6 2 2 4 8 5 14 5 19 5 24 3 29 4 34 2 39 2 42 1 36H563l-17-54-21-52-25-48-28-43-33-37L403-2 364-28 321-48 275-62l-48-7-2 9 44 18 40 19L344 1l33 27 28 32 25 36 23 39 19 45 16 49 9 35H266v22H818l33 27 59-49-27-16h-1V226l-2-44-3-40-3-36-5-32-5-28-6-24-8-21-11-19-14-15-10-8zm85 405-25 19-22 20-20 22-18 24-15 25-3 6V342l-65-32V495l-9-15-20-25-22-24-24-22-25-20-26-18-29-15-31-12-4 8 23 21 23 21 21 22 20 22 17 23 17 23 15 25 13 26 11 27 2 6H598v21H732v86l-24-3-39-3-42-2-45-1-1 9 43 12 40 10 38 10 35 9 33 8 29 9 27 8 24 7 21 8 13 6 5 1 3-8 49-42 2-17-22 10-12-4-21-5-24-4-26-5-29-4-12-2V589h38l53 54 65-54V568H797V556l9-15 15-22 16-20 17-18 18-18 20-15 21-14 21-11 24-11 29-15-61-49-26 16zM505 427l-5 9-6 10-9 11-10 11-11 13-13 13-14 12V342l-65-32V484l-15-17-22-23-24-22-25-21-27-21-30-19-31-17-6 8 24 25 24 25 22 24 20 25 19 23 17 24 16 23 13 24 12 23H216v21H372v86l-24-3-39-3-42-2-45-1-1 9 43 12 40 10 38 10 35 9 32 8 30 9 27 8 23 7 21 8 14 6 5 1 2-8 50-42 1-17-22 10-11-4-21-5-24-4-26-5-29-4-12-2V589h31l44 49 54-49V568H437V530l10-4 20-8 17-8 17-9 14-9 14-9 13-9 10-10 11-10 3-24-13-21-24-4-21 14-3 8z"/><glyph glyph-name="undefined" unicode="𠠝" horiz-adv-x="1024" vert-adv-y="918" d="M77 831l65-32H565l54 54 64-54V777H142V449l-3-75-4-71-6-65-8-61-10-56-11-51L86 24 71-16 52-51 31-80l-8 5L34-42 43-6l9 39 8 45 6 50 5 54 4 60 2 64 1 69-1 74V831zM746-24V-8H853l7 1 5 1 5 2 2 2 1 5 1 5 1 6V863l64-10 17-11-17-10V14L938 1l-2-14-4-13-7-12-9-11-10-9-13-7-13-4-13-2-14-1v32L746-24zM95 10l11 1 45 1 47 1 6 1V194l65-11 16-11-16-10V16l32 1 56 2 34 2V271l64-10 16-11-16-10V154h95l44 49 53-49V133H455V23l20 1 63 3 66 1 69 2V20L606 8 541-2l-63-9-60-8-58-7-55-7-53-6-50-5-48-5-23-2-10-18-12 16L95 10zM713 783l65-11 16-11-16-9V138l-65-33V783zM610 454l-3 7-5 6-6 7-6 7-8 7-8 8-9 7-1 1V295l-64-32V463l-11-16-16-23-19-21-19-19-21-18-23-16-7 7 15 23 14 22 14 22 12 23 11 22 10 24 9 24 8 24 7 25 1 7H320V522l7-1 13-1 12-2 12-3 11-3 10-4 11-5 10-5 9-6 8-22-9-23-23-8-23 9-2 6-4 7-5 6-5 7-7 7-8 7-8 8-9 7v1V295l-65-32V463l-10-16-17-23-18-21-19-19-22-18-23-16-7 7 15 23 14 22 13 22 13 23 11 22 10 24 9 24 8 24 7 25 2 7H143v21H255v78l-9-1-30-3-31-2-34-2-2 10 32 10 30 11 28 9 26 8 24 9 21 7 20 9 17 7 15 7 8 4v1-1l4 2 5-9 44-40 1-17-21 9-3-2-17-4-18-5-20-4-22-4h-3V594h44l24 32 33-32h79v78l-9-1-30-3-32-2-34-2-1 10 32 10 30 11 28 9 26 8 24 9 21 7 19 9 18 7 15 7 8 4-1 1 1-1 4 2 4-9 44-40 1-17-21 9-3-2-16-4-19-5-20-4-21-4h-4V594h25l33 38 43-38V573H564V522l8-1 13-1 11-2 12-3 12-3 10-4 10-5 10-5 9-6 9-22-9-23-23-8-23 9-3 6z"/><glyph glyph-name="undefined" unicode="𠪺" horiz-adv-x="1024" vert-adv-y="918" d="M125 855l64-32H867l54 54 64-54V802H189V467l-3-78-5-72-8-68-10-62-13-57-16-52-19-47L94-10 70-45 42-74l-7 6L52-34 68 3 82 44 95 90l10 50 8 55 7 60 3 66 2 70V855zM771-34l-9-9-10-8-11-7-11-6-12-5-12-4-13-2-13-2H667v32L560-29v16H675l7 1 7 2 13 4 6 3 6 4 5 4 5 6 6 6 3 6 3 7 2 10 1 12 2 14 1 15v7 43H547l-5-28-15-34-21-30-28-26L444-9 406-27 361-42 313-54l-55-8-60-4-1 10 57 14 51 16L350-9l38 19 32 20 25 21 19 22 12 22 6 24 2 12H331v22H742l32 27 59-49-26-16V98 78l-1-18-3-17-2-16-4-14-4-13-6-12-7-12-9-10zM892 124l-36 13-32 15-29 16-26 17-23 19-18 21-14 21-3 8-6-2v16l-1 1-3 20H464v21H679l26 22 59-48-27-16 2-2 17-14 18-13 22-12 24-10 27-11 30-9 33-8 36-8 47-11-63-58-38 12zM410 297l51-41 7-17-22 1-2-2-19-18-21-16-23-16-26-14-28-13-31-13-32-11-36-10-38-8-3 9 34 18 31 17 29 17 27 17 23 16 21 16 18 17 15 15 12 16 10 16 3 4zm293-2v-1l2 1h-2zM508 462l-4 8-6 10-8 10-10 11-12 11-12 13-15 13V373l-64-33V514l-17-18-22-22-23-22-26-21-27-20-29-20-31-17-6 7 24 27 23 24 22 24 21 25 18 23 18 24 16 23 14 23 11 21H221v22H377v83l-26-2-39-3-41-2-45-1-1 10 42 11 40 11 38 9 35 8 32 8 30 8 26 8 25 8 21 7 14 4 5 2 2-8 52-44 2-16-23 11-15-5-22-4-23-4-26-4-29-3-10-2V617h30l44 48 54-48V595H441V560l11-4 19-7 17-8 16-8 15-8 13-8 13-8 11-10 9-10 5-24-14-20-25-4-20 14-3 7zm394-65-24 18-23 20-20 21-18 24-16 24-3 7V373l-65-33V521l-8-11-19-25-23-23-23-22-25-20-27-18-28-15-31-13-5 8 24 21 22 22 21 22 20 22 18 23 17 24 15 24 14 25 12 26 2 4H6e2v22H733v83l-23-2-39-3-43-2-45-1-1 10 43 11 41 11 38 9 35 8 33 8 30 8 28 8 24 8 21 7 14 4 5 2 3-8 52-44 1-16-22 11-16-5-22-4-23-4-26-4-29-3-14-2V617h37l53 53 65-53V595H798V584l9-13 15-22 16-19 18-18 18-17 19-14 21-14 22-12 23-10 30-15-60-49-27 16z"/><glyph glyph-name="undefined" unicode="𠫌" horiz-adv-x="1024" vert-adv-y="918" d="M130 374l-2-31 2 4 8 22 8 23 8 24 7 23 7 24 6 26 5 25 5 27 1 11H132V449l-2-75zM898-60 853-42 811-20 774 6 753 25 718-2 676-27 630-48 581-64 529-75l-2 10 47 20 44 23L658 3l36 28 28 26-12 14-26 38-22 42-17 45-12 45H574v22H837l33 27 59-49-27-16-11-4-12-30-25-47-28-43-32-39-2-1 14-10 34-19 37-15L917 5l42-8 50-9-63-61-48 13zM93-38v21h68V194l64-11 17-11-17-10V-17h75V287l48-11 12-11-12-9V150h77l33 38 43-38V128H348V-17h68l54 54 65-54V-38H93zM831 241H646l19-36 25-39 26-35 28-30 9-9 3 3 25 37 22 40 20 44 8 25zM939 356l25 70h10l-10-70 14-10 10-14-10-15-14-9H880l-12 1-12 3-12 6-11 7-9 10-7 12-5 12-3 13-1 13V552H689V483v-1l-3-31-7-31-10-29-12-27-15-24-19-22-21-20-23-17-26-14-28-11-5 8 22 20 19 19 17 20 13 20 11 20 9 22 7 23 5 24 2 25V606l64-32H808l32 26 59-48-27-21V385v-6-5-4-3l1-1 1-3 2-2 4-2 6-1 8-2h45zM472 332l-12 22-9 22-9 23-8 25v2V256l-54-26V413l-3-7-16-26-18-25-19-23-22-21-23-19-7 6 15 26 14 25 12 25 12 25 11 26 9 27 7 28 7 28 5 29 2 15H329v21h51v87l-7-1-21-4-21-3-22-4-3 9 20 10 19 10 18 10 17 9 16 9 15 9 15 9 13 8 13 8 8 4-1 1 1-1 4 3 5-11 42-38V679l-20 9-14-5-16-4-16-4-11-3V573h33l25 32 32-32V552H434V540l3-8 10-24 11-23 10-22 11-21 11-20 12-18 13-18 13-16 12-15 2-2-57-42-13 21zM2e2 657h-1l-21-3-23-2-23-4V573h68v84zM797 871l64-10 17-11-17-10V752h29l44 48 54-48V731H861V638l-64-32V731H711V638l-65-32V731H520v21H646V871l65-10 16-11-16-10V752h86V871zM271 433l-1 6-2 7-3 6-3 7-4 6-5 7V256l-53-26V416l-9-17-13-22-15-21-17-19-17-18-2 1V304l-5-66-7-61-7-55-9-50L88 26 75-15 61-49 44-79l-8 4 7 31L50-8l6 40 5 45 5 50 4 55 2 59 1 65 1 69-1 74V828l59-29H440l44 48 53-48V777H132V658l19 8 20 10 20 9 9 5v2h3l5 3 16 8 14 8 13 8 11 8 9 7 3 3v1-1l4 4 15-23 26-28 1-19-22 9-12-4-15-4-15-4h-3V573h11l24 32 32-32V552H253V496l4-1 10-1 10-3 9-3 8-4 9-4 8-5 15-12 4-24-14-21-24-4-20 14-1 5z"/><glyph glyph-name="undefined" unicode="𡤌" horiz-adv-x="1024" vert-adv-y="918" d="M425 827l64-32H843l54 53 64-53V773H489V398l-3-64-6-60-10-56-13-53-17-49-19-46-24-42L371-9 341-41 307-68l-7 7 25 34L347 8l19 38 16 37-12-18-25-4-20 14-16 26-17 25-18 25-21 23-4 4-35-63-41-58L128 8 77-33 23-65l-6 8L65-17l42 44 38 51 34 57 30 63 5 14-6 5-25 21-26 20-28 20-13 9-6-20-16-63-63 18 17 61 16 62 15 61 15 63 14 63 13 63 2 10H20v22H127l7 32 11 64 12 65 10 59 2 16 62-21 14-12-17-8-8-45-11-65-12-65-4-20H295l33 27 59-49-27-16-3-1-10-76-17-93-22-87-27-80-12-28 19-14 25-23 24-24 22-26 21-27 3-23 14 43 11 47 9 50 5 54 3 57V827zM458-40v22h88V187l64-11 17-11-17-10V-18h93V277l64-10 16-11-16-10V144h83l44 48 53-48V123H767V-18H870l53 53 65-53V-40H458zM916 351l-13 21-13 22-11 23-9 23-4 12V284l-65-32V436l-7-12-19-26-20-23-22-22-24-20-27-18-6 8 18 24 17 24 16 25 15 25 12 25 11 26 9 26 8 27 7 28 2 12H742v22h59v82l-9-2-24-3-24-3-26-3-2 9 23 10 22 11 22 10 20 9 20 9 19 8 17 8 17 8 16 8 9 5 5 2 4-10 46-40 1-17-21 9-7-2-17-4-18-4-18-5-10-2V587h29l33 37 43-37V565H866V550l1-3 11-23 11-22 12-20 13-20 12-19 13-17 14-17 15-15 15-14 6-7-58-42-15 20zM680 448l-2 7-3 6-4 6-5 7-5 7-7 7-1 1V284l-64-32V438l-13-21-16-21-16-20-19-18-19-17-8 6 12 22 11 22 10 23 9 22 10 23 8 24 7 23 6 25 6 26 1 8H502v22h87v79l-25-3-27-2-28-3-2 9 27 10 24 10 22 9 9 4v1h3l9 4 20 8 17 8 16 8 13 8 12 7 5 3-1 1 1-1 4 3 8-14 37-36V683l-20 8-9-3-16-4-17-4-18-4V587h22l25 32 32-32V565H653V513l3-1 11-1 10-2 10-3 20-8 8-4 9-5 8-6 7-24-12-21-24-7-22 12-1 5zM294 605H189l-5-23-13-64-29-127-15-63-7-26 18-6 33-13 31-15 27-16 6 17 21 77 17 84 14 91 7 84z"/><glyph glyph-name="undefined" unicode="𡫯" horiz-adv-x="1024" vert-adv-y="918" d="M146 634l-1-2-11-19-13-16-17-15-24-4-20 15-3 24 14 20 10 5 10 7 10 10 9 12 8 16 8 18 7 21 6 23 5 27 4 29h9l4-29 2-19H485V884l65-10 16-11-16-10V757H886l4 4 1 2h1l26 21 60-48-27-16-22-9-1-2-11-11-24-24-13-12-14-13-15-14-16-12h15l24 32 33-32V601H210V348l-2-60-6-56-7-51-9-49-12-44-14-40-17-36-19-31-22-27L78-67l-7 7L86-33 99-5l12 31 10 35 9 38 7 42 5 46 3 50 1 53v58V634zM180-30V-9H311V134l64-10 17-11-17-10V-9H525V216l64-11 17-11-17-10V117H743l53 53 65-53V95H589V-9H773l53 54L891-9V-30H180zM464 338l-5 6-5 5-7 6-7 6-8 7-10 6-10 7-3 2V226l-65-32V353l-17-18-17-17-19-15-20-15-22-13-23-12-6 8 18 18 15 19 15 18 13 18 12 18 11 18 10 19 8 19 6 16H223v22H344v53H332l-31-2-34-1H231l-1 10 34 10 32 8 31 8 27 8 26 7 23 6 21 7 19 6 16 6 9 4 5 2 2-8 52-43 1-17-23 10-13-4-17-3-19-3-21-3-22-2h-4V456h11l44 48 54-48V434H409V399h21l13-1 11-1 11-1 11-2 20-6 10-4 12-21-6-24-22-12-23 6-3 5zm359-76-22 16-21 19-19 20-16 21-14 23-8 16V226l-65-32V357l-13-15-21-21-22-19-24-18-25-15-27-14-29-11-4 9 22 20 21 19 20 20 18 20 16 20 16 21 14 22 12 22 12 24 1 2H545v21H658v50l-3-1-30-1-31-1H563l-33 2-1 10 31 9 30 8 30 7 29 7 28 7 27 7 26 7 26 7 24 7 19 6 5 2 2-7 54-45 1-17-23 11-18-5-26-4-26-4-27-4-5-1-13-8V464h45l54 54 64-54V443H723l14-20 14-19 15-18 16-16 18-15 17-13 20-12 20-11 22-9 29-14-61-50-24 16zM164 736V721l-1-24-4-24-6-21v-1l57-28H817l6 8 10 19 10 17 9 17 8 15 8 15 7 13 4 9H164z"/><glyph glyph-name="undefined" unicode="𡮰" horiz-adv-x="1024" vert-adv-y="918" d="M125 783l64-33H544V874l65-11 16-10-16-10V750H856l54 54 64-54V729H189V390l-3-63-6-59-8-57-12-53-15-49-17-46-21-43L84-18 56-52 26-80l-7 6L40-39 58-3 75 35 89 77l12 44 10 48 7 50 5 54 2 57V783zM413-28v16H520h7l4 1 4 1 1 1 1 1h1l1 3 1 3 1 5 1 6V289l64-11 16-10-16-10V9L605-4l-2-14-4-13-7-12-9-11-11-9-12-6-13-5-13-2-14-1v32L413-28zm-5 258 54-37 9-17-21-1-5-6-18-24-21-24-23-22-25-22-27-21-30-19-31-19L236 0 199-17l-5 9 30 25 29 24 27 24 24 23 23 23 20 23 18 22 15 23 14 23 9 17 1 4 1 1 3 6zM871 30 860 47 847 65 832 83l-18 19-20 19-22 20-25 21-27 22-29 22 5 9 34-14 33-14 29-17 27-16 25-17 22-18 21-18 19-18 16-20 14-19 2-25L923 0 899-2 879 13l-8 17zM508 385l-5 9-6 9-8 10-10 12-12 12-13 12-15 13V294l-65-33V439l-16-19-23-23-24-22-25-22-28-20-29-20-32-18-6 8 25 26 23 25 22 25 21 24 19 24 18 25 16 23 14 24 12 21H217v22H374v86l-27-3-39-2-42-3-44-1-1 10 43 11 40 11 38 9 35 9 33 8 30 8 27 8 25 7 22 7 13 6 5 1 3-8 52-43 1-16-22 10-16-5-21-4-24-4-26-4-29-3-11-2V542h12l53 54 65-54V520H439V485l12-4 19-7 17-8 16-9 15-8 14-9 12-8 11-10 10-10 4-24-14-21-24-4-21 14-2 8zm398-66-25 19-23 20-20 22-18 23-16 25-4 8V294l-64-33V446l-9-12-20-25-22-24-25-22-25-21-27-18-29-16-30-13-5 8 24 22 22 22 21 22 20 22 19 23 17 25 15 25 14 25 13 27 1 4H601v22H736v86l-25-3-40-2-42-3-46-1-1 10 44 12 41 10 39 9 36 9 33 8 30 8 27 8 25 7 22 7 14 6 5 1 2-8 52-43 2-16-22 10-16-5-22-4-23-4-27-4-29-3-15-2V542h39l54 54 64-54V520H8e2V509l9-13 15-22 17-20 17-19 19-17 20-15 21-14 22-12 24-11 30-14-62-49-26 16z"/><glyph glyph-name="undefined" unicode="𡳸" horiz-adv-x="1024" vert-adv-y="918" d="M386 537l55-34 10-17-20-2-8-14-19-31-19-30-21-30-19-24 23-3 16-11-16-10V-41L303-73V305l-10-11-26-27-28-25-29-24-7 7 21 31 41 60 20 30 19 30 18 30 16 31 16 31 15 31 12 27 2 5 3 6zM152 847l64-32H840l32 27 59-49-27-21V691l-64-32v32H216V471l-3-68-6-65-8-62-12-59-15-55-17-52-21-48-23-45L84-23 53-59l-8 6L66-12 85 30l17 45 14 48 12 50 10 53 7 57 5 59 2 63V847zM490-40v21h71V125l65-10 16-11-16-10V-19h72V207l65-11 16-11-16-9V108h64l44 48 53-48V86H763V-19h62l54 54 64-54V-40H490zm26 321-1-17 9 16 8 17 15 35 7 18 6 18 5 19 5 19 3 19 1 2H518V340l-2-59zM374 674l50-41 7-17-20 1-2-2-16-18-17-18-18-17-19-18-19-17-21-17-21-16-23-16-24-15-7 7 18 22 17 21 16 21 16 20 16 21 14 19 14 19 13 20 12 19 9 14 1 2 2 2 2 4zM840 793H216V713H840v80zM963 287l-59-45-16 16-14 17-13 19-10 20-3 6V217l-65-32V321l-2-3-15-20-16-18-18-17-18-14-20-12-6 7 13 18 11 19 11 19 10 20 10 20 9 21 8 22 7 22 7 23 2 8H723v21h60v51h-8l-20-1H735l-21-1-1 6-20 8-10-2-12-3-14-3-12-1V449h4l24 32 33-32V427H645V390h8l8-1 9-1 8-1 8-3 7-2 8-4 7-4 7-23-11-23-24-7-22 12v4 4l-2 5-2 5-3 5-4 6-2 3V216l-59-29V322l-6-8-14-16-14-15-31-27-6 6-2-37-5-52-7-48-8-44-10-40L472 5 459-26 444-54 426-76l-8 4 9 26 7 28 6 32 6 35 6 39 4 43 2 46 2 50v55l-1 58V646l59-29H856l44 48 53-48V595H518V449h68v55l-18-1-22-1-23-2-1 10 21 6 20 9 18 8 5 2v2h5l8 3 15 7 14 7 12 7 11 6 9 6 3 2v1l4 2 6-12 40-37V516l19 6 19 8 18 8 34 14 17 7 16 7 15 8 14 7 10 5-1 1 1-1 4 3 4-10 45-40 1-17-21 9-5-3-17-4-17-4-8-1 3-2-16-10V457h35l25 33 32-33V436H848V417l2-4 10-20 12-19 11-16 12-16 13-13 12-12 13-10 14-9 16-11z"/><glyph glyph-name="undefined" unicode="𡿌" horiz-adv-x="1024" vert-adv-y="918" d="M911-15 885 4 861 24 840 45 821 67 804 90l-14 23-7 14V-55L719-87V112l-10-11-23-23-26-20-27-20-29-18L574 4 542-10 508-22l-5 9L532 8l27 20 26 21 23 21 22 21 20 22 19 24 17 23 14 23H590v22H719v98l64-11 17-11-17-10V205h64l54 54 64-54V183H783v-3l7-9 16-18 15-18 17-17 19-16 19-16 22-15 23-15 25-14 27-13 27-14-61-48-28 18zM510 67l-10 9-11 8-12 8-12 8-13 8-14 8-14 8-2 1V-55L358-87V89L345 76 323 56 301 38 277 21 251 5 224-8 196-19l-5 8L213 9l21 20 20 19 19 20 18 20 17 21 15 22 14 22 13 22 3 6H207v22H358v98l64-11 16-11-16-10V203h28l54 53 64-53V181H422V145h9l16-2 17-2 16-3 15-4 16-4 14-5 15-6 14-6 14-20-4-24-20-14-24 4-10 8zM117 368l64-33H495v81l59-11 15-10-15-10V335H893l33 38 43-38V314H181V169l-3-37-5-34-8-32-11-29-12-27-16-25-18-20L88-53 65-67 40-77l-5 8L53-51 68-33 81-13 92 7l8 21 7 25 6 25 3 28 1 31v32V368zM361 680l65-11 16-10-16-10V387l-65-32v71H60v22H361v66H136v21H361v63H98v21H361v61zm240 0 59-11 14-10-14-10V619H844l44 49 54-49V598H660V535H796l44 49 54-49V514H660V448H882l44 48 54-48V426H660V385l-59-29V680zm-394 6-64-32V823l64-11 16-10-16-10V707H480V867l64-11 16-10-16-10V707H811V823l64-11 17-10-17-10V686l-64-32v32H207z"/><glyph glyph-name="undefined" unicode="𢊆" horiz-adv-x="1024" vert-adv-y="918" d="M897 86l-22 31-22 33-18 34-18 36-15 36-13 39-10 40-3 14V-38L712-70V275l-21-40-25-41-28-40-31-37-35-35-37-32-41-29-6 7 33 37 30 37 28 37 25 38 23 40 19 41 18 41 14 43 12 44 5 28H593v22H712V582l-2-1-36-7-38-7-40-6-42-6-2 10 38 16 38 14 36 13 35 12 33 13 32 12 30 11 28 11 27 11 21 9 4 2 3-9 48-41 1-17-21 9-9-3-27-8-29-8-30-7-32-8-2-1V436h76l54 54 64-54V414H779l14-32 16-37 17-36 17-34 19-32 20-31 21-29 22-27 24-26 24-24 7-7-57-43-26 30zM511 231l-7 11-8 10-9 10-10 11-12 10-12 10-13 11-12 9V-38L364-70V281l-12-26-20-37-22-35-23-34-26-32-27-29-31-27-7 6 22 34 20 33 19 34 18 35 16 35 15 37 14 38 11 39 10 39 5 23H2e2V390l-3-62-5-58-8-55-12-52-13-48-16-45-20-42L101-9 76-41 48-69l-7 6L59-30 76 5 91 43l13 40 11 43 8 47 7 49 4 53 2 56V783l64-33H501V874l65-11 16-10-16-10V750H856l54 54 64-54V729H2e2V436H364V576l-24-5-40-6-43-5-46-5-2 10 43 15 41 14 38 12 36 12 33 12 29 11 27 11 24 10 21 11 13 7 5 3 7-14 39-36 1-17-21 8-20-8-24-7-27-9-30-7-16-4V436h31l54 54 65-54V414H428V328l3-1 18-3 17-5 17-6 16-7 15-7 15-8 13-9 14-9 11-11 7-23-11-22-24-7-21 11-7 10z"/><glyph glyph-name="undefined" unicode="𢍷" horiz-adv-x="1024" vert-adv-y="918" d="M481 70h3l-3-8H688v80l64-10 16-11-16-10V62H860l54 54 65-54V40H752V-48L688-80V40H474L464 19 447-3 429-22 406-38 381-51 354-61l-30-8-33-4-36-3-2 10 33 11 29 12 26 13 21 13L380-2l14 15 11 15 6 12H184V62H417l3 14v66l64-10 16-11-16-10V75l-3-5zM125 658l-31-3-16-1-11-17-11 15-13 64 10 1H91h39V823l65-11 16-10-16-10V717l22 1h46l23 1V873l65-11 16-11-16-10V8e2h79l34 38 43-38V778H351V720h11H470l58-2v-9l-56-10-55-8-52-7-51-6-48-5-46-5-45-5-41-4-9-1 64-32H909l33 38 43-38V605H895l61-50 3-16-25 13-28-4 58-48V478H797v-4l6-5 14-11 15-10 17-9 17-9 20-8 20-7 22-6 24-6 42-13-62-55-26 11-25 12-22 13-20 14-18 16-16 16-8 10V363l-65-32v96l-8-8-20-15-22-14-23-13-24-12-27-10-28-9-29-7-4 9 26 15 23 16 21 16 20 15 19 16 16 15 15 16 13 17 3 4H593v22H732v40H711l-38-1H632l-45 2v9l43 10 40 8 38 7 35 6 32 6 30 5 26 6 25 5 10 2H513l60-50 2-16-24 13-29-5h-8l52-47V478H442V465l9-2 17-2 17-4 15-3 13-3 12-4 11-3 11-5 10-6 8-23-10-22-23-9-23 10v3l-3 5-5 7-8 6-9 8-12 8-13 8-15 10-2 1V363l-64-32v90l-1-1-21-15-22-13-24-13-24-12-27-11-28-9-29-8-4 9 25 16 23 17 22 16 21 15 19 16 17 16 16 16 14 16 2 2H222v22H378v41l-30-1-36-1H274l-42 2v9l40 10 37 8 35 7 32 6 56 11 25 6 21 4 10 3H189V347l-3-60-5-57-8-53-10-49-14-45-15-41L115 6 93-26 69-53 42-74l-7 7L53-40 69-10 83 22 95 57l11 39 8 42 6 47 3 50 2 54V658zM297 355l65-32H796l32 26 59-48-27-21V148l-64-32v43H362V143l-65-32V355zM796 232H362V181H796v51zm0 69H362V254H796v47zm96 246-8-1-21-1-25-1-28-1-13-1V5e2h48l47 47zm-382 0-5-1-19-1-23-1-21-1V5e2h26l42 47zM456 664v21h90V803l65-11 16-10-16-10V685h97V870l64-10 16-11-16-10V789h99l44 49 54-49V768H772V685H915l34 38 43-38V664H456z"/><glyph glyph-name="undefined" unicode="𢔸" horiz-adv-x="1024" vert-adv-y="918" d="M327 660l53-38 8-17H368l-15-23-28-40-30-38-31-36-33-36-9-9 38-6 16-11-16-9V-40L195-72V397l-34-31-37-31-39-29-41-27-6 8 34 34 32 35 32 35 31 35 30 36 28 37 27 38 26 38 24 39 20 36 5 10zM796 197l65-54V121H705V-34L640-67V121H517v22H743l53 54zM574 380H472V170l22 15 19 18 16 17 13 19 11 21 9 22 6 23 4 27 2 28v20zM823 256l27 91h10l-10-91 16-11 10-16-10-16-16-11H793l-14 1-13 1-12 4-12 6-11 8-8 10-7 12-5 12-3 13-1 14v97H637l-2-25-6-34-9-31-12-28-16-25-18-23-21-19-24-15-26-12-28-8-3 7V-40L408-72V433l64-32H895l32 27 59-48-27-22V14 1l-2-14-5-13-7-12-8-11-11-9-12-7-13-4-14-2-14-1v32L809-24V-8h64l7 1 5 1 5 2 1 1 1 1 1 1 1 4 1 5V380H771V271l1-3 1-2v-3l1-1 2-2 4-1 6-2 7-1h30zM478 711l65-33H825l32 27 59-48-27-22V490l-64-33v44H543V484l-65-32V711zm347-54H543V522H825V657zM287 864l53-38 8-17H328l-12-18-25-34-26-32-27-31-28-31-29-28-29-27-31-26-32-23-33-21-6 7 25 29 26 29 26 30 25 29 24 32 23 31 23 32 22 33 21 35 17 30 5 9zm631-11 64-54V777H407v22H864l54 54z"/><glyph glyph-name="undefined" unicode="𢖙" horiz-adv-x="1024" vert-adv-y="918" d="M292 659l54-35 10-18-20-1-14-22-25-39-27-39-28-36-29-36-10-10 36-6 16-11-16-9V-40L174-72V391l-24-24-34-32-36-29-37-26-6 7 29 34 29 34 28 35 28 35 26 36 24 37 24 37 23 39 21 39 18 36 5 10zm95 168 64-32H843l53 53 65-53V773H451V398l-4-64-6-60-11-57-14-52-17-50-21-46-25-41L325-9 293-41 257-68l-6 7 27 34L302 8l21 38 18 41 15 43 12 47 10 50 6 54 3 57V827zM420-40v22h96V187l65-11 16-11-16-10V-18H685V277l65-10 16-11-16-10V144h98l44 48 54-48V123H750V-18H871l53 53 65-53V-40H420zM915 350l-15 21-13 22-13 23-10 23-9 25V284l-65-32V441l-11-18-20-25-21-24-24-22-26-20-28-17-6 8 20 24 19 25 17 25 16 24 13 26 13 26 10 26 9 27 7 28 1 11H724v22h66v82l-12-2-25-4-26-2-28-3-2 9 25 11 24 10 24 10 22 9 21 9 20 8 19 8 18 8 17 8 11 5v1l1-1 4 2 3-8 48-42 2-16-22 9-10-3-17-5-20-3-20-5-12-2V587h18l44 48 54-48V565H855V554l3-6 12-23 12-22 12-21 13-20 14-18 14-18 15-16 15-15 16-15 8-7-58-43-16 20zM661 447l-3 7-4 6-4 7-5 7-6 7-7 7-4 4V284l-65-32V445l-3-6-15-22-16-22-18-20-19-18-21-16-8 6 13 23 12 22 11 22 11 23 10 23 9 23 7 24 7 25 6 25 1 8H467v22h96v79l-4-1-26-3-29-2-30-2-2 9 29 10 26 10 25 10 22 8 21 8 19 8 17 9 15 7 13 7 6 4 5 3 6-13 39-37 1-17-20 8-14-4-16-4-18-4-20-4V587h10l33 37 43-37V565H628V513h4l11-2 11-2 11-3 10-3 10-4 18-10 9-6 8-23-12-22-23-7-22 11-2 5zM257 863l53-36 10-17-21-1-10-17-23-33-23-33-24-31-25-31-26-28-27-27-27-26-30-24-30-21-6 7 45 58 22 29 22 30 21 30 20 32 20 32 19 33 19 34 16 31 5 9z"/><glyph glyph-name="undefined" unicode="𢤩" horiz-adv-x="1024" vert-adv-y="918" d="M159 863l65-10 16-11-16-10V-45L159-77V863zm225-36 65-32H838l54 53 64-53V773H449V398l-4-64-7-60-10-57-14-52-17-50-22-45-24-42L323-9 291-41 255-68l-6 7 27 34L3e2 8l21 38 18 41 15 43 12 47 9 50 6 54 3 57V827zM417-40v22h97V187l64-11 16-11-16-10V-18H681V277l65-10 16-11-16-10V144h97l44 48 54-48V123H746V-18H866l54 53 64-53V-40H417zM657 448l-3 6-3 6-5 7-5 7-6 7-7 7-4 4V284l-64-32V444l-3-5-15-22-17-22-17-20-20-18-20-16-8 6 13 22 12 23 11 22 11 23 10 23 8 23 9 24 6 25 6 25 1 8H464v22h96v79l-4-1-26-3-29-2-29-2-2 9 28 10 26 10 25 10 22 8 21 8 19 8 17 9 15 7 12 7 6 4 5 3 6-13 39-37 1-17-20 8-13-4-16-4-19-4-19-4h-1V587h29l25 32 32-32V565H624V513h4l12-2 21-5 11-3 9-4 10-5 9-5 8-6 8-23-12-22-23-7-22 11-2 6zm253-98-15 21-13 22-12 23-11 23-8 23V284l-65-32V441l-12-18-19-25-21-24-24-22-25-19-28-18-6 8 20 24 18 25 18 25 15 24 14 26 11 26 11 26 8 27 7 28 2 11H721v22h65v82l-12-2-25-4-26-2-28-3-2 9 25 11 24 10 23 10 22 9 21 9 21 8 18 8 18 8 17 8 11 5v1l1-1 4 2 3-8 48-42 2-16-22 9-9-3-18-5-19-3-20-5-12-2V587h17l44 48 54-48V565H851V554l3-6 12-23 12-22 12-21 13-20 13-18 14-18 15-16 15-15 16-15 8-7-58-43-16 20zM71 389l-24 4-13 20 3 25 8 8 7 11 8 14 7 17 7 18 8 21 7 24 7 25 8 27 7 30 10-1V602l1-29-1-28-2-25-3-24-3-21-4-21-5-18-5-17-7-16-21-14zM294 504l-3 14-3 15-4 15-5 15-6 17-7 16-8 16-8 18-10 17 8 6 14-14 15-13 14-14 12-14 12-15 10-15 10-15 9-15 7-17 7-16-4-24-19-15-25 4-15 20-1 14z"/><glyph glyph-name="undefined" unicode="𣀥" horiz-adv-x="1024" vert-adv-y="918" d="M145 374V361l10 18 12 23 12 22 10 22 11 23 8 23 8 24 7 24 6 25 2 8H148V449l-3-75zM893-27 854 5 818 43 789 83 758 46 715 4 667-30 617-57 563-76l-4 9 48 28L651-7l39 37 38 42 33 48 3 5-5 7-24 51-21 56-17 60-12 64-8 65H642v21H749V863l64-10 16-11-16-10V670h70l44 48 54-48V648H813V449h68l32 27 59-48-27-16-7-3-16-57-25-74-29-68-33-61-13-19 9-12 32-35 32-30 36-25L968 8 996-6 935-55 893-27zM101 10l11 1 40 1 43 1 3 1V194l65-11 16-11-16-10V16l25 1 50 2 28 2V271l64-10 16-11-16-10V154h72l44 49 54-49V133H430V24h15l56 3 60 1 62 2 1-10L563 8 504-2l-56-9-54-8-52-7-50-7-47-6-45-5-43-5-19-2-10-18-12 16-15 63zM688 428l19-59 21-61 23-55 24-50 17-28 26 57 25 65 21 72 13 59H688zM464 594v78l-5-1-27-2-28-2-31-3-2 10 29 10 27 10 25 9 23 9 21 8 20 8 17 7 15 8 13 7 6 4v1-1l5 3 5-12 41-38 1-17-20 8-15-4-17-4-18-5-20-3-1-1V594h12l33 38 43-38V573H528V521h5l11-2 12-2 10-3 11-3 10-4 18-9 9-6 7-23-11-22-23-8-22 11-2 6-3 6-3 6-5 7-6 7-6 7-7 7-5 4V295l-64-32V454l-4-6-15-23-17-21-18-20-19-17-21-16-7 6 12 22 12 23 12 22 11 22 10 23 9 23 8 24 7 24 6 25 1 8H308V521h5l11-2 11-2 11-3 10-3 10-4 19-9 9-6 7-23-11-22-23-8-22 11-2 6-3 6-4 6-5 7-5 7-6 7-7 7-5 4V295l-65-32V454l-4-6-15-23-16-21-19-20-19-17-21-16-5 4-3-51-5-66-8-61-8-56-11-51L96 25 82-16 65-51 45-80l-8 5 9 32L54-7l8 40 6 45 6 49 5 55 3 59 2 65v69l-1 74V831l65-32H515l53 54 65-54V777H148V594h95v78l-4-1-27-2-28-2-31-3-2 10 29 10 27 10 24 9 23 9 22 8 19 8 18 7 15 8 13 7 6 4-1 1 1-1 4 3 6-12 40-38 2-17-20 8-15-4-17-4-18-5-20-3-1-1V594h11l34 38 43-38h68z"/><glyph glyph-name="undefined" unicode="𣌜" horiz-adv-x="1024" vert-adv-y="918" d="M481 827l64-32H846l54 53 65-53V773H545V398l-3-63-6-60-8-57-12-52-15-50-19-45-21-41L437-8 410-40 379-68l-7 7 22 33L413 8l12 26-29-9-35-11L326 4 291-5 221-22 103-49 94-68 81-54 59 8 70 9l35 5 36 4 35 5 35 4 7 1V165H112v21H218V315H145l-5-13-12-29-13-29-15-27-15-25-18-24-18-22-8 5 9 27 9 26 9 28 9 28 8 28 8 30 7 30 6 32 6 32 4 28 1 5 2 10 61-22 14-14-19-7-3-14-10-32-9-29h65V476l64-10 17-11-17-10V337h18l53 53 65-53V315H282V186h26l44 48 54-48V165H282V35l38 4 36 3 37 3 37 1V45l15 40 12 44 10 47 7 50 5 54 2 58v60V827zM514-40v22h75V187l65-11 16-11-16-10V-18h76V277l64-10 16-11-16-10V144h82l33 38 43-38V123H794V-18h76l54 53 64-53V-40H514zM921 353l-12 20-11 22-10 23-6 16V284l-64-32V426l-1-2-17-25-18-24-20-22-23-20-24-17-6 6 15 25 15 24 14 24 12 25 11 25 10 26 8 26 7 28 6 28 1 12H768v22h50v82l-4-1-22-4-22-2-23-4-3 9 21 10 20 10 19 10 14 7h1l3 2 17 9 17 8 15 8 15 8 14 8 8 5-1 1 1-1 4 2 4-9 44-40 1-17-21 8-3-1-15-4-16-4-17-4-7-2V587h15l33 37 43-37V565H882V544l10-20 10-22 11-21 11-20 12-19 13-18 12-16 13-16 14-14 4-4-58-42-13 21zM709 450l-1 6-2 6-4 6-3 7-5 7-1 2V284l-65-32V429l-6-11-14-21-16-21-17-18-18-17-8 6 10 22 19 44 8 22 7 23 7 24 7 24 5 25 5 25 1 9H553v22h75v79l-19-3-24-2-25-3-3 9 24 9 22 10 20 9 5 3v3h7l7 3 16 8 16 8 13 8 12 7 10 8 4 3-1 1 1-1 4 3 10-17 32-33 1-18-21 9-3-1-14-5-15-3-14-4V587h10l24 32 32-32V565H693V512l9-2 10-2 18-6 9-4 8-5 8-5 8-6 5-24-13-21-24-5-21 13-1 5zM88 847l64-32H348l32 27 59-49-26-21V460l-65-32v64H152L88 460V847zM348 643H152V514H348V643zm0 150H152V664H348V793z"/><glyph glyph-name="undefined" unicode="𣙽" horiz-adv-x="1024" vert-adv-y="918" d="M382 831l65-32H856l53 54 65-54V777H447V469h90V617l-25-7-28-6-29-7-3 9 26 14 24 14 23 13 12 7v5h7l2 1 19 11 17 12 16 11 13 11 12 10 6 6 2 3 1 1h1l41-50 2-19-21 8-12-7-18-8-19-9-5-1V469h24l25 33 32-33V448H601V349l5-2 12-5 23-14 20-17 10-10 9-11 8-11 1-25-15-18-25-1-19 16-2 10-7 21-4 9-5 11-6 9-5 9V-34L537-66V239l-13-34-16-36-17-34-19-32-21-30-8 4 11 34 11 35 10 36 10 36 9 38 9 39 7 40 7 41 6 43 3 29H447v1l-3-75-4-71-5-65-8-61-10-56-11-51-13-45-16-41-18-35-20-29-8 5 10 33 9 35 8 40 8 45 6 50 5 54 4 60 1 64 2 69-2 74V831zM294 364l-5 12-7 13-7 12-8 11-8 12-9 12-11 12-1 2V-40L173-72V401l-16-46-18-46-20-45-21-43-25-41-25-39-9 5 16 43 16 44 15 45 14 45 14 46 11 48 11 48 10 49 8 50 5 36H43v21H173V863l65-10 16-11-16-10V621h20l44 49 54-49V6e2H238V471l14-5 15-7 15-8 14-10 13-9 13-12 12-11 11-13 11-13 2-25-15-19-25-2-19 15-5 12zM909 106l-16 34-15 35-13 39-12 41-2 8V-34L787-66V250l-13-33-18-43-19-41-21-37-23-34-26-31-8 5 16 36 15 37 14 39 14 41 13 42 12 45 11 47 10 50 9 51 6 42H703v22h84V629l-16-4-26-6-26-5-27-3-3 9 24 12 23 13 23 11 22 12 21 12 20 12 39 26 18 14 14 10 4 4 24-36 15-16V675l-19 8-5-3-22-11-23-10-12-5 12-8-16-10V488h26l44 48 53-48V466H851V438l9-34 13-48 14-45 14-41 15-37 16-34 17-30 17-27 19-23v-1L928 76l-19 30z"/><glyph glyph-name="undefined" unicode="𣦯" horiz-adv-x="1024" vert-adv-y="918" d="M129-59v21H291V99l65-11 16-11-16-9V-38H545V160l64-11 16-10-16-10V72H802l54 54 64-54V51H609V-38H866l54 54 65-54V-59H129zm-4 925 64-32H867l54 54 64-54V812H189V562l-3-59-5-55-8-51-10-48-14-44-15-39-19-36-22-31-24-25-27-21-7 7 18 27 16 28 14 31 12 35 11 37 8 42 6 44 3 49 2 53V866zM921 195l-7 8-7 10-3 3-12-3-35-6-35-5-33-5-32-5-32-3-30-4-30-3-28-3h-6l-10-18-12 15-13 64 11 1 27-1h29l20-1 3 7 16 30 8 14 8 15 7 14 7 14 8 15 4 9 3 4v1l3 4 50-40 8-18-23 1-7-8-11-12-12-12-25-23-13-12-4-3h10l31-1h33l33-1 34-2 33-1-9 9-13 11-13 11-14 12-16 10 4 9 18-7 19-5 17-6 16-5 15-7 14-7 13-6 13-8 12-7 10-8 8-24-10-22-24-8-22 11-4 8zM870 347l-14 10-15 10-17 10-5 3-41-4-68-7-65-5-63-5-61-4-59-4-57-4-34-2 25-19 7-18-23 1-6-8-36-35-13-12-12-12-5-3 34-1h33l35-1 36-2 36-1-9 9-12 11-14 11-13 12-17 10 4 9 18-7 19-5 17-6 16-5 15-7 15-7 13-6 12-8 12-7 10-8 9-24-11-22-23-8-22 11-5 8-6 8-8 10-3 3-14-3-37-6-35-5-35-5-34-5-33-3-32-4-30-3-30-3-6-1-11-17-11 15-14 64 11 1 28-1h30l31-1h2l3 7 8 15 7 15 9 14 15 29 7 14 5 9-36-2-28-2-11-17-12 16-12 64 11 1 50-1h54 54 11l8 6 17 13 17 13 16 13 15 11 14 12 13 11 12 10 7 7h-1 1l4 4 33-47 5-6 1-19-21 9-26-13-18-8-18-8-19-8-1-1h47 61l63-1 66-1 67-2h15l-6 3-21 10-23 11-25 12-26 12 3 9 28-4 28-4 25-5 25-6 23-6 22-7 20-7 19-8 18-8 17-9 12-21-5-24-21-13-24 6-11 10zm36 154-25 14-22 16-21 16-18 19-16 19-6 10V495l-65-32V599l-10-11-20-19-22-16-23-16-25-14-26-13-29-11-29-9-4 9 24 18 23 17 21 18 20 17 18 18 17 18 15 19 14 19 8 13H6e2v22H733v56l-24-2-39-1H628 583l-1 10 10 2-21 10-22-5-21-2-24-3-26-2-28-2-9-1V678h30l44 48 54-48V656H441V635l10-2 19-5 16-5 16-5 14-5 13-5 11-6 11-6 10-7 7-23-11-22-23-7-22 10-2 5-4 7-6 7-8 8-10 9-11 9-14 11-14 10-2 1V495l-64-32V593l-19-15-22-17-23-15-26-15-27-15-28-13-31-12-5 8 25 21 24 20 22 19 21 19 19 18 17 18 16 19 14 17 4 6H221v22H377v56l-27-2-39-1H270 226l-1 10 43 10 40 9 37 7 36 8 32 7 30 6 27 6 24 6 22 6 14 4 5 1 1-6 57-47 2-14 30 7 41 9 39 7 35 8 33 7 30 6 28 6 25 6 22 6 13 4 5 1 2-6 56-47 2-16-24 11-22-5-21-2-24-3-26-2-28-2-13-1V678h37l53 54 65-54V656H798v-6l6-7 16-15 16-14 16-12 19-12 19-10 20-10 22-8 24-7 38-14-62-53-26 13z"/><glyph glyph-name="undefined" unicode="𣫧" horiz-adv-x="1024" vert-adv-y="918" d="M146 306v-5l6 9 11 20 10 19 9 19 9 19 8 20 7 20 5 21 5 21 1 3H149V370l-3-64zM875-33 828-8 785 23 747 58l-4 5-39-37-47-36-51-29-55-22-59-15-3 9 54 25 49 28 44 33 41 37 36 41 1 2-28 44-23 50-18 54-13 58-6 58H580v22H838l32 27 59-49-27-16-8-3-15-48-26-66-31-60-35-54-9-11 8-8 35-27 38-23 41-17 45-14L989 4 926-52 875-33zM103 3l11 1 36 1h37V154l65-11 16-11-16-9V7l20 1 44 2h22V220l64-11 16-11-16-9V121h73l34 38 43-38V1e2H402V13h10l51 2 53 1h56l1-10L518-5 466-15l-51-7-48-8-47-6-45-6-42-5-40-5-39-4-14-2-10-18-12 16L103 3zM834 363H638l16-52 21-53 24-49 25-42 20-26 2 3 29 52 25 57 21 61 13 49zM621 831l65-32H795l33 27 59-49-27-21V546l-1-6 1-5v-4l1-2 1-2 1-2 2-1 3-2 6-2 7-1h43l27 92h11l-11-92 16-10 11-17-11-16-16-10H881 868l-13 2-12 3-12 6-11 8-9 10-7 12-5 12-3 14-1 13V777H686V675l-3-29-4-28-6-28-8-27-9-26-12-25-13-24-15-22-17-21-19-20-8 6 10 24 10 24 8 24 7 24 6 24 4 24 3 24 2 25v25l-1 26V831zM426 494v61l-25-2H375l-27-2-2 9 26 8-17 8-2-1-14-4-15-3-16-3-15-2V494h19l24 32 32-32h58zM371 756H261V691l-48-24H371v89zM516 372l-2 5-3 6-3 5-5 7-6 6-5 6-2 1V241l-64-32V365l-13-18-16-17-16-17-18-14-18-14-7 7 12 18 11 20 10 19 9 19 9 19 7 20 7 20 6 21 5 21 1 3H293V431h1l10-1 10-1 10-2 9-2 9-2 8-4 9-3 8-5 8-23-10-22-23-8-23 9-1 5-2 5-6 11-5 7-5 6-6 6-1 1V241l-65-32V365l-13-18-15-17-17-17-18-14-18-14-2 2-2-41-6-56-6-51-9-48-9-43-12-38L88-25 72-54 55-78l-9 5 7 27 7 30 7 34 6 38 4 42 4 46 3 50 1 54v59l-1 63V699l65-32h47v89H45v22H196v91l65-10 16-11-16-10V778H371v91l64-10 16-11-16-10V778h33l54 54 64-54V756H435V691l-48-24h96l44 48 54-48V645H149V494h79v61l-25-2H178l-28-2-1 9 25 8 25 9 22 8 7 3v1h2l12 5 18 7 18 7 15 7 13 6 12 7 5 3-1 1 1-1 4 3 5-11 42-39 1-15 21 8 22 8 8 3v1h2l11 5 19 7 17 7 15 7 14 6 12 7 4 3v1l1-1 4 3 5-11 42-39 1-17-20 9-2-1-14-4-15-3-16-3-16-2V494h20l24 32 32-32V472H490V431h2l10-1 10-1 10-2 9-2 8-2 9-4 9-3 8-5 8-23-10-22-24-8-22 9-1 5z"/><glyph glyph-name="undefined" unicode="𤁋" horiz-adv-x="1024" vert-adv-y="918" d="M323 831l64-32H866l54 54 64-54V777H387V449l-2-75-5-71-6-65-9-62-10-56-12-50-15-46-17-41-20-34-22-29-8 5 12 33L284-6l10 40 9 44 7 50 6 55 4 59 3 64v70 73V831zM359-40v22H474V234l64-10 16-11-16-10V-18h91V315l65-11 16-10-16-10V148H809l44 49 54-49V127H694V-18H854l54 53 64-53V-40H359zM181 120l-1 2 2-6 11-34 8-36 3-40 1-42-11-22-23-8-22 11-8 23 2 38V40l-2 32-6 27-7 26-11 22-13 20-16 18-20 17-23 16 3 9 29-7 27-11 25-17 6-6 4 13 11 26 12 35 15 42 18 50 21 58 24 65 27 73 30 80 10-2-40-159-17-68-16-59-13-51-11-44-9-35-6-28-4-20-2-10-8-32zM614 461l-4 9-4 10-5 9-6 10-6 10-7 10-7 11-4 5V347l-64-32V467l-5-9-15-27-16-27-18-24-20-21-21-20-8 6 24 51 11 25 12 27 10 28 9 29 9 30 7 32 7 32 3 17H404v22H507V756l64-11 16-11-16-9V638h26l34 37 43-37V616H571V553l3-2 13-5 13-6 12-7 11-6 11-8 10-7 20-17 8-9 4-25-14-20-25-3-20 14-3 9zm292-59-14 21-14 22-13 23-12 23-10 24-10 25-1 2V353l-64-33V5e2l-17-25-19-24-21-25-23-22-25-20-27-18-6 7 19 25 17 26 17 24 16 26 14 25 12 26 11 27 10 28 8 27 2 9H682v22h86V756l64-11 17-11-17-9V638h22l44 48 54-48V616H832v-6l6-10 15-22 14-21 14-21 14-20 15-19 15-17 16-18 16-16 16-15 6-6-57-43-16 20zM128 470l-5 11-6 11-7 11-9 10-10 11-11 11-13 11-14 11-16 10 4 9 18-6 19-4 17-6 16-7 16-8 14-8 13-11 13-11 12-12 10-13 2-24-16-20-24-2-19 16-4 10zm74 257-4 11-6 10-7 10-8 11-10 11-11 11-13 12-14 12-16 10 4 9 18-7 18-5 18-6 16-7 15-9 14-9 13-9 12-11 11-11 10-12 2-25-16-19-24-2-20 16-2 9z"/><glyph glyph-name="undefined" unicode="𤃹" horiz-adv-x="1024" vert-adv-y="918" d="M914 343l64-54V268H601l19-10 11-16-20-4-5-10-17-29-18-26-4-4 17-9H856l32 27 59-48-26-22V-33L856-66v54H584V-49L520-82V119l-14-11-26-17-27-14-29-10-30-8-4 9 25 17 23 17 21 18 20 19 17 20 17 21 7 12 7 11 12 24 11 26 5 15H392v21H860l54 54zM324 831l64-32H871l54 54 64-54V777H388V449l-2-75-5-71-7-65-8-62-10-56-13-50-14-46-18-41-19-34-22-29-9 5 12 33L285-6l10 40 8 45 8 49 6 55 4 59 2 64 1 70v73V831zM177 120l-1 1 3-5 10-34 7-36 5-40V-36L190-58l-23-8-22 11-8 23 2 38V40l-2 32-6 27-8 26-10 22-14 20-16 18-20 17-24 16 4 9 29-7 28-11 24-17 6-6 5 13 10 26 13 35 15 42 19 50 21 58 23 65 28 73 31 80 9-2-40-159-18-68-16-59-13-51-11-44-9-35-6-28-4-20-2-11-8-31zm679 19H584V10H856V139zM603 478l-2 6-4 6-5 6-5 7-7 6-7 7-6 4V344l-65-33V481l-6-8-15-19-17-19-18-16-19-15-21-15-6 8 14 19 12 20 12 20 11 20 10 20 9 20 7 21 7 22 6 21 1 3H403v21h99v65h-5l-27-2-29-1-31-2-1 10 29 9 27 9 25 8 24 9 22 7 19 7 18 8 15 6 14 7 6 3 5 3 4-10 44-40 2-17-22 9-4-2-15-3-17-4-18-3-20-3V604h13l33 38 43-38V583H567V540h4 11l12-2 10-1 10-3 10-3 9-3 10-4 8-5 9-23-9-22-23-10-22 10-3 4zm309-86-19 19-18 21-15 22-14 23-10 22V344l-64-33V485l-2-3-19-24-19-22-21-20-22-19-24-16-26-14-6 8 18 22 17 21 17 21 15 22 14 23 13 23 11 25 11 25 10 27 2 8H679v22h93v60l-23-1-27-2H695 667l-2 10 27 8 25 9 26 8 24 7 23 8 24 7 22 9 21 7 21 8 14 6v1h1l4 2 3-9 50-42 1-16-22 9-11-4-22-5-23-5-23-4 2-1-16-10V614h38l44 48 54-48V592H836v-6l10-19 13-22 14-21 15-20 15-17 16-16 17-14 17-11 18-11 22-14-60-46-21 17zM124 470l-5 11-6 11-7 11-9 10-10 11-12 11-12 11-14 11-17 10 4 9 18-6 19-4 17-6 17-7 15-8 15-8 13-11 13-11 11-12 11-13 2-24-15-20-25-2-19 16-4 10zm74 257-4 10-6 11-7 10-8 11-10 11-12 11-12 12-14 12-17 10 5 9 18-7 19-5 17-6 16-7 15-9 14-8 13-10 12-11 12-11 9-12 2-25-15-19-25-2-19 16-3 9z"/><glyph glyph-name="undefined" unicode="𤖢" horiz-adv-x="1024" vert-adv-y="918" d="M432 374l-3-48 13 22 12 23 12 23 12 24 10 23 9 25 9 25 7 26 7 26 1 9H435V449l-3-75zM103 337H54v21H229V541H145V476L81 444V815l64-11 16-11-16-9V562h84V874l59-11 14-10-14-10V-41L229-70V337H162V261l-2-41-4-39-6-39-8-36-10-35-11-33L107 6 92-23 74-49 54-74l-8 5L58-41 68-12l9 30 8 31 7 32 5 34 4 34 2 36 1 38-1 38v76zM390-38v21H490V194l64-11 17-11-17-10V-17H666V287l59-11 15-11-15-9V150H833l43 48 54-48V128H725V-17H856l54 54 64-54V-38H390zM903 328l-16 22-14 23-13 23-11 25-10 25-4 16V258l-60-30V431l-17-27-21-26-22-25-25-22-26-21-29-19-6 8 21 26 20 26 18 25 16 26 15 26 12 27 12 27 9 28 7 29 2 13H702v21h73v87l-17-3-27-4-27-3-29-2-2 9 27 11 25 11 24 10 23 9 23 9 21 9 20 8 19 8 18 8 12 6h1l4 2 3-9 49-42 1-16-22 9-10-3-18-5-20-4-21-4-17-4V573h28l44 48 53-48V552H835v-4l7-15 12-24 13-22 12-22 14-20 14-20 15-19 15-16 16-16 17-16 8-7-58-43-17 20zM637 430l-4 6-3 6-11 14-7 8-8 7-5 6V259l-65-32V430l-5-10-16-23-17-22-18-21-21-19-22-17-6 6-1-21-6-65-8-61-10-56-11-51-14-46-16-40-18-35-21-29-8 5 11 33 9 36 9 39 8 45 6 50 5 54 4 60 2 64 1 69-1 74V831l65-32H859l54 54 65-54V777H435V573h99v83l-5-1-28-3-30-2-32-2-2 9 30 11 28 10 26 10 24 8 22 9 20 8 17 8 17 7 13 8 7 4-1 1 1-1 4 3 6-12 40-37 1-18-20 9-15-5-17-5-19-4-20-4-2-1V573h16l33 38 43-38V552H599V497h5l12-2 12-3 11-3 11-4 10-4 10-5 9-5 9-6 7-24-10-22-24-7-22 11-2 7z"/><glyph glyph-name="undefined" unicode="𤘃" horiz-adv-x="1024" vert-adv-y="918" d="M416 827l65-32H842l54 53 64-53V773H481V398l-3-64-7-60-10-56-14-53-16-49-20-46-24-42L360-9 330-41 296-68l-7 7 26 34L337 8l20 38 17 41 14 43 11 47 9 50 6 54 2 57V827zM71 842l64-11 16-11-16-9V578h93V858l64-11 16-10-16-10V578h19l33 38 43-38V557H135V369h93l32 27 59-49-27-21V-34L228-67V347H135v-5l-3-57-3-53-6-50-7-47-9-43L96 53 84 18 70-14 53-41 35-63l-8 4 8 27L43-4l7 32 7 34 5 38 4 41 4 46 1 48v52 55V842zM449-40v22h90V187l64-11 17-11-17-10V-18h96V277l64-10 16-11-16-10V144h86l44 48 53-48V123H763V-18H868l54 53 65-53V-40H449zM675 448l-2 6-3 7-4 6-5 7-5 7-7 7-2 2V284l-64-32V440l-15-23-15-21-17-20-19-18-20-17-7 6 12 22 11 22 11 23 10 23 9 22 8 24 7 24 6 25 6 25 1 8H494v22h89v79h-2l-25-3-27-2-28-3-2 9 26 10 26 10 23 9 9 4v1h3l9 4 20 8 17 8 16 8 14 8 12 7 5 3 4 3 8-13 37-36 1-18-20 9-10-4-16-4-17-4-19-4V587h24l24 32 32-32V565H647V513l3-1 11-1 11-2 10-3 19-8 9-4 9-5 8-6 6-24-11-21-23-7-22 11-2 6zm240-97-14 21-13 22-10 23-11 23-4 15V284l-65-32V437l-9-13-18-26-20-23-23-22-24-20-27-18-6 8 18 24 18 24 16 25 14 25 13 25 11 26 10 26 8 28 6 27 2 12H737v22h61v82l-10-2-24-3-25-3-25-3-3 9 24 10 22 11 22 10 21 9 20 9 19 8 18 8 16 8 16 8 10 5 5 2 4-10 46-40 2-17-22 9-7-2-17-4-18-4-19-5-10-2V587h9l44 48 54-48V565H863V551l1-4 11-22 12-22 12-21 12-20 13-18 14-18 14-17 14-15 16-14 6-7-58-42-15 20z"/><glyph glyph-name="undefined" unicode="𤡫" horiz-adv-x="1024" vert-adv-y="918" d="M370 850l65-32H859l54 53 65-53V796H435V461l-3-77-4-72-6-67-8-62-10-57-11-52-14-46-16-41-18-36-21-29-8 4 11 33 9 37 9 41 8 45 6 51 5 56 4 60 2 66 1 70-1 76V850zM623 269l-8 21-4 10-5 10-12 21h-1V-32L529-65V251l-15-39-16-37-17-35-20-32-21-31-9 4 12 35 11 36 11 36 10 37 10 38 9 40 8 41 7 43 6 43 3 30H436v21h93V632l-27-7-29-6-30-7-3 9 27 14 26 14 23 14 13 7v5h8 1l20 12 17 12 17 11 14 11 11 11 7 6 4 4 40-50 3-19-22 7-13-6-18-10-20-8-5-2V481h28l24 32 32-32V460H593V359l6-2 12-6 12-6 12-8 10-9 11-9 10-10 9-11 8-11 2-25-17-18-24-2-19 17-2 10zM913 112l-18 33-15 37-14 39-12 42-3 17V-32L786-65V263l-14-39-19-44-20-41-22-38-23-35-25-32-9 5 16 37 16 38 15 39 14 42 14 44 12 45 11 48 11 50 9 53 7 43H699v22h87V645l-17-5-26-6-27-4-28-4-3 9 25 13 23 12 24 12 22 12 22 12 21 13 21 13 19 13 19 14 14 10v1-1l5 4 23-35 15-17 1-19-19 9-6-4-23-12-23-10-13-6 12-7-16-10V5e2h30l44 48 54-48V478H851V452l9-38 13-48 14-46 15-42 16-38 16-34 17-31 18-27 19-24 1-1-58-42-18 31zM271-17l-8-10-9-11-9-9-10-8-12-6-13-5-12-3-13-2-14-1v32L96-24V-8h75l7 1 7 1 6 2 4 1 9 6 4 3 3 5 4 5 3 7 13 35 12 57 8 74 3 86-5 94-3 21-15-34-20-37-22-37-24-34-26-33-28-31-30-29-32-26-7 7 24 33 23 33 22 34 20 34 19 35 16 36 15 37 14 38 12 39 10 41 7 24-11 48-9 26-19-22-32-34-33-31-35-27-36-24-6 8 29 31 28 32 27 34 26 36 26 38 6 11-7 20-48 93-59 87 7 7 76-78 55-89 17 32 22 45 21 47 18 45 5 12 57-32 10-15-19-3-16-32-25-48-26-46-28-43-13-17 21-50 29-104 18-102 8-99V186l-6-79-10-64L277-5l-6-12z"/><glyph glyph-name="undefined" unicode="𤢴" horiz-adv-x="1024" vert-adv-y="918" d="M891-6 858 15 826 38 796 62 768 88l-27 28-25 28-23 31-21 32-4 7V-38L603-70V179l-13-17-28-32-31-31-32-27-35-26-36-23L389 2 348-16 305-30l-4 8L339 3l35 24 34 25 31 26 29 27 28 29 25 31 23 31 21 34 5 8H322v21H603v94l65-11 16-10-16-10V259H830l54 54 65-54V238H672l17-17 27-25 28-25 28-23 28-22 30-20 30-19 31-18 32-16 33-15 30-15-61-49L891-6zM259-16l-7-11-9-11-9-9-11-7-12-7-12-5-12-3-14-2-13-1v32L85-24V-8h75l7 1 6 1 6 2 5 1 4 3 4 3 4 3 4 5 3 5 4 7 12 35 11 57 8 74 3 86-4 94-3 19-14-32-19-37-22-36-23-35-25-33-28-31-29-29-31-26-7 7 23 33 22 33 21 33 20 35 17 35 17 36 15 37 13 38 11 39 11 40 6 25-11 49-8 24-18-21-31-34-32-31-34-27-36-24-6 8 28 31 27 32 27 34 25 36 25 38 6 11-7 20-46 93-57 87 7 7 74-78 53-88 16 31 21 44 21 48 17 45 5 12 57-31 11-16-20-3-15-32-24-48-26-46-27-42-12-17 20-51 28-104 17-102 8-99V186l-6-78-10-64L265-4l-6-12zM903 398l-2 17v7l-8-5-17-9-18-10-17-9-18-8-17-8-18-9-14-6-7-21-14 13-19 39-53-27v33H597V357l-64-32v42l-20-12-24 6-13 20-1 17-1 17-1 7-7-5-17-9-18-10-17-9-18-8-36-17-13-5-7-22-15 13-28 59 11 3 36 6 7 2 2 7 10 32 10 32 12 33 11 35 4 12-18 1-17 18-3 13-3 13-4 13-4 13-5 13-5 12-5 13-6 12-6 13-8 12 7 7 11-10 12-8 12-9 1-1 1 10 13 55 5 19 4 18 9 37 2 14 4 14 59-28 12-15-21-5-8-17-8-17-9-18-9-17-20-34-11-16-9-13 7-7 10-12 10-11 9-13 8-14 2 6 12 39 12 40 11 37 4 13 58-28 12-15-19-5-8-21-16-40-15-38-16-37-16-35-16-33-16-32-17-30-14-23 6 1 38 8 19 3 19 4 14 2-1 7-2 18-3 17-6 37-3 19-5 19 8 3 11-16 10-16 10-17 9-17 9-17 7-17 7-17 7-18 4-13V786l64-32h12l1 3 4 15 7 27 3 13 3 12 2 11 2 12 1 10 1 5h-1l4 13 59-29 11-16-24-5-7-9-8-11-8-10-17-22-10-11-8-8h57l33 27 59-49-17-13 5-5 13-8 12-9v-1l2 10 4 18 9 37 4 19 4 18 9 37 3 14h-1l4 14 59-28 12-15-21-5-7-17-9-17-9-18-9-17-9-17-10-17-11-16-9-13 6-7 10-12 10-11 9-13 9-13 1 5 12 39 12 40 11 37 4 13 59-28 12-15-20-5-8-21-15-40-16-38-16-37-15-35-16-33-17-32-17-30-14-23 7 1 37 8 19 3 20 4 13 2-1 7-2 18-2 17-7 37-3 19-5 19 9 3 10-16 11-16 10-17 9-17 8-17 8-17 7-17 6-18 6-18 5-18-6-23-21-13-23 6-14 20v17zM789 603l-3 13-4 13-8 26-6 12-5 13-5 12-6 13-5 7-1-1V414l26 4 6 2 2 7 10 32 11 32 11 33 11 35 4 12-18 1-17 18-3 13zM681 568H597V416h84V568zm0 164H597V590h84V732z"/><glyph glyph-name="undefined" unicode="𤩮" horiz-adv-x="1024" vert-adv-y="918" d="M892-31 859-5 829 26 808 55 788 28 753-8 715-38 674-61 630-76l-3 9 37 24 33 28 31 32 27 36 25 42 2 4-1 3-18 44-16 49-11 53-7 58-2 57H696v22H865l32 27 60-49-27-16-6-2-10-47-19-65-22-59-25-55-8-14 8-11 24-28 27-21 27-18 30-12L992 1 930-51 892-31zM609 11l-9 40-4 15-9-5-24-11-25-11-25-10-25-10-25-9-26-9L410-9l-26-8-5-2-7-20-14 13-28 59 11 3 27 6 27 5 9 2 2 9 5 23 5 23 5 22 4 22 5 21 4 21 4 21 1 2H310v8l-14-11-26-19-26-17-27-16-13-8v-2h-2l-10-6-26-15-25-13-25-13L92 89l-4-2-4-21L67 77 34 134l10 4 24 8 26 8 25 9 21 8V455H59v21h81V734H51v22H217l44 48 54-48V734H204V476h26l33 38 43-38V455H204V196l24 9 28 12 30 11 31 11 2-5H473V342H419V326l-59-30V673l59-30h54v86H325v21H473V853l54-11 13-11-13-9V750h32l54 54 65-54V729H527V643h53l29 27 57-49-27-18V331l-59-29v40H527V234h44l53 54 65-54V213H503l-6-18-8-20-9-21-8-21-9-21-11-21-10-21-8-15 15 3 26 5 27 5 27 5 26 4 26 4 10 1-2 7-13 36-15 37-9 17 8 6 14-14 15-14 14-16 13-16 12-18 10-19 11-19 9-21 9-21 8-22-4-24-20-15-24 4-15 20-3 21zM863 363H738l13-53 16-54 18-49 19-44 4-7 14 36 17 57 15 63 9 51zM473 487H419V363h54V487zm107 0H527V363h53V487zM716 828l59-29h62l30 27 56-49-27-18V546l1-6v-6l2-3 1-3 2-3 2-2 4-2 6-1 7-1h3l27 92h10l-10-92 16-10 11-17-11-16-16-10H921 908l-13 2-13 4-11 6-11 8-8 10-7 11-4 13-3 13-1 13V777H775V659l-2-31-4-30-6-30-9-28-9-27-12-26-13-24-16-24-18-21-20-20-7 6 12 24 10 25 9 24 9 24 6 25 5 26 4 25 2 27 1 27-1 28V828zM473 621H419V509h54V621zm107 0H527V509h53V621z"/><glyph glyph-name="undefined" unicode="𤩯" horiz-adv-x="1024" vert-adv-y="918" d="M50-51v21H480V105H206v21H480V230H173v22H732l54 53 65-53V230H544V126H7e2l54 54 64-54V105H544V-30H856l54 54 64-54V-51H50zM731-11l-6 8-8 9-8 9-10 9-11 9-12 9-13 11-14 10-16 9 4 9 17-6 18-3 17-4 15-5 15-5 14-5 13-6 12-6 12-6 11-7 9-23-9-23-22-9-23 9-5 7zM875 293l-50 16-45 19-41 24-12 8-46-25-50-22-54-17-59-12-61-8-2 10 59 18 53 20 50 22 44 24 29 20-18 18-27 33-20 36-15 40-6 37H552v21H832l32 27 59-48-27-16-13-6-13-27-30-42-33-38-32-29 29-13 41-14 46-11 49-8 53-9-64-61-54 13zM283 457l-3-4-10-13-10-13-10-13-11-12-11-13-11-13-6-6 16 1 34 4 35 2 34 2 34 2h33 12l-3 4-10 13-11 12-12 14-15 10 5 9 17-8 17-7 17-8 15-8 15-10 13-11 13-11 11-12 10-13 10-14V316l-17-18H459l-17 16-4 12-4 12-5 11-7 12-3 6-19-6-33-9-32-8-34-7-33-7-34-8-34-6-35-7-34-7-14-3-9-18-13 14-20 63 11 1 71 7 17 1 6 14 7 15 13 30 7 15 5 14 1 2H42v21H257v61H176l-65-32V771l65-32h81v44H63v22H257v64l64-11 16-11-16-9V805H423l44 48 54-48V783H321V739h78l32 27 59-49-26-21V539l-65-32v32H321V478H441l44 49 53-49V457H283zm541 97H616l15-29 21-31 24-28 27-26 25-19 8 7 31 33 27 36 22 38 8 19zM257 632H176V561h81v71zm142 0H321V561h78v71zM594 870l65-32H786l32 27 60-48-27-22V693l-1-6v-6l1-4v-2l1-2 1-2 2-2 4-2 6-2 7-2h56l24 70h11l-11-70 14-9 10-15-10-14-14-10H859l-13 2-12 3-12 5-10 8-9 9-7 12-6 13-2 13-2 13V817H659V745l-3-23-7-22-10-20-12-19-16-17-17-17-20-14-23-14-24-11-27-11-5 8 23 18 19 17 16 17 14 17 11 16 8 15 5 16 3 15 1 15-1 14V870zM257 717H176V653h81v64zm142 0H321V653h78v64z"/><glyph glyph-name="undefined" unicode="𤪢" horiz-adv-x="1024" vert-adv-y="918" d="M902-31 867-5 837 26 814 55 794 28 759-8 721-38 680-61 637-76l-4 9 37 24 33 28 31 32 28 36 25 42 2 3-2 4-19 44-15 49-12 53-8 58-2 57H699v22H874l33 27 59-49-27-16-6-2-11-47-19-65-23-60-25-54-9-14 8-11 26-27 27-22 29-18 30-12 36-14-62-52-38 20zM458 863l65-10 16-11-16-10V745h32l54 54 64-54V724H523V654h64l33 27 59-49-27-21V369l-65-32v43H523V277h63l44 49 54-49V256H523V175h43l32 27 59-48-27-22V9L566-24V9H404V-29L340-61V208l64-33h54v81H308v21H458V380H394V363l-65-32V686l65-32h64v70H318v21H458V863zM404 154V30H566V154H404zM27 134l10 4 23 8 25 8 24 9 20 7V455H52v21h77V734H44v22H202l44 48 54-48V734H193V476h22l33 38 43-38V455H193V196l21 9 28 12 29 11 30 11 5-8-25-21-25-19-25-17-25-16-13-8v-2h-2l-10-6-25-14-24-14-24-13L81 88 77 67 60 77 27 134zM872 363H742l14-53 16-54 17-49 20-43 6-10 15 38 17 57 16 63 9 51zM719 828l59-29h68l30 27 56-49-26-18V540l1-6v-3l1-3 1-2 2-1 2-2 4-2 6-1 7-1h8l27 92h10l-10-92 16-10 11-17-11-16-16-10H930 917l-13 2-12 4-12 6-10 8-9 10-7 11-4 13-3 13-1 13V777H778V659l-2-31-4-30-7-30-8-28-10-27-12-26-14-25-16-23-18-21-21-20-7 6 13 24 10 25 10 24 9 25 6 24 6 26 4 25 2 27 1 27-1 28V828zM458 509H394V401h64V509zm129 0H523V401h64V509zM458 632H394V530h64V632zm129 0H523V530h64V632z"/><glyph glyph-name="undefined" unicode="𤹈" horiz-adv-x="1024" vert-adv-y="918" d="M32 278l11 5 14 4 16 5 16 6 18 7 17 7 19 9 19 9 20 10 18 8v64V772l65-32H534V874l64-11 16-10-16-10V740H856l54 53 64-53V718H265V412l-4-67-7-64-11-60-15-55-19-51-22-47-27-42-30-37L96-44 58-70l-6 8L81-29 107 6l23 39 20 41 16 45 14 49 9 52 7 56 2 34-2-2-17-16-16-14-17-14-16-13-16-11-16-11-11-6-5-23-16 11-34 55zm411 32 4-2V458l-15-18-19-23-22-20-23-19-24-17-27-14-28-12-4 9 21 19 19 20 19 21 17 21 17 21 14 23 14 23 11 25 11 26 2 4H303v22H447V673l64-11 17-11-17-10V569h12l44 48 54-48V547H511V512l10-2 15-5 14-6 14-7 13-7 12-9 11-9 11-11 10-11 3-24-15-20-24-3-20 15-4 10-4 9-5 10-6 10-7 9-9 10-9 10-10 10V339l-62-32 59-29H726l32 27 59-49-27-21V13l2-5 1-3 1-2V2h1l2-1 3-2 5-1H910l33 135h10L943-2l19-13 13-19-13-19-19-13H812 798l-13 3-13 4-13 7-10 8-9 11-7 13-4 12-2 14-1 14V256H508V119l-4-32-8-29-13-27L466 7 445-13 421-31 393-45 363-55l-34-7-37-5-2 10 33 13 29 15 25 15L397 2l17 17 12 18 9 18 5 19 3 22V310zm456 42-20 17-18 20-16 20-15 21-14 22-12 23-2 5V339l-64-33V459l-15-19-20-23-22-20-23-19-24-17-26-14-28-12-5 9 21 19 20 20 19 21 17 21 16 21 14 23 14 23 12 25 10 26 2 4H629v22H738V673l64-11 16-11-16-10V569h26l54 54 64-54V547H802V536l2-2 16-20 16-19 15-18 17-16 17-16 17-14 18-13 19-13 19-11 21-13-60-46-20 17zM108 508l-3 17-4 16-5 16-5 16-6 14-7 15-8 14-9 14-10 11 6 8 14-9 15-9 15-11 13-12 13-14 11-16 10-16 10-18 8-19 8-20-4-24-20-15-25 4-14 20-3 18z"/><glyph glyph-name="undefined" unicode="𤾾" horiz-adv-x="1024" vert-adv-y="918" d="M9e2-5 873 17 846 39 821 64 797 89l-22 28-21 28-19 31-13 25V-38L657-70V165l-1-2-25-32-25-30-28-28-31-26-31-23L483 3 448-16 411-30l-5 8L437 2l29 24 28 25 26 26 24 27 23 29 21 30 19 32 18 33 4 10H425v21H657v94l65-11 16-10-16-10V259H836l53 54 65-54V238H722v-2l15-16 23-25 24-25 24-23 24-22 26-20 25-20 27-17 27-16 28-15 24-14-59-48L9e2-5zM260 25V41h43 7l5 1 3 2h2l1 1 1 1 1 2 1 3v5l1 6V261H251V-51L187-83V261H113V3L48-29V315l65-32h74V406l64-10 16-11-16-10V283h74l32 27 59-49-27-21V62l-1-13-2-14-4-12-7-13-9-11-10-8-13-7-13-4-13-3-14-1V9L260 25zM910 416v4l-2-2-14-10-15-9-29-17-29-16-8-4-6-23-15 12-20 37-47-23v30H659l-52-27v-1l-21-13-24 7-12 21-1 34-1 4-2-2-14-10-14-9-29-17-29-16-8-4-6-23-15 12-31 58 10 3 15 3 16 3 6 1 2 7 7 31 9 33 9 33 9 34 4 15-16 1-16 19-4 26-3 13-3 13-3 12-8 25-4 12-5 13-7 11 8 6 10-10 10-8 8-7 1 7 3 18 3 18 3 19 3 18 4 19 8 51 3 14 61-26 12-15-21-5-6-17-8-17-7-18-9-17-8-17-18-33-9-14 8-8 9-12 8-12 8-13 1-2 8 34 11 40 8 36 4 14 60-26 6-7v56l59-29h7l1 3 5 28 2 13 2 12 2 13 2 11 1 11 1 10v5h-1l1 5v1l3 8 59-27 13-15-24-6-13-20-15-21-8-11-9-11-8-9h45l30 27 56-49-19-14 5-5 11-8 8-7v7l4 18 2 18 3 19 4 18 3 19 9 51h-1l4 14 60-26 12-15-20-5-7-17-8-17-7-18-9-17-8-17-18-33-9-14 8-8 9-12 8-12 8-13 1-2 9 34 10 40 8 36 4 14 60-26 12-15-19-5-6-21-14-40-13-38-14-37-14-35-14-33-14-33-14-30-13-23 1 1 17 3 16 4 16 3 26 5-1 10-1 18-5 35-2 18-2 19-3 19 8 3 9-17 10-16 9-17 8-17 8-17 7-17 6-17 6-18 5-17 5-18-7-24-21-13-24 7-12 21-1 34zM191 855l59-27 13-15-27-7-6-10-7-11-7-11-8-13-8-14-9-15-3-5H3e2l32 27 60-49-27-21V408l-65-32v64H137V376L73 344V759l64-32h39l3 8 1 18 2 16 2 15 2 14 1 12 1 11v10l1 9v1l-2 1 4 13zM812 618l-3 13-3 13-3 12-8 25-4 12-4 13-2 3V415h2l15 3 6 1 2 7 7 31 9 33 9 33 9 34 4 15-16 1-16 19-4 26zm-87-50H659V416h66V568zM6e2 718l-13-4-7-21-13-40-14-38-13-37-14-35-14-33-14-33-14-30-13-23 1 1 16 3 16 4 17 3 26 5-1 10-2 18-4 35-2 18-2 19-4 19 9 3 9-17 10-16 9-17 8-17 8-17 7-17 5-17 3-9V718zM3e2 573H137V462H3e2V573zM725 732H659V590h66V732zM3e2 705H137V595H3e2V705z"/><glyph glyph-name="undefined" unicode="𥌮" horiz-adv-x="1024" vert-adv-y="918" d="M378 827l65-32H837l53 53 65-53V773H443V398l-4-64-7-60-10-57-14-52-17-50-21-46-26-41L316-9 284-41 248-68l-6 7 26 34L293 8l21 38 18 41 15 44 13 46 9 50 6 54 3 57V827zM411-40v22h98V187l64-11 16-11-16-10V-18H678V277l65-10 16-11-16-10V144h99l44 48 54-48V123H743V-18H865l54 53 64-53V-40H411zM64 791l65-32H234l32 27 59-48-27-22V111L234 79v54H129V68L64 36V791zM234 343H129V154H234V343zM654 447l-3 7-4 6-4 7-5 7-7 7-7 7-4 4V284l-64-32V445l-4-6-15-22-16-22-18-20-19-18-21-16-8 6 13 23 12 22 12 22 10 23 10 23 9 23 8 24 7 25 6 25 1 8H459v22h97v79l-4-1-27-3-29-2-30-2-2 9 29 10 27 10 24 10 23 8 21 8 19 8 17 9 15 7 13 7 6 4 5 3 5-13 40-36 1-18-20 8-14-4-16-4-19-4-19-4h-1V587h11l33 37 43-37V565H620V513h4l12-2 11-2 11-3 10-3 10-4 9-5 9-5 9-6 7-23-11-22-23-7-22 10-2 6zm255-97-15 21-13 22-13 23-10 23-9 25V284l-65-32V441l-12-18-20-25-21-24-24-22-26-20-28-17-6 8 20 24 19 25 17 25 16 24 14 26 12 26 11 26 8 27 7 28 2 11H717v22h67v82l-13-2-25-4-26-2-28-3-2 9 25 11 24 11 24 9 22 9 21 9 20 8 20 9 18 7 17 8 11 5v1l5 1 3-8 49-42 1-16-22 9-10-3-18-5-19-3-20-5-12-2V587h18l44 48 54-48V565H849V554l3-6 12-23 12-22 12-21 13-20 14-18 14-18 15-16 15-15 16-15 8-7-58-43-16 20zM234 540H129V364H234V540zm0 198H129V562H234V738z"/><glyph glyph-name="undefined" unicode="𥓃" horiz-adv-x="1024" vert-adv-y="918" d="M895 3 866 27 838 53 812 81l-25 29-23 31-22 33-20 35-16 32V-42L642-74V2e2l-3-5-25-37-28-35-29-34-31-30-33-27L458 6 422-15 382-33l-4 8L410 2l30 28 30 28 27 30 25 31 24 33 22 35 20 37 19 39 7 17H397v21H642V436l64-11 16-11-16-9V301H832l54 54 65-54V280H706v-2l17-22 26-30 24-29 26-27 25-26 27-24 27-23 28-20 28-19 29-18 22-14-60-46L895 3zM299 466l32 26 60-48-27-21V73L299 41V95H198V30L133-2V369l-29-47-30-46-33-44-9 5 25 50 22 48 22 49 21 50 11 30v2h1l7 18 17 50 15 51 14 52 12 52 7 35H51v21H275l54 54 64-54V724H272l-13-50-16-54-19-52-20-51-22-50v-1H299zm0-22H198V116H299V444zm583-70-42 23-41 28-39 32-37 37-32 37-6-7-45-46-47-41-49-35-51-30-53-23-55-18-3 9 49 27 47 30 45 34 43 37 41 42 39 46 14 18-4 5-32 49-29 53-14 32-3-5-21-31-22-30-24-28-25-26-27-24-29-22-6 7 20 29 20 29 18 29 19 30 17 31 17 31 15 33 14 33 14 34 10 31 5 13 57-30 11-16-19-4-8-17-14-27H781l3 2 1 1 29 24 59-49-27-16-13-5-27-48-38-61-40-56-7-9 1-2 37-34 36-30 38-26 38-21 39-18 39-14 40-13-63-54-44 20zM772 761H609l-11-20-8-14 25-35 35-46 34-40 35 56 34 59 19 40z"/><glyph glyph-name="undefined" unicode="𥕆" horiz-adv-x="1024" vert-adv-y="918" d="M916 124l-20 38-18 41-16 44-14 49-12 51-1 3V-45L771-77V321l-6-18-20-53-21-49-22-47-25-44-26-40-29-37-8 5 19 42 18 43 19 45 16 47 16 50 15 52 13 55 13 58 11 59 8 52H665v21H771V733l-26-7-30-8-32-6-31-3-3 9 29 14 54 27 27 13 25 13 25 14 24 15 23 15 23 16 17 12h-1 1l4 4 22-33 17-19 1-19-19 8-10-6-26-13-27-12-19-9 12-8-16-9V562h35l53 54 65-54V541H835V522l14-55 15-56 15-52 17-48 18-44 18-40 20-36 21-31 21-27 1-2-57-42-22 35zM581 301l-4 12-6 12-6 12-6 12-8 12-7 11-7 9V-45L473-77V306l-9-25-16-44-18-42-20-40-22-38-24-35-8 5 14 39 14 40 13 42 12 42 12 44 10 45 9 46 9 49 7 49 4 36H360v22H473V718l-6-2-30-9-33-8-35-7-3 10 31 16 29 16 27 14 20 11v2h4l2 1 23 14 22 13 19 13 16 12 15 12 12 11v1l41-51 2-19-21 7-18-10-20-10-23-10-10-4V541h26l33 37 43-37V519H537V405l11-4 14-7 13-9 13-9 13-10 11-11 11-12 10-12 10-14 1-25-15-18-25-1-19 16-4 12zM297 799l65-54V724H243l-12-49-15-54-16-52-18-51-14-36h93l33 27 59-49-27-21V62L261 30V95H176V30L111-2V360L91 323 63 276 33 232l-9 5 21 49 20 49 20 49 18 49 8 26v7h3l6 17 15 50 14 51 11 52 12 52 5 36H50v21H244l53 54zM261 460H176V116h85V460z"/><glyph glyph-name="undefined" unicode="𥕴" horiz-adv-x="1024" vert-adv-y="918" d="M518-24V-8H626l6 1 5 1 3 1 3 1 1 1v1l1 1 1 4 1 5v6V224H564l-65-33V466l-18-15-45-35-50-29-6 8 43 37 39 39 35 41 2 2v5l3-1 28 37 29 45 25 48 22 50 3 9H397v22H617l8 22 15 55 11 54 3 15 61-23 14-14-19-6-11-42-20-58-1-3H844l53 54 65-54V707H730l16-23 21-31 21-29 22-27 23-27 4-3 3 8 15 30 8 15 7 14 15 27 8 13 5 8h-1l5 7 48-43 6-19-23 4-4-5-11-10-11-11-24-21-12-11-13-11-9-7 9-9 25-23 27-21 28-20 29-19 20-13-59-46-31 24-27 24-10-8V224l-64-33v33H712V14L711 1l-2-14-5-13-6-12-9-11-11-9-12-7-13-4-13-2-14-1v32L518-24zm16 202 48-43 6-18-20 3-7-8-21-23-22-21-23-21-24-21L446 7 421-12 394-29 367-45 338-60l-6 8L377-6l21 21 21 22 20 22 20 23 19 22 19 23 31 43 6 8zM907-11 895 9 883 27 870 46 855 64 839 82 822 99l-19 18-19 18-20 18 4 8 26-10 25-11 24-14 22-14 21-16 20-16 18-19 18-19 16-19L973 1l2-24-15-20-24-3-20 15-9 20zM330 799l65-54V724H265l-13-50-15-53-17-52-20-52-15-35H289l33 27 59-49-27-21V73L289 41V95H194V30L129-2V366l-25-44-30-46-32-44-8 5 23 50 22 48 20 49 20 50 10 29v3h1l7 18 16 50 15 51 13 52 12 51 6 36H61v21H277l53 54zM289 460H194V116h95V460zM796 347H564V245H796V347zm0 119H564V369H796v97zM717 707H669l-13-30-28-52-31-49-35-45-27-30 29-14H796l23 19-2 3-22 30-21 31-18 33-17 35-14 36-8 33zM468 574l-4 11-5 12-6 12-6 10-6 12-7 11-15 22-10 10 5 8 13-7 13-6 13-7 13-8 12-8 11-9 11-11 10-10 10-12 9-13 1-24-15-19-25-1-18 15-4 12z"/><glyph glyph-name="undefined" unicode="𥤀" horiz-adv-x="1024" vert-adv-y="918" d="M316 298l-7 13-7 12-8 12-8 12-10 12-10 12-12 12-5 5V-45L185-77V336l-4-11-18-45-20-45-21-41-23-40-26-38L46 82l-8 5 18 40 17 40 17 42 16 42 14 44 13 45 12 47 11 48 9 49 5 35H42v22H185V720l-16-4-37-9-38-8-42-7-3 10 39 17 36 15 33 15 28 12 4 2 28 14 27 13 23 13 21 12 18 12 11 9 5 3 21-31 18-20V769l-19 8-5-2-22-11-24-10-27-10-15-5V541h12l54 54 64-54V519H249V408l17-6 17-7 16-8 14-10 14-9 14-11 12-12 13-13 11-13 3-24-14-20-25-4-20 14-5 13zm97 529 65-32H842l53 53 65-53V773H478V398l-4-64-6-60-10-56-13-53-17-49-20-46-24-42L357-9 327-41 292-68l-6 7 25 34L334 8l19 38 18 41 14 43 11 47 9 50 5 54 4 57-1 60V827zM446-40v22h91V187l64-11 16-11-16-10V-18h96V277l64-10 17-11-17-10V144h87l44 48 54-48V123H761V-18H868l54 53 65-53V-40H446zM915 351l-14 20-13 23-12 22-9 24-6 15V284l-64-32V437l-9-14-18-25-21-23-22-22-25-20-27-18-6 8 19 24 17 24 16 25 15 25 13 25 11 26 10 26 8 28 6 28 2 11H736v22h61v82l-10-2-24-4-25-2-26-3-3 9 24 10 23 11 22 10 21 9 20 9 19 8 18 8 17 8 16 8 10 5 5 2 4-10 46-40 1-17-21 10-8-3-17-4-18-4-19-5-11-2V587h11l44 48 53-48V565H861V551l2-4 11-22 12-22 12-21 12-20 13-18 14-18 14-17 15-15 15-14 7-7-58-42-15 20zM673 448l-2 6-3 7-4 6-5 7-6 7-6 7-2 2V284l-64-32V440l-15-23-15-21-17-20-19-18-20-17-8 6 12 22 11 22 11 23 10 23 9 22 9 24 7 24 6 25 6 25 1 8H491v22h90v79h-2l-25-3-27-2-29-3-2 9 27 10 25 10 23 9 10 4v1h2l10 4 20 8 17 8 16 8 14 8 12 7 5 3v1l1-1 4 3 7-13 38-36 1-18-21 9-11-4-15-4-17-4-19-4V587h24l24 32 32-32V565H645V513l3-1 11-1 11-2 10-3 10-4 9-4 9-4 9-5 8-6 7-24-11-21-24-7-22 11-2 6z"/><glyph glyph-name="undefined" unicode="𥧯" horiz-adv-x="1024" vert-adv-y="918" d="M801 135l9-15 35-35V68l-19 8-51-24-59-25L656 5 592-15 527-32 458-47 388-59l-72-9-75-7-77-3-1 10 75 14 73 14 70 16L449-7l65 19 63 21 60 22 57 25 55 27 52 28zM666 194l9-16 34-34 1-18-20 8-37-17-45-19-47-18-47-15-50-14-51-13-53-10-54-9-56-6-57-3-1 10 55 14 54 14 51 14 50 15 49 17 46 18 45 19 43 20 41 20 35 20 5 3zM539 255l11-19 31-31 1-18-20 8-22-11-33-15-35-14-35-12-37-12-39-10-40-9-41-8-43-5-44-4-1 10 41 14 40 13 38 14 38 14 36 14 33 15 33 16 31 16 29 17 24 14v1-1l4 3zM881 142l-47 13-46 16-44 17-42 17-42 20-39 21-38 22-36 25-9 7v-6l-18 8-22-14-41-24-44-22-46-21-48-18-51-17-52-15-55-12-57-11-59-8-2 10 57 18 54 18 52 19 49 20 47 20 44 22 42 23 40 23 36 26 31 23 4 3 30-41 68-28 40-15 41-15 42-14 42-13 44-12 45-10 45-9 48-9 49-10-64-59-48 12zM348 447l40-50 3-19-20 7-8-6-28-17-29-16-31-15-31-14-34-13-35-11-36-10-38-8-40-6-2 9 36 17 35 16 33 15 31 16 30 16 28 17 26 17 25 18 23 18 17 15 1 2 3 2h1zM894 577l59-49-27-21V305l-65-32V528H760l28-31 3-19-20 6-5-4-23-16-24-15-25-14-27-13-28-12-29-11-31-10-32-7-34-6-3 9 30 16 28 15 27 15 26 15 24 16 22 15 22 17 20 16 18 17 2 1H534v22H861l33 27zM810 447l42-49 2-20-20 7-2-1-21-14-22-11-23-12-24-10-26-10-28-9-28-8-30-6-31-5-3 10 28 14 26 14 25 13 24 13 22 14 21 13 18 14 18 14 16 14 16 15zM431 577l59-49-26-21V351l-65-33V528H297l28-31 4-19-20 6-5-4-22-16-24-15-24-14-26-13-27-12-28-11-29-10-31-7-32-6-2 9 27 16 27 15 25 15 24 15 23 15 22 16 20 17 19 16 19 17 1 1H71v22H399l32 27zM364 753l59-27 13-14-22-6-5-9-20-27-25-23-29-20-35-17-39-15-44-13-49-11-54-8-58-5-2 9 56 16 51 16 45 16 39 17 34 18 28 19 22 19 16 19 10 19 6 19 3 8zM673 593l-13-1-12 2-12 3-12 5-10 7-10 9-7 12-5 12-3 13-2 13v96H146v-9l-2-20-4-18-6-18-9-16-12-15-14-13-17-11H58L40 660l-1 25 18 18 10 3 10 5 9 5 9 8 8 10 8 12 6 14 7 17 5 19 2 22h10l2-22 1-10H480V891l64-11 16-11-16-9V786H894l3 3 4 7 3-2 22 19 59-49-27-16-36-15-1-1-12-8-13-8-13-9-14-8-15-9-17-9-16-12-6 8 13 14 11 15 11 14 10 13 9 12 8 12 5 7H652V668l-1-6V652l1-5 1-2 3-3 3-2 6-2 8-2H910l21 48h11l-11-48 13-9 9-13-9-12-13-9H673z"/><glyph glyph-name="undefined" unicode="𥨻" horiz-adv-x="1024" vert-adv-y="918" d="M125 595l64-33H887l44 49 54-49V541H871l1-6 58-48 2-16-23 12-24-5-29-4-31-4-30-3-12-1-11-7V418h71l54 53 64-53V396H776l13-15 16-18 17-15 17-15 19-13 21-12 21-11 24-9 25-9 35-14-62-52-27 14-25 15-24 17-21 18-19 20-17 22-14 22-3 7V199l-65-32V324l-3-3-21-20-23-19-25-17-26-16-28-14-30-11-31-10-5 9 27 19 24 18 23 19 21 18 20 20 17 19 17 20 14 21 12 19H574v22H701l1 2 5-2v42h-9l-34-1-35-1-35 1-37 2-1 9 36 9 35 8 33 7 33 7 32 6 31 6 31 7 29 7 28 7 22 6h1l2 1H189V310l-3-55-5-52-8-48-10-44-14-41-16-37L115 1 93-28 68-52 42-71l-6 8L53-39 70-12 84 17 95 49l11 35 8 38 6 41 3 46 2 49V595zM159-38v22H312V115l65-11 16-11-16-10V-16H556V189l64-11 16-11-16-9V99H815l53 54 65-54V77H620V-16H849l54 54 64-54V-38H159zM487 297l-6 5-7 6-8 6-9 6-10 6-11 6-13 7-8 4V199l-65-32V320l-9-9-18-16-20-15-21-14-22-13-24-11-26-10-4 8 20 18 19 17 17 17 16 17 14 17 12 16 11 18 10 17 5 11H208v22H350v46l-19-1-36-1H258l-41 1-1 9 40 10 36 9 35 7 31 7 29 7 27 6 24 6 22 5 19 6 12 4 5 2 2-7 54-45 2-17-24 11-19-5-19-2-21-3-23-2-26-3h-7V410h31l44 48 54-48V388H415V358l13 1h14l14-1 13-1 12-1 12-2 11-2 11-3 10-2 14-21-3-24-21-14-24 3-4 6zM364 766l58-29 12-16-23-4-3-6-20-23-25-20-30-17-34-14-39-13-44-10-49-9-53-6-58-3-2 9 56 14 51 14 46 15 39 15 34 15 28 17 22 16 16 16 10 16 8 23zM673 623H660l-12 1-12 3-12 5-10 7-10 9-7 12-5 12-3 13-2 13v73H145v-8l-1-17-5-16-7-16-9-15-12-12-13-12-17-10-24 1-18 18 2 24 17 17 11 2 10 4 9 4 8 6 8 8 7 9 7 12 6 13 5 16 2 18 10 1 2-19 1-6H480v89l64-11 16-11-16-10V793H894l3 3 1 1 5 8 2-2 21 17 59-49-27-16-56-23-7-4-13-7-14-7-15-7-16-7-16-9-6 8 14 12 11 13 11 13 10 11 9 12 9 10 1 1H652V698l-1-6V682l1-5 1-2 3-3 3-2 6-2 8-2H910l21 48h11l-11-48 13-9 9-12-9-13-13-9H673z"/><glyph glyph-name="undefined" unicode="𥷅" horiz-adv-x="1024" vert-adv-y="918" d="M838-63 782-49 732-32 688-11 650 15 618 44 593 77l-18 37-4 17-4-10-23-42-33-37-39-31-46-26-53-20-60-16-67-10-74-5-1 10 72 15 63 18L360-2l47 24 38 26 30 29 23 31 16 34 9 38 2 40v13l64-14 17-11-19-11-4-29 3-8 17-32 21-27 18-17 16 10 20 14 18 13 19 13 17 13 17 12 16 11 15 12 14 12 9 7 4 4 21-31 18-21 1-19-20 9-35-18-20-8-19-8-21-8-21-8-23-8-23-6-13-4 27-19 34-17 40-15 45-12 51-8 57-6 57-5-64-65-61 9zM119 627l65-32H836l54 53 64-53V573H184V318l-3-56-6-52-7-49-10-45-13-41-16-38L111 4 90-25 66-50 40-69l-6 8L51-37 66-10 80 20 91 52l10 36 8 38 5 43 4 46 2 49-1 54V627zM274 37 257 54V78l17 18 15 4 14 5 12 6 12 7 11 8 9 9 10 11 9 13 8 14 6 15 9-1-1-18-1-18-4-17-5-17-8-16-11-16-12-13-15-13-16-12-17-11-25 1zM874 254l-23 14-22 16-20 18-17 18-15 21-4 7V249l-65-32V354l-9-10-20-18-21-18-23-16-24-14-26-13-27-11-29-9-4 9 24 17 22 18 20 17 19 18 18 18 16 18 14 19 13 19 8 14H579v21H708v60l-23-1-38-2H607l-43 1-1 9 9 2-20 10-23-5-21-2-22-3-25-2-27-2-10-1V433h26l44 49 54-49V412H424V389l8-1 18-5 17-5 15-4 14-6 13-5 12-6 10-6 11-8 7-24-12-22-23-6-22 11-2 6-4 6-6 7-8 9-9 8-12 10-13 10-14 10V249l-65-32V346l-15-13-21-17-23-16-25-15-26-15-28-13-30-12-5 9 24 20 23 20 21 19 20 19 19 18 16 18 15 19 13 17 5 8H209v21H359v60l-23-1-38-2H258l-43 1-1 9 42 10 39 9 36 8 35 7 31 7 29 6 26 6 24 6 21 6 18 5 1-6 57-47 2-14 29 7 40 9 37 8 34 7 31 7 29 6 27 6 23 6 21 6 13 4 5 1 2-7 56-46 2-16-23 11-23-5-20-2-23-3-25-2-27-2-10-1V433h32l54 54 64-54V412H773v-4l7-9 14-16 15-15 17-13 17-12 18-11 20-9 22-9 22-7 37-15-62-52-26 14zM338 662l-4 10-7 10-8 11-10 11-11 12-13 11-15 12-16 13-11 6H217l-15-19-21-25-24-23-25-23-28-20-30-20-32-17-6 8 25 26 24 24 22 25 21 24 17 25 16 25 14 24 12 26 11 25 5 20 1 2 1 4 3 8 58-29 12-15-21-5-4-9-14-28-8-11H426l54 53 64-53V758H284l16-5 17-8 17-8 15-9 14-10 13-11 12-11 10-13 2-24-15-19-25-2-19 15-3 9zm425 0-5 10-6 10-8 11-10 11-11 12-14 11-14 12-16 13-12 6H639l-12-16-22-23-24-21-25-20-28-18-30-17-32-15-5 9 26 23 23 22 23 23 20 22 18 22 16 24 14 23 11 24 10 24 7 20 4 13 58-29 12-16-21-4-4-9-15-27-9-12H856l54 53 64-53V758H708l16-5 18-8 17-8 15-9 14-10 13-11 12-11 10-13 2-24-15-19-25-2-19 15-3 9z"/><glyph glyph-name="undefined" unicode="𥽗" horiz-adv-x="1024" vert-adv-y="918" d="M901-6 870 16 840 38 811 63 785 89l-26 27-24 29-22 30-19 32-2 3V-38L628-70V176l-10-14-27-32-29-30-31-28-33-26-35-23L426 2 387-16 346-30l-4 8L377 2l34 25 31 25 30 26 28 27 25 29 24 30 22 32 20 33 4 9H362v21H628v94l64-11 16-10-16-10V259H839l54 54 64-54V238H694l17-17 27-26 26-24 26-23 27-22 28-20 29-19 30-18 31-16 31-15 28-15-61-49L901-6zM289 240l-7 17-7 16-9 17-9 16-9 18-11 17-4 6V-34L168-67V277l-2-8-16-44-18-42-19-41-22-37L67 70 42 39l-8 5L50 81l15 37 15 39 14 40 13 42 11 44 10 45 9 48 7 49 4 35H41v22H168V863l65-10 16-11-16-10V482h26l44 48 54-48V460H233V383l11-8 16-14 17-14 14-15 15-15 12-15 13-17 12-16 10-16 1-25-16-18-24-2-19 16-6 16zM911 415v6l-6-3-17-10-16-10-16-9-17-8-17-8-28-13-7-22-15 12-19 38-52-26v33H625l-65-33v3l-17-11-23 7-13 21-3 33v6l-5-3-17-10-16-10-17-9-17-8-16-8-28-13-7-22-15 12-29 59 10 3 35 6 7 1 2 8 9 31 9 32 11 34 11 35 4 12-18 2-16 17-3 14-6 26-4 12-4 13-5 13-5 12-5 13-6 12-7 12 7 7 10-10 12-8 11-9 5 27 5 18 7 37 4 19 4 18 4 19 3 14h-1l2 4v1l2 8 59-27 13-15-21-5-16-34-8-18-19-34-19-32-10-14 8-7 10-12 9-12 8-13 7-10v3l12 38 11 41 10 36 4 14 59-28 12-15-19-5-8-21-15-39-15-39-15-37-15-35-15-33-16-32-16-30-14-23 5 1 18 3 37 8 18 3 12 2-1 8-2 18-5 36-3 18-3 19-4 19 9 3 9-16 11-17 18-33 8-18 14-34 6-18 1-3V786l65-32h9l2 3 3 14 3 14 5 26 3 13 2 11 2 11 2 10v5l-2 1 5 13 58-29 12-15-25-6-5-9-16-21-8-11-18-22-8-8h52l32 27 60-49-18-14 5-4 12-8 11-9 5 27 4 18 8 37 4 19 4 18 3 19 3 14h-1l2 4v1l3 8 59-27 12-15-21-5-15-34-9-18-18-34-20-32-9-14 7-7 10-12 9-12 9-13 6-10 1 3 11 38 11 41 10 36 4 14 59-28 12-15-19-5-8-21-14-39-15-39-15-37-15-35-16-33-15-32-17-30-14-23 6 1 18 3 36 8 18 3 13 2-1 8-2 18-6 36-3 18-2 19-5 19 9 3 10-16 11-17 18-33 8-18 14-34 6-18 6-17 4-18-5-23-21-14-24 7-13 21-2 33zM804 604l-6 26-4 12-4 13-4 13-6 12-5 13-5 12-4 6V414l22 4 7 1 2 8 9 31 10 32 10 34 11 35 4 12-17 2-17 17-3 14zM701 568H625V416h76V568zM294 790l59-27 13-14-20-6-8-19-9-21-9-22-11-22-10-23-12-24-13-23-14-25-15-25-9 4 7 28 6 27 6 26 6 25 6 25 6 23 5 22 5 22 5 20 3 15 3 14zM97 585l-2 18-2 18-2 20-4 20-3 21-5 22-4 23-5 25-6 24 9 4 13-23 13-20 10-22 11-21 9-20 8-20 7-20 7-19 6-19 4-18-6-24-21-13-24 7-12 21-1 16zM701 732H625V590h76V732z"/></font>
</defs>
</svg>
