<svg xmlns="http://www.w3.org/2000/svg"><defs><font name="Jigmo Regular" horiz-adv-x="1024" vert-adv-y="1024"><font-face font-family="Jigmo" font-weight="400" font-stretch="normal" units-per-em="1024" ascent="995" descent="169"/><glyph unicode="&#13668;" horiz-adv-x="1024" vert-adv-y="918" d="M580 6e2H410v21H580V858l65-11 16-10-16-10V621H777l32 27 59-48-26-22V30 24l1-5 1-3 1-2 2-2 5-2 5-1h6 58l32 134h11L953 9 972-4l13-20-13-19-19-13H863l-13 1-14 2-13 5-12 7-11 8-9 11-6 12-5 13-2 14-1 13V6e2H645V589l-5-98-11-92-18-85-23-78-31-71-36-64-44-56L428-4 372-45 310-76l-4 8 54 40 48 45 42 50 36 55 30 62 24 68 19 74 13 81 7 88 1 94v11zM79 745l64-32H295l33 27 59-49-27-21V186l-65-32v64H143V154L79 121V745zm216-54H143V240H295V691z"/><glyph unicode="&#13669;" horiz-adv-x="1024" vert-adv-y="918" d="M866-8 815 52l-43 69-37 77-31 86-24 94-17 103-9 94-17-115-25-107-32-98-38-87-45-76-52-65-59-53-65-42-5 8 56 49 51 57 44 65 38 75 32 84 27 95 20 104 13 115 9 125 1 136v12l65-12 16-11-17-10-3-64 4-48 12-117 18-108 22-98 28-89 33-80 38-69 43-60 48-51 69-55-59-44L866-8zM88 745l65-32H320l32 27 59-49-26-21V186l-65-32v64H153V154L88 121V745zm232-54H153V240H320V691z"/><glyph unicode="&#13670;" horiz-adv-x="1024" vert-adv-y="918" d="M835-49 783-31 734-7 688 21 646 54 607 91l-35 42-32 47-27 51-8 19-31-72-42-63-50-52-54-41-61-33-63-25-67-19L68-70l-2 9 65 26L193-9l58 29 53 35 47 41 41 49 33 58 26 67H67v21H456l14 64 9 98 1 13 64-17 15-11-18-9-11-84-14-54H833l54 54 64-54V270H513l19-28 34-44 35-39 37-35 39-31 40-26 43-21 45-17 47-13L954-1 890-62 835-49zM196 847l65-32H736l32 27 59-49-27-21V471l-64-32v64H261V439l-65-33V847zm540-54H261V525H736V793z"/><glyph unicode="&#13671;" horiz-adv-x="1024" vert-adv-y="918" d="M443 855l65-32H892l32 27 59-48-27-22V522l-64-32v64H508V492l-4-70-5-67-9-64-10-60-14-57-17-54-20-50-22-46-27-42-29-37-8 5L363-8l17 44 16 47 14 49 11 52 9 55 7 59 5 62 2 64-1 68V855zM75 745l64-32H285l32 27 60-49-27-21V186l-65-32v64H139V154L75 121V745zm210-54H139V240H285V691zM892 802H508V576H892V802z"/><glyph unicode="&#13672;" horiz-adv-x="1024" vert-adv-y="918" d="M460 826l65-33H764l32 27 59-48-27-22V52l1-7V40l1-3 1-2 1-1 1-1h2l3-1 5-1 7-1h68l32 135h11L950 30l19-13L982-2 969-22 950-34H850l-14 1-14 2-13 4-12 7-10 9-9 10-7 13-4 13-3 13V52 772H525V428l-4-66-8-63-13-59-17-56-22-52-26-49-30-45L370-3 330-39 286-70l-6 8 36 38 31 40 28 42 25 45 20 46 16 50 11 53 9 56 4 58V826zM71 745l65-32H275l33 27 59-49-27-21V186l-65-32v64H136V154L71 121V745zm204-54H136V240H275V691zM646 406l-5 22-6 21-8 20-9 21-10 19-23 39-29 37 5 8 22-13 20-14 19-17 18-17 16-19 14-21 13-22 11-23 10-23 9-26-5-24-20-14-24 4-14 20-4 22z"/><glyph unicode="&#13673;" horiz-adv-x="1024" vert-adv-y="918" d="M641 863l65-10 16-11-16-10V675H845l54 54 65-54V654H706V439H827l54 53 64-53V417H706V191H864l54 54 64-54V170H706V-45L641-77V170H364v21H641V417H401v22H641V654H382v21H641V863zM65 745l64-32H259l32 27 59-49-27-21V186l-64-32v64H129V154L65 121V745zm194-54H129V240H259V691z"/><glyph unicode="&#13674;" horiz-adv-x="1024" vert-adv-y="918" d="M610 633H457l1-15V591l-1-23-2-22-3-21-5-18-7-17-10-15-22-11-23 9-11 22 9 23 5 5 7 8 7 11 7 15 6 18 6 21 5 24 10 56 3 32h10l4-32 2-22H610V869l65-11 16-11-16-9V654H879l32 27 59-48-27-16-14-6-8-14-36-57-23-31-11-18-9 5 7 19 4 19 14 52 3 16 4 14 2 14 1 3H675v-1l-6-113-13-105-23-96-30-86-38-77-46-67-54-57-63-47-70-36-76-24-3 9 71 34L386 8l54 48 47 56 38 65 32 73 24 82 18 91 9 1e2 2 109v1zM921 25l32 134h11L953 25l19-13L985-8 972-27 953-40H750l-14 1-13 2-13 5-13 7-10 8-9 11-7 12-4 13-2 14-1 13V471l64-11 16-11-16-9V46l1-6 1-5 1-5 2-2 5-2 5-1h7H921zM69 745l65-32H270l32 27 59-49-26-21V186l-65-32v64H134V154L69 121V745zm201-54H134V240H270V691z"/><glyph unicode="&#13675;" horiz-adv-x="1024" vert-adv-y="918" d="M822-24l-10-9-10-8-11-6-11-6-12-5-12-4-13-3-13-1-13-1v33L609-18V-2H717h8l15 3 6 2 7 2 6 4 6 3 6 5 11 10 12 17 11 23 10 27 9 33 7 39 5 44 3 49 1 54v60l-1 13-2-1v43H651V416l-11-73-17-69-23-64-29-61-35-56-41-51L448-4 395-46 336-81l-5 8 51 43 46 46 39 49 35 51 28 54 23 57 18 61 12 65 6 68 2 71V627l65-11 16-11-16-9V492l-3-43H837l33 27 59-48-26-16 1-37 1-62-2-57-3-52-5-47-8-43-10-39-13-34-15-30-19-26-8-9zM82 745l64-32H295l33 27 59-49-27-21V186l-65-32v64H146V154L82 121V745zm213-54H146V240H295V691zm94-64v21H622V853l64-11 16-11-16-10V648H862l54 54 64-54V627H389z"/><glyph unicode="&#13676;" horiz-adv-x="1024" vert-adv-y="918" d="M897-19 876 41 865 68l-28-7-99-21L589 13 442-10l-27-4-10-18-12 15-18 63 109 8 5 1 71 211 30 94 27 92 12 45 2 8 59-27 13-15-19-4-43-118-59-138-44-93-25-46-4-8L632 67l50 3 51 5 50 3 52 3 24 1-21 47-46 85-33 56 8 7 25-22 45-49 40-54 36-57 31-61L958 3l-1-25-19-17-24 2-17 18zM65 745l64-32H259l32 27 59-49-27-21V186l-64-32v64H129V154L65 121V745zm194-54H129V240H259V691zm268 28 60-24 14-14-20-6-23-73-18-45-19-41-21-41-23-39-25-37-27-35-29-33-31-29-8 6 44 72 21 37 36 78 17 40 14 42 14 43 12 44 12 55zM903 381l-26 35-23 37-21 39-18 41-15 44-13 45-11 48-6 50-2 47H575v21H746l26 22 59-48-27-16-16-9 19-59 17-44 18-41 18-39 21-36 23-33 24-31 25-28 36-34-58-43-28 32z"/><glyph unicode="&#13677;" horiz-adv-x="1024" vert-adv-y="918" d="M886-24 848 17 813 61l-32 46-27 49-24 53-20 54-16 58-12 60-6 48-8-52-20-76-27-72-35-66-42-60-48-55L441 1 379-41 311-76l-4 8 61 44 54 47 48 50 41 54 35 58 28 63 22 68 15 72 6 51H372v21H620l1 5 2 82V702l-60-12-54-8-56-6-57-5-1 9 210 60 97 30 90 33 83 35 4-10 45-40 1-17-20 9-95-32-46-13-48-12-28-7V546l-7-86H855l54 54 64-54V439H687l16-53 21-56 22-53 25-49 26-47 30-43 32-41 35-37 38-35 55-43-58-44-43 38zM71 745l65-32H275l33 27 59-49-27-21V186l-65-32v64H136V154L71 121V745zm204-54H136V240H275V691z"/><glyph unicode="&#13679;" horiz-adv-x="1024" vert-adv-y="918" d="M332 348l64-32H622l32 26 59-48-27-21V73L622 41v64H396V41L332 9V348zm290-54H396V127H622V294zm84 56-46 37-40 40-34 43-29 46-22 49-13 42-2-11-18-44-21-42-25-39-30-36-34-33-38-31-41-27-46-24-49-20-4 9 43 29 39 30 36 31 32 32 27 33 23 35 20 36 15 39 12 39 5 25H206V-40L141-72V691l65-32H512l-2 11-2 56 4 51H270v22H490l27 22 59-48-27-17-22-11 3-18 11-51 5-17H818l33 27 59-48-27-22V14L882 1l-2-14-5-13-7-12-8-11-11-9-12-7-13-4-14-2-13-1v32L689-24V-8H797l6 1 5 1 5 2 2 2 2 5 1 5v6V638H553l4-11 20-44 24-41 28-38 34-36 38-32 43-30 48-28 26-14-60-47-52 33z"/><glyph unicode="&#13680;" horiz-adv-x="1024" vert-adv-y="918" d="M909 14l33 134h10L942 14 961 1l13-19-13-20-19-13H682l-14 2-14 2-12 4-13 7-11 9-8 10-7 13-4 13-3 13V35 269L375 235l-3 21 224 34V454L393 423l-4 21 207 32V669l-86-23-58-12-59-11-3 9 214 82 95 40 86 41 78 41 7-15 37-34V768l-20 9-78-35-92-35-57-18V486l133 21 45 61 72-43 4-21-254-40V3e2l192 29 45 62 72-44 4-21-313-47V29l1-5 2-5 2-2 5-1 5-1 7-1H909zM79 745l64-32H287l33 27 59-49-27-21V186l-65-32v64H143V154L79 121V745zm208-54H143V240H287V691z"/><glyph unicode="&#13681;" horiz-adv-x="1024" vert-adv-y="918" d="M594 869l65-11 16-11-16-9V605H842l54 54 64-54V584H658l-7-99-14-1e2-22-91-28-82-36-73-43-63-50-53-57-42-63-32-68-20-3 9 63 30L385 5l49 44 41 52 36 60 29 69 23 78 17 86 10 96 4 94H381v21H594V869zM904 19l33 135h10L937 19 956 6l13-19-13-19-19-13H740l-14 1-13 2-13 4-13 7-10 9-9 11-7 12-4 13-3 13V41 471l64-11 17-11-17-9V34l2-4 1-5 2-2 5-2 5-1 7-1H904zM79 745l64-32H287l33 27 59-49-27-21V186l-65-32v64H143V154L79 121V745zm208-54H143V240H287V691zm515 4-5 15-6 14-7 14-9 12-9 13-11 12-26 24-16 10 4 9 37-11 18-8 17-9 16-10 15-13 13-14 13-16 11-17 9-18-1-25-19-17-24 2-16 18-4 15z"/><glyph unicode="&#13682;" horiz-adv-x="1024" vert-adv-y="918" d="M878 125l-35 43-32 45-29 48-26 51-23 53-20 56-18 59-6 25V-40L625-72V467l-29-65-32-61-36-57-40-53-43-49-47-46-51-41-55-36-5 8 47 44 44 46 40 48 38 50 33 54 31 56 26 59 24 61 20 66 12 49H363v21H625V869l64-11 17-11-17-9V621H851l54 54 64-54V6e2H689V585l36-96 24-54 25-51 27-49 28-45 31-43 33-39 34-37 46-43-58-43-37 40zM63 745l64-32H271l32 27 60-49-27-21V208l-65-33v43H127V154L63 121V745zm208-54H127V240H271V691z"/><glyph unicode="&#13683;" horiz-adv-x="1024" vert-adv-y="918" d="M893 788l64-11 16-10-16-10V-13L893-45V19H475V-45L410-77V788l65-11 16-10-16-10V41H893V788zM783 218l-22 58-25 56-27 55-1 2-40-78-39-67-43-62-44-56-48-50-7 6 38 56 37 60 36 63 34 69 32 73 15 38-30 49-33 49-71 94-38 46 7 7 46-39 43-42 41-44 39-48 15-21 25 71 26 87 25 92 25 106 60-24 13-14-18-6-21-78-29-93-30-88-33-83-9-19 21-32 31-54 29-57 27-59 25-61-2-25-18-16-24 1-17 19-21 59zM71 745l65-32H275l33 27 59-49-27-21V186l-65-32v64H136V154L71 121V745zm204-54H136V240H275V691z"/><glyph unicode="&#13684;" horiz-adv-x="1024" vert-adv-y="918" d="M526 616l64-32H729l32 27 60-49-27-21V35 29l1-5 1-3 1-2V18l2-1h2l3-1 5-1 6-1h95l32 134h11L942 14 961 1l13-19-13-20-19-13H815l-14 2-13 2-13 4-12 7-11 9-9 10-6 13-5 13-2 13-1 13V562H590V401l-4-65-9-61-14-58-19-55-24-51-30-46-34-42-40-38-43-33-49-28-6 8 42 36L396 6l33 39 27 42 23 45 18 48 14 50 9 54 5 57 1 60V616zM65 745l64-32H259l32 27 59-49-27-21V186l-64-32v64H129V154L65 121V745zm194-54H129V240H259V691zM404 580l-23 8-11 22 8 23 6 6 7 10 7 13 7 17 6 20 6 23 6 27 5 29 4 33 5 35h9l8-61H892l32 27 59-49-26-16-14-5-26-47-31-50-13-18-11-19-9 4 7 21 18 77 4 17 4 16 3 14 1 6H455l1-17V718l-1-27-3-23-3-22-6-20-7-19-9-16-23-11z"/><glyph unicode="&#13685;" horiz-adv-x="1024" vert-adv-y="918" d="M338 9V30H615V401H414v22H615V772H385v21H826l54 54 65-54V772H680V423H786l53 53 65-53V401H680V30H850l53 54 65-54V9H338zM79 745l64-32H287l33 27 59-49-27-21V186l-65-32v64H143V154L79 121V745zm208-54H143V240H287V691z"/><glyph unicode="&#13686;" horiz-adv-x="1024" vert-adv-y="918" d="M323 14V35H491l56 404H392v21H550l41 296H354v21H831l54 54 64-54V756H656L615 460H772l32 27 60-48-27-22V35h24l54 54 65-54V14H323zM772 439H612L556 35H772V439zM68 745l64-32H267l32 27 59-49-27-21V186l-64-32v64H132V154L68 121V745zm199-54H132V240H267V691z"/><glyph unicode="&#13687;" horiz-adv-x="1024" vert-adv-y="918" d="M646 869l61-22 14-14-20-7-20-62-8-20-26-62-11-20-4-8H840l33 27 59-49-27-21V-8L840-40V25H506V-40L441-72V686l65-32H618l2 13 2 23 3 22 3 21 3 22 8 63 4 36 1 5 2 10zM840 337H506V46H840V337zM71 745l65-32H275l33 27 59-49-27-21V186l-65-32v64H136V154L71 121V745zm204-54H136V240H275V691zm565-59H506V358H840V632z"/><glyph unicode="&#13688;" horiz-adv-x="1024" vert-adv-y="918" d="M804 552l62-22 14-13-18-7-33-143-43-159-32-104-33-90H863l53 54 65-54V-8H349V14H709l58 310 19 108 18 120zM534 152l-5 52-6 49-7 48-7 46-9 43-9 41-20 78-11 36 8 4 21-32 19-36 16-39 15-41 14-44 12-46 12-49 17-103 7-56-7-23-22-12-23 8-12 21-3 55zM72 745l65-32H271l32 27 59-49-27-21V186l-64-32v64H137V154L72 121V745zm199-54H137V240H271V691zm118-70v22H633V847l64-10 17-11-17-10V643H823l53 54 65-54V621H389z"/><glyph unicode="&#13689;" horiz-adv-x="1024" vert-adv-y="918" d="M860-31 801 11 747 60l-46 55-5 8-15-18-48-46-52-41-56-36-58-29-63-24-3 9 56 33L510 6l49 40 46 43 42 46 22 29-7 12-32 67-26 73-17 78-11 84-2 84h-2V546l-12-97-17-89-24-84-30-76-37-69-44-62-49-55-56-46-62-38-6 8 55 45 48 51 42 56 36 61 31 67 25 73 18 80 13 86 7 92 1 13H363v22H511l1 64V858l65-11 16-10-16-10V648l-4-64H857l54 54 64-54V562H585l14-81 18-80 25-73 29-66 30-52 20 32 32 60 29 64 23 63 5 13 58-30 11-15-19-4-22-52-34-66-37-62-35-48 12-16 45-47 50-40 55-35 94-43-61-51-67 36zM71 745l65-32H275l33 27 59-49-27-21V186l-65-32v64H136V154L71 121V745zm204-54H136V240H275V691zm517 4-6 14-8 14-20 29-26 29-31 30-18 14 4 8 43-17 20-11 19-10 17-12 17-13 15-14 13-15 13-15 11-16 2-25-17-18-24-2-19 16-5 14z"/><glyph unicode="&#13690;" horiz-adv-x="1024" vert-adv-y="918" d="M646-56l-22-5-11-2-12-2-11-2-23-2-35-2v32L425-23V-6H532h11 9l10 1 10 1 10 1 19 3 29 6 12 5 10 8 11 11 10 16 9 21 8 25 7 31 6 35 4 39 1 33H351l-10-43-70-18 51 221H81v21H835l54 54 64-54V390H388L356 252H708l32 26 60-48-27-16-1-1-1-20-4-43-6-40-8-35-10-32-13-28-16-25-19-20-23-16-26-10zM164 848l65-32H403l33 26 59-48-27-21V547l-65-33v65H229V514l-65-32V848zm386 0 65-32H789l33 26 59-48-27-21V547l-65-33v65H615V514l-65-32V848zm239-54H615V6e2H789V794zm-386 0H229V6e2H403V794z"/><glyph unicode="&#13691;" horiz-adv-x="1024" vert-adv-y="918" d="M224 318l64-33H735l32 27 59-48-26-22V-13L735-46V19H288V-46L224-78V318zm511-54H288V40H735V264zM480 869l64-11 16-11-16-9V730H813l54 53 64-53V708H575l32-32 5-19-20 5-27-27-44-40-23-18 46-8 16-11-16-10V340l-64-32V562l-58-44-54-37-57-36-60-35-63-34-66-32-70-30-5 9 127 78 115 78 103 78 46 40 44 41 40 40 27 30H93v22H480V869zM880 358l-19 20-21 20-25 21-58 41-109 63-41 23 3 8 46-12 43-15 40-15 72-34 62-37 27-20 24-20 22-22 7-24-11-22-24-6-22 11-16 20z"/><glyph unicode="&#13692;" horiz-adv-x="1024" vert-adv-y="918" d="M890-21l-9-10-9-10-10-8-11-7-12-6-11-4-13-3-13-2-14-1v32L681-24V-8H788l8 1 6 1 7 2 5 1 6 3 4 3 5 4 4 4 4 6 5 6 9 21 9 31 9 43 8 53 6 63 6 74 5 82 2 93 3 102V686H519l-17-49-20-51-45-1e2-26-48-27-48-31-45-9 5 60 150 35 101 16 52 14 52 12 52 11 54 10 53 2 11 61-23 14-13-19-7-23-89-11-36H899l32 27 59-48-26-16-1-86-2-103-3-93-5-85-5-75-7-65-8-56-10-47-12-38-14-32-7-11zM454 511l65-10 16-11-16-10V148H747l54 54 64-54V127H519V62L454 30V511zM78 745l65-32H260l32 27 59-49-27-21V186l-64-32v64H143V154L78 121V745zM779 202l-20 14-56 96-15 22-18-26-28-36-31-33-32-30-34-26-7 7 51 68 24 35 45 76 3 6L553 523l6 7 59-47 28-26 36-38 32 76 16 46 15 48 3 8 59-28 11-15-19-5-32-76-22-45-23-43-4-6 52-67 45-63 3-24-14-20-25-3zM260 691H143V240H260V691z"/><glyph unicode="&#13693;" horiz-adv-x="1024" vert-adv-y="918" d="M932-4 908 43 880 89l-32 44-61 76-54-72-69-63-78-52-88-43-97-34-4 9L489-3l82 49 71 55 60 63 50 73 42 85 31 99 23 114 14 131 4 150 1 12 64-13 16-11-17-10-7-133-18-136-27-119-39-103-43-81 37-24 23-18 22-19 41-42 37-44 33-47 3-24-16-20-24-2L932-4zM393 98l-32 58 66 20 4 2V793l65-10 16-11-16-10V2e2l171 63 42 14 4-9-73-45-102-56-91-44-33-15-5-21-16 11zM71 745l65-32H275l33 27 59-49-27-21V186l-65-32v64H136V154L71 121V745zm204-54H136V240H275V691zM682 548l-10 21-10 21-24 39-28 38-48 55 5 8 23-11 23-13 20-15 20-16 19-18 17-18 17-20 16-21 14-22 14-23V528l-17-18H709l-19 16-8 22z"/><glyph unicode="&#13694;" horiz-adv-x="1024" vert-adv-y="918" d="M920-8l32 135h11L952-8l20-12 13-20-13-19-20-13H614 6e2l-13 3-13 4-13 7-10 9-9 11-6 12-5 13-2 13-1 14V404l65-11 16-11-16-9V191l151 49 107 42 70 31 4-11 43-39 1-17-20 9-78-28-76-22-38-9-39-8-38-7-40-5-39-4h-8V8l1-5 1-4 1-2 1-1 2-1 3-1 5-1 7-1H920zM80 346l65-32H373l33 27 59-49-27-21V5L373-27V37H145V-27L80-60V346zm293-54H145V59H373V292zM351 439v16H458h7l5 1 4 2 3 2 1 5 1 5 1 6V869l64-11 16-11-16-9V476l-1-13-2-14-4-12-7-13-9-11-11-8-12-7-13-4-13-3-14-1v33L351 439zM333 777l54-35 9-17-20-1-33-49-51-63-29-30-30-28-33-28-34-27-37-25-39-23-6 8 63 62 57 61 49 62 22 31 39 64 14 28 5 10zM890 476l-21 31-47 60-51 57-57 53-92 78 5 8 37-17 37-20 35-21 33-23 32-25 31-26 58-56 53-61 5-24-13-21-24-6-21 13z"/><glyph unicode="&#13695;" horiz-adv-x="1024" vert-adv-y="918" d="M253 325l64-32H711l33 27 59-49-27-21V-10L711-42V11H317V-26L253-59V325zm458-54H317V33H711V271zm163 84-37 16-37 19-37 22-38 25-74 58-37 33-37 38-31 34V344l-64-32V571l-14-14-35-34-38-33-39-30-42-29-44-26-47-24-48-22-50-19-53-16-4 9 95 52 85 55 39 29 37 30 36 32 33 32 30 35 4 5H92v21H482V743l-39-5-66-6-69-5-71-3-75-3-1 10 276 47 118 24 54 11 99 25 44 13 2-8 54-44 2-16-23 10-18-4-47-11-50-9-52-8-56-8-18-3V624H829l54 54 64-54V603H564l110-77 78-47 74-35 35-14 35-12 34-8 45-12-64-57-37 14z"/><glyph unicode="&#13696;" horiz-adv-x="1024" vert-adv-y="918" d="M596 869l65-11 16-11-16-9V734H799l32 27 59-48-26-22V584h15l44 48 53-48V562H864V390l-65-32v54H661V283H796l54 54 64-54V261H661V132H847l54 54 65-54V111H661V-45L596-77V111H323v21H596V261H374v22H596V412H406v21H596V562H364v22H596V713H406v21H596V869zM69 745l65-32H253l32 27 59-49-27-21V208l-64-33v43H134V154L69 121V745zm184-54H134V240H253V691zM799 562H661V433H799V562zm0 151H661V584H799V713z"/><glyph unicode="&#13697;" horiz-adv-x="1024" vert-adv-y="918" d="M879-15 874 8l-8 23-9 24-4 9-70-27-81-27L588-25 502-48l-7-19-14 13L457 7 560 25l76 2e2 25 77 22 74 4 12 59-29 12-15-19-4-40-96-35-76-40-75-21-37-17-26L775 65l44 7 29 4-28 57-50 89 8 6 26-25 24-25 22-25 19-26 33-50 14-25 12-25L938 3l8-25-4-24-20-15-25 5-14 19-4 22zM604 606l61-23 13-14-19-7-14-52-18-55H871l54 54 64-54V433H619l-22-58-29-63-31-60-34-56-37-52-40-49-44-44-46-40-7 7 38 47 36 48 34 51 31 54 29 56 26 58 23 62 13 39H386v22H566l20 71 18 80zM70 745l64-32H272l32 27 59-49-27-21V186l-64-32v64H134V154L70 121V745zm202-54H134V240H272V691zm522-70-33 27-34 26-22 13-57-32-1e2-49-52-22-53-20-55-17-4 9 148 82 93 56 32 22-44 21-41 18-87 30-47 14 1 10 49-4 48-7 47-10 45-13 44-16 29-12 53 40 41 32 39 34h1l40-50 3-19-20 6-70-50-32-21 38-23 38-27 37-29 10-22-8-23-22-11-24 8-31 29z"/><glyph unicode="&#13698;" horiz-adv-x="1024" vert-adv-y="918" d="M852-34 781 13 725 77 715 96 694 81 642 48 589 18 533-10 475-34 415-54 353-71l-3 9L463-8l54 30 51 31 49 33 48 35 26 22-6 11-28 90-19 101-3 29H487V310l-64-33V734l64-32H620v15l-1 141v18l64-13 17-10-16-10V718 702H832l32 27 59-48-27-22V363l-64-32v43H7e2l2-20 18-95 22-70 51 51 40 47 46-46 6-18-20 4-29-30-45-41-24-20 12-23 45-51 56-39 38-13 28 122h11L946 0l7-3 20-14 4-24-14-20-25-5-86 32zM65 745l64-32H259l32 27 59-49-27-21V186l-64-32v64H129V154L65 121V745zm194-54H129V240H259V691zM624 530H487V396H633l-6 62-3 72zm208 0H688l4-68 6-66H832V530zM620 681H487V552H623l-2 30-1 99zm212 0H684l2-97 1-32H832V681z"/><glyph unicode="&#13699;" horiz-adv-x="1024" vert-adv-y="918" d="M553 367l65-33H856l32 27 59-48-26-22V-16L856-48V17H618V-48L553-80V367zM429 777l62-31 210 47 81 20 74 21 34 11 2-8 53-44 1-16-23 10-16-4-36-8-77-14-42-7-89-12-47-4-50-4-51-3H493V546H850l54 54 64-54V525H493V390l-3-62-6-59-10-56-13-52-16-49-19-45-23-42-25-38-30-33-33-29-7 7 24 34L353 3l19 38 16 41 14 44 11 47 8 50 6 52 2 56V777zM856 313H618V38H856V313zM71 745l65-32H275l33 27 59-49-27-21V186l-65-32v64H136V154L71 121V745zm204-54H136V240H275V691z"/><glyph unicode="&#13700;" horiz-adv-x="1024" vert-adv-y="918" d="M447 837l65-11 16-11-16-10V380l-4-64-6-60-10-57-13-52-16-48-20-43-23-39-27-35-30-29-34-23-6 8 25 29L370-1l19 35 17 39 14 42 11 45 8 49 6 53 2 57V837zm444 0 65-11 16-11-16-10V-34L891-67V837zM665 793l65-10 16-11-16-10V73L665 41V793zM53 745l64-32H229l32 27 59-49-27-21V186l-64-32v64H117V154L53 121V745zm176-54H117V240H229V691zM575 340l-1 22-2 22-2 23-4 24-4 23-17 76-7 26 8 4 16-23 14-24 24-47 9-24 16-47 6-25 5-23 4-24-9-24-22-10-23 8-11 22v21zm226 0-1 22-2 22-3 23-3 24-4 23-17 76-7 26 8 4 16-23 14-24 23-47 10-24 16-47 6-25 4-23 5-24-9-24-22-10-23 8-11 22v21zM358 277l-24 3-14 20 3 24 11 17 10 18 9 21 8 22 7 24 7 27 5 28 10 63 4 34 10 1 6-35 4-33 2-33-1-30-2-30-3-28-6-27-7-25-8-24-11-23-20-14z"/><glyph unicode="&#13701;" horiz-adv-x="1024" vert-adv-y="918" d="M892-46 838-21 791 22 751 80l-13 31-9-10-52-50L620 5 557-35 490-70l-5 8 61 44 56 45 50 49 46 52 20 27-28 97-20 116-16 138-6 121H475V380h65l44 48 54-48V358H474l-2-49-8-56-12-54-16-51-20-47-23-44-28-41-32-36-36-33-40-28-6 8 31 35L311-2l25 38 21 40 17 43 15 44 11 48 7 50 3 52V681l65-33H647l-1 21-2 184v18l65-13 16-11-16-9 1-167 2-23H847l54 54 65-54V627H713l6-115 14-135 20-110 12-41 9 14 30 61 26 65 21 67 17 81 62-22 13-14-19-7-15-55-25-71-31-68-36-62-33-48 24-56 32-48 34-30 36-18 9-1 30 129h11L949 9 973-2l8-22-10-23-23-8-56 9zM61 745l65-32H250l32 27 60-49-27-21V186l-65-32v64H126V154L61 121V745zm189-54H126V240H250V691zm613 43-3 10-4 11-6 12-7 11-10 13-10 14-27 28-17 13 5 8 19-9 20-8 17-10 17-9 15-11 14-11 12-12 11-13 9-14 7-14-2-24-19-16-25 3-15 19-1 9z"/><glyph unicode="&#13702;" horiz-adv-x="1024" vert-adv-y="918" d="M464 25V-40L4e2-72V621l64-32h97V826l65-11 16-11-16-9V589h98V826l64-11 16-11-16-9V589h98l32 27 59-48-27-22V-8L886-40V25H464zm97 290H464V46h97V315zm163 0H626V46h98V315zm162 0H788V46h98V315zM67 745l65-32H257l32 27 60-49-27-21V186l-65-32v64H132V154L67 121V745zm190-54H132V240H257V691zM561 568H464V337h97V568zm163 0H626V337h98V568zm162 0H788V337h98V568z"/><glyph unicode="&#13703;" horiz-adv-x="1024" vert-adv-y="918" d="M748-29v16h86l6 1 5 1 5 1 2 2 2 5 1 5 1 7V552H764V3L699-29V552H614V3L549-29V552H469V-45L404-77V605l65-32H580l5 11 51 145H356v21H862l54 54 64-54V729H705l-33-55-35-50-12-17-29-34H856l32 27 59-48-27-22V9L919-5l-2-13-4-13-7-13-9-10-11-9-12-7-13-4-14-2-13-1v32L748-29zM65 745l64-32H259l32 27 59-49-27-21V186l-64-32v64H129V154L65 121V745zm194-54H129V240H259V691z"/><glyph unicode="&#13704;" horiz-adv-x="1024" vert-adv-y="918" d="M168 228l64-32H792l32 27 59-49-27-21V-27L792-60V-6H232V-44L168-76V228zm624-54H232V16H792V174zm86 152 26 91h11l-11-91 17-11 10-16-10-16-17-11H426l-13 1-13 1-13 4-12 6-10 8-9 10-7 11-5 13-3 13-1 14v88l-28-16-87-43-90-40-94-37-4 9 89 46 86 48 82 48 46 29v56l64-11 2-1 42 30 54 41H55v21H426V734H146v22H426V869l64-11 17-11-17-9V756h70l54 54 64-54 34 35 57 63 2 2 46-45 5-19-19 4-47-48-65-61-69-58-10-8H851l53 54 65-54V6e2H584l-34-26-76-53-70-43V411l211 65 111 41 54 23 5 2 4-10 44-40 2-17-21 9-36-12-34-10-75-20-87-19-48-9-50-9-54-7-26-3V353v-7-5l1-3 1-5 1-1 2-2 4-2 5-1 8-1H878zM657 734H490V621h39l58 49 65 60 5 4z"/><glyph unicode="&#13705;" horiz-adv-x="1024" vert-adv-y="918" d="M370-29V-8h99V385l65-11 16-11-16-9V-8H637V568l65-11 16-11-16-9V294h82l44 48 54-48V272H702V-8H837l53 54L955-8V-29H370zM61 745l65-32H250l32 27 60-49-27-21V186l-65-32v64H126V154L61 121V745zm189-54H126V240H250V691zM898 451l-33 29-31 32-30 36-29 38-28 41-25 44-25 48-23 50-1 4-30-60-31-54-33-51-34-47-37-44-38-40-40-36-43-31-44-28-6 8 37 35 36 37 34 40 33 41 31 45 29 47 28 50 27 54 24 56 26 67 58-31 10-16-19-3-7-16 40-61 60-82 31-36 30-33 31-30 31-26 32-23 53-34-60-46-34 26z"/><glyph unicode="&#13706;" horiz-adv-x="1024" vert-adv-y="918" d="M635-25V-9H749l5 1 3 2 2 1h1l1 1 2 5 1 5v7V257H342v21H764V423l65-11h1v40H418v21H830V632H442v22H830V793H425v21H830l32 27 59-48-27-22V419l-64-32v6l-1-1V278h30l54 54 64-54V257H829V13L828-1l-3-14-4-12-6-12-9-12-11-8-13-7-12-4-14-3H743v32L635-25zM559 72l-2 10-5 11-6 12-18 27-26 31-15 17-19 16 6 8 42-23 37-22 15-12 14-12 13-13 11-13 9-14 7-14-3-25-19-15-25 3-15 19-1 9zM72 745l64-32H269l32 27 59-49-26-21V186l-65-32v64H136V154L72 121V745zm197-54H136V240H269V691z"/><glyph unicode="&#13707;" horiz-adv-x="1024" vert-adv-y="918" d="M920-7l32 134h11L952-7l20-13 13-19-13-20-20-13H614l-14 1-13 3-13 4-13 6-10 9-9 11-6 12-5 13-2 14-1 14V284l65-11 16-11-16-9V130l42 11 111 29 107 32 66 22h-1 1l5 2 2-8 51-43 1-17-22 10-13-4-75-18-37-8-38-7-76-11-39-4-39-3-39-2h-7V8l1-5 1-4 1-1V-3l1-1 2-1 3-1 5-1H920zM80 252l65-32H373l33 27 59-49-27-21V-8L373-40V13H145V-24L80-56V252zm293-54H145V35H373V198zM641 650l65-11 16-11-16-9V331l-65-32V650zm-301 0 64-11 17-11-17-9V568l-4-43-12-40-17-37-24-32-30-28-34-25-40-20-45-16-50-12-55-8-1 10 51 17 45 20 39 21 33 22 27 24 21 26 15 27 11 29 5 31 1 34v82zm538-50-49 19-47 21-45 22-44 25-42 26-41 29-38 31-36 33-12 12-22-21-42-35-44-32-47-30-50-28-52-25-54-23-57-21-60-17-61-14-3 9 113 49 54 26 50 27 47 29 46 30 42 32 40 33 37 35 31 33 5 6 45-47 2-7 88-53 42-22 86-40 45-17 46-16 47-14 92-24-63-57-49 16z"/><glyph unicode="&#13708;" horiz-adv-x="1024" vert-adv-y="918" d="M80 274l65-32H373l33 27 59-49-27-21V-10L373-42V23H145V-42L80-74V274zM920-2l32 134h11L952-2l20-13 13-19-13-20-20-13H614l-14 1-13 2-13 5-13 6-10 9-9 11-6 12-5 13-2 13-1 14V311l65-11 16-11-16-9V146l152 42 108 33 70 25 2-8 50-42 1-17-21 10-86-23-75-17-77-12-38-5-40-3-39-2h-7V12l1-4 1-4 1-1V2l1-1 2-1 3-1 5-1H920zM373 220H145V44H373V220zM339 884l49-42 7-18-20 2-44-51-31-32-60-57 27-5 17-11-17-9V353l-64-32V654l-77-58-39-26-42-24-6 8 102 96 62 64 57 66 27 32 49 69 3 3zM553 713H373v21H553V868l65-11 16-11-16-9V734H760l32 27 59-48-27-22V406l1-5 1-3 2-2v-1l1-1 2-1 3-1 5-1h7 64l32 134h11L942 391l19-13 13-19-13-20-19-13H846l-14 1-14 3-12 4-13 6-11 9-8 11-7 13-4 12-3 14v13V713H618v-2l-5-59-12-55-19-51-26-47-33-42-38-36-46-32-51-26-57-21-63-16-2 9 58 26 51 28 45 30 38 33 30 35 26 38 18 42 13 44 7 48 1 52v2z"/><glyph unicode="&#13709;" horiz-adv-x="1024" vert-adv-y="918" d="M80 263l65-32H373l33 27 59-48-27-22V-15L373-47V18H145V-47L80-79V263zM920-5l32 135h11L952-5l20-13 13-19-13-19-20-13H614l-14 1-13 2-13 4-13 7-10 9-9 11-6 12-5 13-2 13-1 14V297l65-10 16-11-16-10V138l153 40 107 33 70 25 3-9 50-42 2-16-23 9-49-13-37-9-75-16-38-6-39-6-38-4-40-3-39-2h-7V10l1-5 1-3 1-2 1-2 2-1 3-1h5l7-1H920zM373 210H145V39H373V210zM603 877l65-10 16-11-16-10V550l187 11 51 57 67-49 2-22-307-19V349l-65-32V524L56 490l-2 22 549 34V877zM301 596l-6 8-8 8-10 9-14 10-34 19-43 20-25 9 2 10 27-4 25-3 23-4 22-4 20-5 18-6 17-7 15-8 14-9 12-11 5-24-11-21-25-6-21 13-3 6zM414 730l-5 8-8 8-9 9-12 8-14 10-34 18-20 10-22 8 2 9 24-3 22-2 21-3 20-4 18-5 17-6 15-6 15-8 13-9 11-10 6-24-11-21-25-6-21 12-3 7z"/><glyph unicode="&#13710;" horiz-adv-x="1024" vert-adv-y="918" d="M641 258l65-11 16-11-16-10V-47L641-80V258zm-301 0 64-11 17-11-17-10V178l-4-41-12-38-18-36-24-31L317 5 282-18 243-37 198-53 148-64 93-72 92-62l51 18 45 19L227-5l33 21 27 23 21 25 15 26 11 27 5 30 1 31v80zm538-49-48 18-47 19-46 22-43 23-43 26-40 28-39 29-36 32-11 12-23-21-42-33-45-31-47-29-49-26-52-24-54-22-57-20-60-16-61-13-3 9 114 47 53 25 50 26 48 28 45 29 42 30 40 32 37 34 36 37 45-48v-4l89-51 42-21 43-20 44-18 91-31 46-14 48-11 45-12-62-57-50 16zM1e2 844l65-32H375l32 27 59-49-27-21V503l-64-33v43H165V449l-65-32V844zM925 514l33 134h10L958 514l19-13 13-19-13-20-19-13H616l-14 2-14 2-13 4-11 6-11 10-9 10-7 13-4 13-3 13v13V862l64-10 16-11-16-10V692l71 31 214 85 3-9 49-42 1-16-22 9-11-3-154-41-105-25-38-7-8-2V535l1-6v-5l1-3 1-2 2-2 2-1 3-1 5-1h7H925zM375 790H165V535H375V790z"/><glyph unicode="&#13711;" horiz-adv-x="1024" vert-adv-y="918" d="M332-30V-9H617V190H380v22H617V367l64-11 16-11-16-10V212H8e2l53 54 65-54V190H681V-9H847l54 54L966-9V-30H332zM69 745l65-32H262l32 27 59-49-26-21V186l-65-32v64H134V154L69 121V745zm193-54H134V240H262V691zM430 826l64-33H8e2l32 27 59-48-27-22V380l-64-33v65H494V347l-64-32V826zM8e2 592H494V433H8e2V592zm0 180H494V613H8e2V772z"/><glyph unicode="&#13712;" horiz-adv-x="1024" vert-adv-y="918" d="M522 269l-12-40H775V364H528V329l-6-60zM775 512H528V386H775V512zM566 880l64-33H845l33 27 59-48-27-22V596l-65-32v64H630V612l-64-32V880zm-452 0 65-33H394l32 27 59-48-27-22V618l-64-33v43H179V612l-65-32V880zm731-54H630V650H845V826zm-451 0H179V650H394V826zm70-462H55v22H464V512H173v21H775l33 27 59-48-27-22V386h32l54 54 64-54V364H840V175l-65-32v65H502l-22-46-34-46-43-42-51-38L293 3 226-26 151-51 67-70l-3 9 80 30L215 1l62 33 52 35 44 38 34 40 27 42 7 19H163v21H450l1 4 10 47 3 49v35z"/><glyph unicode="&#13713;" horiz-adv-x="1024" vert-adv-y="918" d="M888-49 838-17 796 34l-34 67-5 16-43-51-47-46-50-39-53-32-56-25-4 9 49 34L6e2 4l43 42 40 46 37 51 18 29-5 12-23 1e2-7 49V315H608V62L543 30V315H475V261l-2-38-6-38-9-35-13-33-15-31-20-28-22-26L362 9 333-11 301-27l-6 8L320 5l22 25 18 24 16 26 13 26 10 28 7 29 4 31 1 32-1 35h1-1v54H327v22h83V568l65-11 16-11-16-9V337h68V568l65-11 16-11-16-9V337h18l34 37 42-37-10 65-14 135-5 84H327v22H672l-3 45-4 165v17l64-11 16-11-15-10 3-147 3-48H862l54 54 64-54V621H738l5-80 13-131 18-113 9-41 30 70 25 72 21 72 4 14 60-27 13-15-20-5-20-59-30-74-33-68-31-53 20-58 29-57 30-37 32-21 3-1 29 129h11L946 3l22-9 10-23-10-23-23-9-57 12zM53 745l64-32H229l32 27 59-49-27-21V186l-64-32v64H117V154L53 121V745zm176-54H117V240H229V691zm624 43-4 12-13 23-7 12-17 24-20 25-12 11 5 8 15-8 16-7 14-7 28-18 13-10 23-21 10-12 10-13 2-24-15-19-25-3-19 16-4 11z"/><glyph unicode="&#13714;" horiz-adv-x="1024" vert-adv-y="918" d="M933 101l-6-12-8-11-9-10-10-8-12-7-12-6-13-3-13-2-14-1V73L782 89v16h54l8 1 6 1 4 2 5 1 4 2 3 3 3 3 6 10 3 7 5 22 3 14 4 34 4 41 1 23v25 16H709V-40L645-72V248l-18-26-30-39-32-37-34-35-36-32-38-31-41-28L374-5 329-27l-5 8 75 62 68 66 60 69 27 38 25 38 23 40 8 16H470l-9-68-68-24 45 338 53-37H645V681H414v21H724l8 17 7 20 49 125 5 10 54-36 9-17-22-1-26-35-49-59-14-15-8-9H864l32 27 60-48-27-22V466l-65-33v65H709V331H895l33 27 59-48-27-16v-1l-1-26-1-25-3-44-5-38-4-16-3-16-5-15-5-12zM68 745l64-32H267l32 27 59-49-27-21V186l-64-32v64H132V154L68 121V745zm199-54H132V240H267V691zM645 498H495L473 331H645V498zM864 681H709V519H864V681zM547 749l-1 11-3 11-4 13-5 12-6 13-7 13-18 27-13 13 6 7 15-9 16-9 15-10 12-10 13-12 11-12 19-26 7-14 7-15-4-24-20-15-24 5-15 20-1 11z"/><glyph unicode="&#13715;" horiz-adv-x="1024" vert-adv-y="918" d="M639 476l64-10 17-11-17-10V337h99l54 53 64-53V315H703V218h79l44 49 54-49V197H703V111H849l54 54 64-54V89H703V-51L639-83V89H375v22H639v86H459v21H639v97H434v22H639V476zM74 745l64-32H274l32 27 59-49-27-21V186l-64-32v64H138V154L74 121V745zm2e2-54H138V240H274V691zm321 70H796l5 6 1-1 27 22 59-48-27-16-17-7-25-37-40-51-44-46-10-9 40-26 41-20 43-16 46-13 49-9 51-9-63-61-54 14-51 19-47 22-44 27-40 30-8 8-50-36-53-33-56-27-59-23-62-18-65-12-2 10 61 22 57 25 54 27 51 31 47 35 42 35-24 29-27 43-22 46-8 23-17-29-22-33-24-30-25-28-28-24-29-22-31-19-5 8 45 52 41 57 18 31 16 32 16 34 15 35 12 37 12 39 2 9 60-28 11-15-19-5-25-57zm189-21H585l-4-7 19-28 29-39 30-36 24-23 13 13 38 46 35 48 15 26z"/><glyph unicode="&#13716;" horiz-adv-x="1024" vert-adv-y="918" d="M766 272H517V15H766V272zM58 745l65-32H242l32 27 60-49-27-21V218l-65-32v32H123V154L58 121V745zM892 232l-29 27-9 10-23-18V-28L766-60V-6H517V-44L452-76V293l-27-27-50-43-54-38-6 9 47 44 43 47 39 50 36 54 31 56 28 60 19 48H322v22H566l19 61 17 71 10 58H404v22H764l54 53 64-53V765H678l-17-72-21-74-16-44H846l54 53 65-53V553H718l40-71 46-69 24-31 24-28 26-25 27-23 28-20 50-31-60-46-31 23zM242 691H123V240H242V691zM705 553H616l-31-69-34-61-37-57-41-51 44-21H766l33 26 31-25-20 24-23 34-21 36-20 38-16 41-15 43-10 42z"/><glyph unicode="&#13717;" horiz-adv-x="1024" vert-adv-y="918" d="M790 683l59-28 12-15-20-5-9-22-42-89-12-24-27-49-8-12H865l53 53 65-53V417H7e2V234H828l53 54 65-54V213H7e2V-45L636-77V213H389v21H636V417H352v22H728l11 47 33 124 15 65 3 8zM65 745l64-32H259l32 27 59-49-27-21V186l-64-32v64H129V154L65 121V745zm194-54H129V240H259V691zM542 498l-3 21-7 41-10 38-12 39-6 18-8 19 8 5 28-30 13-17 12-18 10-19 19-41 8-21 7-23 7-23-6-24-21-13-23 6-14 20-2 22zM401 697v21H636V869l64-11 16-11-16-9V718H816l54 54 65-54V697H401z"/><glyph unicode="&#13718;" horiz-adv-x="1024" vert-adv-y="918" d="M168 237l64-33H792l32 27 59-48-27-22V-27L792-60V-6H232V-44L168-76V237zm624-54H232V16H792V183zM704 732l53-37 9-18H744l-51-64-48-54-25-25H851l53 54 65-54V513H544V373H797l54 53 64-53V351H544V239l-64-33V351H109v22H480V513H55v21H603l64 123 33 66h-1l5 9zM344 576l-5 17-5 16-7 16-7 16-9 16-20 32-12 16-13 15 6 7 36-22 16-12 15-13 15-15 13-16 12-16 12-17 9-18 9-19-3-25-19-15-24 2-16 19-3 16zM125 735v21H480V875l64-11 16-10-16-10V756H781l54 54 64-54V735H125z"/><glyph unicode="&#13719;" horiz-adv-x="1024" vert-adv-y="918" d="M846 228l59-48-27-17-15-6L764-63l-72-2L805 180H470v21H814l32 27zM61 745l65-32H250l32 27 60-49-27-21V186l-65-32v64H126V154L61 121V745zm189-54H126V240H250V691zM895 293l-31 23-31 25-29 28-28 29-26 33-25 34-24 37-21 40-1 2-30-49-30-41-31-38-34-36-34-33-37-30-39-27-40-23-42-20-5 9 36 28 34 29 33 31 31 32 30 35 28 36 26 38 25 41 23 43 22 45 3 6 55-35 10-16-21-2-1-3 65-75 27-29 58-51 29-21 30-20 30-17 58-30-60-48-33 20zM733 379l65-54V304H528v21H680l53 54zM449 635V571l-65-32V813l65-10 16-11-16-10V657H637V871l65-10 16-11-16-10V657H886V813l65-10 16-11-16-10V603l-65-32v64H449z"/><glyph unicode="&#13720;" horiz-adv-x="1024" vert-adv-y="918" d="M410 831l64-32H856l53 54 65-54V777H474V444H843l54 54 64-54V423H709l13-55 17-56 19-53 18-40 33 40 99 105-1 1 5 4 41-49 3-19-20 6-105-73-21-14-22-12-5-4 21-39 27-42 30-39 34-35 36-31 56-41-59-45-41 35L849 5 815 47 785 92l-25 49-22 51-17 55-13 57-8 60-2 59H616V53l78 24 67 17 4-9-61-34L613 4 479-58l-4-20-16 11-34 55 10 4L552 32V423H474V401l-3-64-6-61-10-57-12-54-16-50-20-47-22-42-26-38-29-34-33-29-7 7 24 35L335 3l18 39 17 42 13 44 11 48 8 51 5 55 3 58V831zM63 745l65-32H255l32 27 59-49-26-21V186l-65-32v64H128V154L63 121V745zm192-54H128V240H255V691zm580-10 65-54V605H529v22H781l54 54z"/><glyph unicode="&#13721;" horiz-adv-x="1024" vert-adv-y="918" d="M920-3l32 135h11L952-3l20-13 13-19-13-19-20-13H614l-14 1-13 2-13 4-13 7-10 9-9 11-6 12-5 13-2 13-1 14V383l65-11 16-11-16-9V183l152 47 71 25 71 29 34 15 4-10 46-40V232l-20 9-80-26-38-11-38-10-38-9-39-7-39-7-39-4-39-4h-8V12l1-4 1-4 1-1V2l1-1 2-2h3l5-1 7-1H920zM80 331l65-33H373l33 27 59-48-27-22V4L373-28V37H145V-28L80-60V331zm293-54H145V58H373V277zm95 184-6-12-8-11-9-11-10-8-11-7-12-6-13-3-13-2-14-1v32L265 448v16H372l7 1 6 1 5 1 4 2 3 2 6 6 3 4 3 6 2 7 9 32 4 19 6 42 2 22 4 50 1 45H302l-13-52-21-57-25-51-29-48-34-42-38-37-43-31-47-25-5 8 39 33 35 36 31 38 27 42 23 46 19 49 16 54 7 37H77v21H248l8 60 3 67v12l64-15 16-12-18-9-5-49-9-54H437l32 27 59-48-27-16v-1l-1-31-1-26-5-51-3-23-4-23-4-21-5-20-5-18-5-13zM587 784l65-32H856l32 27 59-48-26-22V456l-65-32v65H652V424l-65-32V784zm269-53H652V510H856V731z"/><glyph unicode="&#13722;" horiz-adv-x="1024" vert-adv-y="918" d="M920-5l32 135h11L952-5l20-13 13-19-13-19-20-13H614 6e2l-13 3-13 4-13 7-10 9-9 11-6 11-5 13-2 14-1 14V345l65-11 16-10-16-10V162l116 34 72 22 106 39 30 12 5 2 4-9 47-41 1-17-21 9-46-14-75-20-76-17-38-6-39-6-39-4-39-2-8-1V10l1-5 1-3 1-3 1-1 2-1 3-1h5l7-1H920zM80 301l65-32H373l33 27 59-49-27-21V-5L373-37V27H145V-37L80-69V301zm293-54H145V49H373V247zM623 364v17h97 6l5 1 3 1 2 1 1 1h1v3l1 3 1 5 1 6V687H351v22H741V864l65-11 16-11-16-9V709h60l54 53 64-53V687H806V402l-2-13-2-14-4-13-7-12-9-11-10-9-13-6-13-5-13-2-13-1v32l-97 16zM358 875l48-43 6-19-20 3-46-50-65-62-29-25 28-5 16-11-16-9V353l-65-33V650l-43-33-40-27-41-25-43-23-5 8 107 95 65 62 60 65 55 66 28 37zM549 515l-8 10-10 12-14 12-35 25-71 40-29 14 3 9 62-13 27-7 26-9 23-9 21-10 19-10 17-12 15-12 13-14 4-24-14-21-24-4-21 13-4 10z"/><glyph unicode="&#13723;" horiz-adv-x="1024" vert-adv-y="918" d="M80 274l65-32H373l33 27 59-49-27-21V-10L373-42V23H145V-42L80-74V274zM920-2l32 134h11L952-2l20-13 13-19-13-20-20-13H614l-14 1-13 2-13 5-13 6-10 9-9 11-6 12-5 13-2 13-1 14V311l65-11 16-11-16-9V146l152 42 108 33 70 25 2-8 50-42 1-17-21 10-86-23-75-17-77-12-38-5-40-3-39-2h-7V12l1-4 1-4 1-1V2l1-1 2-1 3-1 5-1H920zM373 220H145V44H373V220zM480 871l64-11 16-11-16-9V733H856l54 54 64-54V711H544V574H759l33 26 59-48-27-21V325l-65-33v65H265V319l-65-32V606l65-32H480V711H50v22H480V871zM265 552V378H759V552H265z"/><glyph unicode="&#13724;" horiz-adv-x="1024" vert-adv-y="918" d="M80 290l65-32H373l33 26 59-48-27-21V-10L373-42V23H145V-42L80-74V290zM920-8l32 135h11L952-8l20-12 13-20-13-19-20-13H614l-14 1-13 2-13 4-13 7-10 9-9 11-6 12-5 13-2 14-1 13V332l65-11 16-11-16-9V154l152 44 107 36 36 13 34 14 4-10 47-41 2-16-22 9-46-14-37-11-76-17-77-14-38-5-39-4-39-3h-8V8l1-5 1-4 1-1V-3l1-1 5-2 5-1 7-1H920zM373 236H145V44H373V236zM2e2 639l65-33H759l33 27 59-48-27-22V378l-65-32v65H265V346l-65-32V639zm559-54H265V432H759V585zM50 692v22H480V871l64-11 16-11-16-9V714H856l54 54 64-54V692H50z"/><glyph unicode="&#13725;" horiz-adv-x="1024" vert-adv-y="918" d="M80 268l65-33H373l33 27 59-48-27-22V-12L373-45V20H145V-45L80-77V268zM920-4l32 135h11L952-4l20-13 13-19-13-19-20-13H614 6e2l-13 3-13 4-13 7-10 9-9 11-6 11-5 13-2 14-1 14V303l65-11 16-11-16-10V141l153 41 72 22 70 23 35 13 3-8 50-43 1-16-21 10-13-5-74-18-75-16-38-6-39-6-38-5-40-3-39-1h-7V11l1-5 1-3 1-3 1-1 2-1 3-1h5l7-1H920zM373 214H145V41H373V214zM907 365l-94 39-85 45-39 24-36 26-33 27-31 28-28 30-17 23V363l-64-32V569l-36-28-39-28-41-26-44-25-46-22-49-21-51-19-53-16-56-14-4 9 102 48 47 24 87 51 39 27 37 27 34 29 29 28H68v21H480V753H147v21H480V875l64-11 16-11-16-10V774H759l54 54 64-54V753H544V634H837l53 54 65-54V613H559l83-56 72-40 39-19 84-35 132-44-62-54z"/><glyph unicode="&#13726;" horiz-adv-x="1024" vert-adv-y="918" d="M768-24V-8h97l6 1 5 1 3 1 2 1 1 1 1 1 1 1 1 4 1 5v6V374H694l-13-56-3-10 33-17 24-15 22-15 21-17 18-19 18-19 15-19 14-21 11-22V119l-17-17H813l-18 17-7 19-8 19-10 19-25 37-15 19-17 19-38 38-3 2-7-22-21-45-24-42-30-38-32-35-37-30-42-26-5 8 33 33 30 35 26 36 22 38 18 40 15 42 11 46 7 43H454V-40L389-72V428l65-32H638l2 32V536H512V471l-65-32V831l65-32H833l33 27 59-49-27-21V504l-65-33v65H705V482l-4-58-4-28H886l32 27 60-49-27-21V14L950 1l-3-14-4-13-6-12-9-11-11-9-12-7-13-4-13-2-14-1v32L768-24zM61 745l65-32H250l32 27 60-49-27-21V186l-65-32v64H126V154L61 121V745zm189-54H126V240H250V691zm583 86H512V557H833V777z"/><glyph unicode="&#13727;" horiz-adv-x="1024" vert-adv-y="918" d="M850-29 795-7 745 19 699 52 657 88l-5 5-28-21-60-38L5e2 3 431-23 357-43 278-57l-1 10 74 24L421 4l64 31 58 34 53 39 24 21-33 47-27 51-22 56-16 56H446v21H781l32 27 59-48-27-16-12-6-23-44-39-58-44-53-37-36 40-30 44-24 46-21 50-16L972 15 909-45 850-29zM73 745l64-32H263l32 27 59-49-27-21V186l-64-32v64H137V154L73 121V745zM773 339H534l24-47 30-50 31-44 34-38 34 37 37 51 32 55 17 36zM263 691H137V240H263V691zM389 344l-22 10-7 24 11 22 9 6 8 8 9 10 9 13 8 14 8 17 7 19 7 22 6 23 5 26 10-1 1-26 1-26v-4H745l18 49 32 80 56 126 55-35 9-17-21-1-73-118-33-48-27-36H895l4 4 3 5 2-2 24 20 59-48-27-17-28-11-18-15-10-9-34-26-12-9-11-10-8 6 9 13 19 39 20 39H459l-2-21-3-21-5-20-6-19-8-17-10-16-12-15-24-7zM504 574l-1 13-1 12-3 14-5 13-6 14-7 14-9 14-11 15-14 14 6 8 17-11 17-10 15-11 14-12 13-14 11-14 9-15 8-17 6-17 4-18-8-24-22-11-23 9-11 21 1 13zm155 32-1 12-3 12-4 13-5 14-7 14-8 15-20 32-14 15 7 8 17-13 17-11 15-12 14-13 13-13 12-13 10-15 8-14 7-16 5-16-6-24-21-13-24 6-12 21v11zM867 860l2-7 57-47 2-16-24 11-23-5-91-14-93-13-98-11-102-9-52-2-53-1-1 10 103 22 194 40 136 31 43 11z"/><glyph unicode="&#13728;" horiz-adv-x="1024" vert-adv-y="918" d="M501-25V-9H609h6l5 1 3 1 2 1 1 1 1 1 1 2 1 3 1 5v6V253H380v22H826l54 53 64-53V253H695V12L694-2l-2-13-5-13-7-12-8-11-11-9-12-6-13-4-14-3-13-1v33L501-25zm-1 225 56-33 10-17-21-2-17-29-17-23-36-44-21-22-44-42-25-20-27-18-7 7 72 98 30 47 25 46 10 23 9 23 3 6zM881 8l-9 20-22 40-27 39-33 38-37 38 5 8 25-11 25-14 22-15 21-16 20-18 18-19 17-20 16-20 14-23 13-22V-12L932-30H908L889-13 881 8zM61 745l65-32H250l32 27 60-49-27-21V186l-65-32v64H126V154L61 121V745zm189-54H126V240H250V691zM931 363l-28 25-54 56-25 30-24 31-23 33-21 35-19 36-18 37-14 36H638l-6-13-28-52-32-49-36-48-40-46-43-43-49-40-51-37-7 7 45 45 41 46 38 45 33 47 31 48 26 49 19 41H364v22H588l14 40 16 52 14 65 61-23 13-14-19-7-10-37-21-56-9-20H842l54 53 64-53V682H719l94-117 25-28 53-52 55-45 29-21 15-11-59-45zM753 487l65-54V411H507v22H7e2l53 54z"/><glyph unicode="&#13729;" horiz-adv-x="1024" vert-adv-y="918" d="M550 675l57-31 11-17-20-2-36-73-49-88-30-47 28-5 17-10-17-10V-40L447-72V364l-47-62-32-36-33-36-7 6 96 166 45 86 60 134 21 53zM888-30 849 6 813 45 779 87l-20 27-7-9-49-50-55-45-60-40-65-35-5 8 59 44 53 45 48 48 43 51 14 20-17 27-27 50-24 53-21 55-10 34-39-54-67-79-8 6 74 132 43 84 36 83 29 82 15 49 59-28 12-15-20-5-26-64-20-41-8-17H867l32 27 59-48-27-16-5-3-11-49-21-69-28-67-33-61-38-58-2-4 28-33 35-36 36-33 38-30 58-41-59-45-41 33zM55 745l65-32H234l32 27 59-49-27-21V186l-64-32v64H120V154L55 121V745zM865 482H704l-24-44-34-54 50-89 29-48 31-44 7-10 27 48 27 59 22 63 17 65 9 54zM234 691H120V240H234V691zM741 348l-2 20-4 20-6 20-7 20-5 11-7 9 7 7 9-8 11-6 19-14 9-9 8-8 8-10 8-10 13-23-2-24-19-16-24 2-16 19zM342 686v21H622V871l65-11 16-11-16-9V707H848l54 54 64-54V686H342z"/><glyph unicode="&#13730;" horiz-adv-x="1024" vert-adv-y="918" d="M337 745l54-27H616V874l64-11 16-10-16-10V718H863l53 54 65-54V697H391V380l-3-61-4-57-7-55-10-51-11-48-14-45-17-41-18-38-22-34-25-30-6 5 16 34L285-5l13 37 11 41 10 44 8 46 5 50 4 53 2 55-1 59V745zM399-64 374-3 438 9h2V464l54-10 13-11-13-9V21l55 14V648l59-11 14-11-14-9V365h28l33 38 43-38V344H608V50L726 80l3-9-76-39L581 1 484-37 425-56l-5-1-7-20-14 13zM911 488h-1l4 4 2 4 49-43 6-18-20 2-43-43-39-33-40-27-21-11-12-6V32 25l1-5 1-3 1-1 1-1 1-2 2-1h3l5-1 6-1H926l33 135h10L959 10 978-3l13-19-13-19-19-13H817l-14 1-13 2-13 4-12 7-11 9-9 11-6 12-4 13-3 13-1 14V629l65-11 16-11-16-9V348l27 28 46 55 30 40 12 17zM56 745l65-32H231l30 27 56-49-26-18V186l-60-30v62H121V154L56 121V745zm175-54H121V240H231V691z"/><glyph unicode="&#13731;" horiz-adv-x="1024" vert-adv-y="918" d="M449 331l64-32H801l32 27 59-49-27-21V-13L801-45V19H513V-45L449-77V331zm352-54H513V41H801V277zM69 745l65-32H262l32 27 59-49-26-21V186l-65-32v64H134V154L69 121V745zm193-54H134V240H262V691zm536-7 56-31 11-16-20-3-24-44-42-70-54-78-11-14H854l54 54 65-54V406H341v22H698l83 208 13 36-1 1 5 11zM515 496l-5 20-5 21-6 19-7 20-17 37-19 37-11 18 6 7 18-13 17-15 16-15 15-18 13-18 13-20 11-20 10-22 9-22 8-23-4-25-20-14-24 4-15 20-3 22zM365 702v22H625V863l64-10 17-11-17-10V724H830l54 53 65-53V702H365z"/><glyph unicode="&#13732;" horiz-adv-x="1024" vert-adv-y="918" d="M892 639l65-11 16-10-16-10V-19L892-52V2H419V-35L360-65V639l59-11 15-10-15-10V24H892V639zM56 745l65-32H239l30 27 56-49-26-18V186l-60-30v62H121V154L56 121V745zM816 154l-14 32-18 33-21 34-37 53-12 15V295l-1-43-3-36-2-31-4-25-6-21-5-12-7-12-7-11-9-9-11-8-12-7-12-6-13-3-13-2-14-1v32l-64 16v16h64l8 1 6 1 5 1 4 2 4 2 3 3 4 4 3 4 3 5 3 7 2 11 4 19 2 28 2 35 1 41 1 49v54l-1 62-3 69v22h-2v43H608l-3-20-68-24 28 216H340v21H856l53 54 65-54V767H631L611 616h33l32 27 59-48-26-16 2-47 2-70 1-62V345 328l3 4 39-27 18-13 17-14 31-30 28-32 23-33 1-24-15-19-24-2-19 16zM423 192l8 7 35 25 99 80 69 57 8-6-34-52-52-66-52-56-16-17 2-22-19 6-48 44zM239 691H121V240H239V691zM529 397l-5 14-11 29-15 28-17 28-10 14-12 13 7 8 30-19 15-10 27-24 13-12 22-28 11-15 9-16V383l-18-18H551l-18 17-4 15zM817 538l49-42 7-19-22 3-22-21-43-38-31-25-17-12-16-13-7 7 12 17 42 66 20 30 28 47z"/><glyph unicode="&#13733;" horiz-adv-x="1024" vert-adv-y="918" d="M371 837l65-33H894l32 27 60-48-27-22V-13L894-45V9H436V-29L371-61V837zM829 165l-24 27-22 30-21 31-19 33-17 35-16 37-9 29V101L636 68V348l-20-36-24-36-26-34-27-31-29-28-32-25-33-22-6 8 26 29 47 60 22 33 19 34 19 35 17 38 15 39 14 41 6 23H450v22H636V638l-45-10-37-7-38-5-39-3-3 10 107 39 65 26 31 14 58 29 26 15 26 16 10-17 33-33 1-18-20 8-21-11-62-25-27-9V498h69l53 54 65-54V476H701V459l45-84 19-33 21-30 21-28 45-49 23-21 19-15V783H436V30H894V170l-39-30-26 25zM63 745l64-32H236l32 27 60-49-27-21V186l-65-32v64H127V154L63 121V745zm173-54H127V240H236V691z"/><glyph unicode="&#13735;" horiz-adv-x="1024" vert-adv-y="918" d="M8e2 150H526V20H8e2V150zM63 745l65-32H255l32 27 59-49-26-21V186l-65-32v64H128V154L63 121V745zM8e2 302H526V171H8e2V302zM255 691H128V240H255V691zM886 311l-21 12 27-21-27-22V-23L8e2-55V-1H526V-39L461-71V355l65-32H8e2l28 23-35 27-39 40-32 46-26 51-20 57-4 17H497V419l129 24 37 6 36 5 3-9-68-30-1e2-35-33-11-97-28-10-2-8-20-13 14-23 61 10 2 72 12V777l60-29 165 49 72 23 97 38 5 2 4-10 47-40 1-17-22 9-43-14-74-19-29-7 3-62 7-61 8-34H836l54 54 64-54V584H738l18-49 22-43 26-38 32-33 36-28 42-23 9-4 28 121h11L952 355l9-3 18-17 3-24-16-19-25-2-55 21zM653 695l-2 54-62-10-40-5-41-3H497V605H667l-5 23-9 67z"/><glyph unicode="&#13737;" horiz-adv-x="1024" vert-adv-y="918" d="M890 4 853 47 819 95l-16 29-35-55-37-47-40-40-43-32-6 7L677-4l31 44 30 48 28 53 13 31-15 35-22 63-18 69-14 73-10 79-4 79H634V-35L570-68V184l-43-26-74-40-68-31-1-1-6-20-15 11-31 58 11 4 21 5 28 8V770H344v21H857l54 54 64-54V770H634V591H881l33 27 59-48-27-16-5-2-12-67-20-84-23-79-25-73-28-66 35-55 33-40 36-35 37-29 18-12-60-45L890 4zM60 745l65-32H249l32 27 59-49-27-21V186l-64-32v64H125V154L60 121V745zM570 369H456V171l84 28 29 9h1V369zM880 570H706l16-76 18-75 21-70 23-64 20-46 10 27 21 71 18 76 15 83 12 74zM249 691H125V240H249V691zM570 570H456V391H570V570zm0 2e2H456V591H570V770z"/><glyph unicode="&#13738;" horiz-adv-x="1024" vert-adv-y="918" d="M749 847l-16-9 4-184H867l54 53 64-53V632H739l13-168 23-142 16-65 31 61 30 73 28 87 59-27 12-14-19-6-23-62-35-77-40-69-23-34 22-59 31-58 29-37 25-20 1-1 28 124h11L948 3l22-9 10-23-10-23-23-9-30 5-34 16-36 30-37 47-36 66-10 27-24-27-53-51L629 9 566-27 499-55 427-76l-3 9 66 30L551-2l57 40 52 45 47 50 38 49-5 11-29 117-23 146-14 176H351v22H673l-5 199v18l64-13 17-11zM320 97l74 20 244 70 39 9 3-9-34-20-102-50L412 62 370 46l-6-20-15 13-29 58zM65 745l64-32H243l32 27 59-49-27-21V186l-64-32v64H129V154L65 121V745zM388 546l65-32H566l32 27 59-49-27-21V261l-64-32v43H453V208l-65-33V546zM243 691H129V240H243V691zM566 492H453V294H566V492zM863 732l-12 25-15 25-18 24-21 24-11 11-14 11 5 8 16-7 17-5 15-7 15-8 16-9 13-10 26-23 12-13 11-13 4-24-15-20-24-3-20 14z"/><glyph unicode="&#13739;" horiz-adv-x="1024" vert-adv-y="918" d="M575 304H779l3 5 1-1 28 23 59-48-27-16-15-7-26-43-42-57-46-51-12-10 32-22 45-25 50-22 55-19L988-17 925-74 863-53 804-28 751 0 703 32 664 64 610 25 552-8 490-35 424-55 355-69l-73-7-1 9 70 18 65 21L476-2l56 30 52 34 45 38-35 46-25 44-18 48-3 13-25-39-23-30-26-29-28-27-30-24-34-21-5 7 48 58 21 29 20 30 18 31 16 32 14 32 11 33 10 35 7 30 3 15 61-24 13-14-20-7-5-18-15-37-4-9zM65 745l64-32H259l32 27 59-49-27-21V186l-64-32v64H129V154L65 121V745zM768 283H565l-6-12 12-25 25-40 29-37 32-34 4-3 14 14 40 49 35 54 18 34zM259 691H129V240H259V691zM915 428l27 91h10l-10-91 16-11 10-16-10-16-16-11H780l-14 1-13 1-12 4-12 6-11 8-9 10-7 12-5 12-2 13-1 14V568H541l46-17 13-14-20-7-2-7-13-26-15-25-18-24-21-23-24-21-27-20-29-19-33-17-35-15-5 8 56 47 24 23 21 22 18 22 15 22 11 22 10 22 7 21 3 22 1 4H334v21H609V713H393v21H609V869l64-11 16-11-16-9V734H784l54 54 64-54V713H673V589H869l54 54 64-54V568H758V455v-7-4l1-4v-2l1-3 1-1 3-2 3-1 5-2 8-1H915z"/><glyph unicode="&#13740;" horiz-adv-x="1024" vert-adv-y="918" d="M871-64 806-38 745-9 694 23l-15-8-64-31-71-24-77-20-83-14-2 10 79 24 73 27 66 30 59 33-17 13-43 41-38 45-30 49-24 52-16 51H427v22H868l33 26 59-48-27-16-11-5-16-38-32-55-38-52-46-45-43-33 25-12 57-25L892 0l112-28-62-58-71 22zm-8 365H503l24-41 30-45 35-41 38-38 43-34 31-20 7 5 45 40 38 43 31 47 26 50 12 34zM78 745l64-32H276l32 27 59-49-26-21V186l-65-32v64H142V154L78 121V745zm198-54H142V240H276V691zM656 870l9-16 34-34 1-18-20 8-31-12-41-15-44-13-23-6-24-4-18-4V628h83l44 48 54-48V606H499V468H883V606H725v22H883V767H729v22H883l33 27 59-49-27-21V425l-65-33v54H499V409l-65-33V799l54-27 1e2 55 68 43z"/><glyph unicode="&#13741;" horiz-adv-x="1024" vert-adv-y="918" d="M474-29v16H582l6 1 5 1 3 1h3v1l1 1 1 2 1 3 1 5V9 417l65-11 16-10-16-10V9L667-5l-2-13-5-13-6-13-9-10-11-9-12-7-13-4-13-2-14-1v32L474-29zM778 39l-4 20-3 20-5 20-13 39-24 59-10 20 8 6 32-32 15-17 13-19 23-38 10-21 9-21 8-22 6-22-5-25L817-7 794-2 780 19l-2 20zM395-6 372 3l-8 23 9 23 16 14 15 17 14 17 13 20 12 21 10 23 9 25 9 27 7 29 7 31 10-1 3-32 1-31-3-31-4-29-7-27-9-27-11-25-14-24-15-23L418 2 395-6zM913 58l-4 17-11 36-7 19-18 37-34 61-13 21 7 6 38-32 18-17 31-35 13-18 23-37 10-20 9-19-3-24-19-16-24 2-16 19zM75 745l65-32H253l33 27 59-49-27-21V186l-65-32v64H140V154L75 121V745zm178-54H140V240H253V691zM929 286l-28 23-53 48-25 26-46 57-21 30-20 33-19 33-14 32H624l-35-68-35-53-38-50-42-44-46-41-50-35-53-30-5 8 46 38 43 40 39 43 36 47 32 48 29 53 19 44H356v21H574l19 50 18 63 7 30-77-7-54-4-56-2H373l-1 9 264 52 92 20 85 23 38 11 2-7 54-45 1-16-23 11-17-5-85-17-91-14-7-1-15-55-24-66-13-30H853l54 54 64-54V568H718l93-98 51-47 26-22 54-39 46-30-59-46z"/><glyph unicode="&#13742;" horiz-adv-x="1024" vert-adv-y="918" d="M769-27v16h86l6 1h5l4 1 1 1 2 3 1 1 1 3 1 5v7V162H782V2L717-30V162H627V-12L563-45V162H468V-47L403-79V414l65-32H876l33 27 59-48-27-22V11L940-3l-2-13-5-13-6-12-9-11-11-9-12-7-13-4-14-2-13-1v32L769-27zM61 745l65-32H250l32 27 60-49-27-21V186l-65-32v64H126V154L61 121V745zM563 361H468V183h95V361zm154 0H627V183h90V361zm159 0H782V183h94V361zM250 691H126V240H250V691zM897 504l-33 26-32 27-30 31-29 33-28 36-26 39-25 41-22 44-2 4-32-55-31-46-33-43-34-41-37-37-38-33-40-31-43-27-44-23-4 8 73 64 34 34 33 36 31 39 30 40 28 44 25 46 25 47 23 52 3 6 56-33 10-17-20-2-4-8 69-86 30-33 30-31 30-28 31-24 31-23 32-19 58-32-61-48-34 23zM768 557l64-54V482H488v21H714l54 54z"/><glyph unicode="&#13743;" horiz-adv-x="1024" vert-adv-y="918" d="M920-8l32 135h11L952-8l20-12 13-20-13-19-20-13H614 6e2l-13 3-13 4-13 7-10 9-9 11-6 12-5 13-2 13-1 14V404l65-11 16-11-16-9V191l151 49 107 42 70 31 4-11 43-39 1-17-20 9-78-28-76-22-38-9-39-8-38-7-40-5-39-4h-8V8l1-5 1-4 1-2 1-1 2-1 3-1 5-1 7-1H920zM80 346l65-32H373l33 27 59-49-27-21V5L373-27V37H145V-27L80-60V346zm293-54H145V59H373V292zM716 403v16H824l6 1 5 1 5 2 2 2 2 5 1 4v7V842H179V391l-65-32V896l65-32H845l33 27 59-49-27-21V441l-1-14-2-13-5-13-7-12-8-11-11-9-12-7-13-4-14-2-13-1v32L716 403zM311 705l64-32H648l32 26 59-48-26-21V482l-65-32v54H375V466l-64-32V705zm337-54H375V525H648V651zm68 160 54-48V741H254v22H672l44 48z"/><glyph unicode="&#13744;" horiz-adv-x="1024" vert-adv-y="918" d="M716-21V-5H824l6 1 5 1 5 1 2 3 2 4 1 5v7V422H179V-33L114-66V476l65-32H845l33 26 59-48-27-21V17L909 3l-2-13-5-13-7-12-8-11-11-9-12-7-13-4-14-2-13-1v32L716-21zM311 283l64-32H648l32 26 59-48-26-21V59L648 27V81H375V43L311 11V283zm337-54H375V102H648V229zm68 161 54-48V320H254v22H672l44 48zM1e2 860l65-32H375l32 27 59-49-27-21V537l-64-32v54H165V521l-65-32V860zM616 504l-14 1-13 1-12 4-12 6-11 8-9 10-6 12-5 12-3 13-1 14V872l64-11 16-11-16-9V721l72 28 214 77 2-8 51-43 2-16-23 10-14-5-89-20-64-15-106-21-37-6-8-2V573l1-3 1-3v-1l1-2 3-2 3-1 6-2 7-1H931l27 91h10l-10-91 16-11 11-16-11-16-16-11H616zM375 806H165V580H375V806z"/><glyph unicode="&#13745;" horiz-adv-x="1024" vert-adv-y="918" d="M168 232l64-32H792l32 27 59-49-27-21V-37L792-69v54H232V-53L168-85V232zm624-54H232V6H792V178zM361 748l42-39 6-19-20 3-45-46-65-58-28-22 28-5 16-10-16-10V262l-65-32V539l-44-31-39-25-40-23-43-21-5 8 106 90 65 59 60 60 55 62 23 30H55v21H480V875l64-11 16-11-16-10V769H851l53 54 65-54V748H361zM864 253l-60 23-57 26-52 30-48 32-11 9-51-32-63-31-68-28-73-23-78-18-2 10 74 27 68 31 63 32 57 35 37 27-35 35-35 42-29 45-16 34-27-27-27-23-29-24-32-21-6 7 68 85 38 54 17 26 14 26 13 26 10 25 8 21h-1l5 12 58-30 10-16-20-4-19-35-11-16H792l2 2v1l30 24 59-48-27-17-14-5-20-38-37-53-42-49-48-44-18-14 45-24 51-24 53-21 58-18 107-26-63-58-64 20zM782 624H539l-32-42-13-14 26-30 34-37 38-35 40-32 4-2 25 23 41 44 36 46 30 50 14 29zM622 526l-1 4-1 6-4 6-5 7-5 8-16 16-9 9-13 6 4 9 13-5 14-2 12-2 12-4 11-3 10-5 10-5 9-5 8-7 8-8 1-25-16-19-25-1-18 16 1 4z"/><glyph unicode="&#13746;" horiz-adv-x="1024" vert-adv-y="918" d="M920-11l32 135h11L952-11l20-13 13-19-13-19-20-13H614 6e2l-13 3-13 4-13 7-10 8-9 12-6 11-5 13-2 14-1 14V385l65-10 16-11-16-10V179l151 48 72 27 105 44 4-10 44-39 2-17-22 8-41-14-75-23-38-11-77-16-39-7-39-5-39-3h-8V4l1-5 1-3 1-2V-7l1-1 2-1 3-1 5-1H920zM80 331l65-33H373l33 27 59-48-27-22V-2L373-34V31H145V-34L80-66V331zm293-54H145V52H373V277zm67 157-18 16-20 15-22 15-14 7-49-36-56-31-62-25-68-21-75-15-3 9 71 26 64 27 56 31 50 32 28 25-20 9-63 23-9 3-16-46-71-10 81 241H66v21H232l41 124 58-31 12-16-19-4-24-73H442l32 27 60-48-27-16-7-3-7-33-21-54-28-51-36-45-3-4 25-12 26-14 24-16 22-19 9-22-9-23-23-9-23 9-16 17zM587 804l65-32H861l33 27 59-49-27-21V455l-65-32v64H652V423l-65-33V804zm274-54H652V509H861V750zM440 729H292L235 561h8l35-4 33-5 33-7 10-4 16 18 27 41 22 45 15 48 6 36z"/><glyph unicode="&#13747;" horiz-adv-x="1024" vert-adv-y="918" d="M80 296l65-32H373l33 27 59-49-27-21V-1L373-33V32H145V-33L80-65V296zM920 3l32 134h11L952 3l20-13 13-20-13-19-20-13H614l-14 1-13 2-13 5-13 6-10 9-9 11-6 12-5 13-2 13-1 14V337l65-11 16-10-16-10V162l116 32 108 34 71 26 34 13 3-8 49-42 1-17-22 10-83-25-38-9-76-15-39-7-38-5-39-4-39-2h-8V17l1-5 1-3 1-1V6h1l2-1 3-1 5-1H920zM373 242H145V53H373V242zM861 348l-30 21-32 22-36 20-40 20-31 14-19-14-57-33-64-25-72-21-79-14-86-9-2 10 84 19 75 22 67 25 58 29 47 32-110 41-25 8-16-35-72-2 90 195H385v21H521l87 187 53-37 11-17-20-3-60-130H855l54 54 64-54V673H837l-14-55-26-56-33-50-33-35 54-21 39-18 38-20 34-20 32-23 11-22-7-23-22-11-23 7-26 22zM207 334l-23-7-21 13-7 23 3 18v16l-1 14-4 13-6 13-11 13-13 12-18 13-21 11-26 9 2 10 28-4 26-4 24-8 12-6L253 6e2l64 69 38 39 8-6L224 492l-13-21-9-17-5-10 10-16 8-22 4-25 1-26-13-21zM771 673H582L516 530l23-3 55-11 52-13 31-9 11 10 33 41 25 44 18 48 7 36zM166 638l-5 6-7 6-9 7-24 15-15 8-35 16-20 6 1 10 22-2 20-1 20-2 17-2 17-2 30-8 13-5 12-6 11-7 9-23-9-22-23-9-23 9-2 6zm75 140-5 7-8 7-20 15-12 7-46 25-19 6 1 9 21-2 19-1 18-2 17-2 16-2 29-8 13-5 12-5 11-7 11-23-9-23-22-10-23 9-4 5z"/><glyph unicode="&#13748;" horiz-adv-x="1024" vert-adv-y="918" d="M871-13 854-33l-10-9-11-7-10-7-12-5-12-5-13-2-13-2H760v32L652-22V-6H767l8 1 6 2 12 4 6 3 4 4 6 5 9 11 7 13 8 21 9 28 7 35 7 42 5 48 5 55 5 61 3 68 2 62H804l-13-65-17-67-21-63-25-60-28-55-32-51-36-48L594 5 551-33 504-66l-5 8 38 40 35 42 32 45 29 48 26 51 23 54 19 57 17 61 13 64 7 53H664l-17-49-19-49-23-47-25-45-27-43-30-41-33-38-35-36-38-34-41-30-6 7 33 38 31 38 29 39 26 40 25 41 22 43 21 44 17 46 15 46 8 30H512l-30-52-51-71-28-33-30-32-33-30-8 7 48 72 43 73 20 37 34 77 15 39 13 41 15 49 15-7v88H355v22H535V862l64-10 16-11-16-10V737H736V862l65-10 16-11-16-10V737h61l54 53 64-53V715H801V616l-65-33V715H599V616l-19-10 10-14-19-5-26-64-19-40-2-5H876l33 27 59-48-27-16-1-1-2-48-3-69-4-62-6-57-5-50-8-44-8-39-9-33-11-28-13-23zM61 745l65-32H250l32 27 60-49-27-21V186l-65-32v64H126V154L61 121V745zm189-54H126V240H250V691z"/><glyph unicode="&#13749;" horiz-adv-x="1024" vert-adv-y="918" d="M549 105l42-49 3-18-20 6L523 8 473-21 419-46 391-58 360-68l-30-8-5 9L449 18l42 34 39 35 14 14 5 4zM869-63 845-31 831-16 816-1 799 13 761 41 718 69 694 83l3 9 28-5 26-7 25-8 25-11 22-11 22-12 20-14 20-14L903-6l17-17 6-24-12-21-24-7-21 12zM68 745l64-32H267l32 27 59-49-27-21V218l-64-32v32H132V154L68 121V745zM320 143v22H449V831l64-32H779l32 27 60-49-27-21V165h31l44 48 54-48V143H320zM779 294H513V165H779V294zM267 691H132V240H267V691zM779 455H513V315H779V455zm0 161H513V476H779V616zm0 161H513V638H779V777z"/><glyph unicode="&#13750;" horiz-adv-x="1024" vert-adv-y="918" d="M324-22V-1H622V195H374v21H622V368l65-10 16-11-16-10V216H816l54 54 65-54V195H687V-1H866l54 54L985-1V-22H324zM65 745l64-32H261l30 27 56-49-26-18V186l-60-30v62H129V154L65 121V745zm196-54H129V240H261V691zM435 410V345l-59-29V671l59-29H539V776H334v21H856l54 54 64-54V776H770V642H871l32 27 59-49-27-21V377l-64-32v65H435zM539 620H435V431H539V620zm166 0H603V431H705V620zm166 0H770V431H871V620zM705 776H603V642H705V776z"/><glyph unicode="&#13751;" horiz-adv-x="1024" vert-adv-y="918" d="M851-40l-74 3-66 10-59 15-51 23-43 28-35 36-24 41-14 41-21-50-20-39-23-35L395 1 366-27 335-51 301-70l-6 8 26 27L345-8l22 31 19 32 17 34 15 37 13 41 11 42 8 46 6 48 2 11 62-19 15-13-19-8-6-30-13-49v-3l8-23 21-37 26-31 33-26 38-19 13-4V380H385v21H856l54 54 64-54V380H7e2V234H830l44 49 54-49V213H7e2V35l21-4 60-5 68 1 76 6 57 6-51-76-80-3zM67 745l65-32H249l32 27 60-49-27-21V186l-65-32v64H132V154L67 121V745zm182-54H132V240H249V691zM453 850l65-32H829l32 27 60-48-27-22V492l-65-32v54H518V476l-65-32V850zM829 655H518V535H829V655zm0 142H518V677H829V797z"/><glyph unicode="&#13752;" horiz-adv-x="1024" vert-adv-y="918" d="M830 351l64-54V276H581V162H855l54 54 64-54V140H581V16H806l53 53 65-53V-6H581V-44L516-76V140H430v22h86V330l65-33H776l54 54zM664 686H9e2l3 4 1-1 28 24 60-49-27-16-20-8-34-41-19-22-11-10-9-12-8 5 6 13 11 43 5 12 7 26 3 10H431V342l-2-55-5-52-6-49-8-45-10-43-12-38-14-36L358-8 339-35 318-58l-7 5 12 27L334 4l10 31 8 35 7 38 6 40 4 44 3 47 1 50-1 53V716l59-30H599V874l65-11 16-10-16-10V793H793l44 49 54-49V772H664V686zM58 745l65-32H245l29 27 57-49-27-18V186l-59-30v62H123V154L58 121V745zm187-54H123V240H245V691zM880 452l30 113h11L910 452l18-12 11-17-11-18-18-12H663l-14 1-13 2-13 4-12 6-11 8-9 11-6 12-5 12-3 14v13 49L440 509l-2 21 139 17V654l64-11 16-11-16-9V554l86 10 47 60 70-46 3-21-206-24V470l1-5v-3l1-2 1-2 1-1 2-2 3-1 6-1 7-1H880z"/><glyph unicode="&#13753;" horiz-adv-x="1024" vert-adv-y="918" d="M324-52v21h94V293l65-32H824l32 27 59-49-27-21V-31h13L934 7l43-38V-52H324zM551 239H483V-31h68V239zm139 0H616V-31h74V239zm134 0H755V-31h69V239zM75 745l65-32H253l33 27 59-49-27-21V186l-65-32v64H140V154L75 121V745zm178-54H140V240H253V691zM820 346l-9-11-9-8-10-8-12-7-12-5-11-4-13-4-13-1-14-1v33l-96 16v16h96l15 1 6 1 6 3 6 2 10 7 5 5 9 11 4 6 3 9 4 11 3 14 2 16 3 19 1 20v22h-1v43H669l-14-36-18-37-23-34-27-32-30-29-34-25-38-24-41-21-45-17-49-14-4 9 44 24 40 24 36 24 32 26 27 28 25 28 20 29 16 30 12 33 3 14H451v21H793l32 27 60-48-26-16v-1-26l-1-25-1-23-3-21-3-20-4-18-5-17-6-15-8-14-8-10zM519 780l55-35 9-18-20-1-25-37-43-50-24-23-26-22-27-21-29-19-30-17-33-16-5 9 51 47 45 47 21 23 19 24 17 25 15 25 14 26 16 33zM931 545l-49 45-22 24-20 24-32 49-13 25-10 25-4 11-2-1v10l-1 6-3 22H529v21H753l26 22 59-48-27-17-5-2 22-29 34-38 40-38 47-37 25-17 16-13-59-44zM777 791v-1h2l-2 1z"/><glyph unicode="&#13754;" horiz-adv-x="1024" vert-adv-y="918" d="M760 148H555V12H760V148zM61 745l65-32H250l32 27 60-49-27-21V186l-65-32v64H126V154L61 121V745zM760 306H555V170H760V306zm129-77-32 33-25 28-7-5V-31L760-63v53H555V-47L490-80V304l-31-36-53-47-60-39-5 7 51 48 46 51 41 55 35 59 25 52H351v21H549l23 60 15 56H420v21H593l16 76 6 40H395v21H618l3 24 6 83 1 18 64-17 15-11-18-9-8-72-2-16H806l54 54 64-54V728H675l-9-51-17-65H781l54 54 64-54V591H715l36-80 18-36h81l53 54 65-54V454H782l35-55 26-32 28-32 30-28 32-26 52-37-60-45-36 30zM250 691H126V240H250V691zM736 454H590l-40-72-27-38 32-16H760l28 23-13 21-21 41-18 41zM704 591H643l-25-73-19-43H729l-8 25-11 47-6 44z"/><glyph unicode="&#13755;" horiz-adv-x="1024" vert-adv-y="918" d="M9e2-5 871 16 843 39 790 88l-24 27-23 27-21 29-19 31v1V-41L638-73V164l-32-39-28-30-31-28-32-25-35-24L444-3 406-21 366-37l-4 10 67 49 30 25 29 26 28 28 25 28 24 30 21 31 20 33 4 8H381v21H638v69l65-11 16-11-16-9V252H841l54 54 64-54V231H705l67-63 51-43 55-38 58-35 56-30-61-48L9e2-5zM74 745l64-32H274l32 27 59-49-27-21V186l-64-32v64H138V154L74 121V745zm2e2-54H138V240H274V691zm446-64H902l6 8 2-2 25 21 59-49-27-16-22-9-63-66-30-26-30-25-7 6 10 17 28 52 38 67H717V417l-1-13-2-14-5-13-6-12-9-11-11-8-12-7-13-5-14-2-13-1v32l-75 17v16h75 6l5 1 5 2 2 2 1 2 1 3 1 5v6V557l-22-31-28-35-28-32-31-31-32-27-32-27-35-23-36-22-38-18-5 8 62 54 29 28 54 59 26 31 24 34 44 70 6 10H371v22H676l-6 5-12 27-6 13-16 26-8 13-31 38-13 11 5 8 16-7 17-7 15-8 15-10 27-21 23-22 27 38 61 79H466v21H807l9 12 3-2 20 17 60-48-27-17-31-12-55-46-73-55 14-18 2-24-9-11z"/><glyph unicode="&#13756;" horiz-adv-x="1024" vert-adv-y="918" d="M896 10 865 34 836 59 808 87l-26 29-24 30-22 32-20 34-17 36V-40L635-72V225l-16-22-31-36-34-34-38-31-43-30-46-27-49-26L323-3 266-23l-4 10 53 29 49 29 45 30 41 30 36 32 33 32 29 33 24 34 21 35 5 12H352v21H635V444H549V406l-65-32V724H366v21H484V863l65-10 16-11-16-10V745H792V863l64-10 16-11-16-10V745h20l44 48 54-48V724H856V423l-64-33v54H699V304H869l54 54 64-54V283H701l42-53 50-55 25-25 27-23 28-22 29-20 30-18 57-30-60-48-33 21zM63 745l65-32H255l32 27 59-49-26-21V186l-65-32v64H128V154L63 121V745zm192-54H128V240H255V691zM792 589H549V466H792V589zm0 135H549V611H792V724z"/><glyph unicode="&#13757;" horiz-adv-x="1024" vert-adv-y="918" d="M584 117l40-51 1-19-19 7-35-21L510 1 477-14 403-42 321-66 277-76l-3 9L424 9l62 36 53 36 24 18 21 18zM886-28 871-12 836 19 796 48 752 76l-50 29 3 9 30-5 28-7 27-8 26-11 24-10 24-13 22-13 22-15 20-15L947-1l9-23-11-22-23-8-22 9-14 17zm27 881 64-54V777H718l-29-36-12-15-28-29-31-27-16-12-14-10H824l32 27 59-48-27-22V165l-64-33v33H513V127L449 95V681l64-33h54l7 9 11 18 31 49 18 32 11 21H372v22H859l54 54zM71 745l65-32H275l33 27 59-49-27-21V186l-65-32v64H136V154L71 121V745zM824 320H513V186H824V320zM275 691H136V240H275V691zM824 471H513V342H824V471zm0 156H513V492H824V627z"/><glyph unicode="&#13758;" horiz-adv-x="1024" vert-adv-y="918" d="M685 573h-1l6 7 48-43 6-18-23 3-46-42-78-64H845l54 53 65-53V394H544V259l-6-53-3-12H786V351l65-11 16-11-16-10V140l-65-32v65H529l-4-15-21-46-27-40-35-37L4e2 4 352-23 297-45 236-62 169-75l-3 9 64 23 56 25L335 9l41 29 34 31 27 33 20 35 13 36H249V108L184 76V351l65-11 16-11-16-10V194H474l4 22 2 43V394H71v22H578l86 124 17 26 4 7zM368 434l-2 10-11 23-9 12-10 13-12 14-47 45-21 15 5 8 46-19 21-10 36-21 30-24 13-13 11-13 10-15V435l-18-18H386l-18 17zM139 841l64-32H397l33 27 59-48-27-22V597l-65-32v43H203V544l-64-33V841zm418 0 64-32H815l32 27 60-48-27-22V576l-65-32v64H621V570l-64-32V841zm258-53H621V630H815V788zm-418 0H203V630H397V788z"/><glyph unicode="&#13759;" horiz-adv-x="1024" vert-adv-y="918" d="M958 129l-6-12-8-11-8-10-11-9-11-7-12-5-13-4-14-2-13-1v32l-54 16v16h54l7 1 6 1 5 1 3 2 7 4 5 8 3 5 3 7 6 21 5 27 3 32v34l-5 36-8 37-13 36-18 35-26 33-30 34-7 3 32 102 30 93 17 58 7 28 1 7H765V-45L7e2-77V831l65-32H899l32 27 59-49-27-16-9-3-24-62-41-89-33-60-34-54 43-20 35-32 26-37 20-41 14-41 8-41 4-40-1-37-3-34-5-28-5-13zm-661 1 11 3 23 5 32 9V777H309v22H572l54 54 64-54V777H612V-45L547-77V181l-46-28-78-40-49-23-25-10-6-21-15 12-31 59zM56 745l65-32H239l30 27 56-49-26-18V208l-60-30v40H121V154L56 121V745zM547 369H422V165l94 30 31 9V369zM239 691H121V240H239V691zM547 573H422V390H547V573zm0 204H422V595H547V777z"/><glyph unicode="&#13760;" horiz-adv-x="1024" vert-adv-y="918" d="M851 144v23l-1 33-95-70-2-22-17 8-40 47V58H916V749l64-10 16-11-16-10V4L916-28V36H420V-28L355-61V749l65-10 16-11-16-10V171l30 13 8 3 80 274 18 70 3 10 59-27 13-15-19-5-47-122-48-106-36-69 17 6 34 10 19 5 14 4v11l-2 43-2 21-1 21-1 21 9 3 19-39 8-21 7-21 12-44 4-22 8-47 3-23-9-23-23-11-23 10-10 22 1 22 1 23v34l-94-71V108l-18 8-34 39V58H631V860l65-11 16-10-16-10V167l7 4 15 7 21 8 15 55 42 141-20-13-23 5-14 20-1 16-2 16-6 47-6 31-6 30-5 15 9 5 9-13 10-13 2-3 10 36 23 79 21 74 6 23 5 22 2 9 60-27 12-15-20-5-20-49-35-73-28-50-15-25-10-14 14-23 15-31 13-32 6-18-3-12 40 139 3 8 59-28 12-15-20-5-33-85-62-142-35-70-1-1 39 14 18 5 18 5 12 2-2 31-1 21-2 40-3 20 10 4 18-38 16-39 6-21 6-22 5-22 5-22 8-48-8-23-22-11-24 9-11 21 1 23zM55 745l64-32H224l32 27 59-49-27-21V186l-64-32v64H119V154L55 121V745zm169-54H119V240H224V691zM456 394l-1 16-3 32-2 15-8 47-4 15-2 15-6 15 9 5 9-13 11-13 2-2 40 140 19 71 4 17 4 14 59-27 12-15-20-5-20-49-35-73-27-50-16-25-9-14 14-23 15-31 7-16 12-34-5-24-21-13-24 5-14 20z"/><glyph unicode="&#13761;" horiz-adv-x="1024" vert-adv-y="918" d="M785-42l-11-6-11-6-11-5-12-4-12-3-24-4-12-2H679v32L572-24V-8H679l17 2 17 3 8 2 8 3 8 3 7 4 8 4 7 5 5 4 6 7 6 11 7 14 13 38 6 24 6 28 5 30 3 17H535l-8-24-72-11 53 159H346v22H881l44 48 54-48V315H576L542 213H818l32 27 59-49-27-16-4-1-1-11-12-61-7-27-7-24-9-23-9-19L822-8 810-23 795-35l-10-7zM58 745l65-32H242l32 27 60-49-27-21V186l-65-32v64H123V154L58 121V745zm184-54H123V240H242V691zM843 514l54-48V444H416v22H799l44 48zM381 849l65-32H551l33 27 59-48-27-22V577l-65-32v53H446V561l-65-33V849zm311 0 65-32H862l32 27 59-48-27-22V577l-64-32v53H757V561l-65-33V849zm170-53H757V620H862V796zm-311 0H446V620H551V796z"/><glyph unicode="&#13762;" horiz-adv-x="1024" vert-adv-y="918" d="M789 626l45-46 4-19-20 4-21-20-40-32-43-31-47-29-49-28-29-14H843l32 27 60-49-27-21V-33L843-65v54H534V-49L470-81V361l-84-28-67-17-3 9 122 55 32 15v48l47-24 78 45 45 31 42 30 39 32 35 33 31 34 2 2zm54-498H534V10H843V128zM55 745l65-32H234l32 27 59-49-27-21V186l-64-32v64H120V154L55 121V745zM843 259H534V149H843V259zM234 691H120V240H234V691zM843 389H542l-8-3V280H843V389zM465 779l60-25 13-15-20-6-16-36-15-28-16-27-20-26-44-52-55-47-31-22-6 7 44 58 38 54 17 27 14 27 11 26 10 25 8 26 8 34zm55-195v16h75 7l5 2 4 1 2 1v1l1 2 1 3 1 5V869l65-11 16-11-16-9V621l-1-13-2-13-5-13-6-13-9-10-11-9-12-7-13-4-13-2-14-2v33l-75 16zm395 5-12 21-14 21-15 20-37 40-44 40-50 40 4 9 32-12 30-14 28-15 26-16 24-18 23-20 21-20 19-21 17-23 15-24 2-24-15-19-25-2-19 15-10 22z"/><glyph unicode="&#13763;" horiz-adv-x="1024" vert-adv-y="918" d="M432 325l64-32H831l33 27 59-49-27-21V-39L831-71v54H496V-55L432-87V325zM831 131H496V4H831V131zM63 745l65-32H238l32 27 59-49-27-21V186l-64-32v64H128V154L63 121V745zM831 271H496V153H831V271zM238 691H128V240H238V691zM892 329l-48 19-43 24-38 31-32 36-26 41-20 46-5 20H483V398l159 37 36 7 36 7 3-9-66-32-104-42-107-36-51-16-7-20-15 13-26 60 77 17V863l65-32H837l33 27 59-48-27-22V659l-65-32v54H725l3-43 7-48 6-22h75l54 53 65-53V546H747l16-36 20-33 25-28 29-23 34-20 40-16 10-2 29 126h11L951 380l5-1 20-13 6-25-14-20-24-5-52 13zM661 681H483V568H674l-3 9-8 55-2 49zM837 810H483V702H837V810z"/><glyph unicode="&#13764;" horiz-adv-x="1024" vert-adv-y="918" d="M633 380l27-6 17-11-18-10-3-44-8-42H829l32 27 59-49-26-15 1-7V189l-1-31-2-31-4-28-5-26-7-25-8-22L858 5 846-14l-8-11-9-9-9-9-11-8-11-6-12-5-12-5-13-2-12-2-14-1v32L628-24V-8H735l8 1 7 1 13 3 5 3 6 3 10 8 5 6 12 18 7 16 7 17 5 20 4 22 4 24 2 27 1 29v13l-2-1v43H644l-17-55-24-52-31-48-36-43-43-37-48-33-54-27-60-21-3 9 53 30L429 1l41 36 36 38 29 41 23 44 18 48 12 52 7 55 1 59v6H385v21H640V546l65-11 16-10-16-10V401H865l53 54 65-54V380H633zM75 745l65-32H270l32 27 59-49-27-21V186l-64-32v64H140V154L75 121V745zm195-54H140V240H270V691zM474 577V513l-64-32V839l64-32H887l33 27 59-49-27-21V545l-65-32v64H474zm95 208H474V599h95V785zm159 0H633V599h95V785zm159 0H793V599h94V785z"/><glyph unicode="&#13766;" horiz-adv-x="1024" vert-adv-y="918" d="M751 874l64-11 16-10-16-10V740h30l54 53 64-53V718H815V573l-64-32v54H697V482H839l32 27 59-49-27-21V251l-64-33v54H697V138H864l53 53 65-53V116H697V-45L633-77V116H348v22H633V272H495V234l-65-32V514l65-32H633V595H579V557l-64-32V718H371v22H515V874l64-11 16-10-16-10V740H751V874zM68 745l64-32H267l32 27 59-49-27-21V208l-64-33v43H132V154L68 121V745zm199-54H132V240H267V691zM633 460H495V294H633V460zm206 0H697V294H839V460zM751 718H579V616H751V718z"/><glyph unicode="&#13767;" horiz-adv-x="1024" vert-adv-y="918" d="M361 828l59-29H575l33 27 59-49-27-21V519l-65-32v65H420V390H529l44 49 54-49V369H420V218H529l44 49 54-49V197H420V-46L361-76V828zM883-23 844 8 809 42 782 76 749 46 696 10 638-20 573-44 503-60l-2 9 65 27L625 6l52 33 45 38 35 37-5 8-21 45-16 49-12 51-6 55-1 52H651v22H867l33 27 59-49-27-16-6-2-9-44-20-64-27-59-34-54-16-18 31-33 32-27 37-23L988-1 927-50 883-23zM59 745l65-32H240l30 27 56-49-27-18V186l-59-30v62H124V154L59 121V745zM865 374H707l12-49 15-50 18-47 20-41 18-30 31 56 22 54 15 59 7 48zM240 691H124V240H240V691zM9e2 826l59-49-27-21V519l-65-32v65H688v21H867V777H701v22H867l33 27zM575 777H420V573H575V777z"/><glyph unicode="&#13768;" horiz-adv-x="1024" vert-adv-y="918" d="M871-38l-11-6-23-8-12-3-24-5-13-1H776v32L668-13V3H776l17 1 17 4 7 2 8 2 16 7 15 9 4 4 5 6 6 10 4 13 5 16 4 19 4 22 2 26 2 27v20H629l-5-14-25-46-29-42-35-38-39-33-43-29-47-23-52-19-55-13-3 10 51 23L393-9l41 28 37 30 31 33 27 36 23 40 15 33H357v22H575l10 32 10 46 2 14 62-23 14-13-20-7-9-34-6-15H892l32 27 59-49-26-16-1-6-2-30-2-28-4-27-5-23-6-21-8-20L919 3 907-12 892-25 871-38zM63 745l65-32H255l32 27 59-49-26-21V186l-65-32v64H128V154L63 121V745zm192-54H128V240H255V691zm158-32 65-32H886l32 27 60-49-27-21V304l-65-32V380H708V326l-64-32v86H478V294l-65-33V659zM644 498H478V401H644v97zm242 0H708V401H886v97zM644 605H478V519H644v86zm242 0H708V519H886v86zM649 650l-7 8-8 9-10 9-24 20-32 21-17 11-20 11 4 9 21-6 22-4 37-11 17-6 16-5 15-7 12-6 13-7 11-8 1-1 62 52 55 44H428v21H844l21 16 2-2 16 13 59-48-27-16-64-27-69-34-42-18-36-13 4-10-9-23-23-8-23 9-4 7z"/><glyph unicode="&#13769;" horiz-adv-x="1024" vert-adv-y="918" d="M874 482l-9-10-9-9-11-7-11-7-12-5-12-4-13-3-13-2-13-1v33l-97 16v16h97 8l7 2 13 3 5 2 5 4 6 3 5 5 4 5 5 7 6 9 5 13 6 18 5 22 4 26 4 30 2 33 3 37 1 40v33H731l-6-41-10-48-16-46-20-42-25-38-29-35-33-31-38-27-41-23-37-15h1-1l-9-4-3 5-8 1-11-13-18-17H679l15 14 3-3 19 16 59-48-26-16-31-13-30-24-53-37-58-33 59-20 63-15 70-13 76-10 142-12-64-66-86 11-73 13 38-31-27-22V-41L711-73v43H345V-46L281-78V157l-62-16-84-18-90-14-2 10 87 24 81 25 78 27 72 28 68 30 47 24-12 8-36 35-28 38-12 25-34-26-36-24-38-22-41-21-44-19-46-18-49-16-4 9 86 50 76 50 65 50 28 26 26 26 22 27 19 27 3 3 49-42 2-6 30 20 35 29 31 29 26 32 22 34 19 36 14 38 10 40 6 43 1 33H543v22H865l32 27 60-49-27-16V757l-2-42-2-39-3-35-4-32-5-29-6-26-7-23-8-21-11-18-8-10zM711 130H345V-9H711V130zM560 225l-36 20-77-34-72-26-60-19 30-15H711l21 18-47 11-66 21-59 24zm95 171H403l-3-4 17-21 33-29 37-26 30-16 33 19 52 35 49 37 4 5zM84 541l150 18 37 3v79H1e2v21H271v95H84v21H271v90l65-11 16-11-16-9V778h63l53 54 65-54V757H336V662h37l54 54 64-54V641H336V569l29 3 102 9 55 2 1-9-104-26-83-19V461l-65-32v86L127 484l-9-19-13 14-21 62z"/><glyph unicode="&#13770;" horiz-adv-x="1024" vert-adv-y="918" d="M558 364l64-32H864l32 27 59-48-27-22V-24L864-56V-3H622V-40L558-73V364zM95 364l65-32H401l33 27 59-48-27-22V-24L401-56V-3H160V-40L95-73V364zm769-53H622V19H864V311zm-463 0H160V19H401V311zM558 824l64-32H864l32 27 59-49-27-21V430l-64-33v54H622V413l-64-32V824zM95 831l65-32H401l33 27 59-49-27-21V439l-65-32v54H160V423L95 391V831zm769-61H622V473H864V770zm-463 7H160V482H401V777z"/><glyph unicode="&#13771;" horiz-adv-x="1024" vert-adv-y="918" d="M410 578l-23-21-32-25-34-22-6 8 27 29 48 61 23 31 40 67 18 36 16 38 14 38 14 41 2 7 58-29 12-15-19-4-10-23-19-40-3-5H7e2l32 27 60-48-27-16-14-6-7-12-21-32-23-30-27-27-7-6H868l54 54 64-54V578H474V342l-3-54-8-53-11-48-15-47-19-44-23-40-27-37-30-34-35-30-37-25-7 8 30 32L316 4l23 35 20 37 17 39 13 40 11 44 6 45 3 48 1 50V578zM733 265v-1l-1-8h99l54 54 64-54V234H728v-4l24-48 18-28 19-27 22-24 24-23 25-20 28-19 31-17L982-6 921-55 885-34 852-11 822 14 795 41 772 71l-20 31-16 33-13 35-5 21-5-18-18-41-23-39-27-35-31-32L578-2 537-27 493-48 444-66l-4 10 43 26L522-3l34 28 29 30 24 31 21 33 16 35 12 36 8 38v6H479v22H668l2 13V417H6e2l-12-26-14-25-14-25-16-23-17-23-19-20-8 5 37 102 16 53 13 55 6 28 3 24 3 15 61-22 14-14-19-6-3-11-20-58-3-7H781l54 53 65-53V417H734V267l-1-2zM55 745l65-32H234l32 27 59-49-27-21V186l-64-32v64H120V154L55 121V745zm179-54H120V240H234V691zm462 38H525l-30-48-24-34-26-32 29-15H644l17 36 15 33 6 16 11 33 3 11z"/><glyph unicode="&#13772;" horiz-adv-x="1024" vert-adv-y="918" d="M275-35v21H604V150H385v21H604V303l65-11 16-10-16-10V171H8e2l54 54 64-54V150H669V-14H861l54 54 65-54V-35H275zM58 745l65-32H242l32 27 60-49-27-21V186l-65-32v64H123V154L58 121V745zm184-54H123V240H242V691zM876 312l-5 15-16 33-11 17-1 1-87-20-99-19-231-41-22-4-9-18-13 15-18 62 10 2 44 4 45 4h2L578 538l9 15H373v22H843l54 53 64-53V553H663l-38-48-75-87-44-44-9-8 106 9 48 4 50 4 51 4 51 2 31 1-17 22-53 57-21 19 5 9 52-27 23-14 21-15 37-32 16-17 15-18 13-18 11-18V313l-18-18H894l-18 17zM386 592l-22 11-9 23 10 22 12 9 11 10 21 23 9 14 9 15 8 15 16 36 5 20 9-1V768l1-18H638V876l64-11 16-11-16-9V750H895l4 3 1 3 2-1 26 22 59-49-27-16-23-9-31-30-35-31-14-9-12-12-7 7 9 13 33 69 9 18H464v-2l-3-20-5-19-6-19-8-18-10-17-10-16-13-16-23-9z"/><glyph unicode="&#13773;" horiz-adv-x="1024" vert-adv-y="918" d="M440 351l64-32H813l32 27 59-49-26-21V-34L813-67v54H504V-51L440-83V351zM813 142H504V9H813V142zM61 745l65-32H250l32 27 60-49-27-21V186l-65-32v64H126V154L61 121V745zM813 297H504V163H813V297zM250 691H126V240H250V691zM897 352l-30 22-28 23-26 26-26 26-23 29-23 32-20 32-19 35-8 20V369l-65-32V545l-36-46-29-31-32-30-33-28-36-26-38-24-39-20-42-18-5 8 36 27 67 55 30 28 28 30 27 31 24 32 22 33 20 35 5 10H347v21H629V747l-33-5-51-5-52-4-54-3H384l-1 9 206 44 92 23 86 26 78 28 3-9 48-41 1-17-21 10-51-16-87-21-44-8V632H858l53 54 65-54V611H702l69-77 52-49 26-22 27-19 28-18 28-16 56-29-60-49-31 20z"/><glyph unicode="&#13774;" horiz-adv-x="1024" vert-adv-y="918" d="M893 4 860 28 829 53 8e2 80l-28 28-27 30-24 31-23 34-20 35-4 7V-34L610-67V210l-15-21-30-36-33-34-35-31-38-29-40-27L376 9 330-11 282-28l-4 9L321 7l40 27 38 28 35 29 32 30 30 32 27 34 25 35 22 37 7 13H328v22H610V428l64-11 11-7V788l65-32H884l32 27 59-49-26-21V460l-65-32v64H750V428l-65-32v7l-11-6V294H834l54 53 64-53V272H677l73-77 56-51 59-44 31-20 92-49-60-48L893 4zM52 745l64-32H225l33 27 59-49-27-21V186l-65-32v64H116V154L52 121V745zm173-54H116V240H225V691zM623 469l-6-12-7-11-8-11-10-9-11-7-13-6-12-3-14-2-13-2v33l-76 16v16h76 7l5 2 5 1 4 2 3 1 3 3 4 7 3 5 2 7 3 16 4 17 2 18 3 20 1 21 1 22 1 24v25 3l-2-1v43H509l-9-49-15-56-19-51-21-46-23-42-28-37-30-30-33-25-7 7 25 31 22 35 20 37 17 40 15 45 13 49 10 53 6 39H339v22H455l4 59 3 61 1 18 64-15 15-12-17-9-4-48-8-54h65l32 27 60-49-26-15V663 637 611l-1-24-2-23-5-43-4-20-9-32zM884 734H750V514H884V734z"/><glyph unicode="&#13775;" horiz-adv-x="1024" vert-adv-y="918" d="M339-26V-4H453V238l65-11 16-10-16-10V-4H638V334H369v21H838l54 54 64-54V334H702V186H817l44 48 54-48V165H702V-4H868l54 53L986-4V-26H339zM60 745l64-32H247l32 27 59-49-27-21V186l-64-32v64H124V154L60 121V745zm187-54H124V240H247V691zM892 858l64-54V783H704l35-28 7-17H726l-17-22-32-40-20-21 38-7 16-10-16-10V428l-65-32V626l-62-60-40-36-43-34-46-33-47-31-50-29-6 8 86 75 78 74 71 76 31 38 30 38 28 40 20 31H369v21H838l54 54zm18-409-13 19-14 19-34 38-42 39-78 62 4 8 33-12 31-14 29-15 27-16 25-17 23-18 22-18 19-19 18-20 15-21 4-24-15-20-24-3-20 14-10 18z"/><glyph unicode="&#13776;" horiz-adv-x="1024" vert-adv-y="918" d="M323-51v22h90V302l65-33H825l33 27 59-48-27-22V-29h13L937 9l43-38V-51H323zM551 248H478V-29h73V248zm137 0H615V-29h73V248zm137 0H752V-29h73V248zM63 745l64-32H245l33 27 59-49-27-21V186l-65-32v64H127V154L63 121V745zm182-54H127V240H245V691zM888 351l-34 27-30 30-28 32-25 35-22 37-19 40-16 42-12 45-6 36H648l-18-55-28-65-32-58-37-51-41-43-45-36-50-29-53-20-3 9 46 29 42 33 38 38 34 44 29 49 27 56 22 62 10 37H346v22H595l17 83 11 80 1 11 63-18 14-13-18-8-11-64-17-71H850l54 53 64-53V675H709l34-69 22-36 22-34 24-31 26-29 28-25 29-24 31-20 60-32-61-48-36 24zm-237 8-2 14-3 15-8 31-13 32-7 17-9 18-11 17 7 6 31-27 14-14 13-15 12-15 20-32 8-16 12-35-6-23-21-14-23 6-14 21v14z"/><glyph unicode="&#13777;" horiz-adv-x="1024" vert-adv-y="918" d="M916 804l65-54V729H811V573h20l54 54 65-54V552H811V396h20l54 53 65-53V374H811V218h55l54 54 65-54V197H811V-40L747-72V197H578v21H747V374H647v22H747V552H647v21H747V729H609v21H863l53 54zM316 252l137 50V503H327v22H453V713l-51-19-34-12-36-11-4 9 142 90 45 29 36 27 12 9 4 4 25-37 14-15V768l-20 8-68-35h-1V525h18l44 48 53-48V503H517V342 326l105 37 5-9-65-42-48-27-6-64-9-53-12-49-15-45-19-40L432-1 407-30 379-53 349-70l-6 8 22 24 20 26 17 30 14 34 13 37 9 42 8 46 5 50 1 22-80-42-4-21-16 10-36 56zM56 745l64-32H235l32 27 60-49-27-21V186l-65-32v64H120V154L56 121V745zm179-54H120V240H235V691z"/><glyph unicode="&#13778;" horiz-adv-x="1024" vert-adv-y="918" d="M878 327l5 7 48-43 6-18-21 3-42-37-54-42-20-14-17-10 15-22 29-35 31-32 32-27 34-24L986-1 926-49 886-23 849 8 815 42 784 81l-28 42-25 45-21 49-19 52-14 56-8 42-54-66-64-66V43L682 78l38 9 37 7 3-9-68-34-68-31L442-50l-6-20-15 12L392 1l10 3 84 22V178l-46-36-82-54-44-24-5 8 108 97 66 66 3 3v2h1l56 63 53 70 4 7H506V342l-65-32V648l65-32H804l33 27 59-48-27-22V380l-65-33v33H679v-1l42-99 24-47 26-43v-1l68 83 33 45 6 10zM61 745l65-32H250l32 27 60-49-27-21V197l-65-32v53H126V154L61 121V745zm189-54H126V240H250V691zm554-96H506V401H804V595zM367 702v22H626V863l64-10 17-11-17-10V724H847l54 53 65-53V702H367z"/><glyph unicode="&#13779;" horiz-adv-x="1024" vert-adv-y="918" d="M848-51l-77 2-64 6-53 10-44 15L575 2 547 25 525 52 509 82l-6 16-8-4-17-22-46-48-59-56V-54l-18 7L310 0l8 6L454 87V353H321v21H454l32 27 59-48-27-22V105l32-33 22-18 25-14 31-11 38-8 48-5 59-1 73 2L993 27 939-48l-91-3zM743 849l60-24 14-14-23-7-13-27-20-38-7-13-9-13-1-2H873l33 27 59-49-27-21V470l-65-32v53H668V375H887l32 27 59-48-27-22V111L887 78v65H668V105L604 73V743l64-32h64l1 6v15l5 57v13l2 26 1 7h-2l4 14zM52 745l64-32H225l33 27 59-49-27-21V186l-65-32v64H116V154L52 121V745zM887 354H668V165H887V354zM225 691H116V240H225V691zM426 513l-16 27-19 26-23 25-24 24-15 11 5 8 17-6 17-6 18-7 16-9 31-19 28-25 26-27 5-24-14-21-24-5-20 14-8 14zM873 689H668V513H873V689zM472 702l-8 14-28 40-22 26-25 25-15 12 5 8 36-14 16-8 17-9 31-21 14-12 14-13 26-27 4-24-13-21-24-4-21 13-7 15z"/><glyph unicode="&#13780;" horiz-adv-x="1024" vert-adv-y="918" d="M882-48 827-30 777-8 732 19 704 41 692 31 645 0 595-26 540-46 481-61l-63-9-1 9 59 20 54 22L579 5l44 29 40 32 7 8-12 12-28 39-22 43-16 47-2 12-6-24-6-16-12-29-7-14-3-5 6-24-19 3-55 35 7 8 10 8 19 18 29 32 29 39 1 2H463v22H668V385l64-11 17-11-17-9V282H849l54 53 64-53V260H855l-23-55-28-51-33-46-28-31 18-11 41-20 46-16 51-13L1006-1 943-62 882-48zM386 716l64-32H615V874l65-11 16-11-16-10V792H809l44 49 54-49V771H680V684H916l33 27 59-49-27-16-19-8-34-42-31-33-9-12-8 5 6 13 8 29 3 14 12 39 3 11H450V336l-3-55-4-53-6-50-8-46-11-42-12-39-14-36-17-32-18-28-22-23-8 5 12 28L349-5l10 32 8 35 7 37 5 41 4 44 3 48v50 54V716zM597 260l16-37 23-40 25-35 29-31 12-10 26 34 26 42 22 47 10 30H597zM70 745l65-32H256l32 27 59-49-26-21V186l-65-32v64H135V154L70 121V745zm186-54H135V240H256V691zM679 388l-14 1-13 2-13 4-12 6-11 8-9 11-6 12-5 13-3 12v14 50L457 505l-3 21 139 17V651l64-11 16-10-16-10V551l86 10 47 59 70-45 3-21-206-25V464l1-4v-4l2-3 1-1 5-3 6-1 7-1H896l30 113h11L926 447l18-12 12-17-12-18-18-12H679z"/><glyph unicode="&#13781;" horiz-adv-x="1024" vert-adv-y="918" d="M711-29v16h75l7 1 4 1 5 1 2 2 2 5 1 5 1 7v96H507V-45L442-77V105H340v22H442V245H345v22h97V428l65-32H625v91H335v22H517V611H399v21H517v92H372v21H517V858l65-11 16-10-16-10V745H727V858l65-11 16-10-16-10V745h43l53 54 65-54V724H792V632h47l44 49 54-49V611H792V509h95l44 48 54-48V487H689V396H808l32 27 59-49-27-21V267h26l33 37 43-37V245H872V127h26l33 38 43-38V105H872V9L871-5l-2-13-4-13-7-13-9-10-11-9-12-7-13-4-13-2-14-1v32L711-29zM58 745l65-32H242l32 27 60-49-27-21V186l-65-32v64H123V154L58 121V745zM625 245H507V127H625V245zm183 0H689V127H808V245zM242 691H123V240H242V691zM625 374H507V267H625V374zm183 0H689V267H808V374zM727 611H582V509H727V611zm0 113H582V632H727v92z"/><glyph unicode="&#13782;" horiz-adv-x="1024" vert-adv-y="918" d="M606 505l5 5 42-49 3-19-21 6-15-9-38-19-42-17-23-8-24-7-21-5V221h77l44 49 54-49V2e2H472V25H874V2e2H7e2v21H874V396H692v22H874l33 27 59-49-27-21V-18L874-50V4H472V-34L408-66V423l52-26 63 40 35 24 29 24 12 12 7 8zM63 745l65-32H255l32 27 59-49-26-21V186l-65-32v64H128V154L63 121V745zm192-54H128V240H255V691zM887 876l3-9 49-41 1-17-22 10-51-16-85-21-43-9-88-16-45-7-46-4-34-3-9-3-15-48-11-32-27-61-15-28-16-26-17-26-20-24-20-21-8 6 34 81 20 56 9 30 8 30 8 31 7 32 6 34 2 9 53-20 128 34 125 37 114 40 5 2zm20-320-6 20-7 20-18 42-21 43-25 45-14 23 7 6 41-36 18-19 33-40 27-41 12-21 20-43-3-24-18-16-25 2-16 19-5 20zM664 568l-3 17-2 17-3 17-10 33-11 32-6 17-9 16 8 6 26-26 13-14 22-31 10-17 17-35 6-18 6-20-5-23-21-14-24 6-13 21-1 16z"/><glyph unicode="&#13783;" horiz-adv-x="1024" vert-adv-y="918" d="M674 875l53-37 9-18H713l-36-40-25-24-27-23-5-4H867l32 27 59-49-27-21V353l-64-33v65H720l-9-25-20-41-24-38-27-36-32-32-35-28-16-10H721V358l65-11 16-10-16-10V175h83l54 54 64-54V154H786V-40L721-72V154H442v21h92l25 26 28 32 25 34 21 35 17 37 14 38 2 8H568V320l-65-32V761l65-32h38l8 13 15 32 21 43 16 40 3 8h-1l6 10zM382-28l-10-9-10-8-11-7-11-6-12-4-12-4-13-3-12-1H278v32L192-22V-6h94l7 1 14 3 6 3 6 3 6 4 5 4 6 6 6 6 3 5 5 12 5 19 5 25 4 30 3 36 3 40 1 45 1 51v45H258l-6-52-11-60-16-54-19-51-25-46-28-41L122-8 86-38 46-61l-5 8L72-22l28 33 24 37 21 40 18 44 14 48 11 51 7 56 3 45H66v21H199v59 75l65-11 16-10-16-10V412l-4-59H372l32 27 59-48-27-16V286 234l-2-46-3-43-3-37-5-33-5-29-7-24-9-22-11-18-9-10zM685 546H568V406H671l3 12 7 42 4 45v41zm182 0H749l-3-46-8-49-11-45H867V546zM101 844l64-32H367l32 27 59-49-27-21V469l-64-32v54H165V453l-64-32V844zm266-54H165V512H367V790zm318-83H568V568H685V707zm182 0H750V568H867V707z"/><glyph unicode="&#13784;" horiz-adv-x="1024" vert-adv-y="918" d="M622-24V-8H729l7 1 4 1 5 2 2 2 2 5 1 5 1 6V191H388v22H751v75l64-11 16-10-16-10V213h51l54 54 64-54V191H815V14L814 1l-2-14-4-13-7-12-9-11-11-9-12-7-13-4-13-2-14-1v32L622-24zM568 51l-3 14-5 13-10 27-13 25-8 11-8 12-11 10 6 8 13-7 14-6 14-9 13-9 12-12 12-11 10-14 11-15 9-15 8-17-1-24-18-17-25 2-16 18-4 16zM71 745l65-32H275l33 27 59-49-27-21V186l-65-32v64H136V154L71 121V745zm204-54H136V240H275V691zM648 853l65-11 16-11-16-10V713H840l54 54 64-54V691H713V611H842l32 27 59-49-26-21V299l-65-32v80H713V299l-65-32v80H523V294l-65-33V643l65-32H648v80H414v22H648V853zm0-382H523V369H648V471zm194 0H713V369H842V471zM648 589H523V492H648v97zm194 0H713V492H842v97zM803 757l-2 8-4 8-3 8-11 16-12 15-8 8-10 5 4 9 10-3 13-1 11-3 11-4 12-5 10-5 10-7 10-8 9-8 8-9 3-25-15-19-25-3-19 15-2 8z"/><glyph unicode="&#13785;" horiz-adv-x="1024" vert-adv-y="918" d="M897 439l-8-9-10-10-10-8-23-12-12-4-13-3-13-2-13-1v33l-97 16v16h97 8l7 1 12 4 5 2 5 4 5 3 5 5 5 5 4 6 6 10 5 15 5 18 5 23 3 26 4 31 3 72v33l-1 43H553l-19-27-21-25-11-11 43-7 16-11-16-9V573h71V729l65-11 16-11-16-9V573h65V697l64-11 16-11-16-9V530l-64-32v54H679l-10-23-14-23-18-21-21-18-23-17-27-15-11-4 45-26 10-16-20-3-25-42-5-7H887l33 26 59-48-27-16-2-68-2-42-3-39-3-35-5-32-5-29-7-25-7-23-9-19-7-12-8-10-9-10-10-9-11-7-12-6-12-5-12-3-14-1-13-1v32L693-29v16H801l7 1 7 1 11 3 5 3 5 3 4 4 4 4 8 12 6 12 6 17 5 21 4 26 5 29 3 33 2 36 3 41 1 45v37H546l-20-27-22-26-18-19 53-9 17-10-17-10V111h77V288l65-11 16-10-16-10V111h77V245l64-11 16-10-16-10V68L758 35V89H678l-6-22-14-26-18-23L618-2 593-20 563-36 530-50 493-61l-40-9-45-6-2 9 41 16 69 33L543-1l23 18 19 17 14 18 9 17 6 18v2H539V52L475 19V233l-18-17-26-21-28-18-28-16-6 8 62 71 37 50 32 54 28 57 9 21-32-10-35-9-38-6-3 9 35 16 30 16 28 16 23 16 21 17 16 17 14 16 10 17 6 15H545V535l-64-32V673l-14-12-25-19-27-16-29-14-5 8 42 44 20 23 17 22 17 24 15 24 14 25 13 27 11 27 13 36 57-30 11-16-20-4-5-11-16-29-3-5H881l33 27 59-48-27-16V721 678l-1-39-2-36-4-33-3-30-6-27-7-23-8-21-10-19-8-11zM75 745l65-32H279l32 27 59-49-27-21V186l-64-32v64H140V154L75 121V745zm204-54H140V240H279V691z"/><glyph unicode="&#13787;" horiz-adv-x="1024" vert-adv-y="918" d="M896-30 857-5 821 22 789 52 761 84l-24 34-20 37-15 39-10 40-3 22-6-27-19-51-26-46-32-42-39-38-45-33L471-9 413-33 350-51l-3 9 58 28 52 30 44 32 38 34 31 37 25 39 19 41 13 45 4 28H360v22H634l2 48v94l-84-12-52-5-54-4-56-2-1 10 206 48 93 25 43 13 117 40h-1 1l4 2 3-9 49-41 1-17-22 9-51-15-43-11-44-11-45-9V342l-4-48H857l54 53 64-53V272H699l14-31 18-35 20-32 23-30 25-27 27-25 31-23 34-20 36-19 74-31-62-51-43 22zM61 745l65-32H250l32 27 60-49-27-21V186l-65-32v64H126V154L61 121V745zm189-54H126V240H250V691zm287-87-2 14-4 13-5 14-12 26-26 43-9 9h-8l-7-18-16-33-17-31-18-30-21-28-22-27-25-25-8 6 44 91 14 31 22 63 9 33 8 33 6 34 7 45 62-22 14-13-19-7-4-16-11-36-10-28H592l44 48 54-48V723H499l14-8 15-10 13-11 24-26 11-14 10-14 8-16 7-16-2-24-20-16-24 3-16 19-2 14zm293 0-2 14-4 13-5 14-12 26-8 14-18 29-9 9H762l-5-13-16-30-17-30-19-26-20-26-22-23-25-22-7 7 44 82 13 28 12 29 10 29 9 31 8 32 6 32 7 44 62-22 14-13-19-7-4-15-11-35-11-30H889l44 48 54-48V723H792l14-8 15-10 13-11 24-26 11-14 10-14 8-16 8-16-3-24-20-16-24 3-16 19-2 14z"/><glyph unicode="&#13788;" horiz-adv-x="1024" vert-adv-y="918" d="M473 0V-38L409-70V318l64-33H857l32 27 60-48-27-22V-22L857-54V0H473zM633 132H473V22H633V132zm224 0H697V22H857V132zM58 745l65-32H242l32 27 60-49-27-21V186l-65-32v64H123V154L58 121V745zM633 264H473V153H633V264zm224 0H697V153H857V264zM242 691H123V240H242V691zM914 350l-8 17-10 16-8 14-29-7-53-9-54-9-108-14-54-7-109-11-54-4-32-2-11-17-11 15-14 64 11 1h54l1e2 2L769 656l5 6 44-48 4-19-19 5L681 498l-97-76-31-22 87 3 162 6 55 2h21l-15 21-28 32-16 16-17 16 5 8 43-20 20-11 18-13 18-14 17-15 15-17 15-16 13-18 12-19 2-24-16-19-25-1-18 15-7 18zM625 726l39-35 6-19-22 3-21-18-42-35-32-24-14-9 28-28 22-29 2-25-16-19-24-1-19 15-5 13-14 28-8 14-19 28-36 45-15 15 5 7 19-10 18-9 34-22 15-12 32 48 48 72 5 7H354v22H633V869l64-11 17-11-17-9V748H858l53 54 65-54V726H625z"/><glyph unicode="&#13789;" horiz-adv-x="1024" vert-adv-y="918" d="M908-18 904-1l-4 19-12 37-17 39-22 40-13 21 7 6 37-33 17-17 15-17 13-19 13-19 11-19 9-19 8-21 7-20-5-24-21-14-23 5-14 21-2 17zM391-67 369-55l-6 24 12 21 9 6 9 8 9 10 9 13 9 16 8 19 7 21 14 50 4 29 10-1 2-29 1-28V77l-2-24-4-23-4-21-8-20-9-19-11-16-14-15-23-6zM734-5l-1 16-2 16-2 17-4 17-4 17-6 17-15 37-10 17 7 7 31-30 13-16 12-16 11-17 9-18 8-18 7-19 6-19 3-20-8-23-21-11-23 8-12 21 1 17zM618-43l-23-8-22 11-8 23 2 16 3 16 1 16V47l-1 17-2 17-3 16-7 35-7 18 8 5 12-16 12-15 10-16 9-17 8-17 6-19 5-18 4-19 3-20 1-20-11-21zM63 745l64-32H253l33 27 59-49-27-21V186l-65-32v64H127V154L63 121V745zm190-54H127V240H253V691zM354 245v22H633V455H406v21H633V648H374v22H722l63 119 26 51 6 13 2 6-1 1 6 9 53-37 9-18H863L770 704l-32-34h99l54 54 65-54V648H697V476H806l54 54 64-54V455H697V267H858l54 53 64-53V245H354zM529 716l-4 12-4 14-6 14-7 15-18 31-23 33-14 16 6 8 37-25 32-25 14-13 24-28 10-15 9-15 8-16-3-25-19-15-25 2-15 19-2 13z"/><glyph unicode="&#13790;" horiz-adv-x="1024" vert-adv-y="918" d="M570 721l59-30h92V874l65-11 16-10-16-10V691H9e2l32 27 59-48-27-16-14-6-28-46-48-66-13-19-8 5 8 21 12 41 6 18 14 50 3 14 1 4H786V439h67l33 27 59-49-27-16-7-3-15-52-24-70-27-64-31-59-14-22 14-19 32-35 34-29 36-25 68-34-61-50-44 28L839-1 803 37 771 78l-4 6-24-32-40-41-44-36-47-29-49-22-5 9 43 30L641-3l37 38 33 43 31 47-25 51-21 55-16 59-13 64-7 63H629V369l-2-64-5-59-8-55-10-51-12-48-14-43-18-38-20-34-23-29-25-23-6 6 16 28 15 31 13 34 12 37 10 42 7 45 6 49 4 54 2 57-1 61V721zm-82 78 65-54V724H451l-10-49-28-105-16-51-13-37h79l30 27 56-49-27-19V84L463 54V95H393V30L328-2V350l-38-73-27-45-9 5 52 146 22 74v9h3l18 67 12 50 11 52 9 52 5 37H277v21H435l53 54zM463 460H393V116h70V460zM46 745l65-32h75l32 27 60-49-27-21V186l-65-32v64H111V154L46 121V745zM672 417l17-58 21-60 23-54 25-50 11-19 26 58 23 62 19 67 13 54H672zM186 691H111V240h75V691zm535-21H629V439h92V670z"/><glyph unicode="&#13791;" horiz-adv-x="1024" vert-adv-y="918" d="M80 263l65-32H373l33 27 59-48-27-22V-15L373-47V18H145V-47L80-79V263zM920-5l32 135h11L952-5l20-13 13-19-13-19-20-13H614l-14 1-13 2-13 4-13 7-10 9-9 11-6 12-5 13-2 13-1 14V297l65-10 16-11-16-10V138l153 40 107 33 70 25 3-9 50-42 2-16-23 9-49-13-37-9-75-16-38-6-39-6-38-4-40-3-39-2h-7V10l1-5 1-3 1-2 1-2 2-1 3-1h5l7-1H920zM373 210H145V39H373V210zM660 725l26-5 16-10-16-10V562H809l54 54 64-54V541H686V349H864l53 54 65-54V328H326v21H622V541H393v21H622V725H368v21H622V873l64-11 16-10-16-10V746H845l54 54 65-54V725H660zM209 317l-24-7-21 13-7 23 3 19 1 17-2 16-3 14-7 14-10 13-13 13-17 12-21 12-25 10 2 9 28-4 25-4 24-9 11-5 99 122 64 73 37 41 8-6L225 484l-12-22-9-17-5-12 10-19 8-23 4-25V339l-12-22zM167 637l-5 5-6 7-10 8-10 7-27 16-34 17-20 6 2 9 21-2 20-1 19-2 34-5 15-4 27-9 13-7 11-8 8-23-10-22-23-8-23 10-2 6zm74 147-6 7-7 7-8 8-11 8-25 16-32 16-18 6 2 10 19-3 19-1 18-2 17-2 15-4 15-3 14-5 13-4 24-14 9-22-9-24-23-9-23 9-3 6z"/><glyph unicode="&#13792;" horiz-adv-x="1024" vert-adv-y="918" d="M80 274l65-32H373l33 27 59-49-27-21V-10L373-42V23H145V-42L80-74V274zM920-2l32 134h11L952-2l20-13 13-19-13-20-20-13H614l-14 1-13 2-13 5-13 6-10 9-9 11-6 12-5 13-2 13-1 14V311l65-11 16-11-16-9V146l152 42 108 33 70 25 2-8 50-42 1-17-21 10-86-23-75-17-77-12-38-5-40-3-39-2h-7V12l1-4 1-4 1-1V2l1-1 2-1 3-1 5-1H920zM373 220H145V44H373V220zM492 589l65-33H848l32 27 59-48-26-22V327l-65-32v53H557l-65-32V589zM360 398l-18 15-21 15-22 14-10 6-37-39-42-34-46-28-51-23-54-16-3 9 48 26 45 28 39 32 35 35 25 32-91 41-18 8-27-57-57 29 51 110 43 106H47v22H157l33 97 10 33 3 14 60-27 12-14-18-5-31-98H342l32 27 59-49-27-16-6-2-8-37-19-58-23-54-28-48-3-4 29-13 25-14 24-14 22-16 11-22-8-24-22-10-23 7-17 16zM848 535H557V370H848V535zM339 707H218l-37-94-33-76-2-4 17-2 35-6 33-8 32-9 8-3 8 13 22 45 17 49 14 54 7 41zm585-97-8 17-21 33-1 1-90-16-105-16-95-13-125-16-16-1-10-18-11 15-16 64 11 1 77 2 18 1 61 98 24 44 21 42 7 15 2 5 3 5 54-35 10-18-21-1-30-42-33-42-38-41-21-21-8-8 83 3 101 4 54 2 57 1h26l-32 35-57 52-22 18 5 8 26-10 26-11 23-13 23-13 21-15 19-15 19-16 16-17 15-17 14-19 3-24-15-20-24-3-20 15z"/><glyph unicode="&#13793;" horiz-adv-x="1024" vert-adv-y="918" d="M920-7l32 134h11L952-7l20-13 13-19-13-20-20-13H614l-14 1-13 3-13 4-13 6-10 9-9 11-6 12-5 13-2 14-1 14V284l65-11 16-11-16-9V130l42 11 111 29 107 32 66 22h-1 1l5 2 2-8 51-43 1-17-22 10-13-4-75-18-37-8-38-7-76-11-39-4-39-3-39-2h-7V8l1-5 1-4 1-1V-3l1-1 2-1 3-1 5-1H920zM80 252l65-32H373l33 27 59-49-27-21V-8L373-40V13H145V-24L80-56V252zm293-54H145V35H373V198zM630 870l65-10 16-11-16-10V781H861l54 54 65-54V760H695V696l-65-33v97H394V696l-63-32 26-25 3-20-20 5-63-53-48-33 22-4 16-10-16-10V313l-65-32V510l-68-37-36-17-37-15-4 8 121 94 54 46 50 47 45 49 18-18v93H44v21H329v89l65-10 16-11-16-10V781H630v89zM867 313l-10-6-22-11-12-5-12-3-11-4-12-2-13-2-12-1-12-1v33L643 327v16H751l17 1 8 1 25 7 16 7 15 8 8 7 7 7 7 10 7 12 6 14 6 17 4 19 3 21 2 23 1 14H778l-5-23-70-16 37 148H6e2l-9-47-14-52-19-46-23-42-28-38-32-32-37-28-39-22-45-16-47-10-3 9 42 20 39 23 32 24 29 29 25 31 21 34 17 39 13 42 9 46 4 36H365v22H744l32 27 60-49-27-16-10-4-16-68H884l32 27 59-48-26-16-2-1-3-29-4-25-5-23-7-22-8-20-11-19-12-16-14-15-16-12z"/><glyph unicode="&#13794;" horiz-adv-x="1024" vert-adv-y="918" d="M916-3l-7-12-8-10-9-9-11-9-11-6-12-6-13-3-13-2-14-1v32L711-13V3H818l7 1 6 1 6 1 4 2 4 2 4 3 3 4 4 4 5 12 6 19 6 28 5 36 5 45 4 52 3 60 5 143 1 83v79H825l-3-83-7-92-11-86-15-79-18-71-22-64-27-57L692-3 658-44 619-75l-6 7 29 37 25 43 23 49 20 56 17 61 13 70 10 76 7 83 3 90 1 81H669v22h92V842l64-11 17-11-17-9V6e2h71l33 27 59-49-27-16-1-64-1-83-2-76-3-69-3-61-4-54-5-46-5-40-7-32-8-27-6-13zM322-59 297 2 447 28l11 3V138H318v21H458V294H391V256l-59-30V608l59-30h67v92H310v21H458v80l-37-8-34-7-35-6-37-4-2 9 98 42 138 57 39 19h1l4 2 4-10 45-39 1-17-21 8-28-10-52-15-19-5V691h30l54 54 64-54V670H523V578h64l33 27 59-48-27-22V272l-65-32v54H523V159h30l54 54 64-54V138H523V42l75 14 40 6 40 5 3-9-38-16L531 3 424-31 343-53l-7-20-14 14zM55 745l64-32h99l30 27 56-49-26-18V186l-60-30v62H119V154L55 121V745zm163-54H119V240h99V691zM458 428H391V315h67V428zm129 0H523V315h64V428zM458 557H391V449h67V557zm129 0H523V449h64V557z"/><glyph unicode="&#13795;" horiz-adv-x="1024" vert-adv-y="918" d="M49 745l64-32H217l32 27 59-49-27-21V186l-64-32v64H113V154L49 121V745zm168-54H113V240H217V691zM920 545l24 70h10l-10-70 14-10 10-14-10-15-14-9H864l-13 1-12 4-11 5-11 8-8 10-7 11-5 12-2 13-1 14v98H744V532l-59-30v40H608V526l-59-29V673H497l-1-12-6-32-9-31-11-29-15-28-17-26-21-24-22-23h-1l3-26H9e2l32 27 60-49-27-16-19-8-26-33-34-38-13-14-8-9 29-24-27-21V68l-1-14-2-13-4-13-7-12-9-11-11-9-12-6-13-5-13-2-14-1V15L728 31V47h53 7l5 1 3 1 1 1 2 1 1 1v2l1 2 1 5 1 7V278H679V-54L614-87V278H489V-2L425-34V332l64-32H614V412l65-10 16-11-16-10V3e2H803l32 27 22-18 4 10 12 34 16 44 5 13 2 10H399l1-13V384l-2-22-3-20-5-18-6-18-10-16-11-14-24-7-22 12-6 23 11 22 7 4 7 5 7 10 7 12 7 15 6 18 6 20 9 46-9-8-28-17-6 7 21 24 19 25 17 24 14 24 12 25 9 25 7 27 4 27 2 27v7H334v22H549V863l59-11 15-11-15-9V695h77V863l59-11 14-11-14-9V695h50V857l59-10 14-11-14-9V695h23l44 48 54-48V673H853V575l-1-7 1-6v-4l1-3 2-2 3-4 5-2 6-1 7-1h43zM685 673H608V564h77V673zM440 857l59-10 15-11-15-9V695H440V857z"/><glyph unicode="&#13796;" horiz-adv-x="1024" vert-adv-y="918" d="M168 205l64-32H792l32 26 59-48-27-21V-16L792-48V6H232V-32L168-64V205zm624-54H232V27H792V151zM121 778l65-32H594L580 855l-1 12 65-5 17-9-14-11 12-95 151-1 54 54 64-54V725H663l14-81 23-90 25-78 22-47 25 48 18 45 15 47 13 60 61-23 14-14-20-6-9-34-20-51-23-48-28-45-19-25 13-22 36-38 37-27 40-16 13-1 31 131h10L944 275l22-9 10-23-10-23-22-9-59 7-56 21-49 35-44 48-7 11-43-38-43-31-47-26-51-22-4 8 45 31 40 33 37 33 33 36 10 13-8 12-33 71-27 83-24 95-16 94H186V519l-3-44-5-41-7-39-9-37-12-34-14-31-16-29-19-24-21-22-23-16-7 7 15 23 13 24 11 25 10 28 8 29 6 31 5 34 3 36 1 39-1 41V778zM245 259v16H349l4 1 4 1 2 1 1 2 1 2 2 3v5l1 7V482H206v22H364V711l64-11 16-11-16-9V610h81l34 37 43-37V588H428V504h71l54 53 64-53V482H370l58-9 16-11-16-10V297 283l-3-14-4-13-7-12-9-11-11-8-12-7-13-5-13-2H342v32l-97 16zm6 172 57-30 12-16-23-4-18-28-25-29-27-26-16-13-33-23-7 7 13 15 19 33 25 46 6 15 5 16 5 15 3 9 4 13zM539 310l-2 9-3 11-11 22-8 12-30 41-14 13 6 7 16-9 17-9 16-9 27-20 12-10 11-11 10-11 8-12 7-13-2-25-19-15-24 2-17 19v8zM772 790l-3 5-4 5-6 7-8 7-9 8-37 25-16 7 3 9 17-4 16-2 15-2 15-3 13-3 22-6 11-3 9-5 10-5 8-23-10-23-23-8-23 10v4z"/><glyph unicode="&#13797;" horiz-adv-x="1024" vert-adv-y="918" d="M966 134l-6-13-7-11-9-9-10-10-11-7-13-5-13-4-12-2-14-1v32l-54 16v17h54 7l5 1 5 1 4 2 3 2 4 3 2 3 3 4 3 6 8 27 5 27 2 32v34l-4 36-7 36-12 36-19 34-23 33-29 34-7 3 50 164 24 88 8 35H781V-40L717-72V832l64-32H907l32 27 59-49-27-16-8-3-36-90-27-59-32-61-18-31-15-23 41-20 34-32 26-37 19-40 13-41 8-41 3-39V208l-3-33-5-28-5-13zM342-8V8H449l7 1 5 1 5 1 1 1v1l1 2 2 3 1 5V149l-75-19-52-13-8-19-14 13-23 62 11 2 74 11 38 6 49 8v87l51-9 37 49 15 18H325v22H592l11 13 2-3 20 17 59-49-27-16-35-15-59-40-13-8 1-1-16-10V210l81 13 41 5 40 4 3-9-77-28-77-24-11-3V30 16L532 3l-4-13-7-13-8-10-12-9-12-7-12-4-14-2-14-1v32L342-8zM41 745l64-32h92l32 27 59-49-27-21V186l-64-32v64H105V154L41 121V745zm156-54H105V240h92V691zm158-38 65-32H586l32 27 60-49-27-21V444l-65-32v43H420V439l-65-33V653zm231-54H420V476H586V599zM305 692v21H471V869l64-10 16-11-16-10V713h47l54 54 65-54V692H305z"/><glyph unicode="&#13798;" horiz-adv-x="1024" vert-adv-y="918" d="M266 127l10 5 16 5 17 7h2V777H281v22H452l44 48 54-48V777H502V-46L443-76V174l-41-33-32-24v-1h-1L335 93l-12-7-4-23-17 10-36 54zM682 707l54-10 13-11-13-9V337l-4-62-7-58-11-53-15-49-20-44-23-40L628-4 596-33 561-57 523-75l-4 7 33 24 28 28 25 31 22 34 17 38 15 41 11 46 6 42-1e2-69-5-26-16 11-35 55 10 4 8 1 9 3 13 3 5 1V761l42-21 57 45 26 22 10 10 7 9 5 7-1 1 6 6 46-45 4-19-26 5-25-12-52-23-46-16V216l33 11 26 7 1 1 3 43 1 59V707zM840 147v15h49l3 1h2l2 2 1 2 2 2 1 4 1 5V730H837V-46L783-73V778l54-26h64l29 26 57-48-27-19V186l-1-13-1-13-4-12-5-11-8-11-10-9-10-6-12-5-13-3H883v29l-43 15zM43 745l65-32h81l29 27 57-49-27-18V186l-59-30v62H108V154L43 121V745zM443 369H370V168l73 31V369zM189 691H108V240h81V691zM443 573H370V390h73V573zm0 204H370V595h73V777z"/><glyph unicode="&#13799;" horiz-adv-x="1024" vert-adv-y="918" d="M354-41v22H629V114H401v21H629V243l65-11 16-11-16-9V135H804l54 54 64-54V114H694V-19H851l53 53 65-53V-41H354zM58 745l65-32H242l32 27 60-49-27-21V186l-65-32v64H123V154L58 121V745zM864 246l-11 17-17 23-24-5-47-9-47-8-137-20-89-11-43-5-21-2-11-17-11 15-15 64h11l42 2 44 1 24 1 23 61 39 1e2H362v22H839l54 53 64-53V453H643l-49-80-25-38-27-38-4-4 130 4 46 2 47 2 49 1h14l-29 31-55 52-20 18 5 8 25-10 25-12 24-12 22-14 40-30 19-16 33-35 15-19 4-24-13-21-24-3-21 13-10 18zM242 691H123V240H242V691zm307 31 61-22 15-12-21-8-3-10-13-29-17-27-22-23-25-21-28-18-31-16-34-12-38-11-41-6-2 9 37 17 33 17 29 17 25 18 21 20 17 19 14 21 10 21 7 22 4 24 2 10zm143 39H903l4 4 29 23 59-48-27-16-22-9-33-36-35-33-11-13-8 6 8 15 27 69 5 17H765V624l-1-7 1-5v-4l1-2v-2l1-1 3-2 3-2 6-1 7-1H916l27 91h10l-10-91 16-11 10-16-10-16-16-11H773l-13 2-13 3-11 6-11 8-9 11-7 11-5 13-3 13-1 14V740H421l1-10V709l-1-19-3-18-5-17-6-15-9-15-11-13-24-6-21 13-6 24 13 21 5 3 7 4 6 7 7 10 7 12 6 15 6 18 4 19 5 22 2 25h10l3-25 2-13H628V880l64-11 16-11-16-10V761z"/><glyph unicode="&#13800;" horiz-adv-x="1024" vert-adv-y="918" d="M168 286l64-32H792l32 27 59-49-27-21V-23L792-55V-1H232V-39L168-71V286zm624-54H232V20H792V232zM421 443l-4 8-5 8-7 9-9 9-11 10-28 19-16 11-8 3-15-29-20-31-23-28-26-24-30-21-33-18-5 8 25 25 22 26 20 26 16 28 14 29 11 31 4 15H157V366H437l53 54 65-54V345H157V280L93 248V840l64-32H426l54 54 64-54V787H157V578H298l5 32 4 37v28H264l-15-21-14-16-48-44-7 6 11 18 26 56 13 35 6 17 5 18 4 16 2 12h-1l2 5 3 9 59-26 13-15-22-6-17-34-6-9H393l44 49 53-49V675H371l-4-34-7-41-6-22h29l54 54 64-54V557H348l-10-25 7-2 20-3 19-4 17-6 16-6 14-6 14-8 13-8 10-10 11-11 2-25-15-19-25-3-19 16-1 6zM555 578H808l3 5h2l27 22 59-48-27-16-16-7-14-21-28-36-31-34-31-28 31-17 37-14 39-13 88-22-62-57-47 15-43 18-39 21-36 23-14 11-33-20-41-22-44-19-47-15-49-12-3 10 45 21 41 22 40 24 36 25 21 17-13 13-24 30-20 34-15 35-9 34H555v21zm242-21H604l16-24 21-28 24-26 25-24 18-13 35 38 25 32 24 35 5 10zM907 668l24 70h11l-11-70 15-9 10-15-10-14-15-10H837l-12 1-12 4-12 5-11 8-9 9-7 12-5 12-3 13-1 14V798H644l-1-13-6-32-8-30-10-29-12-26-14-25-16-23-19-20-21-16-22-14-6 7 14 21 13 21 11 21 10 22 8 23 6 24 6 26 3 27 2 29v30l1 32 61-33H765l32 27 59-49-27-21V698v-7-5-4-2l2-5 2-1 4-3 6-2 8-1h56z"/><glyph unicode="&#13801;" horiz-adv-x="1024" vert-adv-y="918" d="M679 428l53-37 8-17H717l-14-15-20-20-22-19-10-8-5-2H868l33 27 59-49-27-21V-24L868-56V-2H507V-40L443-72V342l64-32H627l2 3 32 74 15 37 3 4zM868 143H507V19H868V143zM58 745l65-32H242l32 27 60-49-27-21V186l-65-32v64H123V154L58 121V745zM868 288H507V165H868V288zM242 691H123V240H242V691zM607 831l59-48-27-22V423l-65-33V561h-1l-19-21-19-19-44-37-25-18-55-36-31-17-34-16-5 8 99 92 39 41 31 39 12 19 10 17h1l2 5 39-30V783H350v21H574l33 27zm319 0 59-48-27-22V423l-64-33V783H694v21H894l32 27zM837 625l48-44 6-18-21 3-36-33-40-31-44-31-25-15-53-26-6 8 99 97 31 36 27 34 12 16 2 4zM510 774l51-41 7-17-21 1-34-36-40-35-46-34-25-17-27-16-29-15-5 8L441 678l17 20 28 37 11 18 11 17 2 4zm321 6 48-42 6-19-21 3-15-15-35-29-41-29-21-14-23-14-51-25-5 8 76 75 31 34 27 33 18 27 6 7z"/><glyph unicode="&#13802;" horiz-adv-x="1024" vert-adv-y="918" d="M902 144l-5 17-13 34-6 12-108-18-60-9-23-3V-35L622-67V169l-77-9-96-11-65-6-11-18-11 15-14 64 10 1h42l45 1 97 4 52 1 21 1 27 40 83 117 42 66 50-41 7-18-20 2-55-62-41-42-45-42-23-19 127 5 63 1 41 1-5 9-22 34-26 34-15 17 6 8 40-24 35-28 16-15 15-16 14-17 12-17 11-18 11-20-1-24-18-17H920l-18 18zm-397-8 53-38 8-17H545L513 44 496 27 459-5 438-20 416-34 369-60l-6 7L416 5l30 36 26 36 12 19 21 40zM861-17 853 0 833 35 810 69l-43 52-16 18 5 8 43-24 38-27 34-31 30-34L926-6l2-25-17-18-24-2-19 16-7 18zM86 745l64-32h87l32 27 59-49-27-21V186l-64-32v64H150V154L86 121V745zM544 264l-6 16-8 16-19 30-36 45-15 15-16 14 5 8 40-18 19-10 17-12 17-13 4-4 17 34 47 93 6 16 3 4 52-38 9-18H657l-31-36-39-39-29-25-1-1 15-15 14-16 11-17 12-18V251l-16-19H568l-18 16-6 16zM237 691H150V240h87V691zm89-223 10 3 24 5 29 7V774l60-11 15-11-15-9V498l47 13V865l59-11 15-11-15-9V705h34l34 38 43-38V684H555V528l82 23 46 11 3-9-83-42-110-48-116-46-2-1-7-20-15 13-27 59zm599 58 33 134h10L958 526l19-13 13-19-13-20-19-13H780l-14 1-13 2-13 5-12 6-11 9-9 11-7 12-4 13-2 13-1 14V865l64-11 16-11-16-9V670l56 39 35 26 30 27 23 23h-1l5 4 43-48 2-20-21 7-16-11-39-22-43-20-22-9-24-8-25-7-3-1V547l1-7 1-5 1-2v-2l2-1 1-1 1-1 3-1 5-1h7H925z"/><glyph unicode="&#13803;" horiz-adv-x="1024" vert-adv-y="918" d="M496-29v16H604l6 1 6 1 2 1h3l1 1v1l1 2 1 3 1 5V9 245H387v22H803l54 53 64-53V245H690V9L689-5l-2-13-5-13-6-13-9-10-11-9-12-7-13-4-13-2-14-1v32L496-29zm3 205 52-38 8-18H538L518 95 481 55 461 37 417 1 394-15 370-30 343-44l-6 9 57 62 34 41 30 41 14 21 24 42 3 4zM879 2 868 22 843 60 829 78l-32 35-36 34-19 16 4 9 25-9 24-11 23-13 22-14 20-15 20-18 18-18 17-20 31-43 2-24-16-19-24-2-19 15L879 2zM52 745l64-32H225l33 27 59-49-27-21V186l-65-32v64H116V154L52 121V745zm173-54H116V240H225V691zM448 471l-4 24-7 23-8 22-5 11-12 22-4 4-24-33-24-26-24-23-7 6 30 58 29 63 28 69 13 37 23 80 11 43 2 9 60-26 13-15-20-5-23-65-1-4h96l33 27 59-48-27-17-10-4-19-48-29-63-31-59-32-55-33-50-36-46-36-40-39-36-40-30-42-24-5 8 34 32 33 35 32 38 31 42 30 46v1l-15 17zM891 368l-38 36-36 41-31 45-29 48-26 51-23 55-19 59-16 61-11 67 10 2 23-62 10-26H866l32 27 59-48-27-17-13-5-27-49-26-38-31-40-22-27 19-27 33-37 34-34 36-31 58-39-59-46-41 34zM739 471l54-48V401H526v22H695l44 48zM5e2 576l-2 9-3 10-4 9-5 10-5 10-23 31-3 3-30-55-11-16 30-18 11-8 11-10 19-21 9-12 2-5 20 39-14 14-2 10zM862 724H714l30-65 27-49 29-47 39 92 20 57 3 12zm-277 0H485l-23-53-2-3 5-2 13-5 13-6 12-7 12-7 11-9 10-9 8-8 25 63 16 46z"/><glyph unicode="&#13804;" horiz-adv-x="1024" vert-adv-y="918" d="M606 53l-6 9-16 19-10 9-24 20-30 19-18 10-68-28-49-15-51-14-54-12-57-9-3 9 105 39 93 40 80 43 36 22 31 23 29 24 26 25 2 1 42-48 3-20-20 6-7-6H870l11 11 2-2 21 18 60-49-27-16-27-11-35-32-59-42-65-38-72-33L6e2-3 515-26 423-44 325-57 220-65 109-67l-1 9L218-45 321-28 416-9l88 23 81 27 25 10-4 2zM848 197H610l-49-29-35-18 20-4 19-4 33-12 16-7 14-8 14-9 12-10 8-23 63 32 59 39 52 41 12 12zM418 266l-5 8-8 9-9 8-10 9-12 9-28 17-15 9-49-22-40-16-44-14-45-12-49-10-2 9 86 40 77 40 35 20 62 42 27 22 25 22 24 25 44-48 3-17H690l15 14 3-3 19 16 59-48-27-17-31-12-31-25-54-38-59-34-63-31-66-28-70-25-74-22-78-17-81-14-86-11-1 10 83 21 78 22 75 23 70 27 64 27-12 7-5 8zM666 395H433l-41-27-34-20-3-2 16-2 17-4 16-4 16-5 14-7 13-7 13-8 12-10 7-24-1-3 21 11 58 33 53 35 50 38 6 6zM466 420l-5-4h19l-14 4zM259 660l65-32H7e2l32 27 60-49-27-21V492l-65-32v32H324V476l-65-32V660zm441-54H324V514H7e2v92zm66 244h-1l6 7 47-44 6-18-25 4-77-55-49-33H888l3 3 2 4 2-1 26 21 59-48-27-16-23-10-50-47-30-26-17-13-17-15-7 6 13 19 39 67 19 35H153V675l-2-24-4-23-6-22-9-19-11-19-14-16-16-14-25-3-20 15-3 24 15 20 10 5 11 7 9 10 10 11 9 15 8 18 7 20 6 23 5 27 3 28h10l5-47H480V875l64-11 16-11-16-10V711H654l14 16 72 86 18 24 6 10 2 3zM288 738l-5 11-6 11-8 11-19 23-37 36-15 9 3 9 19-6 17-5 17-7 17-7 15-9 28-19 13-11 11-11 11-13 3-25-15-19-24-4-20 15-5 11z"/></font>
</defs>
</svg>
