<svg xmlns="http://www.w3.org/2000/svg"><defs><font name="Jigmo Regular" horiz-adv-x="1024" vert-adv-y="1024"><font-face font-family="Jigmo" font-weight="400" font-stretch="normal" units-per-em="1024" ascent="995" descent="169"/><glyph glyph-name="undefined" unicode="䪞" horiz-adv-x="1024" vert-adv-y="918" d="M59-16V6H379V120H117v22H379V244H164v22H379V368H122v21H379V489l65-11 16-11-16-10V6H580V489l64-11 16-11-16-10V389H783l54 54 65-54V368H644V266H762l44 48 53-48V244H644V142H809l44 48 54-48V120H644V6H846l54 54L965 6V-16H59zM873 437l-36 14-67 34-63 42-29 24-27 26-26 28-19 27H452l-41-40-46-38-51-35-56-31-61-29-66-26-72-22-3 9 67 32 62 32 56 34 50 35 46 37 40 38 3 4H84v22H399l12 14 30 41 24 44 9 21H167v22H744l53 53 65-53V774H545l-26-51-31-46-19-23H826l54 53 65-53V632H625l76-49 62-34 31-14 32-13 34-11 33-10 35-8 45-12-63-57-37 13z"/><glyph glyph-name="undefined" unicode="䪟" horiz-adv-x="1024" vert-adv-y="918" d="M461-56v22H613V109H477v21H613V248H495v22H613V381H479v22H613V523l64-11 16-10-16-10V-34h80V523l64-11 16-10-16-10V399h66l34 38 43-38V377H821V266h35l34 38 43-38V245H821V126h69l34 38 43-38V105H821V-34h37l53 53 65-53V-56H461zM322 84v16h43l6 1 5 1 3 1h2l1 1 1 1 1 2 1 3 1 5v6V492H297V-45L232-77V492H148V52L84 19V546l64-32h84V664l65-10 16-11-16-10V514h89l32 27 60-49-27-21V121l-1-13-3-13-4-13-6-13-9-10-11-9-12-7-13-4-13-2-14-2V68L322 84zM875 518l-47 16-45 21-41 25-28 22-41-24-48-23-52-18-55-13-59-9-2 9 56 19 50 21 47 23 42 26 28 21-8 8-30 37-26 41-21 45-13 39H507v22H818l33 27 59-49-27-16-13-5-14-28-28-43-33-40-37-36-1-1 14-9 38-17 40-15 42-11 98-15-63-62-51 12zM48 664v22H232V863l65-10 16-11-16-10V686h75l54 54 64-54V664H48zM811 804H597l18-28 28-38 29-34 31-30 12-9 9 8 30 34 26 37 22 40 9 20z"/><glyph glyph-name="undefined" unicode="䪠" horiz-adv-x="1024" vert-adv-y="918" d="M50-24V-2H378V95H109v21H378v86H157v22H378v86H114v21H378v86l64-11 16-10-16-10V-2H582V417l64-11 17-10-17-10V331H792l53 54 65-54V310H646V224H769l44 48 54-48V202H646V116H817l44 49 54-49V95H646V-2H877l44 48L974-2V-24H50zM475 489l-8-11-9-9-10-8-11-8-12-6-12-5-12-3-14-1-13-1v32l-54 16v16h54l7 1 7 1 12 3 4 3 5 3 4 4 4 4 4 5 3 5v5l1 8v11l1 13 1 14v17 29H297V413l-65-32V547l-26-29-24-21-25-18-26-16-28-14-28-10-30-8-3 9 47 34 22 18 20 19 20 20 17 21 17 23 16 24 14 26 1 2H134l-5-23-71-16 51 207 46-38 77 20v93l65-10 16-11-16-10V795l44 14 25 10 23 10 20 10 17 10 8-14 36-36 1-17-21 8-16-7-24-8-56-14-31-6-26-4V649H427l32 27 59-49-26-16V597l-1-17-1-29-1-12-1-11-1-8-1-9-4-10-7-12zm415-65-32 21-28 23-25 27-21 29-17 31-13 33-7 30-4-13-20-40-26-37-29-31-33-28-38-22-41-17-46-11-2 9 39 21 35 23 31 25 26 28 21 30 18 33 14 36 10 40 6 43 2 35H651l-20-30-18-23-19-22-21-20-23-19-24-17-7 8 47 70 26 47 11 24 20 50 8 25 7 27 2 8 60-27 12-15-20-5-15-35-14-25H888l3 3v1l1-1 29 24 59-48-27-16-28-12-59-51-17-13-17-15-7 6 14 18 20 35 22 41 3 7H774l-5-43-6-29 13-38 14-29 16-27 18-23 21-21 22-18 26-16 28-14 67-27-62-51-36 18zM232 744l-17-2-41-1H162l-22-92h92v95z"/><glyph glyph-name="undefined" unicode="䪡" horiz-adv-x="1024" vert-adv-y="918" d="M50-26V-5H378V89H109v21H378v84H157v21H378v83H114v22H378v84l64-11 16-11-16-9V-5H582V404l64-11 17-11-17-9V320H792l53 54 65-54V298H646V215H769l44 48 54-48V194H646V110H817l44 49 54-49V89H646V-5H877l44 49L974-5V-26H50zM435 483l-8-11-9-10-9-9-11-8-11-6-13-5-13-3-12-2-14-1v32l-43 16v16h43l7 1 7 1 5 2 5 1 9 6 8 8 6 10v6l1 9 1 11v13l1 15v17 19 11H273V403l-65-32V534l-19-22-21-21-23-20-24-16-26-14-26-11-28-8-4 9 22 17 40 35 18 19 18 20 16 22 14 23 14 24 13 27 2 4H125l-5-23-70-17L96 791l46-37 66 19v96l65-10 16-11-16-10V793l35 13 23 10 20 10 18 11 15 10 13-22 28-29 1-18-20 8-10-4-22-9-25-7-26-7-29-6-21-4V644H385l32 26 60-48-27-16-1-15V574 557l-2-25V521l-1-8-2-8-3-10-6-12zm464-58-28 19-25 22-22 23-17 24-15 27-10 27-4 17-15-35-24-37-28-31-32-26-37-21-41-14-44-9-3 10 40 18 34 21 29 23 24 26 20 29 16 32 13 36 8 40 5 44v38H707l-15-15-18-15-41-28-6 8 15 19 25 37 22 37 8 19 15 37 5 19 4 18 3 9 59-27 12-15-21-6-10-21-12-20-13-18-13-17H895l5 5 2 5 2-2 23 19 59-48-27-16-41-18-33-20-27-14-13-10-6 7 11 12 30 47 7 12H806l-3-43-8-50 12-31 11-22 13-20 15-18 18-18 20-15 22-14 25-13 61-27-62-50-31 18zM499 493l-38 53 73 32 44 22 115 60 6-8-38-39-39-35-41-31-61-42-2-1-2-21-17 10zM208 741l-13-1-37-2h-8l-20-94h78v97zm396 64 43-37V746H483v22h87l34 37z"/><glyph glyph-name="undefined" unicode="䪢" horiz-adv-x="1024" vert-adv-y="918" d="M420 110l-5-12-7-12-8-11-11-9-11-7-12-6-13-4-13-2-14-1V78L283 95v16h43 7l6 1 4 1 4 2 5 4 3 4 2 4 2 5 2 7 3 12 2 15 2 18 2 22 3 55 1 31 1 74v30H267V-45L203-77V229l-14-32-21-41-22-37-24-34L97 55 70 31 42 11l-7 7L74 73l19 31 17 35 17 37 16 41 15 44 14 48 13 50 7 37H123l-7-68-68-25L88 663l49-32 66 29V853l64-11 17-11-17-10V695l28 18 22 18 20 17 16 18 15 18 2 2 47-44 6-19-22 4-27-24-25-16-27-16-29-14-26-10V417H375l33 27 59-48-27-16V365l-1-74-1-33-3-56-3-24-2-21-2-18-4-16-4-13zm8-144v21H615V88H464v22H615v90H493v21H615v91H467v21H615v90l59-11 14-10-14-10V-13h63V423l59-11 15-10-15-10V333h72l33 38 43-38V312H796V221h46l33 38 43-38V2e2H796V110h75l33 37 43-37V88H796V-13h89l44 48 54-48V-34H428zM899 429l-29 19-27 21-23 23-19 25-16 25-11 28-5 21-19-39-25-36-30-31-34-26-39-20-42-14-47-8-3 9 43 18 36 20 31 24 27 26 21 28 18 33 13 35 9 39 4 44 1 37H691l-16-15-18-15-43-27-6 8 16 18 28 38 23 37 10 18 8 18 7 18 6 19 3 13 4 14 59-29 11-15-21-5-11-21-12-20-27-33H895l5 4 3 6 2-2 23 19 59-48-27-17-51-21-16-9-12-7-13-7-15-7-13-9-6 7 11 11 33 47 7 12H797l-4-43-9-47 13-32 12-22 14-20 16-18 19-17 21-15 24-14 27-13 64-26-62-52-33 18zM203 627l-10-3-37-7-8-1-22-199h77V627zM470 496l-38 55 78 32 93 44 49 24 26 12 5-8-19-21-42-36-43-33-43-30-44-26-3-2-3-21-16 10zM586 806l43-37V747H454v22h98l34 37z"/><glyph glyph-name="undefined" unicode="䪣" horiz-adv-x="1024" vert-adv-y="918" d="M428-34v21H615V88H464v22H615v90H493v21H615v91H467v21H615v90l59-11 14-10-14-10V-13h63V423l59-11 15-10-15-10V333h72l33 38 43-38V312H796V221h46l33 38 43-38V2e2H796V110h75l33 37 43-37V88H796V-13h89l44 48 54-48V-34H428zM270 363v17h43 7l4 1 5 2 2 2 2 5 1 5 1 6V568H265V-40L2e2-72V219l-15-31-21-39-22-36-24-32L94 52 68 26 42 5l-7 7L71 69l35 64 34 76 32 87 28 95V568H136V342L71 310V621l65-32h64V691H39v22H2e2V869l65-11 16-11-16-9V713h53l54 54 65-54V691H265V589h70l32 27 59-48-27-22V401l-1-13-2-14-4-13-7-12-9-11-11-8-12-7-13-5-13-2-14-1v32l-43 16zm629 66-29 19-27 21-23 23-19 25-16 25-11 28-5 21-19-39-25-36-30-31-34-26-39-20-42-14-47-8-3 9 43 18 36 20 31 24 27 26 21 28 18 33 13 35 9 39 4 44 1 37H691l-16-15-18-15-43-27-6 8 16 18 28 38 23 37 10 18 8 18 7 18 6 19 3 13 4 14 59-29 11-15-21-5-11-21-12-20-27-33H895l5 4 3 6 2-2 23 19 59-48-27-17-51-21-16-9-12-7-13-7-15-7-13-9-6 7 11 11 33 47 7 12H797l-4-43-9-47 13-32 12-22 14-20 16-18 19-17 21-15 24-14 27-13 64-26-62-52-33 18zM470 496l-38 55 78 32 93 44 49 24 26 12 5-8-19-21-42-36-43-33-43-30-44-26-3-2-3-21-16 10zM586 806l43-37V747H454v22h98l34 37z"/><glyph glyph-name="undefined" unicode="䪤" horiz-adv-x="1024" vert-adv-y="918" d="M928 334l-19 15-38 34-37 41-36 47-18 26-17 28-2 3V347l-64-32V504l-35-50-23-28-25-27-26-24-27-22-25-18 57-28H865l32 27 60-49-27-21V-30L865-62V-8H593V-46L528-78V330l-26-15-32-14-5 8 72 70 43 51 20 27 18 28 33 60 3 7H487v21H697V766l-52-6-50-5-52-2-55-1-2 9 153 34 86 21 75 21 32 11 54 22 4-9 46-41 1-17-22 9-35-11-32-9-73-15-14-2V573h36l-4 3 7 18 5 19 46 136h-1l5 11 56-33 10-16-21-3-28-44-34-47-36-44h56l53 54 65-54V552H767l82-75 41-33 20-16 38-24 39-24-59-46zM61-43 37 18l95 18 39 7V234H50v22H171V455H50v21H171V659H50v22H171V842l59-11 14-11-14-9V54l64 12V837l59-11 15-11-15-9V681h50l34 37 43-37V659H353V476h50l34 38 43-38V455H353V261h50l34 38 43-38V240H353V77l30 5 42 7 42 5 3-9-40-16-80-28-82-26L230 4V3h-2L83-37 76-56 61-43zM697 141H593V13H697V141zm168 0H761V13H865V141zM697 285H593V162H697V285zm168 0H761V162H865V285zM590 626l-4 24-9 35-9 22-5 11-7 9 6 8 10-8 12-6 10-8 10-9 10-10 9-11 9-12 8-13 14-28-3-25-19-15-25 4-15 18-2 14z"/><glyph glyph-name="undefined" unicode="䪥" horiz-adv-x="1024" vert-adv-y="918" d="M188 98l47-44 6-19-23 4-25-20-55-37L94-44 43-70l-5 8 77 74 43 46 11 14 14 20 5 6zM451-37v21H608V98H467v22H608v95H486v21H608v88H470v22H608v88l64-11 16-11-16-9V-16h84V434l64-11 16-11-16-9V343h71l33 38 43-38V321H820V233h39l34 37 43-37V211H820V117h74l34 38 43-38V96H820V-16h41l54 54 65-54V-37H451zM366 0l-2 6-4 7-5 8-15 17-20 17-12 10-14 7 3 9 16-5 16-2 14-4 27-8 23-11 10-6 10-8 9-8 3-24-13-21-25-3L367-5l-1 5zM101 515l65-32H354l33 27 59-49-27-21V120L354 88v32H166L101 88V515zM354 239H166V142H354v97zm0 111H166V260H354v90zm0 111H166V371H354v90zm496-32-48 27-43 32-37 35h-1l-20-15-56-32-61-26-67-21-72-15-2 9 68 25 62 28 55 31 49 34 17 15-33 48-22 46-16 50-12 53-3 51H535v21H845l33 27 59-48-27-16-8-4-12-38-26-58-32-53-37-47-31-29 31-25 40-23 43-21 86-31-63-53-51 23zM118 648V633l-1-19-2-18-5-18-6-16-8-16-21-13-24 6-12 21 5 24 8 8 7 9 13 24 6 14 4 16 4 18 7 39v22l9 1 5-22 6-21 3-21v-1H228V869l65-11 16-11-16-9V767h84l44 48 54-48V745H293V670H422l4 3v2l1-1 27 23 60-49-27-16-30-12-12-10-17-12-19-10-6-6 11-9V552H138v21H316l44 48 36-32 5 7 14 37 4 15H118zM841 804H618l15-46 19-47 22-43 26-40 28-34 3-3 26 29 30 45 26 48 19 52 9 39z"/><glyph glyph-name="undefined" unicode="韯" horiz-adv-x="1024" vert-adv-y="918" d="M722 853l-16-10 5-174 9-96H887l44 48 54-48V552H722l5-47 23-138 29-112 9-25 26 56 25 67 25 82 59-26 13-15-20-5-19-56-30-71-35-64-20-32 34-67 33-47 31-30 9-6 28 122h11L948 3l22-9 10-23-10-23-23-9-38 8-39 24-40 39-40 56-21 41-16-20-45-46L659 1 607-32 551-58 492-76l-3 9 53 28L592-8l45 37 43 41 38 46 28 41-29 78-30 119-24 142-6 56H447V444h80l44 48 54-48V423H447V315h96l44 48 54-48V294H447V186H565l44 48 54-48V165H447V62l89 6 88 5 1-10-87-16L385 22 93-24H91L81-43 68-28 52 35l10 1 24 1 70 4 76 5V165H71v21H232V294H71v21H232V423H71v21H232V552H39v21H302V697H93v21H302V874l65-11 16-10-16-10V718h91l54 54 65-54V697H367V573H655l-9 93-5 192v18l65-13 16-10zM297 552V51l86 6V552H297zM847 698l-6 14-7 15-17 29-10 14-23 28-13 14-15 13 5 8 37-16 18-10 16-11 16-12 15-13 13-14 13-15 12-16 10-17V684l-16-18H870l-18 17-5 15z"/><glyph glyph-name="undefined" unicode="韰" horiz-adv-x="1024" vert-adv-y="918" d="M50-35v22H378V92H109v22H378v95H157v21H378v95H114v21H378v94l64-11 16-11-16-9V-13H582V440l64-11 17-11-17-9V346H792l53 54 65-54V325H646V230H769l44 48 54-48V209H646V114H817l44 48 54-48V92H646V-13H877l44 48 53-48V-35H50zM356 686h91l6 8 2-2 25 21 59-49-27-16-19-8-17-21-33-37-37-34-40-31-43-29-46-27-49-24-52-23-56-18-59-15-2 9 54 25 51 26 47 27 45 28 41 29 38 31 34 32 31 33 28 36 5 7H239l-26-31-4-3 11-2 13-4 13-5 12-6 12-8 10-8 11-10 9-10 3-25-14-19-25-3-19 14-3 9-8 18-5 8-14 17-7 8-13 11-44-39-24-17-26-17-27-16-6 8 76 89 30 41 13 20 21 41 9 19 3 6 55-34 10-18-22-1-7-11h36V874l64-11 16-10-16-10V772h80l44 48 54-48V750H356V686zM865 449l-43 22-40 26-38 29-28 28-33-24-48-29-51-25-55-20-59-16-3 9 54 26 50 27 46 29 42 31 27 25-8 9-28 41-26 45-22 48-16 47H550v22H829l32 27 60-49-27-16-13-5-15-30-29-46-33-43-37-40-11-10 23-18 35-23 37-19 39-15 83-24-63-56-45 17zM822 777H599l23-37 29-42 30-38 31-34 7-7 12 13 31 38 26 41 24 44 10 22z"/><glyph glyph-name="undefined" unicode="𩐁" horiz-adv-x="1024" vert-adv-y="918" d="M204 278l-3 15-5 14-6 13-7 13-8 13-10 13-23 25-2 2-32-52-30-39-34-36-8 5 48 85 21 45 19 47 18 49 16 51 14 54 12 57 9 58 6 46H40v21H322l53 54 65-54V756H263l-10-57-13-60-16-58-5-13H337l33 27 59-49-27-16-4-2-10-66-19-86-23-80-29-74-33-68-39-61-43-54L153-9 1e2-49 43-81l-6 8L88-33l46 45 40 49 37 55 32 59 28 66 23 71 19 77 14 82 9 75H212l-27-72-24-50-14-26 20-8 17-8 16-10 15-12 13-13 13-15 10-16 10-17 8-19-3-24-20-15-24 3-15 19-3 15zM378-40v22H564V218H396v22H564V439H418v21H564V648H4e2v22H564V842l64-11 16-11-16-9V-18H734V842l65-11 16-11-16-9V664h77l44 49 53-49V643H799V455h61l34 37 43-37V433H799V234h80l44 49 54-49V213H799V-18h71l53 53 65-53V-40H378z"/><glyph glyph-name="undefined" unicode="𩐂" horiz-adv-x="1024" vert-adv-y="918" d="M56-32v21H349V102H83v22H349v93H115v21H349v88H88v21H349v87l65-10 16-11-16-10V-11H604V434l65-10 16-11-16-10V345H828l53 53 65-53V323H669V235H794l44 49 54-49V214H669V121H854l44 48 54-48V99H669V-11H870l44 49 54-49V-32H56zM861 460l-51 23-47 28-43 31-12 12-11-8-51-28-55-23-59-18-62-14-3 10 58 23 55 25 49 28 45 31 3 3-29 33-29 43-24 45-20 49-11 49H523v21H856l32 27 59-48-26-17-13-5-16-32-31-49-35-44-39-41-33-28 40-24 43-22 48-17 94-27-63-56-55 20zM403 514l-20 20-46 40-13 11-11-11-42-35-46-32-50-26-55-23-58-18-4 9 54 27 48 30 45 31 40 33 35 36 6 7-59 43-99 67 3 8 40-13 38-15 69-33 32-17 5-3 23 34 23 43 19 46 9 29H82v21H394l32 27 59-48-27-17-10-4-11-31-24-49-29-46-25-32 37-24 50-37 11-22-8-23-23-11-23 8zM848 802H576l20-40 26-42 29-39 31-35 34-32 36 35 32 40 29 42 24 45 11 26z"/><glyph glyph-name="undefined" unicode="𩐃" horiz-adv-x="1024" vert-adv-y="918" d="M55-41v22H345V86H82v22H345v86H114v22H345v81H87v21H345v81l65-10 16-11-16-10V-19H598V399l65-10 16-11-16-10V316H839l44 48 54-48V294H663V213H785l44 48 54-48V191H663V105H844l44 48 54-48V83H663V-19H860l44 48 54-48V-41H55zM482 866l65-11 16-10-16-10V772H832l54 54 64-54V750H547V675H763l32 27 59-48-27-22V409l-64-32v43H266V404l-64-33V707l64-32H482V866zM763 535H266V441H763v94zM266 654V557H763v97H266z"/><glyph glyph-name="undefined" unicode="𩐄" horiz-adv-x="1024" vert-adv-y="918" d="M55-37v21H345V98H82v22H345v95H114v21H345v88H87v22H345v88l65-11 16-11-16-9V-16H598V434l65-11 16-11-16-9V343H839l44 48 54-48V321H663V233H785l44 48 54-48V211H663V117H844l44 49 54-49V96H663V-16H840l54 54 64-54V-37H55zM882 556l-42 12-38 14-16 6-26-21V455l-65-32v43H312V449l-64-32V601l-62-19-68-16-74-13-2 10 71 23 64 24 59 24 12 6v2l2-1 38 18 48 26 39 27H49v22H402l10 8 30 29 23 30 3 5H166v21H729l53 54 65-54V806H544l-30-42-28-30H866l44 48 54-48V712H626l33-16 59-25 32-12 34-11 36-9 38-9 39-9 42-7 50-9-64-60-43 11zM695 588H312V487H695V588zM601 712H461l-15-12-42-29-46-25-52-24-11-4 17-8H695l17 13-44 26-26 21-24 22-17 20z"/><glyph glyph-name="undefined" unicode="𩐅" horiz-adv-x="1024" vert-adv-y="918" d="M877-30 826 3 780 40 738 82l-6 7-48-45L628 3 567-31 502-58 432-76l-2 9 64 28L553-6l54 38 50 42 45 48 2 3-36 56-29 56-23 61-19 65-11 65H537v21H688V863l64-10 16-11-16-10V670H886l44 48 53-48V648H752V449H862l32 27 59-48-27-16-8-4-21-59-33-74-38-67-43-62-14-16 9-10 40-35 43-29 47-25L994-4 932-56 877-30zM75-60 48 0 206 36V146H73v22H206V271H73v21H206v90H73v22H206v90l64-11 16-11-16-10V50l65 14 5 1V490l64-10 17-11-17-10V404h57l33 37 43-37V382H404V292h57l33 38 43-38V271H404V171h57l33 38 43-38V149H404V77l71 13 47 6 2-9-89-33L210-18 96-53 90-73 75-60zM597 428l22-59 26-59 29-56 32-49 29-39 8 10 36 59 32 65 28 71 18 57H597zm-94 23-21 13-39 32-18 18-17 21-15 22-15 23-13 25-12 27-8 25H272l-20-34-26-39-30-36-32-33-35-30-39-26-41-23-6 8 35 31 31 31 29 33 27 35 23 36 21 37 4 10H60v22H223l19 50 13 44 6 27H106v22H370l53 54 65-54V8e2H327l-13-45-18-46-13-30H415l53 54 65-54V657H359l31-35 36-37 36-31 18-12 18-11 18-9 18-7 31-14-62-50z"/><glyph glyph-name="undefined" unicode="𩐆" horiz-adv-x="1024" vert-adv-y="918" d="M50-27V-6H378V92H109v21H378v88H157v21H378v87H114v22H378v78l-5-3-13-4-13-3H334v32l-97 16v16h97l6 1h5l3 2 2 1h1l1 1v2l1 4 1 4 1 7V601l-26-26-30-25-31-23-32-22-70-36-37-15-39-13-40-9-4 9 70 39 33 20 31 21 57 45 51 50 21 24H169l-9-26-72-8 67 186 58-32 11-16-19-4-28-79H355V801H68v22H398l54 53 64-53V801H420V661h24l44 49 54-49V640H420V485l-2-14-2-14-4-12-7-12-9-11-7-6 53-9 16-11-16-9V-6H582V418l64-11 17-11-17-9V331H792l53 53 65-53V309H646V222H769l44 48 54-48V201H646V113H817l44 49 54-49V92H646V-6H877l44 48L974-6V-27H50zM893 445l-26 18-24 21-22 23-19 25-16 27-12 28-8 30v4l-8-22-20-35-24-30-28-28-33-23-37-20-41-16-46-13-2 10 39 21 36 23 30 23 26 25 21 26 16 28 13 29 8 31 4 33 1 36v23l64-11 16-11-17-10-3-34-2-7 6-16 11-26 14-23 14-22 18-19 18-17 20-16 22-14 23-12 58-24-61-51-29 16zM681 879l60-26 13-14-21-6-9-19-11-19-12-18H887l33 27 59-48-27-16-32-14-35-24-14-8-17-9-15-12-6 8 13 13 28 40 6 11 5 10 1 1H686l-16-19-37-38-43-36-8 7 31 47 25 43 20 39 7 19 6 18 4 17 3 11h-1l4 15z"/><glyph glyph-name="undefined" unicode="𩐇" horiz-adv-x="1024" vert-adv-y="918" d="M50-24V-2H378V95H109v21H378v86H157v22H378v86H114v21H378v86l64-11 16-10-16-10V-2H582V417l64-11 17-10-17-10V331H792l53 54 65-54V310H646V224H769l44 48 54-48V202H646V116H817l44 49 54-49V95H646V-2H877l44 48L974-2V-24H50zM829 430l-48 20-43 23-38 26-13 11-33-22-50-25-54-21-60-15-65-11-2 10 61 21 55 23 49 25 43 28 23 18-16 18-24 33-18 36-12 38-3 20-21-17-25-16-27-14-6 8 56 65 31 43 14 21 12 23 11 22 10 23 11 31 57-32 11-15-21-4-17-31-33-45 162-1 53 54 65-54V726H834l-14-46-21-47-28-43-34-38-7-7 37-20 40-16 44-15 92-26-63-56-51 18zM337 487v16h83l4 1 4 1 1 1h1l1 1 1 2 1 3 1 5v54l-25-19-28 20-24 22-22 23-18 26-15 27-7 19-11-20-15-22-17-21-20-19-21-16-23-14-25-12-20-7V480L79 447V791l64-32H280l1 32 5 29H161v21H269l23 19 59-48-27-16-19-10 6-22 3-5H434l32 27 59-48-26-22V524l-1-14-3-13-4-13-6-12-9-11-11-9-12-6-13-5-13-2-14-1v32l-76 17zM249 738H143V573l10 8 19 18 17 18 15 18 13 19 11 19 8 19 7 21 5 21 1 4zm519-12H624l-19-20-11-10 11-22 19-31 22-29 25-25 18-15 11 11 27 36 20 38 16 40 5 27zM434 738H322l10-22 14-21 15-20 18-18 19-16 22-14 14-8V738z"/><glyph glyph-name="undefined" unicode="𩐈" horiz-adv-x="1024" vert-adv-y="918" d="M50-24V-2H378V95H109v21H378v86H157v22H378v86H114v21H378v86l64-11 16-10-16-10V-2H582V417l64-11 17-10-17-10V331H792l53 54 65-54V310H646V224H769l44 48 54-48V202H646V116H817l44 49 54-49V95H646V-2H877l44 48L974-2V-24H50zM475 494l-8-11-9-10-10-9-11-7-12-5-12-5-12-3-14-2-13-1v32l-54 16v16h54l7 1 7 1 12 3 4 3 5 3 4 4 4 4 5 6 2 3v6l1 8v10l1 13 1 14v17 29H297V418l-65-32V551l-26-29-24-21-25-18-26-16-28-13-28-11-30-7-3 9 24 16 45 35 20 18 20 20 17 22 17 22 16 24 14 26 1 2H134l-5-23-71-16 51 206 46-38 77 19v93l65-11 16-11-16-9V796l44 14 25 10 43 20 17 10 8-14 36-36 1-17-21 8-16-7-25-8-55-14-57-10V652H427l32 26 59-48-26-16V6e2l-1-17-1-15V554l-1-12V532l-1-8-2-8-4-11-7-11zm374-64-49 20-46 23-40 25-15 12-36-22-52-25-57-21-62-15-68-11-2 10 64 21 58 23 52 25 46 28 23 18-16 17-25 33-20 36-12 39-4 20-23-17-26-16-28-14-6 8 60 65 33 43 27 44 12 22 10 24 9 23 3 7 56-32 11-16-21-3-18-31-16-23-19-23H830l53 54 65-54V726H853l-16-47-22-47-29-43-36-38-7-6 39-19 42-17 46-15 96-25-63-57-54 18zM786 726H633l-22-20-10-9 12-23 19-31 23-28 26-26 21-16 13 13 27 35 22 38 16 41 6 26zM232 746l-17-2-41-2-12 1-22-91h92v94z"/><glyph glyph-name="undefined" unicode="𩐉" horiz-adv-x="1024" vert-adv-y="918" d="M878 421l-37 28-33 31-24 29-10-9-44-32-48-27-52-21-23-6 10-6-16-10V-33h80V430l64-11 16-11-16-10V334h81l44 49 53-49V313H745V216h71l34 38 43-38V195H745V97h84l44 49 54-49V76H745V-33H871l44 49 54-49V-54H313v21H536V76H354V97H536v98H389v21H536v97H358v21H536v96l49-9 37 18 46 28 42 30 36 33 14 15-26 51-17 45-11 48-8 52-1 50H655l4-4V766H537V697h30l33 27 59-48-27-16-8-4-6-19-17-39-21-36-26-34-29-29-33-26-37-24-40-19-44-16-47-11-3 9 42 22 39 22 34 23 30 25 27 27 22 29 19 30 15 32 11 34 4 20H437l-7-17-11-19-9-13 13-1 25-7 11-3 21-10 9-7 9-7 8-8 2-24-16-20-25-1-18 15v5l-1 5-2 6-9 14-6 8-7 8-19 17-2 1-10-12-15-15-17-13-36-22-5 8 13 15 11 16 19 32 14 33 4 17 4 18 2 18 3 30 62-20 15-13-20-9-1-1-1-3h27V862l65-11 16-11-16-9V787h46l33 38 26-23v10H874l32 27 59-48-27-16-6-3-9-37-20-57-25-51-30-47-25-32 27-25 30-24 33-20 67-31-61-50-41 23zM55 745l65-32H234l32 27 59-49-27-21V186l-64-32v64H120V154L55 121V745zm179-54H120V240H234V691zM871 791H707l13-46 16-47 18-43 20-39 19-29 14 20 23 44 19 48 15 52 7 40z"/><glyph glyph-name="undefined" unicode="𩐊" horiz-adv-x="1024" vert-adv-y="918" d="M428-34v21H615V88H464v22H615v90H493v21H615v91H467v21H615v90l59-11 14-10-14-10V-13h63V423l59-11 15-10-15-10V333h72l33 38 43-38V312H796V221h46l33 38 43-38V2e2H796V110h75l33 37 43-37V88H796V-13h89l44 48 54-48V-34H428zM97 605l59-10 15-11-15-10V412h60V697H43v21H216V863l54-10 14-11-14-9V718h55l54 54 64-54V697H270V412h62V605l59-10 15-11-15-10V40L332 10V390H270V-48L216-75V390H156V337l-2-43-4-41-6-39-7-37-9-35-11-32-13-30L89 53 73 28 54 6l-8 5L57 37l9 26 8 28 7 30 6 31 5 33 3 35 3 37v39l-1 41V605zM899 429l-29 19-27 21-23 23-19 25-16 25-11 28-5 21-19-39-25-36-30-31-34-26-39-20-42-14-47-8-3 9 43 18 36 20 31 24 27 26 21 28 18 33 13 35 9 39 4 44 1 37H691l-16-15-18-15-43-27-6 8 16 18 28 38 23 37 10 18 8 18 7 18 6 19 3 13 4 14 59-29 11-15-21-5-11-21-12-20-27-33H895l5 4 3 6 2-2 23 19 59-48-27-17-51-21-16-9-12-7-13-7-15-7-13-9-6 7 11 11 33 47 7 12H797l-4-43-9-47 13-32 12-22 14-20 16-18 19-17 21-15 24-14 27-13 64-26-62-52-33 18zM470 496l-38 55 78 32 93 44 49 24 26 12 5-8-19-21-42-36-43-33-43-30-44-26-3-2-3-21-16 10zM586 806l43-37V747H454v22h98l34 37z"/><glyph glyph-name="undefined" unicode="𩐋" horiz-adv-x="1024" vert-adv-y="918" d="M50-33v21H378V81H109v22H378v82H157v21H378v83H114v21H378v83l64-11 16-11-16-9V-12H582V393l64-11 17-11-17-9V310H792l53 54 65-54V289H646V206H769l44 49 54-49V185H646V103H817l44 48 54-48V81H646V-12H877l44 49 53-49V-33H50zM436 489l-4 6-7 8-9 8-13 9-32 19-41 21-2 1V412l-65-32V544l-18-20-24-22-26-20-27-18-29-17-31-14-32-11-34-9-3 9 56 37 49 38 22 20 20 21 18 22 18 23 13 22H156L92 573V756l64-32H263v48H46v21H263v73l65-11 16-10-16-10V793H447l43 49 54-49V772H328V724H435l32 26 59-48-27-21V605l-64-32v32H328V576l53-9 40-10 16-5 16-6 13-6 13-8 11-11 5-24-14-20-23-5-21 13-1 4zm464-90-38 20-33 22-29 23-25 26-20 28-15 29-10 30-1 11-7-19-25-42-31-38-36-32-43-26-48-21-53-15-58-9-2 9 54 19 48 22 41 25 34 28 29 30 23 34 17 37 11 42 7 45 1 39H628l-22-17-24-16-25-14-27-14-6 8 59 61 31 39 13 19 11 20 10 19 8 19 7 20 3 7 57-31 11-16-22-3-14-25-15-20-17-20-15-15H897l3 3 7 10 2-3 20 17 59-48-27-17-64-26-15-7-15-8-33-14-17-10-6 8 15 12 24 27 22 23 9 12H755l-4-46-9-40 6-17 12-25 14-23 17-21 20-19 23-18 27-17 31-15 34-14 78-26-62-54-42 18zM263 702H156V627H263v75zm172 0H328V627H435v75z"/><glyph glyph-name="undefined" unicode="𩐌" horiz-adv-x="1024" vert-adv-y="918" d="M50-42v22H378V59H109V80H378v70H157v21H378v70H114v22H378v72l64-11 16-11-16-9V-20H582V335l64-11 17-11-17-9V263H792l53 54 65-54V241H646V171H769l44 49 54-49V150H646V80H817l44 48 54-48V59H646V-20H877l44 48 53-48V-42H50zM154 826H310l4 6 1-1 27 22 59-48-27-16-21-9-17-19-28-24-33-26-18-12-20-12-11-7 45-19 21-11 18-10 17-12 13-13 11-15 8-17 3-19-3-20-4-1-4-10-7-12-8-10-10-9-10-8-12-7-12-5-13-4-13-2-14-1v32l-53 17v16h53 7l7 1 5 1 9 5 4 2 2 3 7 19h3l3 3 1 4-2 9-5 11-8 13-12 14-34 32-22 17-6 7 16 17 39 51 21 31 8 13 7 12H154V377L90 345V859l64-33zm853-103-62-53-57 34-35 27-16 15-30 32-4 5-8-4 50-42V716H693l18-36 23-41 23-36 13-19 80 65 22 20 5 5 4 4 24-34 16-18 1-19-22 9-55-24-35-13-19-6-10-4 26-30 28-27 29-24 31-21 32-18 67-30-61-50-39 21-36 24-33 28-30 31-27 34-24 37-21 39-18 43-14 45-8 40-37-22-21-13-24-12-24-10 18-8 11-6v1l1-1 26-15 33-22 27-24 22-25 17-28 10-30 3-32-4-32-11-31h-4l-6-11-8-10-9-10-10-9-11-7-11-6-12-5-13-3-13-2-13-1v32L512 385v17H620h7l6 1 6 2 5 1 5 3 8 6 20 37 5 17 1 18-1 10-39-21-35-16-36-16-40-15-40-14-43-12-45-12-46-10-49-7-3 9 132 53 77 35 69 36 60 39 12 9-17 20-7 7-32-18-49-22-55-19-30-10-31-8-33-8-34-6-3 10 140 73 45 26 36 25-27 21-40-14-66-21-36-8-38-8-3 9 126 65 51 29 22 14 5 4H458v19l-31-16-45-19-51-18-4 8 22 16 74 60 16 13 26 26 10 12 12 13 44-47 4-19-22 5-28-19-18-10-5-3H727l54 54 4-3v21l-4 5 3 3-3 1v-8H523v22H757l28 23 59-49-16-9 33-18 36-17 18-8 18-6 38-11 36-14z"/><glyph glyph-name="undefined" unicode="𩐍" horiz-adv-x="1024" vert-adv-y="918" d="M913 249l-28 13-73 39 44-40V240H646V171H748l44 49 53-49V150H646V82H817l44 48 54-48V60H646V-17H877l44 49 53-49V-38H50v21H378V60H109V82H378v68H179v21H378v69H168v21H378v71l64-11 16-10-16-10V-17H582V332l64-11 17-10-17-10V261H758l42 47-48 31-49 36-23 21-21 22 1 2H419l-27-23-39-29-42-27-44-24-47-24-50-22-53-19-55-17-4 10 1e2 53 45 26 43 28 40 28 37 28 13 12H71v21H360l27 27 28 31 12 16H275l-64-32V733l64-33h57v77H53v22H332v70l64-10 17-11-17-10V799H627v70l65-10 16-11-16-10V799H852l54 54 64-54V777H692V732l-63-32H749l32 27 59-48-27-22V515l-64-32v32H464l26-24 6-18-20 2-16-17-17-17H850l44 49 53-49V420H680l94-43 82-33 54-20 28-8 37-14-62-53zM749 6e2H275V537H749v63zm0 79H275V621H749v58zM627 777H396V732l-62-32H627v77z"/><glyph glyph-name="undefined" unicode="𩐎" horiz-adv-x="1024" vert-adv-y="918" d="M50-30V-8H378V83H109v21H378v81H157v21H378v81H114v22H378v81l64-11 16-11-16-9V-8H582V390l64-11 17-11-17-9V309H792l53 53 65-53V287H646V206H769l44 49 54-49V185H646V104H817l44 49 54-49V83H646V-8H877l44 48L974-8V-30H50zM428 503l-4 6-6 7-8 8-11 9-29 19-37 20V427l-65-32V550l-33-34-25-20-25-18-27-16-28-14-30-11-31-9-4 9 51 36 44 37 20 20 19 21 16 21 16 23 13 22H175l-64-33V765l64-32h93v47H72v22H268v71l65-11 16-11-16-10V802h99l44 48 54-48V780H333V733h93l32 27 59-49-27-21V617l-64-33v33H333V587l4-1 22-3 21-4 20-4 17-5 15-6 15-5 13-7 11-7 11-11 4-24-14-20-24-4-20 13v4zm426-86-52 21-46 23-42 27-16 13-38-24-54-26-60-21-65-17-70-12-2 10 67 21 61 24 54 27 47 28 26 20-18 19-26 35-20 37-14 39-4 23-25-18-27-17-29-15-5 8 62 67 35 45 29 46 22 47 13 32 56-32 11-16-21-3-19-33-17-25-19-23-1-1H838l54 54 65-54V725H856l-16-49-23-49-30-45-37-40-8-6 41-22 43-18 49-15 98-26-63-57-56 19zM790 725H628l-22-21-12-10 13-24 21-32 23-30 27-27 22-18 14 14 29 37 23 40 17 43 7 28zM268 711H175V638h93v73zm158 0H333V638h93v73z"/><glyph glyph-name="undefined" unicode="𩐏" horiz-adv-x="1024" vert-adv-y="918" d="M449 378l-28 38-31 35-16 16-33 31-30 24V363l-64-32V515l-16-27-21-31-22-30-25-29-27-28-27-25 58-29H391l32 26 59-48-26-21V-28L391-60V-6H167V-44L103-76V340L76 319 42 296l-6 7 51 61 44 60 20 30 17 29 16 30 13 31 12 31 3 9H49v21H247V759l-52-9-39-5-40-3-41-1-2 9 150 46 66 23 62 24 55 26 5-11 42-38 1-17-21 8-31-12-31-10-33-9-34-9-35-8 42-7 17-11-17-10V605h85l54 54 64-54V584H311V543l26-8 22-9 21-12 21-12 21-14 40-33 37-37 7-24-12-21-23-7-22 12zM481-33v22H626V230H496v21H626V453H514v22H626V666H499v22H626V862l64-10 17-11-17-10V-11h75V862l65-10 16-11-16-10V682h59l34 38 43-38V661H830V469h30l33 38 43-38V448H830V246h63l33 37 43-37V224H830V-11h29l54 53 65-53V-33H481zM247 146H167V15h80V146zm144 0H311V15h80V146zM247 294H167V168h80V294zm144 0H311V168h80V294zM147 644l-2 9-2 8-8 17-5 10-7 9-15 19-11 7 4 8 13-5 13-3 12-5 12-6 12-6 10-8 20-17 8-11 7-11V634l-18-16H165l-17 18-1 8zM407 753l50-42 7-18-25 2-42-36-24-19-13-10-12-11-7 6 9 14 14 29 26 49 13 27-1 1 5 8z"/><glyph glyph-name="undefined" unicode="𩐐" horiz-adv-x="1024" vert-adv-y="918" d="M50-45v21H378V53H109V74H378v67H157v22H378v67H114v22H378v69l64-10 16-11-16-10V-24H582V321l64-10 17-11-17-10V252H833l34 37 43-37V230H646V163H769l44 48 54-48V141H646V74H817l44 49 54-49V53H646V-24H877l44 49 53-49V-45H50zM931 382l43-37V323H50v22H898l33 37zM824 473l54-49V403H146v21H780l44 49zm69-21-21 17-19 19-16 21-15 23-1 2-33-15-71-27-47-15-49-15-8-20-14 14-24 61 11 2 60 8V687l-12 2-43-34-27-18-13-8 9-6-16-10V469l-64-32V630l-22-4-20 14-3 9-8 19-5 10-19 30-14 22-10 9 5 7H78v21H480V876l64-11 16-11-16-9V767H828l53 54 65-54V746H606l46-42 2-9 50-24 42 17 64 22 20 7 19 7 32 11-1 1 1-1 5 2 1-7 54-45 2-16-23 10-18-4-20-4-19-2-21-3-39-5 19-41 13-22 14-21 14-17 15-16 16-14 16-11 18-10 18-7 31-15-61-49-23 14zM179 494v16h86l14 1 6 2 5 2 10 5 4 4 4 5 4 5 4 7 56-31-7-12-8-10-8-10-11-9-10-7-12-6-12-4-13-4-13-2H265v32l-86 16zM356 711l59-49-27-16-1-41-1-18-1-17-1-15-2-13-2-11-3-11-5-10-56 31 1 4 1 7 2 10 1 13 1 15 1 17v20 22l1 13H253l-2-20-7-30-12-29-15-26-19-24-24-21-27-18-30-16-34-12-37-10-4 10 32 18 28 20 25 19 19 19 16 21 12 20 9 21 5 22 2 22v14H93v22H324l32 27zm433-71-1 19-59-5-18-1V537l20 3 50 6 33 3-4 7-9 27-7 28-5 29zM385 746l11-7 13-5 12-6 12-6 21-14 20-16 10-9 9-8 3-25-5-7 39-7 57 85 12 19-1 1 4 5H385z"/><glyph glyph-name="undefined" unicode="𩐑" horiz-adv-x="1024" vert-adv-y="918" d="M50-28V-6H378V87H109v21H378v82H157v22H378v82H114v22H378v82l64-10 16-11-16-10V-6H582V398l64-10 17-11-17-10V316H792l53 53 65-53V294H646V212H769l44 48 54-48V190H646V108H817l44 48 54-48V87H646V-6H877l44 48L974-6V-28H50zM211 873l65-11 16-10-16-10V801h67l44 48 54-48V780H276V738h66l32 26 59-48-27-21V561l-64-33v33H276V507h76l44 49 54-49V486H276V408l-65-32V486H37v21H211v54H145L81 528V770l64-32h66v42H46v21H211v72zM896 416l-29 20-25 22-22 24-19 25-14 27-11 28-4 19-17-37-24-38-29-32-33-27-38-21-42-15-45-9-2 9 40 19 35 21 30 24 26 27 20 30 17 33 13 37 8 42 5 45v39H698l-15-15-19-16-41-28-7 7 16 20 26 38 22 39 9 18 8 20 7 19 6 19 4 19 3 9 59-28 12-14-21-6-11-22-12-20-13-20-13-17H893l5 4 2 5 2-2 23 20 59-49-27-16-40-16-36-23-27-16-13-9-6 7 10 12 31 48 8 13H8e2l-3-44-9-52 12-32 12-23 13-21 17-19 17-18 21-16 23-14 26-14 61-27-61-50-33 18zM446 539l75 34 68 34 70 38 25 12 6-7-38-40-41-36-41-32-43-29-23-15-3-21-16 10-39 52zM211 641H145V582h66v59zm131 0H276V582h66v59zM211 716H145V663h66v53zm131 0H276V663h66v53zm252 90 43-38V747H468v21h92l34 38z"/><glyph glyph-name="undefined" unicode="𩐒" horiz-adv-x="1024" vert-adv-y="918" d="M50-28V-6H378V87H109v21H378v82H157v22H378v82H114v22H378v82l64-10 16-11-16-10V-6H582V398l64-10 17-11-17-10V316H792l53 53 65-53V294H646V212H769l44 48 54-48V190H646V108H817l44 48 54-48V87H646V-6H877l44 48L974-6V-28H50zM360 503l-2 5-5 8-16 16-26 19-29 18V423l-64-33V543l-25-29-22-20-23-18-24-17-26-14-27-12-29-9-4 9 44 36 20 18 37 39 31 43 14 23 12 24H141L76 584V767l65-33h77v49H44v21H218v73l64-11 17-11-17-9V804h76l44 49 54-49V783H282V734h77l33 27 59-48-27-22V616l-65-32v32H282V585l41-8 33-10 15-5 13-6 12-7 11-8 9-10 3-25-15-19-24-3-20 15v4zm536-87-29 20-25 22-22 24-19 25-14 27-11 28-4 19-17-37-24-38-29-32-33-27-38-21-42-15-45-9-2 9 40 19 35 21 30 24 26 27 20 30 17 33 13 37 8 42 5 45v39H698l-15-15-19-16-41-28-7 7 16 20 26 38 22 39 9 18 8 20 7 19 6 19 4 19 3 9 59-28 12-14-21-6-11-22-12-20-13-20-13-17H893l5 4 2 5 2-2 23 20 59-49-27-16-40-16-36-23-27-16-13-9-6 7 10 12 31 48 8 13H8e2l-3-44-9-52 12-32 12-23 13-21 17-19 17-18 21-16 23-14 26-14 61-27-61-50-33 18zM446 539l75 34 68 34 70 38 25 12 6-7-38-40-41-36-41-32-43-29-23-15-3-21-16 10-39 52zM218 713H141V638h77v75zm141 0H282V638h77v75zm235 93 43-38V747H468v21h92l34 38z"/><glyph glyph-name="undefined" unicode="𩐓" horiz-adv-x="1024" vert-adv-y="918" d="M480 498l64-11 16-11-16-9V433H748l44 49 53-49V412H544V347H866l33 38 43-38V326H641V256H807l44 48 53-48V234H641V165H764l44 48 53-48V143H641V73H817l44 48 54-48V52H641V-18H877l44 48 53-48V-40H50v22H383V52H109V73H383v70H157v22H383v69H114v22H383v70H71v21H480v65H179v21H480v65zM447 326V-18H577V326H447zM894 481l-21 15-19 17-16 20-15 21-2 4-33-14-24-10-73-23-49-14-27-7-9-20-13 14-22 62 10 2 50 5 15 2V693l-13 3-30-21-26-17-26-14 9-6-16-10V539l-64-33V644l-21-4-21 13-7 17-9 18-5 9-20 29-8 10-10 8 2 3H78v21H482V872l65-11 16-11-16-9V768H832l54 54 65-54V747H897l1-4 55-45 1-17-23 11-19-4-21-4-22-3-22-3-23-3-21-3 6-12 13-22 13-21 13-18 14-16 15-14 16-12 16-10 17-8 53-21-62-51-23 14zM366 519l-8-11-9-9-11-9-10-7-12-6-12-4-13-4-13-1-13-1v32l-86 17v16h86 7l7 1 6 1 6 3 4 2 5 3 4 4 9 10 4 6v2l3 17 1 12 1 14 1 17v18 20l1 12H253l-2-18-7-28-12-27-16-24-20-21-23-19-27-17-30-14-34-10-37-9-2 9 32 18 28 18 24 17 20 19 16 19 12 18 9 19 4 19 2 20v11H103v22H324l32 27 59-49-27-16-1-37-2-33-1-14-2-12-2-11-2-10-5-11-7-11zM790 654l-1 17-35-3-24-2H711V563l20 2 25 3 51 5h7l-12 28-8 26-4 27zM394 747l2-1 13-5 12-4 22-12 21-13 9-7 19-15 4-24-4-8 37-7 59 80 7 11 3 5H394zm493 0H613l37-36 54-27 43 16 140 47z"/><glyph glyph-name="undefined" unicode="𩐔" horiz-adv-x="1024" vert-adv-y="918" d="M297-40v22H528V78H345v22H528v70H378v21H528v76H404v21H528v75l65-10 16-11-16-10V-18h80V363l65-10 16-11-16-10V288h25l34 38 43-38V267H738V191h74l33 38 43-38V170H738V1e2h85l44 48 54-48V78H738V-18H871l44 48 54-48V-40H297zM58 77 26 134l119 38V455H52v21h93V734H42v22H219l54 54 64-54V734H210V476h20l44 49 54-49V455H210V194l129 45 5-9-59-39-58-34-59-30L85 88l-7-3-5-20L58 77zM372 519H550l4 7 2-1 26 21 58-48-7 13-16 39 9 5 26-32 4-4H808l27 23v20H437l-65-32V740l65-33h91v70H345v22H528v70l65-11 16-11-16-9V799h86v70l64-11 16-11-16-9V799h81l54 54 64-54V777H743V707h92l32 27 59-48-27-22V562l-49-24 49-40-27-16-20-9-12-14-9-10-10-11-23-21-13-11 13-8 34-18 36-16 39-14 82-24-63-56-43 17-41 19-39 22-35 24-33 27-31 30-26 31-24 34-13 24-27-16-18-8-14-19-28-33-28-31-30-28-31-26-32-23-33-20-35-18-35-14-37-10-4 9 62 40 57 45 27 25 26 27 25 29 24 32 22 32 4 7H372v21zm23-114-1 6-2 6-7 12-10 15-13 15-9 5 4 9 10-4 11-2 10-2 20-5 8-4 9-3 15-9 8-5 5-25-13-20-24-6-21 13v4zm411 93H675l31-32 29-25 31-23 8-5 23 56 7 23 2 6zM528 686H437V584h91V686zm151 0H593V584h86V686zm156 0H743V584h92V686zM679 777H593V707h86v70z"/><glyph glyph-name="undefined" unicode="𩐕" horiz-adv-x="1024" vert-adv-y="918" d="M128 780l59-30H501V874l65-11 16-10-16-10V750H877l44 49 53-49V729H187V390l-3-63-6-59-8-56-12-53-15-50-17-46-20-41L82-17 56-51 26-80l-7 6L41-40 59-4 77 35 91 76l12 45 10 47 7 51 5 54 3 57V780zM898 315l-24 18-23 19-21 22-19 25-16 27-12 30-8 33-4-12-20-39-24-32-28-27-32-21-35-17-37-13-42-10-43-8 25-4 16-10-16-10V-20h99V317l65-11 16-10-16-10V249H807l44 48 53-48V227H699V162h73l44 49 54-49V141H699V76H811l44 48 54-48V54H699V-20H859l44 48 54-48V-41H212v21H470V54H260V76H470v65H299v21H470v65H264v22H470v68l39-6-3 8 78 36 33 18 28 19 23 21 20 24 16 27 13 33 11 40 6 41 2 17 62-20 15-13-20-8-3-15 3-9 12-32 13-26 16-23 17-19 18-17 20-15 21-13 72-38-60-48-24 16zM518 395l-2 5-4 6-7 7-21 15-28 18-14 8V335l-64-32V428l-25-23-21-17-22-15-24-13-25-12-26-9-28-7-4 9 44 32 20 16 36 33 15 18 15 19 13 18 8 15H301l-59-30V624l59-29h77v36H209v22H378v59l64-10 16-11-16-10V653h92l34 37 43-37V631H442V595h74l32 26 59-48-27-21V492l-64-32v32H442V468l20-2 18-3 17-3 29-7 12-4 12-5 11-7 10-9 4-24-14-20-24-4-20 13 1 2zM378 573H301V513h77v60zm138 0H442V513h74v60zM668 716l58-30 11-16-21-4-19-32H885l6 5 1 4 2-1 23 19 59-49-27-16-64-27-14-7-9-8-7 7 8 8 4 11 8 19 6 13H682l-28-34-31-32-35-30-7 6 12 19 39 77 16 36 12 37 4 13 4 12z"/><glyph glyph-name="undefined" unicode="𩐖" horiz-adv-x="1024" vert-adv-y="918" d="M906 168V149H810l53-47V81H645V33H834l34 38 43-38V12H645V-42H893L926-5l43-37V-64H54v22H378V12H113V33H378V81H160v21H378v47H118v22L45 154l-2 9 146 65 81 41 23 14H82v21H327l35 26 24 19 1 2H276l-65-33V517l65-32h53v47H44v22H329v53l65-10 16-11-16-10V554H630v53l65-10 16-11-16-10V554H882l36 39-33 6-74 19-38 11-75 27-76 33-37 20-32 19h-3V621l-65-32V705l-58-25-38-14-39-13-41-12-43-11-45-10-48-8-50-7-51-5-2 10 141 44 84 30 39 15 61 29H93v21H485v38l-42-2-65-1H309 237l-74 2-1 10 75 9 265 28 113 13 1e2 14 45 7 1-6 62-51 3-17-25 14-33-4-46-4-102-7-56-2-14-1V749H835l53 54 65-54V728H601l110-29 39-9 37-8 37-6 36-6 35-4 35-3 55-7-56-56 51-46V532H695V503l-36-18h99l32 27 60-49-27-21V351l-65-33v33H424l26-29 3-18H855l33 38 43-38V283H712l71-21 27-6 60-12 33-6 35-5 50-10-64-60-18 5zM672 283H396l-33-20-35-17-39-18-41-17-46-16-48-15-34-9H378v53l65-11 16-10-16-10V-42H581V224l64-11 16-10-16-10V171H808l18 20-60 24-24 12-23 13-20 14-17 15-10 14zM808 149H645V102H765l43 47zM433 309l-6-5h22l-16 5zM758 409H276V372H758v37zm0 54H276V430H758v33zM630 532H394V503l-36-18H630v47z"/><glyph glyph-name="undefined" unicode="𩐊" horiz-adv-x="1024" vert-adv-y="918" d="M428-34v21H615V88H464v22H615v90H493v21H615v91H467v21H615v90l59-11 14-10-14-10V-13h63V423l59-11 15-10-15-10V333h72l33 38 43-38V312H796V221h46l33 38 43-38V2e2H796V110h75l33 37 43-37V88H796V-13h89l44 48 54-48V-34H428zM268 98v17h50l5 1 3 1 2 1h1l1 1 1 2 1 3v5l1 7V470H267V-35L203-67V470H137V77L72 45V524l65-32h66V662H38v21H203V870l64-11 17-11-17-9V683h46l54 54 64-54V662H267V492h66l32 27 59-49-27-21V136l-1-14-2-13-4-13-6-13-10-10-10-9-13-7-13-4-13-2-14-1V82L268 98zM904 429l-25 19-23 21-21 23-18 26-16 28-12 30-6 25-7-16-20-35-25-32-31-28-35-24-39-20-44-17-48-12-3 9 43 22 38 23 33 24 28 26 23 27 18 28 13 30 9 32 4 35 1 36v28H705l-22-28-17-19-38-38-8 6 36 69 28 63 13 38 5 19 5 18 2 8 59-27 12-15-21-6-9-19-23-38-6-10H898l32 27 59-48-26-17-34-14-37-28-14-9-13-12-7 6 11 14 20 40 9 20H806V709l-5-44-3-14 14-34 13-26 15-23 17-20 18-18 20-17 21-14 22-12 53-25-61-50-26 17zM470 496l-38 55 78 32 93 44 49 24 26 12 5-8-19-21-42-36-43-33-43-30-44-26-3-2-3-21-16 10zM586 806l43-37V747H454v22h98l34 37z"/><glyph glyph-name="undefined" unicode="𱂍" horiz-adv-x="1024" vert-adv-y="918" d="M50-40v21H378V72H109V94H378v80H157v22H378v80H114v22H378v81l64-11 16-10-16-10V-19H582V379l64-11 17-10-17-10V298H792l53 54 65-54V276H646V196H769l44 48 54-48V174H646V94H817l44 48 54-48V72H646V-19H877l44 49 53-49V-40H50zM172 819H386l7 9 2-1 23 19 60-48-27-16-27-11-22-18-33-23-39-23-56-28 51-17 25-10 22-10 19-11 15-12 13-14 9-17 3-20-5-21-7-12-8-10-9-10-10-9-11-7-11-6-12-4-13-4-13-2H318v32l-53 16v16h53l14 1 6 2 6 2 5 3 4 2 4 4 4 5 4 5 4 6h2 2l1 4-3 8-7 11-13 12-16 14-44 31-29 16h-1l-5 8 20 17 79 79 12 14 5 7H172V391l-64-32V852l64-33zm527-2-18-10-2-43 11-57 16-51 19-46 25-41 28-36 32-32 38-27 42-24 83-34-62-52-53 26-47 31-41 36-35 41-28 45-22 49-17 53-5 36-15-49-25-54-33-50-38-43-45-37-50-30-57-24-63-18-2 9 57 27 50 30 44 34 37 37 30 42 25 45 19 50 13 54 7 59 1 65v13l65-13 16-11z"/><glyph glyph-name="undefined" unicode="𱂎" horiz-adv-x="1024" vert-adv-y="918" d="M394-30l-6 10L371 1 345 24 314 49 276 77l-4 2-14-24-22-30L208-2 177-25 142-44 103-59 60-70l-3 9L95-40l33 21L156 4l24 23 20 26 15 27 12 28 7 30 4 32v35V386l65-11 16-11-16-9V205l-4-42-9-39-12-32 29-8 42-16 37-17 31-19 13-9 13-11 8-23-11-22-24-8-22 11zm78-1v21H623V132H487v21H623V270H506v22H623V403H490v21H623V531l65-11 16-11-16-10V-10h79V531l65-11 16-11-16-10V421h66l33 38 43-38V399H832V289h35l34 37 43-37V267H832V150h69l34 38 43-38V128H832V-10h36l54 54 65-54V-31H472zM107 481l65-33H369l32 27 59-48-26-22V121L369 89V427H172V113L107 81V481zM87 470l-24 6-12 22 7 23 5 4 5 7 5 10 6 13 10 35 5 21 9 51 3 29h10l5-47H251V866l65-11 16-11-16-10V758h66l33 38 43-38V737H316V644H441l32 26 59-48-26-16-15-6-19-33-26-41-10-15-8-15-9 3 5 18 5 34 6 30 2 14 3 25v2H124l1-12 1-23V565l-1-19-2-19-3-16-5-15-6-14-22-12zm783 39-48 19-42 22-38 25-5 4-23-11-55-21-60-17-67-14-71-9-2 10 69 19 62 21 56 23 50 24 7 5-23 25-23 33-17 36-12 38-4 35H551v22H861l33 27 59-49-27-16-11-5-11-22-26-42-32-36-38-34-17-10 17-8 39-16 43-14 94-24-63-57-51 17zM347 581l54-49V511H146v21H303l44 49zM856 776H636l14-27 18-31 21-28 24-26 28-23 6-4 29 23 31 31 24 34 19 35 6 16z"/><glyph glyph-name="undefined" unicode="𲊦" horiz-adv-x="1024" vert-adv-y="918" d="M50-27V-5H378V93H109v22H378v86H157v22H378v87H114v21H378V440l64-11 16-11-16-9V-5H582V440l64-11 17-11-17-9V331H792l53 54 65-54V310H646V223H769l44 48 54-48V201H646V115H817l44 48 54-48V93H646V-5H877l44 48L974-5V-27H50zM822 424l-79 17-75 22-70 25-66 29-16 9-46-22-70-26-76-23-79-17-85-13-88-7-2 9 87 19 81 20 77 23 71 27 65 30 14 7-51 32-52 40-46 44-37 44H82v21H480V869l64-11 16-11-16-9V734H829l54 54 64-54V713H761l-56-58-52-45-56-40-25-14 45-16 68-20 72-16 76-14 136-17-64-64-83 15zM296 713l35-28 50-35 54-32 57-29 21-9 54 35 50 40 45 43 13 15H296z"/></font>
</defs>
</svg>
