<svg xmlns="http://www.w3.org/2000/svg"><defs><font name="Jigmo Regular" horiz-adv-x="1024" vert-adv-y="1024"><font-face font-family="Jigmo" font-weight="400" font-stretch="normal" units-per-em="1024" ascent="995" descent="169"/><glyph glyph-name="&#14386;" unicode="&#14386;" horiz-adv-x="1024" vert-adv-y="826" d="M919 35l32 135h11L951 35l19-12L983 3 970-16 951-29H593l-14 1-14 2-13 4-12 7-11 9-8 11-7 12-5 13-2 14V57 837l64-11 16-11-16-10V451l111 63 72 45 70 51 64 52 5 4 39-52 2-19-19 7-58-40-77-45-79-40-39-16-40-15-41-13-10-2V51l1-5 1-4 1-1 1-1 1-1 5-2 5-1 7-1H919zM288 170v16h43l7 1 5 1 3 1h2l1 1 1 1 1 2 1 3v5l1 7V648H271V-45L206-77V648H124V148L59 116V702l65-32h82V869l65-11 16-11-16-9V670h82l32 27 59-49-27-21V208 194l-3-13-4-13-7-13-9-10-10-9-12-7-14-4-13-2-14-2v33l-43 16z"/><glyph glyph-name="&#14387;" unicode="&#14387;" horiz-adv-x="1024" vert-adv-y="826" d="M706 71V87h75l6 1h5l3 1 2 1 1 1 1 1 1 2 1 3 1 5v7V339H544V-20L480-53V339H232V36L168 4V392l64-32H480V481l64-11 16-10-16-10V360H802l33 27 59-48-27-22V109l-1-14-2-14-5-13-7-12-8-11-11-8-12-7-13-4-14-3H781V55L706 71zM882 438l-47 31-46 34-43 35-41 39-39 41-36 44-34 45-31 50-10 18-13-7v3l-18-24-39-50-44-49-47-46-50-44-53-42-57-40-61-37-64-34-68-32-5 9 63 40 58 41 56 42 52 43 49 44 45 46 42 46 38 48 35 50 14 23H302v22H515l27 22 59-49-27-16-2-1 49-56 38-40 40-38 40-35 42-33 43-30 45-28 46-26 77-38-61-49-49 28z"/><glyph glyph-name="&#14388;" unicode="&#14388;" horiz-adv-x="1024" vert-adv-y="826" d="M871-16l-8-10-10-9-10-9-11-7-11-5-13-5-12-3-14-2-12-1v33L662-18V-2H770h7l7 1 12 4 5 2 5 4 4 3 10 10 3 6 9 20 10 33 9 44 8 57 7 67 6 78 4 90 4 101 3 111 1 111H732l-6-126-12-125-19-113-23-101-30-90-36-77-42-66-49-53-54-40-59-25-4 9 52 33L495 9l40 53 34 64 30 75 24 87 20 97 13 111 9 122 2 122H494v21H884l32 27 59-48-26-16-2-97-2-111-4-102-5-90-6-80-7-70-9-59-10-49-11-40L879-5l-8-11zM273 170v16h43l6 1 5 1 5 1 2 2 2 5 1 5v7V648H260V-45L196-77V648H120V148L55 116V702l65-32h76V869l64-11 17-11-17-9V670h77l33 27 59-49-27-21V208l-1-14-2-13-5-13-7-13-8-10-11-9-12-7-13-4-14-2-13-2v33l-43 16zM463 291l-24 6-11 22 7 24 14 16 14 18 11 18 11 20 9 21 8 23 7 23 6 25 5 27 3 28 10 1 6-29 3-28 1-28-2-27-4-27-6-26-8-25-11-25-13-23-14-23-22-11z"/><glyph glyph-name="&#14389;" unicode="&#14389;" horiz-adv-x="1024" vert-adv-y="826" d="M706 54V70h75l6 1 5 1 3 1 2 1 2 2 2 5 1 4v7V289H544V-27L480-59V289H232V23L168-9V343l64-32H480V418l64-11 16-11-16-9V311H802l33 27 59-49-27-21V92l-1-14-2-13-5-13-7-12-8-11-11-9-12-7-13-4-14-2-13-1V38L706 54zM918 491l13-20-13-19-19-13H2e2l-14 1-13 2-13 5-12 6-11 9-9 11-7 12-4 13-2 14-1 13V753l65-32H480V861l64-11 16-11-16-9V721H835l53 54 65-54V699H179V519l1-5 1-5 3-2 1-1 3-1 5-1h7H899l19-13z"/><glyph glyph-name="&#14391;" unicode="&#14391;" horiz-adv-x="1024" vert-adv-y="826" d="M885-23 836 7 789 43 747 85 737 98 692 57 632 15 567-20 497-47 422-66l-3 10 70 28L554 5l59 39 52 44 44 45-35 54-31 59-27 65-23 71-18 73h-5l-3-20-20-98-25-91-29-83-35-73-40-65-44-55-50-45-7 7 41 51 36 58 32 64 28 73 24 81 20 88 16 97 11 105 7 113 2 110H425v21H813l32 27 59-48-27-16-9-4-46-276h49l32 27 59-48-27-16-8-4-19-61-32-77-37-70-44-64-22-25 14-14 41-35 42-28 44-23 87-30-63-54-53 23zM264 170v16h43l7 1 5 1 5 1 1 1v1l2 2 1 3 1 5V648H257V-45L193-77V648H121V148L56 116V702l65-32h72V869l64-11 16-11-16-9V670h72l32 27 59-49-27-21V208 194l-2-13-5-13-7-13-8-10-11-9-13-7-12-4-14-2-14-2v33l-43 16zM866 455H586l28-65 31-66 33-60 34-53 29-37 14 18 37 61 31 67 27 74 16 61zM810 772H599l-6-113-11-116-9-67H756l54 296z"/><glyph glyph-name="&#14392;" unicode="&#14392;" horiz-adv-x="1024" vert-adv-y="826" d="M892-15 855 20 821 58 792 99l-27 43-23 46-19 48-15 51-11 53-3 28-6-34-18-66-26-63-32-57-39-53-45-47L475 6 417-30 353-60l-5 9 58 39 52 41 44 44 39 47 32 51 26 54 19 58 14 63 5 44H415v22H639l2 70V648H458v22H641V863l65-10 16-11-16-10V670H824l54 54 64-54V648H706V482l-5-70H861l54 54 65-54V390H702l16-45 20-48 21-46 23-42 26-40 28-37 30-34 33-32 36-28L992-2 932-47 892-15zM266 170v16h43l6 1 5 1 3 1h2l1 1 1 1 1 2 1 3 1 5v7V648H256V-45L192-77V648H117V148L53 116V702l64-32h75V869l64-11 16-11-16-9V670h74l33 27 59-49-27-21V208l-1-14-2-13-5-13-6-13-9-10-11-9-12-7-13-4-13-2-14-2v33l-43 16z"/><glyph glyph-name="&#14393;" unicode="&#14393;" horiz-adv-x="1024" vert-adv-y="826" d="M624 477V288l-5-59-10-54-16-50-20-45-26-41L517 4 482-26 443-51 399-69 351-82l-3 9 43 22 37 25L459 1l28 30 23 34 18 37 14 40 10 45 6 49 2 53V509l64-11 16-11-16-10zm151 32 64-11 17-11-17-10V-45L775-77V509zM261 170v16h43l7 1 5 1 5 1 2 2 1 5 1 5 1 7V648H253V-45L189-77V648H116V148L52 116V702l64-32h73V869l64-11 17-11-17-9V670h73l32 27 59-49-26-21V208l-2-14-2-13-4-13-7-13-9-10-10-9-13-7-13-4-13-2-14-2v33l-43 16zM903 490l-31 28-30 29-27 32-26 34-23 35-22 37-20 39-16 41-2 6-21-40-27-43-28-42-31-39-34-36-36-33-38-31-41-27-43-24-5 8 36 33 34 33 32 33 31 36 28 37 25 39 24 41 21 42 20 44 20 54 57-30 12-16-20-4-6-13 60-87 26-32 26-29 28-29 28-26 60-47 51-34-59-46-33 27z"/><glyph glyph-name="&#14394;" unicode="&#14394;" horiz-adv-x="1024" vert-adv-y="826" d="M854 4e2l57-33 10-16-20-3-25-47-40-62-44-57-50-52-55-47-60-43L563 3 494-29 420-55 341-76l-3 9 75 30L481-3l64 37 59 40 54 44 48 48 44 51 39 54 34 60 27 59 4 10zM261 170v16h43l7 1 5 1 5 1 2 2 1 5 1 5 1 7V648H253V-45L189-77V648H116V148L52 116V702l64-32h73V869l64-11 17-11-17-9V670h73l32 27 59-49-26-21V208l-2-14-2-13-4-13-7-13-9-10-10-9-13-7-13-4-13-2-14-2v33l-43 16zM565 283v16h75 7l5 2 5 1 1 1 1 1 1 2 1 3 1 5V863l65-10 16-11-16-10V320l-1-13-3-13-4-13-6-13-9-10-11-9-12-7-13-4-14-3-14-1v33l-75 16zM527 654l60-22 14-14-19-7-4-13-11-32-13-32-14-31-16-31-17-30-20-29-21-28-23-26-26-25-7 6 47 92 26 60 11 30 10 30 8 31 7 30 5 32 3 9zM913 462l-10 22-10 21-26 42-31 42-35 42-20 21 6 8 27-14 24-16 22-17 22-18 20-19 18-20 17-21 16-22 28-46V442l-17-18H940l-18 17-9 21z"/><glyph glyph-name="&#14395;" unicode="&#14395;" horiz-adv-x="1024" vert-adv-y="826" d="M703 48V64h71l5 1 3 1 2 1 1 1 1 1 2 5 1 4v7V311H587V-47L523-80V311H321V36L256 4V277L145 219 41 171l-4 9 99 57 94 58 26 17v53l45-23 105 75 80 65 36 32H55v21H426V7e2H146v22H426V874l64-11 17-11-17-10V722H593l53 54 65-54V706l48 59 59 81 50-41 7-18-20 1-48-61-66-75-71-72-49-45H851l53 54 65-54V514H597l-82-68-86-62-78-51H523v90l64-11 16-11-16-10V333H789l33 27 59-49-27-21V85l-1-13-2-14-5-13-7-12-8-11-11-9-12-6-13-5-14-2-13-1V32L703 48zm3 652H490V535h56l15 14 71 69 66 72 8 10z"/><glyph glyph-name="&#14396;" unicode="&#14396;" horiz-adv-x="1024" vert-adv-y="826" d="M507 761l65-32 166 54 62 22 51 22 22 11 4-11 44-39 1-17-20 9-29-10-27-8-62-15-71-15-39-7-42-7-45-5-15-2V498H860l54 54 64-54V476H813V-40L749-72V476H572V363l-4-62-7-60-11-56-15-51-20-46-23-43L465 7 434-26 4e2-54 361-76l-5 8 30 30L413-7l23 34 21 38 16 40 14 44 10 48 6 51 4 56V761zM282 170v16h43l7 1 5 1 3 1h2l1 1 1 1 1 2 1 3v5l1 7V648H268V-45L204-77V648H126V148L61 116V702l65-32h78V869l64-11 17-11-17-9V670h79l32 27 59-49-27-21V208 194l-3-13-4-13-7-13-9-10-10-9-12-7-14-4-13-2-14-2v33l-43 16z"/><glyph glyph-name="&#14397;" unicode="&#14397;" horiz-adv-x="1024" vert-adv-y="826" d="M536 0l82 25L736 68l227 90 5-8-88-56L754 26 676-12 602-44l-15-5-5-20-15 11L536 0zM248 169v14h43l4 1h4l3 2 2 2 2 3 1 4 1 6V648H244V-48L191-75V648H127V147L67 118V699l60-29h64V869l53-11 14-11-14-9V670h64l29 27 57-49-27-18V208l-1-13-1-13-4-12-5-11-8-11-10-9-10-7-13-4-12-3-12-1v30l-43 15zm437 27-8 14-10 14-22 25-42 38-17 11 3 9 40-12 20-8 17-9 17-10 17-11 15-12 14-14 14-15 12-16 3-24-15-20-25-3-19 15-14 28zm189 93-53 32-48 35-43 40-26 29-17-18-51-47-55-44-59-40-64-36-67-31-4 8 60 41 58 42 54 44 49 46 46 49 20 24-16 22-28 49-23 53-17 55-2 9-16-27-26-38-29-35-30-33-33-29-36-27-6 7 53 68 47 72 20 38 19 39 17 41 16 43 12 44 12 47 2 9 61-25 12-14-19-6-26-75-15-32H823l33 27 59-48-27-16-13-6-22-44-35-61-40-58-40-49 29-27 42-32 45-29 50-26 89-37-62-51-57 28zM815 697H613l-12-23 10-24 25-50 28-47 31-42 9-10 30 43 34 55 31 60 16 38z"/><glyph glyph-name="&#14398;" unicode="&#14398;" horiz-adv-x="1024" vert-adv-y="826" d="M716 44V60h71l5 1 3 1 2 1 1 1 1 1 2 5 1 5v7V263H550V-32L485-65V263H232V15L168-18V317l64-33H485V385l65-11 16-11-16-9V284H802l33 27 59-48-27-22V82l-1-14-2-14-5-13-7-12-8-11-11-8-12-7-13-5-14-2H781V28L716 44zM287 569l-4 13-11 25-22 38-24 35-34-42-24-24-26-20-28-18-29-15-6 8 22 22 41 48 18 25 17 26 15 28 14 29 11 31 11 32 8 29 4 14 59-27 13-15-20-5-6-16-8-17H437l32 27 59-48-27-17-7-3-10-38-23-59-29-54-35-49-39-44-46-40-51-34-56-29-61-23-66-18-3 10 61 27 56 30 50 33 44 36 38 39 34 43 27 45 23 50 17 54 9 41H269l-15-29-19-31 13-5 27-18 26-21 12-11 31-37 2-24-15-20-24-2-20 15zm397 36v16H792h6l5 1 3 1 2 1 1 1 1 1v2l1 3 2 5v6V752H614V474l1-5v-3l2-4 1-1 5-3 6-1 7-1H896l30 113h11L926 456l18-11 12-18-12-18-18-12H636l-14 1-13 2-13 4-12 6-11 8-9 11-6 12-5 13-3 13v14V805l64-32H813l32 27 59-48-26-22V642l-2-14-2-13-4-13-7-12-9-10-10-10-13-6-13-4-13-3-13-1v33L684 605z"/><glyph glyph-name="&#14399;" unicode="&#14399;" horiz-adv-x="1024" vert-adv-y="826" d="M711 49V65h64l7 1 5 1 5 1 2 2 1 5 1 5 1 7V276H544V-30L480-62V276H227V19L163-13V330l64-32H480V401l64-11 16-10-16-10V298H797l32 27 59-49-27-21V87l-1-14-2-13-4-13-7-13-9-10-10-9-13-7-13-4-13-2-14-1V33L711 49zM54 440l10 2 34 6 48 9V771l65-11 16-11-16-9V470l86 18V870l64-11 17-11-17-9V697h69l44 49 54-49V676H361V502l128 28 64 13 3-9-120-45-204-66-83-25-50-13-8-19-14 13-23 61zm614-3-14 1-14 2-12 4-13 7-11 9-8 10-7 13-4 13-3 13v14V870l64-11 17-11-17-9V654l97 48 52 29 47 29 35 26 4 3 24-34 15-17 1-19-19 8-32-17-53-24-58-22-31-9-32-9-35-7-15-3V516l1-5 2-5 2-2 5-1 5-1 7-1H910l32 134h11L942 501l19-13 13-19-13-20-19-12H668z"/><glyph glyph-name="&#14401;" unicode="&#14401;" horiz-adv-x="1024" vert-adv-y="826" d="M801-40l-10-8-11-7-11-6-11-5-12-4-13-3-12-2-12-2H696v32L599-29v16h97l8 1 16 2 14 4 7 3 13 8 7 5 6 5 6 7 6 9 7 13 7 16 7 20 6 22 5 26 6 28 5 32 3 20H573l-16-46-71-9 62 184H422v21H827l44 48 53-48V337H616L580 229H826l33 27 59-48-27-17-4-1-6-44-6-31-7-28-7-26-8-23-8-21L835-2 824-18 811-32l-10-8zM263 169v14h43l5 1h4l3 2 1 1 1 1 1 3 1 4 1 6 1 7V648H254V-48L201-75V648H131V147L72 118V699l59-29h70V869l53-11 14-11-14-9V670h70l29 27 57-49-27-18V208l-1-13-2-13-3-12-6-11-7-11-10-9-11-7-12-4-12-3-13-1v30l-43 15zM908 437l-50 46-22 24-41 52-18 27-17 28-14 30-11 30-8 28H665l-8-19-26-50-30-46-34-43-37-40-41-36-44-33-48-27-5 8 40 36 38 37 34 38 31 41 27 43 25 46 20 45H422v22H614l11 31 15 54 13 66 62-23 13-14-19-6-10-39-19-56-6-13H850l53 53 65-53V702H741l52-66 40-45 22-22 46-39 66-48-59-45zM756 541l65-54V466H537v21H702l54 54z"/><glyph glyph-name="&#14402;" unicode="&#14402;" horiz-adv-x="1024" vert-adv-y="826" d="M706 45V61h75l6 1 5 1h3l2 2 2 2 2 5 1 4v7V275H544V-34L480-66V275H232V15L168-17V328l64-32H480V401l64-11 16-11-16-10V296H802l33 27 59-48-27-22V83l-1-14-2-13-5-13-7-12-8-11-11-9-12-7-13-4-14-2-13-1V29L706 45zm23 372v16H843l4 1 4 1 1 1 1 1 1 1 2 4 1 5 1 7V846l64-11 16-11-16-10V454l-1-14-2-13-4-13-7-12-9-11-11-9-12-6-13-5-13-2-14-1v33L729 417zM279 545l-4 6-5 6-9 8-10 8-12 7-14 8-34 17-3 1-17-11-34-20-37-17-40-14-4 8 66 47 28 24 26 24 23 25 21 25 17 27 15 26 12 28 2 7H58v21H449l54 54 64-54V785H334l-14-32-18-32-13-17H445l33 27 59-49-27-16-9-4-10-25-25-45-30-40-37-37-43-33-48-29-54-25-59-21-65-17-71-13-2 10 67 23 61 24 54 26 48 29 42 30 36 32 29 34 23 37 18 38 6 22H273l-15-17-27-25-27-23h10l19-1 18-3 16-3 15-5 14-5 13-6 13-7 10-10 6-24-13-21-24-5-21 13-1 5zM630 806l65-11 16-11-16-9V496l-65-33V806z"/><glyph glyph-name="&#14403;" unicode="&#14403;" horiz-adv-x="1024" vert-adv-y="826" d="M514 366l-55-27V804l59-11 15-10-15-10V487l24 22 28 30 25 30 22 33 20 33 16 35 14 37 12 40 9 41 8 54 63-21 14-13-19-8-6-26-13-44-17-42-12-24 12-3 24-7 23-8 22-10 21-11 20-13 18-13 34-31 15-17 5-24-13-21-24-4-21 12-9 16-11 16-12 15-28 29-33 28-38 27-11 7-25-41-25-34-29-31-32-28-34-24-37-21V455H853l54 54 64-54V433H518V369l-1-1 61-10 16-11-16-9V197l-4-39-7-38-11-35-16-33-19-30L498-5 472-29 442-50 408-68 372-82l-5 9 31 23 26 23L447-4l20 25 15 26 13 27 9 28 6 30 4 31V366zm140 3 64-11 17-11-17-9V-45L654-77V369zM923 3l33 135h10L956 3l19-13 13-19-13-19-19-13H890l-14 1-13 2-13 4-12 7-11 9-9 11-7 12-4 13-2 13-1 14V369l65-11 16-11-16-9V18l1-5 2-4 2-3 5-1 4-1 7-1h33zM280 167v14h43 4l2 1h1l1 1 3 6 1 5 1 6V648H263V-48L209-75V648H138V147L79 118V699l59-29h71V869l54-11 13-11-13-9V670h73l27 27 54-49-27-16V208l-1-13-1-12-3-11-4-11-7-10-8-9-9-7-11-4-11-3-12-1v27l-43 13z"/><glyph glyph-name="&#14404;" unicode="&#14404;" horiz-adv-x="1024" vert-adv-y="826" d="M894-23l-9-9-10-9-10-7-12-6-11-6-13-4-12-3-13-1-14-1v32L683-20V-4H798l8 1 6 1 6 3 12 5 5 4 10 10 5 6 10 20 10 37 6 50 6 61 3 70 2 78v85l-1 183v85H578l-24-41-23-35-51-68-28-33-31-31-8 5 64 112 38 72 16 37 29 73 13 37 14 45 58-28 12-15-19-5-24-56-18-37-6-11H886l32 27 60-48-27-17V610l1-183-1-86-1-79-4-72-5-65-9-55-11-45-19-37-8-11zM515 562l65-32H715l32 26 60-48-27-21V129L715 97v64H580V97L515 65V562zM268 169v14h43l6 1h4l3 2v1l1 1 2 3 1 4 1 6v7V648H260V-48L206-75V648H137V147L78 118V699l59-29h69V869l54-11 13-11-13-9V670h69l30 27 56-49-27-18V208 195l-2-13-4-12-5-11-8-11-9-9-11-7-12-4-13-3-13-1v30l-43 15zM715 340H580V183H715V340zm0 168H580V361H715V508z"/><glyph glyph-name="&#14405;" unicode="&#14405;" horiz-adv-x="1024" vert-adv-y="826" d="M710 170l-3 13-12 25-15 24-21 26-12 12-8 7-28-27-31-26-34-24-36-21-37-18-5 8 60 54 54 56 26 30 23 31 22 33 39 70 15 35-47-43-51-39-53-35-57-30-60-26-4 9 54 34 51 37 48 39 44 41 41 45 31 38-23-2-20 15-9 23-13 23-7 11-28 35-8 9-15-18-27-27-27-26-31-22-32-21-6 8 48 56 43 57 19 30 34 63 15 33 13 34 10 30h-1l5 12 58-29 12-15-20-4-7-17-15-29H831l2 2v1l30 24 59-48-27-16-12-5-21-43-33-59-38-56-40-51-38-41 54-32 9-17-20-2-11-20-18-29H897l32 27 59-49-27-16-12-5-25-53-39-66-45-61-48-54-54-48-57-41-62-35-66-27-69-20-74-13-2 9 70 23 64 27 60 33 56 37 50 42 44 44-21 1-17 18-4 12zm-425 0v16h43l7 1 4 1 5 1 2 2 1 2 1 3 1 5 1 7V648H276V-45L211-77V648H138V148L74 116V702l64-32h73V869l65-11 16-11-16-9V670h74l32 27 59-49-27-21V208l-1-14-2-13-4-13-7-13-9-10-11-9-12-7-13-4-13-2-14-2v33l-43 16zM889 363H712l-15-21-27-32-22-24 24-11 16-8 16-9 27-22 12-12 11-14 11-14 9-15-1-16 24 30 39 58 34 64 19 46zM823 756H661l-32-52-23-30 26-11 14-7 14-9 13-9 23-21 21-25 3-23 27 39 32 54 28 57 16 37z"/><glyph glyph-name="&#14406;" unicode="&#14406;" horiz-adv-x="1024" vert-adv-y="826" d="M554 223l-4-45-11-42-15-39-20-36-24-33L451-1 417-25 380-47 338-63 293-76l-4 9 41 22 35 23L396 3l26 26 22 27 17 30 13 31 10 34 5 36 1 38V401l65-11 16-10-16-10V224l-1-1zM926 19l32 135h11L958 19 978 6l12-19-12-19-20-13H888l-14 1-13 2-13 4-12 7-11 9-9 11-7 12-4 13-2 13-1 14V401l65-11 16-10-16-10V34l1-4 2-5 2-2 4-2 5-1 7-1h38zM646 401l65-11 16-10-16-10V-13L646-45V401zM252 169v14h43l5 1h4l3 2 2 2 1 3 1 4 1 6 1 7V648H243V-45L179-77V648H111V148L47 116V702l64-32h68V869l64-11 16-11-16-9V670h70l29 27 57-49-27-18V208l-1-13-2-13-3-12-6-11-7-11-10-9-11-7-12-4-12-3-13-1v30l-43 15zM929 501l13-19-13-20-19-13H517l-14 2-13 2-13 5-12 6-10 10-9 10-6 12-4 13-2 13V737l59-30H646V869l65-11 16-11-16-9V707H845l54 54 65-54V686H493V535l1-6 1-5 1-4 1-2 2-1h1l2-1 4-1 4-1h7H910l19-13z"/><glyph glyph-name="&#14407;" unicode="&#14407;" horiz-adv-x="1024" vert-adv-y="826" d="M403 72l-32 57 54 16V777H384v22H850l53 54 65-54V777H652V-46L593-76V180l-62-41-45-26-62-31-6-22-15 12zM916 20l33 134h10L949 20 968 7l13-19-13-20-19-13H804l-14 1-13 3-13 4-12 7-10 9-9 11-6 12-4 13-2 12V41 745l59-11 15-11-15-9V41 34l2-5 1-3 2-2 1-1 3-2 4-1h4H916zM238 169v14h43l5 1h4l3 2 1 1 2 4 1 4 1 6 1 7V648H232V-48L179-75V648H113V147L53 118V699l60-29h66V869l53-11 14-11-14-9V670h67l29 27 57-49-27-18V208l-1-13-2-13-3-12-6-11-8-11-9-9-11-7-12-4-12-3-13-1v30l-43 15zM593 369H489V167l103 36h1V369zm0 204H489V390H593V573zm0 204H489V595H593V777z"/><glyph glyph-name="&#14408;" unicode="&#14408;" horiz-adv-x="1024" vert-adv-y="826" d="M607 871l59-28 12-15-20-4-21-52H783l33 27 59-49-27-16-12-5-21-37-25-38-14-19-31-36-21-21H883l32 27 59-48-27-22V294l-64-33v65H726l-11-46-28-79-34-70-41-61-48-52-54-42-60-31-65-21-4 9 60 30L493 0l46 44 40 50 34 59 27 66 23 75 6 32H565V261l-65-32V552l-44-50-34-34-8 6 73 118 22 39 39 77 17 39 28 77 10 34 4 13zM928 3l32 135h11L960 3l19-13 13-19-13-19-19-13H825l-14 1-14 2-12 4-13 7-11 9-8 11-7 12-4 13-3 13V25 310l64-11 17-11-17-10V18l1-5 2-4 2-3 5-1 5-1 7-1H928zM275 170v16h43l6 1 5 1 5 1 2 2 1 2 1 3 1 5v7V648H262V-45L198-77V648H120V148L56 116V702l64-32h78V869l64-11 16-11-16-9V670h77l33 27 59-49-27-21V208l-1-14-2-13-5-13-6-13-9-10-11-9-12-7-13-4-14-2-13-2v33l-43 16zM693 557H565V347H673l6 30 10 92 4 88zm190 0H757l-6-94-15-96-5-20H883V557zM779 750H627l-35-65-23-38-25-38-11-15 32-16H706l37 77 17 40 14 39 5 16z"/><glyph glyph-name="&#14409;" unicode="&#14409;" horiz-adv-x="1024" vert-adv-y="826" d="M216 167V-48L162-75V648H108V147L49 118V699l59-29h54V869l54-11 13-11-13-9V670h54l30 27 56-49-27-18V208 195l-2-13-4-12-6-11-7-11-9-9-12-7-11-4-13-3-13-1v30l-36 13zM916 1l-3 23-4 22-4 17-39-17-64-24L671-23 637-33l-12-3-7-20-15 14-25 59 10 3 74 15L796 331l40 97 33 88 5 12 57-31 11-15-20-4-56-120-79-149-60-103-33-52-10-15 74 15L858 74l34 5 8 1-3 11-8 23-9 23-21 45-13 24 8 6 20-18 19-20 16-20 15-22 14-22 12-24 10-24 9-24 7-26 6-26-7-24-21-12-24 6-12 22-2 23zM553-11l-7-12-7-11-9-10-10-9-12-7-12-5-12-4-14-2-13-1v32L392-24V-8h65l7 1 6 1 4 2 5 1 3 2 3 3 3 3 3 5 3 5 2 7 6 18 5 22 4 26 5 29 4 33 5 75 2 43 2 46v39H442l-5-67-67-27 27 360 59-35h70V783H381v21H526l32 27 59-48-27-22V530l-64-32v64H458L443 374h86l32 27 60-48-27-16-1-1V313l-1-47-3-44-2-41-3-37-4-35-5-32-5-28-6-25-6-23-5-12zM766 659l54-26 11-15-20-4-29-65-33-66-27-45-11-16 16-21 22-39 10-18 8-20 6-19-5-24-20-14-24 5-14 20-2 16-3 17-4 18-6 18-15 40-9 21-22 45-13 24 7 6 38-38 17-20 4-5 8 37 32 118 5 22 6 22 4 15 3 11H604v22H740V858l65-11 16-10-16-10V681h43l54 53 64-53V659H766zM270 648H216V183h36l6 1h3l4 2 1 1v1l2 3 1 4 1 6v7V648z"/><glyph glyph-name="&#14410;" unicode="&#14410;" horiz-adv-x="1024" vert-adv-y="826" d="M664 466l8-15 36-34V398l-21 9-125-34-26-6V206h81l33 38 43-38V185H536V18H894V185H739v21H894V361H736v21H894l32 27 59-48-27-22V-25L894-57V-3H536V-41L477-70V403l49-24 99 59 24 16 9 7 1 1v1h1l4 3zM310 169v14h43l5 1h4l3 2 2 2 1 3 2 4 1 6V648H284V-45L220-77V648H136V148L71 116V702l65-32h84V869l64-11 16-11-16-9V670h87l29 27 57-49-27-18V415l50 68 27 40 24 41 44 88 19 46 17 47 14 49 13 51h1l2 9 60-25 13-15-20-5-10-33-16-42H874l32 27 59-48-27-16-3-2-5-40-5-28-4-25-4-22-5-20-5-16-6-15-7-13-13-13-10-7-11-6-11-6-11-4-12-5-12-3-12-3-12-2-12-1H765v32l-86 16v16h86l17 1 17 3 8 3 7 2 8 3 7 4 13 9 4 9 8 30 8 43 4 27 6 49H659l-16-37-23-46-26-45-28-43-30-39-33-39-36-34-37-32V208l-1-13-1-13-4-12-6-11-7-11-10-9-10-7-13-4-12-3-13-1v30l-43 15z"/><glyph glyph-name="&#14411;" unicode="&#14411;" horiz-adv-x="1024" vert-adv-y="826" d="M288 169v14h43l5 1h3l4 2 2 2 1 3 1 4 1 6V648H270V-45L205-77V648H129V148L65 116V702l64-32h76V869l65-11 16-11-16-9V670h78l30 27 56-49-27-18V413l27 33 32 42 29 42 28 44 26 45 23 46 9 21H421v21H590l21 56 17 51 12 48 4 14 60-26 12-15-19-5-11-35-21-53-15-35H826l54 54 65-54V686H722l40-57 23-30 23-27 47-48 25-21 25-19 26-16 52-29-60-47-29 20-28 22-26 25-24 26-23 29-21 31-20 33-17 35-15 37-12 36H640l-24-44-28-46-31-45-33-42-36-40-2-2 36-18h93V595l65-11 16-11-16-10V449h95l32 27 59-48-27-22V116L775 84v64H680V24l1-5 1-3 1-2V13l2-1 4-2 5-1h7H895l32 134h11L927 9 946-4l13-20-13-19-19-13H701l-14 1-13 2-13 5-12 7-11 8-9 11-6 12-5 13-2 14-1 13V148H522V84L463 54V445l-14-13-42-34V208 195l-2-13-4-12-5-11-8-11-9-9-11-7-12-4-13-3-12-1v30l-43 15zM615 288H522V170h93V288zm160 0H680V170h95V288zM615 428H522V310h93V428zm160 0H680V310h95V428z"/><glyph glyph-name="&#14412;" unicode="&#14412;" horiz-adv-x="1024" vert-adv-y="826" d="M750-29v16h75l6 1 5 1 3 1h3v1l1 1 1 2 1 3 1 5V9 121H564V-51L5e2-83V455l64-32H846l33 26 59-48-27-21V9L910-5l-2-13-5-13-6-13-9-10-11-9-12-7-13-4-13-2-14-1v32L750-29zM301 169v14h43l6 1h3l2 1 2 1v1l1 1 1 3 1 4 1 6 1 7V648H279V-45L214-77V648H134V148L69 116V702l65-32h80V869l65-11 16-11-16-9V670h83l30 27 56-49-27-18V208l-1-13-2-13-3-12-6-11-7-11-10-9-11-7-11-4-13-3-13-1v30l-43 15zm545 92H564V143H846V261zm0 140H564V283H846V401zM469 850l59-30H880l32 27 59-48-27-22V514l-64-32V799H528V513l-59-30V850zM785 632l54-48V562H572v22H741l44 48zm0 118 54-48V681H572v21H741l44 48z"/><glyph glyph-name="&#14413;" unicode="&#14413;" horiz-adv-x="1024" vert-adv-y="826" d="M668 30V46h64l7 1 5 1 5 1 2 3 1 4 1 5 1 7V229H544V-40L480-72V229H279V3L215-29V283l64-32H480v91l64-11 16-11-16-9V251H754l32 26 59-48-27-21V68l-1-14-2-13-4-13-7-12-9-11-10-9-13-7-13-4-13-2-14-1V14L668 30zM936 224l-85 31-79 35-73 38-34 21-32 22-30 24-23 22H465l-21-18-41-28-47-27-52-25-57-24-63-22-69-20-74-18-3 9 71 28 124 55 53 28 47 29 41 28 6 5H61v22H407l31 31 23 28 10 16H257l-64-32V796l64-33H449l2 5 5 13 5 12 13 34 4 11 3 9 3 10v4h-1l5 10 55-35 9-17-26-2-33-32-21-17-7-5H766l33 27 59-48-27-22V514l-65-32v32H507l28-19 8-17H522l-12-17-22-22H838l54 53 65-53V417H608l111-49 74-28 79-25 41-12 43-11 43-12-63-56zM766 631H257V536H766v95zm0 111H257V652H766v90z"/><glyph glyph-name="&#14414;" unicode="&#14414;" horiz-adv-x="1024" vert-adv-y="826" d="M864 215l51-41 7-18-21 1-16-20-34-35-36-33-39-29-42-27-45-24-47-21-50-19-53-14-55-11-3 9L581-24 627-1l43 26 39 26 37 29 33 30 30 31 28 34 27 40zm-86 97 49-42 7-17-21 1-37-42-28-27-30-24-31-23-32-21-34-20-35-17-37-15-39-12-4 9 66 43 30 22 57 47 26 24 25 26 23 27 45 61zM248 169v14h43l4 1h4l3 2 2 2 2 3 1 4 1 6V648H244V-48L191-75V648H127V147L67 118V699l60-29h64V869l53-11 14-11-14-9V670h64l29 27 57-49-27-18V208l-1-13-1-13-4-12-5-11-8-11-10-9-10-7-13-4-12-3-12-1v30l-43 15zM871 639l-7 16-7 15-9 16-19-5-37-11-78-17-59-11 51-25 11-15-19-4-13-35-17-38H865l53 53 65-53V503H762l97-120 44-47 21-19 19-15 17-12 39-23-60-47-19 17-20 18-19 21-19 24-39 56-39 69-19 39-17 39H658l-22-43-27-49-30-46-31-44-34-41-36-39-38-36-41-33-7 7 33 40 61 83 28 43 26 44 48 94 8 20H411v22H605l22 59 17 54 1 2-51-9-82-13-19-3-10-18-12 15-18 63 11 1 81 5 79 136 19 36 8 17 3 5 53-38 8-17-21-1-41-50-50-55-32-31 17 1 40 3 40 3 40 3 39 3 40 3 39 1 13 1-14 19-43 54-17 18 6 8 43-26 20-13 19-15 17-14 16-16 27-32 22-35V625l-17-18H893l-18 17-4 15zM706 413l50-40 7-18-20 1-25-28-44-41-49-40-54-35-29-16-32-14-4 8 71 67 43 43 19 21 34 45 16 22 14 22 3 3z"/><glyph glyph-name="&#14415;" unicode="&#14415;" horiz-adv-x="1024" vert-adv-y="826" d="M518-34v16h54l6 1 5 1h3l2 1 2 3 1 1 1 3 1 5V4 415H479V344l5 7 10-8 13-5 21-12 10-6 10-7 17-15 8-8 8-8 1-24-16-20-24-1-19 16-1 7-5 16-3 9-9 18-5 10-13 21-8 8V198l5 7 10-8 13-5 10-5 21-13 10-7 17-15 16-16 1-25-16-19-24-1-19 15-1 8-2 8-6 17-5 9-4 10-5 9-13 21-8 8V-51L420-81V466l59-29H593l32 26 60-48-27-21V4l-1-14-3-13-4-13-6-12-9-11-11-9-13-7-12-4-14-2-13-1v32L518-34zM772-47 762 1l-6 24-16 48-20 48-33 72-6 3 34 108 24 78 13 50 6 24 3 9 59-27 12-14-20-6-23-55-23-50-27-50-15-24-16-24-11-16 36-38 17-22 16-23 15-24 25-48 11-25 9-25 9-26-4-24-20-15-24 4-15 20zM893-22 887 1 871 47 851 95l-48 97-6 4 66 182 15 50 7 25 3 8 58-29 12-15-20-5-25-55-26-49-29-48-16-23-29-38 18-17 20-22 35-45 30-46 13-23 11-24 20-47-3-24-19-16-24 3-15 18-6 22zM252 167v14h43 4l2 1h1l1 1 3 6 1 5 1 6V648H243V-48L189-75V648H126V147L67 118V699l59-29h63V869l54-11 13-11-13-9V670h65l27 27 54-49-27-16V208l-1-13-1-12-3-11-4-11-7-10-8-9-9-7-11-4-11-3-12-1v27l-43 13zM482 831H654l4 5 1-1 27 22 59-48-27-16-6-3 58-63 53-53 56-47 28-21 28-19 50-32-60-45-58 46-54 54-26 30-24 30-24 33-22 35-20 36-1 2-31-43-28-35-64-68-36-33-37-31-41-32-44-30-46-28-5 8L476 591l64 70 28 35 50 70 21 35 4 8H482v22zM781 598l65-53V523H499v22H728l53 53z"/><glyph glyph-name="&#14416;" unicode="&#14416;" horiz-adv-x="1024" vert-adv-y="826" d="M769-26v16h86l7 1 5 1 5 2 1 1v1l1 1 1 4 1 4V592l65-11 16-11-16-9V12L940-2l-2-13-5-13-6-12-9-11-10-9-13-7-13-4-13-2-14-1v32L769-26zM553-25v15h54 4l4 1 3 1 3 3 1 2 1 4 1 6V95L605 80l-24 4-15 20-4 30-11 44-5 14-11 28-7 14-8 13 7 7 12-11 13-10 13-11 11-12 21-27 9-15 16-32 2-4V282l-13-10-24 4-15 19-3 18-3 17-4 16-9 28-4 12-12 23-7 10-8 9 5 8 25-11 12-8 13-10 11-12 11-14 19-32 6-12V521H518V-39L454-71V575l64-32H624l29 27 57-49-27-18V14L682 1l-2-12-3-13-5-11-8-11-10-8-10-7-13-5-12-2-12-1v29L553-25zM745 535l59-10 15-11-15-9V86L745 56V535zM260 170v16h43l6 1 5 1 3 1h3v1l1 1 1 2 1 3 1 5v7V648H254V-45L189-77V648H120V148L55 116V702l65-32h69V869l65-11 16-11-16-9V670h70l33 27 59-49-27-21V208l-1-14-2-13-5-13-6-13-9-10-11-9-12-7-13-4-13-2-14-2v33l-43 16zM786 875l59-28 12-16-21-5-14-30-37-70-22-36-3-6H866l54 54 64-54V663H416v21H746l3 12 3 21 8 39 4 19 8 38 4 18 4 18 3 12h-1l4 14zM587 722l-1 14-5 28-3 14-4 14-8 28-10 29-8 13 8 6 10-11 13-10 22-24 9-13 18-27 8-15 14-30-4-25-19-14-25 4-15 19z"/><glyph glyph-name="&#14417;" unicode="&#14417;" horiz-adv-x="1024" vert-adv-y="826" d="M706 30V46h75l6 1h5l3 1 2 1 1 2h1l1 2 1 3 1 5v7V245H544V-45L480-77V245H232V2L168-31V298l64-32H480v98l64-10 16-11-16-10V266H802l33 27 59-48-27-22V68l-1-14-2-13-5-14-7-11-8-11-11-9-12-7-13-4-14-3H781V14L706 30zM404 539l-15 15-10 7-23 16-28 15-33 17h-1V390l-64-32V593l-23-29-21-23-24-23-26-21-27-19-30-17-31-16-6 9 49 47 22 23 19 23 19 23 16 25 15 24 13 25 11 25 1 3H45v22H230v79l-32-2-45-3-46-2-51-1-1 10 95 22 82 17 71 17 57 16 46 14 2-7 52-44 1-17-22 11-16-5-23-4-56-9-50-6V694h51l54 53 64-53V672H294V623l5-1 19-1 18-1 18-2 32-7 15-4 14-4 13-5 13-6 13-21-5-24-21-13-24 5zM751 841l-17-11-4-56-3-21 12-61 15-50 7-17 88 92 39 45 44-46 4-19-21 5-48-35-36-23-38-21-26-13 5-12 21-39 24-34 28-30 31-25 35-21 75-30-62-52-45 24-41 29-35 34-30 38-24 43-19 47-14 51-4 32-7-27-21-59-27-53-33-45-38-39-43-31-49-23-53-15-3 9 47 24 41 29 35 33 31 37 25 43 20 49 16 55 11 60 6 66 1 74v12l64-12 16-11zM492 555l-20 15-3 25 15 19 10 5 10 6 10 9 9 10 8 12 8 16 6 17 6 21 6 22 2 24 9 1 7-50V684l-1-21-4-21-5-19-9-19-11-17-13-15-16-13-24-4z"/><glyph glyph-name="&#14418;" unicode="&#14418;" horiz-adv-x="1024" vert-adv-y="826" d="M425 756l52-26 145 41 81 27 78 29 76 32 4-11 45-38 1-18-21 9-44-16-41-12-42-12-42-11-42-10-43-8-44-7-44-6-45-3-20-1V589H687l13 143 63-16 15-12-17-6-9-109H859l54 54 65-54V568H750L739 432H842l32 27 59-49-27-21V-16L842-48V6H6e2V-32L541-61V461l59-29h74l12 136H479V401l-2-68-4-64-6-58-8-54-10-49-12-45-15-40-16-34-19-29-21-23-6 4 13 27L384-2l10 35 9 39 8 43 6 47 5 53 3 58 1 61-1 67V756zM842 146H6e2V27H842V146zM252 167v14h43 4l2 1h1l1 1 3 6 1 5 1 6V648H243V-48L189-75V648H126V147L67 118V699l59-29h63V869l54-11 13-11-13-9V670h65l27 27 54-49-27-16V208l-1-13-1-12-3-11-4-11-7-10-8-9-9-7-11-4-11-3-12-1v27l-43 13zM842 278H6e2V168H842V278zm0 132H6e2V3e2H842V410z"/><glyph glyph-name="&#14419;" unicode="&#14419;" horiz-adv-x="1024" vert-adv-y="826" d="M645 760l64-11 16-10-16-10V629H837l54 54 65-54V607H709V519H830l33 27 59-48-27-22V209l-65-33v54H709V110H872l54 54 64-54V89H709V-37L645-69V89H381v21H645V230H517V192l-64-32V552l64-33H645v88H416v22H645V760zM256 170v16h43l6 1 5 1 5 1 2 2 1 5 2 5v7V648H251V-45L187-77V648H118V148L54 116V702l64-32h69V869l64-11 16-11-16-9V670h69l32 27 59-49-26-21V208l-1-14-3-13-4-13-7-13-9-10-10-9-13-7-13-4-13-2-13-2v33l-43 16zM645 367H517V252H645V367zm185 0H709V252H830V367zM645 498H517V388H645V498zm185 0H709V388H830V498zM422 654l-20 13-4 25 13 20 12 6 11 6 9 8 9 10 9 11 8 14 8 15 6 17 6 19 3 21h10l1-22 2-15H894l4 3 2 5 2-2 24 21 60-48-27-17-28-11-34-30-24-19-13-9-11-12-7 7 9 13 13 28 18 37 5 13H505v-6l-2-19-4-19-6-18-9-17-10-16-13-15-15-13-24-4z"/><glyph glyph-name="&#14420;" unicode="&#14420;" horiz-adv-x="1024" vert-adv-y="826" d="M706 26V42h81l5 1 3 1 2 1 1 1 1 1 2 5 1 4v7V233H544V-47L480-80V233H232V-2L168-34V287l64-32H480v96l64-11 16-11-16-10V255H802l33 27 59-49-27-21V63l-1-14-2-13-5-13-7-12-8-11-11-9-12-6-13-5-14-2-13-1V10L706 26zM345 634h92l3 4 1-1 28 24 59-49-27-16-16-7-9-13-35-46-25-28-13-14-27-26-8 6 9 16 14 34 7 17 7 17 25 60H340V391l-1-14-2-13-5-13-7-12-8-11-11-9-12-6-13-4-14-3-13-1v33l-86 16v16h92l5 1 3 1 2 1 1 1 1 1 2 5 1 4v7V555l-28-37-24-28-25-25-27-24-29-23-30-20-32-18-34-16-4 8 52 48 49 50 42 53 19 27 17 28 16 29 2 5H66v22H291l-4 6-16 22-10 12-11 10-28 22-32 22-19 10 3 9 21-5 21-3 20-6 18-6 18-8 32-17 8-6 71 90 6 9H93v21H404l9 11 2-2 22 18 59-48-27-17-29-12-51-40-33-23-18-12-12-6 19-18 6-23-6-10zM876 339l-47 29-43 31-39 33-22 23-38-30-41-24-43-21-46-17-4 10 41 25 37 27 34 28 30 31 2 2-15 17-26 38-23 40-16 41-7 26-25-41-21-30-23-28-25-26-8 5 31 64 28 63 23 64 9 31 8 33 7 33 7 43 61-22 14-14-19-7-4-14-10-35-12-33-7-15H856l54 54 64-54V697H875l-16-47-20-45-24-43-27-39-26-32 20-16 39-27 42-25 45-25 80-37-62-50-50 28zM809 697H635l-14-28-3-6 19-31 24-35 26-33 29-31 11-11 20 30 21 37 19 39 15 43 7 26z"/><glyph glyph-name="&#14421;" unicode="&#14421;" horiz-adv-x="1024" vert-adv-y="826" d="M984 240H716l28-56 20-33 21-30 23-26 25-25 28-21 29-19 31-17 67-29-62-51-37 21-35 23L823 3 795 32 770 63 748 97l-18 36-15 38-11 41v3l-1-7-15-48-21-45-28-40-32-36L569 7 526-20 478-44 425-62 366-76l-2 9 53 23 48 26L507 9l36 30 31 31 25 34 19 36 15 38 10 42 2 20H398v21h87V530l65-32h98V632l65-11 16-10-16-10V498h98l32 27 59-49-27-21V261h11l44 49 54-49V240zM254 169v14h43l5 1h4l3 2 2 2 1 3 1 4 1 6V648H243V-48L189-75V648H117V147L58 118V699l59-29h72V869l54-11 13-11-13-9V670h71l30 27 56-49-27-18V208 195l-2-13-4-12-5-11-8-11-9-9-11-7-12-4-13-3-12-1v30l-43 15zM648 476H550V261h98v3V476zM811 261V476H713V261h98zM767 869l65-11 16-11-16-9V745h23l54 54 64-54V724H832V643l-65-32V724H615V643l-65-32V724H420v21H550V869l65-11 16-11-16-9V745H767V869z"/><glyph glyph-name="&#14422;" unicode="&#14422;" horiz-adv-x="1024" vert-adv-y="826" d="M256 170v16h43l7 1 5 1 3 1h2l1 1v1l1 2 2 3v5l1 7V648H254V-45L189-77V648H122V148L58 116V702l64-32h67V869l65-11 16-11-16-9V670h67l32 27 50-42v1H657v88l-24-4-44-5-45-4-47-3H449l-2 10 179 42 80 23 74 24 63 24v1l1-1 5 2 3-9 47-41 1-16-21 9-44-14-38-11-39-9-36-7V656H857l53 54 65-54V635H722V532H846l33 27 59-49-27-21V212l-65-32v43H722V119H833l43 48 54-48V97H722V-11H867l54 53 64-53V-33H393v22H657V97H449v22H657V223H532V206l-64-32V564l64-32H657V635H403v6l-18-14V208 194l-3-13-4-13-7-13-8-10-12-9-12-7-12-4-14-2-14-2v33l-43 16zM657 363H532V244H657V363zm189 0H722V244H846V363zM657 510H532V385H657V510zm189 0H722V385H846V510z"/><glyph glyph-name="&#14423;" unicode="&#14423;" horiz-adv-x="1024" vert-adv-y="826" d="M667 270l64-16 15-12-18-9-3-29-10-46-13-43-16-40-19-35L644 8 618-20 588-44 556-62 521-76l-4 9 28 22 25 23L592 4l18 27 17 30 13 34 11 36 8 39 5 42 2 46 1 12zM930 9l32 134h11L962 9 981-4l13-20-13-19-19-13H855l-14 1-13 2-13 5-12 7-11 8-9 11-7 12-4 13-2 14-1 13V267l64-11 17-11-17-10V30l1-6 1-5 1-3 1-2V13l1-1 2-1 4-1 5-1h6 75zM243 167v14h43 3l3 1h1l2 1 1 2 1 4 1 5 1 6V648H237V-48L183-75V648H123V147L64 118V699l59-29h60V869l54-11 13-11-13-9V670h62l27 27 54-49-27-16V208l-1-13-1-12-3-11-4-11-6-10-8-9-10-7-11-4-12-3-11-1v27l-43 13zM729 299l-14 1-14 3-12 5-12 6-11 9-8 11-6 12-5 13-2 12v51l-65-7V213l-1-1h1l-5-43-7-40-9-37-11-34-14-31L517-1 499-26 478-46 454-63 429-75l-5 7 20 19 16 19L475-8l13 24 11 26 9 29 8 32 5 34 4 37 1 41V616l54-27H681V735l-49-9-96-14-49-6-24-1V288l-3-49-6-47-9-44-10-41-13-38-16-36L388 1 367-28 343-53 317-75l-5 6 18 27 17 27 14 30 13 32 12 34 8 36 7 39 5 42 3 44v47V745l51-25 3e2 86 134 44 2-8 51-43 2-17-23 10-59-16-93-22-47-10-18-3 37-7 16-10-16-10V664H869l44 49 54-49V643H746V589H895l33 27 59-48-27-16-28-12-21-18-21-15-12-8-10-10-7 7 9 11 5 13 5 11 5 11 4 11 4 9 1 6H580V436l65 8V552l59-11 15-11-15-9V451l56 6 48 60 70-46 2-21-176-21V385l1-7 1-5 3-5 1-1 1-1 3-1 3-1h5l7-1H890l33 135h10L923 363l19-12 13-20-13-19-19-13H729z"/><glyph glyph-name="&#14424;" unicode="&#14424;" horiz-adv-x="1024" vert-adv-y="826" d="M928-30 880 20 858 47 837 76l-19 30-18 32-17 33-15 35-3 10V-51L701-83V277H625V-51L560-83V173l-13-21-25-38-28-36-29-32-32-31-34-28-35-25-39-22-5 8 31 30 57 62 26 32 24 34 22 35 21 37 19 39 17 41 7 19H432v22H560v97H401v21H560v97H442v21H560v92H411v21H560V748l-35-9-32-6-35-5-35-3-3 9 122 51 50 24 43 23 18 12 12 8v1l5 3 15-25 25-26V787l-19 8-31-14-49-19-9-2 23-4 16-11-16-10V648h76v86l-24-4-3 9 23 11 4 2v4l5-1 94 51 36 22 31 23 13-21 28-30 1-18-20 8-27-12-41-16-22-7-23-6-13-3 2-1 16-11-16-9V648h78l53 54 65-54V627H765V535h81l32 27 59-48-27-22V417h20l24 32 33-32V396H910V245l-64-32v64H765v-8l52-79 42-55 21-25 23-24 22-21 24-21 24-18 14-11-59-45zM250 170V-45L185-77V648H121V148L56 116V702l65-32h64V869l65-11 16-11-16-9V670h64l32 27 60-49-27-21V208l-1-14-3-13-4-13-7-13-8-10-11-9-13-7-12-4-14-2-13-2v33l-43 16zM701 396H625V299h76v97zm145 0H765V299h81v97zM701 514H625V417h76v97zm145 0H765V417h81v97zM701 627H625V535h76v92zM250 186h43l6 1 5 1 5 1 2 2 2 5 1 5v7V648H250V186z"/><glyph glyph-name="&#14425;" unicode="&#14425;" horiz-adv-x="1024" vert-adv-y="826" d="M406 2l11 2 42 6 1 347 64-11 16-11-16-9V214h82l33 38 43-38V192H524V21L627 38l34 5 36 4 3-9-34-15L604-2 521-31 452-53l-8-20-14 14L406 2zm511 9 32 134h11L949 11 968-2l13-20-13-19-19-13H797l-14 1-13 2-13 5-12 6-11 9-9 11-7 12-4 13-2 13-1 14V357l64-11 17-11-17-9V189l98 59 32 21 15 10 7-15 37-35V211l-20 9-29-12-39-13-40-13-44-12-17-3V32l1-6V20l2-2 1-2 1-1 1-1 1-1 4-1 4-1h7H917zM250 170V-45L185-77V648H121V148L56 116V702l65-32h64V869l65-11 16-11-16-9V670h64l32 27 60-49-27-21V208l-1-14-3-13-4-13-7-13-8-10-11-9-13-7-12-4-14-2-13-2v33l-43 16zM667 861l-1 1 6 8 50-42 7-18-25 2-43-38-25-20-12-9H872l32 27 60-48-27-22V368l-65-32v54H511l-64-32V777l64-32h96l5 7 15 30 33 63 7 16zM796 444l-16 22-38 41-19 18-20-17-33-25-37-21-39-18-41-15-42-10v-8H872V724H511V430l70 39 34 22 30 25 28 26 13 14-40 31-86 60 4 8 35-10 33-13 33-15 30-15 19-11 27 41 18 34 15 36 3 7 56-32 11-16-20-3-11-20-24-38-25-33-6-6 19-13 47-41 22-22 7-23-11-22-24-7-22 11zM250 186h43l6 1 5 1 5 1 2 2 2 5 1 5v7V648H250V186z"/><glyph glyph-name="&#14426;" unicode="&#14426;" horiz-adv-x="1024" vert-adv-y="826" d="M728-29v16h75l7 1 5 1 5 1 1 1 1 1 1 2 1 3 1 5V105H564V-45L5e2-77V105H413v22h87V245H417v22h83V428l64-32h99v91H408v22H567V611H465v21H567v92H441v21H567V858l64-11 16-10-16-10V745H753V858l65-11 16-10-16-10V745h21l54 54 65-54V724H818V632h28l44 49 54-49V611H818V509h71l44 48 54-48V487H727V396h98l32 27 59-49-27-21V267h12l33 37 43-37V245H889V127h12l33 38 43-38V105H889V9-5l-2-13-5-13-7-13-8-10-11-9-12-7-13-4-14-2-14-1v32L728-29zM256 170v16h43l6 1 5 1 5 1 2 2 1 5 2 5v7V648H251V-45L187-77V648H118V148L54 116V702l64-32h69V869l64-11 16-11-16-9V670h69l32 27 59-49-26-21V208l-1-14-3-13-4-13-7-13-9-10-10-9-13-7-13-4-13-2-13-2v33l-43 16zm407 75H564V127h99V245zm162 0H727V127h98V245zM663 374H564V267h99V374zm162 0H727V267h98V374zM753 611H631V509H753V611zm0 113H631V632H753v92z"/><glyph glyph-name="&#14427;" unicode="&#14427;" horiz-adv-x="1024" vert-adv-y="826" d="M555 149l-1-1-5-36-10-33-16-31-20-28L478-4 449-25 416-43 379-58 338-70l-45-8-3 9 41 18 36 19 31 20L424 8l22 21 17 22 13 23 8 24 5 25 1 27V285l65-11 16-11-16-9V149zM926 7l32 134h11L958 7 978-6l12-19-12-20-20-13H888l-14 1-13 3-13 4-12 6-11 9-9 11-7 12-4 13-2 14-1 13V285l65-11 16-11-16-9V22l1-5 2-5 1-1 1-1 1-1 3-1 5-1h45zM646 285l65-11 16-11-16-9V-23L646-55V285zM255 169v14h43l5 1h4l3 2 1 1 1 1 2 3 1 4v6l1 7V648H247V-45L182-77V648H116V148L52 116V702l64-32h66V869l65-11 16-11-16-9V670h69l29 27 57-49-27-18V208l-1-13-2-13-3-12-6-11-7-11-10-9-11-7-12-4-12-3-13-1v30l-43 15zM517 321l-14 1-13 3-13 5-12 6-10 9-9 11-6 12-4 13-2 13V581l59-29H646V690l65-11 16-11-16-9V552H845l54 53 65-53V530H493V407l1-6 1-6 1-3 1-2 2-1 1-1 2-1h4l4-1 7-1H910l19-12 13-20-13-19-19-13H517zM780 873l64-11 16-11-16-10V758h30l44 48 54-48V737H844V644l-64-32V737H578V644l-65-32V737H385v21H513V873l65-11 16-11-16-10V758H780V873z"/><glyph glyph-name="&#14429;" unicode="&#14429;" horiz-adv-x="1024" vert-adv-y="826" d="M847-46l-77 1-66 6-54 11-45 14L570 5 542 28 521 55 506 85l-4 14-2-1-26-38-34-45-30-37 3-23-19 5L343 2l8 7L456 84V353H362v22h94l32 27 59-49-27-21V109l-3-2 29-32 21-17 25-14 30-11 39-8 49-5 61-1 75 2L995 31 940-44l-93-2zM711 523l64-11 17-10-17-10V399h18l44 49 53-49V378H775V284h31l34 38 43-38V263H775V174h50l54 54 65-54V153H775V69L711 37V153H549v21H711v89H602v21H711v94H596v21H711V523zM229 169v14h43l5 1h4l3 2 2 2 1 3 1 4 1 6v7V648H227V-48L173-75V648H110V147L51 118V699l59-29h63V869l54-11 13-11-13-9V670h62l30 27 56-49-26-18V208l-1-13-2-13-3-12-6-11-7-11-10-9-11-7-12-4-12-3-13-1v30l-43 15zM892 455l-35 20-34 23-30 27-29 30-14 18-16-19-37-35-39-32-43-30-46-26-49-23-4 8 42 32 39 33 38 33 33 35 32 36 22 29-29 52-19 43-3 11-33-47-18-24-21-22-21-21-24-18-7 7 43 74 27 51 12 27 22 55 10 28 10 30 2 7 58-29 12-15-20-5-15-31H810l32 26 59-48-27-16-11-5-12-26-25-45-27-42-18-22 19-19 28-23 30-20 30-17 32-14 72-24-62-54-38 17zM448 501l-12 27-21 38-24 36-10 11-10 10 5 8 13-6 15-6 14-8 13-8 14-9 12-11 24-23 23-27 3-25-15-19-24-4-20 16zM804 765H697l-15-27 38-57 25-32 31 53 19 42 9 21zM479 689l-4 14-11 26-13 25-23 37-8 13-11 10 5 9 14-8 15-7 27-18 12-9 24-24 22-25 9-14 1-25-15-19-25-1-19 16z"/><glyph glyph-name="&#14430;" unicode="&#14430;" horiz-adv-x="1024" vert-adv-y="826" d="M9e2-60 870-42 805-7 736 26l-6 2L696 3 650-23 599-42 544-56l-61-8-65-2-1 10 63 12 56 16L587-9l44 23 39 26 10 9L567 92 536 47 484 84l44 67 28 47 4 8H397v22H571l22 45 23 53 3 7 56-31 12-17-19-2-16-37-9-18H864l53 54 65-54V206H843l-17-48-24-47-29-42-6-5 60-22 71-30L932-4l15-20-3-24-20-15-24 3zM776 206H632l-34-64-21-35 54-8 41-9 40-10 18 23 22 36 18 41 6 26zM256 170v16h43l6 1 5 1 5 1 2 2 1 5 2 5v7V648H251V-45L187-77V648H118V148L54 116V702l64-32h69V869l64-11 16-11-16-9V670h69l32 27 59-49-26-21V208l-1-14-3-13-4-13-7-13-9-10-10-9-13-7-13-4-13-2-13-2v33l-43 16zM542 335V319l-65-32V499l65-32H657v88H558V539l-64-32V666H408v21h86V829l64-32h99v73l65-10 16-11-16-10V797h99l32 27 59-49-27-21V687h29l24 32 32-32V666H885V545l-64-33v43H722V467H837l32 27 59-49-27-21V324l-64-32v43H542zM657 445H542V356H657v89zm180 0H722V356H837v89zM657 666H558V577h99v89zm164 0H722V577h99v89zM657 775H558V687h99v88zm164 0H722V687h99v88z"/><glyph glyph-name="&#14431;" unicode="&#14431;" horiz-adv-x="1024" vert-adv-y="826" d="M505 368V309l54-27H820l32 27 59-48-27-22V-27L820-59V-5H559V-43L494-75V298l-54-27V667l65-32h79v98H392v21H584V875l64-11 16-11-16-10V754h82V875l65-11 16-11-16-10V754h73l54 54 64-54V733H795V635h79l32 27 59-49-27-21V335l-64-32v65H505zM820 127H559V16H820V127zM239 170V-45L174-77V648H110V148L45 116V702l65-32h64V869l65-11 16-11-16-9V670h64l33 27 59-49-27-21V208l-1-14-2-13-5-13-7-13-8-10-11-9-12-7-13-4-14-2-13-2v33l-43 16zm581 91H559V149H820V261zM584 491H505V389h79V491zm146 0H648V389h82V491zm144 0H795V389h79V491zM584 613H505V512h79V613zm146 0H648V512h82V613zm144 0H795V512h79V613zM730 733H648V635h82v98zM239 186h43l6 1 5 1 5 1 2 2 2 5 1 5v7V648H239V186z"/><glyph glyph-name="&#14432;" unicode="&#14432;" horiz-adv-x="1024" vert-adv-y="826" d="M478 439l64-33H804l33 27 59-48-27-22V208l-62-32 40-25 10-17-21-2-25-37-39-54L744 6 725-13H851l54 54 64-54V-34H377v21H708l80 187-1 1 6 10 11-7v30H542l-64-33V439zM566 14l-9 35-5 17-13 33-16 32-17 33-11 15 6 7 32-23 14-13 14-14 26-31 11-16 10-17 19-38-2-24L607-6 582-4 566 14zM239 170V-45L174-77V648H110V148L45 116V702l65-32h64V869l65-11 16-11-16-9V670h64l33 27 59-49-27-21V208l-1-14-2-13-5-13-7-13-8-10-11-9-12-7-13-4-14-2-13-2v33l-43 16zM804 385H542V229H804V385zm89 99-35 31-32 33-29 35-25 38-23 41-20 43-16 45-9 37-19-11-11-5-11-27-24-45-24-43-28-39-29-38-31-35-34-32-36-29-37-26-41-22-5 9 33 30 31 31 30 32 28 34 25 35-13-1-19 15-4 13-10 23-11 23-21 32-8 12-10 8 6 8 12-6 13-6 13-6 12-7 12-9 11-9 12-10 11-11 19-25v-5l22 39 20 41 18 43 9 24H447v21H621l32 27 48-39-8 47 10 2 19-45 21-43 21-40 15-23 13 31 21 45 10 26 5 11 2 6 4 10 53-37 8-18H872l-21-23-48-50-15-14v-1l25-35 22-25 52 89 14 29 5 9 50-41 7-19-24 2-49-45-31-27-12-10 22-23 31-26 33-24 57-36-59-46-38 27zM762 573l64-54V498H520v21H708l54 54zM239 186h43l6 1 5 1 5 1 2 2 2 5 1 5v7V648H239V186z"/><glyph glyph-name="&#14434;" unicode="&#14434;" horiz-adv-x="1024" vert-adv-y="826" d="M678 235l-10-43-14-44H828l32 27 60-48-27-16-2-1V94l-2-19-3-32-2-14-2-12-3-12-4-10-4-10-8-11-9-11-9-9-10-8-11-7-11-6-13-4-12-3-14-2-13-1v32L654-28v16H761h8l6 1 7 2 5 1 6 3 4 3 5 4 5 4 4 6 4 6 1 1 1 5 2 7 2 9 1 12 2 13 1 16 1 17 2 19v10H645l-10-23-23-38-26-35L556 1 522-25 485-46 444-63 401-75l-4 9 39 21 34 23L5e2 3l27 27 23 30 20 32 16 35 13 38 10 41 4 29H399v21H653V359l65-11 16-10-16-10V256H885l44 49 54-49V235H678zM254 167v14h43 4l2 1h1l1 1h1l1 2 1 4 1 5 1 6V648H244V-48L191-75V648H127V147L67 118V699l60-29h64V869l53-11 14-11-14-9V670h66l27 27 54-49-27-16V208 195l-2-12-3-11-4-11-6-10-8-9-10-7-11-4-11-3-12-1v27l-43 13zM475 388V351l-59-30V587l59-30H897l32 27 59-49-27-21V367l-64-33v54H475zm98 147H475V410h98V535zm164 0H638V410h99V535zm160 0H801V410h96V535zM484 885l64-32H830l33 27 59-49-27-21V624l-65-32V831H548V624l-64-32V885zM747 724l54-49V654H578v21H703l44 49zm0 88 54-48V742H578v22H703l44 48z"/><glyph glyph-name="&#14435;" unicode="&#14435;" horiz-adv-x="1024" vert-adv-y="826" d="M657-59l-14 1-13 2-13 4-11 6-11 9-9 10-7 12-5 13-2 13-1 14V514l65-32H861V611H636V573l-65-32V869l65-11 16-11-16-9V756H851l53 54 65-54V734H636V632H861l33 27 59-48-27-22V449l-65-32v43H636V358H817l44 48 54-48V337H636V245H817l44 49 54-49V224H636V132H817l44 49 54-49V111H636V18 13l1-3 1-2V6l1-1 3-1 3-1 5-1 7-1H929l29 112h11L958 1l18-12 12-18-12-18-18-12H657zM344 57V73h43l6 1 6 1 2 1h2l1 1 1 1 1 2 1 3 1 5v7V315H321V-45L257-77V315H169V41L104 9V369l65-32h88V455l64-11 16-11-16-9V337h87l32 26 60-48-27-21V95l-1-14-2-13-5-13-6-13-9-10-11-9-12-7-13-4-13-2-14-1V41L344 57zm33 630v1l2 4 3 8 57-30 12-16-21-4-27-51-33-55-12-20-17-24H465l32 27 59-49-27-16-18-7-18-24-27-33-11-12-9-13-8 4 6 15 3 15 7 28 6 25 3 11 1 7H112l1-9 1-20V431l-2-17-2-16-4-15-5-14-9-13-22-9-24 9-8 24 9 22 4 2 6 4 5 8 6 10 5 12 6 16 5 17 9 42 2 25h9l3-25 2-13H325l4 12 6 23 6 21 29 1e2 4 19 3 12zM183 546l-3 17-4 18-13 47-5 15-10 28-7 13 7 7 24-21 12-11 10-14 21-29 9-17 17-36 7-19-3-25-20-15-24 3-15 20-3 19zM69 702v22H257V874l64-11 16-10-16-10V724h69l54 53 64-53V702H69z"/><glyph glyph-name="&#14436;" unicode="&#14436;" horiz-adv-x="1024" vert-adv-y="826" d="M932-34 886 3 842 47 801 99l-20 28-37 64-3 7V-41L677-73V177l-20-25-27-32-29-30-31-28-34-27L501 9 463-15 423-36 381-56l-5 9L446 9l63 57 29 29 51 60 42 63 4 6H430v21H677v95H481v22H677v95H461v21H632l-22 5-14 21-1 22-1 12-3 13-3 12-4 13-5 13-5 14-7 14-8 13 7 6 12-11 24-20 21-23 17-25 14-27 6-14-6-24-19-14H754l5 11 29 88 5 15 11 37v1l2 4 3 7 56-33 10-16-23-3-55-77-25-30-3-4h80l53 54 65-54V457H741V362H843l44 48 54-48V340H741V245H869l54 54 64-54V224H745l90-96 46-41 22-19 22-15 22-14 46-27-61-46zM264 170v16h43l7 1 4 1 5 1 1 1 1 1 1 2 1 3 1 5V648H260V-45L196-77V648H128V148L64 116V702l64-32h68V869l64-11 17-11-17-9V670h68l32 27 60-49-27-21V208l-1-14-2-13-5-13-6-13-9-10-11-9-12-7-13-4-13-2-14-2v33l-43 16zM430 642v21H609V860l65-11 16-11-16-10V663h64V860l65-11 16-11-16-10V663h66l54 54 64-54V642H430zm87 70-2 13-3 13-4 14-11 28-7 13-17 30-12 14 7 6 15-10 15-10 15-11 12-12 24-26 9-14 9-15 8-16 6-16-4-24-20-15-24 4-15 20-1 14zM882 832h-1l6 11 55-34 9-17-22-2-25-35-21-26-36-39-10-13-9 5 8 16 10 33 28 76 8 25z"/><glyph glyph-name="&#14437;" unicode="&#14437;" horiz-adv-x="1024" vert-adv-y="826" d="M814-1l32 134h11L846-1l20-13 13-19-13-20-20-13H606l-14 1-13 3-13 4-12 7-11 9-9 10-6 13-5 13-2 13-1 13V191l65-10 16-11-16-10V20 14l1-5 1-3 1-2V3l1-1h3l3-1 5-2h6H814zM387-38 365-26 359-2l12 21 9 6 9 8 9 10 9 12 8 16 7 18 6 20 6 23 5 26 3 27h10l4-28 2-27 1-25-1-24-3-22-4-21-7-20-9-18-11-17-14-15-23-6zM925 31l-3 16-5 16-13 32-17 32-11 16-11 17-14 15 6 7 36-22 17-13 15-14 14-15 13-16 12-17 10-18 8-19 8-20-4-24-20-14-24 4-15 20-2 17zM701 97l-5 13-6 13-5 12-7 13-8 12-18 23-9 12-12 10 5 8 14-7 16-5 14-8 14-9 13-9 13-11 23-24 11-14 10-15V87L748 68H723L705 84l-4 13zM242 169v14h43l5 1h4l3 2v1l2 1 1 3 1 4 1 6v7V648H233V-48L179-75V648H110V147L51 118V699l59-29h69V869l54-11 13-11-13-9V670h69l30 27 56-49-27-18V208 195l-2-13-4-12-5-11-8-11-9-9-11-7-12-4-13-3-12-1v30l-43 15zM843 451l59-48-27-22V351h26l33 37 43-37V329H875V243l-65-32v32H480v21H810v65H393v22H810v52H476v21H810l33 27zM440 485v21H644v92H520v21H739l54 54 64-54V598H708V506H846l44 49 54-49V485H440zM886 867v-6l65-55 3-16-26 15-38-3-67-2-37-2-79-6-132-10-38-3-11-4-9-29-18-50-11-25-24-49-13-24-15-23-17-23-9 4 14 54 15 51 12 50 10 49 10 58 53-20 47 12 88 20 83 15 38 7 72 10 34 5zM657 665l-3 10-3 10-5 11-14 23-18 25-11 13-13 12 6 8 15-9 17-7 15-8 14-9 24-20 21-22 9-12 7-13-1-24-18-16-24 1-17 18-1 9zm208-7-6 12-14 22-19 23-37 33-14 12-16 10 4 8 18-5 19-5 17-6 17-7 16-7 30-19 14-10 24-24 5-25-13-20-24-5-21 13z"/><glyph glyph-name="&#14438;" unicode="&#14438;" horiz-adv-x="1024" vert-adv-y="826" d="M623 80l41-50 2-19-20 7L619 1 594-12 568-25 540-36 511-47l-31-9-32-9-34-6-36-5-3 9 93 44L521 5l46 29 39 30 13 12h-1l5 4zM906-46l-9 11-10 11-12 12-32 25-65 41-26 14 4 9 56-14 25-8 23-8 22-9 19-10 19-10L936 7 950-5l14-13 5-24-13-21-24-5-21 12-5 10zM485 728l1-9 1-21-1-19-3-18-4-18-6-16-7-16-10-14-24-8-22 9-9 23 10 23 7 4 7 7 7 9 7 11 6 14 6 15 6 18 4 20 5 21 2 25h10l3-25 2-13H666V880l65-11 16-11-16-10V750H915l5 5v2l2-1 25 21 59-49-27-16-64-27v2l-12-7-8-7 18-15V637H720V516l63 39 43 29 40 32 40-52 1-19-19 7-28-18-46-28-48-26-50-24-51-21-52-19-22-7H852l33 27 59-48-27-22V102L852 69v33H550V85L486 53V382l-39-7-58-8-2 9 109 37 52 20 99 44 8 4V637H507v21H795l54 54 39-33 7 8 10 22 8 18v1H485zM852 194H550V123H852v71zM242 169v14h43l5 1h4l3 2v1l2 1 1 3 1 4 1 6v7V648H233V-48L179-75V648H110V147L51 118V699l59-29h69V869l54-11 13-11-13-9V670h69l30 27 56-49-27-18V208 195l-2-13-4-12-5-11-8-11-9-9-11-7-12-4-13-3-12-1v30l-43 15zM852 291H550V215H852v76zm0 97H550V312H852v76zM577 618l46-45 5-19-21 4-35-28-41-28-23-15-50-28-56-27-6 8 107 97 33 33 35 42 6 6z"/><glyph glyph-name="&#14439;" unicode="&#14439;" horiz-adv-x="1024" vert-adv-y="826" d="M456 533H618l3 3h1l28 24 59-49-27-16-13-5-11-22-49-74-26-34-13-15H699l44 48 54-48V323H568v20l-12-15-30-30-5-4 59-30H786l32 27 59-49-27-21V135l-54-27 21-9 12-15-22-6-14-29-10-15L763 5 751-9 738-21 726-32H836l54 54 64-54V-53H411v21H709l4 8L726 8l11 30 5 16 7 30 5 27h-1l4 14 29-13v23H580l-12-6 7-7 11-9 20-19 9-12 17-24 7-14 14-28-3-25-19-15-24 3L591-2l-2 14-4 27-3 13-6 25-8 25-4 13-6 9-42-21V289l-21-19-32-25-34-23-35-19-6 7 56 57 52 59 24 31 11 16H509l-17 16-2 9-4 18-3 9-3 10-8 19-8 20-7 8 6 7 9-7 10-5 10-6 10-7 9-7 17-15 15-17 7-9V402l35 58 18 37 7 14H456v22zM232 169v14h43l6 1h4l3 2 1 1 2 4 1 4 1 6v7V648H227V-48L173-75V648H107V147L48 118V699l59-29h66V869l54-11 14-11-14-9V670h66l30 27 56-49-27-18V208 195l-2-13-4-12-5-11-8-11-9-9-11-7-12-4-13-3-13-1v30l-43 15zm554 73H580V156H786v86zm23 297h-1l5 12 56-33 10-17-25-3-18-21-19-17-21-15-1-1 13-14 23-22 13-11 24 43 11 25 8 22h-1l6 10 54-35 10-16-23-2-7-8-22-23-11-10-12-10-12-9-6-3 18-13 27-16 28-14 62-26-61-51-33 17-30 20-29 23-26 25-24 27-22 29-20 32-18 34-14 36-12 38 9 4 45-62 19-25 4 10 4 11 8 21 6 21 5 17zM575 742l62-22 14-14-21-7-2-7-13-26-17-23-20-21-24-18-26-16-29-14-33-11-36-8-38-5-2 9 66 31 26 16 24 16 20 17 16 17 12 19 10 18 6 19 5 30zM918 635l22 86-10-11-31-27-12-10-11-12-8 6 8 14 11 27 6 12 8 24 3 10 1 1H782V653v-5l1-3 1-2 1-2 1-1 2-1 3-1 5-1 7-2H918zm-516 1-21 13-5 24 13 21 5 1 6 3 6 6 6 8 6 10 6 13 6 15 5 17 4 20 2 20 10 1 1-22 2-10H649V880l65-11 16-10-16-10V776H908l4 3v2l1-1 27 23 60-48-27-16-16-7-10-97 18-11 12-18-12-18-18-12H803l-14 1-13 2-12 4-12 6-11 9-9 10-7 12-4 13-3 13-1 14v95H457l1-8V728l-1-16-2-16-4-16-6-14-8-13-11-12-24-5z"/><glyph glyph-name="&#14440;" unicode="&#14440;" horiz-adv-x="1024" vert-adv-y="826" d="M229 166V-48L175-75V648H123V147L64 118V699l59-29h52V869l54-11 14-11-14-9V670h53l29 27 57-49-27-18V208l-1-13-2-13-3-12-6-11-7-11-10-9-11-7-12-4-12-3-13-1v30l-35 12zM902-34 864 3 835 54l-18 51-27-35-33-39L721-5 682-37 642-65l-6 8 32 35 32 37 29 38 29 41 13 22-77-38L534 10 398-44l-5-20-16 12L346 5 480 46V170H368v21H480V294H368v21H480v91H368v22H480V530H365v22H764l-1 134 2 162v13l64-14 16-12-16-9-2-140 2-134h47l44 48 54-48V530H829l6-115 9-110 5-35 24 64 21 64 58-28 12-15-19-5-15-38-24-54-26-52-15-27 9-42 20-57 21-39 10-10 27 117h11L953 15 976 3l9-24-12-21-24-8-47 16zM595 530H539V64l56 16V530zm170 0H654V428h38l33 38 43-38V406H654V315h38l33 38 43-38V294H654V197h38l33 37 43-37V175H654V97l73 19 44 10 2-7 28 49-7 33-14 97-10 113-5 119zM702 837l-18-11-1-12-5-33-6-31-9-31-1-2 18-11 14-9 13-12 11-12 11-14 9-14 8-16 7-16-4-25-20-14-24 4-15 20-1 13-2 13-4 13-4 12-11 25-8 12-6 9-14-33-15-27-17-25-19-23-22-22-8 6 24 53 10 26 9 27 7 27 6 28 3 28 3 28 1 30-1 24v18l65-13 16-10zM518 630l-3 11-7 23-9 26-6 13-5-12-14-27-17-25-18-23-22-21-23-20-7 7 15 25 25 50 10 25 8 26 7 26 6 28 3 28 2 28v25h-1l1 18 64-14 16-11-18-10-2-13-5-32-8-32-7-20 13-10 21-21 19-21 8-11 16-22-1-25-17-17H538l-18 17-2 11zm367 23-2 14-2 15-3 14-9 30-13 30-9 16-10 15 7 6 14-12 15-11 14-13 12-13 11-14 11-16 16-31 7-17 5-18-6-24-21-13-23 6-13 21-1 15zm-603-5H229V183h35l6 1h3l2 1 2 1v1l1 1 1 3 1 4 1 6 1 7V648z"/><glyph glyph-name="&#14441;" unicode="&#14441;" horiz-adv-x="1024" vert-adv-y="826" d="M706 19V35h75l6 1 5 1 5 2 2 2 2 5 1 5v6V218H544V-51L480-83V218H232V-8L168-40V272l64-32H480v91l64-11 16-10-16-10V240H802l33 27 59-49-27-21V57l-1-13-2-14-5-13-7-12-8-11-11-9-12-7-13-4-14-2-13-1V3L706 19zM926 544l-1 10-2 10-3 11-3 7-38-13-26-7-9-2V330l-64-32V546l-35-7-28-5-33-5-11-19-12 15-16 64h11l76 3L888 772l14 17 2 2 45-46 5-19-21 5-105-90-50-39-13-9 83 4h27 27 8l-7 12-17 25-12 11 5 7 15-8 15-7 26-17 12-10 11-11 9-11 9-13 7-13 6-14-4-24-21-14-24 4-14 20v10zM311 555l-3 10-1 4-29-11-26-7-7-2V330l-65-32V534l-36-8-56-9-6-1-10-19-12 15-17 64 11 1 74 3L264 748l32 42 6 7 47-44 5-19-20 3-70-70-70-61-32-25 57 3 54 3h27l-4 9-6 10-6 11-17 22-11 9 5 8 13-7 14-5 13-6 13-8 11-8 12-9 10-10 18-23 8-12-1-25-18-17-24 1-17 18-2 10zM98 511l61-21 15-13-21-9-6-14-8-17-20-34-12-15-27-30-16-14-16-14-7 6 11 18 17 35 7 17 6 17 5 16 4 15 2 16 2 15 1 10 2 16zm581 2 63-18 15-13-21-10-5-12-7-18-8-16-9-16-10-16-24-31-29-30-7 6 9 17 7 19 12 34 4 17 4 16 2 15 2 16 1 14v9h-1l1 4v2l1 11zM389 555l65-32H559l32 26 59-48-27-21V392l-64-32v32H454V376l-65-32V555zM917 398v11l-2 11-2 11-3 11-10 24-6 12-8 13-10 12 6 7 13-9 14-9 12-8 12-10 10-11 10-11 8-13 8-13 6-13 6-15-6-24-21-13-24 6-13 21v10zM308 410l-2 11-6 22-10 23-6 10-14 23-11 10 6 8 13-8 13-6 25-15 21-20 10-12 9-11 8-13 7-14-3-24-18-17-25 3-16 19-1 11zm251 91H454V413H559v88zm1 142 54-48V573H399v22H516l44 48zM194 860v1l6 7 49-41 7-18-23 1-44-39-40-31-14-9 6-3 12-8 11-9 10-9 10-11 2-25-15-19-24-2-20 15-2 8-4 8-5 9-6 10-7 9-8 10-21 20-12 10-14 8 3 9 16-5 17-4 15-5 15-5 8-4 36 60 9 13 23 41 4 8zM560 718l54-49V648H399v21H516l44 49zM8e2 858l-1 1 5 7 49-43 6-19-24 4-26-19-41-27-32-18-4-3 22-12 24-17 11-9 6-23-11-23-24-6-22 12-10 19-6 9-16 19-19 18-23 20-14 7 4 9 15-4 16-3 15-4 14-5 5-2 8 8 41 55 24 34 5 11 3 4zM594 798l53-48V728H384v22H550l44 48zm-34 75 54-48V803H399v22H516l44 48z"/><glyph glyph-name="&#14442;" unicode="&#14442;" horiz-adv-x="1024" vert-adv-y="826" d="M213 165V-48L159-75V648H116V147L57 118V699l59-29h43V869l54-11 14-11-14-9V670h49l24 27 51-49-27-13V196l-1-11-2-11-4-10-4-9-7-9-8-7-10-5-10-3-11-1v24l-40 11zM359 677l43-22H906l32 27 59-48-27-22V540l-64-32v32H738V256l-43-22V540H654V258l-48-25V540H402V444l-2-64-5-62-7-59-8-56-12-54-14-50-16-47L320 8 299-33 274-71l-5 3 17 41 16 42 14 44 12 47 10 50 8 52 7 55 4 57 2 61V677zM876-62 825-51 778-37 735-19 695 2 673 17 631-4 581-24 529-41 473-54l-59-8-62-5-1 9 59 16 56 16L517-7l49 20 45 24 21 13-30 34-21 34-8 19-44-37-25-17-27-16-28-14-31-12-31-10-5 9 75 56 43 39 18 19 33 42 14 21 15 28 52-39 8-17H619l-4-6-3-4H776l7 9 2-2 24 20 59-48-27-17-22-9-19-21-37-34-41-30-2-1 35-14 40-12 43-9 47-6L994-4 930-70l-54 8zM759 158H594l-10-10 15-17 26-26 29-22 14-9 22 16 34 30 31 33 4 5zM393 281l11 2h15l11 1V456l43-11 11-11-11-8V287l17 2h2V531l48-11 13-11-13-9V421l23 30 32-32V397H540V293l14 2 25 1 24 3 3-9-24-9-43-19-40-15-36-13-26-8-10-21-13 14-21 62zm542 10 26 92h11l-11-92 17-10 10-17-10-16-17-10H857l-13 1-13 2-11 5-12 6-9 8-8 10-6 11-4 12-1 12-1 13V511l49-24h62l30 27 56-48-26-19V365l-60-30v30H828V318v-7l1-6 2-4 4-5 2-1 3-1 4-2h6l7-1h78zM890 466H828V387h62v79zm16 168H402V562H906v72zm13 70-5 8-7 9-9 9-22 20-13 11-31 24-18 10 2 6-48-4-47-2-48-3-73-2 12-5 13-3 24-7 11-5 10-5 9-5 9-7 8-7 7-8 1-25-17-18-24-1-18 17v4 5l-2 6-3 7-4 7-12 16-17 19-12 6 5 9-25-1H524l-50 1 2-1 9-18H462l-10-11-28-26-15-11-16-11-18-10-57-25-4 9 16 12 40 42 21 27 9 13 7 13 7 13 3 9 5 10 28-18 72 11 147 20 140 20 84 14 4 1 1-6 62-51 3-16-25 13-32-4-45-5-35-3 12-4 20-5 36-11 30-13 14-7 24-15 10-8 7-24-11-22-24-7-21 12-4 7zM262 648H213V178h40 2 1v1h1l1 1 1 3 1 4 1 5 1 7V648z"/><glyph glyph-name="&#24063;" unicode="&#24063;" horiz-adv-x="1024" vert-adv-y="826" d="M7e2 89v16h65l6 1 5 1 5 2 2 2 2 5 1 4v7V466H544V-45L480-77V466H238V68L173 35V519l65-32H480V659H50v22H480V869l64-11 16-11-16-9V681H856l54 53 64-53V659H544V487H786l32 27 60-48-27-22V127l-1-14-3-13-4-13-7-12-8-11-11-9-13-7-12-4-14-2-13-1V73L7e2 89z"/><glyph glyph-name="&#24065;" unicode="&#24065;" horiz-adv-x="1024" vert-adv-y="826" d="M706 121v17h64 6l5 1 5 2 2 2 2 5 1 5 1 6V509H544V-45L480-77V509H232V105L168 73V562l64-32H480V717l-55-5-74-5-76-3-77-2-78 1-1 9 302 41 143 22 137 26 132 29 1-7 58-47 1-16-23 11-91-16-68-11-69-10-71-8-27-3V530H792l32 27 59-48-27-22V159l-1-13-2-14-4-13-7-12-9-11-11-8-12-7-13-5-14-2-13-1v32l-64 16z"/><glyph glyph-name="&#24068;" unicode="&#24068;" horiz-adv-x="1024" vert-adv-y="826" d="M597-18V-2h97 7l5 1 3 2h2l1 1 1 1 1 2 1 3v5l1 6V724H437v21H854l54 54 65-54V724H780V19 6L777-8l-4-12-7-13-9-11-11-8-11-7-13-4-14-3-14-1v33L597-18zM277 177v17h43 7l4 1 4 1 1 1 2 2 2 5 1 5 1 6V641H273V-31L208-63V641H140V156L75 124V695l65-33h68V855l65-10 16-11-16-10V662h69l32 27 59-48-27-22V215l-1-13-2-14-4-13-7-12-9-11-11-9-12-6-13-5-13-2-14-1v32l-43 16z"/><glyph glyph-name="&#24069;" unicode="&#24069;" horiz-adv-x="1024" vert-adv-y="826" d="M276 842l65-11 16-11-16-9V353l-5-55-9-51-16-49-20-46-26-42-31-40-35-35L158 3 111-25 61-49l-5 8L1e2-8l39 33 34 35 29 36 25 38 19 40 14 41 10 44 5 46 1 48V842zM792 127v16h53l7 1 5 1 4 1 3 2 1 5 1 5 1 7V621H722V-45L657-77V621H512V116L447 84V675l65-32H657V842l65-11 16-11-16-9V643H867l32 27 59-49-27-21V165l-1-14-2-13-4-13-7-13-9-10-11-9-12-7-13-4-13-2-14-2v33l-53 16zM89 740l64-11 17-11-17-9V283L89 251V740z"/><glyph glyph-name="&#24071;" unicode="&#24071;" horiz-adv-x="1024" vert-adv-y="826" d="M706 30V46h64l6 1 5 1 5 1 2 3 2 4 1 5 1 7V310H544V-45L480-77V310H243V3L179-29V363l64-32H480V466H189v21H480V6e2H60v21H480V734H189v22H480V869l64-11 16-11-16-9V756H770l32 27 59-49-26-21V621h21l54 54 64-54V6e2H835V444l-65-32v54H544V331H792l32 27 59-48-27-22V68l-1-14-2-13-4-13-7-12-9-11-11-9-12-7-13-4-14-2-13-1V14L706 30zm64 570H544V487H770V6e2zm0 134H544V621H770V734z"/><glyph glyph-name="&#24072;" unicode="&#24072;" horiz-adv-x="1024" vert-adv-y="826" d="M256 842l65-11 16-11-16-9V353l-5-55-9-51-15-49-20-45-25-43-30-39-35-36L142 3 98-25 48-49l-5 8L86-8l38 33 33 35 28 36 23 38 19 39 14 42 9 44 6 45v49V842zM787 111v16h54 6l5 1 5 2 2 2 2 5 1 5 1 6V541H708V-40L644-72V541H489V95L425 62V595l64-33H644V740H380v21H865l54 54 64-54V740H708V562H863l32 27 59-48-27-22V148l-1-13-2-14-4-12-7-13-9-11-11-8-12-7-13-4-14-3-13-1V95l-54 16zM74 740l65-11 16-11-16-9V283L74 251V740z"/><glyph glyph-name="&#24073;" unicode="&#24073;" horiz-adv-x="1024" vert-adv-y="826" d="M824-9l-8-10-9-10-10-9-11-7-12-6-12-4-13-4-13-1-13-1v32L615-13V3H723l7 1 7 1 6 1 6 2 4 3 5 3 4 4 4 4 5 5 3 7 7 13 6 19 5 23 5 29 3 33 3 38 2 42 1 47-1 50v4l-2-1v43H655l-4-58-10-64-16-60-22-55-27-49-33-45L504 4 461-29 412-56 358-76l-4 9 48 29L444-6l36 36 31 38 26 42 20 46 16 51 11 55 6 59 1 53H470v22H803l33 27 59-49-26-15 1-29V277l-1-47-2-45-2-40-5-35-4-33-7-28-8-25L831 2 824-9zM250 170V-45L185-77V648H121V148L56 116V702l65-32h64V869l65-11 16-11-16-9V670h64l32 27 60-49-27-21V208l-1-14-3-13-4-13-7-13-8-10-11-9-13-7-12-4-14-2-13-2v33l-43 16zM553 735l61-23 14-14-20-6-6-22-13-39-16-38-18-36-20-34-22-32-24-30-26-27-28-25-31-22-7 7 44 59 20 30 18 30 16 33 15 32 13 35 11 36 9 38 8 38 2 10zM898 450l-27 30-24 32-21 34-18 36-16 37-12 40-10 41-6 43-1 40H588v21H741l26 22 59-48-26-16-16-8 17-45 15-37 17-34 19-33 20-29 22-28 24-25 26-24 42-33-58-44-30 28zM767 789v-1 1zM250 186h43l6 1 5 1 5 1 2 2 2 5 1 5v7V648H250V186z"/><glyph glyph-name="&#24074;" unicode="&#24074;" horiz-adv-x="1024" vert-adv-y="826" d="M921 62l32 135h11L953 62l19-13 13-19-13-19L953-2H573L559-1 545 1 532 5l-12 7-11 9-8 11-7 12-5 13-2 13V84 815l64-32H871l32 27 60-49-27-21V406l-65-32v65H551V77l1-4 1-4 1-1 1-1 1-1 5-2 5-1 7-1H921zM272 177v17h43 6l5 1 3 1 2 1 2 2 2 5 1 5v6V641H267V-31L203-63V641H135V156L70 124V695l65-33h68V855l64-10 17-11-17-10V662h69l32 27 60-48-27-22V215l-1-13-3-14-4-13-7-12-8-11-11-9-13-6-12-5-14-2-13-1v32l-43 16zM679 761H551V460H679V761zm192 0H743V460H871V761z"/><glyph glyph-name="&#24077;" unicode="&#24077;" horiz-adv-x="1024" vert-adv-y="826" d="M210 395l-3-64-7-61-10-57-13-54-16-50-18-48-22-43L96-21 68-56 37-86l-7 7L52-44 71-6 89 34l15 42 13 45 11 49 8 52 6 55 3 58 1 61V810l65-33v-2l252 31 133 18 129 21 126 23 1-7 59-49 2-15-24 12-28-5-128-16-65-7-67-6-67-6-68-3-69-4-70-2H256l-45 2V664H845l33 27 59-48-27-22V449l-65-32v54H211V396l-1-1zM740 52V68h71l5 1 3 1 2 1 1 1 1 1 1 4 1 5 1 7V334H622V-49L558-82V334H353V39L289 7V388l64-33H558v97l64-11 16-11-16-10V355H826l32 27 59-48-27-22V89l-1-14-2-13-4-13-7-12-9-11-10-9-13-6-13-5-13-2-14-1V35L740 52zM845 643H211V492H845V643z"/><glyph glyph-name="&#24078;" unicode="&#24078;" horiz-adv-x="1024" vert-adv-y="826" d="M921 25l32 134h11L953 25l19-13L985-8 972-27 953-40H775l-14 1-13 2-13 5-12 7-11 8-9 11-7 12-4 13-2 14-1 13V428l-1-14-20-95-28-86-34-77-42-67-49-57-57-48-63-36-70-24-3 9 63 34L440 8l49 47 41 57 35 64 29 73 21 83 15 91 9 1e2 2 109v1H507l1-15 1-26V568l-2-22-3-19-4-18-6-17-8-16-22-11-24 7-11 22 7 23 6 5 5 8 7 12 6 15 6 18 6 21 5 24 9 56 3 32h10l7-54H641V869l65-11 16-11-16-9V654H883l32 27 59-48-27-16-13-6-32-55-19-31-11-16-11-17-8 4 6 19 3 19 14 66 3 15 3 18H706v-1l-6-113-6-49 60-10 16-11-16-9V40l1-5 2-5 2-2 5-2 4-1h7H921zM266 170v16h43l6 1 5 1 3 1h2l1 1 1 1 1 2 1 3 1 5v7V648H256V-45L192-77V648H117V148L53 116V702l64-32h75V869l64-11 16-11-16-9V670h74l33 27 59-49-27-21V208l-1-14-2-13-5-13-6-13-9-10-11-9-12-7-13-4-13-2-14-2v33l-43 16z"/><glyph glyph-name="&#24079;" unicode="&#24079;" horiz-adv-x="1024" vert-adv-y="826" d="M938 74l-7-12-7-11-9-10-11-8-11-7-13-6-12-3-14-2-13-1V46L787 62V78h54l7 1 6 1 5 2 4 1 4 2 3 3 3 3 3 5 3 5 3 7 3 9 2 12 3 16 2 18 3 47 2 28 1 63v25H721V-40L656-72V326H430v21H656V503H471v22H656V681H445v21H656V874l65-11 16-10-16-10V702H854l54 54 64-54V681H721V525H823l53 53 65-53V503H721V347H899l32 27 59-48-27-16v-1l-1-43-1-31-1-29-2-25-2-24-2-21-3-19-4-16-4-14-5-13zM273 170v16h43l6 1 5 1 5 1 2 2 2 5 1 5v7V648H260V-45L196-77V648H120V148L55 116V702l65-32h76V869l64-11 17-11-17-9V670h77l33 27 59-49-27-21V208l-1-14-2-13-5-13-7-13-8-10-11-9-12-7-13-4-14-2-13-2v33l-43 16z"/><glyph glyph-name="&#24080;" unicode="&#24080;" horiz-adv-x="1024" vert-adv-y="826" d="M887-5 853 29 821 66l-29 39-28 42-25 44-22 47-19 50-17 52-11 50H589V59l98 67 40 26 6-7-28-38-46-53L610 4 577-27l-1 1-30-30L492-2l32 32V390H425v22h99V831l65-11 16-10-16-10V495L732 664l52 68 50 70 49-43 6-18-19 2-41-48-91-95-67-63-35-31-47-38V412H831l54 54 65-54V390H682l45-89 25-45 26-42 28-39 29-36 30-34 32-30 34-28L982 9 923-36 887-5zM279 170v16h43l6 1 6 1 2 1h2l1 1 1 1 1 2 1 3 1 5v7V648H268V-45L204-77V648H129V148L64 116V702l65-32h75V869l64-11 17-11-17-9V670h75l32 27 60-49-27-21V208l-1-14-3-13-4-13-6-13-9-10-11-9-12-7-13-4-13-2-14-2v33l-43 16z"/><glyph glyph-name="&#24083;" unicode="&#24083;" horiz-adv-x="1024" vert-adv-y="826" d="M896 62 867 96l-28 36-25 38-24 41-22 42-20 44-18 47-3 8V-45L663-77V319l-36-69-31-49-33-46-36-41-38-38-41-34-43-29-46-24-5 8 39 33 36 34 35 37 32 39 30 42 28 45 25 48 23 51 21 55 12 36H454v22H663V648H444v22H663V869l64-11 16-11-16-9V670H860l54 54 65-54V648H727V439H828l53 53 65-53V417H727l55-103 50-77 27-35 27-33 29-30 29-29 42-36-58-43-32 31zM261 170v16h43l7 1 5 1 5 1 2 2 1 5 1 5 1 7V648H253V-45L189-77V648H116V148L52 116V702l64-32h73V869l64-11 17-11-17-9V670h73l32 27 59-49-26-21V208l-2-14-2-13-4-13-7-13-9-10-10-9-13-7-13-4-13-2-14-2v33l-43 16z"/><glyph glyph-name="&#24087;" unicode="&#24087;" horiz-adv-x="1024" vert-adv-y="826" d="M875-30 823 12 776 61l-40 55-2 3-9-13-43-46-46-41-49-36-52-30-55-24-5 9 49 32L570 6l43 39 39 43 37 46 20 30-8 13-27 67-22 73-15 78-9 83v47l-8-75-16-90-21-83-27-76-33-69-38-62-44-55-50-47-55-38-6 8 47 45 42 50 37 56 31 61 26 67 22 73 16 80 12 86 5 93 1 13H443v22H569l1 64V858l64-11 16-10-16-10V648l-3-64H861l54 54 65-54V562H638l13-81 17-80 21-74 26-66 24-47 14 27 28 59 25 64 25 77 58-28 13-15-20-4-19-52-30-66-32-61-32-50 12-18 39-46 44-41 49-34 82-43-61-49-59 36zM273 170v16h43l6 1 5 1 5 1 2 2 2 5 1 5v7V648H260V-45L196-77V648H120V148L55 116V702l65-32h76V869l64-11 17-11-17-9V670h77l33 27 59-49-27-21V208l-1-14-2-13-5-13-7-13-8-10-11-9-12-7-13-4-14-2-13-2v33l-43 16zM820 683l-5 14-12 28-8 14-9 14-21 29-26 29-16 14 5 8 38-19 19-10 16-11 16-12 14-13 14-13 12-15 11-15 11-16V684l-17-18H837l-17 17z"/><glyph glyph-name="&#24092;" unicode="&#24092;" horiz-adv-x="1024" vert-adv-y="826" d="M574 246l6 10 53-36 9-18H621l-29-42-48-59-57-60-31-30-34-29-36-29-38-28-6 7L457 68l47 64 40 60 17 30 13 24zM917-4l-9 21-11 23-14 24-16 25-39 53-75 91 7 7 34-24 31-25 29-24 49-50 21-24 35-48 14-24L985-3l-2-24-18-17-25 2-16 17-7 21zM256 170v16h43l6 1 5 1 5 1 2 2 1 5 2 5v7V648H251V-45L187-77V648H118V148L54 116V702l64-32h69V869l64-11 16-11-16-9V670h69l32 27 59-49-26-21V208l-1-14-3-13-4-13-7-13-9-10-10-9-13-7-13-4-13-2-13-2v33l-43 16zM469 826l65-33H855l32 27 59-48-26-22V320l-65-32v65H534V288l-65-32V826zm386-54H534V374H855V772z"/><glyph glyph-name="&#24094;" unicode="&#24094;" horiz-adv-x="1024" vert-adv-y="826" d="M919 853l64-54V777H733l-8-10L611 6e2H852l32 27 59-49-27-21V-8L852-40V25H536V-40L472-72V632l64-32h60l60 149 7 18 3 10H404v22H865l54 54zM852 304H536V46H852V304zM257 170v16h43l6 1 5 1 3 1h2l1 1 1 1 1 2 1 3 1 5v7V648H250V-45L186-77V648H115V148L50 116V702l65-32h71V869l64-11 16-11-16-9V670h71l32 27 60-49-27-21V208l-1-14-3-13-4-13-6-13-9-10-11-9-12-7-13-4-13-2-14-2v33l-43 16zM852 578H536V326H852V578z"/><glyph glyph-name="&#24096;" unicode="&#24096;" horiz-adv-x="1024" vert-adv-y="826" d="M713 40V56h75l6 1 6 1 2 1 2 1 2 1v1l1 1 1 4 1 5v6V279H544V-41L480-74V279H214V9L150-23V333l64-32H480V409l64-11 16-11-16-10V301H809l33 26 59-48-27-21V78l-1-13-2-14-5-13-6-12-9-11-11-9-12-7-13-4-13-2-14-1V24L713 40zM475 867l4-10 44-39 1-18-21 9-52-17-25-8-54-14-57-11-29-6-32-4V624H379l54 54 64-54V603H254V464H770V603H556v21H770V763H560v21H770l32 27 59-48-26-22V411l-65-33v65H254V378l-65-32V795l55-28 140 58 69 31 22 11z"/><glyph glyph-name="&#24097;" unicode="&#24097;" horiz-adv-x="1024" vert-adv-y="826" d="M621 283l-6-52-9-49-14-45-19-42-23-39-28-35-32-31-36-27-40-22-44-17-4 9 37 26 34 28 29 29 24 31 21 33 17 36 12 37 10 41 4 44 2 46v42H404v21H556V6e2H425v21H736l15 49 55 148 15 43 4 12 57-32 11-16-20-3-27-51-54-92-32-44-10-14h87l53 54 65-54V6e2H814V347h54l54 54 65-54V326H814V-40L750-72V326H621V283zM254 170v16h43l7 1 5 1 3 1h2l1 1 1 1 1 2 1 3v5l1 7V648H249V-45L184-77V648H114V148L50 116V702l64-32h70V869l65-11 16-11-16-9V670h70l32 27 59-49-26-21V208l-1-14-3-13-4-13-6-13-10-10-10-9-12-7-14-4-13-2-14-2v33l-43 16zM750 6e2H621V347H750V6e2zM562 678l-5 21-6 20-7 19-8 19-9 18-10 18-24 36-14 17 7 7 19-12 19-13 18-14 16-16 15-18 26-39 21-44 9-24-4-24-20-15-24 4-15 19-4 21z"/><glyph glyph-name="&#24098;" unicode="&#24098;" horiz-adv-x="1024" vert-adv-y="826" d="M489 320l65-32H834l32 27 59-48-26-22V-13L834-45V9H554V-29L489-61V320zm345-53H554V30H834V267zM261 170v16h43l7 1 5 1 5 1 2 2 1 5 1 5 1 7V648H253V-45L189-77V648H116V148L52 116V702l64-32h73V869l64-11 17-11-17-9V670h73l32 27 59-49-26-21V208l-2-14-2-13-4-13-7-13-9-10-10-9-13-7-13-4-13-2-14-2v33l-43 16zM816 514l65-54V439H508v21H763l53 54zm80-19-29 27-28 30-26 31-25 34-23 36-21 38-20 41-17 42-1 3-15-30-25-44-28-42-30-42-33-39-36-39-38-37-41-35-45-34-6 7 71 82 33 40 58 82 25 41 23 42 20 43 18 43 17 51 58-29 12-16-20-3-8-19 60-87 52-64 26-29 28-26 28-24 29-22 47-33-59-45-31 26z"/><glyph glyph-name="&#24099;" unicode="&#24099;" horiz-adv-x="1024" vert-adv-y="826" d="M882 311l-45 31-43 33-38 36-36 37-32 40-22 33H383l-13-17-54-56-58-51-44-31 42-21H474v92l65-11 16-10-16-10V345H758l32 26 59-48-27-21V89l-1-14-2-13-4-13-7-12-9-11-11-9-12-6-13-5-13-2-14-1V35L672 52V68h64 7l4 1 4 1 1 1 1 1 1 1 1 2 1 3 1 5 1 6V323H539V-46L474-78V323H256V40L191 8V350l-68-39-77-35-4 9 70 43 65 47 58 49 52 52 37 45H50v22H341l33 49 35 64 3 7H227v21H421l17 40 23 72 18 76 2 10 61-23 14-14-20-7-16-60-28-75-9-19H679l53 54 65-54V663H615l48-73 29-38 8-9H856l54 54 64-54V521H718l38-38 36-31 39-30 41-28 44-26 76-38-61-49-49 30zM602 663H472l-15-31-41-66-17-23H653l-17 31-20 45-14 44zM324 866l49-42 7-18-21 2-51-52-24-21-52-39-29-18-29-17-31-15-32-13-5 8 77 65 46 43 41 44 35 46 16 23 3 4zM836 689l-13 18-15 19-32 36-38 35-44 35-23 18 3 9 29-10 28-10 26-13 24-14 23-15 22-16 21-18 19-18 18-19 17-21 4-24-13-21-25-4-20 14-11 19z"/><glyph glyph-name="&#24100;" unicode="&#24100;" horiz-adv-x="1024" vert-adv-y="826" d="M706 24V40h75 6l5 1 3 1 2 1 2 2 2 5 1 5v6V253H544V-55L480-88V253H232V-6L168-39V307l64-32H480V379l64-11 16-10-16-10V275H802l33 27 59-49-27-21V61l-1-13-2-14-5-12-7-13-8-11-11-9-12-6-13-5-14-2-13-1V8L706 24zM440 419l-18 17-20 16-22 15-13 7-50-37-56-32-62-26-68-21-75-16-3 9 71 26 64 28 56 32 49 33 30 26-21 10-31 12-32 11-9 3-16-48-71-10 82 249H66v22H232l41 126 58-30 12-16-19-4-25-76H442l32 26 60-48-27-16-7-3-7-35-21-56-28-51-36-46-5-5 27-14 26-15 24-16 22-19 9-23-10-23-22-9-23 10-16 17zM587 799l65-32H861l33 27 59-48-27-22V442l-65-32v64H652V410l-65-33V799zm274-53H652V496H861V746zM440 723H292L235 549h8l35-3 34-6 32-8 10-3 16 18 27 43 21 46 16 49 6 38z"/><glyph glyph-name="&#24102;" unicode="&#24102;" horiz-adv-x="1024" vert-adv-y="826" d="M673 52V68h65 6l5 1 5 2 2 2 2 5 1 5v6V320H544V-40L480-72V320H281V14L216-18V374l65-32H480V489H147V476l-2-23-4-21-6-21-8-19-12-17-14-16-16-13-25-2-19 15-3 24 15 20 11 4 10 6 10 9 9 11 9 13 8 16 7 19 6 22 5 24 3 26 10 1 3-28 1-15H894l3 2 2 5 2-1 25 21 59-49-27-16-26-11-21-20-56-45-17-12-16-14-7 7 13 17 47 77 10 17H544V342H759l33 27 59-49-27-21V89l-1-13-2-14-5-13-7-12-8-11-11-8-12-7-13-5-14-2-13-1V35L673 52zm49 811 64-10 16-11-16-10V718h65l53 54 65-54V697H786V578l-64-32V697H544V578l-64-32V697H302V578l-64-32V697H55v21H238V863l64-10 16-11-16-10V718H480V863l64-10 16-11-16-10V718H722V863z"/><glyph glyph-name="&#24103;" unicode="&#24103;" horiz-adv-x="1024" vert-adv-y="826" d="M660 491l64-10 16-11-16-10V344l-5-65-11-61-19-55-25-51-32-45-39-39L549-6 499-34 442-55 380-71l-2 10 57 24L485-9l43 32 37 34 30 38 25 42 18 45 13 49 7 54 2 59V491zM918-53 905-34 875 3 839 41 797 80l-74 62 5 9 32-13 29-14 54-32 48-33 42-35L952 5l17-18 6-24-12-22-24-6-21 12zM652 863l65-10 16-11-16-10V729H865l53 54 65-54V707H717V582H847l33 27 59-49-27-21V146l-65-32V560H536V134l-64-32V614l64-32H652V863zM266 170v16h43l6 1 5 1 3 1h2l1 1 1 1 1 2 1 3 1 5v7V648H256V-45L192-77V648H117V148L53 116V702l64-32h75V869l64-11 16-11-16-9V670h74l33 27 59-49-27-21V208l-1-14-2-13-5-13-6-13-9-10-11-9-12-7-13-4-13-2-14-2v33l-43 16z"/><glyph glyph-name="&#24104;" unicode="&#24104;" horiz-adv-x="1024" vert-adv-y="826" d="M603 298l63-19 14-13-19-8-6-31-16-49-19-45-25-42-29-38-33-35-37-31-42-27-45-23-50-19-3 9 43 28 39 29 35 30 31 32 26 35 22 36 19 39 14 41 10 44 6 41 2 16zM261 170v16h43l6 1 5 1 5 1 2 2 2 5 1 5v7V648H257V-45L192-77V648H124V148L59 116V702l65-32h68V869l65-11 16-11-16-9V670h68l33 27 59-49-27-21V516l78 1e2 34 51 31 52 23 47 5 11 55-35 9-17-20-1-23-36-39-50-22-25-19-21 59-30H829l32 27 60-48-27-22V283l-65-32v64H777V25l1-7 1-5V10l1-1 2-3 5-1 5-1 7-1H912l32 135h11L944 3l20-13 12-19-12-19-20-13H799l-14 1-13 2-13 4-13 7-10 9-9 11-7 12-4 13-2 13-1 14V315H561V251l-64-33V588l-47-43-28-21-28-19-4 4V208l-1-14-2-13-5-13-7-13-8-10-11-9-12-7-13-4-14-2-13-2v33l-43 16zM829 541H561V337H829V541zm101 19-48 42-21 22-18 23-15 23-14 25-10 25-8 26-4 25-1 22H568v22H769l27 22 59-48-27-16-9-5 19-31 14-19 16-19 17-17 18-16 21-17 22-15 43-28-59-46zM795 8e2v-1h1l-1 1z"/><glyph glyph-name="&#24105;" unicode="&#24105;" horiz-adv-x="1024" vert-adv-y="826" d="M749-29v16h75l6 1 5 1 5 1 2 2 2 5 1 5V9 170H566V-45L501-77V552l65-33H673V858l65-11 16-10-16-10V519H845l33 27 59-48-27-22V9L909-5l-2-13-5-13-7-13-8-10-11-9-12-7-13-4-14-2-13-1v32L749-29zM261 170v16h43l6 1 5 1 5 1 2 2 2 5 1 5v7V648H257V-45L192-77V648H124V148L59 116V702l65-32h68V869l65-11 16-11-16-9V670h68l33 27 59-49-27-21V208l-1-14-2-13-5-13-7-13-8-10-11-9-12-7-13-4-14-2-13-2v33l-43 16zM845 337H566V191H845V337zM566 498V358H845V498H566zm-8 3e2 57-32 10-17-20-3-21-39-35-55-40-54-45-51-25-24-26-22-7 5 69 115 31 56 26 57 12 28 11 28 3 8zM914 605l-8 19-23 38-28 37-52 57-21 20 6 8 26-12 24-13 23-15 42-33 18-18 17-19 16-20 14-20 13-22V588l-16-19H940l-18 16-8 20z"/><glyph glyph-name="&#24106;" unicode="&#24106;" horiz-adv-x="1024" vert-adv-y="826" d="M469 828l59-29H854l54 54 64-54V777H528V444H843l54 54 64-54V423H737l13-55 15-57 17-52 15-38 68 87 44 55 5 5 44-47 3-19-21 5-94-72-42-30 20-42 25-42 27-38 30-35 32-32 48-39-58-44-37 35L857 7 828 49 801 94l-22 48-19 51-15 54-11 57-7 60-1 59H654V54l68 23 30 9 31 8 4-9-54-34L652 5 536-56l-3-21-17 10-36 55L595 32V423H528V401l-3-64-5-60-9-57-11-54-15-50-17-46-20-43-23-38-26-34-29-30-7 6 21 35L402 2l17 39 14 42 12 44 9 48 8 52 5 55 2 58V828zM264 177v17h43 7l5 1 3 1 2 1 1 1v1l2 2 1 3 1 5V641H257V-31L193-63V641H121V156L56 124V695l65-33h72V855l64-10 16-11-16-10V662h72l32 27 59-48-27-22V215 202l-2-14-5-13-7-12-8-11-11-9-13-6-12-5-14-2-14-1v32l-43 16zM842 681l64-54V605H575v22H788l54 54z"/><glyph glyph-name="&#24108;" unicode="&#24108;" horiz-adv-x="1024" vert-adv-y="826" d="M711 25V41h71l5 1 3 1 2 1 1 1 1 1 1 5 1 4 1 7V198H544V-38L480-70V198H227V1L163-32V252l64-32H480v81l64-11 16-10-16-10V220H797l32 27 59-49-27-21V62l-1-14-2-13-4-13-7-12-9-11-10-9-13-6-13-5-13-2-14-1V9L711 25zm97 837 59-48-27-22V724h53l44 48 53-48V702H840V576l-65-32v43H388l-4-9-39-51-9-9 24-13H814l32 27 59-48-27-22V313l-64-32v43H360V308l-64-33V478l-48-38-59-37-66-31-72-27-3 9 67 36 59 38 53 40 45 43 38 45 20 31H163v22H343l22 46 16 47H55v22H386l8 42 4 48H173v21H775l33 27zm6-378H360V345H814V484zM775 702H441l-3-10-23-59-14-24H775v93zm0 112H462l-8-58-8-32H775v90z"/><glyph glyph-name="&#24113;" unicode="&#24113;" horiz-adv-x="1024" vert-adv-y="826" d="M654-24V-8H761l7 1 5 1 5 2 2 2 1 5 1 5 1 6V277H586l-13-31-43-79-48-72-54-65-59-57-7 7 51 63 45 68 41 73 37 79 5 14H437v22H549l18 48 27 91 1 6H425v22H6e2l15 68 7 39H485v22H625l7 42 7 65H449v22H641l3 21 6 110 1 17 64-15 16-12-18-9-8-97-2-15H840l54 53 65-53V702H7e2l-11-74-7-33H819l44 48 54-48V573H678l-10-50-15-57H865l53 53 65-53V444H647l-5-20-32-92-14-33H783V423l64-11 17-11-17-10V299h18l53 54 65-54V277H847V14L846 1l-2-14-4-13-7-12-9-11-10-9-13-7-13-4-13-2-14-1v32L654-24zM674 97l-3 13-6 14-7 13-8 14-22 29-27 29-17 14 4 8 41-18 18-10 18-12 15-11 15-14 13-14 12-15 10-16 9-17-2-24-19-17-24 3-16 18-4 13zM267 174v16h49l6 1 2 1 4 2v1l1 2 1 3 1 5v7V650H265V-40L2e2-72V650H133V153L68 120V704l65-33h67V869l65-10 16-11-16-10V671h66l33 27 59-48-27-22V212l-1-14-2-14-5-13-6-11-9-12-11-8-12-7-13-4-13-3H310v32l-43 16z"/><glyph glyph-name="&#24114;" unicode="&#24114;" horiz-adv-x="1024" vert-adv-y="826" d="M860 862l56-32 11-17-21-3-48-74-30-41-44-52h87l44 48 54-48V621H853V337h15l54 53 64-53V315H853V-51L788-83V315H677v22H788V621H706v22h62l69 156 14 39 6 17 3 7zM592 244l-7-48-11-45-14-43-18-40-21-37L496-2 467-32 435-59 4e2-81l-6 8 27 29 25 31 21 31 18 34 15 35 13 37 9 39 6 41 2 44v33l-73-37-4-20-16 10-35 55 9 5 119 43V621H408v22h91l60 138 16 41 13 38 3 7 56-32 11-16-20-3-23-38-41-61-32-43-27-31h61l54 54 64-54V621H595V360l53 20 67 21 5-10-60-37-58-34-7-4V294l-3-50zM245 170v16h43l7 1 5 1 3 1h2l1 1 1 1 1 2 1 3v5l1 7V648H243V-45L179-77V648H111V148L47 116V702l64-32h68V869l64-11 16-11-16-9V670h67l32 27 59-49-27-21V208 194l-3-13-4-13-7-13-8-10-11-9-12-7-13-4-14-2-14-2v33l-43 16z"/><glyph glyph-name="&#24116;" unicode="&#24116;" horiz-adv-x="1024" vert-adv-y="826" d="M888-45 829-22 776 8 729 45l-1 1-58-31-56-25-58-21-61-17-63-14-66-9-1 9L487-21 544 2l53 25 52 28 45 28-5 5-34 50-27 57-15 42-164-18-3 21 160 18-14 67-7 69-2 17 66-7 16-10-14-10 5-49 13-61 3-9 188 21 47 59 70-46 3-21-301-34 8-25 24-49 28-42 8-7 39 32 40 38 40 42 45-46 5-19-20 5-28-27-45-38-37-26 26-20 45-25 50-20 22-5 29 126h11L959 4l5-1 20-14 5-24-13-20-24-5-64 15zM273 177v17h43 7l8 2 2 1 1 1 1 1 1 2 1 3v5l1 6V641H263V-31L199-63V641H123V156L59 124V695l64-33h76V855l64-10 16-11-16-10V662h75l32 27 59-48-27-22V215 202l-3-14-4-13-7-12-8-11-12-9-11-6-13-5-14-2-14-1v32l-43 16zM758 341l-6 12-8 11-16 24-10 11-21 23-12 10 4 8 15-6 17-6 15-7 14-7 14-9 13-9 13-10 12-11 22-24 4-24-15-20-24-4-20 15-11 23zm127 51-58 29-52 34-44 38-25-12-49-20-50-19-52-16-55-13-57-11-2 9 104 43 49 21 91 46 14 9-11 12-34 52-26 58-4 11-175-19-3 20 171 20-10 30-15 69-8 73-1 12 66-7 16-10-14-10 5-48 13-62 13-40 178 20 47 59 70-46 3-21-290-33 21-45 29-44 14-17 49 36 35 28 29 27 5 4 42-49 3-19-19 6-22-16-39-28-42-26-3-2 22-19 45-29 51-25 20-7 28 123h11L959 435l8-3 19-15 3-25-16-18-24-4-64 22zM789 754l-11 23-15 22-9 11-31 33-13 9 5 8 15-6 15-4 16-6 14-7 14-8 13-9 13-9 24-23 11-12 3-24-14-20-25-4-20 14-5 12z"/><glyph glyph-name="&#24117;" unicode="&#24117;" horiz-adv-x="1024" vert-adv-y="826" d="M783 202V40l2-5 1-3 1-2V29l1-1 5-2 5-1h7H946l32 134h11L978 25l19-13 13-20-13-19-19-13H805l-14 1-13 2-13 5-13 7-10 8-9 11-6 12-5 13-2 14-1 13V468l-13-8-3-1-5-45-14-69-20-65-27-63-33-58-38-55-45-51L471 5 414-38 351-76l-5 8 55 46 50 48 44 50 37 52 33 54 27 56 3 9H573l-18 17-1 9-2 10-3 9-10 21-5 12-15 24-29-56-23-38-25-37-27-34-8 5 52 120 15 40 27 84 12 43 9 44 9 45 8 56 62-21 14-13-18-7-7-27-12-47-3-8h67l32 27 45-37v58l64-32h91l32 27 59-49-27-21V245l-1-13-2-14-4-13-7-12-9-11-11-8-12-7-13-5-13-2-14-1v32l-69 11zM268 176v15h43 6l4 1 3 2v1l1 1 2 2 1 4 1 6v7V641H260V-34L206-61V641H137V155L78 126V692l59-30h69V855l54-10 13-11-13-9V662h69l30 27 56-48-27-19V215 202l-2-12-4-13-5-11-8-11-9-8-11-7-12-5-13-2-13-1v29l-43 15zM641 476H569l-20-59-18-43-4-7 6-3 25-16 22-18 10-10 18-21 4-5 16 64 9 64 4 54zM453 535l-23 10-9 22 9 23 5 4 7 7 7 10 6 14 6 16 6 20 5 22 10 52 3 30h10l3-30 3-19H680V866l65-11 16-11-16-10V716H925l33 26 59-48-27-16-16-7-33-50-21-27-12-15-11-17-8 5 7 18 4 18 9 34 14 56v1H503V680l1-24-1-23-2-20-4-19-4-18-8-16-9-15-23-10zm421-43H783V224h69 7l5 1 4 2 3 2 1 2v3l1 5 1 6V492z"/><glyph glyph-name="&#24121;" unicode="&#24121;" horiz-adv-x="1024" vert-adv-y="826" d="M849-3 820 23 789 46 757 67 741 77l-8-9-46-42L635-9 575-36 510-57 438-70l-78-6-1 9 75 17 67 21L561-4l52 30 45 35 37 40-41 17-37 14-38 12-9 2-16-42-72-7 76 197H401v21H567l56 146 56-33 11-16-19-4-35-93H870l54 54 64-54V294H845l-16-62-25-61-31-55-1-1 46-24 36-22 34-25 34-27L932-6l-9-23-22-10-23 9L849-3zM250 170V-45L185-77V648H121V148L56 116V702l65-32h64V869l65-11 16-11-16-9V670h64l32 27 60-49-27-21V208l-1-14-3-13-4-13-7-13-8-10-11-9-13-7-12-4-14-2-13-2v33l-43 16zM779 294H627L577 163h5l41-3 41-8 40-11 16-5 7 9 25 50 19 54 8 45zm32 412 57-31 11-16-21-4-22-39-24-40-27-41-38-48H870l54 54 64-54V466H411v21H732l41 109 22 63 12 34-1 1 5 12zM571 514l-2 20-5 39-4 18-4 17-11 34-13 33-9 15 7 6 28-25 13-14 12-15 11-17 10-18 9-19 15-41 6-22-6-24-20-13-24 6-13 20zM447 713v21H660V880l64-11 16-11-16-10V734H834l54 54 64-54V713H447zM250 186h43l6 1 5 1 5 1 2 2 2 5 1 5v7V648H250V186z"/><glyph glyph-name="&#24122;" unicode="&#24122;" horiz-adv-x="1024" vert-adv-y="826" d="M595 120l45-46 4-19-20 5-46-36L529-8 475-38 446-52 415-65 382-76l-4 8L503 29l58 54 17 18 15 18 2 1zM896-58 885-40 857-8 827 24 793 52 756 81 736 94l3 9 25-6 23-7 23-9 22-11 21-11 20-13 20-14 19-15 35-35 6-23-11-22-24-6-22 11zM256 170v16h43l7 1 5 1 3 1h2l1 1v1l1 2 2 3v5l1 7V648H254V-45L189-77V648H122V148L58 116V702l64-32h67V869l65-11 16-11-16-9V670h67l32 27 59-49-27-21V208 194l-3-13-4-13-7-13-8-10-12-9-12-7-12-4-14-2-14-2v33l-43 16zm150-16v21H537V681H437v21H537V847l65-10 16-11-16-10V702H782V847l65-10 16-11-16-10V702h18l44 48 54-48V681H847V175h23l54 54 64-54V154H406zM782 337H602V175H782V337zm0 172H602V358H782V509zm0 172H602V530H782V681z"/><glyph glyph-name="&#24123;" unicode="&#24123;" horiz-adv-x="1024" vert-adv-y="826" d="M743 299l-18-11-3-46-13-61-21-56-28-49-35-43L584-4 535-33 479-54 418-69l-67-7-1 9 63 18 56 22L517-2l41 30 34 35 26 39 21 44 14 49 8 54 2 61v13l64-13 16-11zM877-37l-7 13-10 14L847 6 831 23 790 59l-82 61 4 9 35-13 33-14 29-14 50-30 21-16 19-15 16-16L929-5l11-18V-47L923-65H899L881-48l-4 11zM488 439l64-33H832l32 27 59-48-27-22V127L832 95V385H552V105L488 73V439zM256 170v16h43l7 1 5 1 3 1h2l1 1v1l1 2 2 3v5l1 7V648H254V-45L189-77V648H122V148L58 116V702l64-32h67V869l65-11 16-11-16-9V670h67l32 27 59-49-27-21V208 194l-3-13-4-13-7-13-8-10-12-9-12-7-12-4-14-2-14-2v33l-43 16zM414 476v22H657V6e2H483v21H657V729H446v21H657V869l65-11 16-11-16-9V750H830l54 54 65-54V729H722V621H824l44 49 54-49V6e2H722V498H888l44 48 54-48V476H414z"/><glyph glyph-name="&#24124;" unicode="&#24124;" horiz-adv-x="1024" vert-adv-y="826" d="M431 828l59-29H891l32 27 59-49-26-21V-18L891-51V3H490V-34L431-64V828zm460-51H490V25H891V777zM785 210l-3 14-9 40-8 25-5 13-9 25-8 11 8 6 9-9 12-8 11-9 20-22 19-23 16-27 8-14-2-25-18-17-5 1 55-46V123H507v22H660V387H548v21H660V646H529v22H737l53 53 65-53V646H724V408h14l44 48 54-48V387H724V145h34l47 47h-3l-17 18zM256 169v14h43l5 1h4l2 1 1 1 1 1 1 1 1 3 1 4 1 6 1 7V648H250V-45L185-77V648H121V148L56 116V702l65-32h64V869l65-11 16-11-16-9V670h67l29 27 57-49-27-18V208l-1-13-2-13-3-12-6-11-7-11-10-9-11-7-12-4-12-3-13-1v30l-43 15z"/><glyph glyph-name="&#24127;" unicode="&#24127;" horiz-adv-x="1024" vert-adv-y="826" d="M517 870l61-25 12-14-18-6-29-98-39-113-27-69 26-4 17-11-17-10V-45L439-77V454l-50-99-27-47-9 4 70 208 49 165 42 171 3 14zM773 281h1l-2-14h79l54 53 64-53V245H770l-2-10 22-46 17-31 17-28 20-26 21-24 22-21 24-19 27-17L990-7 930-54 9e2-33 871-9 845 17 823 45 802 75l-17 33-14 33-11 36-2 11-15-47-19-40-23-38-26-35L645-2 610-29 573-52 531-70l-4 8 34 27L592-7l27 30 24 31 20 33 16 34 13 38 9 39 6 42v5H533v22H709l1 18V444H651l-13-30-27-55-16-26-17-24-20-23-8 5 29 82 16 56 8 29 6 29 6 30 5 31 4 26 2 15 62-21 14-13-19-7-3-13-19-62-2-7H808l54 53 64-53V444H774V283l-1-2zM222 169V-48L168-75V648H108V147L49 118V699l59-29h60V869l54-11 14-11-14-9V670h61l30 27 56-49-27-18V208l-1-13-2-13-3-12-6-11-7-11-10-9-11-7-11-4-13-3-13-1v30l-43 15zM527 606v22H809V797H599v21H809l32 27 59-48-27-22V628h22l34 38 43-38V606H527zM222 183h43l6 1h3l2 1 2 1v1l1 1 1 3 1 4 1 6 1 7V648H222V183z"/><glyph glyph-name="&#24129;" unicode="&#24129;" horiz-adv-x="1024" vert-adv-y="826" d="M622 116l42-49 2-19-20 6-30-21L561 2 531-13 466-41 430-54 392-66 352-76l-3 9L481 9l54 36 25 17 42 36 19 18v-1l1 1zM901-42 889-26 862 5 830 35 794 63l-64 42 3 8 27-5 25-7 24-9 23-9 22-11 22-13 20-13 37-30L951-1l7-24-11-22-24-7-22 12zm9 895 64-54V777H747l-25-35-25-30-26-28-28-25-14-11H835l32 27 59-48-27-22V165l-64-33v33H566V127L501 95V681l65-33h44l41 75 23 48 3 6H437v22H856l54 54zM271 177V-31L207-63V641H142V156L78 124V695l64-33h65V855l64-10 16-11-16-10V662h65l32 27 59-48-27-22V215l-1-13-2-14-4-13-7-12-9-11-11-9-12-6-13-5-13-2-14-1v32l-43 16zM835 320H566V186H835V320zm0 151H566V342H835V471zm0 156H566V492H835V627zM271 194h43 7l4 1 4 1 1 1 2 2 2 5 1 5 1 6V641H271V194z"/><glyph glyph-name="&#24130;" unicode="&#24130;" horiz-adv-x="1024" vert-adv-y="826" d="M641 43V59h65l6 1h5l3 1 2 1 1 1 1 1v2l1 3 2 5v7V197H544V-35L480-68V197H297V19L232-13V238l-47-18-69-22-75-19-3 9 135 59 59 29 54 29 47 30 41 31 9 7H61v22H408l30 31 23 31 11 20H297V461l-64-32V739l64-32H727l32 27 59-49-27-21V467l-64-33v43H504l31-20 9-17-21-1-13-18-23-26H838l54 53 65-53V373H606l78-38 72-31 76-29 40-13 126-37-63-55-85 32-79 37-11 6 58-48-26-22V81l-2-14-2-13-4-14-7-12-9-10-10-9-13-7-13-4-13-3H706V27L641 43zM580 373H464l-20-18-41-30-46-29-52-27-57-25h-2l51-26H480V333l64-10 16-11-16-10V218H727l32 27-60 35-34 22-33 23-29 24-23 24zM727 584H297V499H727v85zm0 101H297V606H727v79zM147 807H894l3 5 2-1 27 23 59-49-27-16-19-8-26-30-41-43-33-31-17-17-8 6 12 20 48 91 13 28H148V768l-2-27-4-26-6-24-8-22-12-20-13-18-17-15-24-5-20 13-5 24 13 21 11 6 11 9 10 12 10 14 8 18 8 21 7 24 6 26 6 31 4 32h10l4-33 2-22z"/><glyph glyph-name="&#24134;" unicode="&#24134;" horiz-adv-x="1024" vert-adv-y="826" d="M898-27l-9-10-9-10-10-8-11-7-12-5-12-5-13-3-13-1-13-1v32L688-29v16H796l7 1 7 1 7 1 5 2 6 3 4 3 5 4 9 9 5 7 9 18 9 22 8 26 7 31 5 33 5 38 3 41 2 46v48l-2-1v43H573l-40-49-53-53 53-8 16-11-16-10V59H716l54 53 64-53V37H533V-27L468-60V251l-21-18-31-24-34-21-4 6-3-13-4-13-7-13-8-10-11-9-13-7-12-4-14-2-13-2v33l-43 16V-45L185-77V648H121V148L56 116V702l65-32h64V869l65-11 16-11-16-9V670h64l32 27 60-49-27-21V208l-1-11 74 86 45 60 42 63 37 67 11 23H531V459l-64-33V845l64-32H848l32 27 59-49-26-21V475l-65-33v54H623l27-18 10-16-20-2-33-51-17-24H897l33 27 59-49-26-15V321 271l-2-47-3-44-5-40-6-38-8-34-9-31L919 9 906-16l-8-11zM774 142l-8 14-8 13-19 26-34 37-6 6-19-33-17-25-19-24-20-23-23-20-23-17-26-15-6 7 50 68 28 48 12 25 11 26 10 27 8 28 6 30 3 9 59-25 13-15-19-6-17-42-3-6 10-4 17-7 16-9 31-19 28-25 26-27 4-24-14-21-24-4-20 13-7 14zm74 502H531V518H848V644zm0 147H531V665H848V791zM250 186h43l6 1 5 1 5 1 2 2 2 5 1 5v7V648H250V186z"/><glyph glyph-name="&#24136;" unicode="&#24136;" horiz-adv-x="1024" vert-adv-y="826" d="M457 847l64-32H877l32 27 59-49-26-21V638l-65-33v33H521V385l-3-62-8-60-11-55-16-53-19-49-24-45-28-41-31-36-36-32-40-28-6 8 32 34L358 2l25 38 21 41 17 43 14 46 11 49 7 52 4 55V847zM681 256H792V428H683V288l-2-32zM250 170V-45L185-77V648H121V148L56 116V702l65-32h64V869l65-11 16-11-16-9V670h64l32 27 60-49-27-21V208l-1-14-3-13-4-13-7-13-8-10-11-9-13-7-12-4-14-2-13-2v33l-43 16zM877 793H521V659H877V793zM250 186h43l6 1 5 1 5 1 2 2 2 5 1 5v7V648H250V186zM640 477l-3 13-8 25-13 27-26 43-11 13 6 8 15-11 16-10 14-10 13-12 24-23 20-26 9-14 7-14-2-25-14-12h84l5 12 6 19 21 53 31 70h-1l3 4v1l3 4 51-39 8-18-23 1-73-88-14-15-2-4h56l54 54 64-54V428H857V256h11l54 54 65-54V234H857V-34L792-67V234H679l-5-36-9-42-12-40-15-38-17-34-21-33-25-30-26-27-31-24-7 7 22 30L552-2l18 31 14 32 12 34 10 35 7 37 4 39 2 28H520v22h99v32V428H541v21H656l-14 17-2 11z"/><glyph glyph-name="&#24138;" unicode="&#24138;" horiz-adv-x="1024" vert-adv-y="826" d="M618 95l42-49 3-20-20 7-27-18L592 0 565-13 538-26 479-48l-32-9-33-8-35-6-3 9L492-1l48 31 42 31 19 16 16 17h1v1zM891-56 878-41 849-13 814 13 774 39 728 65 703 78l3 9 28-4 27-6 26-7 25-8 46-20 42-24L919 4l18-15 9-23-9-22-23-10-23 10zM492 578l65-32H831l32 27 59-48-27-22V148l-64-32v43H557V121L492 89V578zM256 177v17h43 6l5 1 3 1 2 1 2 2 1 5 2 5v6V641H251V-31L187-63V641H118V156L54 124V695l64-33h69V855l64-10 16-11-16-10V662h69l32 27 59-48-26-22V215l-1-13-3-14-4-13-7-12-9-11-10-9-13-6-13-5-13-2-13-1v32l-43 16zM831 288H557V181H831V288zm0 124H557V310H831V412zm0 113H557V433H831v92zM417 627v21H667V783H457v21H813l53 54 65-54V783H732V648H884l44 49 54-49V627H417z"/><glyph glyph-name="&#24139;" unicode="&#24139;" horiz-adv-x="1024" vert-adv-y="826" d="M706 19V35h75l6 1 5 1 5 2 2 2 2 5 1 5v6V218H544V-51L480-83V218H232V-8L168-40V272l64-32H480v91l64-11 16-10-16-10V240H802l33 27 59-49-27-21V57l-1-13-2-14-5-13-7-12-8-11-11-9-12-7-13-4-14-2-13-1V3L706 19zM544 590H835l3 3 29 24 59-49-27-16-16-6-8-14-25-30-29-28-33-25-19-12 44-21 39-14 42-12 93-20-64-59-48 14-45 17-42 20-39 23-32 23-51-21-49-17-53-13-56-11-3 10 53 20 49 21 44 22 33 19-28 31-24 34-18 36-10 29H544v22zM259 404v16H367l6 1h5l3 2 2 1 1 1h1l1 2 1 4 1 4v7V591L197 555l-4-25-8-36-11-33-14-31-16-29-20-26-23-23-26-20-28-16-6 7 20 24 18 24 16 25 13 25 10 27 9 28 5 29 4 32v8l-55-9-9-19-13 15-19 62 11 2 85 7v1V812l64-32h50l1 2 8 21 7 18 5 19 2 8 2 8v3h-1l2 4v1l3 6 55-35 9-17-28-2-18-17-27-19H388l33 27 59-48-27-22V629l15 1 54 1 1-10-70-16V442l-1-14-2-13-5-13-7-12-8-11-11-9-12-7-13-4-14-3H367v32L259 404zm-5 153 64-10 17-11-17-10V457l-64-32V557zm571 11H620l38-47 26-25 29-24 12-9 33 26 26 24 22 26 18 27 1 2zM587 860l65-32H775l33 27 59-49-27-21V712l-1-7v-5l1-4v-2l1-2 1-2 2-2 4-3 6-1 7-2h73l24 70h11l-11-70 15-9 9-15-9-14-15-10H848l-12 1-13 4-12 5-10 8-9 9-7 12-5 12-4 13-1 14v94H652V764l-4-26-6-26-10-23-13-23-16-20-17-19-21-17-23-15-27-14-28-12-5 9 24 18 36 38 14 19 12 18 9 18 5 18 4 19 2 19-1 19v96zM388 759H2e2V609l68 6 120 9V759zM279 667l-2 9-4 8-4 9-5 9-12 18-8 10-9 6 4 9 12-6 12-3 12-4 11-6 11-6 10-8 10-8 8-8 9-11 8-10V650l-18-17H3e2l-18 17-3 17z"/><glyph glyph-name="&#24141;" unicode="&#24141;" horiz-adv-x="1024" vert-adv-y="826" d="M640 509l43-47 4-20-22 6-13-8-35-20-39-17-22-8-22-7-18-4V221h83l33 38 43-38V2e2H516V25H885V2e2H724v21H885V396H717v22H885l32 27 59-49-27-21V-18L885-50V4H516V-34L451-66V423l52-26 57 39 17 12 28 25 13 11 22 25zM257 170v16h43l6 1 5 1 3 1h2l1 1 1 1 1 2 1 3 1 5v7V648H250V-45L186-77V648H115V148L50 116V702l65-32h71V869l64-11 16-11-16-9V670h71l32 27 60-49-27-21V208l-1-14-3-13-4-13-6-13-9-10-11-9-12-7-13-4-13-2-14-2v33l-43 16zM897 876l3-9 47-41 2-17-22 9-85-26-40-10-80-18-42-7-42-7-42-4-31-3-8-3-3-14-21-65-25-61-29-55-17-26-18-23-20-22-8 5 40 109 9 29 16 59 7 31 6 33 7 43 53-19 156 45 77 25 74 27 31 13 5 2zm18-320-5 20-7 21-7 20-18 42-33 67-13 23 8 6 20-18 19-19 32-38 15-20 13-21 13-21 21-42 8-21-2-24-19-16-25 3-15 19-5 19zM689 569l-2 17-2 17-3 16-4 16-9 33-11 33-8 16 8 6 25-27 12-14 12-15 10-15 9-17 16-35 6-19 5-19-6-24-20-13-24 6-13 21-1 17z"/><glyph glyph-name="&#24143;" unicode="&#24143;" horiz-adv-x="1024" vert-adv-y="826" d="M9e2 60 871 99l-27 42-24 47-22 50-19 54-16 57-14 62-11 65-6 65H715l-55-52-24-20-5-4 30-32 34-44 6-10 4-4-1-1 19-30 22-47 16-47 11-48 5-48-1-49-7-50L756 6 751-7l-7-12-7-11-9-9-11-9-11-7-12-5-13-3-14-3-13-1v33L557-18V-2h97 7l6 1 5 2 5 2 3 2 3 3 4 3 6 9 16 49 9 42 5 43v42l-3 21-26-28-34-32-36-31-38-30-41-28-42-27-44-25L412-7 363-27l-5 8 86 59 77 61 36 30 65 64 57 67 24 33-12 33-10 23-21-20-53-43-28-21-63-41-34-19-37-18-38-18-5 9 122 98 51 47 43 46 20 23 12 16-29 48-37-26-28-18-29-17-32-16-32-14-34-13-5 8 108 85 47 42 41 42 9 10H449v21H854l54 54 64-54V541H743l36-122 21-58 12-31 89 104 19 24v1l5 5 45-46 4-19-21 5-44-35-35-23-36-23-19-10 25-55 24-45 26-40 27-36 29-32 40-36-58-43-32 34zM250 170V-45L185-77V648H121V148L56 116V702l65-32h64V869l65-11 16-11-16-9V670h64l32 27 60-49-27-21V208l-1-14-3-13-4-13-7-13-8-10-11-9-13-7-12-4-14-2-13-2v33l-43 16zM723 729H885l3 4h2l27 23 59-49-26-16-21-8-39-43-23-21-12-10-11-12-8 6 8 14 12 29 11 27 13 34H508v-2l-1-20-2-19-4-19-6-18-7-18-9-17-22-12-23 6-13 21 6 24 10 10 9 11 7 12 8 14 6 14 5 15 5 17 3 18 3 18 1 20 9 2 10-40 3-15H659V869l64-11 16-11-16-9V729zM250 186h43l6 1 5 1 5 1 2 2 2 5 1 5v7V648H250V186z"/><glyph glyph-name="&#24145;" unicode="&#24145;" horiz-adv-x="1024" vert-adv-y="826" d="M247 658l56-33 11-16-20-2-33-62-46-75-24-35-10-12 33-6 16-11-16-9V-40L149-72V383l-41-46-30-30-32-27-7 7 70 102 43 71 40 73 18 39 32 74 5 12zM531 60V76h43l7 1 5 1 3 1 2 1 1 1 1 1 1 1 1 4v4l1 7V334H517V-41L453-73V334H374V46L309 14V388l65-33h79V474H288v21H584l44 49 53-49v-5l23 81 11 45 10 46 18 98 8 51 5 46 2 17 63-20 14-13-18-8-6-33-11-52-13-50-13-48-13-39H882l44 48 54-48V589H919l-11-93-16-95-21-87-25-80-19-45 17-33 29-44 31-39 34-34L991-2 932-46 892-10 856 32 824 79l-27 48-15-29-39-57L699-6 651-46 599-76l-5 8 44 38 40 43 36 49 32 56 28 63-23 67-16 66-12 71-7 76-1 31-29-57-23-36-9 4 22 71H517V355h79l32 27 59-48-27-22V98 84l-3-13-4-13-7-12-8-11-11-9-12-7-13-4-14-2-14-1V44L531 60zM855 589H754l-27-70 11-56 16-72 19-67 21-62 5-10 20 75 16 85 12 91 8 86zm-471-5V568l-64-33V793l64-10 16-11-16-10V605h69V863l64-10 17-11-17-10V605h67V793l65-10 16-11-16-10V573l-65-32v43H384zM218 862l56-32 10-17-20-3-28-50-40-64-43-59-23-27-49-50-26-22-7 7 54 86 51 91 32 65 30 69 3 6z"/><glyph glyph-name="&#24146;" unicode="&#24146;" horiz-adv-x="1024" vert-adv-y="826" d="M809 27l33 135h10L842 27l19-12L874-5 861-24 842-37H619 605l-13 3-13 4-13 7-10 9-9 11-7 12-4 13-2 13-1 14V257l64-11 17-11-17-9V42l2-5 1-3 1-3h1l2-1 3-2h5l7-1H809zM412-5 389 4l-8 23 10 22 9 8 8 10 9 13 8 16 8 19 7 22 6 24 11 57 4 33 10 1 7-65 1-29-1-28-2-25-4-24-6-22-8-20-11-19L435 3 412-5zM914 70l-4 20-4 20-6 19-6 19-8 18-18 37-10 18-13 18 7 7 36-27 15-16 15-17 26-37 10-21 10-20 8-23 7-23-5-24-20-13-24 5-14 20-2 20zM707 135l-9 31-5 15-6 15-14 28-7 13-17 26-11 12 6 8 14-9 15-8 14-9 14-11 13-12 23-28 11-15 19-33-1-25-18-17-24 1-17 18zM252 176v15h43 5l4 1 3 2 1 1 1 1 1 2 1 4 1 6 1 7V641H247V-34L193-61V641H128V155L69 126V692l59-30h65V855l54-10 13-11-13-9V662h66l29 27 57-48-27-19V215l-1-13-2-12-4-13-5-11-8-11-9-8-11-7-12-5-12-2-13-1v29l-43 15zM660 868l53-37 9-18H697l-30-33-36-36-14-13-1-1H845l32 26 59-48-27-21V332l-64-33v33H517l-64-33V762l64-32h83l6 9 7 17 7 16 29 69 4 11 4 11 3 5zm98-488-35 59-5 6-35-25-34-18-36-16-40-11-41-7-2 9 36 17 34 18 31 20 29 22 26 23 5 6-26 31-21 22v1l-26-32-19-22-20-19-22-17-23-14-6 7 44 65 27 48 9 17-54 43 4 10 30-10 28-13 5-2 28 65 9 26h-1l5 13 58-31 11-16-21-4-6-12-5-12h76l32 27 38-31v85H517V353H845V593l-6-3-11-5-10-19-21-35-24-33-13-14 10-11 43-60 3-24-14-20-24-3-20 14zm11 226H687l-14-26-7-10 31-23 25-23 1-1 24 38 17 33 5 12z"/><glyph glyph-name="&#24147;" unicode="&#24147;" horiz-adv-x="1024" vert-adv-y="826" d="M842 197l52-37 9-17H882l-15-23-31-37-34-32-38-30L723-5 679-27 632-46 583-60 530-70l-56-6-1 9 52 16 49 18 45 20L661 9l38 25 34 27 32 29 28 31 24 34 21 37 4 5zm-75 99 49-42 7-18-20 2-13-15-29-31-30-28-32-26-34-25-35-22-37-20-39-18-40-15-42-12-4 9 73 43 34 23 32 24 31 24 56 54 25 28 45 61 3 4zM245 169v14h43l5 1h4l3 2 2 2 1 3 1 4 1 6 1 7V648H243V-48L189-75V648H126V147L67 118V699l59-29h63V869l54-11 13-11-13-9V670h63l29 27 57-49-27-18V208l-1-13-2-13-3-12-6-11-7-11-10-9-11-7-12-4-12-3-13-1v30l-43 15zM687 386l51-39 8-17H725l-23-27-46-43-25-21-28-20-30-20-32-19-35-18-37-17-5 8 88 74 70 69 35 44 15 21 15 25zM854 673l-7 14-8 15-6 9-56-14-84-16-82-15-118-17-17-2-2-3 56-26 13-15-21-5-16-37-28-57-11-18-9-15 11 3 19 4 56 13-1 11-1 11-6 25-2 13-4 13-6 13 8 5 8-11 11-10 19-21 8-11 7-11 13-23 3-6 35 74 22 55 3 7 57-31 11-17-20-2-14-30 69-91-10 27 11 1 30 2 5 30 3 20 4 20 2 19 4 19 2 18 4 30h-1l4 15 60-24 13-14-20-7-12-32-25-55-18-37h9l47 3 16 1h16 4l-8 31-15 46-7 15 8 6 11-13 24-25 10-12 19-27 15-27 7-13 6-14-3-24-20-15-24 3-15 20-1 13-4 24-17-10-28-14-31-13-30-11-9-4-5-10 36-41 29-30 28-26 28-23 28-20 48-30-60-47-29 23-28 26-28 28-27 32-27 34-52 78-25 44-23 47-7 16-23-43-30-51-32-48-33-44-36-42-36-38-39-36-41-31-43-28-6 8 36 35 67 75 31 41 30 43 28 45 14 23-14 3-14 20v12l-26-17-52-29-35-16-12-6-6-22-15 13-29 58 10 3 35 7 16 3 11 53 23 99 2 15-1-4-12 16-16 63 11 1 38 2 59 3 43 83 25 54 7 19 3 5 54-36 9-17-21-1-24-33-27-32-28-29-13-12 73 4 83 6 87 4h3l-13 17-45 44-18 14 5 9 43-18 19-10 19-11 17-12 17-13 15-13 14-15 13-15 12-16 2-25-16-19-24-2-20 16-6 14z"/><glyph glyph-name="&#24153;" unicode="&#24153;" horiz-adv-x="1024" vert-adv-y="826" d="M881-62 847-47 816-30 788-10 761 12 737 37 715 63 696 92l-15 32-11 30h-5l-15-34-28-45-34-40L550 1 507-27 460-50 408-66 352-76l-3 9 52 20 46 23L488 3l36 29 30 34 26 37 21 41 4 10H379v21H613l5 14 12 49 7 49 2 17 63-20 14-12-19-9-8-38-15-50H853l54 54 65-54V154H684l38-43 23-22 23-20 25-17 25-16 27-13 28-12 29-9 77-19-63-57-35 12zM245 175v15h48 4l3 2 2 2 1 3 1 4 1 5 1 8V637H243V-34L189-61V637H126V154L67 124V688l59-29h63V850l54-11 13-11-13-9V659h63l29 26 57-48-27-19V214l-1-13-2-13-3-12-6-11-7-11-10-9-11-7-12-4-12-3H288v29l-43 15zM457 631l65-32H828l32 27 60-49-27-21V289l-65-32v64H522V257l-65-32V631zM828 453H522V343H828V453zm0 124H522V475H828V577zM742 869l64-11 16-11-16-9V756h38l53 54 65-54V734H806V664l-64-32V734H609V664l-65-32V734H397v22H544V869l65-11 16-11-16-9V756H742V869z"/><glyph glyph-name="&#24154;" unicode="&#24154;" horiz-adv-x="1024" vert-adv-y="826" d="M716 8V24h76 6l5 1 3 1 2 1h1l1 1v3l1 2 2 6v6 99H544V-39L480-72V144H222V-6L157-38V198l65-32H480v71l64-11 16-11-16-10V166H813l32 26 59-48-26-21V45l-2-14-2-13-4-13-7-12-9-11-10-9-13-6-13-5-13-2-13-1V-9L716 8zM268 679H109v21H268v81H88v22H268v68l64-11 17-11-17-9V803h72l54 53 64-53V781H332V7e2h82l44 49 54-49V679H332V661l-4-37-8-29H440l44 48 54-48V573H312l-9-19-19-31-25-28-29-26-4-2 49-25H384l5 3 25 22 76 66 14-23 27-28 1-19-21 9-26-10-28-10-29-10h-2H765l32 27 59-49-27-21V240l-64-32v32H275l-64-32V457l-15-10-37-21-43-17-46-14-4 9 42 24 36 24 32 24 27 24 22 25 17 26 11 22H68v22H260l3 9 4 28 1 29v18zM765 337H275V262H765v75zm0 83H275V359H765v61zM935 548l-10-8-11-7-22-11-12-4-13-4-12-2-12-1H830v32l-65 16v16h73l15 2 8 3 13 5 7 4 6 4 7 5 5 4-1 4-5 11-12 14-19 15-29 16-39 16-51 19 1 2-2-1-6 8 20 17 93 89 2 2H658V494l-65-33V868l65-33H871l11 13 2-2 20 16 59-48-27-16-37-16-34-21-37-21-41-21-22-10-9-4 44-2 45-9 36-13 28-15 21-17 15-18 9-20 3-19-3-18-9-18-10-8zm-36 52-2-4 2 4z"/><glyph glyph-name="&#24155;" unicode="&#24155;" horiz-adv-x="1024" vert-adv-y="826" d="M477 489l64-33H845l32 27 59-48-27-22V209l-64-32v43H725V134H868l54 54 64-54V112H725V-35L660-67V112H4e2v22H660v86H541V204l-64-33V489zM250 170V-45L185-77V648H121V148L56 116V702l65-32h64V869l65-11 16-11-16-9V670h64l32 27 60-49-27-21V208l-1-14-3-13-4-13-7-13-8-10-11-9-13-7-12-4-14-2-13-2v33l-43 16zM845 327H541V241H845v86zm0 108H541V349H845v86zM797 733l58-31 11-16-23-4-21-33-45-64-14-17-4-6H860l54 54 64-54V541H402v21H745l5 13 25 78 10 32 7 28 2 7h-1l4 13zM573 611l-1 12-2 13-7 25-4 12-5 12-11 26-9 11 7 7 11-9 13-9 12-9 20-22 10-12 9-13 8-13 7-15 6-15-4-24-20-14-24 4-15 20-1 13zM442 736v21H660V868l65-11 16-11-16-9V757H826l54 54 64-54V736H442zM250 186h43l6 1 5 1 5 1 2 2 2 5 1 5v7V648H250V186z"/><glyph glyph-name="&#24156;" unicode="&#24156;" horiz-adv-x="1024" vert-adv-y="826" d="M553-24V-8h86l7 1 5 1 3 1 2 1 1 1 1 1 1 1 1 4V8l1 6V229H570l-64-32V434l64-32H817l32 26 59-48-27-21V229l-64-32v32H725V14 1l-3-14-4-13-7-12-8-11-11-9-12-7-13-4-14-2-14-1v32L553-24zM525 180l56-34 9-16-20-3-17-23-32-39-37-36-21-17-46-31-25-14-6 8 53 62 31 39 24 39 11 20 9 19 8 20 3 6zM905 11 886 46 864 78 852 93l-25 27-13 14-15 13-15 11 4 9 38-13 19-8 18-10 18-12 17-13 32-30 30-36 4-24L950 1 925-3 905 11zM256 170v16h43l7 1 5 1 3 1h2l1 1v1l1 2 2 3v5l1 7V648H254V-45L189-77V648H122V148L58 116V702l64-32h67V869l65-11 16-11-16-9V670h67l32 27 59-49-27-21V208 194l-3-13-4-13-7-13-8-10-12-9-12-7-12-4-14-2-14-2v33l-43 16zM817 380H570V251H817V380zM409 471v21H661v99H556V575l-65-33V857l65-32H831l32 27 59-49-27-21V580l-64-32v43H725V492H889l44 49 54-49V471H409zM831 7e2H556V612H831v88zm0 103H556V721H831v82z"/><glyph glyph-name="&#24157;" unicode="&#24157;" horiz-adv-x="1024" vert-adv-y="826" d="M470 549l64-32H843l32 27 59-49-27-21V223l-64-32v43H721V132H873l53 53 65-53V110H721V-48L656-80V110H386v22H656V234H534V218l-64-33V549zM256 169v14h43l5 1h4l2 1 1 1 1 1 1 1 1 3 1 4 1 6 1 7V648H250V-45L185-77V648H121V148L56 116V702l65-32h64V869l65-11 16-11-16-9V670h67l29 27 57-49-27-18V208l-1-13-2-13-3-12-6-11-7-11-10-9-11-7-12-4-12-3-13-1v30l-43 15zM656 364H534V255H656V364zm187 0H721V255H843V364zM656 495H534V386H656V495zm187 0H721V386H843V495zM718 832l59-29h89l33 27 59-49-27-21V602l-65-32v43H777V597l-59-30V832zm-273 0 59-29h95l29 27 57-49-27-19V602l-59-29v40H504V597l-59-30V832zm421-51H777V634h89V781zm-267 0H504V634h95V781z"/><glyph glyph-name="&#24160;" unicode="&#24160;" horiz-adv-x="1024" vert-adv-y="826" d="M918 0l-2 18-9 37-14 38-27 60-12 21 7 6 35-33 16-17 27-37 12-19 10-20 8-20 8-20 6-20-5-25-20-13-25 5-13 21-2 18zM444-49 422-39l-7 24L427 7l8 5 8 8 9 11 8 14 8 16 8 19 7 21 13 51 4 29h10l4-58V96l-1-24-4-23-4-22-6-19-9-19-10-16-12-15-24-7zM758 12l-1 17-1 17-3 16-3 18-9 35-6 17-7 19-9 18 8 6 14-16 15-14 12-17 11-16 10-17 10-18 7-19 7-19 4-19 5-20-9-23-21-11-24 8L757-4l1 16zM655-26l-23-8-22 11-9 23 3 17 2 16 1 16V66 82l-2 17-2 17-3 18-4 18-6 17 9 5 23-32 9-16 9-17 7-18 6-18 5-18 4-20 3-19 1-20-11-22zM239 170V-45L174-77V648H110V148L45 116V702l65-32h64V869l65-11 16-11-16-9V670h64l33 27 59-49-27-21V208l-1-14-2-13-5-13-7-13-8-10-11-9-12-7-13-4-14-2-13-2v33l-43 16zM851 728l53 54 65-54V707H883V478h30l34 38 43-38V456H883V235h23l34 38 43-38V214H417v21h82V456H407v22h92V651l-38-53-24-30-27-29-8 6 67 134 41 94 22 60 13 37 57-30 12-16-20-4-19-40-28-52H851zM610 456H558V235h52V456zm108 0H664V235h54V456zm106 0H772V235h52V456zM610 707H558V478h52V707zm108 0H664V478h54V707zm106 0H772V478h52V707zM239 186h43l6 1 5 1 5 1 2 2 2 5 1 5v7V648H239V186z"/><glyph glyph-name="&#24165;" unicode="&#24165;" horiz-adv-x="1024" vert-adv-y="826" d="M536-24V-8h86l7 1 4 1 4 1 1 1 2 2 2 5 1 5 1 6v91H384v21H644v86H435v22H644v82l-89-6-53-1-57-1-1 9 2e2 40 77 17 60 17 24 8 19 8 3-8 49-43 1-16-21 9-11-3-23-6-28-5-30-5-34-5-22-2V234h91l53 54 65-54V212H708V126H849l54 54 64-54V105H708V14L707 1l-2-14-4-13-7-12-9-11-11-9-12-7-13-4-13-2-14-1v32L536-24zM232 169v14h43l5 1h4l3 2 1 1 1 1 2 3 1 4v6l1 7V648H230V-48L177-75V648H115V147L56 118V699l59-29h62V869l53-11 14-11-14-9V670h63l29 27 57-49-27-18V208l-1-13-2-13-3-12-6-11-8-11-9-9-11-7-12-4-12-3-13-1v30l-43 15zM499 638l65-33H765l32 27 59-48-27-22V460l-64-32v32H564V444l-65-32V638zm266-54H564V482H765V584zM454 677l1-14V638l-1-24-2-21-4-20-5-18-8-17-10-15-23-10-23 10-9 22 9 23 6 4 7 8 7 11 7 14 6 17 6 20 5 24 10 54 3 31h10l6-52H644V875l64-11 16-10-16-10V699h52l7 13 33 75 11 29 9 24 1 5-1 1 4 11 57-32 11-16-24-3-11-15-34-41-28-30-16-16-4-5H902l32 27 59-49-27-16-16-6-34-53-22-29-12-16-11-16-8 4 7 19 9 36 14 48 6 28v1H454zm68 76-3 11-8 23-9 23-12 24-8 11 6 7 12-9 11-7 23-17 20-21 18-22 8-13 7-13-2-24-18-17-24 2-17 18-4 24z"/><glyph glyph-name="&#24166;" unicode="&#24166;" horiz-adv-x="1024" vert-adv-y="826" d="M711 30V46h64l7 1 5 1 5 1 2 3 1 4 1 5 1 7V229H544V-40L480-72V229H227V3L163-29V283l64-32H480v91l64-11 16-11-16-9V251H797l32 26 59-48-27-21V68l-1-14-2-13-4-13-7-12-9-11-10-9-13-7-13-4-13-2-14-1V14L711 30zM523 747v22H689v99l65-11 16-11-16-9V769h81l53 54 65-54V747H841l31-18 10-17-23-2-14-21-31-40-12-13-27-26-10-11h96l54 54 65-54V577H754V478h81l53 54 65-54V456H754V352l-65-33V456H523v22H689v99H496v22H759l-4 3 9 16 25 65 16 45 6 19H523zM125 856l64-32H394l32 26 59-48-27-21V654l-64-32v43H189l-3-35-4-37 54-27H390l32 27 59-48-27-22V369l-64-32v53H236V353l-64-33V537l-8-29-12-34-15-32-17-28-20-24-23-20-25-16-6 7 17 23 14 23 12 25 11 27 8 29 7 32 6 35 3 37 1 41v43V856zM390 545H236V412H390V545zm231 94-2 11-2 11-3 11-7 23-11 23-6 12-8 10 7 7 11-8 12-8 11-8 11-9 19-20 9-11 8-12 13-26-3-24-19-16-24 4-15 19-1 11zM394 802H189V687H394V802z"/><glyph glyph-name="&#24167;" unicode="&#24167;" horiz-adv-x="1024" vert-adv-y="826" d="M895-23 867-4 842 16 793 62l-43 54-19 29-18 32-2 5V-45L646-77V157l-18-22-28-30-30-29-33-25-34-24L467 5 429-14 389-31 347-44l-4 9 72 46 32 23 32 26 29 25 27 28 25 28 24 30 21 32 3 5H393v21H646V331l65-11 6-4V589l59-30H886l32 27 59-48-27-22V356l-64-32v54H776V340l-54-27 5-3-16-10V229H857l53 54 65-54V208H715l65-67 23-22 25-21 24-18 24-17 26-14 25-13 57-26-61-49-28 16zM251 169v14h43l5 1h3l2 1 2 1 1 1 1 1 1 3 1 4 1 6v7V648H244V-45L180-77V648H115V148L51 116V702l64-32h65V869l64-11 16-11-16-9V670h67l30 27 56-49-26-18V208l-1-13-2-13-4-12-5-11-8-11-9-9-11-7-12-4-12-3-13-1v30l-43 15zM411 589l60-30H590l30 27 56-48-27-19V356l-59-29v51H471V340l-60-29V589zm475-51H776V399H886V538zm-296 0H471V399H590V538zM514 850l65-32H779l32 27 59-48-27-22V630l-64-33v43H579V624l-65-32V850zm265-53H579V662H779V797z"/><glyph glyph-name="&#24168;" unicode="&#24168;" horiz-adv-x="1024" vert-adv-y="826" d="M538 170l65-32H846l33 27 59-49-27-21V-34L846-67v54H603V-51L538-83V170zm308-54H603V9H846V116zM245 169v14h43l5 1h3l3 1 1 1 1 1 1 1 1 3 1 4 1 6 1 7V648H237V-48L183-75V648H115V147L56 118V699l59-29h68V869l54-11 13-11-13-9V670h69l29 27 57-49-27-18V208l-1-13-2-13-4-12-5-11-8-11-9-9-11-7-12-4-12-3-13-1v30l-43 15zm602 92 43-37V202H567v22H813l34 37zm0 81 43-38V283H567v21H813l34 38zM836 514l54-48V444H581v22H792l44 48zM621 654H527V529l11 5 20 13 17 13 14 13 11 14 9 14 6 15 4 16 2 16v6zm280-76 21 49h11l-11-49 13-8 9-13-9-13-13-9H815l-13 2-12 2-11 6-11 7-9 9-7 11-6 12-3 13-1 14v43H684l-3-16-8-24-12-22-14-18-16-17-19-13-21-11-23-8-25-6-16-2V385H908l33 38 43-38V363H527v-5l-4-62-5-59-8-54-11-51-14-46-16-42L450 6 427-26 402-54 374-75l-7 7 19 27 17 30 15 33 13 37 11 39 8 44 6 48 4 52 3 56-1 60V629l-26-26-28-23-30-21-7 7 43 56 20 28 18 28 10 18v11l5-2 18 33 13 31 12 32 11 33 8 28 4 14 60-27 12-15-20-5-6-16-4-9H752l33 27 59-48-27-16-16-7-12-17-31-38-24-24-6-6H886l44 49 54-49V654H806V611l-1-7v-9l1-3v-2l1-3 3-2 4-3 6-2 8-2h73zM749 783H566l-19-37-19-32-20-30 19-9H709l1 2 25 61 9 28 4 14 1 3z"/><glyph glyph-name="&#24169;" unicode="&#24169;" horiz-adv-x="1024" vert-adv-y="826" d="M599 90l39-51 1-19-19 7L570-3 521-29 495-41 440-63 411-73l-30-9-4 9L519 26l61 48 18 16h1zM907-68 884-44 854-18 819 9 756 52 731 67l4 9 54-16 25-8 23-10 22-9 41-21L918 2l33-23 10-23-8-23-23-9-23 8zM463 514l65-32H844l32 27 59-49-27-21V116L844 84v32H528V1e2L463 68V514zM259 175v15h49 3l4 2 1 1 2 4 1 4 1 5v8V637H254V-34L2e2-61V637H134V154L75 124V688l59-29h66V850l54-11 13-11-13-9V659h66l30 26 56-48-27-19V214 201l-2-13-4-12-6-11-7-11-9-9-12-7-11-4-13-3H302v29l-43 15zm585 54H528V138H844v91zm0 118H528V251H844v96zm0 113H528V369H844v91zM774 729l59-11 15-11-15-9V616h38l53 54 65-54V595H833V529l-59-30v96H597V529l-59-30v96H417v21H538V729l59-11 15-11-15-9V616H774V729zM657 880l54-11 13-11-13-9V777H823l53 54 65-54V756H711V683l-54-27V756H434v21H657V880z"/></font>
</defs>
</svg>
