<svg xmlns="http://www.w3.org/2000/svg"><defs><font name="Jigmo Regular" horiz-adv-x="1024" vert-adv-y="1024"><font-face font-family="Jigmo" font-weight="400" font-stretch="normal" units-per-em="1024" ascent="995" descent="169"/><glyph glyph-name="undefined" unicode="㑅" horiz-adv-x="1024" vert-adv-y="918" d="M303 872l57-30 12-16-20-4-17-40-27-58-28-58-29-55-30-55-6-10 33-5 16-11-16-10V-45L183-77V494l-27-42-35-50-36-49-39-46-8 6 30 51 29 53 28 52 28 54 28 54 26 56 24 56 25 58 22 58 20 55 5 12zM292-13V9H570V654H516l-17-28-31-46-32-43-33-42-34-39-36-36-38-33-7 7 29 40 29 41 29 41 27 44 27 44 26 47 25 48 24 50 24 53 20 48 1 4 1 1 3 7 56-32 11-17-20-2-17-35-27-52-27-49H836l53 54 65-54V654H635V358H786l54 54 64-54V337H635V9H861l54 53L979 9V-13H292z"/><glyph glyph-name="undefined" unicode="㘀" horiz-adv-x="1024" vert-adv-y="918" d="M887-12 854 10 823 33 794 58 766 84l-25 29-23 31-21 32-14 27V-37L618-69V171l-4-8-26-36-28-33-30-31-33-28L463 9 425-13 387-33 345-50l-4 9 35 25 33 26 31 27 30 29 26 29 25 31 23 33 21 35 18 36 6 14H347v21H618V487l65-11 16-11-16-10V265h39l7 15 8 22 9 21 8 20 8 19 7 18 6 17 6 16 5 15 3 9h-1l2 4v1l4 7 56-33 10-16-22-3-6-9-10-15-11-16-12-16-12-17-14-17-15-18-16-18-5-6H840l54 54 64-54V244H683v-5l14-16 25-28 25-26 27-25 27-23 28-20 29-20 30-18 31-16 33-14 31-14-61-50-35 19zM61 745l65-32H234l32 27 59-49-26-21V186l-65-32v64H126V154L61 121V745zm173-54H126V240H234V691zM530 314l-2 11-5 11-5 11-5 12-7 12-9 12-9 13-9 13-13 11 6 8 15-9 15-7 15-8 13-9 13-10 12-10 11-11 9-11 10-13 8-13-1-24-18-17-24 1-18 17-2 10zm77 557 4-10 43-39 1-17-20 8-3-1-19-6-21-7-21-6-22-5-24-5-23-5-24-4-26-4-21-3V662H531l44 48 54-48V640H431V526H531l44 48 54-48V504H431V440l-64-32V812l55-28 23 11 23 10 22 10 21 10 21 9 20 9 19 10 18 9 13 7 5 2zm276-46 59-48-27-22V472l-64-32v64H677v22H851V640H677v22H851V777H681v21H851l32 27z"/><glyph glyph-name="undefined" unicode="㟙" horiz-adv-x="1024" vert-adv-y="918" d="M484 392l64-32H830l33 27 59-49-27-21V-19L830-52V2H548V-35L484-68V392zM830 175H548V24H830V175zM115 138V73L56 44V670l59-11 15-11-15-9V159h69V831l59-11 15-10-15-10V159h75V670l65-11 16-11-16-9V105L318 73v65H115zM830 338H548V197H830V338zM406 455v21H545V659H441v22H545V858l65-11 16-10-16-10V681H758V858l65-11 16-10-16-10V681h30l44 48 54-48V659H823V476h42l53 54 65-54V455H406zM758 659H610V476H758V659z"/><glyph glyph-name="undefined" unicode="㣱" horiz-adv-x="1024" vert-adv-y="918" d="M563 106l41-50 2-19-20 7-6-5-26-16L528 7 499-8 469-22 437-35 404-47 368-59l-36-9-39-8-3 9 34 18 34 17 31 17L420 2l27 17 27 17 25 17 23 17 21 18 15 14 5 4zM309 660l54-37 9-18H352l-15-23-27-39-28-38-30-37-31-35-9-10 37-6 16-11-16-9V-40L184-72V395l-30-29-36-31-38-29-39-26-6 7 32 34 31 35 30 34 30 36 28 36 27 36 25 38 24 39 23 39 19 35 5 11zM871-47 854-31 837-16 817-1 797 15 775 29 752 44 728 58 703 73 677 89l3 9 30-6 29-8 28-9 27-10 26-11 24-13 23-13 23-13L911 0l20-16 9-22-8-23-23-10-23 8-15 16zM439 490l65-32H799l32 27 59-48-26-22V128L799 96v32H504V112L439 80V490zM799 235H504V150H799v85zm0 101H504V257H799v79zm0 101H504V358H799v79zM361 530v22H614v91H410v21H614v86H383v22H614v97l65-11 16-11-16-9V772H824l54 54 64-54V750H679V664H796l44 49 54-49V643H679V552H866l44 48 54-48V530H361zM272 864l53-37 8-18H313l-11-17-24-34-25-33-25-31-27-30-28-29-28-27-30-26-30-23-33-21-6 7 25 29 24 29 24 29 24 30 23 31 22 31 21 32 21 34 20 34 16 30 6 10z"/><glyph glyph-name="undefined" unicode="㤰" horiz-adv-x="1024" vert-adv-y="918" d="M383-40l-14 1-13 2-13 5-13 7-10 8-9 11-7 12-4 13-3 14V46 272l64-11 17-10-17-10V40l2-5 1-5 2-2 5-2 5-1h7H732l33 134h10L765 25l19-13L797-8 784-27 765-40H383zM78-8 57 5 53 30 67 50 82 60 96 71l13 14 13 17 10 20 10 23 8 26 7 29 7 32 4 35h10l5-36 2-34V166l-4-31-6-28-9-26-12-25-14-23-18-20L102-4 78-8zM896 69l-7 22-9 21-10 20-12 21-14 20-15 20-18 20-18 21-21 20 5 8 27-13 26-15 23-16 21-18 20-19 17-21 16-22 14-23 12-24 10-25-3-25-19-15-25 3-15 19-5 21zM564 154l-9 17-10 17-11 16-12 15-13 15-15 15-15 15-16 15-19 13 5 9 22-7 22-9 20-10 19-12 19-12 18-14 17-16 15-17 15-17 13-19 2-25-15-19-24-3-20 16-8 17zM322 870l51-39 7-18-20 1-13-18-27-34-28-33-29-32-28-28 28-5 16-11-16-9V328l-65-32V634l-32-28-34-28-37-26-38-25-6 7 31 33 31 32 29 33 29 32 27 32 26 34 26 33 24 34 23 34 19 31 6 8zm239 0 50-41 7-18-21 1-12-15-27-31-10-10H855l54 54 64-54V734H647V620H806l54 54 64-54V599H647V485H828l54 54 64-54V463H647V329l-65-32V734H528l-28-26-30-26-32-26-34-23-34-22-35-20-38-17-5 8 31 26 30 26 29 27 29 27 27 27 27 29 25 29 24 30 23 31 18 28 6 8z"/><glyph glyph-name="undefined" unicode="㥽" horiz-adv-x="1024" vert-adv-y="918" d="M172 863l64-10 16-11-16-10V-45L172-77V863zM579 106l41-50 2-19-20 7-6-5-25-16L544 7 515-8 485-22 453-35 420-47 385-59l-37-9-39-8-3 9 35 18 33 17 32 17L436 2l28 17 26 17 25 17 23 17 21 18 15 14 5 4zM887-47 871-31 853-16 833-1 813 15 792 29 768 44 744 58 719 73 693 89l3 9 31-6 29-8 27-9 27-10 26-11 24-13 23-13 23-13L927 0l20-16 10-22-9-23-23-10-23 8-15 16zM456 490l64-32H815l32 27 60-48-27-22V128L815 96v32H520V112L456 80V490zM815 235H520V150H815v85zm0 101H520V257H815v79zm0 101H520V358H815v79zM79 389l-24 5-14 20 4 24 8 9 7 11 8 14 8 16 8 18 7 21 7 24 8 25 8 27 7 30 9-1V602l1-29-1-28-2-25-3-24-3-22-4-20-5-19-6-17-8-16-20-13zM311 504l-3 14-4 15-4 15-5 15-7 17-7 16-8 16-8 18-11 17 7 6 16-14 15-13 14-14 13-14 12-14 11-15 9-15 9-16 8-16 7-17-4-24-19-15-24 4-15 20-2 14zm67 26v22H630v91H426v21H630v86H399v22H630v97l65-11 16-11-16-9V772H840l54 54 64-54V750H695V664H812l44 49 54-49V643H695V552H882l44 48 54-48V530H378z"/><glyph glyph-name="undefined" unicode="㨞" horiz-adv-x="1024" vert-adv-y="918" d="M922 198l-5 12-6 13-8 14-7 10-39-7-62-10-59-9-18-2V-45L653-77V210l-29-4-51-5-50-6-46-5-45-5-19-2-11-17-11 15-14 64 10 1h42l44 1 47 1 49 2 44 2 8 7 31 29 29 27 28 26 27 26 24 24 22 23 20 22 19 21 16 21 2 2 46-45 5-18-20 3-5-4-22-21-24-20-26-21-28-22-29-22-33-22-33-23-20-12 25 1 57 2 61 3 62 1h30l-4 6-15 15-16 16-18 17-21 16 5 8 24-11 24-10 21-11 20-12 18-13 16-13 14-14 13-15 10-16 9-17-2-24-18-16-25 2-16 18-2 12zM95-18V-2h76 6l5 1 5 2 2 2 2 5 1 5v6V316l-14-7-33-18-33-18-13-7-4-20-16 10-37 54 10 4 34 15 35 14 34 15 34 13 3 2V632H57v22H192V863l65-10 16-11-16-10V654h21l53 53 65-53V632H257V401l67 27 35 13 34 13 5-8-30-22-30-21-63-39-18-11V19L256 6 253-8l-4-12-7-13-8-11-11-8-13-7-12-4-14-3-13-1v33L95-18zM559 168l47-45 4-19-20 4-6-6-24-21-24-21-27-20-27-19L454 2 424-16 393-34 359-50 325-65l-5 8 29 24 28 23 26 22 26 23 25 21 23 22 22 23 21 21 19 22 18 22 2 2zM895-11 887 5 877 22 865 39 850 58 833 76 814 95l-21 20-24 21-25 22 5 8 31-13 29-15 26-15 24-17 22-16 20-17 18-18 16-18 14-19L960-1V-26L944-44H919L901-27l-6 16zM659 487l35-36 5-19-23 5-5-4-12-9-13-9-26-18-14-9-16-9-12-7 3-2 15-9 13-10 11-11 10-13 8-13-1-24-19-17-24 2-17 18v6l-3 9-4 9-6 11-9 11-11 13-13 12-14 14-16 14-20 13 5 9 22-10 21-7 19-9 17-8 1 1 9 14 11 14 19 26 9 13 9 12 8 12 11 15H389v22H653v96H434v22H653v97H406v21H653V869l65-11 16-11-16-9V745H847l54 54 64-54V724H718V627H839l44 48 54-48V605H718V509H884l44 48 54-48V487H659z"/><glyph glyph-name="undefined" unicode="㨲" horiz-adv-x="1024" vert-adv-y="918" d="M902 9 872 35 844 62 817 91l-25 32-24 32-22 35-20 37-15 31V-43L646-75V225l-7-12-29-40-31-38-35-35-37-32-41-30-44-26-47-23-50-20-3 9L366 7l41 29 38 31 35 31 31 34 29 35 26 37 23 38 21 41 7 19H404v22H646V469l65-10 16-11-16-10V324H861l54 53 65-53V302H711v-5l16-21 25-32 26-32 25-29 27-28 27-25 27-24 29-23 29-20 30-18 21-14-60-46L902 9zM91-18V-2h75 6l5 1 5 2 2 2 2 5 1 5v6V316l-12-7-32-18-33-17-13-8-3-20-16 10-37 54 9 4 34 14 33 15 34 15 34 13 2 2V632H55v22H187V863l65-10 16-11-16-10V654h17l54 53 64-53V632H252V4e2l32 14 33 14 34 13 34 13 4-8-28-22-30-21-30-20-31-19-18-11V19L251 6 249-8l-5-12-7-13-8-11-11-8-12-7-13-4-14-3-13-1v33L91-18zM413 363l-22 11-7 24 11 21 5 3 6 4 7 8 6 10 6 13 6 16 5 18 5 20 5 23 2 25h10l2-25 3-14H646V645l65-11 16-10-16-10V520H9e2l32 27 60-48-27-16-20-8-5-6-17-21-9-10-11-12-10-12-12-11-10-14-9 6 8 15 5 15 5 15 5 14 3 14 5 12 3 12 2 7H465l1-11V468l-1-20-2-18-4-17-5-15-8-15-10-13-23-7zM745 870l65-10 16-11-16-10V761h59l54 53 64-53V739H810V655l-65-32V739H611V655l-64-32V739H370v22H547V870l64-10 17-11-17-10V761H745V870z"/><glyph glyph-name="undefined" unicode="㩇" horiz-adv-x="1024" vert-adv-y="918" d="M75-18V-2h76 6l5 1 5 2 2 2 2 5 1 5v6V315l-40-24-31-17-12-7-3-20-16 9-38 54 9 4 33 14 32 15 32 14 32 14 2 1V632H47v22H172V863l65-10 16-11-16-10V654h30l44 48 54-48V632H237V401l29 13 31 14 33 13 33 13 4-8-27-22-29-21-28-20-30-19-16-10V19L236 6 234-8l-5-12-7-13-8-11-11-8-12-7-13-4-14-3-13-1v33L75-18zM912 41l64-54V-34H370v21H858l54 54zM523 58 458 26V312l65-32H831l32 26 59-48-27-21V58L831 26V58H523zM644 158H523V80H644v78zm187 0H709V80H831v78zM644 258H523V180H644v78zm187 0H709V180H831v78zM373 351v22H644v78H424v21H644v88H457v22H644v82H363v22H644v83H457v21H644v90l65-11 16-11-16-10V790H835l32 27 59-48-27-22V686h16l33 38 43-38V664H899V549l-64-32v43H709V472H831l44 48 54-48V451H709V373H883l43 48 54-48V351H373zM835 664H709V582H835v82zm0 105H709V686H835v83z"/><glyph glyph-name="undefined" unicode="㩍" horiz-adv-x="1024" vert-adv-y="918" d="M87-18V-2h76 6l5 1 5 2 2 2 1 5 2 5v6V316l-11-7-32-18-45-24-3-21-16 10-38 54 10 4 33 14 33 15 34 14 35 16V632H55v22H184V863l65-10 16-11-16-10V654h15l53 53 65-53V632H249V401l31 13 33 14 33 13 33 13 5-8-28-22-29-21-31-20-30-19-17-11V19L248 6 245-8l-4-12-7-13-9-11-10-8-13-7-13-4-13-3-13-1v33L87-18zM807 224v16h53 7l5 1 4 2 3 2 1 5 1 5 1 6V401H709V295l5-5 29-38 28-35 29-32 29-30 29-28 29-24 30-22 29-19 31-17 24-14-60-48L909 6 878 31 848 59 819 89l-27 32-27 35-25 38-24 41-7 14V-40L645-72V215l-2-3-35-41-38-39-40-35-43-32-46-30-48-25-51-21-53-17-3 9L334 8l45 27 43 30 40 32 38 34 34 36 33 38 29 41 28 44 21 39v72H478V213l-65-32V455l65-32H645v80H372v22H645v80l64-10 16-11-16-10V525H884l44 48 54-48V503H709V423H882l32 26 59-48-27-21V261l-1-13-2-14-4-13-7-12-9-11-10-8-13-7-13-5-13-2-14-1v33l-53 16zM561 620l-2 13-3 12-5 12-5 13-6 13-6 13-9 13-8 14-7 8h-7l-7-18-15-30-16-29-18-28-19-27-21-24-23-23-8 5 28 57 12 29 13 29 10 29 10 30 8 30 8 31 6 32 4 27v5l3 11 61-22 14-13-19-8-4-13-10-34-9-25h97l44 48 54-48V731H529l12-7 13-9 13-11 12-10 11-13 11-13 9-13 8-15 7-14-3-25-19-16-24 4-16 19-2 12zm275 0-3 13-3 12-5 12-4 13-6 13-7 13-8 13-8 14-8 8H770l-6-11-13-22-15-21-16-19-19-18-19-16-8 6 12 22 21 43 9 22 8 22 7 22 6 23 5 23 4 25 3 19 1 5 2 11 61-22 14-13-19-8-2-6-9-26-9-25-7-15H886l44 48 54-48V731H803l12-7 14-9 13-11 11-10 12-13 10-13 9-13 8-15 7-14-3-25-19-16-24 4-16 19-1 12z"/><glyph glyph-name="undefined" unicode="㩞" horiz-adv-x="1024" vert-adv-y="918" d="M897 1 866 23 837 48 808 75l-27 28-25 31-24 32-22 35-18 33V-39L628-71V207l-12-16-28-36-29-34-32-31-33-29-35-27-37-24-38-21-41-17-5 8L372 6l33 27 32 29 29 29 28 30 27 33 24 34 23 35 21 37 7 13H362v22H628V451l64-11 16-10-16-10V295H839l54 53 64-53V273H692v-4l17-19 27-31 27-28 26-27 28-25 28-23 28-21 30-20 29-17 31-16 27-14-61-48L897 1zM82-18V-2h76 6l5 1 5 2 2 2 2 5 1 5v6V315l-9-6-63-35-12-7-3-20-17 9-37 54 10 4 32 14 33 15 32 14 34 15V632H53v22H179V863l65-10 16-11-16-10V654h11l54 53 64-53V632H244V401l29 13 33 14 32 13 33 13 4-8-27-22-28-21-30-20-30-19-16-10V19L243 6 241-8l-5-12-7-13-8-11-11-8-12-7-13-4-14-3-13-1v33L82-18zM594 586l-2 8-4 8-4 10-6 9-7 11-8 11-9 12-5 6-7-17-18-29-21-25-24-22-27-17-30-14-7-2 2-18 1-2H903l33 27 59-48-27-17-16-6-1-2-8-12-18-27-10-14-23-29-13-15-12-17-8 5 7 18 6 20 6 18 5 16 5 16 5 15 3 15 4 13 1 3H420l1-3 1-25V444l-1-22-3-20-4-19-7-17-8-17-10-15-23-8-23 9-8 23 9 23 7 4 7 8 8 10 7 13 7 16 6 17 6 20 5 23 5 25 1 15-14-4-3 9 26 18 23 19 20 21 17 21 13 23 11 25 7 27 6 29 2 32V871l65-11 16-11-16-9V787l-3-29 6 8 18 22 18 22 8 10 4 6 4 5 42-49 3-20-23 7-2-1-24-14-13-8-26-14-14-7-6-3-2-12-11-34 11-5 14-7 14-7 12-8 11-7 11-9 9-8 9-9 7-11 1-24-17-18-24-1-19 17v7zm272-13-3 9-4 10-6 11-8 11-9 12-11 13-25 24-8-18-17-28-21-25-23-21-27-17-29-12-32-8-3 8 26 18 22 18 19 19 16 21 13 22 10 25 8 26 5 29 3 32-1 35v84l65-11 16-11-16-9V787l-2-30 18 22 10 12 10 11 10 12 10 11 7 7-1 1 5 4 40-50 3-20-22 8-6-4-14-8-13-8-14-8-42-22-7-4-2-11-10-33 18-7 18-8 16-9 15-9 13-10 13-11 10-11 10-12 8-13-1-24-18-17-24 1-17 17-1 9zM424 625l-23 9-9 23 9 23 7 4 7 6 6 8 7 11 7 12 6 15 6 17 6 19 6 20 3 23h10l1-24 2-22 2-20-1-20-2-18-2-17-4-17-5-15-7-15-9-13-23-9zm259 18-23 7-11 22 8 24 5 3 6 6 6 9 7 11 6 13 6 15 5 17 6 19 5 21 4 22h9l1-23 3-22 1-21 1-19-1-19-2-16-3-16-4-15-5-14-7-13-23-11z"/><glyph glyph-name="undefined" unicode="㮦" horiz-adv-x="1024" vert-adv-y="918" d="M893 178l-6 19-6 19-4 10-38-8-55-10-53-10-17-2V-43L649-75V185l-17-2-46-7-44-6-42-5-40-5-15-2-10-17-12 15-15 64h11l37 1 39 2 42 1 44 2 46 2 17 1 8 16 16 28 15 28 15 26 15 26 14 24 12 25 13 23 12 23 9 17 5 10 53-37 8-17-20-1-3-3-15-22-16-22-17-23-17-23-19-23-20-24-21-24-22-24-2-1h9l51 3 54 2 56 2 35 1-6 14-9 18-10 19-10 19-12 18-12 19 7 7 18-14 18-14 16-15 16-17 14-17 14-18 12-19 11-20 11-20 9-21-2-25-19-16-24 3-17 19-4 19zM327 362l-6 13-8 13-9 11-9 13-9 12-11 11-12 12-6 6V-40L192-72V419l-6-17-18-47-20-46-22-45-24-43-26-41-28-39-9 5 19 44 19 44 17 44 16 46 15 46 13 47 13 49 10 48 10 51 5 35H44v21H192V863l65-10 16-11-16-10V621h16l54 54 65-54V6e2H257V472l18-6 17-6 15-8 16-10 14-10 14-11 13-11 12-13 12-13 4-25-15-20-24-4-20 15-6 12zM545 144l55-34 10-16-21-2-1-2-13-20-15-19-15-20-17-18L511-5 492-22 472-39 451-54 429-69l-7 8 16 20 15 21L467 0l14 20 12 20 12 20 11 19 9 20 9 19 6 15 2 5 3 6zM860-19 853 1l-8 19-9 19-10 19-10 18-12 19-11 18-13 20-14 19 6 7 20-14 19-14 18-15 17-16 16-17 15-18 14-19 13-20L916 6l11-21-1-24-17-17H884L867-39l-7 20zM580 292l-6 18-7 17-7 18-9 16-9 16-11 16-11 16-12 16-14 15 6 8 18-11 19-10 17-13 16-13 15-15 6 18 14 35 7 17 19 50 10 28h-1l6 11 55-35 10-16-22-2-8-11-10-15-11-15-24-31-12-14-27-29-2-3 4-4 14-17 11-18 12-18 9-20-1-25-18-17-24 1-17 19-5 17zM4e2 420l-22 11-8 23 11 22 6 3 6 5 7 9 7 12 6 14 5 17 6 19 5 22 5 25 2 27h10l3-27 2-16H649V709H407v21H649V868l65-11 16-11-16-9V730H837l54 54 65-54V709H714V586H913l32 27 59-49-27-16-18-7-6-8-9-12-9-11-10-11-10-12-11-13-12-13-11-15-9 6 8 16 5 16 5 17 5 15 5 14 4 13 4 12 2 9H453l1-11V531l-1-21-2-19-4-18-5-17-8-15-11-14-23-7z"/><glyph glyph-name="undefined" unicode="㮶" horiz-adv-x="1024" vert-adv-y="918" d="M604 869l55-36 9-16-20-2-24-36-11-19-26-39-14-19-14-20-15-21-6-7h40l54 53 64-53V632H540V310v-6h55V568l54-11 14-11-14-9V251l-54-27v59H539l-2-29-8-52-11-49-14-45-18-41-21-37L440-3 411-32 380-56 345-75l-4 7 29 25 24 27 22 31 20 32 15 35 14 39 9 42 7 46 5 49v25H426V218l-59-29V568l59-11 14-11-14-9V304h61v6V632H351v22H522l6 16 8 24 8 23 8 22 9 22 8 21 9 21 8 21 8 19 6 15 4 11zM285 364l-5 13-6 12-7 12-7 12-9 12-8 11-11 12V-40L167-72V397l-14-42-17-45-20-46-21-43-23-41-26-39-9 5 16 43 15 44 15 44 14 46 13 46 11 48 11 47 9 50 8 50 5 36H42v21H167V863l65-10 16-11-16-10V621h16l44 49 54-49V6e2H232V471l13-5 15-7 14-8 14-10 13-10 13-11 11-11 12-13 10-14 2-24-15-19-25-2-19 15-5 12zm479-54H894V530H767V380l-3-70zM894 772H767V552H894V772zM440 716l-3 15-3 15-5 15-5 14-6 15-7 14-8 14-9 15-11 13 6 7 15-10 16-9 14-11 13-13 12-13 12-15 10-15 8-17 8-17 7-19-4-24-20-14-24 5-14 19-2 16zM958 1l-2-14-5-13-7-12-8-11-11-9-12-7-13-4-14-2-13-1v32L765-24V-8H873l6 1 5 1 5 2 2 2 2 5 1 5v6V288H762l-5-46-10-61-14-55-18-49-21-44L668-4 639-35 607-59 571-76l-4 8 28 24 25 27 22 31 18 37 16 40 13 47 9 52 6 58 4 63V823l59-30H894l32 27 60-48-27-22V14L958 1z"/><glyph glyph-name="undefined" unicode="㳻" horiz-adv-x="1024" vert-adv-y="918" d="M443 392l65-32H817l32 27 59-49-27-21V-19L817-52V2H508V-35L443-68V392zM211 122l3-5 13-34 9-36 4-41V-37L229-59l-23-7-22 11-8 23 3 38-1 34-4 30-6 28-10 25-14 23-17 20-21 19-25 17-30 16 2 9 35-6 33-11 29-16 15-13v1l9 19 12 26 15 34 18 42 22 50 24 58 28 65 32 73 37 80 9-4-26-84-25-75-22-68-20-59-17-52-13-43-12-36-8-27-5-20-2-11-10-28zm606 53H508V24H817V175zm0 163H508V197H817V338zM161 467l-7 11-8 11-10 12-12 11-13 11-15 11-16 12-18 11-20 10 3 9 22-5 22-4 21-6 19-7 18-7 17-9 16-10 15-11 13-12 13-14 4-24-14-20-24-4-21 13-5 11zm197-12v21H510V659H395v22H510V858l64-11 16-10-16-10V681H739V858l65-11 16-10-16-10V681h22l54 53 65-53V659H804V476h56l54 54 65-54V455H358zM739 659H574V476H739V659zM251 725l-6 10-8 10-9 11-12 11-13 11-14 12-16 12-19 12-19 11 3 9 22-6 22-5 21-6 19-7 17-8 17-9 15-9 14-11 13-11 11-13 5-24-14-20-25-4-20 14-4 10z"/><glyph glyph-name="undefined" unicode="㸲" horiz-adv-x="1024" vert-adv-y="918" d="M53 257l10 4 32 12 34 11 34 12 36 12 37 13 8 3V584H151l-7-23-14-40-14-38-16-37-19-35-20-33-9 4 11 37 9 37 10 38 10 39 8 39 7 41 7 42 5 42 4 44 3 40 2 17 63-18 15-12-18-9-4-26-8-44-10-44-9-40h87V869l65-11 16-11-16-9V605h27l53 54 65-54V584H309V345l6 2 41 13 43 13 44 11 3-9-40-22-40-20-38-19-19-9V-45L244-77V274l-26-12-34-16-34-15-32-15-10-5-5-21-15 12-35 55zM567 870l62-22 14-13-19-7-6-26-12-46-14-46-9-25H857l54 54 64-54V663H709V457H846l44 48 54-48V435H709V230H836l54 53 64-53V208H709V-35L645-68V663H575l-17-45-20-47-21-45-23-45-26-46-28-44-9 5 19 49 17 47 18 48 15 47 15 46 13 45 11 46 11 46 8 45 7 45 2 10z"/><glyph glyph-name="undefined" unicode="㹱" horiz-adv-x="1024" vert-adv-y="918" d="M843-54 771-43 707-26 654-3 609 25 573 58 544 95l-20 40-13 40-12-36-21-47-24-42-27-39-31-34-33-29-38-24-5 8 29 31L374-4l24 36 20 38 18 41 15 44 13 48 9 51 6 54 4 58 1 12 63-16 16-12-18-9-5-40-10-58-10-36 11-21 21-36 24-32 28-28 33-23 9-5V515H522V477l-65-32V836l65-32H835l32 27 59-49-27-21V483l-64-32v64H710V283H845l44 48 54-48V261H710V36l15-5 56-11 68-7 78-1h64L927-59l-84 5zM312-21l-9-10-9-10-10-8-11-7-12-6-12-4-12-3-14-2-13-1v32L135-24V-8h75l8 1 6 1 7 2 5 1 6 3 4 3 5 4 4 4 4 6 5 6 15 35 15 57 10 74 3 85-6 94-7 41-8-16-22-39-25-38-27-36-30-34-31-33-34-30-37-29-39-26-6 9 31 33 30 33 29 34 26 35 24 35 22 36 20 37 18 38 15 39 13 40 7 19-16 51-15 33-31-30-40-33-40-31-43-27-45-23-5 8 38 32 37 32 35 35 34 36 33 38 7 9-9 19-61 92-79 89 6 7 94-77 72-93 2-4 29 41 28 46 28 47 22 45 6 11 54-36 10-17-20-1-20-33-31-48-33-45-35-43-13-15 25-48 36-105 22-103 9-99V184l-8-79-14-66-20-49-7-11zM835 782H522V537H835V782z"/><glyph glyph-name="undefined" unicode="㾊" horiz-adv-x="1024" vert-adv-y="918" d="M32 278l11 5 14 4 16 5 16 6 18 7 17 7 19 9 19 9 20 10 18 8v64V772l65-32H534V874l64-11 16-10-16-10V740H856l54 53 64-53V718H265V412l-4-67-7-64-11-60-15-55-19-51-22-47-27-42-30-37L96-44 58-70l-6 8L81-29 107 6l23 39 20 41 16 45 14 49 9 52 7 56 2 34-2-2-17-16-16-14-17-14-16-13-16-11-16-11-11-6-5-23-16 11-34 55zm714-49v16h60l5 1 3 1 3 2 1 1 1 2 1 3 1 5v7V430H657V247l18-17 30-29 30-28 30-25 30-23 30-21 32-19 31-17 32-15 33-13 34-14-62-51L890-8 857 13 824 35 793 60 763 87l-29 28-27 31-26 34-24 36V-48L593-80V174l-4-4-34-35-34-33-36-30-38-28-39-25L368-3 327-22 284-37l-5 9L317-4l36 26 35 26 34 28 32 30 32 32 30 33 28 36 28 38 21 31V430H428V197l-64-32V483l64-32H593v90H286v21H593V691l64-11 16-11-16-9V562H845l54 54 65-54V541H657V451H821l32 27 60-48-27-22V267l-1-14-3-14-4-13-6-12-9-11-11-8-12-7-13-5-13-2H8e2v32l-54 16zM108 508l-3 17-4 16-5 16-5 16-6 14-7 15-8 14-9 14-10 11 6 8 14-9 15-9 15-11 13-12 13-14 11-16 10-16 10-18 8-19 8-20-4-24-20-15-25 4-14 20-3 18z"/><glyph glyph-name="undefined" unicode="䂃" horiz-adv-x="1024" vert-adv-y="918" d="M373 455l64-32H587l33 26 59-48-27-21V217l-55-28 49-43V124H437V54H567l44 48 54-48V32H437V-33L373-66V455zM744-17V-1h96 7l5 2h3l2 1 2 2 1 5 1 5 1 6V314H668v22H862V461l64-11 17-11-17-9V336h6l24 32 32-32V314H926V20L925 7 923-6l-4-13-7-13-9-10-10-10-13-6-13-4-13-3-14-1v33L744-17zM52 791l65-32H239l33 27 59-48-27-22V101L239 68v65H117V68L52 36V791zM765 134l-5 15-3 16-5 14-5 14-5 13-5 14-6 13-6 14-8 11 7 7 12-9 12-9 12-10 12-11 10-13 11-13 9-14 9-15 10-15 8-17-2-24-18-17-24 2-17 18-3 16zM587 217H437V146H548l39 43v28zM239 343H117V154H239V343zm348-34H437V238H587v71zm0 92H437V331H587v70zM239 540H117V364H239V540zm201-39-65-33V655l-18-10-19-11-6 8 15 15 14 17 12 16 12 16 10 15 9 17 9 16 8 16 6 18 4 11 5 12 32-18 17 3 49 8 48 8 47 7 46 8 46 8 44 7 44 8 43 9 38 8h-1 1l5 1 1-6 59-49 2-16-24 12-27-5-44-5-44-6-45-4-46-4-47-3-47-3-48-2-49-1H494l9-13-22-3-11-18-13-16-14-16-15-15-16-14-10-8 38-19H874l32 27 8-7-5 8-7 11-8 11-9 12-12 12-12 13-14 13-15 14-17 13 5 9 19-9 20-8 19-8 17-9 15-9 15-9 14-9 12-10 12-10 10-11 3-24-13-21-20-3 22-18-27-21V501l-64-33v33H440zM542 632H440V522H542V632zm166 0H606V522H708V632zm166 0H772V522H874V632zM239 738H117V562H239V738zm412-54-1 7-1 8-4 8-3 9-6 9-6 10-7 10-8 10-11 9 5 8 13-7 13-4 12-6 12-6 11-7 10-7 9-8 8-9 9-9 6-11-2-24-17-17-25 2-17 18v7z"/><glyph glyph-name="undefined" unicode="䂹" horiz-adv-x="1024" vert-adv-y="918" d="M883-42 843-11 807 22 776 57 750 94l-20 39-15 41-8 43-1 15-9-36-22-53-29-47-37-42-44-37-51-30-58-26-64-19-72-13-2 9 68 24 59 26 51 29 44 32 37 36 28 39 22 42 15 46 8 49 2 54V439l64-11 16-11-16-9V315l-1-11h2l9-41 11-39 7-16 27 27 21 20 21 19 18 18 19 17 16 16 16 15 14 15 10 10 4 4 42-49 2-19-20 6-16-11-18-13-20-13-21-14-22-14-24-15-25-15-27-15-11-5 2-4 18-34 22-31 25-30 30-28 34-26 39-24L963-8l27-15-60-48-47 29zM347 799l65-54V724H276l-13-50-17-54-17-52-20-51-16-35H303l33 27 59-49-27-21V73L303 41V95H201V30L137-2V369l-28-47-31-46-33-44-8 5 23 50 24 48 21 49 20 50 12 30v2l7 18 17 50 16 51 14 52 12 52 7 35H65v21H294l53 54zM303 460H201V116H303V460zM480 153l-20 14-5 24 13 20 11 6 9 6 8 9 8 10 7 13 5 16 5 18 3 21 3 23-1 25 10 1 6-25 6-23 3-23 1-22-1-21-4-20-6-19-10-17-11-17-16-14-24-5zM665 613l-5 8-7 9-8 9-9 10-11 10-11 10-14 11-14 11-3 2-4-4-30-25-32-24-10-7 13-3 16-5 14-6 15-7 13-7 13-7 12-8 12-9 11-10 6-23-11-22-24-6-22 11-4 10-6 10-7 9-8 10-9 10-10 10-10 10-12 11-12 12-3 2-11-7-36-20-38-18-5 8 32 26 30 27 29 26 27 27 25 27 24 28 21 29 20 29 18 31 15 26 5 10 53-36 9-18H692l-10-15-23-31-2-2H853l2 2 2 3 1-1 27 23 59-49-27-16-14-6-25-40-40-55-43-50-47-46-50-41-54-37-56-33-60-27-63-23-66-16-4 9 62 27 59 29 54 32 51 35 48 39 44 42 41 45 38 50 34 52 16 30H639l-5-5-26-29-14-13 16-4 17-5 16-6 15-6 14-6 13-6 12-7 11-8 10-8 7-24-11-21-24-7-22 11-3 7z"/><glyph glyph-name="undefined" unicode="䃗" horiz-adv-x="1024" vert-adv-y="918" d="M404-29v16H511l7 1 5 1 3 1h2l1 1 1 1 1 2 1 3V2l1 7V177l-2-3-13-22-14-21-14-20-13-20-14-18-14-18-13-16 4-21-19 4-53 38 8 8 31 27 17 14 16 15 17 16 17 16 18 17 18 18 20 18 3 3V460H378v22H575l18 118H486l-5-41-68-24 44 327 63-19 14-12-17-6-11-80H614l32 27 60-48-27-17-9-3-30-222h15l44 48 53-48V460H597V269l9 11 10 15 10 16 18 29 9 14 8 14 7 14 7 13 4 9 5 9 52-39 8-18-23 1-7-8-13-12-12-12-14-12-13-11-15-12-15-10-16-11-15-11-4 4V235l19-11 21-13 19-15 18-17 17-18 16-19 14-19 14-21 12-22V55L730 37H706L688 54l-8 21-8 20-9 19-11 19-12 18-12 18-14 18-14 17-3 2V9-5l-3-13-4-13-6-13-10-10-10-9-12-7-13-4-14-2-14-1v32L404-29zm398 4v15h76 4l4 1 3 1 3 3 1 2 1 4V7l1 7V863l59-10 15-11-15-10V14L953 1l-2-12-3-13-5-11-8-11-10-8-11-7-12-5-12-2-12-1v29L802-25zM319 799l65-54V724H265l-12-49-15-54-16-52-19-51-14-36h94l32 27 59-49-27-21V62L283 30V95H198V30L133-2V360l-20-37-28-47-30-44-9 5 21 49 20 49 19 49 18 49 9 26v7h2l6 17 15 50 14 51 12 52 11 52 6 36H72v21H265l54 54zm452-16 59-11 14-11-14-9V137l-59-30V783zM283 460H198V116h85V460zM447 262l-2 11-2 11-4 11-3 11-9 22-5 12-6 12-8 10 6 7 11-8 12-7 11-8 11-9 19-19 9-11 8-12 8-12 7-12-2-25-19-16-24 2-16 19-2 11zM612 724H503L489 621H596l16 103z"/><glyph glyph-name="undefined" unicode="䃚" horiz-adv-x="1024" vert-adv-y="918" d="M901-46 879-18 859 13 841 45 826 78l-13 36-10 37-8 37-1-6-14-43-18-40-21-38-24-34L689-4 659-32 624-55 587-75l-5 8 30 28 26 28 25 30 20 32 18 33 15 35 13 37 9 39 6 42 2 22H610v21H747V478H709l-10-31-11-31-13-29-14-28-16-27-17-24-9 4 8 29 8 28 7 29 7 30 6 31 6 31 5 33 4 32 3 35 2 29v3 3l2 7-5-9-16-32-19-29-20-28-22-25-8 5 13 31 11 30 13 31 11 33 10 32 10 34 9 35 8 36 7 37 5 33 1 5v1l2 10 62-22 14-14-20-7-4-19-11-38-12-37-14-35-3-8H844l53 54 65-54V661H690l-2-6-10-19 62-18 14-13-18-8-3-15-6-36-9-34-3-13H845l44 49 54-49V478H812V280h32l54 54 65-54V259H809l-1-12 4-13 13-36 14-35 15-32 17-30 18-28 19-27 20-24L950-1l23-20 10-9-58-43-24 27zM555 2l-5-12-7-12-9-10-10-9-11-7-12-6-13-4-14-2-13-1v32L353-13V3H461l7 1 6 1 4 1 4 2 3 2 5 5 5 10 1 6 5 20 3 26 4 32 3 36 2 42 2 47 1 53v58 63 15h-1v43H469l-2-32-6-71-10-68-13-64-16-60-20-56-22-53-27-49-30-43-34-39-7 6 24 44 22 46 19 49 17 52 14 55 11 58 9 62 5 65 3 69V654l65-11 16-11-16-9V509l-1-22h45l32 27 60-48-27-16V409l1-64-1-58-1-54-1-49-3-43-3-38-4-34-4-29-5-24-4-14zM277 799l65-54V724H238l-10-49-13-53-15-52-16-51-13-37h77l32 27 59-49-26-21V84L248 52V95H179V30L115-2V351l-14-28-25-46-28-45-9 5 18 48 18 49 17 49 16 50 7 24v9h2l5 16 14 51 12 51 10 51 10 52 5 37H63v21H223l54 54zM248 460H179V116h69V460zm92 194v21h94V853l64-11 16-11-16-10V675h17l44 49 54-49V654H340z"/><glyph glyph-name="undefined" unicode="䅴" horiz-adv-x="1024" vert-adv-y="918" d="M346 297l-7 13-8 12-9 12-10 13-11 12-12 11-13 13-9 8V-45L202-77V351l-10-27-19-46-22-43-23-42-25-40-27-37L46 81l-8 6 21 40 19 41 19 41 17 43 16 44 15 45 13 47 12 47 10 50 5 34H42v22H202V721l-22-5-39-9-43-8-45-7-3 10 43 17 39 15 38 15 34 14 32 14 29 13 27 13 23 13 20 12 13 9 4 3 13-21 29-30V771l-19 8-11-5-24-10-27-10-29-10-17-6V541h27l54 54 65-54V519H267V409l21-7 17-7 17-8 16-9 15-10 15-10 13-12 13-13 13-13 4-24-14-21-24-5-20 14-7 13zM883 178l-4 20-6 19-3 9-34-8-51-10-49-10-14-2V-43L657-75V185l-13-2-43-7-41-6-38-5-37-5-13-1-10-18-12 15-15 64h11l34 1 36 2 39 1 41 2 43 2 16 1 6 15 14 29 15 27 13 26 14 26 12 25 13 24 11 23 11 23 7 17v1l2 4 3 6 54-36 10-17-21-1-2-3-14-22-15-22-16-23-16-23-18-24-18-23-20-25-21-23-2-2h7l48 3 49 2 52 2 32 1-6 15-8 18-9 18-10 19-9 18-12 19 7 6 34-28 16-15 14-17 14-17 13-18 12-19 10-19 10-21 9-21-4-24-18-16-25 3-15 19-5 19zM560 144l57-33 10-16-21-3-1-1-12-21-14-19-14-19-16-19L532-4 515-22 496-38 477-54 456-69l-7 7 14 21 14 21L489-1l13 20 11 20 11 20 10 19 9 20 8 20 5 14 4 12zM853-18 847 2l-8 18-8 20-8 19-10 18-10 19-11 18-12 19-13 19 7 6 19-13 18-14 17-15 16-17 15-17 14-18 13-19 12-19L909 5l11-20-2-25-17-16-25 1-17 17-6 20zM593 294l-5 17-6 17-7 17-8 16-8 16-10 17-10 15-10 16-13 15 6 7 17-10 17-11 16-12 16-14 12-13 5 16 6 18 6 18 6 16 6 18 6 16 6 16 5 17 4 11 1 4v1l3 6 56-33 10-16-22-3-17-26-10-15-11-15-11-15-12-15-12-15-13-14-2-2 5-6 13-16 11-18 10-19 9-20-1-25-19-16-24 2-17 18-4 19zM429 420l-22 10-8 23 10 23 5 2 6 6 7 8 5 12 7 15 5 17 6 19 4 22 5 25 3 27h10l2-27 2-16H657V709H435v21H657V868l65-11 16-11-16-9V730H825l54 54 65-54V709H722V586H902l32 27 59-49-27-16-17-7-6-8-8-10-9-12-9-12-10-12-11-13-11-13-10-14-9 4 7 17 5 16 4 16 5 15 3 14 4 13 3 13 3 9H479l1-11V531 510l-2-19-4-17-5-17-7-15-10-14-23-8z"/><glyph glyph-name="undefined" unicode="䇎" horiz-adv-x="1024" vert-adv-y="918" d="M471 392l65-32H826l33 27 59-49-27-21V-19L826-52V2H536V-35L471-68V392zM36 85l10 4 36 13 36 14 36 13 38 14 37 13 22 9-4 1 5 53 6 51 6 47 6 45 5 42 5 39 4 37 3 33 3 31 2 23v2 3l2 11 62-19 15-13-19-8-1-8-7-31-7-33-8-36-9-39-10-41-11-44-13-47-14-49-15-48 9 3 39 14 39 14 40 13 40 12 4-9-36-22-36-21-37-19-36-19-72-36-36-17-34-18-35-16-15-7-4-20L71 30 36 85zm790 90H536V24H826V175zM135 257v35l-2 34-2 35-3 34-3 35-4 33-7 69-4 35 10 2 14-32 11-33 11-34 9-33 8-35 7-35 7-35 5-35 4-36 4-36-8-22-22-11-24 9-10 22-1 34zm691 81H536V197H826V338zM392 455v21H535V659H427v22H535V858l64-11 16-10-16-10V681H752V858l65-11 16-10-16-10V681h14l54 53 64-53V659H817V476h46l54 54 64-54V455H392zM752 659H599V476H752V659zM49 616v22H192V847l64-10 16-11-16-10V638h43l53 53 65-53V616H49z"/><glyph glyph-name="undefined" unicode="䇥" horiz-adv-x="1024" vert-adv-y="918" d="M50-38v21H227V323l65-11 16-11-16-10V-17H490V462H93v22H813l54 54 64-54V462H555V248H754l54 54 64-54V227H555V-17H856l54 54 64-54V-38H50zM337 581l-5 14-7 15-9 15-9 14-12 15-13 15-14 15-16 16-13 11H216l-12-22-21-34-24-33-25-32-28-29-31-29-33-26-7 7 25 33 24 33 22 33 19 33 19 33 16 34 14 34 12 36 10 36 8 31 3 14 60-24 14-14-20-6-6-20-14-37-14-29H426l54 54 64-54V711H266l16-7 20-10 18-12 17-13 16-14 14-15 13-16 12-17 9-17V565l-18-17-24 1-17 17-5 15zm425 0-5 14-7 15-9 15-10 14-11 15-13 15-14 15-16 16-13 11H638l-9-16-22-32-23-31-26-28-28-27-30-25-34-21-6 7 26 29 23 30 22 29 20 30 18 31 16 32 14 32 12 33 10 35 8 30 3 14 60-24 13-15-20-6-5-18-15-36-15-31H856l54 54 64-54V711H691l16-7 20-10 18-12 17-13 16-14 14-15 13-16 11-17 10-17-1-25-17-17-25 1-17 17-4 15z"/><glyph glyph-name="undefined" unicode="䇲" horiz-adv-x="1024" vert-adv-y="918" d="M549 365l-5-65-16-60H851l53 54 65-54V219H560l24-25 34-32 35-29 36-27 38-24 39-22 42-19 44-16 45-14L945-1l46-11-63-58-51 16-48 20-47 22-43 24-40 28-38 31-34 33-32 36-28 40-22 39H519l-17-38-37-52-45-46-55-40L301 8 228-22 146-45 56-63l-2 9 87 28L217 5l68 34 57 37 47 41 37 43 28 46 5 13H77v21H467l6 16 10 53 2 57v95H130v21H485V621l65-11 16-11-16-9V482H792l53 54 65-54V461H550V366l-1-1zm216 90 48-44 5-19-21 3-16-15-16-16-18-16-18-16-20-16-20-18-21-16-22-17-23-17-7 7 16 23 17 23 16 21 16 20 15 20 15 20 14 18 13 18 13 17 9 13 5 7zM309 299l-6 16-7 16-9 15-9 15-11 15-11 15-13 14-14 16-16 13 5 9 20-9 19-9 18-11 18-12 16-13 15-14 14-15 13-16 12-17 11-18V284l-17-17H332l-17 17-6 15zm29 320-6 12-6 13-8 12-10 13-12 13-12 13-15 14-16 14-13 8H217l-14-20-21-30-23-28-26-26-28-25-31-24-32-21-6 7 25 30 24 28 22 28 20 28 17 29 16 29 14 30 13 30 10 30 7 25 4 15 59-27 13-15-21-5-5-14-15-32-10-20H426l54 53 64-53V731H273l8-3 20-8 18-10 17-10 15-11 14-13 13-13 12-14 10-15 1-24-17-19H359l-18 16-3 12zm425 0-6 12-6 13-8 12-11 13-11 13-13 13-14 14-16 14-13 8H633l-12-14-20-21-21-20-23-18-26-17-27-14-6 8 20 22 19 22 17 21 16 22 15 22 12 22 11 22 8 22 8 23 4 18 4 15 60-27 12-15-20-5-3-7-12-25-14-25-7-9H856l54 53 64-53V731H698l8-3 19-8 19-10 16-10 16-11 14-13 13-13 12-14 10-15V610l-16-19H784l-18 16-3 12z"/><glyph glyph-name="undefined" unicode="䇿" horiz-adv-x="1024" vert-adv-y="918" d="M857-20 809-2 765 19 724 41 685 67 649 94l-33 29-30 32-26 34-16 26V-43L480-75V176l-34-34-38-34-41-31-43-28-45-26L232 1 183-19 131-35 78-48 75-38l49 22L171 8l45 24 43 26 40 29 37 30 36 31 33 34 31 36 6 8H275V162l-64-32V446l64-32H480v80H71v22H480V628l64-11 16-11-16-9V516H845l54 53 65-53V494H544V414H754l32 27 59-49-27-21V194l-64-32v64H552l25-22 31-27 32-24 35-23 36-21 39-19 40-17 42-16 45-13 47-12 45-12-63-57-49 17zM480 392H275V248H480V392zm274 0H544V248H754V392zM343 640l-5 12-7 11-8 12-9 13-12 12-13 13-14 13-16 13-13 8H222l-14-20-21-28-23-26-26-26-28-23-30-22-33-20-6 7 25 28 24 27 22 27 20 27 18 28 16 28 14 28 12 28 10 29 7 24 1 4v1l3 9 59-28 13-15-20-5-5-12-15-31-10-17H431l54 54 65-54V747H281l5-1 20-8 18-10 17-9 15-10 14-12 13-13 12-13 10-14 1-25-17-18-24-1-19 16-3 11zm425 0-5 12-7 11-8 12-10 13-11 12-13 13-14 13-17 13-12 8H638l-12-14-19-20-22-18-24-18-25-15-27-14-6 8 21 21 19 21 17 21 16 21 14 21 12 21 11 21 9 21 7 22 5 17 1 4v1l3 9 59-28 12-15-20-5-2-5-13-24-14-24-6-7H861l54 54 65-54V747H706l5-1 19-8 19-10 16-9 16-10 14-12 13-13 12-13 10-14 1-25-17-18-24-1-19 16-3 11z"/><glyph glyph-name="undefined" unicode="䈰" horiz-adv-x="1024" vert-adv-y="918" d="M733-25V-9h83l5 1 3 1 1 1 1 1 1 1 1 1 1 4 1 4V115H543V-38L478-70V412l65-32H654V630l64-11 17-10-17-10V380H830l33 27 59-48-27-22V12L894-2l-2-13-5-13-6-12-9-11-11-9-12-6-13-5-13-2-14-1v33L733-25zM117-22V-6h82l4 1 4 1 3 2v1l1 2 2 3V9l1 7V213l-15-7-33-14-32-13-12-5-6-20-15 12-31 58 10 3 34 10 33 10 67 20V449H81v21H214V623l64-11 16-10-16-10V470h18l54 54 64-54V449H278V286l35 10 33 10 33 8 33 8 4-9-30-18-30-16-31-16-31-15-16-7V16 2l-3-14-4-13-7-12-9-11-11-8-12-7-12-4-14-3H192v32L117-22zM830 239H543V137H830V239zM543 359V261H830v98H543zm-5 231 52-38 9-18H578l-3-3-16-21-17-21-19-20-20-20-21-19-21-19-23-17-25-17-26-15-7 7 20 23 18 23 18 22 17 21 16 21 15 22 15 20 12 21 13 22 8 16 1 2 2 3 3 5zM902 435l-8 14-11 14-11 15-14 14-15 14-17 15-18 15-20 16-22 15 5 8 25-8 25-9 22-10 22-10 20-12 18-13 18-12 15-14 15-15 13-16 4-24-14-20-24-4-21 14-7 13zM347 660l-5 10-6 10-8 11-10 11-11 11-13 12-15 12-16 12-11 6H227l-15-19-21-24-24-23-25-22-28-21-30-19-32-16-6 8 26 25 23 24 22 24 20 25 19 23 15 25 14 24 12 25 10 25 8 25 2 8 59-29 12-15-21-4-4-9-15-27-7-11H434l53 54 65-54V755H293l16-5 18-7 16-8 15-9 14-9 13-11 11-11 11-13 2-25-15-19-24-2-20 15-3 9zm423 0-5 10-6 10-8 11-10 11-11 11-13 12-15 12-16 12-11 6H647l-13-15-21-23-24-21-25-20-28-18-30-16-32-14-5 8 26 23 23 22 22 22 20 22 19 22 15 23 14 23 12 23 10 24 6 20 4 13 58-30 12-15-21-4-3-8-15-27-8-12H861l54 54 65-54V755H715l16-5 18-7 16-8 15-9 15-9 13-11 11-11 10-13 2-25-15-19-24-2-19 15-3 9z"/><glyph glyph-name="undefined" unicode="䈾" horiz-adv-x="1024" vert-adv-y="918" d="M747-27v16h82l4 1 4 1 1 1 1 1 1 1 2 2v3l1 5 1 7v99H550V-39L486-71V401l64-32H665V613l64-11 16-11-16-9V369H844l32 27 59-49-27-21V11L907-3l-2-14-4-13-7-12-9-11-11-8-12-7-13-4-13-3H822v32L747-27zM353 245l-7 9-8 9-9 10-11 9-11 9-12 10-14 10-11 8V-39L206-71V3e2l-13-24-19-35-22-33-23-32-25-30-28-29L46 90l-7 6 21 34 20 33 20 33 17 33 17 34 14 34 13 35 12 35 10 37 4 17H43v22H206V617l64-11 16-10-16-10V443h30l53 54 65-54V421H270V334l2-1 18-2 17-4 16-4 16-6 15-6 14-7 13-8 13-8 12-9 9-23-11-23-23-8-22 10-6 10zm491-14H550V131H844V231zM550 347V252H844v95H550zm-4 227 53-39 8-17H586l-3-4-16-20-18-20-19-20-20-19-21-18-22-18-23-17-25-16-26-15-6 7 19 23 19 22 18 21 17 21 17 21 15 21 15 20 13 21 12 21 9 16 5 9zM917 422l-9 13-11 14-11 14-14 14-16 14-17 15-18 14-21 16-22 15 4 8 26-8 24-8 24-10 22-10 19-11 19-12 18-13 16-13 15-15 13-15 4-24-14-21-24-4-20 14-7 13zM338 639l-5 11-6 12-9 12-10 13-11 12-13 13-14 13-17 13-11 8H216l-13-20-21-28-24-26-26-25-28-24-30-22-32-20-6 8 25 28 24 27 22 27 20 27 18 27 16 28 14 27 12 29 10 28 7 24 1 4v1l3 9 59-28 12-15-20-5-5-11-15-32-9-17H426l54 54 64-54V746H277l4-1 19-8 18-9 17-10 15-11 15-11 13-12 11-13 10-15 2-24-16-19-25-1-19 16-3 11zm425 0-5 11-7 12-8 12-10 13-11 12-13 13-15 13-16 13-12 8H639l-11-16-22-26-24-24-25-23-28-21-30-19-33-17-6 9 26 24 24 25 22 25 20 24 18 25 16 26 14 26 12 27 10 27 6 23 4 14 60-28 12-15-21-5-4-11-15-30-11-19H856l54 54 64-54V746H702l4-1 19-8 18-9 17-10 15-11 14-11 13-12 12-13 10-15 1-24-16-19-24-1-19 16-3 11z"/><glyph glyph-name="undefined" unicode="䊂" horiz-adv-x="1024" vert-adv-y="918" d="M381 230l-9 17-12 17-12 18-13 17-14 18-15 18-17 18-3 5V-48L221-81V320l-4-11-18-48-21-45-23-43-25-41-27-38L73 59 41 26l-8 7L57 70l22 40 20 39 19 42 18 43 16 45 14 46 12 49 11 50 6 36H42v21H221V873l65-11 16-11-16-10V481h56l53 54 65-54V460H286V386l21-12 21-14 19-15 19-15 18-16 17-16 16-16 14-17 14-17 4-24-14-21-24-4-20 14-10 17zm417 90v17h54 6l5 1 5 2 2 2 1 2 1 3 1 5v6V557H738V343l9-16 20-32 20-32 21-29 22-29 25-27 26-26 28-25 30-24 32-23 16-12-58-44-33 28-30 29-28 30-25 31-23 33-20 35-18 35-14 35V-45L674-77V240l-29-39-34-41-36-39-39-36-41-34-42-31L407-8 360-33l-6 8L396 9l39 33 37 35 36 37 33 38 31 39 30 42 27 43 25 45 20 40V557H539V267l-65-33V611l65-33H674V686H446v21H674V874l64-11 16-10-16-10V707H865l53 54 65-54V686H738V578H873l33 27 59-48-27-22V358l-1-13-2-14-5-13-6-12-9-11-11-8-12-7-13-5-14-2-13-1v32l-54 16zM387 798l58-30 12-15-21-4v-1l-11-21-10-22-12-22-13-22-13-23-15-25-16-24-17-25-19-24-8 4 9 30 10 28 10 27 9 26 9 25 8 24 8 23 7 22 7 21 4 15 1 4 1 1 2 8zM125 585l-2 19-3 19-5 19-5 21-6 22-6 23-8 24-8 25-9 26 9 5 16-23 16-21 13-23 12-21 12-20 10-21 9-20 8-20 7-20 6-19-6-24-20-14-24 6-14 20-2 17z"/><glyph glyph-name="undefined" unicode="䋏" horiz-adv-x="1024" vert-adv-y="918" d="M374 353l-4 20-3 8-8-3-31-12-32-11-16-5V-45L216-77V332l-17-4-34-8-34-7-35-7-12-2-10-19-12 15-18 63 11 1 33 3 50 4 11 19 24 40 24 39 24 38 24 39 46 78 45 78 19 34v1l3 4 3 5 52-38 9-17-20-1-14-20-25-38-27-37-26-38-28-37-28-36-29-36-29-35-31-35-4-4 62 7 33 4 66 9 32 3 7 1-4 12-7 18-8 18-10 17-9 17-10 17-13 15 7 8 34-24 16-14 15-15 14-16 13-18 12-20 8-14 18 43 19 49 17 48 17 48 16 47 14 46 12 47 11 46 9 46 6 40 3 16 62-22 14-14-19-7-7-27-12-46-15-47-10-26H871l53 54 65-54V664H707V455H837l54 54 65-54V433H707V224H849l53 53 65-53V202H707V-45L643-77V664H567l-18-46-21-47-22-46-25-46-26-46-30-45-1 1 8-16 8-23-3-24-19-15-24 3-15 19-5 20zM115 266l63-19 15-12-20-9-1-9-7-30-9-29-11-29-11-28-14-28-15-28L88 19 70-7 49-31l-9 5L52 3 63 32 73 60l9 28 9 28 7 28 5 27 5 28 3 28 2 22 2 17zM371 104l-4 22-6 21-5 20-7 19-7 19-8 18-10 18-9 18-11 17 6 7 18-13 16-14 16-15 14-17 13-18 13-19 10-21 11-22 9-24 8-24-5-24-20-14-24 4-15 20-3 22zM148 551l-7 16-7 16-9 16-10 15-11 16-12 15-14 16-14 15-18 14 5 8 21-9 21-9 19-11 18-12 5-4 5 11 10 23 11 22 33 66 30 66 8 17 2 5 3 6 54-36 10-17-21-1-2-3-14-21-14-21-14-20-15-20-31-40-17-19-17-18-10-9 1-1 16-15 14-16 14-17 11-19 11-19-1-24-17-17H170l-17 17-5 18z"/><glyph glyph-name="undefined" unicode="䌃" horiz-adv-x="1024" vert-adv-y="918" d="M558-29v16h53l7 1 5 1 5 1 2 2 1 5 1 5 1 7V181H483V-45L418-77V552l65-33h42V863l65-10 16-11-16-10V519h43l32 27 59-48-27-22V9L696-5l-2-13-4-13-7-13-9-10-10-9-13-7-13-4-13-2-14-1v32L558-29zM321 354l-4 20-1 6-3-2-27-12-28-11-11-4V-45L182-77V331l-38-11-30-7-38-8-9-20-13 15-19 63 10 1 30 3 29 3 13 1 10 19 20 39 20 39 21 38 21 39 20 38 20 40 19 38 19 39 17 35 1 1 1 3 3 6 55-35 9-18-20-1-35-58-23-37-23-37-24-38-25-36-25-36-27-36-27-35-4-4 52 7 29 4 28 4 29 5 29 3 4 1-4 13-6 19-7 17-7 16-8 17-9 17-10 15 7 7 15-12 16-12 15-14 13-15 12-17 12-18 11-19 10-20 8-21 8-22-4-24-20-15-24 4-15 20-3 20zM820-24V-8h64l7 1 5 1 5 2 1 1v1l1 1 1 4 2 5V863l64-10 16-11-16-10V14L969 1l-2-14-4-13-7-12-9-11-10-9-13-7-13-4-13-2-14-1v32L820-24zM94 266l63-18 15-13-18-8-2-9-7-30-7-29-10-29-10-28-12-28L92 46 77 19 60-6 41-31l-9 5L42 3 59 60l8 28 7 27 6 28 5 27 4 28 3 28 1 22 1 18zM318 105l-3 22-5 21-4 20-6 19-6 19-7 18-15 35-9 17 7 6 16-13 15-13 14-16 13-17 11-18 11-20 10-20 9-23 8-23 8-24-6-23-20-14-24 5-14 20-3 22zM765 783l65-11 16-11-16-9V138l-65-33V783zM633 342H483V202H633V342zM483 498V363H633V498H483zM452 795l61-25 12-15-19-6-3-9-11-28-11-29-12-28-13-27-13-27-15-26-16-26-17-24-19-24-8 5 9 28 9 28 10 28 9 27 17 56 15 56 12 52 3 14zM123 552l-5 17-7 16-7 15-8 16-9 15-10 15-12 15-12 15-15 14 6 8 19-9 18-10 17-11 16-13 2-1 4 9 8 23 27 66 9 22 26 66 6 16 1 4 1 1 3 7 56-34 10-16-21-2-1-3-13-21-12-20-13-21-27-40-14-20-15-19-16-18-8-10 2-2 14-15 13-16 12-17 11-19 9-19-2-24-18-17-24 2-17 18-4 17zm553 59-4 19-6 18-6 19-7 18-7 19-9 18-8 18-10 18-11 18 7 6 16-13 17-14 16-15 14-16 12-18 13-18 11-19 10-20 9-20 9-21-4-24-19-15-24 3-15 19-4 20z"/><glyph glyph-name="undefined" unicode="䌇" horiz-adv-x="1024" vert-adv-y="918" d="M340 354l-4 20-2 6-4-2-28-12-29-11-12-4V-45L196-77V331l-42-11-30-7-41-8-9-20-13 15-19 63 11 1 31 3 44 4 31 58 43 77 63 117 20 39 20 38 17 35 2 3v2l4 5 53-36 10-17-20-1-36-58-24-37-24-38-25-37-26-36-26-36-27-36-29-35-4-4 55 7 30 4 30 4 29 5 30 3 5 1-4 13-7 18-7 17-8 17-8 17-9 17-11 15 7 7 32-23 15-14 14-16 13-17 12-17 11-19 10-21 9-21 8-22-4-24-20-15-24 4-15 20-3 20zM897 178l-5 19-6 19-3 10-35-8-53-10-50-10-15-2V-43L665-75V186l-14-3-44-7-42-6-40-5-38-5-13-1-10-18-12 15-15 64h10l36 1 37 2 40 1 42 2 44 2 16 1 8 15 14 29 15 27 14 26 13 26 13 25 13 24 11 24 11 22 8 17 2 4 1 1 3 6 54-36 8-18H830l-2-4-15-21-15-23-16-22-17-24-19-23-18-23-20-25-22-23-2-2h8l49 3 51 2 53 2 33 1-6 15-8 18-10 18-9 19-11 18-12 19 7 6 18-13 17-14 16-16 15-17 14-17 13-17 12-20 11-19 9-21 10-21-4-24-18-16-25 3-15 19-5 19zM566 144l56-33 10-16-21-3-1-2-13-20-13-19-16-19-15-19L536-4 518-22 499-38 479-54 458-69l-7 7 15 21 14 21L493 0l13 20 11 19 11 20 10 19 9 20 9 20 5 15 2 3v2l3 6zM866-18 860 1l-8 19-8 19-9 19-10 19-11 18-11 19-12 19-13 19 7 7 18-14 19-14 17-15 17-17 15-17 14-17 14-19 12-20L922 6l11-21-1-25-18-16-25 1-17 17-6 20zM105 266l63-19 15-12-19-8-1-9-7-30-8-29-10-29-11-29-12-28-14-27L85 19 68-6 48-31l-8 5L59 32l9 28 9 28 7 28 6 27 5 28 4 27 3 28 1 23v3 2l2 12zM337 105l-4 22-4 20-5 21-6 19-7 18-7 19-16 35-9 17 7 6 15-13 16-13 14-16 13-16 13-19 11-20 10-20 9-23 9-22 7-24-5-24-20-14-24 4-14 21-3 22zM599 294l-5 17-6 17-15 33-9 16-10 17-10 15-12 16-12 15 5 7 18-10 17-11 17-12 16-13 13-14 5 16 13 36 6 17 7 17 12 33 9 27h-1l5 12 56-34 10-16-22-3-7-11-11-15-10-15-22-30-12-15-13-15-13-14-2-2 5-5 12-17 12-18 11-19 9-20-2-25-18-16-24 2-17 18-5 19zM430 420l-22 10-8 23 10 23 5 2 7 6 6 9 7 11 6 15 5 17 6 19 5 22 4 25 3 27h10l3-27 2-16H665V709H436v21H665V868l65-11 16-11-16-9V730H840l54 54 64-54V709H730V586H916l33 27 59-49-27-16-18-7-6-8-8-11-9-11-9-12-10-12-11-13-12-13-11-14-8 5 7 16 5 16 5 16 4 15 4 14 4 13 3 13 3 9H481l1-11V531l-1-21-1-19-4-17-5-17-7-15-11-14-23-8zM135 552l-6 16-7 16-7 16-9 16-10 15-10 15-12 15-13 15-15 14 5 8 19-9 19-9 18-12 16-12 3-2 4 9 9 23 9 22 19 44 28 66 9 22 7 17 4 11 56-34 10-16-21-2-1-3-13-21-13-21-27-40-14-20-30-39-25-28 2-2 14-15 14-16 12-17 11-18 10-20-2-24-18-17-24 2-17 18-4 17z"/><glyph glyph-name="undefined" unicode="䎰" horiz-adv-x="1024" vert-adv-y="918" d="M363 412l65-32H562l30 26 56-48-27-19V19L562-10V19H428V-45L363-77V412zM691 759l55-28 25 14 23 12 22 12 20 12 18 11 17 11 16 10 13 11 8 6-1 1 1-1 3 3 23-33 17-18V763l-20 8-16-7-19-8-21-8-21-7-23-8-25-6-26-7-28-6h-2V498H890l44 48 54-48V476H9e2V-40L835-72V476H750V363l-3-62-4-59-8-54-10-50-11-47-15-42-18-38-19-34-23-29-25-23-7 6 17 28 15 31 13 34 11 37 10 41 8 44 5 49 4 52 2 56-1 60V759zM273 190l-5 15-4 15-6 14-7 14-7 15-8 14-8 14-3 4V-40L161-72V196l-10-28-17-40-19-38L94 54 70 20 44-10 36-4 52 31 68 67l14 37 14 39 12 40 10 41 9 43 7 44 6 46 2 33H44v22H161V557H57v21H161V690l-18-2-31-3H79l-34 2-1 9 33 9 30 9 30 9 24 7V869l64-11 17-11-17-9V753l14 6 22 11 20 11 14 9 5 2 9-16 34-34 1-17-20 8-16-7-24-9-26-8-27-7-6-2V578h27l34 38 43-38V557H225V412h19l44 48 54-48V390H225V318l3-1 16-9 14-11 14-12 13-12 12-14 11-15 10-15 10-16 9-17-2-25-18-16-24 1-17 19-3 15zm289 1H428V41H562V191zm0 167H428V213H562V358zM331 471v21h69V675H351v22h49V874l59-11 15-10-15-10V697h63V874l59-11 15-10-15-10V697h6l24 32 33-32V675H581V492h25l24 33 32-33V471H331zM522 675H459V492h63V675z"/><glyph glyph-name="undefined" unicode="䓎" horiz-adv-x="1024" vert-adv-y="918" d="M360 41l-5 13-7 13-9 15-10 15-13 15-14 17-16 17-18 19-3 2-5-19-16-43-21-40-25-36L168-3 135-31 98-55 57-74l-5 8L86-38l30 28 26 30 22 33 18 34 15 36 11 39 8 42 4 44V613l64-10 16-11-16-10V382l2 2 17 17 17 15 15 15 15 15 14 13 25 25 7 7-1 1 5 4 40-50 3-20-21 7-10-6-16-9-17-10-18-11-19-11-20-11-21-12-17-8V295l-4-52-8-49-3-11 9-5 23-12 21-13 20-13 17-14 16-13 14-14 13-14 12-15 9-15V30L406 12H381L364 30l-4 11zM840-46l-9-9-10-8-11-7-11-6-12-6-12-3-13-3-13-2H736v32L629-42v16H736l8 1 7 1 7 1 7 2 6 3 5 3 6 4 6 4 5 5 6 6 10 16 11 22 10 30 9 34 9 41 8 47 5 52 6 59 4 64 2 57H566l-5-6-23-31-25-29-26-27-29-24-30-21-6 7 22 29 21 29 20 29 19 30 19 32 17 33 16 34 15 36 14 36 11 34h-1l5 13 33-17V732H395V640l-64-33V732H44v21H331V871l64-10 16-11-16-10V753H633V871l65-10 16-11-16-10V753H866l54 54 65-54V732H698V640l-59-30 19-10 12-16-20-3-8-20-19-38-19-36-20-34-4-5H873l33 27 59-49-27-16h-1l-2-44-4-66-5-60-6-55-9-50-9-44-10-39-13-34-14-29-16-26-9-9zM714 270l65-53V195H458v22H660l54 53zM97 231l-23 8-11 22 8 23 10 10 9 10 8 13 7 14 5 17 5 18 3 21 3 22 1 24-2 27 10 1 8-25 7-25 5-24 2-23 1-23-2-21-5-22-6-20-9-19-12-18-22-10z"/><glyph glyph-name="undefined" unicode="䔠" horiz-adv-x="1024" vert-adv-y="918" d="M751-25V-9h75l6 1h5l3 2 2 1h1l1 1 1 2 1 4 1 4v7V118H551V-37L486-69V417l65-32H667V638l64-11 16-11-16-10V385H847l33 27 59-49-27-21V13L911-1l-2-14-5-12-7-12-8-11-11-9-12-7-13-4-14-3H826v32L751-25zM351 258l-7 9-8 10-9 10-11 9-11 10-12 10-14 9-12 9V-33L202-65V314l-12-24-20-36-21-34-24-33-25-32-28-30L42 97l-7 6 21 35 20 33 19 35 18 34 17 35 15 36 13 36 12 36 10 38 4 19H38v22H202V642l65-11 16-11-16-9V462h32l53 54 65-54V440H267V349l3-1 18-2 17-5 17-4 15-6 15-7 15-7 13-8 13-8 13-10 8-23-11-22-23-8-22 10-7 10zm496-16H551V139H847V242zM551 363V264H847v99H551zm-4 234 53-38 8-18H587l-3-4-17-21-17-21-20-20-20-20-21-20-22-18-24-18-25-17-26-15-7 7 20 24 19 22 18 22 18 22 17 21 15 21 15 22 13 21 13 22 9 16 5 10zM921 441l-9 14-11 14-12 15-14 14-16 15-17 14-19 15-20 17-22 15 4 8 26-8 25-9 23-10 22-11 21-11 19-13 17-13 16-15 15-15 14-15 4-24-14-21-24-4-21 14-7 14zM630 872l65-11 16-11-16-9V766H861l54 53 65-53V744H695V663l-65-32V744H394V663l-65-32V744H44v22H329V872l65-11 16-11-16-9V766H630V872z"/><glyph glyph-name="undefined" unicode="䕴" horiz-adv-x="1024" vert-adv-y="918" d="M705 527l6 10 10 17 9 16 9 15 7 14 8 14 6 13 6 12 4 11 2 5-1 1 5 9 54-37 8-17H814l-2-3-22-22-11-11-13-11-14-12-14-12-16-12H830l53 54 65-54V506H757V409h69l44 48 53-48V387H757V294h69l44 48 53-48V272H757V168h97l54 54 64-54V147H554l-65-32V452l-15-17-27-24-28-24-31-21-6 7 14 18H261V308h2l17-3 16-4 17-6 15-6 15-7 14-7 13-8 12-9 12-11 7-23-12-22-23-7-22 11-6 10-6 10-8 9-8 10-10 10-11 10-11 10-13 10-10 8V-40L196-73V258l-9-19-19-36-21-34-23-32-24-30L73 78 44 53l-7 6L57 91l20 33 18 32 16 33 16 35 15 35 12 36 11 37 10 38 4 21H41v21H196V545l-21-4-38-6-42-5-44-4-2 10 42 14 39 13 37 12 34 12 31 11 28 11 26 10 23 11 20 10 13 7 4 2 7-13 39-36 1-18-20 9-20-8-23-7-26-8-29-7-14-3V412h24l53 54 65-54V4e2l1 2 22 28 21 29 20 28 18 28 4 8v4h3l10 17 15 29 14 29 13 30 10 25 5 12 57-31 11-17-21-3-6-12-18-31-18-29-13-19H705zM422-63 402-49l-2 25L415-5l8 3 8 4 8 6 8 8 7 10 8 12 7 14 6 16 7 19 3 20h10V85l2-20V46l-2-19-3-17-5-16-7-16-9-14-11-13-14-12-24-2zM922-23l-2 12-4 13-5 12-6 13-8 14-8 15-10 15-11 16-14 15 6 7 18-12 17-10 15-11 15-12 13-12 12-13 11-13 9-14 9-14 6-15-3-24-19-15-25 3-15 20-1 10zM754-11V-1l-1 11-1 11-3 12-5 12-5 13-7 13-7 14-11 13 7 7 13-11 14-9 13-10 12-11 10-12 10-12 8-13 7-13 5-14 5-15-8-23-22-11-23 7-12 22 1 9zM645-42l-24-7-21 11-8 23 3 10 2 9 1 11 1 10V36l-2 11-2 13-3 12-4 13-8 13 8 6 10-11 11-10 10-11 9-11 8-13 6-12 5-13 5-14 2-14 2-15-11-22zm47 314H554V168H692V272zm0 115H554V294H692v93zm0 119H554V409H692v97zM630 877l65-11 16-11-16-9V780H861l54 53 65-53V758H695V686l-65-32V758H394V686l-65-32V758H44v22H329v97l65-11 16-11-16-9V780H630v97z"/><glyph glyph-name="undefined" unicode="䖛" horiz-adv-x="1024" vert-adv-y="918" d="M281 283l-18-11-2-33-5-50-8-47-11-42-14-38-17-35L186-2 164-27 139-46 111-60l-5 8 19 21L142-8l15 25 12 28 11 32 8 35 6 40 5 43 1 47v64l65-12 16-11zM921 30l32 135h11L953 30l19-13L985-2 972-22 953-34H388l-14 1-13 2-13 4-12 7-11 9-9 10-7 13-4 13-2 13-1 14V310l65-11 16-11-16-10V45l1-5 2-5 2-2 5-1 4-1 7-1H921zM875 282l-3 15-5 16-3 8-28-7-47-10-44-8-10-1V96L671 63V284l-9-2-39-6-37-5-35-5-33-4-9-1-10-19-12 16-15 63 11 2h31l32 1 35 1 37 1 39 2 16 1 5 9 12 25 12 24 13 22 12 22 11 22 10 20 10 20 9 19 7 14 5 11 53-38 9-17H820l-13-19-14-18-14-19-15-20-17-19-17-20-17-20-18-18 3 1 43 1 45 2 47 1 26 1-3 10-7 15-8 16-9 15-8 17-11 15 7 7 15-12 16-12 14-12 13-13 13-15 11-15 11-16 10-16 9-17 8-17-2-25-19-15-24 2-16 19-4 16zM584 255l55-34 10-16-22-2-10-16-13-16-14-16-13-16-16-14-16-15-17-13-36-26-7 7 14 18 11 17 12 18 10 17 11 17 9 17 8 17 8 17 7 16 4 12 2 5 3 6zM849 114l-6 16-13 32-7 16-9 16-8 16-10 16-10 16-12 16 6 7 16-12 17-11 16-12 14-14 14-14 13-15 12-15 11-16 10-17 10-18-1-24-17-17-25 1-17 17-4 16zM367 406l32 135h11L399 406l19-12 13-20-13-19-19-13H292l-14 1-14 2-13 4-12 7-11 9-8 11-7 12-5 13-2 13v14 39l-65-16V256l-1-1-4-47-5-43-6-40-7-38-9-34-9-31L89-6 77-31 64-52 48-69l-8 5 5 21 5 22L56 4l4 28 5 30 3 33 3 36 3 39 1 42 2 46V681l64-33h65V869l64-11 16-11-16-9V761h69l44 49 54-49V740H270V648H383l32 27 59-48-27-16-12-5-1-4-6-11-7-10-7-11-7-10-9-11-9-10-8-11-8 5 5 12 2 13 2 12 2 12v2h-1v43H141V473l65 16V6e2l64-11 16-11-16-9V504l10 3 33 56 62-33 5-21-110-27V421l1-4 2-5 2-2 5-2 5-1 7-1h75zm246-27-5 15-5 14-5 14-6 14-8 13-8 14-9 14-9 14-12 12 6 8 15-9 15-9 15-10 14-11 11-10 4 12 5 15 6 15 5 15 10 29 9 28 3 8h-1l5 11 56-34 9-16-22-2-5-7-9-12-10-13-20-24-11-13-11-12-12-11 3-4 12-14 10-15 10-15 9-17-2-25-18-16-25 1-16 18-3 15zM468 484l-22 11-8 23 11 22 4 1 5 4 6 6 6 9 5 11 5 14 5 17 5 18 5 21 1 23h10l2-23 2-11H671V731H472v22H671V868l64-11 16-10-16-10V753h80l53 53 65-53V731H735V630H892l32 27 59-48-26-17-21-8-2-3-8-9-8-9-8-10-9-10-11-11-10-11-9-12-8 5 6 14 4 14 4 14 4 13 3 12 3 12 2 11 1 5H513l1-10 1-18V563l-2-16-3-15-4-15-6-13-9-13-23-7z"/><glyph glyph-name="undefined" unicode="䜺" horiz-adv-x="1024" vert-adv-y="918" d="M505 392l65-32H841l32 27 59-49-26-21V-19L841-52V2H570V-35L505-68V392zM35 39l11 2 36 6 38 7 39 8 40 8 40 10 5 1 2 6 10 32 10 30 10 29 9 28 9 27 7 26 7 24 6 24 4 18 4 14 59-27 13-15-21-5-1-3-9-25-11-24-12-25-12-26-14-27-15-28-17-28-12-19 10 2 43 10 43 11 44 11 46 11 4-9-43-21-42-19-41-17-42-16-41-15-40-13-39-12L134-2 95-12 80-16 72-35 58-22 35 39zM841 175H570V24H841V175zM138 153l-2 18-3 19-4 18-5 18-6 19-6 18-16 38-11 18 8 6 16-15 15-15 15-16 13-17 11-18 11-19 9-20 8-21 7-21 4-21-6-24-22-12-23 6-13 22v19zM841 338H570V197H841V338zM82 670l65-32H329l32 26 60-48-27-21V396l-65-33v33H147L82 363V670zm247-54H147V417H329V616zM431 455v21H565V659H465v22H565V858l64-11 16-10-16-10V681H771V858l65-11 16-10-16-10V681h26l44 48 53-48V659H836V476h36l53 54 65-54V455H431zM771 659H629V476H771V659zM370 831l64-54V756H47v21H316l54 54z"/><glyph glyph-name="undefined" unicode="䝫" horiz-adv-x="1024" vert-adv-y="918" d="M571 874l61-21 14-14-19-7-6-26-12-47-15-47-8-26H863l53 54 65-54V664H713V455H851l44 48 54-48V433H713V224H842l53 53 65-53V202H713V-45L648-77V664H578l-17-46-20-47-21-46-24-46-25-46-29-45-8 5 18 49 18 49 17 48 16 47 14 47 14 47 12 46 10 47 8 45 7 46 3 10zM171 168l57-31 10-16-20-3-2-5-14-23-14-22-16-22-18-22L136 3 116-18 94-38 71-58 45-75l-7 7L56-43 72-19 88 4l15 23 14 24 13 22 11 22 10 22 9 22 6 17 5 12zM370 22l-5 15-7 15-7 15-8 15-9 15-10 15-11 15-12 16-14 15 6 8 18-11 18-10 16-11 16-13 15-13 13-14 13-14 12-16 10-17 10-17V6L416-11H392L374 6l-4 16zM86 850l65-32H344l33 27 59-49-27-21V214l-65-32v32H151V176L86 144V850zM344 416H151V235H344V416zm0 190H151V438H344V606zm0 190H151V628H344V796z"/><glyph glyph-name="undefined" unicode="䞢" horiz-adv-x="1024" vert-adv-y="918" d="M784-49 650-45 531-34 427-17 338 8 264 39 204 77l-42 45-25 52v1l-8-40-11-44-12-40L92 14 76-19 58-49 37-74l-8 5L39-40 50-9l9 34 8 37 7 39 6 43 5 45 4 48 2 52 1 55 1 12 64-15 15-11-17-10-3-35-6-53-2-12 14-38 29-40 41-34 10-5V476l64-10 16-11-16-10V288h80l44 49 54-49V267H302V73l50-17 85-18L538 25l115-7H783l147 5 60 2-58-73-148-1zM601 873l62-21 15-13-19-8-5-20-10-42-12-41-6-18H874l54 53 64-53V688H736V509H853l44 48 54-48V487H736V308H875l44 48 54-48V286H736V79L672 47V688H619h-1l-14-41-17-40-17-39-20-39-22-38-25-37-8 4 14 41 14 41 14 41 12 40 11 41 11 40 9 40 7 40 7 40 5 35 2 16zM50 476v22H238V670H66v21H238V874l64-11 16-10-16-10V691h54l54 54 64-54V670H302V498h65l54 54 64-54V476H50z"/><glyph glyph-name="undefined" unicode="䞰" horiz-adv-x="1024" vert-adv-y="918" d="M784-49 650-45 531-34 427-17 338 8 264 39 204 77l-42 45-25 52v1l-8-40-11-44-12-40L92 14 76-19 58-49 37-74l-8 5L39-40 50-9l9 34 8 37 7 39 6 43 5 45 4 48 2 52 1 55 1 12 64-15 15-11-17-10-3-35-6-53-2-12 14-38 29-40 41-34 10-5V476l64-10 16-11-16-10V288h80l44 49 54-49V267H302V73l50-17 85-18L538 25l115-7H783l147 5 60 2-58-73-148-1zM648 520H487v22H703V705H542v22H703V874l64-11 16-10-16-10V727h42l54 54 65-54V705H767V542h97l54 54 64-54V520H831V151l-1-13-2-13-4-12-5-12-8-10-9-9-11-7-12-5-12-2-13-1V97l-83 14v15h88l4 1 2 1 1 1 1 1 1 1 1 2 1 5 1 5 1 8V520H707V369l-3-43-7-41-9-38-12-35-16-33-18-30-22-26-25-24-29-18-30-16-5 8 24 22 21 24 18 24 16 26 13 28 10 30 7 32 5 35 3 36V520zm-91-94 62-21 14-14-20-7-2-8-8-27-10-25-11-26-12-23-14-23-15-21-16-20-18-18-19-16-7 6 11 22 10 21 9 22 10 22 8 23 7 23 6 24 5 24 5 26 3 21h-1l3 15zM923 242l-5 21-5 20-6 20-6 19-8 19-8 18-18 37-11 17 7 7 17-14 16-14 15-15 14-17 14-18 12-19 11-20 10-22 9-22 8-24-3-24-20-14-24 4-15 19-4 22zM50 476v22H238V670H66v21H238V874l64-11 16-10-16-10V691h54l54 54 64-54V670H302V498h65l54 54 64-54V476H50z"/><glyph glyph-name="undefined" unicode="䞽" horiz-adv-x="1024" vert-adv-y="918" d="M757-40 610-37 487-26 384-8 299 18 231 53 179 98h-2v3l-35 52-21 61-6-47-7-46-9-43L88 38 75-1 60-36 43-69l-9 4 7 35L48 7l5 38 5 40 5 42 2 44 2 47 1 48-1 50-2 47v18l65-11 16-10-17-11-1-33-2-46 15-46 29-55 7-8V492H44v21H177V678H55v21H177V870l65-11 16-11-16-9V699h14l44 49 54-49V678H242V513h20l44 49 53-49V492H242l16-11-16-10V306h35l34 38 43-38V284H242V101l12-10 62-26 79-19 98-13 120-6H756l169 5 62 2-59-73-171-1zM883 259l-4 17-6 16-5 10-37-7-54-11-52-8-17-2V66L644 34V264l-17-2-46-6-43-5-41-6-39-4-14-2-10-18-12 16-15 64 11 1h36l39 1 41 1 43 2 46 2h18l6 12 16 26 15 24 15 24 14 23 14 22 12 22 13 21 11 20 8 15 1 1 2 3 3 5 51-39 8-18-21 1-1-2-14-19-16-19-17-20-17-20-19-21-19-21-21-20-19-19h5l50 2 53 2 55 1 34 1-5 10-8 16-10 17-10 17-12 16-12 17 6 7 17-12 18-12 16-13 16-14 14-15 13-16 12-16 11-17 10-18 10-19-2-24-18-16-25 1-16 18-5 17zM542 233l54-36 9-17-22-1-12-18-15-17-15-16-17-16-17-16-18-15-19-14-42-26-7 8 16 18 15 19 14 18 13 18 13 18 11 18 11 17 9 17 8 18 6 12-1 1 6 10zM852 84l-7 18-16 33-9 17-11 16-11 17-12 17-12 17-15 17 7 8 37-24 18-13 16-14 16-15 15-15 13-17 13-16 12-18 11-18V69L901 51H876L858 67l-6 17zM576 360l-6 16-6 15-7 14-8 15-10 14-10 15-11 14-12 15-14 13 5 8 36-18 17-10 16-11 15-13 1-1 6 15 7 16 6 15 7 16 13 30 6 15 6 15 3 9 5 10 54-36 9-17-23-1-6-8-10-13-11-13-23-26-12-13-12-12-14-13 1-2 13-15 13-15 10-16 10-18-1-25-17-17H597l-17 18-4 15zM413 471l-22 12-6 23 11 22 5 2 6 4 6 7 6 10 6 11 6 15 5 17 5 19 5 22 1 24h10l3-24 2-12H644V728H406v22H644V871l64-11 16-11-16-9V750H827l54 54 64-54V728H708V623H889l33 26 59-48-27-16-21-9-3-4-8-9-9-10-19-21-11-11-12-11-10-13-8 6 7 14 5 15 10 28 7 25 4 11 1 5H464l1-10 1-20-1-18-2-17-4-16-5-15-8-14-9-13-24-7z"/><glyph glyph-name="undefined" unicode="䟄" horiz-adv-x="1024" vert-adv-y="918" d="M781-49 644-45 523-34 418-17 327 8 252 39 215 62h-4v3L193 77l-43 45-23 49-6-36-10-43-11-40L87 15 72-19 56-48 37-74l-8 5 8 29L45-9l8 34 7 36 6 40 5 42 4 46 3 48 2 52 1 55 1 12 64-15 15-11-17-10-2-35-6-53-2-14 12-36 28-40 37-30V476l64-10 17-11-17-10V288h80l33 38 43-38V267H275V78l67-22 18-4-2 7 33 16 30 15 30 15 27 15 26 15 25 15 23 15 21 15 20 16 13 11v1l4 3 40-51 2-19-20 7-4-2-24-14-25-14-27-12-28-12-29-11-31-10-33-10-34-8-30-5 61-12L530 25l117-7H781l149 5 60 2-58-73-151-1zM897 73 882 87l-16 13-17 13-19 13-20 13-22 13-22 13-23 13-25 14 3 9 28-5 27-6 26-7 25-9 24-9 22-10 22-10 20-12 20-13 18-12 11-23-7-23-23-11-23 8-14 14zM495 546l64-33H830l32 27 59-48-27-22V226l-64-32v32H559l-64-32V546zM830 318H559V247H830v71zm0 87H559V340H830v65zm0 87H559V427H830v65zM44 476v22H211V670H60v21H211V874l64-11 17-10-17-10V691h33l53 54 65-54V670H275V498h43l54 54 65-54V476H44zm380 97v22H657v76H470v21H657v72H444v21H657v83l65-11 16-10-16-10V785H846l54 54 64-54V764H722V692H822l44 49 54-49V671H722V595H908l34 37 43-37V573H424z"/><glyph glyph-name="undefined" unicode="䣢" horiz-adv-x="1024" vert-adv-y="918" d="M954 127l-6-11-8-11-9-10-10-8-12-7-12-6-12-3-14-2-13-1v32l-54 16v16h54l7 1 6 1 5 1 4 2 3 2 4 3 3 3 3 4 3 6 3 7 7 20 5 27 3 32v34l-5 36-9 36-16 36-21 35-30 33-36 35-8 4 13 35 14 34 13 33 11 32 12 31 11 30 10 30 9 29 8 27 2 6H735V-45L670-77V831l65-32H896l33 27 59-49-27-16-10-4-2-6-13-28-13-28-14-29-15-29-16-30-18-30-19-31-20-30-17-23 47-19 39-32 31-37 22-41 15-41 9-42 4-40V203l-5-34-6-29-6-13zM241 202l-5 15-5 15-6 14-6 14-7 14-6 12V-45L141-77V180l-5-15-16-40-18-39L83 50 61 16 36-15l-8 5L43 26 57 62l13 38 12 38 11 40 9 42 8 43 6 45 6 46 2 34H36v21H141V555H48v22h93V688l-13-1-29-3H68l-31 1-1 10 29 9 29 8 27 9 20 7V869l65-11 16-11-16-9V754l8 4 20 10 18 12 13 8 4 3 12-20 29-31 1-18-19 8-11-5-23-9-24-8-25-7-3-1V577h16l34 37 43-37V555H206V409h28l33 38 43-38V388H206V313l15-9 14-11 13-12 11-13 12-14 10-14 11-15 8-16 8-18-2-24-18-16-25 2-16 19-6 30zm96 195 64-32H534l32 27 59-48-27-22V-27L534-59V-5H401V-43L337-75V397zM534 174H401V16H534V174zm0 170H401V196H534V344zM283 459v21h91V672H313v22h61V855l59-11 14-11-14-9V694h69V855l59-11 15-11-15-9V694h5l24 32 32-32V672H561V480h14l34 38 43-38V459H283zM502 672H433V480h69V672z"/><glyph glyph-name="undefined" unicode="䥘" horiz-adv-x="1024" vert-adv-y="918" d="M463 339l64-32H840l33 27 59-49-27-21V-25L840-57V-3H527V-41L463-73V339zM339 662l-5 13-7 14-9 13-10 14-11 14-13 14-13 14-15 15-9 7-10-25-19-44-19-42-22-41-24-40-12-20H278l44 48 53-48V546H268V396h14l54 53 64-53V374H268V70l20 5 33 8 35 9 35 7 3-9-31-17-32-17-32-15-32-14-32-12L202 2 170-10 137-22 104-32 93-36 87-55 72-42 46 17l10 3 66 14 32 7 34 8 15 4V374H67v22H203V546H127l-25-35-29-35-31-35-7 6 43 80 20 40 19 40 19 41 17 41 15 43 14 42 14 44 11 44 3 9 60-27 12-14-19-6-9-25-3-8 13-5 20-9 19-9 18-11 16-11 15-12 15-13 13-14 12-15 10-15 1-24-16-19-25-1-18 16-5 13zM840 141H527V18H840V141zm-724 0v16l-2 16-3 16-3 16-4 16-5 17-7 16-7 17-10 16 7 6 14-13 15-13 13-14 12-15 10-17 10-16 8-18 7-19 5-19 4-19-8-24-21-11-23 8-12 22v16zM330 312l58-28 12-16-22-4-6-12-8-17-10-16-9-15-10-16-11-16-11-16-12-15-12-16-8 5 6 18 5 19 5 18 10 35 4 18 5 16 4 17 3 17 3 11h-1l5 13zm510-27H527V162H840V285zm64 50-20 17-19 18-16 18-16 18-12 19-11 19-8 19-9-19-19-28-23-26-24-22-29-19-31-15-34-11-4 9 28 20 24 21 21 21 19 23 15 24 13 26 9 27 7 30 5 31 2 28 1 17 64-16 15-12-18-9-3-18-10-36-7-19 11-12 14-14 14-12 15-13 17-13 17-12 19-12 21-12 22-11 23-14-60-47-23 17zM628 391l-6 9-6 9-7 9-8 9-9 10-10 10-11 10-5 4-9-21-18-28-22-25-25-22-28-17-32-14-34-8-4 9 29 18 25 19 21 20 17 21 14 23 11 25 8 27 5 28 1 32v29l-1 18 65-11 16-10-17-11-1-19-7-38-8-29 9-2 15-5 14-4 13-6 13-6 13-7 11-7 11-8 11-8 7-23-11-23-24-7-22 12-4 8zM904 602l-20 17-19 18-16 18-16 18-12 19-11 19-8 19-9-19-19-28-23-26-24-22-29-18-31-15-34-12-4 9 28 20 24 21 21 21 19 23 15 25 13 25 9 27 7 30 5 31 2 28 1 18 64-17 15-12-18-9-3-18-10-36-7-18 11-13 14-13 14-13 15-13 17-12 17-13 19-12 21-12 22-11 23-14-60-47-23 17zM628 659l-6 8-6 9-7 9-8 10-9 9-10 10-11 10-5 5-9-22-18-28-22-25-25-21-28-18-32-13-34-9-4 9 29 18 25 19 21 20 17 22 14 22 11 25 8 27 5 29 1 31v29l-1 18 65-10 16-11-17-11-1-19-7-37-8-29 9-3 15-4 14-5 13-6 13-6 13-7 11-7 22-16 7-23-11-22-24-7-22 11-4 9z"/><glyph glyph-name="undefined" unicode="䥣" horiz-adv-x="1024" vert-adv-y="918" d="M340-11l-2 7-2 8-4 8-4 9-11 18-7 9-7 11-10 8 6 8 11-7 12-4 12-4 11-6 11-6 9-6 9-7 10-8 8-8 7-8 1-24-15-19-25-2-19 16-1 7zM889 319l-52 15-48 18-43 22-15 9-1-1-49-23-52-20-55-15 44-26 38-20 39-20 40-18 40-16 42-15 42-14 43-12 43-11 45-12-62-56-46 14-44 17-43 18-42 20-40 22-40 24-28 19 50-41V175H550V105H726l44 49 54-49V84H550V-34h77l4 4 7 14L652 9l6 12 7 11 6 12 6 11 5 11 3 6-2 1 6 8 50-41 7-18-24 1-2-1-10-10-10-8-11-9-24-18-12-8-6-3H829l54 53 64-53V-56H93v22H485V84H216v21H485v70H367v22H577l52 52-29 23-34 30-16 17-9-1-8-8-40-30-43-29-47-28-49-27-54-25-57-23-60-21-65-19L51 90l-3 9 64 27 60 28 57 27 53 27 50 28 46 29 42 30 24 19v1l2 1 12 9 34 31 27 28 1 1 2 3h1l-50-12-49-10-49-10-47-8-47-8-45-7-45-7-43-7-43-6-20-2-10-18-11 15-17 63 11 1 41 3 43 2 44 3 44 2 24 2v86H75v22H254v89l64-11 17-10-17-10V492h49l54 53v37H152V566L87 533V804l48-8 16 9 34 18 18 8 36 17 19 9 34 16 5 2 3-9 48-41 2-17-22 10-10-4-41-10-41-9-20-4-39-7-9-1-16-10V705h47l33 37 43-37V683H152V603H421v80H318v22H421v77H318v21H421l32 27 59-48-27-22V571l-59-30 60-49V470H318V388h5l48 3 49 3 51 2 51 1 1-9 1 1 38-39 2 1 52 21 48 23 27 17-17 14-27 31-22 34-16 37-8 35H546v21H844l3 3v1l1-1 28 24 60-48-27-16-15-6-14-25-31-39-35-36-30-23 26-10 44-13 49-10 54-8 53-8-64-62-57 12zM835 563H614l15-25 22-29 24-26 28-22 30-19 11 7 32 31 28 33 24 36 7 14zM593 861l65-33H796l32 27 59-48-27-22V697v-7-5-3l1-3v-2l2-2 2-2 3-3 6-1 8-1h63l24 70h11l-11-70 14-10 10-14-10-15-14-10H869l-13 1-12 4-12 5-10 8-9 10-7 11-6 12-3 13-1 14V807H658V742l-4-23-8-21-10-19-13-18-16-16-19-14-21-14-23-12-26-10-28-10-3 9 23 16 21 16 18 16 15 16 11 16 9 14 5 15 4 13 1 13-1 13V861z"/><glyph glyph-name="undefined" unicode="䧿" horiz-adv-x="1024" vert-adv-y="918" d="M91 412l65-32H346l33 26 59-48-27-21V-13L346-45V19H156V-45L91-77V412zM730 638l6 17 9 24 8 24 9 22 9 21 7 21 8 20 7 18 7 18 4 12 1 4 1 1 3 7 55-34 10-17-21-2-9-14-11-17-24-37-13-19-14-20-15-20-15-21-7-8H850l54 53 64-53V616H788V444h52l54 54 64-54V423H788V245h52l54 54 64-54V224H788V25h83l53 53 65-53V3H602V-34L537-67V577l-13-19-26-32-27-30-2-2 1-2V471H444l-2-3-4 3H40v21h95V675H66v22h69V874l65-11 16-10-16-10V697h94V874l65-11 16-10-16-10V697h11l33 37 43-37V675H359V492h55l24 33 16-17 20 34 20 35 19 36 18 37 17 38 17 39 15 41 14 42 12 38 4 13 59-29 12-15-20-4-9-25-19-42-19-41-21-39-17-28H730zm-6-414H602V25H724V224zM346 191H156V41H346V191zm0 167H156V213H346V358zm378 65H602V245H724V423zm0 193H602V444H724V616zM294 675H2e2V492h94V675z"/><glyph glyph-name="undefined" unicode="䨛" horiz-adv-x="1024" vert-adv-y="918" d="M372 186l-8 8-8 9-10 8-11 9-12 8-14 9-14 9-14 9V-48L216-81V239l-15-25-21-30-22-28-24-27-26-26L79 78 49 56l-7 7L65 93l21 29 20 29 19 29 17 29 15 30 14 30 13 30 10 31 3 11H45v22H216V512l65-10 16-11-16-10V363h37l54 54 65-54V341H281V269l3-1 18-2 18-3 16-3 16-4 15-5 15-5 14-6 13-7 12-7 10-23-8-23-22-10-23 8-6 8zM488 462l65-32v-1l15 3 45 10 43 10 40 8 37 9 35 7 32 8 29 8 27 7 18 6 5 1 2-7 55-45 1-16-23 11-19-5-26-4-29-5-30-4-34-4-36-3-38-4-41-3-44-3-46-2H553V285H867l54 54 64-54V264H808V-48L744-81V264H553V198l-4-42-8-39-12-36-17-34-21-30L466-9 438-32 406-52 370-68 331-79l-4 9 34 21 29 21L415-5l22 23 17 26 14 26 10 29 7 31 3 32V462zM66 586 46 601l-3 25 15 19 10 4 10 5 9 8 9 9 8 11 7 14 7 15 5 18 6 20 2 23 10 1 2-24 1-10H480v65H157v21H791l44 49 53-49V804H544V739H904l4 3 1 4 2-1 26 21 59-48-27-16-26-11-7-7-10-8-9-8-10-8-11-8-10-7-12-6-9-9-7 7 7 10 6 12 5 11 5 11 5 11 5 11 7 15H544V531l-64-33V718H146l1-12-2-20-3-19-6-19-8-16-10-16-13-15-15-12-24-3zm758 28 54-48V545H598v21H780l44 48zm-452 0 54-48V545H146v21H328l44 48zm414 83 54-49V627H598v21H742l44 49zm-414 0 54-49V627H173v21H328l44 49z"/><glyph glyph-name="undefined" unicode="䱜" horiz-adv-x="1024" vert-adv-y="918" d="M502 391l65-32H835l32 27 59-48-26-22V-20L835-52V2H567V-36L502-68V391zM75-78 51-75 37-54l5 24 8 11L58-6 66 8l7 17 7 19 6 20 6 23 6 24 5 26 4 28h10l3-29 3-27 1-26V58l-2-23-2-23-4-21-6-19-6-19-8-18L75-78zM278 19l-1 14-2 14-2 14-3 15-5 14-5 14-6 14-6 15-9 14 7 6 12-11 14-10 13-12 11-13 10-13 9-16 9-15 7-16 6-16 5-18-6-24-21-12-24 6L278 4V19zM221-38l-23-7-22 12-7 23 3 13 2 13 1 13 2 15V59l-1 16-1 17-2 18-2 18-5 19 9 4 10-18 10-16 8-17 8-17 6-16 5-17 5-17 3-16 2-16 1-17-12-22zM383 44l-3 14-5 13-4 13-5 13-7 13-6 12-8 12-8 13-10 11 6 8 13-8 14-8 14-9 12-10 13-11 11-12 10-13 10-14 9-15 8-15-2-25-18-16-25 2-16 18-3 14zM835 169H567V23H835V169zm0 169H567V191H835V338zM151 229 92 199V586l-3-4-21-26-22-23-8 6 13 29 13 29 13 29 12 31 13 31 12 32 12 33 11 34 11 35 9 31 4 13 59-28 11-15-19-5-6-16-15-35-2-6H293l32 27 60-48-27-16-14-6-2-4-10-15-10-14-12-15-14-16-14-16-17-17-17-16-11-10H344l29 26 57-48-27-19V229l-59-30v30H151zm69 172H151V251h69V401zm124 0H274V251h70V401zM220 573H151V423h69V573zm124 0H274V423h70V573zm86-118v21H563V659H464v22h99V858l65-11 16-10-16-10V681H768V858l64-11 17-10-17-10V681h25l44 48 53-48V659H832V476h35l54 54 64-54V455H430zM768 659H628V476H768V659zM291 740H179l-3-7-16-33-17-31-17-31-15-23 40-20h72l12 19 11 22 11 20 9 19 8 17 7 16 5 15 5 14v3z"/><glyph glyph-name="undefined" unicode="䶦" horiz-adv-x="1024" vert-adv-y="918" d="M309 375l-1 8-2 8-2 9-2 8-2 8-2 5-1-3-11-22-12-19-14-18-15-14-16-12-7 7 9 16 6 18h1l-12-10-24 3-16 18-1 9v8 8l-1 8-1 8-1 8-1 3-2-7-11-22-11-21-13-20-14-17-15-16-8 5 7 20 7 21 6 20 5 21 5 22 4 23 3 23 3 25 2 25 1 22 1 16 64-17 14-13-18-9-2-7-6-27-7-26-5-16 3-1 7-5 8-5 7-7 7-7 6-7 12-16 6-9-1-5 4 11 5 22 5 22 4 25 2 26 2 29 2 25 1 17 63-17 15-12-18-9-2-12-6-30-8-28-7-23 8-5 9-5 8-6 8-7 8-7 7-8 7-9 3-3V568l64-11 16-11-16-9V14L366-18V14H105V-51L41-83V568l64-11 16-11-16-9V320H366v43l-14-14H327l-17 18-1 8zM634 105l44-47 4-19-20 5-4-4-22-16L613 8 588-7 562-21 535-34 506-47 475-58 443-68l-33-8-4 9 29 18 28 17 26 17L514 1l24 17 22 17 20 17 20 17 17 17 12 13 5 6zM895-44 882-29 867-13 852 1 835 16 817 31 799 45 779 59 758 74 736 88l3 9 26-7 25-7 25-9 23-11 22-10 21-13 20-13 19-14L938-1l18-16 8-23-11-22-23-8-22 10-13 16zM180 107v8l-1 24-1 8-3-7-11-21-12-21-13-18-14-16-15-15-5 4V35H366V79L352 64l-24-1-19 18v7l-1 8-2 8-2 8-2 8-3 8-1 6-1-2-11-21-12-20-14-17-15-14-16-12-7 7 9 17 7 17 6 17 6 20 5 20 5 23 4 23 2 26 2 28 2 24 1 17 63-18 15-11-18-10-2-10-6-29-8-28-7-22 8-5 9-6 8-6 8-6 7-7 7-7 7-7 4-5V299H105V61l5 12 6 20 6 19 6 21 5 21 5 23 4 23 3 25 3 25 2 21v3 2l2 12 62-20 15-13-19-8-2-7-7-27-8-25-4-13 3-2 7-6 7-5 7-7 11-13 6-7 6-7 6-7-2-25-18-16-24 1-17 18-1 8zM529 490l64-32H835l32 27 59-48-26-22V128L835 96v32H593L529 96V490zM835 235H593V150H835v85zm0 101H593V257H835v79zm0 101H593V358H835v79zM467 530v22H678v91H509v21H678v86H486v22H678v97l64-11 16-11-16-9V772H843l53 54 65-54V750H742V664h80l44 49 54-49V643H742V552H881l44 48 54-48V530H467zM35 595v21H79V788l64-11 16-10-16-10V616h65V869l65-11 16-11-16-9V745h73l33 38 43-38V724H273V616h59l54 54 65-54V595H35z"/><glyph glyph-name="undefined" unicode="𠆯" horiz-adv-x="1024" vert-adv-y="918" d="M331 863l56-32 10-17-19-2-19-41-29-58-31-56-32-55-34-54-5-8 34-6 16-10-16-10V-46L198-78V495l-37-50-38-50-40-47-42-45-7 6 33 51 33 52 32 52 32 53 30 54 29 55 28 56 27 57 25 58 25 59 3 7zm91-43 65-10 16-11-16-10V369l-3-63-5-59-8-55-10-51-13-46-16-43-18-39-20-35-24-29-27-24-7 7 17 29L368-8l14 35 12 38 10 41 7 45 6 49 4 52 2 57-1 60V820zm438 0 64-10 16-11-16-10V-40L860-72V820zM637 783l65-11 16-11-16-9V105L637 73V783z"/><glyph glyph-name="undefined" unicode="𠈨" horiz-adv-x="1024" vert-adv-y="918" d="M320 873l57-32 11-16-19-3-18-40-28-59-29-57-31-56-32-54-6-10 34-5 16-11-16-10V-45L194-77V497l-31-46-36-50-38-48-40-46-8 6 31 52 31 52 31 53 29 54 28 54 27 55 27 57 25 57 24 59 21 54 5 13zM354-34v21H613V659H506l-4-11-20-45-21-45-24-43-26-41-29-39-31-37-8 6 22 42 21 43 20 42 18 44 16 44 15 46 13 47 12 48 9 49 8 44 2 16 62-22 14-13-19-7-7-31-13-51-16-49-6-15H847l54 53 64-53V659H677V449H809l54 54 64-54V428H677V218H824l54 54 65-54V197H677V-13H863l53 54 65-54V-34H354z"/><glyph glyph-name="undefined" unicode="𠋲" horiz-adv-x="1024" vert-adv-y="918" d="M313 873l57-32 11-16-20-3-18-40-28-59-28-57-31-56-32-54-5-10 33-5 16-11-16-10V-45L187-77V496l-30-45-36-50-38-48-40-46-8 6 31 52 31 52 30 53 29 53 29 55 27 55 26 57 25 57 24 59 21 54 5 13zM887 177l-6 19-7 19-5 11-41-8-59-10-56-10-21-3V-43L628-75V186l-21-3-50-7-47-6-44-5-42-5-18-2-10-17-11 15-15 64h11l39 1 42 2 44 1 47 2 49 2 19 1 9 16 16 28 17 28 16 26 16 26 15 25 14 24 13 24 13 23 9 17 5 10 53-38 8-18H804l-2-4-16-21-18-23-17-23-19-22-20-24-20-23-22-24-24-24-2-1h10l55 3 57 2 59 2 39 1-6 14-10 18-11 19-12 18-11 19-14 19 6 7 19-14 20-14 17-15 17-16 15-18 14-17 13-20 11-19 12-21 9-21-2-24-18-16-25 1-16 19-5 19zM517 145l55-35 9-17-21-1-1-3-15-20-15-20-16-18-17-19L477-5 458-23 437-39 414-54 391-69l-6 8 17 21 16 21L433 1l14 19 14 20 13 20 11 20 11 19 10 20 6 15h-1l6 11zM853-20 845 0l-9 19-10 19-10 19-12 19-12 19-13 18-14 20-15 19 6 7 21-13 20-14 19-15 18-16 17-18 15-18 15-18 14-20L907 7l12-21V-39L902-56H877L859-39l-6 19zM554 292l-7 18-7 17-8 17-9 16-10 16-12 16-12 17-13 16-15 15 5 8 20-10 19-11 18-12 17-13 16-15 1-2 15 37 8 17 7 18 8 17 14 33 6 17 4 11 1 2 1 3 3 5 55-35 9-17-22-2-8-11-12-15-11-15-12-15-12-15-13-15-13-14-15-14-2-3 3-3 14-17 12-18 12-19 11-20-2-24-17-18-24 1-18 18-5 18zM359 419l-22 12-7 23 12 22 6 4 6 5 7 9 7 11 7 14 6 17 6 19 5 22 5 25 3 27h9l3-27 2-16H628V709H368v21H628V868l64-11 16-11-16-9V730H833l54 54 64-54V709H692V586H908l3 2v1l29 24 60-49-27-16-20-8-6-8-9-11-9-11-11-12-10-12-12-12-13-13-11-15-8 6 8 16 6 17 5 16 6 15 5 14 5 14 3 12 3 8H417V553 530l-1-20-3-20-4-18-7-17-8-15-12-14-23-7z"/><glyph glyph-name="undefined" unicode="𠕁" horiz-adv-x="1024" vert-adv-y="918" d="M711-2V14H818l7 1 5 1 5 1 2 2 1 5 1 5 1 6V390H663V35L598 3V390H426V35L361 3V390H184V-18L120-51V815l64-32H840l32 27 59-49-27-21V35l-1-13-2-13-4-13-7-13-9-10-10-9-13-7-13-4-13-2-14-2v33L711-2zM361 761H184V412H361V761zm237 0H426V412H598V761zm242 0H663V412H840V761z"/><glyph glyph-name="undefined" unicode="𠕋" horiz-adv-x="1024" vert-adv-y="918" d="M673-24V-8H781l6 1 5 1 5 2 2 2 2 5 1 5v6V326H652V14L587-18V326H437V14L372-18V326H222V-34L157-67V326H44v21H157V557H44v21H157V842l65-32H802l33 27 59-49-27-21V578h15l44 49 54-49V557H867V347h15l44 49 54-49V326H867V14L866 1l-2-14-5-13-7-12-8-11-11-9-12-7-13-4-14-2-13-1v32L673-24zM372 557H222V347H372V557zm215 0H437V347H587V557zm215 0H652V347H802V557zM372 788H222V578H372V788zm215 0H437V578H587V788zm215 0H652V578H802V788z"/><glyph glyph-name="undefined" unicode="𠕐" horiz-adv-x="1024" vert-adv-y="918" d="M716-13V3H824l6 1 5 1 5 1 2 3 2 4 1 5v7V777H179V-34L114-67V831l65-32H845l33 27 59-49-27-21V25l-1-14-2-13-5-13-7-12-8-11-11-9-12-7-13-4-14-2-13-1v32L716-13zM482 723l65-11 16-10-16-10V478H661V672l65-11 16-11-16-9V456l-65-32v32H547V184H688V389l64-11 16-10-16-10V130L688 98v64H341V98L277 66V389l64-11 16-10-16-10V184H482V456H368l-65-32V672l65-11 16-11-16-9V478H482V723z"/><glyph glyph-name="undefined" unicode="𠗼" horiz-adv-x="1024" vert-adv-y="918" d="M334 702l64-32H710l-3 43-4 140-1 17 65-11 16-11-15-9 4-123 2-46h78l54 54 65-54V648H776l3-62 12-118 15-106 19-93 2-5 3 10 21 78 17 85 15 93 2 11 62-21 14-13-18-7-14-75-22-88-26-80-28-73-2-4 22-60 29-55 22-30 22 97h11L948 9 966-8l12-21-5-24-21-13-24 6-44 40-38 51-32 63-3 8-24-40-38-49-41-40-45-32-47-23-5 9 40 31L687-6l34 41 31 49 29 56 8 21-3 7-23 86-20 98-16 108-12 121-4 67H398V460l-3-68-6-65-9-63-12-58-15-55-18-52-21-48L289 6 262-34 231-69l-8 6 22 40 19 43 17 45 15 47 13 50 10 54 8 57 4 59 3 63v65V702zM380-13V3H488l6 1 5 1 5 1 2 3 2 4 1 5v7V304l65-10 16-11-16-10V25l-1-14-2-13-5-13-7-12-8-11-11-9-12-7-13-4-14-2-13-1v32L380-13zM145 179l8-16 12-30 8-32 6-33 2-34-1-34-12-22-23-6-22 11-7 24 4 29 1 29-1 28-4 27-6 28-8 28-11 27-13 27-15 28-18 29 7 6 27-22 23-25 5-7 3 5 17 28 18 32 20 36 21 40 22 44 23 49 26 52 27 55 29 60 9-4-19-63-19-60-20-54-19-51-17-47-18-42-16-39-15-35-15-30-14-28-5-8zm282 68 59-27 13-15-21-5-1-3-11-23-11-22-12-22-13-20-14-19-14-18-16-17-17-15-18-14-7 7 11 19 19 38 10 20 8 20 8 20 7 21 6 22 6 22 4 17 4 14zM664 115v10l-3 12-4 11-5 14-7 14-8 14-10 16-11 17-14 15 7 8 17-13 17-12 16-11 14-13 13-12 11-13 10-13 8-14 7-14 6-15-6-24-21-13-24 6-13 21v9zM414 320v22h95V627l65-11 16-11-16-9V503h42l34 38 43-38V482H574V342h25l53 54 65-54V320H414zM175 642l-5 14-7 14-7 13-10 13-9 13-12 14-12 12-13 13-15 12 4 9 19-8 18-7 18-8 16-10 16-11 15-12 13-13 13-13 11-16 11-16V631l-16-19H198l-18 16-5 14zM866 766l-2 9-4 10-4 10-6 10-6 10-7 10-8 12-8 11-12 9 6 8 13-8 14-4 12-7 13-7 12-7 10-8 11-10 9-9 9-10 8-11 2-24-17-19H887l-19 16-2 9z"/><glyph glyph-name="undefined" unicode="𠝥" horiz-adv-x="1024" vert-adv-y="918" d="M720-24V-8H827l6 1 5 1 5 2 2 2 1 1 1 4 1 5 1 6V863l64-10 16-11-16-10V14L912 1l-2-14-4-13-7-12-9-11-11-9-12-7-13-4-14-2-13-1v32L720-24zM60 11l11 2 46 4 48 5 49 4 51 6 32 3V159H101v21H297V286l64-11 17-11-17-9V180h88l54 54 64-54V159H361V42h9l55 6 56 6 58 5 60 4 1-10-58-15-56-13-56-12L376 2 323-8 272-18l-50-9-49-8-48-9-24-4-9-18L79-51 60 11zM665 783l65-11 16-11-16-9V138l-65-33V783zM64 299v22H297V440H101v22H297V575l64-11 17-10-17-10V462h88l54 54 64-54V440H361V321H475l54 54 65-54V299H64zM483 584l-13 14-15 15-17 14-18 15-21 15-22 15-25 15-25 16-10 5-16-34-25-36-31-32-36-29-41-24-47-20-51-16-4 9 47 25 40 26 34 28 29 29 23 31 18 32 12 34 1 4H68v22H275l2 10 2 37-3 41-1 12 66-7 17-9-18-13V802l-7-45H474l54 54 64-54V735H327l-4-12 11-2 30-9 28-9 26-11 25-11 23-13 22-13 20-13 18-15 17-15 7-24-11-22-23-7-22 10-11 15z"/><glyph glyph-name="undefined" unicode="𠞁" horiz-adv-x="1024" vert-adv-y="918" d="M744-24V-8H852l6 1 5 1 3 1 2 1 2 1v1l1 1 1 4 1 5v6V863l65-10 16-11-16-10V14L937 1l-2-14-5-13-6-12-9-11-11-9-12-7-13-4-13-2-14-1v32L744-24zM513 75 497 89l-16 14-16 13-16 13-18 13-16 12-18 13-17 13-18 12 4 9 21-6 21-5 21-7 21-8 21-9 19-10 20-10 20-11 19-11 19-13 12-21-6-24-22-12-24 7-15 14zM672 783l65-11 16-11-16-9V138l-65-33V783zM423 243v16h54l6 1 5 1 3 1h2l1 1 1 1 1 2 1 3v5l1 7V396H360V-47L296-79V178l-22-27-29-33-31-30-32-28-33-26-34-22L79-7 42-22l-4 8L68 11 98 35l29 27 27 28 27 29 26 32 25 33 24 35 22 38 18 32V396H158V223L94 190V450l64-32H296V519H58v21H296V649l64-10 17-11-17-10V540H498l54 54 64-54V519H360V418H498l32 27 59-49-26-21V281l-1-14-3-13-4-13-6-13-9-10-11-9-12-7-13-4-14-2-13-1v32l-54 16zM399 875l65-11 16-11-16-10V763h47l54 54 64-54V741H464V655l-65-32V741H275V655l-64-32V741H45v22H211V875l64-11 17-11-17-10V763H399V875z"/><glyph glyph-name="undefined" unicode="𠞦" horiz-adv-x="1024" vert-adv-y="918" d="M518 42 503 64 487 85l-17 21-19 19-20 20-20 18-22 18-22 17-10-41-18-44-23-39-29-36L252 5 211-23 166-48 114-69 58-85l-3 9 51 26 46 27L191 5l33 30 28 32 22 34 16 34 11 37 6 39 1 41V512H63v22H308V654l65-11 16-11-16-9V534H5e2l54 54 64-54V512H373V252l-4-33 8-2 27-12 27-13 26-15 24-17 23-18 22-20 21-21 20-23 19-24 4-24-13-20-24-5-21 14-14 23zM725-24V-8H832l7 1 5 1 5 2 2 2 1 1 1 4V8l1 6V863l64-10 17-11-17-10V14L917 1l-2-14-4-13-7-12-9-11-10-9-13-7-13-4-13-2-14-1v32L725-24zM671 783l64-11 16-11-16-9V138l-64-33V783zM217 255l-6 11-5 11-5 10-5 10-10 18-4 8-1 1-8-16-16-28-20-27-22-25-26-24-30-22-6 7 21 29 18 28 16 27 13 26 11 27 7 26 6 26 2 26v27l-2 21-1 17 65-7 17-9-18-13V430l-4-32-6-31-10-27 6-1 10-5 10-4 10-7 10-6 10-8 10-9 11-10 10-10 5-24-12-21-24-5-21 12-6 13zm335 20-5 12-6 11-7 11-8 11-9 11-21 21-3 3-7-11-16-20-17-19-20-16-22-15-23-13-6 8 18 19 14 20 14 19 10 19 10 19 7 19 5 20 4 20 2 21v21 11l64-15 16-11-19-11-1-4-6-25-10-24-7-15 3-1 16-5 15-7 15-8 14-9 13-10 12-12 12-12 11-13 2-25-15-19-24-3-20 15-5 12zM406 871l64-10 16-11-16-10V764h51l54 54 64-54V742H470V660l-64-32V742H279V660l-64-32V742H45v22H215V871l64-10 16-11-16-10V764H406V871z"/><glyph glyph-name="undefined" unicode="𠟏" horiz-adv-x="1024" vert-adv-y="918" d="M113 339l64-32H502l33 27 59-49-27-21V-25L502-57V-3H177V-41L113-73V339zM736-24V-8H844l6 1 5 1 3 1 2 1 1 1 1 1 1 1 1 4 1 5v6V863l65-10 16-11-16-10V14L929 1l-3-14-4-13-6-12-9-11-11-9-12-7-13-4-13-2-14-1v32L736-24zM502 141H177V18H502V141zM675 783l65-11 16-11-16-9V138l-65-33V783zM502 285H177V162H502V285zm72 95-9 12-10 13-12 12-12 13-14 13-14 13-16 13-15 14-4-6-19-28-21-28-24-25-25-25-28-23-30-21-6 7 22 28 21 28 19 28 18 28 15 27 14 28 12 28 10 28 8 29 6 30 3 9 60-25 13-14-20-6-3-12-13-31-15-31-5-9 20-7 19-8 19-9 18-9 17-10 16-10 15-11 14-11 13-12 8-23-11-23-23-6-22 10-9 12zM272 397l-7 12-9 11-10 11-10 12-12 12-12 13-13 12-8 7-2-3-18-27-21-25-23-24-25-24-27-21-30-19-7 7 23 27 20 26 19 26 17 26 15 26 13 25 11 27 9 26 6 27 5 22h-1l3 15 61-23 14-13-20-8-3-10-11-30-14-28-5-9 10-4 18-7 17-8 16-8 16-9 14-10 13-9 13-10 12-11 7-24-12-22-23-6-22 11-7 11zM575 618l-10 12-10 12-11 13-13 13-14 13-14 13-16 13-15 14-4-7-19-27-21-27-24-26-25-24-28-23-30-21-6 7 22 28 21 28 19 27 18 27 15 28 14 28 12 28 10 28 8 28 6 29 3 9 60-24 13-14-20-7-3-11-13-31-15-30-5-10 20-7 19-8 19-8 18-9 17-10 16-10 15-11 14-11 13-11 8-24-10-22-24-7-22 10-8 12zM272 635l-7 11-9 11-10 12-10 12-24 24-13 13-8 7-2-4-18-26-21-26-23-24-25-22-27-21-30-20-7 8 23 27 20 25 19 26 17 26 15 25 13 26 11 26 9 27 7 26 4 22h-1l3 15 61-23 14-14-20-7-3-10-12-30-13-28-5-8 10-4 18-7 17-8 16-9 15-8 15-9 13-10 13-10 12-11 7-24-12-22-23-6-22 11-7 11z"/><glyph glyph-name="undefined" unicode="𠡑" horiz-adv-x="1024" vert-adv-y="918" d="M773-46l-11-5-11-4-24-6-12-2-12-2-12-1-12-1v33L571-18V-2H679h8l9 1 9 1 8 2 9 2 8 2 16 7 7 4 8 5 11 7 10 10 9 13 9 15 7 19 7 22 6 24 4 28 3 31 1 22H538l-31-52-42-53-49-47-55-41-61-35-68-27-74-21L77-76l-2 9 77 24 69 28 62 32 55 36 48 42 41 45 34 50 12 23H136v21H484l6 11 22 60 16 65 2 10 60-23 14-13-19-7-15-51-22-52H829l32 27 60-48-27-16-2-1v-9l-4-35-5-32-7-29-8-27-10-25-13-22L831-3 814-20 795-34 773-46zM216 309l-24-6-21 12-7 24 3 18 1 17-2 15-5 14-7 14-12 13-15 13-20 13-24 12-28 9 1 10 31-4 29-4 26-8 16-8 4 5 15 17 17 20 22 23 25 28 29 31 33 34 37 38 41 40 7-6-32-47-31-43-28-39-24-34-22-29-17-27-14-21-11-18-5-10 11-17 9-24 4-26V330l-12-21zm614 11-11-6-11-6-12-5-11-4-13-2-12-2-13-2-12-1v33L627 341v16H735l8 1 16 2 8 2 7 2 7 3 7 3 7 4 7 5 6 5 12 12 11 16 11 22 10 26 10 32 8 36 7 41 6 45 4 51 3 42H527l-9-9-26-23-29-22-29-21-32-18-34-16-4 8 26 25 26 24 24 24 23 25 22 26 20 26 19 27 17 28 16 29 12 25v1l5 10 55-35 9-17-20-1-8-13-21-30-22-29-20-22H890l33 27 59-49-27-16h-2l-1-31-5-52-6-48-8-44-9-40-10-36-13-32-14-28-17-25-20-20-20-15zM711 599l64-54V524H404v21H657l54 54zM175 625l-5 7-9 7-10 8-13 7-15 8-16 8-19 8-20 9-23 7 2 9 24-3H93l21-2 20-2 18-3 16-4 16-4 14-5 13-6 13-8 9-23-9-23-22-9-23 8-4 6zm83 148-6 7-9 7-11 8-12 8-14 8-15 7-18 9-19 8-20 7 1 9 22-2 22-1 20-2 18-2 18-3 16-4 15-4 14-6 13-6 13-7 10-22-7-23-23-10-23 7-5 7z"/><glyph glyph-name="undefined" unicode="𠣐" horiz-adv-x="1024" vert-adv-y="918" d="M469 598l65-11 16-11-16-9V448H703l54 54 64-54V426H490l42-12 15-12-18-9-8-45-18-62-23-58-28-53-34-49-38-44-44-40L287 8 234-20 175-44l-4 9L223-3l48 35 42 37 37 40 31 44 27 46 22 50 18 54 12 57 8 60 1 6H181v22H469V598zM837-30l-10-9-10-8-11-6-11-6-12-4-12-4-13-3-13-2H732v32L625-24V-8H732l8 1 8 1 7 1 7 2 6 3 6 3 6 4 6 4 6 5 5 6 16 21 14 32 14 43 12 53 11 63 8 74 7 82 5 93 3 102 1 101H288l-26-52-29-51-32-51-34-49-37-48-39-46-43-44-7 6 33 51 33 50 31 51 28 50 27 51 24 52 22 52 20 53 17 53 14 48 1 4v2l3 8 59-27 13-14-20-5-12-36-21-54-15-33H888l33 27 59-48-27-16-1-86-3-104-5-94-7-85-9-76-12-66-13-58-16-49-19-40-22-33-9-9z"/><glyph glyph-name="undefined" unicode="𠪞" horiz-adv-x="1024" vert-adv-y="918" d="M288 296l65-32H805l32 27 59-49-26-21V-39L805-72v54H353V-55L288-88V296zM125 831l64-32H867l54 54 64-54V777H189V531l37 15 35 18 31 19 26 20 20 21 15 22 11 23 7 25 3 27-1 23-1 18 65-9 17-10-18-12-1-16-8-35-8-21 16-2 19-3 18-5 17-4 17-5 16-6 15-6 14-7 13-7 11-22-5-23-23-12-23 6-8 9-9 9-10 8-12 9-13 9-14 10-15 9-16 10-15 9-17-27-24-26-28-22-33-18-37-14-41-12-43-6V449l-3-75-5-71-8-66-10-61-13-57-16-51-19-45L94-18 70-52 42-80l-7 6L52-41 68-5 82 35 95 80l10 50 8 54 7 59 3 64 2 69V831zM805 112H353V4H805V112zm0 130H353V134H805V242zm88 40-28 15-27 16-23 17-21 16-19 17-16 18-14 19-5 11-1-2-22-28-25-26-29-22-33-19-37-16-40-13-44-9-3 9 39 19 36 20 30 21 27 21 22 22 18 23 14 24 10 26 6 27 3 29 2 11 63-18 14-12-19-9-3-15-12-34-5-8 1-1 16-11 16-11 18-11 20-11 21-11 23-11 26-11 28-10 30-11 35-14-62-52-30 15zM516 331l-9 9-10 9-12 9-13 9-14 9-15 9-16 10-15 9-17-27-24-25-28-22-33-18-37-15-41-11-45-7-2 9 41 17 35 19 31 18 26 20 20 21 15 23 11 23 7 25 3 26-1 24-1 17 65-9 17-10-18-12-1-15-8-36-8-20 16-2 19-4 18-4 17-5 17-5 16-5 15-7 14-6 13-7 11-22-5-24-23-11-23 6-8 8zM893 523l-28 15-27 16-23 16-21 17-19 17-16 18-14 18-5 11-1-2-22-28-25-25-29-22-33-19-37-16-40-13-44-9-3 9 39 19 36 19 30 21 27 21 22 22 18 24 14 24 10 26 6 26 3 29 2 12 63-19 14-12-19-9-3-15-12-33-5-8 1-1 16-11 16-12 18-11 20-11 21-11 23-11 26-10 28-11 30-10 35-15-62-52-30 16z"/><glyph glyph-name="undefined" unicode="𠲿" horiz-adv-x="1024" vert-adv-y="918" d="M886 42 851 73l-33 32-29 33-27 33-24 36-21 36-17 37-7 20V-45L628-77V284l-17-30-32-46-36-44-39-41-43-37-46-34-50-30L313-5 256-28l-4 9 50 32 48 33 44 34 40 37 37 38 33 41 31 43 26 45 24 47 10 27H486V294l-64-33V611l64-33H628V686H357v21H628V874l65-11 16-10-16-10V707H865l53 54 65-54V686H693V578H841l32 27 59-48-26-22V326l-65-32v64H693v-9l14-22 21-32 23-32 24-30 26-29 28-29 30-27 33-27 35-26 37-25 19-12-59-46-38 30zM63 745l65-32H255l32 27 59-49-26-21V186l-65-32v64H128V154L63 121V745zm192-54H128V240H255V691zM628 557H486V380H628V557zm213 0H693V380H841V557z"/><glyph glyph-name="undefined" unicode="𠷆" horiz-adv-x="1024" vert-adv-y="918" d="M747 880l65-11 16-11-16-10V756h57l54 54 64-54V734H812V637l-65-33V734H615V637l-7-4 3-2-19-8-4-19-11-39-13-38-6-14H845l54 54 65-54V491H686V340H807l44 48 53-48V318H686V150H814l53 54 65-54V128H686V-52L621-84V491H549v-2l-18-36-20-36-22-35-23-34-27-33-30-31-7 6 20 37 19 36 18 36 16 36 14 36 13 36 11 37 8 36 7 37 5 31h-1l3 16 15-5v75H375v22H550V880l65-11 16-11-16-10V756H747V880zM71 745l65-32H275l33 27 59-49-27-21V186l-65-32v64H136V154L71 121V745zm204-54H136V240H275V691z"/><glyph glyph-name="undefined" unicode="𠷽" horiz-adv-x="1024" vert-adv-y="918" d="M7e2 208v16h65 6l5 1 5 2 2 2 2 5 1 5v6V380H544V293l12-14 37-41 37-39 40-34 40-31 43-28 44-23 46-21 47-16 50-14 45-12-63-56-54 18L817 4 769 31 723 60 680 94l-41 38-37 41-34 44-24 38V-45L480-77V221l-15-18-42-42-44-39-49-36-50-32-55-29L168-1 109-22 45-39l-2 9L101-3l56 29 52 30 49 32 45 35 43 37 39 39 36 42 33 44 26 40v55H238V170l-65-32V433l65-32H480v91H66v22H480V869l64-11 16-11-16-9V514H860l44 48 54-48V492H544V401H786l32 27 60-48-27-22V245l-1-13-3-14-4-13-7-12-8-11-11-8-13-7-12-5-14-2-13-1v32l-65 17zM618 833l65-33H831l32 27 59-48-27-22V599l-64-32v43H683V594l-65-33V833zm-486 0 64-33H342l32 27 59-48-27-22V599l-64-32v43H196V594l-64-33V833zm699-54H683V631H831V779zm-489 0H196V631H342V779z"/><glyph glyph-name="undefined" unicode="𠹠" horiz-adv-x="1024" vert-adv-y="918" d="M9e2-3 868 20 838 46 810 73l-27 28-25 30-23 32-22 34-20 35-1 3V-44L628-76V196l-9-13-27-36-29-35-31-31-33-29-35-27L427 2 387-19 346-36l-4 8L377-2l33 27 32 28 29 29 28 30 25 33 25 33 22 36 19 38 7 14H362v22H628V418l64-11 16-11-16-9V288H839l54 53 64-53V266H692l19-21 27-29 26-28 27-27 27-24 29-24 28-21 31-20 30-19 31-17 25-14-60-47L9e2-3zM91 745l64-32H274l33 27 59-49-27-21V186l-65-32v64H155V154L91 121V745zm183-54H155V240H274V691zM627 860l9-17 33-33 1-18-21 8-9-4-19-7-20-8-20-7-21-6-21-7-22-5-23-5-17-3V620h76l44 49 54-49V599H477V462H846V599H694v21H846V758H697v22H846l32 26 59-48-27-21V408l-64-32v64H477V376l-64-32V790l52-27 20 12 20 11 20 11 18 10 18 11 18 10 16 11 16 10 11 8 5 3z"/><glyph glyph-name="undefined" unicode="𡁃" horiz-adv-x="1024" vert-adv-y="918" d="M889-49 877-38 864-27 847-16 828-5 807 5 783 17 758 28 730 40 7e2 52l2 9 33-3 30-4 29-6 27-6 24-7 23-8 21-8 20-9L926-1l17-11 9-23-9-23-22-10-24 9-8 10zM571 80l39-52 1-19-20 8-19-9L551-3 529-13 504-23l-26-9-28-9-30-8-33-8-34-7-3 9 30 17 29 15L436-9 461 5l24 14 21 13 19 12 17 12 16 12 9 8h-1l5 4zM446 425l64-32H809l32 27 59-49-27-21V96L809 64V96H510L446 64V425zM809 188H510V118H809v70zM58 745l65-32H242l32 27 60-49-27-21V186l-65-32v64H123V154L58 121V745zM809 280H510V210H809v70zM242 691H123V240H242V691zM809 371H510V301H809v70zM363 613l-21 13-5 24 13 20 5 3 6 3 7 7 7 9 6 11 6 14 6 16 5 19 5 21 1 22 10 1 2-23 2-12H628V875l64-11 16-10-16-10V761H903l3 2 1 3 1-1 28 23 59-49-27-16-24-10-3-3-9-9-9-9-10-10-11-10-12-10-3-3 6-5-27-16-7-3-4-57h19l44 49 54-49V557H854l-7-1e2-67-26 2 29H513v-4l-69-23 17 124H347v21H463l18 134 54-37H802l32 27 39-31 1 3 5 14 6 13 5 12 4 12 5 12v2H421l1-9V711l-2-19-3-17-4-16-6-15-9-14-12-12-23-5zm263-56H526l-10-75H617l9 75zm165 0H691l-8-75H784l7 75zM637 654H538l-10-76H628l9 76zm163 0H702l-9-76H793l7 76z"/><glyph glyph-name="undefined" unicode="𡄙" horiz-adv-x="1024" vert-adv-y="918" d="M890-55 877-44 861-32 843-20 822-9 799 3 773 15 745 26 715 39 682 52l2 9 36-3 33-5 30-6 30-6 26-8 25-9 23-9L908 5 928-6l17-13 9-22-8-24-23-10-23 9-10 11zM544 80l38-52 1-19-20 8L542 5 519-5 495-16 468-26 439-37l-30-9-33-10-35-8-37-8-3 10 33 17 32 17 29 15L423 1l26 14 23 13 21 14 20 13 16 13 10 9 3 2 1 1h1zM3e2 349l-21 14-5 24 14 21 7 3 7 5 8 8 7 10 7 13 7 16 6 18 5 21 5 23 3 26h2V740l64-32h88l30 27 56-48-26-19V573l-60-29v29H416l-56-28 2-20 2-15H611V767H301v21H611v81l54-11 14-11-14-9V788H878l44 49 53-49V767H665V510H918l4 3v2l1-1 28 23 59-48-27-16-23-10-6-7-9-10-10-11-12-10-12-12-12-11-8-7 4-3-27-21V99L803 67V99H473V83L408 51V446l65-32H803l33 27 42-35 3 8 7 16 7 15 6 14 6 12 4 12 2 6H366l1-12-1-21-2-21-4-18-5-18-8-16-10-15-13-14-24-5zM803 197H473V121H803v76zM60 745l64-32h80l32 27 59-49-27-21V186l-64-32v64H124V154L60 121V745zM803 295H473V219H803v76zM204 691H124V240h80V691zM803 392H473V316H803v76zM711 738l60-30h86l32 27 59-48-27-22V573l-64-32v32H771l-60-29V738zm146-51H771V595h86v92zm-353 0H416V595h88v92z"/><glyph glyph-name="undefined" unicode="𡍩" horiz-adv-x="1024" vert-adv-y="918" d="M705 489H490v22H770l4 9 5 18 12 33 5 16 6 15 5 16 4 14 6 23h-1l5 12 57-32 11-16-23-3-5-7-18-27-10-14-11-14-11-14-12-14-13-14-2-1h82l54 53 64-53V489H770V254l-2-28H872V433l64-10 16-11-16-10V173l-64-33v65H766v-4l-8-49-11-46-16-40-20-37L688-3 660-30 629-52 595-68 557-78l-3 9 31 20 28 21L636-5l20 27 16 29 13 33 10 36 6 41 3 44H6e2V140l-59-29V433l59-10 15-11-15-9V226H705v28V489zM413 737l59-30H650V869l65-11 16-11-16-9V707H851l53 54 65-54V686H472V401l-4-63-7-60-10-57-13-53-18-49-21-46-24-42L346-8 315-41 279-70l-6 7 28 35L325 8l22 39 18 42 16 44 12 47 10 51 6 53 4 57V737zM46 138l10 4 24 8 24 9 27 9 28 10 15 6V544H63v21H174V825l65-11 16-10-16-10V565h22l44 48 54-48V544H239V210l13 6 35 14 36 14 37 14 5-9-33-24-32-21-32-20-30-18-30-17-28-16-27-14-25-14-25-12-3-1-5-21L79 82 46 138zM631 548l-2 11-4 10-3 11-5 10-6 12-5 11-7 11-8 12-10 10 6 8 12-8 14-7 12-7 12-8 11-9 11-10 9-10 10-11 8-11 7-13-1-25-18-16-24 1-17 18-2 10z"/><glyph glyph-name="undefined" unicode="𡠑" horiz-adv-x="1024" vert-adv-y="918" d="M517-24V-8H625l6 1 5 1 5 2 2 2 2 5 1 5v6V154l-20-22-29-27-32-25-34-23-36-21-38-18L416 2 373-12l-4 9 38 23 36 23 34 23 31 24 28 25 27 26 23 27 22 28 19 30 1 3H441v22H646v75H392v21H646v76H441v21H646v80H532l-64-33V688l64-33H646v85H399v21H646V869l65-11 16-11-16-9V761H840l54 54 64-54V740H711V655H824l33 27 59-48-27-22V524l-65-33v33H711V444H838l33 27 59-48-27-22V347h20l24 33 32-33V326H903V197l-65-32v64H711v-9l12-13 24-24 24-23 24-21 25-20 25-17 27-17 28-14 28-13 30-11 34-14-62-52L899-2 868 16 839 36 812 58 787 82l-24 25-21 27-20 29-11 20V14L710 1l-2-14-5-13-7-12-8-11-11-9-12-7-13-4-14-2-13-1v32L517-24zM331 101l-17 25-19 25-20 23-4 4-35-63-41-58L149 8 99-33 44-65l-5 8L86-17l42 44 38 51 34 57 30 63 5 14-5 5-26 21-26 20-28 20-13 9-5-20-17-63-62 18 17 61 16 62 15 61 14 63 14 63 14 63 2 10H42v22H149l6 32 12 64 11 65 10 59 3 16 61-21 15-12-18-8-7-45-12-65-12-65-4-20H317l32 27 59-49-27-16-3-1-9-76-17-93-22-87-27-80-12-28 18-14 26-23 23-24 22-26 21-27 4-25-14-20-24-4-21 14-15 26zM838 326H711V251H838v75zM316 605H210l-4-23-13-64-29-127-16-63-7-26 18-6 34-13 31-15 26-16 6 17 22 77 17 84 13 91 8 84zM838 423H711V347H838v76zM646 634H532V545H646v89zm178 0H711V545H824v89z"/><glyph glyph-name="undefined" unicode="𡠽" horiz-adv-x="1024" vert-adv-y="918" d="M410 702l64-32H744l-2 43-4 140-1 17 65-11 16-11-15-9 3-123 3-46h52l54 54 65-54V648H810l3-62 10-118 14-106 15-85 18 74 15 86 13 87 2 16 63-20 13-13-17-7-14-75-20-87-22-80-25-73-2-4 20-62 26-56 15-23 21 92h11L960 10 978-9l12-22-7-23-22-12-23 7-39 40-34 52-28 62-1 1-18-33-33-48-38-42-40-32-42-22-5 8 34 30L726-7l30 42 27 48 25 56 7 20-4 10-21 86-17 97-14 109-10 120-4 67H474V460l-3-68-5-65-8-62-12-59-13-54-16-52-19-48L376 7 351-33 322-69l-8 6 19 40 17 42 15 45 3 13-9-12-24-3-20 14-14 26-16 25-18 24-19 23-2 3-33-62-39-57L131 8 83-33 31-65l-6 8L70-17l39 44 36 51 33 56 28 64 5 15-5 5-24 20-25 20-27 20-10 7-4-18-16-62-63 16 16 62 15 61 14 62 14 63 26 126 2 10H28v22H128l6 32 11 64 11 64 10 65 1 11 63-20 14-13-17-7-7-46-11-65-11-65-4-20h93l33 27 59-49-27-16-3-1-9-75-17-94-20-87-25-80-12-28 18-14 24-23 22-25 21-25 20-28 2-16 5 18 11 51 8 54 7 56 4 60 2 63V702zM437-13V3H544l7 1 5 1 4 1 3 3 1 4 1 5 1 7V304l64-10 16-11-16-10V25l-1-14-2-13-4-13-7-12-9-11-11-9-12-7-13-4-13-2-14-1v32L437-13zm55 260 60-26 13-14-20-6-1-4-9-22-11-23-11-21-12-20-12-19-14-18-14-17-16-15-15-15-8 6 9 19 8 19 8 19 8 20 7 20 7 20 6 21 5 21 6 23 3 17h-1l4 15zM704 116l-1 10-2 12-3 11-4 14-6 13-7 15-8 15-9 17-12 15 7 7 15-13 16-12 14-11 13-13 11-12 11-13 9-13 8-14 6-14 5-14-6-24-21-13-24 6-13 21 1 10zM287 605H190l-4-22-13-64-14-64-14-63-14-63-7-28 16-5 32-13 30-16 23-13 5 14 20 77 17 85 12 90 8 85zM485 320v22h81V627l64-11 16-11-16-9V503h26l33 38 43-38V482H630V342h26l44 48 54-48V320H485zM883 768l-2 9-3 9-4 10-4 10-5 10-6 10-6 11-8 11-9 8 6 8 11-7 13-5 12-6 11-7 11-8 10-8 10-9 8-10 8-10 8-11V759l-18-18H902l-17 18-2 9z"/><glyph glyph-name="undefined" unicode="𡩡" horiz-adv-x="1024" vert-adv-y="918" d="M871 127l-10 16-11 16-13 15-1 1-72-8-89-9-86-9-45-3V-41L480-74V140l-50-4-75-6-71-5-67-5-64-4-38-3-11-17-11 16-12 64H92l59 1 64 1h67l71 2 74 1 33 1 13 12 28 24 27 24 26 22 25 22 24 21 22 20 21 20 20 20 19 18 1 1 42-49 3-19-20 6-5-4-23-17-24-18-26-17-26-18-29-18-29-19-32-18-22-12h11l81 1 86 2 90 1h62l-3 3-16 16-18 16-20 16-21 17-23 16 4 10 28-10 26-10 24-12 23-12 21-13 20-14 18-15 17-15 15-17 14-17 4-25-15-19-24-4-20 14-8 15zM314 116l46-46 4-18-20 4-3-2-20-16-21-15L277 8 252-6 226-20 199-33 169-46 138-57 105-67l-4 9 28 19 27 19L181-3l23 18 23 16 20 17 19 17 17 17 16 16 10 12 2 2 2 3 1 1zM820-34 807-18 793-2 777 14 759 30 740 46 720 62 697 79 674 96l-25 17 4 9 29-9 29-10 26-11 25-12 24-13 22-14 21-15 18-15L866 6l16-16 6-24-12-22-23-6-22 12-11 16zM371 220l-11 14-12 15-14 14-16 14-17 15-19 14-44 29-24 14 3 9 28-7 27-7 25-9 24-10 22-11 16-10 4 4 13 16 14 16 13 15 13 15 13 15 11 14 12 14 12 14 7 10h-1l5 5 46-46 4-19-22 5-11-9-15-12-33-22-34-23-18-11-19-10 10-6 18-14 16-16 15-16 5-24-13-21-24-5-21 13-8 14zM139 446l-1-15-3-17-5-17-8-16-9-14-13-14-14-11-25-2-19 15-1 25 15 19 9 3 9 4 8 6 8 8 8 9 7 12 6 14 6 16 5 18 1 20 10 1 2-21 3-20v-1H485v94H139v22H485V699l65-11 16-11-16-9V584H783l47 46 8 15 10 17 10 16 9 15 8 14 7 14 3 6H147V713l-2-24-3-22-7-22-8-19-12-19-14-15-16-14-25-3-19 15-3 24 15 20 11 5 10 7 10 9 9 11 8 15 8 17 7 20 6 22 6 26 3 28h10l3-28 2-18H480V870l64-10 16-11-16-10V748H894l3 3 2 4 2-1 25 21 59-48-27-16-24-10-1-1-10-10-12-12-12-11-14-12-14-12-16-13-5-4 51-42V562H550V468H896l10 12 2-3 21 18 59-49-27-16-35-15-2-1-29-19-31-18-17-9-17-9-18-8-18-10-5 8 14 13 13 15 13 14 25 27 11 13 13 15H139z"/><glyph glyph-name="undefined" unicode="𡪳" horiz-adv-x="1024" vert-adv-y="918" d="M712 190H312V124H712v66zm0 79H312V212H712v57zm0 84H312V291H712v62zm128 34-34 11-33 12-34 14-34 16-34 18-34 20-33 22-33 24-27 22V401l-52-27H712l32 27 59-48-27-22V81L712 49v54H622V3-3l1-3 1-3 1-2 6-2 5-2h7H879L909 98h11L909-15l17-12 12-18-12-17-17-12H643 629l-13 2-13 4-11 7-11 8-9 11-7 11-5 13-2 13-1 14v94H447l17-8 12-15-22-5-5-12-21-29L402 9 372-14 336-34 296-51 251-65 201-76l-55-9-59-6-2 9 57 16 52 17 45 18 41 18L314 6l29 21 22 21 17 21 13 22 3 12H312V65L248 33V406l64-32H480V520l-12-8-32-21-34-19-36-18-38-16-40-15-41-14-43-12-45-10-48-7-2 9 44 18 42 18 40 17 37 19 36 18 34 20 32 20 30 21 10 8H130v21H480v60l-34-2-59-3-62-2-65-1-67 2-1 9 67 10 64 9 61 8 58 8 55 8 52 8 50 8 46 8 78 16v1-1l5 1 1-6 59-49 2-15-24 11-27-4-42-6-44-5-47-4-51-4-11-1V569H786l53 54 65-54V548H572l10-4 37-17 36-15 35-13 34-12 34-11 33-9 32-8 32-6 31-5 51-9-64-61-33 9zM147 744V731l-2-25-3-22-7-21-8-19-12-18-14-16-16-14-25-2-19 14-3 25 15 19 11 5 10 7 10 9 9 11 8 14 8 18 7 19 6 23 6 25 3 28h10l3-28 2-17H480V887l64-11 16-10-16-10V766H894l3 2 2 5 2-2 25 21 59-48-27-16-25-10-10-11-12-11-12-11-14-12-14-12-16-13-17-13-16-14-7 6 13 18 10 18 11 17 9 16 9 15 8 14 7 13 3 6H147z"/><glyph glyph-name="undefined" unicode="𡷿" horiz-adv-x="1024" vert-adv-y="918" d="M850-54 780-43 721-26 670-3 628 26 593 59 567 96l-20 39-10 37-10-33-20-46-22-42-26-39-29-34-33-30-35-24-6 8 27 31L407-4l22 35 19 38 17 41 14 45 11 47 9 51 6 55 3 58h1v12l64-16 15-12-18-9-4-40-10-58-9-37 9-21 20-36 23-31 26-28 32-24 5-2V515H549V477l-65-32V836l65-32H839l33 27 59-49-27-21V483l-65-32v64H727V283H845l44 48 54-48V261H727V35l12-4 53-12 63-6 74-1h64L929-59l-79 5zM121 138V73L56 41V670l65-11 16-11-16-9V159h67V831l64-11 16-10-16-10V159h77V670l65-11 16-11-16-9V105L329 73v65H121zM839 782H549V537H839V782z"/><glyph glyph-name="undefined" unicode="𡽞" horiz-adv-x="1024" vert-adv-y="918" d="M477 284l64-32H832l32 26 59-48-27-21V-37L832-69v53H541V-53L477-85V284zM39 2 50 5l30 5V262l59-11 15-11-15-9V21l18 3 35 7 14 3V339H142L78 307V580l64-32H315l32 27 60-49-27-21V339l-65-32v32H265V201h56l33 38 43-38V180H265V46l68 15 35 7 36 6 3-9-33-17-32-15-34-14L273 6 239-6 204-18 135-39 85-53 78-72 64-59 39 2zM832 109H541V6H832V109zm0 121H541V131H832v99zM393 312v21H538V460H429v22H538V609l65-11 16-11-16-10V482H759V609l65-11 16-11-16-10V482h16l54 53 65-53V460H824V333h70l44 49 54-49V312H393zM759 460H603V333H759V460zM315 526H142V361H315V526zM207 639V623l-64-33V812l64-11 16-11-16-9V660H480V868l64-11 16-10-16-10V660H811V812l64-11 17-11-17-9V639l-64-33v33H207z"/><glyph glyph-name="undefined" unicode="𢂃" horiz-adv-x="1024" vert-adv-y="918" d="M568 875l61-22 14-14-19-7-6-27-12-46-16-47-8-26H871l54 54 64-54V664H713V455H839l54 54 64-54V433H713V224H850l53 53 65-53V202H713V-45L648-77V664H574l-18-46-20-47-22-46-24-46-26-46-29-45-9 5 19 49 19 49 17 48 17 48 15 46 14 47 12 47 11 46 8 46 8 45 2 11zM284 170v16h43l7 1 4 1 5 1 2 2 2 5 1 5 1 7V648H268V-45L203-77V648H123V148L58 116V702l65-32h80V869l65-11 16-11-16-9V670h81l32 27 59-49-27-21V208l-1-14-2-13-4-13-7-13-9-10-11-9-12-7-13-4-13-2-14-2v33l-43 16z"/><glyph glyph-name="undefined" unicode="𢄆" horiz-adv-x="1024" vert-adv-y="918" d="M663 34V50h65l6 1h5l3 1 2 1 2 2 1 2 1 3 1 5v7V254H544V-42L480-75V254H274V4L210-28V308l64-32H480V376l64-10 16-11-16-10V276H749l32 27 59-49-26-21V72l-1-14-3-13-4-14-6-12L790 9 780-1 768-7l-13-4-13-3-14-1V18L663 34zM164 440V426l-1-25-4-24-6-21-8-20-11-19-13-16-17-14-24-4-20 14-3 24 14 20 10 6 10 7 10 9 9 13 8 15 8 18 7 21 6 24 5 26 4 30h9l4-30 2-18H485V589l65-11 16-11-16-10V462H886l4 3 1 3 1-1 26 22 60-49-27-16-22-9-1-2-11-11-24-24-13-12-14-13-15-13-17-14-16-15-7 6 12 18 10 19 10 17 9 17 8 16 8 14 7 14 4 8H164zM711 879l64-11 17-11-17-9V671h86V823l65-11 16-11-16-10V628l-65-32v53H775V551l-64-32V649H614V612l-64-32V823l64-11 16-11-16-10V671h97V879zm-446 0 64-11 16-11-16-9V671h86V823l65-11 16-11-16-10V628l-65-32v53H327l-3-17-11-25-17-22-21-17-25-14-29-12-33-8-36-6-41-2H66l-1 10 43 10 38 10 33 12 27 12 22 13 16 13 12 14 6 13 3 13v3H173V633l-64-32V823l64-11 16-11-16-10V671h92V879z"/><glyph glyph-name="undefined" unicode="𢅙" horiz-adv-x="1024" vert-adv-y="918" d="M892-42 882-32 870-22 856-11 839 0 820 11 799 22 776 33 751 45 724 56l2 9 30-4 27-3 27-5 24-7 23-7 21-7 19-9 18-9L932 3 947-8l9-23-11-23-23-8-22 9-8 11zM603 84l41-50 2-19-21 7-16-10-19-9L568-8l-22-9-24-9-26-9-28-9-30-8-31-7-3 9 27 16 27 15L482-4 504 9l21 14 20 12 17 13 15 12 13 12 8 7 5 5zM267 170v16h43l6 1 5 1 5 1 2 2 2 5 1 5v7V648H259V-45L194-77V648H122V148L57 116V702l65-32h72V869l65-11 16-11-16-9V670h72l33 27 59-49-27-21V208l-1-14-2-13-5-13-7-13-8-10-11-9-12-7-13-4-14-2-13-2v33l-43 16zm553 22H553V123H820v69zm0 91H553V214H820v69zm0 92H553V305H820v70zM764 582v16h54l6 1 5 1 3 1 3 1v1l1 1 1 1 1 4 1 4v7 85H719V605l10-8 25-21 24-20 24-18 24-17 25-15 25-14 26-11 26-11 26-9 36-14-62-52-28 14-28 16-26 17-26 19-24 21-23 22-22 24-21 26-11 18V444l-65-32V541l-21-21-28-25-30-23-30-21-32-20-14-8 54-27H820l32 27 59-48-27-22V101L820 69v32H553L489 69V418l-9-5-34-15-35-11-4 8 29 22 29 21 28 22 27 23 26 23 25 26 24 26 23 27 21 29 15 22v69H534V561l-65-32V759l65-33H654v53H412v21H654v75l65-11 16-10-16-10V8e2H843l53 54 65-54V779H719V726H839l33 27 59-48-27-22V620l-1-14-2-13-5-13-6-12-9-11-11-9-12-7-13-4-13-2-14-1v32l-54 16z"/><glyph glyph-name="undefined" unicode="𢋱" horiz-adv-x="1024" vert-adv-y="918" d="M114 588l65-33H480v90l64-11 16-10-16-10V555H860l44 49 54-49V534H179V456H345v62l65-11 16-11-16-9V456H577v62l64-11 16-11-16-9V456H808l32 27 59-49-27-21V323l-64-33v33H368l38-21 12-15-19-5-9-25H882l44 48 54-48V235H383l-22-62H867l32 27 59-48-27-17h-1l-2-20-3-21-2-19-3-17-4-17-5-15-5-14-6-13-8-11-8-11-9-9-10-9-11-7-11-6-12-6-11-3-13-4-13-1-13-1v32L673-20V-4H781h7l8 1 6 1 7 3 5 2 6 3 5 4 5 5 6 5 4 6 3 5 4 6 3 9 3 12 4 12 2 15 2 17 3 19 1 21 1 10H354l-3-10-72-10 66 191H179V234l-4-43-4-40-8-38-10-35-12-31-16-28L108-6 88-27 66-44 41-56l-5 8L52-29 66-9 79 13 89 37l9 26 7 29 5 31 3 34 2 37-1 40V588zM195-55 175-40l-3 24L187 4l9 4 10 4 8 7 9 8 7 10 8 12 7 14 6 16 6 18 3 20h10l1-21 2-20V57l-2-18-3-18-6-17-8-16-9-15-12-13-13-12-25-3zM545 25l-1 9-3 8-3 10-6 9-5 11-8 10-9 10-10 11-13 9 5 8 14-6 15-5 14-6 14-6 12-8 11-8 10-10 10-11 8-11 8-12-3-25L587-4 562-2 546 17l-1 8zM431-17l-23-8-21 12-8 23 2 7 2 7 1 8-1 9-2 10-2 11-5 12-6 12-7 13-10 13 7 7 12-11 14-9 12-9 11-10 9-11 8-11 7-12 6-13 4-14 2-14-12-22zM701 53l-5 8-6 9-5 8-8 9-8 9-9 9-9 9-13 6 4 9 14-4 14-2 13-4 13-4 12-6 12-6 11-7 11-8 10-8 9-10 4-24-13-20-25-4-20 13-6 18zM345 434H179V344H345v90zm232 0H410V344H577v90zm231 0H641V344H808v90zM480 871l64-11 16-11-16-9V780H776v71l65-11 16-10-16-10V758l-65-32v32H544V667H821v75l64-11 16-11-16-9V645l-64-32v32H203l-65-32V742l45-8V851l65-11 16-10-16-10V780H480v91zm0-113H248l-52-26 7-1 16-11-16-9V667H480v91z"/><glyph glyph-name="undefined" unicode="𢓓" horiz-adv-x="1024" vert-adv-y="918" d="M522 854l62-22 13-14-19-7-6-26-14-47-15-46-10-25H846l54 54 65-54V646H671V439H812l54 53 64-53V417H671V210H824l54 53 64-53V188H671V-56L606-89V646H525l-18-47-21-46-23-46-26-45-27-45-31-45-8 5 21 49 19 48 19 48 17 47 17 47 14 46 13 45 11 46 10 46 7 40 3 15zM325 660l53-37 8-18H366l-15-23-28-40-30-38-31-36-32-36-9-9 37-6 16-11-16-9V-40L194-72V396l-34-30-37-31-39-29-41-27-6 8 34 34 32 35 32 35 31 35 29 36 28 37 27 38 25 38 24 39 23 41 3 5zM285 864l53-38 8-17H326l-12-18-25-34-26-32-26-31-28-31-29-28-29-27-30-26-33-23-33-21-6 7 26 29 26 29 49 59 24 31 24 32 22 32 22 33 21 35 19 35 3 4z"/><glyph glyph-name="undefined" unicode="𢙀" horiz-adv-x="1024" vert-adv-y="918" d="M181 863l65-10 16-11-16-10V-45L181-77V863zM790 320v17h54 7l5 1 5 2 1 1 1 1 1 2 1 3 1 5V557H714V347l11-20 21-32 21-31 23-30 24-28 26-27 29-26 31-25 32-24 34-23 20-13-60-45-35 28-33 29-30 30-28 32-25 33-22 34-20 35-16 37-3 11V-45L649-77V246l-2-2-34-44-37-41-39-39-42-36-44-33-47-32L356-9 304-33l-4 8L345 9l43 34 41 35 38 37 37 38 34 39 33 42 29 43 28 44 21 40V557H497V267l-65-33V611l65-33H649V686H399v21H649V874l65-11 16-10-16-10V707H864l54 54 64-54V686H714V578H866l32 27 59-48-27-22V358 345l-2-14-5-13-7-12-8-11-11-8-12-7-13-5-14-2-14-1v32l-54 16zM77 388l-24 6-12 20 5 25 8 8 8 12 8 13 8 17 8 18 8 21 7 23 8 25 8 27 7 30 10-1 1-31V572l-2-27-2-26-3-23-4-22-5-21-6-19-6-17-8-16-22-13zM331 503l-3 14-4 15-5 15-6 16-7 16-17 33-9 18-12 17 7 6 17-13 16-13 14-14 14-14 13-15 11-15 11-15 9-15 8-16 8-17-4-24-19-15-24 3-15 19-3 14z"/><glyph glyph-name="undefined" unicode="𢞮" horiz-adv-x="1024" vert-adv-y="918" d="M170 863l65-10 16-11-16-10V-45L170-77V863zM412 407l59-30H843l29 27 57-48-27-19V-23L843-53V-2H471V-39L412-69V407zm431-51H471V20H843V356zM538 295l59-29H716l30 26 56-48-27-19V111L716 81v40H597V105L538 76V295zm178-51H597V143H716V244zM517 445v16h93l5 1 3 1 2 1 1 1 1 1 1 5 1 5 1 7V871l64-10 17-11-17-10V795l5-15 19-50 21-46 15-27 10 9 22 22 39 38 15 16 14 14 11 12 8 10 6 8-1 2 6 5 45-46 4-19-25 6-10-6-14-9-17-11-19-12-22-13-25-15-27-16-13-8 1-1 26-37 28-32 32-28 34-24 37-20 40-17 35-14-62-52-45 23-42 28-37 32-32 36-29 39-24 44-20 48-9 29V483l-1-14-2-14-4-13-7-12-9-11-10-8-13-7-13-5-13-2H603v32l-86 16zM74 389l-24 5-13 20 5 24 7 9 8 11 8 14 8 16 7 19 8 20 7 24 8 25 7 27 7 30 10-1 1-31V572l-1-27-2-25-3-24-4-22-4-20-5-19-7-17-7-16-21-13zM559 776l59-48-27-16-9-4-5-16-16-37-18-36-20-33-24-31-26-29-28-28-31-24-34-22-37-19-5 8 29 27 27 28 26 27 22 29 20 30 18 30 15 32 13 33 11 34 4 17H366v21H527l32 27zM313 503l-3 15-4 15-5 15-5 15-7 16-7 17-8 16-9 18-11 17 7 6 16-14 15-13 15-13 13-15 12-14 11-15 10-15 9-16 8-16 7-16-4-24-19-16-25 4-15 19-1 14z"/><glyph glyph-name="undefined" unicode="𢧉" horiz-adv-x="1024" vert-adv-y="918" d="M103 408l64-33H401l33 27 59-48-27-22V18L401-15V18H167V-47L103-79V408zM725 847l-16-9 6-204 8-75 146 11 50 57 68-49 2-21-264-19 8-85 27-144 20-68 28 50 32 69 29 74 3 8 58-30 11-16-20-4-25-57-37-71-41-65-16-21 26-58 36-55 33-34 28-18 4-2 29 127h10L958 3l22-9 10-23-10-23-22-9-27 3-35 13-40 26-42 44-42 64-15 32-31-33-52-47L619 1 560-32 498-58 433-76l-3 9 60 28L546-6l53 36 48 42 46 47 42 52-3 6-35 117-27 150-10 89-110-8-2 21 110 8-7 76-7 223v18l65-13 16-11zM401 185H167V39H401V185zm0 169H167V207H401V354zM42 471v21H157V675H72v22h85V874l65-11 16-10-16-10V697H341V874l65-11 16-10-16-10V697h30l33 37 43-37V675H406V492h15l53 54 65-54V471H42zM341 675H222V492H341V675zm524 20-7 14-7 14-9 14-10 14-10 13-13 14-13 14-14 14-16 13 5 9 19-9 19-7 19-9 17-11 16-11 16-13 14-13 13-14 13-15 11-16 1-25-15-18-25-2-19 16-5 14z"/><glyph glyph-name="undefined" unicode="𢧠" horiz-adv-x="1024" vert-adv-y="918" d="M722 847l-16-9 5-170 14-149H887l44 49 54-49V498H728l22-128 29-111 12-32 27 50 28 63 24 63 5 12 57-30 12-16-20-3-22-51-33-64-37-60-18-25 33-64 34-48 32-31 12-8 28 123h11L953 3l22-9 10-23-10-23-22-9-40 9-40 24-41 40-40 57-22 41-20-23-46-45L656 4 604-29 549-56 492-76l-4 9 52 29L588-5l46 37 43 40 39 45 31 41-30 81-30 117-24 141-624 1v21H95V815l59-11 15-11-15-9V519H660L646 664l-5 189v18l65-13 16-11zM412 10V26h75 7l5 1 3 1 2 1v1l2 1 1 2 1 3v5l1 6v95H171V-10L106-42V448l65-32H509l32 26 59-48-27-21V47 34l-3-14-4-12-7-13-9-11-11-8-11-7-14-4-13-3-14-1V-6L412 10zm97 258H171V164H509V268zm0 126H171V290H509V394zM216 857l59-29H509l33 27 59-49-27-21V591l-65-32v43H275V585l-59-29V857zM857 657l-7 17-8 17-9 17-9 16-10 16-11 16-11 16-12 16-14 15 6 8 18-11 18-10 17-12 17-13 15-15 15-15 14-16 13-16 11-19 12-18V641l-16-18H881l-18 16-6 18zM509 704H275V623H509v81zm0 102H275V725H509v81z"/></font>
</defs>
</svg>
