<svg xmlns="http://www.w3.org/2000/svg"><defs><font name="Jigmo Regular" horiz-adv-x="1024" vert-adv-y="1024"><font-face font-family="Jigmo" font-weight="400" font-stretch="normal" units-per-em="1024" ascent="995" descent="169"/><glyph glyph-name="undefined" unicode="㔆" horiz-adv-x="1024" vert-adv-y="918" d="M765-24V-8H872l7 1 5 1 5 2 1 1v1l2 1 1 4 1 5V863l64-10 16-11-16-10V14 1l-2-14-5-13-7-12-8-11-11-9-12-7-13-4-14-2-14-1v32L765-24zM141 401l65-32H504l32 27 59-49-27-21V-4L504-37V28H206V-37L141-69V401zM504 192H206V49H504V192zM703 783l65-11 16-11-16-9V138l-65-33V783zM504 347H206V214H504V347zM188 448l9 7 18 11V624h-1l-16-52-19-44-20-38-23-33-26-26-27-20-30-12-4 9 21 19 19 24 18 27 16 31 14 37 13 41 9 37H121l-9-44-70-18L88 781l62-24 13-13-17-5-20-94h37l7 41 8 58 4 48H69v22H237l54 54 64-54V792H246l-8-57-11-59-7-31h23l44 49 54-49V624H280V503l86 45 6-8-14-14-42-45-54-53-9-9 1-22-18 6-48 45zm432 21 32 135h11L652 469l19-13 13-19-13-19-19-13H587 574l-14 3-13 4-12 7-11 9-9 11-6 12-5 13-2 13-1 14V591l-5-16-19-43-22-37-24-32-27-25-28-18-30-10-4 9 23 18 20 22 18 25 17 31 15 36 14 41 8 32H425l-1-7-70-18 39 182 60-24 14-13-18-5-19-94h32l10 46 8 58 6 49H366v21H523l54 54 64-54V798H550l-9-59-13-60-9-34h35l44 49 54-49V624H566V491v-7l1-4 1-4 1-2 1-1h1l2-2 3-1h5l6-1h33z"/><glyph glyph-name="undefined" unicode="㟛" horiz-adv-x="1024" vert-adv-y="918" d="M792 573l64-11 16-11-16-10V417h31l44 48 54-48V395H856V-26L792-59V-5H555V-42L490-75V395H361v22H490V573l65-11 16-11-16-10V417H792V573zM113-24V-8h75 6l5 1 3 1 2 1 1 1 1 1 1 2 1 3 1 5v6V204L109 165l-6-20-15 13-30 58 151 42V433H69v22H209V603l-63-32V811l64-11 17-10-17-10V662H480V869l64-11 16-11-16-9V662H813V811l65-11 16-10-16-10V641l-65-32v32H210V603l64-11 16-10-16-10V455h46l44 48 53-48V433H274V276l72 19 35 8 35 7 3-9-31-17-64-31-50-22V13L273 0l-2-13-5-13-7-13-8-10-11-10-12-6-13-4-14-3-13-1v33L113-24zM792 203H555V17H792V203zm0 192H555V224H792V395z"/><glyph glyph-name="undefined" unicode="㥇" horiz-adv-x="1024" vert-adv-y="918" d="M178 863l64-10 16-11-16-10V-45L178-77V863zM873-45 807-23 748 7 696 44l-4 3-70-33-63-24-65-21-69-17-71-14-74-9-1 9L418-21 482 2l62 25 59 28 51 28-43 54-31 57-16 44-191-19-2 21 185 18-16 67-8 69h-1v2 3l-1 12 65-7 17-10-14-10 6-48 14-61 4-11 232 23 48 59 70-47 2-21-344-34 9-24 27-48 32-42 12-11 49 35 47 38 43 41 1 1 43-48 3-19-19 5-32-27-52-37-40-26 28-20 51-25 58-20 31-6 29 127h11L951 4l4-1 21-13 6-24-14-21-23-6-72 16zM741 316l-13 24-8 12-18 23-22 23-25 24-15 10 5 9 17-7 18-5 16-6 17-8 29-18 28-21 24-24 5-24-13-20-25-5-20 13zm130 76-65 28-60 34-51 40-87-34-57-18-58-16-62-13-64-11-2 9 175 64 103 47 16 8-9 10-39 52-31 58-5 13-202-19-2 20 197 20-11 29-17 69-8 69-1-1v5l-1 13 65-7 17-9-14-11 6-48 14-61 16-42 220 22 48 59 70-47 2-21-331-33 23-43 33-45 19-19 61 38 40 29 36 29 2 1 39-51 2-19-19 7-25-17-44-28-47-26-3-1 22-18 52-29 59-25 29-9 28 124h11L951 435l7-2 20-15 3-24-15-20-24-4-71 22zM72 388l-24 6-12 20 5 25 8 8 8 12 8 14 8 16 8 18 16 44 16 52 7 30 10-1V572l-1-27-2-26-4-23-4-22-5-21-6-19-7-17-8-16-21-13zM328 503l-3 14-4 15-11 31-24 49-9 18-12 17 7 6 32-26 29-28 24-30 20-30 8-16 8-17-4-24-19-15-24 3-16 19-2 14zM764 752l-7 12-8 11-18 23-22 22-24 22-15 10 4 9 16-6 18-5 17-5 16-7 30-17 14-9 14-11 24-24 5-24-13-21-25-5-20 13-6 12z"/><glyph glyph-name="undefined" unicode="㦮" horiz-adv-x="1024" vert-adv-y="918" d="M840-65 748-33 666 18 604 77 530 42 447 10 360-17 267-40 169-58 66-71l-1 9L165-38l95 26 89 28 83 32 79 36 62 33-41 57-51 103-13 39L82 278l-1 21 380 37-21 62-16 70L99 439l-2 21 322 29-11 47-13 86L82 595l-1 21 311 27-6 47-14 172v12l65-9 16-10-15-10 12-148 7-49 323 28 49 58 69-48 2-21-440-38 11-79 12-53 275 24 49 59 69-48 2-21-390-35 14-58 25-74 318 31 48 59 70-47 1-21-430-42 7-20 47-95 40-56 22 14 61 45 56 49 47 49 6 6 45-46 5-19-20 4-42-39-62-49-67-46-16-9 43-41 70-43L854-2l58-7 30 130h11L942-13l23-10 9-23-10-22-23-9L840-65zM715 747l-11 13-26 23-15 12-35 23-41 23-23 11 3 9 25-4 25-4 23-6 22-7 21-7 20-9 36-20 17-12 16-13 8-23-10-22-23-9-23 10-9 12z"/><glyph glyph-name="undefined" unicode="㨻" horiz-adv-x="1024" vert-adv-y="918" d="M351-30v17H465l5 1 3 1 1 1h1l2 1 1 5 1 5 1 7V74H44V96H480v69H125v21H480v66l-85-4-79-1-84-1H141v9l389 44 113 16 46 7 41 8 34 7 1-6 59-49 2-16-24 12-27-5-36-4-42-4-48-4-55-3-50-3V186H781l54 54 64-54V165H544V96H861l54 53 65-53V74H544V8L543-6l-2-13-4-13-7-12-9-11-11-9-12-6-13-5-13-2-14-1v32L351-30zM249 880l64-11 16-10-16-10V799h95l44 49 54-49V778H313V729h83l33 27 59-49-27-21V536l-65-32v32H313V475H418l44 48 54-48V453H313V363l-64-32V453H46v22H249v61H165l-65-32V761l65-32h84v49H56v21H249v81zm317-45 65-32 170 43 50 14 35 12 5 2 2-8 53-44 1-17-22 11-17-5-45-7-25-4-58-7-31-3-34-2-36-3-39-1h-9V671H863l54 54 64-54V649H841V367l-65-33V649H631V590l-4-38-6-36-11-33-14-30-18-28-21-24-24-22-27-18-31-14-32-10-5 9 28 19 23 19 20 21 17 21 13 23 12 25 7 25 6 28 2 30V835zM249 625H165V557h84v68zm147 0H313V557h83v68zM249 707H165V646h84v61zm147 0H313V646h83v61z"/><glyph glyph-name="undefined" unicode="㭫" horiz-adv-x="1024" vert-adv-y="918" d="M331 362l-6 13-8 12-17 25-11 12-23 23-7 7V-40L195-72V421l-25-66-20-46-22-45-25-43-26-41-28-39-9 5L95 278l32 92 14 47 12 49 11 49 9 50 6 35H44v21H195V863l64-10 16-11-16-10V621h19l54 54 64-54V6e2H259V472l19-5 17-7 16-8 16-10 28-21 25-24 12-13 4-24-14-21-24-4-21 14-6 13zM365-18V3H644V229H418v22H644V837l64-11 16-11-16-10V251H815l53 53 65-53V229H708V3H868l54 54L987 3V-18H365zM560 387l-4 18-4 18-6 18-6 18-7 17-17 35-2 3-16-45-18-42-20-39-22-36-25-32-27-29-7 6 34 69 29 76 12 42 12 44 10 46 8 49 7 51 6 65 63-19 15-12-18-9-5-34-11-53-12-50-8-26 14-10 15-14 14-16 13-17 12-18 11-19 10-19 8-21 7-21-4-25-21-14-23 5-15 20-2 20zm353-16-6 23-7 22-16 39-9 18-19 34-9 15-18-50-18-41-19-37-22-35-25-31-26-26-8 6 34 65 15 36 14 37 12 41 11 43 10 45 8 48 6 51 5 65 63-18 15-12-18-9-5-35-10-53-12-49-7-23 23-15 16-14 16-16 14-18 26-39 12-22 12-24 10-25-3-25-19-15-24 3-16 18-6 23z"/><glyph glyph-name="undefined" unicode="㱚" horiz-adv-x="1024" vert-adv-y="918" d="M248 276l-4 15-14 28-9 13-11 13-25 26-16 13-5 3-39-54-36-39-38-36-7 7 30 42 28 44 26 44 24 47 21 49 19 52 17 53 14 57 12 58 7 45H47v21H404l54 54 64-54V756H307l-12-58-16-60-19-58-4-12H406l32 27 59-49-26-16-5-2-12-67-22-86-27-81-33-74-40-67-45-61-51-54-57-48-62-39L49-82l-4 9 61 41 55 45 49 49 44 55 39 60 34 65 27 71 23 77 17 83 11 73H247l-8-21-24-52-27-50-16-25 24-7 19-8 19-10 16-11 16-13 14-15 13-16 10-17 10-19-2-25-18-16-25 2-16 18-4 15zm373 34H871V530H625V380l-4-70zM871 772H625V552H871V772zM934 1l-2-14-4-13-7-12-9-11-11-9-12-7-13-4-13-2-14-1v32L742-24V-8H849l7 1 4 1 5 2 2 2 1 1 1 4 1 5 1 6V288H618l-8-48-16-62-22-56-29-50-34-44L469-8 424-38 373-61 318-76l-3 9 50 25 43 28 38 32 32 37 26 41 22 46 16 51 12 57 6 62 1 68V826l64-33H871l32 27 59-48-27-22V14L934 1z"/><glyph glyph-name="undefined" unicode="㺑" horiz-adv-x="1024" vert-adv-y="918" d="M837 197l52-37 9-18H877l-16-22-32-37-35-33-38-29L714-5 668-27 620-46 569-60 515-70l-58-6-1 9 54 16 50 18 47 20 43 23 39 24 36 27 33 29 28 31 26 35 25 41zM291-19l-9-11-9-10-9-8-11-7-12-6-12-5-13-3-13-2-14-1v32L114-24V-8h75l8 1 6 1 7 2 5 1 5 3 4 3 5 4 4 4 4 6 4 6 15 35 14 57 9 74 3 86-5 94-4 22-22-39-49-72-28-34-30-33-31-30-34-28-37-26-6 7 56 67 50 67 22 35 40 73 17 37 16 39 13 39 5-2-20 77-13 31-26-28-36-34-38-31-39-26-41-24-6 8 35 32 32 32 32 34 30 36 30 38 7 11-8 19-55 92-70 88 6 7 86-77 65-93 48 81 45 94 4 10 56-34 10-16-20-2-17-32-28-49-30-45-31-43-12-15 23-50 33-104 1-6 3-1-2-4 18-92 9-99V185l-8-79-13-65L297-8l-6-11zM760 296l49-42 7-18-21 2-43-46-31-29-33-26-34-24-37-22-38-20-40-18-41-15-44-12-3 9 39 21 72 46 33 23 62 51 53 56 25 29 25 35zm-82 91 51-40 7-18-21 1-25-28-22-21-24-21-55-41-64-39-35-19-38-16-5 8 91 74 50 47 42 44 32 43 16 26zM646 614l5 12 57-32 10-17-19-2-15-30 73-93-10 29 11 1 30 2 2 10 4 20 3 20 4 20 3 19 8 55 2 12 2 15 61-24 13-14-21-7-5-14-23-55-18-37-10-18 11 1h16l32 2 16 1h16 6l-4 17-14 44-6 16-8 15 8 6 11-13 13-12 22-25 27-40 8-13 13-28-4-24-19-15-24 3-15 20-1 12-4 25-5-2-14-8-15-7-30-14-47-17-10-4-5-10 38-41 29-29 29-27 29-23 28-20 50-30-59-47-30 23-30 26-28 28-29 32-27 34-27 38-27 40-25 43-25 47-8 18-24-44-31-51-32-48-35-44-36-42-38-39-40-35-42-31-44-28-6 8 37 36 35 36 34 39 33 40 31 43 29 45 13 23-13 3-14 20v10 3l-29-18-54-29-49-23-7-21-15 13-28 58 10 3 36 7 17 3 7 33 19 80 12 54 1 3-4-7-12 16-16 63 51 3 60 3 36 67 27 52 14 32 5 10 54-36 8-17-21-1-25-33-27-32-29-29-13-12 75 4 87 6 89 4h4l-15 17-14 14-32 30-18 14 4 9 44-18 20-10 20-11 18-12 16-13 16-13 14-15 14-15 12-16 2-25-15-19-25-2-19 15-6 15-16 28-8 10-57-14-87-16-84-15-83-12-58-8-1-2 57-26 12-15-20-5-36-75-20-37-9-14 51 11 20 5 18 3-1 11-4 23-7 26-3 13-6 13 8 5 8-11 11-10 10-10 9-11 16-22 7-11 10-19 37 75 21 51z"/><glyph glyph-name="undefined" unicode="㺥" horiz-adv-x="1024" vert-adv-y="918" d="M802-74l-14 1-13 3-13 4-12 7-11 8-9 11-7 13-4 12-2 14-1 13V125H697L683 98 652 59 614 24 570-5 518-28 462-47 399-60l-69-7-2 10 66 17 59 21L504 4l44 26 37 29 29 32 22 34H523V109L458 77V236l-21-11-33-15-35-13-5 8 84 65 10 8v13l10-5 46 43 18 19 30 37 15 22 50-41 5-13H765l3 2 4 7 2-2 23 20 59-49-27-16-34-14-21-14-28-15-15-8-14-5H872l32 27 60-48-27-22V125L872 93v32H781V6l1-5 1-5 3-2 4-2 5-1h7H921l32 134h11L953-9l19-13 13-19-13-20-19-13H802zM291-19l-9-11-8-9-10-9-11-7-11-6-13-5-13-3-13-2-13-1v32L115-24V-8h75l8 1 6 1 11 3 5 3 4 3 5 4 4 4 8 12 14 35 13 57 10 74 3 86-5 94-3 20-21-37-23-37-26-35-27-34-29-33-31-30-34-28-36-26-6 7 55 67 48 67 43 71 18 36 33 76 13 40 5-2-20 77-13 30-24-27-36-34-37-31-38-26-41-24-5 8 65 64 31 34 30 36 28 38 8 11-8 19-54 92-68 88 6 7 85-78 63-92 22 36 24 45 23 47 22 50 3 7 56-33 10-17-20-2-44-81-29-45-30-42-13-16 23-50 33-104 1-6 3-1-2-5 17-91 9-99V185l-7-79-13-65L297-8l-6-11zM859 26v5l-2 6-4 7-6 8-6 7-17 17-11 8-13 7 3 9 14-5 15-1 26-7 12-4 21-10 9-6 9-8 8-9 1-25L902 7 878 6 859 22v4zM666 238H523V147H646l7 16 10 42 3 33zm206 0H731l-8-46-15-45H872v91zM752 331H594l-24-22-23-18-37-25 13-7H685l5 4 46 48 9 11 7 9zM387 436l10 1 43 2V617l29-5v80l-27-17-27-15-29-12-5 8 43 41 39 41 6 8v27l15-8 24 35 12 23 11 22 12 30 56-33 10-16H735l4 4 1 3 2-1 25 21 59-48-26-16-31-13-23-15-24-14-13-7H856l32 27 59-48-27-22V625l-64-33v33H534l-36-18 7-1 16-11-16-10V541h69l44 49 54-49V520H505V442l16 1 61 3 34 2h35 37l1-9-69-20-63-15-84-17-46-9-10-19-13 14-17 63zm402-49H777l-12 1-13 3-11 5-11 7-9 9-7 12-5 12-3 13-3 13V617l65-11 16-11-16-10V526l32 13 78 29 50 20 2-8 53-45 2-16-24 11-16-5-55-8-20-3-41-4-45-3-16-1V462l-1-6V446l1-5 2-2 2-3 4-2 6-2 7-2H930l22 48h11l-11-48 13-9 8-12-8-13-13-9H789zm67 332H534V646H856v73zM728 805H577l-7-13-18-22-18-22-6-5 6-3H683l4 4 25 34 7 11 6 10 3 6z"/><glyph glyph-name="undefined" unicode="䂁" horiz-adv-x="1024" vert-adv-y="918" d="M925-9l33 134h10L958-9l19-13 13-19-13-20-19-13H795l-14 1-14 3-13 4-11 7-12 8-8 11-7 13-4 12-3 14V12 125H686L670 97 637 58 597 24 550-5 497-28 437-47 370-60l-73-7-1 10 70 17 62 21L483 4l47 26 38 30 32 31 24 34H5e2V109L435 77V237l-25-12-35-15-37-13-4 9 89 64 12 9v12l10-4 28 23 41 38 17 19 14 19 15 22 50-42 4-13H760l4 3 4 7 2-2 22 19 59-49-27-16-34-14-23-14-14-8-31-15-13-5H874l32 27 59-48-27-22V125L874 93v32H773V12l1-6V1l1-3 1-2 1-1 1-1h2l3-2 5-1h7H925zM861 25l-1 6-3 6-4 7-6 7-16 16-21 17-14 7 3 9 15-4 15-2 14-3 13-3 24-9 10-5 11-7 9-7 8-9 2-25L904 7 879 5 860 21l1 4zM56 791l64-32H249l32 27 59-48-27-22V101L249 68v65H120V68L56 36V791zM656 238H5e2V147H634l8 17 11 41 3 33zm218 0H720l-7-46-16-45H874v91zM249 343H120V154H249V343zm497-12H576l-26-22-50-36-13-8 13-6H674l6 4 38 37 21 23 7 8zM358 436l11 1 47 2 1 178 29-5v81l-30-19-29-14-30-12-5 8 68 62 19 20 7 8v27l16-8 26 37 13 21 12 23 12 29 56-34 9-15H729l4 4 1 4 2-2 25 21 59-48-27-16-31-14-24-15-25-14-13-6H857l32 27 59-48-27-22V625l-64-33v33H511l-36-18 6-1 16-11-16-10V541h81l44 49 54-49V520H481V442l19 1 65 3 36 2h37 39l2-9-75-20-34-8-93-19-79-15-10-19-13 15-17 63zM249 540H120V364H249V540zM781 387H769l-12 1-13 3-11 5-11 7-9 9-7 12-5 12-4 13-2 13V617l65-11 16-11-16-10V526l58 21 97 34 17 7 2-8 54-45 2-16-23 11-18-5-38-5-63-8-22-2-47-4H760V462l-1-6V446l1-5 1-2 3-3 4-2 6-2 7-2H935l22 48h10l-10-48 12-9 9-12-9-13-12-9H781zM249 738H120V562H249V738zm608-19H511V646H857v73zM721 805H559l-28-36-20-22-5-4 5-3H672l5 4 18 24 16 21 6 10 4 6z"/><glyph glyph-name="undefined" unicode="䉵" horiz-adv-x="1024" vert-adv-y="918" d="M453 101H335V20l32 4 41 3 40 4 38 2 37 2h25L513 55 479 78l-26 23zm210 53H335V122H663v32zm0 54H335V176H663v32zm225 5-52 11-50 13-94 28-44 16-5 2 9-7V254H361v22l-68-23-4-1 46-22H663l32 26 59-48-27-21V101L663 68v33H483l44-18 38-13 40-12 33-9 18 9 22 11 134 66 12 6 5 3 3-10 47-40 1-18-21 10-8-3-57-15-63-14-45-9-20-3 27-6 47-9 50-8 53-6 54-5 56-6-64-64-56 8-54 11-51 12-49 14L633-2 590 15 560 29l1-3L490 5 453-4 289-39 173-62l-9-18-13 14L130-4l59 8 81 9V247l-95-26-65-13-70-13-3 9 189 66 103 42 45 21 40 21 35 20 30 20 25 20 39-51 1-5 76-23 41-11 45-11 45-9 47-9 49-8 52-7 53-7 54-7-64-63-54 10zM531 339l-12 8-42-23-40-19-43-18-32-11H575l24 27-32 15-36 21zm407-61-43 11-82 25-39 14-73 30-34 16-32 17-30 19-22 16H470l-30-18-40-20-47-19-51-18-57-17-62-15-68-13-74-12-2 9 136 44 60 21 101 43 30 15H61v22H402l39 28 23 20H271l-64-32V731l64-33H752l19 16-4 3-2 5-4 6-6 7-8 9-10 8-25 17-32 18-8 3H643l-21-16-21-14-48-26-28-10-29-10-31-8-4 9 52 33 43 32 18 16 16 15 14 16 11 15 9 16 5 11 5 10 54-36 9-17-21-1-12-13H856l54 54 64-54V790H743l11-2 15-5 26-10 11-7 11-9 7-23-12-22-9-2 41-33-27-22V496l-65-32v32H510l21-18 6-18-22 2-9-9-6-5H859l44 48 54-48V426H626l55-16 72-20 76-19 40-8 84-16 49-10-64-59zM752 559H271V518H481l1 2 4-2H752v41zm0 59H271V581H752v37zm0 59H271V639H752v38zM341 722l-5 6-6 7-8 9-9 8-26 17-32 18-8 3H220l-21-19-22-15-23-14-25-14-28-12-29-11-31-10-4 9 51 36 43 34 18 17 30 34 11 16 9 16 10 22 55-36 9-16-21-2-12-13H426l54 54 64-54V790H319l11-2 14-5 26-10 11-7 11-9 7-23-12-22-23-7-22 12-1 5z"/><glyph glyph-name="undefined" unicode="䎒" horiz-adv-x="1024" vert-adv-y="918" d="M892-44 843-20 8e2 10 767 43 725 16 680-9 632-31 583-48 532-62l-53-9-2 6-9-3-14-2-14-2v33L376-23V-7h64l7 1 5 1 3 1h2l1 1 1 1 1 2 1 3V8l1 7V335l-37-72-40-64-22-30-24-29-25-27-27-25-7 6 70 126 30 66 28 68 23 72 3 7 28-14V624l-31-58-37-56-41-53-23-23-24-22-7 6 60 113 14 29 26 59 11 30 11 32 10 31 3 8 28-14v60H299l-27-21V15L271 1l-2-13-4-13-7-13-9-10-11-9-12-7-13-4-13-2-14-2v33L111-23V-7h75l7 1 5 1 4 1 2 2 2 2 1 3V8l1 7V328l-34-70-19-33-41-63-22-28-24-27L43 82l-8 6 49 93 30 65 28 68 12 36 12 37 10 33h-1l5 13 28-13V622l-13-25-33-58-37-53-19-25-22-22-23-22-8 6 42 82 27 56 35 88 19 58h-1l5 13 28-14v60H39v22H208l32 26 56-45v19H462l32 26 59-48-26-21V15L526 1l-3-13-4-13-6-13-10-10-7-6 77 32L617 2l43 24 40 28 36 28-7 9-27 50-22 56-10 39-126-17-2 21 123 17-13 69-6 68-1 18 65-9 17-10-15-10 4-49 11-62 2-6 120 17 46 61 71-45 3-21-235-33 8-28 19-49 22-42 25 25 31 37 33 43 49-41 7-19-21 2-21-25-37-38-31-28 23-22 35-25 39-19 8-2 29 124h11L952 5l7-2 20-15 4-24-15-20-24-4-52 16zM789 333l-3 11-10 23-18 33-15 23-11 9 6 8 12-7 14-6 12-7 13-8 11-8 11-10 11-10 10-11 10-11 9-13 1-24-16-19-25-1-18 16-4 12zm99 61-47 29-42 34-31 34-54-30-41-18-42-16-44-14-47-11-3 9 83 42 74 44 35 23 11 8-11 17-27 52-22 57-2 8-134-18-2 20 131 19-9 33-12 68-6 67-1 18 65-9 17-10-15-10 4-48 11-62 10-38 112 15 46 61 71-44 3-21-226-32 18-48 23-45 6-9 32 29 27 28 27 31 47-45 5-18-20 3-15-14-33-28-34-27-3-2 20-22 35-29 40-24 6-3 28 120h11L952 436l11-4 17-17 2-25-17-17-25-2-52 23zM810 757l-4 11-4 12-5 10-18 32-15 21-11 9 5 8 13-7 13-4 25-14 12-8 11-9 11-9 10-11 18-24 2-25-16-18-25-1-19 16-3 11z"/><glyph glyph-name="undefined" unicode="䏼" horiz-adv-x="1024" vert-adv-y="918" d="M91 853l65-33H293l32 27 59-48-27-22V19 6L354-8l-4-12-7-13-9-11-11-8-12-7-12-4-14-3-14-1v33L185-18V-2h86 7l4 1 4 2h2l1 1V3l2 2 1 3v5l1 6V326H156V304l-3-57-4-54-6-49-8-46-10-40-11-36-14-32L85-38 66-59 46-75l-7 7L50-48l9 24L67 2l8 31 6 34 5 39 3 43 2 48 1 51-1 56V853zM858 233l44-46 4-19-20 5-29-27-48-38-38-26 26-20 48-25 53-20 26-6 29 127h11L953 4l5-1 21-13 6-24-14-21-24-6-67 16-62 23L763 8 714 44l-3 2-62-31-59-25-61-21-64-17-66-14-69-9-2 9L457-21 517 2l57 25 54 28 48 28-5 5-35 50-29 56-16 43-175-18-2 21 170 18-14 67-10 74v12l65-7 17-10-15-10 6-49 13-61 4-9 205 21 48 60 70-47 2-21-318-34 9-25 24-48 31-42 9-9 43 33 43 38 42 42zM756 317l-6 11-13 24-8 12-18 23-21 23-12 12-13 10 5 9 15-7 17-6 16-6 15-8 14-8 14-9 13-10 13-11 23-24 4-25-14-20-24-4-20 14zM293 568H156V347H293V568zM877 392l-61 28-55 35-47 39-28-13-50-20-53-19-55-16-57-13-60-11-3 9 110 43 102 44 46 24 15 8-10 11-36 53-28 57-5 12-186-19-2 20 181 20-10 30-15 69-10 73v12l65-7 17-10-15-10 6-48 13-61 15-41 194 20 48 59 70-46 2-21-306-33 22-44 30-45 16-17 55 36 37 29 35 31 41-50 2-19-19 6-22-17-42-27-44-26-3-2 22-18 48-30 54-25 23-8 29 124h11L953 435l8-3 19-15 3-24-15-19-24-4-67 22zM293 799H156V589H293V799zm489-58-5 12-13 23-16 22-10 12-21 22-11 10-14 10 4 8 16-5 17-5 15-5 15-7 29-17 26-21 23-24 3-24-13-20-24-4-21 13z"/><glyph glyph-name="undefined" unicode="䙁" horiz-adv-x="1024" vert-adv-y="918" d="M874-45 814-22 760 8 713 45l-2 1-60-31-57-25-59-21-63-17-64-14-67-9-2 9L464-21 522 2l56 25 52 28 46 28-5 5-35 50-28 57-14 42-169-18-3 21 165 18-15 67-8 74-1 12 65-7 17-10-15-10 6-49 13-61 3-9 195 21 48 60 70-47 2-21-308-34 9-25 24-48 29-43 8-8 41 33 41 38 35 36 6 6 45-46 4-19-20 4-28-26-46-38-38-26 26-20 46-25 52-20 23-5 29 126h11L946 4l5-1 20-14 6-23-14-21-24-6-65 16zM773 303l-20 14-18 36-15 23-19 23-22 23-13 10 5 9 15-7 16-6 16-7 14-7 28-18 25-21 23-23 3-25-14-20-24-4zM604 663 427 644l7-6-27-17-13-5-15-29-28-47-30-46-34-45-26-32h5V356l26-12 12-7 4 5 33 52 23 41 5 12 5 14-1 1 6 9 53-37 7-14 135 55 48 23 45 23 14 9-10 12-35 52-28 58-4 11zM871 392l-59 28-53 35-45 38-27-12-49-20-51-19-54-16-55-13-58-11-3 9 15 6H416l-49-46-31-25-18-13-3-3 36-25 33-29 14-16 13-16 12-18 2-24-16-19-24-2-19 16-7 15-7 15-9 16-23 32-13 16-41 42V-45L202-77V353l-30-29-43-39-47-36-50-34-5 8 42 41 78 84 55 68v1h1l44 61 28 45 26 45 23 47 10 23H52v21H202V874l64-11 16-10-16-10V659h77l32 27 50-41-3 19 176 20-11 30-15 69-8 73-1 12 65-7 17-10-14-10 5-48 13-61 14-41 184 20 48 59 70-46 2-21-296-33 21-44 30-45 15-17 51 36 36 28 34 32 42-50 2-19-19 6-22-16-40-28-42-26-3-2 21-18 46-30 52-25 22-7 28 123h11L946 435l8-3 19-15 3-25-16-18-24-4-65 22zM779 742l-5 12-13 23-15 22-19 22-21 22-14 9 4 8 16-5 16-5 15-6 15-7 14-7 27-19 24-22 10-13 4-24-14-20-24-4-20 14z"/><glyph glyph-name="undefined" unicode="䛁" horiz-adv-x="1024" vert-adv-y="918" d="M65 281l65-32H297l33 27 59-49-27-21V-5L297-37V27H130V-37L65-69V281zM742-13V3h75l7 1 5 1 4 1 2 2V9l1 1 1 3 1 5V283H567V-34L502-67V283H417v21h85V537H417v22h85V831l65-32H838l33 27 59-49-27-21V559h29l24 32 32-32V537H903V304h29l24 33 32-33V283H903V25l-1-14-2-13-5-13-6-12-9-11-11-9-12-7-13-4-13-2-14-1v32L742-13zM297 227H130V49H297V227zM838 537H567V304H838V537zM296 434l65-53V359H67v22H243l53 53zm0 137 65-53V496H67v22H243l53 53zM838 777H567V559H838V777zM343 719l64-53V644H46v22H289l54 53zM296 856l65-54V781H67v21H243l53 54z"/><glyph glyph-name="undefined" unicode="䜛" horiz-adv-x="1024" vert-adv-y="918" d="M61 256l64-32H266l33 27 59-49-27-21V-2L266-34V-2H125V-40L61-72V256zm558 91H759l9 13 3-3 21 17 59-48-27-16-54-23-10-6-40-20H851l32 27 59-48-27-22V121L851 89v43H770V13l1-5 2-5 2-2 5-2 5-1h7H931l33 134h10L964-2l19-13 13-19-13-20-19-13H792l-14 1-14 3-13 4-12 7-11 8-8 11-7 13-5 12-2 14V19 132h-7L682 95 654 53 618 18 577-12 528-36 473-54 413-66l-67-5-2 9 64 16 57 20L513-4l41 26 34 29 26 32 20 36 5 13H539V116L474 84V240l-28-15-32-14-34-13-5 8 99 79v9l7-4 24 22 41 41 35 42 17 25 49-43 6-18-20 3-5-6-9-9zM266 202H125V19H266V202zm391 38H539V154H646l2 5 8 44 1 37zm194 0H721l-5-46-10-40H851v86zM745 326H596l-12-12-51-38-10-7 16-8H693l5 5 44 56 3 4zM272 406l54-48V337H66v21H228l44 48zm668 32 25 69h10l-10-69 14-10 10-15-10-14-14-10H779l-13 1-12 4-12 5-11 8-9 10-7 11-5 12-3 13-1 14V581h-4l-14-36-26-42-32-36-38-29-45-25-50-17-54-12-61-6-1 10 57 16 50 19 43 22 36 25 30 29 24 33 17 35 4 14H543V564l-64-32V689l-29-16-33-15-33-13-5 8 80 65 20 17v9l6-3 43 40 19 22 35 43 15 21 3 3 49-42 6-18-21 2-14-15H760l3 2 5 10 3-3 21 18 59-49-27-16-47-20-28-15-26-12H853l33 27 59-49-27-21V570l-65-32v43H770V467v-7-5-3l1-3v-2l1-2 3-3 4-2 5-1 8-1H940zM272 546l54-48V476H66v22H228l44 48zM659 690H543V602H649l2 5 7 45 1 38zm194 0H722l-4-45-9-43H853v88zM303 702l64-54V627H48v21H249l54 54zm444 73H597l-36-31-25-19-9-5 16-8H696l4 4 9 12 10 11 25 32 3 4zM272 837l54-49V767H66v21H228l44 49z"/><glyph glyph-name="undefined" unicode="䝳" horiz-adv-x="1024" vert-adv-y="918" d="M878-60 858-48 808-24 778-12 707 12 578 49l2 10 48-3 45-4 42-6 39-6 70-16 30-9L882 4 907-6l23-13 13-20-5-24-21-14-23 5-16 12zM402 81l9-15 35-35 1-18-21 8L380 3 350-8 281-28 202-48l-44-9-47-8-50-7-2 9L267 15l63 27 51 26 21 13zM217 440l65-32H758l32 26 59-48-27-22V97L758 65V97H282V81L217 48V440zM758 194H282V118H758v76zm0 96H282V215H758v75zm0 96H282V311H758v75zm109 49-51 26-47 31-41 34-3 3-25-16-60-31-66-26-73-20-78-15-2 10 74 24 68 28 61 30 54 34 18 14-34 46-25 45-19 49-12 52-5 50H542l4-3V778H359V711h71l32 27 59-49-27-16-11-5-9-20-24-39-29-36-35-33-40-29-45-25-50-22-56-19-60-15-65-11-2 10 62 21 56 23 50 23 45 25 39 28 33 28 27 31 22 32 17 34 5 15H222l-13-20-14-19-6-7h1l18-2 17-2 17-4 14-3 14-5 12-4 12-6 12-7 9-8 6-24-13-22-23-5-21 12-1 5-4 6-5 7-6 8-20 15-12 9-30 18-6 2-19-16-20-14-21-12-24-11-25-10-4 9 20 16 34 33 13 16 12 17 10 16 8 18 6 16 4 18 2 13h-1l4 15 60-23 14-14-21-7v-2h63V874l64-11 16-11-16-10V8e2h89l44 48 30-26v3H863l32 27 59-49-27-16-8-3-13-39-28-56-35-52-41-47-31-27 32-22 43-24 47-20 93-30-63-55-56 23zm-8 368H612l16-44 20-46 24-42 27-38 30-35 6-4 31 31 34 44 27 47 22 51 10 36z"/><glyph glyph-name="undefined" unicode="䧯" horiz-adv-x="1024" vert-adv-y="918" d="M330 256l-2-10-5-13-7-12-8-10-10-10-11-7-12-6-13-4-13-2-14-1v32l-54 16v16h54l7 1 6 1 4 1 3 1 3 2 3 4 9 41 3 23v24l-2 24-5 25-7 25-11 26-13 27-33 58 1 2-5 3 66 170 16 49 6 23 1 2H147V-45L82-77V831l65-32H291l32 27 59-49-27-16-10-4-11-25-24-49-29-51-34-52-20-26-17-20 27-21 24-24 21-26 17-27 15-27 10-29 8-29 4-31 1-30-3-31-4-3zm290 97H758l7 10 3-2 22 19 60-49-27-16-35-14-21-14-14-8-15-8-15-7-14-5H868l33 27 59-48-27-22V125L868 93v32H773V6l1-5 2-5 2-2 5-2 5-1h7H918l32 134h11L950-9l19-13 13-19-13-20-19-13H795l-14 1-14 3-13 4-12 7-11 8-8 11-7 13-5 12-2 14V12 125H688L673 98 641 58 602 24 557-5 505-28 447-47 382-60l-71-7-1 10 68 17 60 21L491 4l45 26 37 29 31 32 22 34H509V109L444 77V236l-23-11-33-15-36-13-5 9 97 73v12l10-5 48 43 34 38 15 18 12 19 2 3 50-41 5-13zM856 26l-2 5-2 6-3 7-6 7-7 8-18 17-11 8-13 7 3 9 14-5 15-1 14-3 25-8 11-5 10-5 10-6 9-8 8-9 1-24L899 7 874 6 855 22l1 4zM657 238H509V147H636l8 17 10 41 3 33zm211 0H722l-8-46-15-45H868v91zM745 331H582l-25-22-48-35-13-8 13-7H676l6 4 36 37 20 22 7 9zM370 436l11 1 46 2V617l28-5v80l-28-18-28-14-29-12-5 8 44 41 40 41 6 8v27l15-8 11 15 14 21 24 44 8 18h-1l5 12 56-34 10-15H728l4 4 1 3 2-1 25 21 59-48-27-16-31-13-23-16-24-13-14-7H851l32 27 60-48-27-22V625l-65-33v33H520l-36-18 7-1 16-11-16-10V541h74l44 49 54-49V520H491V442l17 1 97 5h36 38l1-9-71-20-34-8-90-19-51-10-23-4-11-20-12 15-18 63zm412-49H769l-12 1-12 3-12 5-11 7-8 9-8 12-5 12-4 13-1 13V617l64-11 16-11-16-10V527l94 34 19 7 52 20 3-8 53-45 1-16-22 11-18-5-76-11-65-6-23-2H760V462l-1-6V446l1-5 1-2 3-3 4-2 6-2 8-2H928l21 48h11l-11-48 13-9 9-12-9-13-13-9H782zm69 332H520V646H851v73zM721 805H565l-26-36-19-21-6-5 6-3H674l4 4 26 34 13 21 4 6z"/><glyph glyph-name="undefined" unicode="䪌" horiz-adv-x="1024" vert-adv-y="918" d="M920-9l32 134h11L952-9l19-13 13-19-13-20-19-13H822l-14 1-14 3-13 4-12 7-11 8-8 11-7 13-5 12-2 14V12 125H724L711 99 683 60 649 25 608-4 563-28 511-46 453-59l-62-8-2 10 60 17 52 21L546 4l40 26 32 29 26 31 20 35H568V109L503 77V234l-14-9-30-14-32-14-5 8 73 64 8 8v14l11-5 23 23 17 19 31 38 11 18 10 16 4 6 51-39 7-14H779l4 2 2 6 2-1 24 20 60-49-27-16-30-12-20-15-13-8-28-15-13-6H876l32 27 59-48-27-22V125L876 93v32H8e2V6l1-5 2-5 2-2 5-2 5-1h7 98zM292 863l64-10 16-11-16-10V734h15l24 33 32-33V713H356V573l-64-32v54H271V474h71l32 27 59-49-27-21V281l-64-33v33H271V170h43l53 54 65-54V148H271V-40L207-72V148H42v22H207V281H141V243L77 211V506l64-32h66V595H182V557l-65-32V713H51v21h66V863l65-10 16-11-16-10V734H292V863zM864 27v6l-1 6-3 6-4 7-13 16-17 16-11 7 3 8 13-4 13-2 24-6 21-9 10-6 8-6 9-8 7-9V25L906 6H881L864 24v3zM691 238H568V147H673l6 16 9 41 3 34zm185 0H755l-7-45-14-46H876v91zM769 331H631l-21-21-43-36-12-8 13-7H711l4 4 31 36 23 32zM207 452H141V302h66V452zm135 0H271V302h71V452zm98-16 11 1 37 2V617l25-5v77l-20-14-25-14-25-13-6 8 38 41 33 40 5 7v29l15-8 9 13 12 21 10 22 10 23 11 30 57-31 11-16-3-1H752l4 3 1 3 1-1 27 22 59-48-27-16-28-12-21-16-23-14-13-7H861l32 27 59-48-27-22V625l-64-33v33H578l-35-18 9-1 16-11-16-10V541h71l33 38 43-38V520H552V442l66 4 62 2h33l2-9-63-20-108-27-45-10-17-4-10-19-13 14-19 63zm370-49H797l-12 1-12 3-12 5-10 7-9 9-7 12-6 12-3 13-2 13V617l65-11 16-11-16-10V528l77 33 16 6 40 18 5 2 3-8 50-43 2-17-23 10-13-4-33-5-17-2-18-3-38-4-40-4H789V462l-1-6V446l1-5 1-2 3-3 3-2 6-2 8-2H929l22 48h10l-10-48 13-9 8-12-8-13-13-9H810zM292 713H182V616H292v97zm569 6H578V646H861v73zM748 805H616l-6-12-33-44-5-6 6-3H709l3 4 21 34 6 10 9 17z"/><glyph glyph-name="undefined" unicode="䫮" horiz-adv-x="1024" vert-adv-y="918" d="M693 115l46-46 5-18-21 4-45-36L654 3 602-27 574-41 545-54 513-66 480-76l-5 9L580 8l44 35 37 35 16 17 14 18 2 2zM349-9l4 1 4 1 3 2v1l1 1 2 4V5l1 7V169H42v22H364v99l64-11 16-11-16-9V191h12l44 48 53-48V169H428V12-2l-3-13-4-13-7-12-9-11-11-9-12-7-12-4-14-2-14-1v33L245-25v9l-4-4-25 3L2e2 2l-2 14-5 28-4 14-11 37-9 24-6 11 7 7 9-9 12-8 10-9 10-10 10-12 9-12 9-13 16-29 7-15-3-24-6-5h96zM920-39 901-8 889 8 865 37 852 51 805 92l-18 12 5 9 42-14 20-8 20-10 36-23 17-14 16-14 16-16L973-3l5-24-13-20-25-5-20 13zm2 892 64-54V777H806l-20-33-21-30-22-28-12-13-13-13-13-12H866l33 27 59-48-27-22V165l-65-33v33H659V148l-65-32V681l65-33h29l5 8 25 65 12 32 9 24H548v22H868l54 54zM866 320H659V186H866V320zM78 245 44 3e2l80 27 17 5V476H67v22H188l44 48 54-48V476H206V350l15 4 24 5 25 5 24 4V531l64-33h97l32 27 59-48-26-22V304l-65-32v54H358V288l-64-32V356l-39-23-67-34-90-44-4-21-16 11zM866 471H659V342H866V471zm-411 6H358V347h97V477zM866 627H659V492H866V627zM444 861l59-49-26-21V724h5l25 32 32-32V703H477V575l-65-33v43H110v22H412v96H55v21H412v88H116v22H412l32 27z"/><glyph glyph-name="undefined" unicode="䭕" horiz-adv-x="1024" vert-adv-y="918" d="M453 118H335V25l73 9 39 4 39 3 37 2 30 1-41 24-34 26-25 24zm210 59H335V139H663v38zm0 60H335V198H663v39zm224 8-52 12-50 13-48 15-90 34-13 6 18-16V288H361v21H575l27 30-35 20-36 22-14 10-39-24-40-21-44-20-48-20-52-18-11-4 52-26H663l32 27 59-48-27-22V118L663 85v33H479l86-37 41-14 30-9 82 45 105 55 5 2 4-10 44-39 1-17-21 8-22-7-39-11-42-11-67-17-25-4-3-1 36-9 47-10 49-8 53-7L953 4 889-60 832-50 779-39 727-26 679-11 632 6 589 25 560 40l1-6-34-11L453 3 374-16 289-35 173-59l-8-19-13 14L130-2l11 2L270 17V280l-33-11-61-17-66-16-70-15-3 10 188 72 54 22 94 46 40 22 34 23 31 22 25 22 42-50 1-11 75-25 85-25 45-11 48-10 49-9 52-8 53-7 53-8-64-63-55 12zM243 863l65-10 16-11-16-10V796h87l44 49 54-49V775H308V734h78l32 27 59-48-27-22V554l-64-32v32H308V503H409l44 49 54-49V482H308V412l-65-32V482H44v21H243v51H165l-64-32V767l64-33h78v41H58v21H243v67zm328-32 65-32 24 7 152 39 97 23 2-7 57-48 3-16-25 12-25-5-67-9-65-7-31-4-32-2-31-2-31-2-28-1V691H861l54 54 65-54V670H824V423l-65-33V670H635l-2-18-5-28-6-27-8-26-10-24-12-22-14-22-15-19-18-17-19-15-7 7 12 19 9 21 9 21 7 20 6 22 5 22 3 23 2 24v24l-1 26V831zM243 635H165V576h78v59zm143 0H308V576h78v59zM243 713H165V656h78v57zm143 0H308V656h78v57z"/><glyph glyph-name="undefined" unicode="䰼" horiz-adv-x="1024" vert-adv-y="918" d="M72-79 48-74 35-54l4 24 9 11L57-6 72 25l7 19 6 20 12 47 5 26 5 28h9l4-29 2-27 1-26V58l-2-24-3-22-4-21-6-20-7-19-8-18L72-79zM861 337l59-49-27-16-12-5L791-42 720-55 824 288H515v22H829l32 27zM285 19l-1 14-2 14-7 28-4 15-12 28-7 15-9 14 7 7 13-12 14-10 12-12 12-12 20-29 9-16 7-16 7-16 5-18-7-24-21-12-24 6L285 4V19zM223-38l-23-7-21 12-8 24 3 12 3 13 1 13 1 15V59l-2 33-4 36-6 19 10 4 9-18 10-16 9-17 15-33 5-17 4-17 3-16 3-16 1-17-13-22zM396 30l-3 14-7 27-11 26-14 25-16 25-11 11 6 8 13-8 15-7 27-19 24-23 11-13 9-14 10-15 8-16-1-25-19-16-24 1-17 19zM153 229 88 197V585L65 556 43 533l-8 6L89 657l38 96 23 69 9 31 4 13 59-28 12-16-20-4-22-52-2-5H3e2l32 27 60-48-27-16-14-6-23-34-26-30-15-16-46-43H350l32 26 60-48-27-21V229l-65-32v32H153zm66 172H153V251h66V401zm131 0H284V251h66V401zm548 33-31 29-29 33-28 35-26 39-24 42-23 45-22 49-19 52v3l-37-90-26-52-26-50-29-47-32-46-32-43-36-41-38-37-8 6 58 89 27 46 49 95 43 101 19 53 17 55 18 66 59-27 13-15-19-5-11-31 39-68 27-44 27-41 27-36 28-33 28-30 29-26 29-22 51-33-60-46-32 25zM219 573H153V423h66V573zm131 0H284V423h66V573zm415-54 54-48V449H572v22H721l44 48zM298 740H180l-37-72-18-30-15-22 43-21h73l13 19 33 61 15 34 6 15 4 13 1 3z"/><glyph glyph-name="undefined" unicode="䳻" horiz-adv-x="1024" vert-adv-y="918" d="M106-66 85-53 79-30 92-8l9 5 9 6 9 7 8 9 8 9 7 12 7 14 11 31 3 19h10l1-19 2-19 1-18-2-17-3-18-5-16-6-16-9-15-10-13-12-13-24-6zM339-30 329-8l3 16 1 9-1 9-1 11-2 10-4 12-4 13-5 13-9 12 8 6 10-11 12-9 11-9 10-11 8-10 15-22 5-13 5-12 3-14-10-22-23-10-22 10zM501 7l-2 9-7 18-5 10-12 21-16 23-10 9 5 8 13-8 13-6 13-6 12-7 11-8 11-8 10-8 9-9 8-10 7-10 1-25-17-18H521L503-1l-2 8zM896-15l-8-11-8-11-9-9-11-7-11-7-13-5-13-3-13-2-13-1v32L689-23V-6H797l13 1 6 1 5 2 4 3 7 6 4 4 7 13 3 7 5 18 2 10 2 9 1 11v40H281V54L216 22V428l65-32h18l3 2 23 43 9 18 7 16v2l-1 1 5 7 49-42 7-18-28 3-20-14-20-12-12-6H738l32 27 59-49-27-21V241l-64-32v32H281V202H909l33 37 43-37V180H281V140H856l32 27 59-48-25-16v-1l-1-14-2-28-2-13-3-13-7-25-5-12-6-12zM675 20l-4 15-8 16-13 16-17 16-9 9-12 6 3 9 14-4 13-2 13-3 13-3 12-5 11-6 11-6 10-8 10-8 9-9 2-25L718 9 694 6 675 20zm63 288H281V263H738v45zm0 66H281V330H738v44zM252 877l65-11 16-11-16-9V811h93l44 49 54-49V790H317V753h83l32 27 59-48-27-22V592l54-48V522H317V453l-65-33V522H51v22H252v46H170l-65-32V785l65-32h82v37H61v21H252v66zm316-31 65-32 170 38 49 12 22 6 14 5 5 1 2-6 56-47 1-16-23 11-22-5-44-5-53-5-60-5-70-3H642h-9V705H863l54 54 64-54V684H843V455l-65-32V684H633V637l-4-33-7-30-11-28-14-26-18-23-21-20-24-17-27-14-29-11-33-8-3 9 28 17 23 17 20 17 17 18 14 19 10 20 7 21 5 22 3 24-1 26V846zM4e2 590H317V544H420l41 45-61-31v32zM252 663H170V612h82v51zm148 0H317V612h83v51zM252 732H170V685h82v47zm148 0H317V685h83v47z"/><glyph glyph-name="undefined" unicode="𠝩" horiz-adv-x="1024" vert-adv-y="918" d="M759-24V-8H867l7 1 5 1 4 2 2 1v1l1 1 1 4 1 5V863l65-10 16-11-16-10V14L952 1l-2-14-5-13-6-12-9-11-10-9-13-7-13-4-13-2-14-1v32L759-24zM454 148H249V12H454V148zM706 783l64-11 16-11-16-9V138l-64-33V783zM454 306H249V170H454V306zm129-77-33 33-25 28-7-5V-31L454-63v53H249V-47L184-80V304l-32-36-53-47-59-39-5 7 50 48 46 51 41 55 36 59 25 52H45v21H242l23 60 16 56H114v21H287l16 76 5 40H88v21H311l3 24 6 83 1 18 64-17 15-11-17-9-8-72-3-16H5e2l53 54 65-54V728H368l-9-51-16-65H474l54 54 65-54V591H409l35-80 19-36h80l54 54 64-54V454H475l35-55 27-32 28-32 29-28 33-26 51-37-59-45-36 30zM430 454H283l-40-72-27-38 33-16H454l28 23-14 21-21 41-17 41zM398 591H337l-25-73-19-43H423l-8 25-12 47-5 44z"/><glyph glyph-name="undefined" unicode="𠠋" horiz-adv-x="1024" vert-adv-y="918" d="M724-24V-8H831h7l5 2 5 1 1 1 1 1 1 2 1 3 1 5V459l64-11 16-10-16-10V13 0l-3-13-4-13-7-13-8-10-11-9-12-7-13-4-14-3-14-1v33L724-24zM201 84l47-45 4-19-22 5L201 4 164-16 143-26l-23-9-24-9L44-60l-4 8L85-22 123 6l33 27 25 26 10 11 10 14zM436-17l-6 7-7 9-19 18-24 18-30 20-18 9 3 9 19-5 19-3 18-4 17-4 30-11 14-6 13-7 12-7 11-8 8-24-11-22-24-7-22 10-3 8zM620 414l64-10 16-11-16-10V65L620 32V414zM1e2 453l64-32H403l32 27 59-49-27-21V91L403 59V91H164L1e2 59V453zM403 198H164V112H403v86zm0 101H164V220H403v79zm0 1e2H164V320H403v79zm478 75-55 24-49 28-44 32-5 5-29-16-63-28-71-23-77-19-82-13-3 10 81 23 72 26 66 28 57 31 16 11-32 39-27 42-21 45-14 48-6 46H516l6-6V785H335V727h71l32 27 59-49-27-16-12-5-8-17-25-35-30-33-35-29-40-25-46-22-50-20-55-16-60-13-66-10-1 10 62 20 56 20 51 22 46 23 39 25 33 26 28 27 22 29 16 30 4 9H196l-13-19-15-17-3-3 17-1 33-4 28-7 13-4 11-4 11-6 10-7 7-24-11-22-24-6-21 11-1 4-3 5-5 6-7 7-20 15-12 8-31 17-5 2-21-16-20-12-21-11-49-17-3 9 20 14 34 30 14 15 12 15 10 15 7 15 6 15 5 16 1 10 3 15 61-24 13-14-11-4h54V873l65-11 16-11-16-10V807h89l44 48 43-38v17H876l32 27 59-48-27-16-9-4-14-35-30-52-36-47-44-42-29-22 29-18 46-21 51-18 99-28-63-56-59 20zM871 813H607l16-39 21-42 24-37 29-34 32-31 9-7 35 31 36 40 30 43 22 46 10 30z"/><glyph glyph-name="undefined" unicode="𠡡" horiz-adv-x="1024" vert-adv-y="918" d="M773-46l-11-5-11-4-24-6-12-2-12-2-12-1-12-1v33L571-18V-2H679l17 1 9 1 8 2 9 2 8 2 16 7 7 4 8 5 11 7 10 10 9 13 9 15 7 19 7 22 6 24 4 28 3 31 1 22H538l-31-52-42-53-49-47-55-41-61-35-68-27-74-21L77-76l-2 9 77 24 69 28 62 32 55 36 48 42 41 45 34 50 12 23H136v21H484l6 11 22 60 16 65 2 10 60-23 14-13-19-7-15-51-22-52H829l32 27 60-48-27-16-2-1v-9l-4-35-5-32-7-29-8-27-10-25-13-22L831-3 814-20 795-34 773-46zm90 418-53 31-46 35-42 40-2 2-24-19-61-37-68-30-74-25-79-18-3 10 76 28 68 31 62 35 55 39 21 19-7 10-30 48-25 52-19 57-13 59-5 59H530l8-7V769H349V687h72l32 26 59-48-27-16-9-4-10-26-24-46-30-41-35-38-41-34-46-30-51-27-56-22-61-19-67-13-2 9 62 24 57 26 51 26 45 30 39 31 34 33 28 36 23 38 17 40 7 23H209l-11-21-14-23-10-12 22-4 18-3 16-5 15-5 15-5 13-7 12-7 11-9 10-10 4-24-14-20-24-4-20 14-2 6-4 7-4 8-17 16-23 19-30 20-7 3-16-17-20-17-22-15-25-13-25-12-6 9 21 18 17 19 16 18 14 19 12 19 10 20 9 20 6 20 4 21 3 17 2 15 62-21 14-14-20-7-1-6-3-5h67V878l65-11 16-11-16-9V791h92l44 48 29-26v7H860l33 27 59-49-27-16-7-3-15-47-28-65-34-61-42-54-36-36 37-31 44-28 48-24 53-21 37-13-62-53-57 26zm-6 426H605l16-53 21-55 24-50 28-46 31-40 5-5 30 35 35 51 28 56 22 60 12 47z"/><glyph glyph-name="undefined" unicode="𠡹" horiz-adv-x="1024" vert-adv-y="918" d="M239 563H421l3 5 1-1 28 23 59-48-27-16-16-7-14-22-30-37-34-36-39-32-42-30-46-28-49-24-54-22-58-19-61-15-3 9 57 25 54 26 49 27 44 28 41 30 36 31 32 32 28 34 24 35 6 11H219v2l-23-19-24-18-21-13 3-1 18-2 17-2 15-4 30-8 13-6 12-5 12-7 11-8 8-23-10-22-23-9-22 11-4 6-6 8-6 8-8 8-20 16-12 9-29 18-12 5-20-12-30-15-33-14-5 8 75 66 21 20 36 39 15 19 22 35 4 10H68v22H248V867l65-11 16-11-16-10V771H422l44 49 54-49V750H313V664H433l44 48 54-48V642H249l35-22 10-17-22-1-17-21-16-18zM882 299l-42 32-40 37-38 43-34 47-14-14-45-39-48-32-26-13 4-4-20-7-14-52-23-53H824l32 26 59-48-27-16-1-1-1-10-3-35-5-33-7-30-8-28-11-25-12-22L825 1 809-16 789-31 768-42l-11-5-12-5-12-3-11-4-12-2-13-1-11-1-13-1v32L566-16V1H673l17 1 9 1 9 1 8 2 8 3 16 7 16 8 10 8 10 10 9 13 9 17 8 19 7 22 5 26 5 29 3 31 1 23H532l-30-53-42-54-49-49-55-42-62-35-67-28-75-22L72-75l-2 9 76 25 70 29 62 32 54 38 48 41 42 47 34 52 12 24H130v22H479l6 10 21 62 5 19-1 3 2 1 10 42 2 12 48-18 32 22 42 35 39 39 20 26-11 17-30 61-28 67-25 72-20 75H534v21H845l33 27 59-48-27-16-9-4-16-49-27-66-30-61-35-55-31-41 42-50 36-36 38-30 39-23 39-18 33-14-61-51-46 24zM841 789H602l30-67 33-67 34-62 33-55 1-1 18 27 29 54 25 58 22 63 14 50z"/><glyph glyph-name="undefined" unicode="𡁅" horiz-adv-x="1024" vert-adv-y="918" d="M563 355H727l11 13 2-2 19 16 59-49-26-16-65-27v1l-33-14-10-3H833l33 27 59-49-27-21V136l-65-32v43H730V40l1-7 1-5V25l1-2h2l1-1 1-2 3-1h5l7-1H923l33 135h10L956 18 975 5l13-19-13-19-19-13H752 738l-13 3-13 4-12 7-11 9-9 11-7 11-4 14-2 13-1 14V147H654l-17-36-29-41-36-34L529 8 480-15 424-32 363-43l-69-5-1 10 65 15L416-4l50 21 42 25 34 28 28 32 19 34 4 11H473V131L409 98V253l-40-19-35-14-38-12-4 9 93 64 24 17v8l6-3 49 39 43 41 20 21 19 23 46-45 5-19-20 4-7-6-7-6zM44 745l65-32h98l32 27 59-49-27-21V186l-64-32v64H109V154L44 121V745zM613 252H473V168H601l2 6 8 42 2 36zm220 0H676l-4-44-11-40H833v84zM207 691H109V240h98V691zM710 333H537l-43-31-29-18-6-3 14-7H652l4 3 43 44 11 12zM931 451l25 70h10l-10-70 14-10 10-14-10-15-14-9H739l-12 1-13 4-12 5-10 7-10 10-7 11-4 13-4 13-1 14V588H654l-17-36-29-41-36-34-43-29-49-22-56-17-61-11-69-5-1 10 65 15 58 19 50 21 42 25 34 28 28 31 19 35 4 11H473V571l-64-32V694l-40-19-35-14-38-12-4 9 93 63 24 18v8l6-3 49 39 43 41 20 21 19 23 46-45 5-19-20 4-7-6-7-6H727l2 1 9 12 2-2 19 16 59-49-26-16-65-27v1l-33-14-10-4H833l33 27 59-48-27-22V577l-65-32v43H730V481v-7-5-4l1-3v-2l4-4 4-2 5-2 8-1H931zM613 693H473V609H601l2 6 8 42 2 36zm220 0H676l-4-45-11-39H833v84zM710 774H537l-43-31-29-18-6-4 14-7H652l4 4 43 44 11 12z"/><glyph glyph-name="undefined" unicode="𡅛" horiz-adv-x="1024" vert-adv-y="918" d="M915 9l32 134h11L947 9 967-4l13-20-13-19-20-13H749l-14 1-14 2-13 5-12 7-11 8-8 11-7 12-5 13-2 14V30 146l-17-31-30-42-36-39L540 2 496-27 447-51 394-69 336-82l-3 9 53 24 49 25L477 3l38 30 33 34 27 35 24 39 10 24H496l-65-33V273l-15-5-38-12-42-10-4 9 99 54v6l6-3 56 35 23 17 21 17 17 16 14 16 9 11 5 7 48-43 6-19-22 3-2-2-8-7H722l3 3 4 8 3-2 22 18 59-48-27-16-42-18-24-13-13-6-17-6H835l32 27 59-49-27-21V165l-64-33v33H672l-1-4-7-13 63-10 16-11-16-10V24l1-5 2-5 2-2 5-2 5-1h7H915zM823 48l-7 13-17 21-32 36-11 8 5 8 12-6 13-3 23-7 11-4 29-10 16-6 10-22-7-24-22-11-23 7zM68 745l65-32H243l32 27 60-49-27-21V186l-65-32v64H133V154L68 121V745zM637 261H496V186H618l13 43 6 32zm198 0H704l-14-49-10-26H835v75zM243 691H133V240H243V691zM708 342H575l-31-19-28-15-31-14-6-3 17-8H653l4 2 30 32 17 20 4 5zM350 443l86 11 6 1V613l-16-8V709l-73-32-5 8 78 61v26l20-10 60 50 34 34 24 29 2 2 48-44 4-18h98l3 2 6 10 3-2 21 17 59-49-27-16-52-21-24-14-20-9-8-7-7 7 7 8 9 20 16 29 2 3H566l-29-20-50-31 3-2h69l44 48 54-48V718H490V659h69l44 48 54-48V638H490l-20-10 37-7 16-10-16-10V552h74l33 37 43-37V530H507V463l85 11 37 4 37 3 3-9-36-14-68-23-62-18-108-30h-1l-8-20-14 14-22 62zm576 6 21 49h11l-11-49 13-8 9-13-9-13-13-9H757l-12 2-13 2-11 6-11 7-9 9-7 11-5 12-3 13-2 14V632l65-11 16-10-16-10V544l65 23 32 13 28 14 13 7 4-11 44-39 1-17-21 9-3-2-17-4-17-4-18-3-18-3-19-2-20-1H782 761l-12 1V482l-2-7v-9l1-3 1-2 1-3 2-2 4-3 6-2 8-2H926zM856 767l59-49-27-21V638l-64-33v33H7e2v21H824v59H706v22H824l32 27zM597 818l-3-3h21l-18 3z"/><glyph glyph-name="undefined" unicode="𡐛" horiz-adv-x="1024" vert-adv-y="918" d="M682 759l55-28 74 38 58 34 30 21 12 10 20-30 20-21 1-19-20 8-19-9-41-15-22-8-50-14-27-6-29-6-3-1V498H871l54 54 64-54V476H896V-40L832-72V476H741V363l-3-62-5-59-7-54-10-50-13-47-15-43-17-38-21-33-23-29-27-23-6 6 17 29 16 30 14 34 12 37 10 41 8 44 6 49 4 52 1 56v60V759zM454 869l54-11 14-11-14-9V724h18l54 53 64-53V702H508V6e2h53l27 27 54-49-27-16V256l-54-27v48H508V154h26l53 54 65-54V132H508V-48L454-75V132H311v22H454V277H403l-59-29V630l59-30h51V702H318v22H454V869zM74 68 38 122l54 22 49 21 12 6V552H56v21h97V847l64-10 17-11-17-10V573h28l33 38 43-38V552H217V201l71 33 35 15 5-8-29-24-84-62-98-63L94 79 91 58 74 68zM454 433H403V299h51V433zm107 0H508V299h53V433zM454 578H403V455h51V578zm107 0H508V455h53V578z"/><glyph glyph-name="undefined" unicode="𡓦" horiz-adv-x="1024" vert-adv-y="918" d="M797-74l-14 1-12 3-14 4-12 7-10 8-10 11-6 13-4 12-3 14-1 13V125H692L677 98 645 58 607 24 562-5 510-28 453-47 389-60l-70-7-2 10 68 17 59 21L496 4l44 26 38 29 30 32 22 34H514V109L450 77V236l-22-11-34-15-35-13-5 9 85 64 11 9v12l9-5 48 43 18 19 16 19 14 18 12 19v-1l3 4 50-41 5-13H760l4 3 4 6 2-1 23 19 59-49-27-16-33-14-22-14-28-15-16-8-13-5H870l32 27 59-48-27-22V125L870 93v32H776V12 6l1-5 1-3 1-2 1-1 1-1h2l3-2 5-1h6H919l32 134h11L951-9l20-13 12-19-12-20-20-13H797zM857 26l-1 5-2 6-4 7-12 15-17 17-11 8-14 7 4 9 14-5 15-1 13-3 24-8 12-5 10-5 10-6 9-8 8-9 1-24L9e2 7 875 6 857 22v4zM67 67 34 123l90 31 48 18V552H51v21H172V847l64-10 16-11-16-10V573h12l54 54 64-54V552H236V198l53 22 79 29 5-8-70-47-98-57-87-46L88 76 83 55 67 67zM661 238H514V147H640l7 17 11 41 3 33zm209 0H726l-8-46-15-45H870v91zM748 331H587l-25-22-48-35-13-9 13-6H679l6 4 36 37 19 22 8 9zM377 436l10 1 45 2V617l28-5v80l-27-18-27-14-29-12-6 8 65 62 24 28v27l16-8 24 36 24 44 9 23 3 7 56-34 10-15H731l4 3 1 4 2-1 25 21 59-48-27-16-32-14-21-15-25-13-14-7H853l32 27 59-48-27-22V625l-64-33v33H525l-35-18 6-1 17-11-17-10V541h73l44 49 53-49V520H496V442l17 1 62 3 34 2h36 37l2-9-70-20-65-15-85-17-47-9-10-20-13 15-17 63zm408-49H772l-12 1-12 3-12 5-11 7-9 9-7 12-5 12-3 13-2 13V617l65-11 16-11-16-10V527l111 41 51 20 2-8 53-45 2-16-22 11-18-5-76-11-64-6-39-2V462l-1-6V446l1-5 1-2 2-3 4-2 6-2 8-2H929l21 48h11l-11-48 13-9 9-12-9-13-13-9H785zm68 332H525V646H853v73zM724 805H570l-8-13-18-23-19-21-5-5 5-3H678l4 4 25 34 14 21 3 6z"/><glyph glyph-name="undefined" unicode="𡽡" horiz-adv-x="1024" vert-adv-y="918" d="M630 347H766l9 12 2-2 21 17 59-48-27-16-49-21-26-14-26-13-2-1H854l33 27 59-48-27-22V121L854 89v43H778V19 13l1-5 1-3 1-2V2l1-1h3l3-2 5-1h6H933l33 134h10L966-2l19-13 13-19-13-20-19-13H799l-14 1-13 3-13 4-12 7-11 8-9 11-6 13-5 12-2 14-1 13V132h-5L692 95 665 54 630 18 589-12 542-35 488-54 429-66l-66-5-1 9 62 16 55 20L526-4l40 26 33 29 25 32 20 36 4 13H552V116L488 84V239l-27-13-31-15-34-13-4 8 80 64 16 15v9l6-4 24 22 40 41 34 42 14 21 3 3 49-41 7-18-21 1-5-5-9-9zM104 138V73L45 44V670l59-11 15-11-15-9V159h69V831l59-11 15-10-15-10V159h76V670l64-11 16-11-16-9V105L308 73v65H104zM666 240H552V154H656l1 5 8 43 1 38zm188 0H729l-4-46-10-40H854v86zM752 326H608l-12-12-50-38-10-7 16-8H702l5 5 35 45 7 11 3 4zM943 438l24 69h11l-11-69 14-10 10-15-10-14-14-10H786l-12 1-13 4-11 5-11 8-9 10-7 11-5 12-3 13-1 14V581h-3l-14-35-24-42-32-36-38-30-43-25-49-17-53-12-59-6-2 10 56 16 49 19 42 22 35 25 29 29 23 32 17 36 4 14H557V564l-65-32V689l-27-16-31-15-34-13-5 8 79 65 18 16v10l7-3 41 40 19 21 34 43 17 25 50-42 6-17-20 1-15-15H766l4 2 4 9 3-2 22 18 59-49-27-16-46-19-41-22-13-6H857l32 27 60-49-27-21V570l-65-32v43H778V467v-7-5-3l1-3v-2l1-2 2-3 4-2 6-1 8-1H943zM668 690H557V602H658l2 5 7 45 1 38zm189 0H731l-3-45-10-43H857v88zM754 775H609l-35-30-25-20-8-5 16-8H704l5 4 45 59z"/><glyph glyph-name="undefined" unicode="𡿣" horiz-adv-x="1024" vert-adv-y="918" d="M61 204l64-32H266l33 27 59-48-27-22V-8L266-40V-8H125V-45L61-77V204zM768 386V367l-1-13v-7-2l1-3 3-3 4-3 7-3 7-1H933l19 27h11l-11-27 11-8 8-11-8-11-11-8H803l53-43-27-17-64-26v2l-20-7-12-4H872l32 27 60-48-27-22V91L880 63l7-3 9-4 10-5 8-7 4-25L903-1 879-4 859 10l2 2-1 3-1 5-4 6-5 6-15 14-21 15-13 5 2 9 14-3 14-1 25-3 11-2 5-1V91H781V11 6l1-3 1-2V-1l2-1 5-2 5-1 7-1H923l30 113h11L953-6l18-12 11-17-11-18-18-12H802 788l-13 2-12 4-12 6-11 9-9 11-7 11-4 13-3 13-1 14V91H698L681 67 650 35 611 9 567-12 517-30 461-43l-63-9-68-4-2 9 67 15 59 17L506 3l44 22 37 23 29 25 15 18H523L458 59V175l-22-8-33-10-35-9-3 9 85 53 8 5v17l14-7 24 16 39 31 16 15 13 15 5 5-121-22-22-3-10-19-13 15-16 63 11 1h22l20 1V475l29-5v60l-29-14-26-10-28-9-4 9 45 33 38 33 4 4v29l19-10 9 10 13 17 12 17 10 17 12 23 53-37 2-3H735l5 5 2 5 2-2 23 19 59-48-26-16-65-27v2l-13-4H856l32 26 59-48-27-21V478l-64-32v32H534l-28-14 15-10-16-10V418h69l44 49 54-49V397H505V344l17 1 29 1h32 68l37-1 1-10-69-17-33-7-2-1 38-38H765l9 12 3-2 14 12h-2-12-12l-12 3-11 5-11 6-9 9-7 11-6 12-3 13-3 14V475l65-11 16-10-16-10V406l33 12 112 35 17 6 1-7 57-47 1-16-23 12-23-5-55-5-82-4-23-1H768zM266 151H125V14H266V151zm4e2 27H523V112H645l9 16 10 30 2 20zm206 0H730l-7-36-13-30H872v66zM746 251H598l-11-9-43-26-24-13-2-1 5-3H687l4 3 13 11 12 10 22 19 8 9zM272 325l54-49V255H66v21H228l44 49zm0 108 54-49V363H66v21H228l44 49zm42 116 53-48V480H48v21H270l44 48zm542 2H534V499H856v52zM725 618H579l-12-14-17-17-16-14H685l3 1 18 20 15 18 4 6zM272 658l54-48V588H66v22H228l44 48zm-61 39V681l-65-33V834l65-11 16-11-16-9V718H480V878l64-11 16-11-16-9V718H808V834l64-11 16-11-16-9V686l-64-32v43H211z"/><glyph glyph-name="undefined" unicode="𢖑" horiz-adv-x="1024" vert-adv-y="918" d="M287 659l55-35 9-17-20-1-38-62-27-39-57-72-9-10 36-6 16-11-16-9V-40L171-72V391l-23-24-34-32-35-29-36-26-7 7 85 103 52 71 25 37 45 76 41 79 3 6zM897-50 886-38 871-26 854-15 836-3 790 22 736 46 706 59l2 9 34-3 31-5 29-7 27-7 25-8 24-9 21-10L919 8 937-4l16-13 9-23-10-22-23-9-22 10-10 11zM574 87l41-50 2-20-21 7-18-11L556 1 533-10 481-32 452-42 422-52l-33-9-36-8-3 9L463 5l45 28 20 14 33 27 9 8v1l4 4zM449 468l64-32H817l32 27 59-49-27-21V110L817 77v33H513V94L449 61V468zM817 211H513V131H817v80zm0 102H513V233H817v80zm0 101H513V334H817v80zM584 507l-5 11-14 23-8 11-19 22-22 22-3 1-6-19-18-38-22-37-25-33-29-30-33-26-36-22-6 8 28 30 25 30 22 31 19 33 15 35 12 36 10 37H345v22H472l3 20 3 43v33H367v22H478V874l65-11 16-10-16-10V772h13l44 48 54-48V750H542l-3-38-7-47-3-11h35l44 48 53-48V632H524l-3-12-4-11 21-6 16-6 15-7 15-8 26-19 12-10 22-25 3-24-15-20-24-3-20 15-4 11zm334-61-18 16-17 19-15 18-14 21-11 21-11 22-8 24-6 24-1 4-11-28-18-32-22-28-24-24-28-20-32-16-33-11-4 9 27 20 24 21 21 22 17 24 14 26 11 28 8 26H676v22h95l3 16 2 36v44H683v22h93V874l65-11 16-10-16-10V772h24l44 48 54-48V750H841v-5l-4-43-7-42-1-6h38l54 53 64-53V632H827l23-33 28-35 30-29 15-13 34-22 17-9 23-14-60-47-19 16zM252 863l54-36 9-16-20-1-55-84-49-62-52-55-27-26-29-24-30-21-7 7 88 117 21 30 40 64 37 67 17 35 3 5z"/><glyph glyph-name="undefined" unicode="𢖞" horiz-adv-x="1024" vert-adv-y="918" d="M548 4e2l6 8 49-42 4-13H756l3 2 5 8 3-2 21 19 59-49-26-16-36-15-22-13-30-16-29-12H872l32 27 59-48-27-22V125L872 93v32H769V6l1-5 2-5 2-2 5-2 4-1h7H924l32 134h11L956-9l19-13 13-19-13-20-19-13H790l-14 1-13 3-13 4-12 7-11 8-9 11-7 13-4 12-2 14-1 13V125H680L664 97 631 58 590 24 543-5 488-28 428-47 360-60l-74-7-1 10 71 17 64 21L475 4l47 27 40 29 32 32 24 33H492V109L427 77V237l-26-12-35-15-38-13-4 9 91 64 12 10v11l9-4 29 23 42 38 32 38 9 14zM287 659l55-35 9-17-20-1-38-62-27-39-57-72-9-10 36-6 16-11-16-9V-40L171-72V391l-23-24-34-32-35-29-36-26-7 7 85 103 52 71 25 37 45 76 41 79 3 6zM858 25l-1 6-3 6-4 7-5 7-17 16-22 17-14 7 3 9 15-4 15-2 15-3 13-3 24-9 11-5 10-7 9-7 9-9 1-25L902 7 877 5 858 21v4zM651 238H492V147H628l8 18 11 40 4 33zm221 0H715l-8-46-16-45H872v91zM741 331H569l-27-22-24-19-26-17-13-8 13-6H668l7 5 49 48 11 11 6 8zM349 436l10 1 23 1 26 1V617l30-5v82l-32-20-28-14-31-12-5 8 69 62 20 20 7 9v26l16-8 12 15 14 22 14 22 12 22 9 23 3 6 56-34 8-15H724l5 4 1 4 2-1 25 20 59-48-27-16-33-14-23-15-26-14-13-6H854l32 27 59-48-27-22V625l-64-33v33H503l-36-18 6-1 16-11-16-10V541h84l44 49 53-49V520H473V442l20 1 101 5h38 40l1-9-75-20-35-8-123-24-52-10-10-19-12 15-17 63zm428-49H764l-12 1-12 3-12 5-11 7-9 9-7 12-5 12-3 13-2 13V617l65-11 16-11-16-10V526l158 55 12 5v1l1-1 4 2 1-7 55-46 1-16-23 11-18-5-19-2-20-4-63-7-22-2-48-4H756V462l-2-6V446l2-5 1-2 2-3 4-2 6-2 8-2H933l22 48h11l-11-48 13-9 8-12-8-13-13-9H777zM252 863l54-36 9-16-20-1-55-84-49-62-52-55-27-26-29-24-30-21-7 7 88 117 21 30 40 64 37 67 17 35 3 5zM854 719H503V646H854v73zM717 805H551l-9-13-19-23-20-22-5-4 5-3H667l4 4 35 45 11 16z"/><glyph glyph-name="undefined" unicode="𢦸" horiz-adv-x="1024" vert-adv-y="918" d="M490 492l-15-9 4-69 14-80 2-7 344 13 52 56 67-51V324L502 306l14-43 31-61 41-54 8-8 67 45 55 45 53 47 1 1 43-48 3-20-20 6-41-34-61-44-59-36 60-38 69-30 79-23 57-9 29 129h11L932-3h3l21-13 7-23-12-21-23-8-97 16-87 25L666 7 598 51 577 70 490 30 415 2 336-23 253-43 167-59 77-70l-2 9 88 22 83 23 79 27 76 29 71 32 67 35-46 60-37 72-21 65L66 290l-1 21 364 14-14 82-5 91v18l64-13 16-11zM696 389l-7 10-9 11-23 21-29 22-34 22-20 10 4 10 22-6 21-4 21-5 18-7 18-7 17-7 16-8 28-19 13-11 7-24-11-21-24-8-22 12-6 9zM114 870l65-32H394l32 26 59-48-27-21V583l-64-32v32H179V519l-65-32V870zm452 0 64-32H845l33 26 59-48-27-21V551l-65-32v64H630V567l-64-32V870zm279-54H630V605H845V816zm-451 0H179V605H394V816z"/><glyph glyph-name="undefined" unicode="𢧮" horiz-adv-x="1024" vert-adv-y="918" d="M833-63 746-44 670-18 602 15 577 32 488 2 413-19 335-37 252-52 166-63 77-70l-2 9 88 18 83 19L326-3l76 23 72 25 57 23-36 36-37 55-23 54L66 202l-1 22 363 10-13 57-5 69v18l64-12 16-11-14-9 3-45 13-59 3-6 344 10 53 55 66-52V228L504 215l10-25 31-45 40-40 11-8 70 36 56 34 52 36 29-41 9-11 1-19-19 8-41-25-60-33-42-20 43-21 70-23L843 1l58-7 30 130h11L932-10h1l23-12 7-23-11-22-23-8-96 12zM699 274l-8 8-20 16-26 18-50 28-20 8 3 10 21-4 21-2 20-3 18-4 17-4 17-5 30-12 13-7 12-7 11-22-8-24-23-10-23 8-5 8zM114 867l65-33H393l32 27 60-48-27-22V429l-65-32v32H179V364l-65-32V867zm452 0 64-33H845l32 27 59-48-27-22V397l-64-33v65H630l-64-32V867zM845 562H630V451H845V562zm-452 0H179V451H393V562zM845 688H630V584H845V688zm-452 0H179V584H393V688zM845 813H630V709H845V813zm-452 0H179V709H393V813z"/><glyph glyph-name="undefined" unicode="𢽝" horiz-adv-x="1024" vert-adv-y="918" d="M204 19V-45L139-77V559l-38-74-55-91-9 4 73 193 29 89v6l2-1 12 40 12 43 10 41 12 51 60-26 13-14-19-6-21-64-16-43-18-44 18-9h91l38 95 13 36 11 33 2 10 5 12 57-31 10-16-21-3-17-28-23-34-25-34-35-40h94l54 53 65-53V632H366V460h26l53 54 65-54V439H366V256h26l53 54 65-54V234H366V41h45l54 54 64-54V19H204zM871-30 817 3 768 40 724 82l-6 8-53-46L606 2 542-32 474-58 402-76l-3 9 68 28L529-6l57 38 53 43 47 48 2 2-38 56-30 56-25 60-19 66-13 65H512v21H672V863l64-10 16-11-16-10V670H863l53 54 65-54V648H736V449H854l33 27 59-48-27-16-9-4-22-59-35-74-39-68-45-61-15-16 9-9 43-35 45-30 49-25L990-4 928-56 871-30zM302 234H204V41h98V234zM574 428l23-58 27-60 30-55 34-50 32-40 9 11 39 59 34 66 29 70 18 57H574zM302 439H204V256h98V439zm0 193H204V460h98V632z"/><glyph glyph-name="undefined" unicode="𢾃" horiz-adv-x="1024" vert-adv-y="918" d="M216 847l65-11 16-11-16-9V721h79l44 49 54-49V7e2H281V563H386l32 27 59-49-27-21V-15L386-47v32H111V-53L46-85V595l65-32H216V847zM868-30 810 2 757 39 709 81l-9 10-60-48L576 2 507-32 434-58 355-76l-3 9 75 28L495-5l63 37 57 43 52 49 2 1-41 55-33 56-28 61-21 65-15 66H475v21H652V863l65-10 16-11-16-10V670H868l54 54 64-54V648H717V449H852l32 27 59-48-27-16-10-4-24-60-38-74-43-68-48-61-15-15 8-9 47-34 49-30 54-26L993-3 931-57 868-30zM330 98l-6 14-7 15-18 30-21 30-13 16-8 9-13-28-16-28-18-26-19-26-22-24-24-22-27-20-6 7 49 79 26 53 11 27 9 27 7 28 6 28 5 39 62-21 14-14-19-7-3-11-10-31-5-13 16-9 18-10 33-26 14-13 26-29 12-15 3-4V281l-9-10H353l-18 17-5 15-14 30-8 15-19 31-24 31-7 9-15-29-15-28-18-25-19-26-22-23-24-22-27-20-6 6 49 80 14 26 12 26 11 26 9 27 7 27 6 27 3 23 2 16 62-22 14-13-19-8-3-10-10-30-4-10 34-20 16-13 16-13 14-14 14-15 13-15 11-16 3-4V541H111V6H386V77l-8-9-25-1-18 17-5 14zM543 428l24-58 29-60 33-55 36-49 37-43 13 14 42 60 37 65 32 71 20 55H543z"/><glyph glyph-name="undefined" unicode="𣊙" horiz-adv-x="1024" vert-adv-y="918" d="M682 759l55-28 74 38 58 34 30 21 12 10 20-30 20-21 1-19-20 8-19-9-41-15-22-8-50-14-27-6-29-6-3-1V498H871l54 54 64-54V476H896V-40L832-72V476H741V363l-3-62-5-59-7-54-10-50-13-47-15-43-17-38-21-33-23-29-27-23-6 6 17 29 16 30 14 34 12 37 10 41 8 44 6 49 4 52 1 56v60V759zM454 869l54-11 14-11-14-9V724h18l54 53 64-53V702H508V6e2h53l27 27 54-49-27-16V256l-54-27v48H508V154h26l53 54 65-54V132H508V-48L454-75V132H311v22H454V277H401V240l-54-27V627l54-27h53V702H318v22H454V869zM47 777l64-32H219l30 27 56-48-27-19V89L219 60v61H111V57L47 25V777zM219 423H111V143H219V423zm235 10H401V299h53V433zm107 0H508V299h53V433zM219 724H111V444H219V724zM454 578H401V455h53V578zm107 0H508V455h53V578z"/><glyph glyph-name="undefined" unicode="𣔵" horiz-adv-x="1024" vert-adv-y="918" d="M932-42 883-25 793 14 709 58 671 82l-37 26-34 27-32 29-24 26V-42L480-75V159l-46-39-39-28-42-25-44-24-47-21L212 2 159-15 104-30 45-41l-2 9L149 12l49 22 46 24 43 25 40 26 37 27 33 29 29 27H71v21H480V313l64-10 16-11-16-10V213H835l53 54 65-54V192H564l91-52 77-37 41-18 87-32 45-14 89-26-62-55zM75 351l11 1 32 1 36 1 14 1V571l43-7V679l-26-17-37-20-39-17-42-15-3 9 69 48 61 49 17 15v19l13-6 21 22 22 26 20 27 17 27 16 28 3 5 53-37 9-17-21-1-3-4H614l3 3 4 7 2-2 23 19 60-48-27-16-34-14-10-7-29-17-33-18-19-8-4-1H797l32 27 59-49-27-21V584l-64-32v32H275l-45-23h3l16-11-16-10V481H384l53 53 65-53V459H233V359l87 4 48 3 50 2 53 1 56 1 1-9-55-12-101-19-92-15-121-18-35-5-11-2-10-18-12 15-16 64zm578-54H639l-12 2-13 3-12 6-10 8-10 10-7 12-4 13-3 13-1 13V571l64-10 16-11-16-10V459l35 11 94 25 86 23 52 14 1-6 57-48 2-16-23 12-23-5-26-4-86-11-31-4-32-3-66-6-35-1h-5V377v-6-5l1-4v-2l1-2 1-2 2-1 4-2 5-1 8-1H899l27 91h11l-11-91 16-11 11-16-11-16-16-11H653zM797 696H275V605H797v91zM6e2 799H345l-37-43-28-26-11-9 6-3H518l9 6 43 41 22 24 8 10z"/><glyph glyph-name="undefined" unicode="𣤱" horiz-adv-x="1024" vert-adv-y="918" d="M891-12 865 24 841 65l-21 44-18 49-15 53-11 56-8 61v8l-8-42-18-70-24-65-29-58-33-53L617 2 573-38l-14-9-3-6-20-13h-4l-7-4-3 4H392l-14 1-13 3-13 4-13 6-10 10-9 10-7 12-4 13-2 13-1 14V96L288 66 259 32 225 3 187-22 145-41 98-55 46-64l-2 9L91-36l41 21L168 8l31 26 26 28 21 31 16 33 1 2H190V112L125 80V215l-23-17-28-16-29-16-6 8 64 68 19 22 3 5v20l12-6 18 25 15 22 12 22 12 22 12 28 55-35 10-16-21-2-3-5-3-4H359l4 3 1 4 2-2 26 22 59-49-27-16-32-13-13-11-29-20-2-2h91l32 27 59-48-27-22V128L439 96v32H371V14l1-5 1-3V4l1-1 1-1 2-1 3-1 5-1h7H504l32 134h11L536-1l20-13 5-8 34 42 31 48 27 51 22 57 19 61 13 67 10 72 5 77 1 82v43l64-10 16-11-16-10V535l-4-86-2-14 7-41 12-61 14-57 16-53 19-47 21-43 23-38 23-34 26-29L978-1 920-44 891-12zM431 23l-1 6-2 8-8 15-11 16-14 19-10 6 4 9 12-6 12-2 11-4 11-5 11-5 10-5 18-14 8-7 7-9 2-24L475 2 451 0 432 16l-1 7zM284 235H190V149h80l4 14 8 41 2 31zm155 0H348l-6-41-12-45H439v86zm-85 83H229l-16-20-19-21-15-15 11-6H328l2 3 18 43 4 10 2 6zM239 826h99l4 5 1-1 28 23 59-48-27-16-27-11-19-16-33-21-1-1H439l32 27 59-48-27-22V625l-64-33v33H181l-34-17 11-2 16-11-16-10V541h57l33 38 43-38V520H158V442l31 2 27 2 28 1h29l31 1 2-9-57-19-77-21-45-12-34-8-9-20-13 15-20 62 11 1 18 1 13 1V617l24-4v74l-15-11-23-15-25-13-5 8 34 40 31 40 3 5v32l15-8 18 34 10 21 8 23 11 31 57-31 12-15-9-2zM5e2 433l24 70h11l-11-70 15-10 10-14-10-15-15-10H385l-12 2-13 3-11 6-11 7-9 10-7 11-5 12-3 14-1 13V617l64-11 16-11-16-10V529l111 51 8 4-1 1 1-1 5 3 3-9 49-42 1-17-22 10-11-4-15-2-16-3-15-2-52-7-19-2-27-1V462v-6-5-4l1-3v-2l1-2 2-2 4-2 6-2 8-1H5e2zM680 863l63-20 15-12-19-8-3-20-10-42-11-41-13-43-9-29H895l32 27 59-48-27-16-11-5-8-17-19-35-41-63-35-49-8 5 11 28 19 52 14 44 6 19 4 17 3 14v6H685l-13-35-38-85-22-43-25-43-9 4 43 137 24 86 9 43 9 41 7 41 5 39 4 34h-1l2 17zM439 719H181V646H439v73zM334 805H217l-21-34-16-21-5-6 6-4H3e2l3 4 13 23 6 10 5 10 7 18z"/><glyph glyph-name="undefined" unicode="𣦻" horiz-adv-x="1024" vert-adv-y="918" d="M297-29v16h75l7 1 5 1 4 1 3 2 1 5 1 5 1 7V283H120V-40L55-72V589l65-32H224V853l65-11 16-11-16-10V718h87l44 49 54-49V697H289V557H394l32 27 59-49-27-21V9L457-5l-2-13-4-13-7-13-9-10-11-9-12-7-13-4-13-2-14-1v32L297-29zm592 4-50 46-45 55-41 65-23 47-35-58-51-65-54-55-59-43-63-33-5 10 56 39 51 48 47 56 43 65 40 74 6 15-23 59-29 94-26 103-21 114-15 113H514v21H840l32 27 59-48-27-17-5-2-19-1e2-28-114-33-105-37-95-23-47 42-75 41-57 43-46 44-37L975 3l29-14-61-50-54 36zM837 724H603l26-109 30-110 32-1e2 34-89 7-14 36 101 28 102 24 113 17 106zM120 535V304H394V535H120z"/><glyph glyph-name="undefined" unicode="𤀧" horiz-adv-x="1024" vert-adv-y="918" d="M922-2l32 134h11L954-2l19-13 13-19-13-20-19-13H757l-14 1-13 3-13 4-13 7-10 8-9 11-6 13-5 12-2 14-1 13V132H657L639 94 608 52 568 17 522-12 469-36 409-54 342-66l-74-5-1 9 71 16 63 20L456-4l46 27 37 29 31 32 22 36 4 12H479V116L414 84V242l-35-17-36-14-37-13-5 9 93 64 20 15v8l6-3 52 42 42 42 19 22 17 21 2 2 47-44 5-18-20 3-6-6-9-8H731l11 14 2-3 19 16 59-48-27-16-64-27-33-16-14-6H832l32 27 59-48-27-22V121L832 89v43H736V13l1-5 1-3 1-2V2l1-1 5-2 5-1h7H922zM198-59l-23-7-22 11-8 23 3 38 1 34-3 32-5 27-8 26-8 15-2 1 1 2-15 24-17 18-20 17-24 16 3 9 30-7 28-11 25-17 8-8L242 385l65 125 39 71 8-4L217 225l-22-64-6-22-3-15-3 1 5-9 11-34 7-36 3-40V-37L198-59zM617 240H479V154H604l3 6 8 43 2 37zm215 0H681l-5-46-11-40H832v86zM713 326H544l-15-13-27-19-28-18-11-7 16-8H655l5 5 21 24 21 22 11 14zM931 438l25 69h10l-10-69 14-10 10-15-10-14-14-10H744l-12 1-12 4-12 5-11 8-9 10-7 11-5 12-3 13-2 14V581H661l-16-37-29-41-35-36-42-30-49-24-54-18-61-11-67-6-1 10 64 16 56 19 48 22 42 26 33 29 27 32 19 36 5 13H484V564l-64-32V691l-38-18-35-15-37-13-4 9 90 65 24 17v8l5-3 48 41 43 43 19 22 16 22 2 2 48-44 6-18-21 3-16-15H731l3 2 7 11 3-3 20 17 59-49-27-16-61-25-35-17-12-5H835l32 27 59-49-26-21V570l-65-32v43H736V452v-3l1-2 1-2 2-3 4-2 6-1 7-1H931zM153 480l-5 10-8 11-9 11-11 11-12 11-49 34-20 10 4 9 22-5 21-5 21-5 18-7 18-8 17-9 29-21 13-12 11-14 3-24-15-20-24-3-20 15-4 11zM619 690H484V602H608l2 6 8 44 1 38zm216 0H683l-4-46-11-42H835v88zM229 726l-7 11-7 11-20 22-25 23-32 23-18 9 3 9 21-5 20-4 20-6 18-7 17-8 16-9 15-10 14-10 13-13 11-13 4-24-14-20-25-4-19 14-5 11zm486 49H545l-41-31-27-20-8-5 15-7H657l5 4 22 24 29 32 2 3z"/><glyph glyph-name="undefined" unicode="𤜇" horiz-adv-x="1024" vert-adv-y="918" d="M35 256l160 66V584H125l-17-62-13-38-15-37-16-36-18-33-9 4L68 532l6 39 6 41 6 42 4 43 3 44 3 40 1 16 63-16 15-13-18-9-10-70-8-43-9-41h65V869l65-11 16-11-16-9V605h20l44 49 54-49V584H260V347l33 13 74 24 5-9-67-42-45-26V-45L195-77V271L92 213l-3-21-17 11-37 53zM920-9l32 134h11L952-9l19-13 13-19-13-20-19-13H799l-14 1-13 3-13 4-12 7-11 8-9 11-6 13-5 12-2 14-1 13V125H693L679 98 647 59 609 24 564-5 513-28 456-47 392-60l-70-7-1 10 67 17 59 21L499 4l44 26 37 29 30 32 23 34H517V109L452 77V236l-22-11-33-15-35-13-4 9 84 64 10 8v13l10-5 47 43 19 19 16 19 22 32 6 8 50-41 5-13H762l3 2 4 7 2-2 23 20 59-49-27-16-33-14-21-14-29-15-15-8-14-5H871l32 27 59-48-27-22V125L871 93v32H778V12 6l1-5 1-3 1-2V-5l1-1h3l2-2 6-1h6H920zM858 26l-1 5-2 6-4 7-5 8-15 15-9 9-11 8-14 7 4 9 14-5 15-1 13-3 24-8 12-5 10-5 10-6 9-8 7-9 2-25L901 7 876 6 858 22v4zM663 238H517V147H642l7 17 11 41 3 33zm208 0H727l-7-46-16-45H871v91zM749 331H589l-24-22-23-18-25-17-13-9 13-6H681l6 4 36 37 19 22 7 9zM380 436l11 1 44 2V617l28-5v80l-27-18-27-14-29-12-5 8 43 41 39 41 6 7v28l15-8 25 36 12 22 11 22 8 18 4 12 56-34 10-15H732l4 4 1 3 2-1 25 21 59-48-27-16-30-13-23-16-25-13-12-7H854l32 27 59-48-27-22V625l-64-33v33H528l-36-18 8-1 16-11-16-10V541h70l44 49 54-49V520H5e2V442l16 1 62 3 33 2h36 38l1-9-70-20-94-21-79-16-23-4-10-20-12 15-18 63zm407-49H774l-13 1-12 3-11 5-11 7-9 9-7 12-5 12-4 13-1 13V617l64-11 16-11-16-10V527l92 34 19 7 50 20 3-8 53-45 1-16-22 11-17-5-56-8-20-3-64-6-39-2V462l-1-6V446l1-5 1-2 3-3 4-2 6-2 8-2H929l22 48h10l-10-48 13-9 8-12-8-13-13-9H787zm67 332H528V646H854v73zM725 805H572l-25-36-19-21-5-5 5-3H679l4 4 26 34 7 11 9 16z"/><glyph glyph-name="undefined" unicode="𤱋" horiz-adv-x="1024" vert-adv-y="918" d="M58 831l64-32H353l32 27 59-49-27-21V288l-64-32v32H270V-45L206-77V288H122V224L58 191V831zM749-13V3h75l6 1 5 1 5 1 2 3 2 4 1 5v7V283H576V-34L511-67V283H428v21h83V537H428v22h83V831l65-32H845l33 27 59-49-27-21V559h27l24 32 33-32V537H910V304h27l24 33 33-33V283H910V25l-1-14-2-13-5-13-6-12-9-11-11-9-12-7-13-4-14-2-13-1v32L749-13zm96 550H576V304H845V537zm-639-2H122V310h84V535zm147 0H270V310h83V535zM206 777H122V557h84V777zm147 0H270V557h83V777zm492 0H576V559H845V777z"/><glyph glyph-name="undefined" unicode="𥂥" horiz-adv-x="1024" vert-adv-y="918" d="M50-26V-5H189V231l65-33H770l32 27 59-48-26-22V-5h21l54 54L974-5V-26H50zM383 177H254V-5H383V177zm194 0H447V-5H577V177zm193 0H641V-5H770V177zM234 444l-4 9-4 9-14 20-20 21-26 22-6 3-12-17-18-21-21-20-23-17-25-15-6 8 32 44 15 21 12 23 11 23 9 24 8 24 6 26 5 27 3 28 1 11 63-20 14-12-19-9-2-10-4-14h57V868l64-11 16-11-16-9V760h74l43 49 54-49V739H330V632h61l32 27 59-48-27-16-7-3-10-36-22-54-27-51-32-46-37-42-43-38-47-33-52-29-57-23-62-18-3 9 57 28 51 30 46 32 41 35 35 38 31 40 26 44 21 46 16 50 8 37H202l-9-23-13-28-13-22 22-6 17-5 16-7 28-15 13-9 11-10 11-11 9-12 1-24-16-19-25-1-18 16-2 9zm667 88 66-46 2-22-253-22 4-8 19-31 24-28 6-5 33 21 34 26 32 28 1 1 41-50 2-19-19 6-20-15-40-25-15-8 6-4 39-17 43-13 15-3 30 128h10L951 292l4-1 21-13 6-23-13-21-23-7-56 11-50 16-46 20-41 25-2 2-50-20-48-15-50-14-52-11-55-8-56-4-2 10 106 30 49 17 46 18 45 20 27 13-24 27-24 40-14 32-139-12-1 22 132 11-10 39-7 46-2 17 66-6 16-9-14-11 4-24 10-40 3-6 142 13 48 57-59 22-45 23-41 28-20-8-42-13-43-11-45-10-47-8-49-5-2 9 133 47 78 34-28 33-24 41-5 11-148-13-1 21 140 13-5 12-13 48-7 46-2 17 66-6 16-10-14-10 4-24 11-40 11-27 133 11 49 59 69-48 2-22-242-21 12-20 25-30 11-10 42 24 30 20 27 20 31-43 8-9 1-19-19 8-50-28-22-10 41-22 44-16 14-4 29 125h10L951 585l7-2 20-14 4-24-15-20-24-5-42 12zM780 498l-4 7-5 8-5 8-14 17-25 26-12 7 4 9 13-5 13-2 13-4 12-3 12-5 22-10 11-7 19-14 6-24-12-22-24-6-21 12-3 8zm25 281-7 15-10 16-13 15-26 25-11 6 3 9 13-4 13-1 13-3 23-8 12-4 11-6 20-13 10-8 6-23-12-22-24-6-21 12z"/><glyph glyph-name="undefined" unicode="𥦻" horiz-adv-x="1024" vert-adv-y="918" d="M136 353l47-23V585l-15-3-54-7-58-4-2 10 56 14 97 30 39 15 34 17 28 17 22 17 15 16 11 17 8 24 58-28 13-16-23-5-4-7-20-23-25-21-29-17-35-16-39-13-44-11-18-4 50-25H722l32 27 60-48-27-22V355l-65-32V541H499l31-15 12-16-22-4-2-4-16-22-2-3 14-2 28-4 26-4 24-5 21-5 19-5 17-6 15-6 14-7 12-9 8-23-10-23-24-7-22 10-2 5-6 6-9 9-28 17-39 20-49 22-19 7-6-7-22-18-25-16-28-14-30-13-33-11-37-9-39-6-3 9 36 16 61 33 25 16 22 17 19 17 14 16 12 17 8 16 3 11H248V355l-59-29 11-5H781l32 27 59-49-27-16h-1l-3-56 3-65 8-52 13-39 15-29 16-19 17-13 16-8 29 128h11L959-5l22-10 9-23-10-22-23-9-24 2-27 8-28 14-27 21L826 7 806 46 790 95l-10 60-4 72 4 72H2e2V160l-4-35-5-31-10-30-13-27-16-25L132-9 110-27 86-41 59-52 30-60l-4 9L50-35 71-18 88-1l14 19 12 19 9 21 7 23 4 24 2 26V353zM560 40V56h60l5 1 3 1 2 1 2 2 1 1 1 4 1 4v7V212H520V-26L455-58V212H339V32L275-1V266l64-32H455v60l65-11 16-11-16-10V234H635l32 27 60-49-27-21V77l-1-14-3-13-4-13-6-12-9-11-11-9-12-7-14-4-12-2-14-1V24L560 40zM673 601l-13-1-12 2-12 2-12 6-10 7-10 9-7 11-5 12-3 13-2 14v79H146v-9l-2-17-5-17-6-16-9-15-12-14-14-12-16-10-25 1-17 17 1 25 17 17 10 2 10 4 9 5 9 6 8 8 7 10 7 13 6 14 5 17 2 19h10l2-20 1-7H480v93l64-10 16-11-16-10V776H894l3 3 5 9 3-3 21 18 59-48-27-16-51-22-39-21-31-15-16-10-6 7 14 13 49 61 2 3H652V676l-1-7v-9-3l1-2 1-2 3-3 3-3 6-2 8-1H910l21 48h11l-11-48 13-9 9-12-9-13-13-9H673z"/><glyph glyph-name="undefined" unicode="𥨒" horiz-adv-x="1024" vert-adv-y="918" d="M873-29 819 11 771 56l-41 51-24-24-63-49L573-8 497-41 415-67l-3 10 77 34 70 41 63 44 56 51 27 31-12 21-31 62-25 67-19 73-13 78-6 78H517v21H874l32 27 59-48-27-17-6-2-15-67-28-85-36-78-42-71-43-55 46-50 45-38 49-32L961 1l32-14-62-50-58 34zM154-17V-1h87 7l4 1 4 1 1 1 1 1 1 1 1 2 1 3 1 5V146H50v22H436l44 48 54-48V146H327V20L326 7 324-6l-4-13-7-13-9-10-11-10-12-6-13-4-14-3-13-1v33L154-17zm-1 138 52-38 8-17H191L168 44 139 19 105-3 87-13 48-33l-6 8L58-11 98 35l22 28 9 14 8 14 7 13 6 13 3 4zM451 24l-5 8-6 9-7 8-17 18-21 18-13 10-14 7 4 9 15-5 16-2 15-3 15-5 13-5 14-6 12-6 12-7 11-8 11-9 6-24-12-21-24-6-22 12-3 8zM871 523H610l17-75 22-73 25-67 28-62 34-55 3-5 31 45 35 67 30 74 23 80 13 71zM262 6e2l65-10 16-11-16-10V486h88v90l65-10 16-11-16-10V464l-65-32v32H327V346H438v95l65-11 16-11-16-9V324l-63-31 45-40V232H115v21H387l44 49 7-7v29H151L86 292V441l23-4V576l65-10 16-11-16-10V486h88V6e2zm0-136H174l-58-28 35-6 16-11-16-9V346H262V464zM364 759l58-28 13-16-23-5-4-7-20-23-25-21-29-18-35-15-39-13-44-11-48-10-54-6-58-4-2 9 56 15 97 29 39 16 34 17 28 16 22 18 15 16 11 17 8 24zM673 609H660l-13 1-12 3-12 6-10 7-9 11-8 11-4 12-4 13-1 14v79H146v-9l-2-17-5-17-6-17-9-15-12-13-14-12-16-10H57L40 674l1 24 17 18 10 2 10 4 9 5 9 6 8 8 7 10 7 12 6 15 5 17 2 18 10 1 2-20 1-7H480v93l64-11 16-10-16-10V787H894l3 3 5 8 3-2 21 18 59-48-27-17-51-21-39-22-31-15-16-9-6 7 14 13 49 60 2 4H652V687l-1-7v-5l1-4v-2l2-5 2-2 4-2 6-1 7-2H907l24 70h11l-11-70 15-9 10-15-10-14-15-10H673z"/><glyph glyph-name="undefined" unicode="𥨗" horiz-adv-x="1024" vert-adv-y="918" d="M378 103 367 72H641v84H383V139l-5-36zM926 342l43-38V283H55v21H893l33 38zM479 602l1-7 57-47 2-16-23 11-24-5-81-10-58-5-62-4-33-1H224h-2V460H398l44 49 54-49V439H222V375H802v64H560v21H802v65H566v21H802l33 27 59-48-27-22V353l-65-32v32H222l-65-32V567l60-30 129 31 28 7 80 20 25 7zM364 755l58-29 12-15-23-5-3-6-20-23-25-20-30-17-34-14-39-13-44-10-49-8-53-7-58-3-2 9 107 29 46 14 39 15 34 16 28 16 22 16 16 17 10 15 8 23zm543-97 24 70h11l-11-70 15-10 10-14-10-15-15-9H660l-13 1-12 3-12 6-10 7-9 10-8 11-4 13-4 13-1 14v73H145v-8l-1-18-5-16-7-16-9-14-12-13-13-12-17-10-24 1-18 18 2 24 17 17 11 3 10 3 9 5 8 6 8 7 7 9 7 12 6 14 5 16 2 17 10 1 2-19 1-6H480v89l64-11 16-11-16-9V782H894l3 3 6 9 2-2 21 17 59-48-27-16-56-24-34-17-31-14-16-10-6 8 14 12 50 59 1 2H652V688l-1-7v-5l1-4v-3l1-2 1-1 2-3 4-2 6-2 7-1H907zM318 156H82v22H318v92l65-10 16-11-16-10V178H641v92l65-10 16-11-16-10V178H844l44 48 54-48V156H706V72H856l54 54 64-54V51H706V-40L641-73V51H355l-6-12-25-27-28-22-35-20-38-15-44-13-48-9-54-5-2 9 51 16 45 17 38 18L242 6l26 20 20 21 3 4H50V72H305l8 19 4 23 1 25v17z"/><glyph glyph-name="undefined" unicode="𥨢" horiz-adv-x="1024" vert-adv-y="918" d="M163-28v16h86 6l5 1 3 1 2 1h1l1 1v3l1 2 2 6V9 122H74v22H432l44 48 54-48V122H335V9L334-5l-3-13-4-13-7-12-9-11-10-9-13-6-13-5-13-2-13-1v32L163-28zM861-39 817-1 777 42 746 86 730 68 678 21 619-18 554-50 486-74l-4 9 64 33L603 6l52 42 46 47 22 30-11 20-25 59-20 63-16 68-9 74-4 73H571v22H862l32 27 59-49-27-16-5-2-13-62-23-80-30-73-35-67-37-53 39-48 37-35 41-30 72-40-61-48-50 33zM175 101l54-38 8-17H215L193 24 165-1 149-12 115-32 96-41 77-52l-5 8L87-30 113 1l22 28 18 27 8 14 6 13 4 8h-1l5 10zM461-32l-9 22-7 12-7 10-17 23-35 35-15 11 4 8 17-7 17-5 17-7 16-7 15-9 14-9 25-21 11-12L517-1l3-24-16-20-24-2-19 15zM859 482H648l16-69 18-70 22-64 24-58 27-50 21 35 30 64 24 70 19 76 10 66zM124 292v-4l2-13V263l-1-11-3-12-5-12-6-10-9-9-24-4-20 14-3 25 14 20 3-1h3l4 1 5 4 5 6 5 8 9 21 5 13v14h10l1-15v-2H270v72l65-10 16-11-16-10V313H478l5 4v2h1l26 21 60-48-27-16-42-18-6-4-28-17-7-7 7-6V202H138v22H369l44 48 40-36 6 9 15 38 3 9H124zm40 101-64-32V501l64-11 16-10-16-10V414H270V534l65-11 16-11-16-9V414H437v87l65-11 16-10-16-10V393l-65-32v32H164zM363 739l60-26 13-15-22-6-5-10-19-28-25-25-30-22-34-19-40-17-44-14-49-11-53-9-59-6-2 9 56 17 51 17 45 17 39 18 34 19 27 20 22 20 16 21 11 20 8 30zM904 618l27 92h11l-11-92 16-11 11-16-11-16-16-11H660l-13 3-12 3-12 6-11 8-9 10-7 12-5 12-3 14-1 13V753H146V742l-1-21-4-19-7-18-9-17-11-16-14-14-17-12-24-1-19 17-1 24 17 19 10 3 10 5 9 7 9 8 9 11 7 14 7 16 6 18 6 21 2 23h10l4-35H480V887l64-11 16-10-16-10V775H894l3 3 3 6 2-2 24 20 59-49-27-16-32-13-42-32-30-19-17-10-15-12-7 7 13 15 11 16 29 41 15 23H652V645l-1-6 1-6v-3l1-3v-1l1-2 3-1 3-2 6-2 7-1H904z"/><glyph glyph-name="undefined" unicode="𥨬" horiz-adv-x="1024" vert-adv-y="918" d="M918-71 895-54 876-31 863-3 852 30l-7 38-5 43-3 49v55l1 48H526v22H838l33 27 59-49-27-16h-1l-1-32 1-53 2-45 5-39 6-32 8-26 2-5 25 105h10L950-13l2-1 22-12 8-23-12-22-23-7-29 7zM42 38l10 1 28 1 35 2V253H45v22H434l33 37 43-37V253H408V-38L343-70V32L307 22 240 8 176-5 87-21l-6-1L71-40 58-25 42 38zM743 73l65-54V-2H539V19H689l54 54zM343 1e2H180V45l123 6 35 1h5v48zm0 77H180V121H343v56zm411 25 54-48V132H539v22H710l44 48zM343 253H180V198H343v55zM189 634l65-32H770l32 26 59-48-26-21V339l-65-33v33H254l-65-33V634zM770 423H254V360H770v63zm0 79H254V444H770v58zm0 78H254V523H770v57zM364 777l58-31 11-16-24-4-2-4-21-20-25-17-30-14-34-12-38-11-43-9-49-7-53-5-58-2-2 9 108 27 45 13 41 13 33 14 28 15 22 14 16 15 10 13 7 19zm288 1V723l-2-13v-7l1-3 1-3 2-2 5-4 6-2 8-1H913l18 26h11l-11-26 12-8 7-11-7-12-12-7H673l-13-1-11 1-12 3-12 4-10 7-9 9-8 11-5 12-4 13-2 14v55H145v-7l-2-15-5-15-7-15-9-13-12-12-14-10-16-9-24 2-17 19 3 24 18 17 11 1 9 3 9 3 9 4 7 6 7 8 7 9 5 12 6 13 1 16h10l1-16 1-4H480v77l64-10 16-11-16-10V799H894l10 14 3-3 19 16 59-48-27-16-64-27v4l-13-6-45-17-15-8-5 9 13 10 48 51H652z"/><glyph glyph-name="undefined" unicode="𥰨" horiz-adv-x="1024" vert-adv-y="918" d="M724-38v16H839l5 2 3 1 2 1h1l1 1 1 5 1 5V567l65-11 16-11-16-10V0l-1-14-2-13-4-13-7-12-9-11-10-9-13-6-13-5-13-2-14-1v32L724-38zM491-58 472-43 431-16 370 20 304 54l-4 3-24-35-33-34-39-27-45-21-50-14-55-7-2 10 51 17 45 21 37 23 30 28 24 30 19 35 13 40 8 43 2 50-3 53-1 12 65-6 17-9-17-12V214l-6-56-9-34 23 16 135 84h1l4 2 7-13 38-36 1-18-20 8-55-20-39-13-41-12-21-5-21-5-16-3-15-37 27-3 25-6 24-6 25-8 23-8 24-10L503 9 526-3l14-21-4-24-21-14-24 4zM629 511l64-10 16-11-16-10V73L629 40V511zM124 49 103 61 96 85l13 22 8 4 7 4 7 6 7 7 6 9 5 9 5 12 4 13 3 14v17l10 1 3-16 5-16 2-16 1-15-1-15-2-15-5-15-7-14-8-13-11-13-24-6zM492 265l-18 14-19 13-40 25-43 24-64 30-6-10-29-36-34-31-40-26-46-20-50-14-55-9-2 9 51 19 45 22 38 23 33 27 26 30 20 32 16 36 10 38 5 43v42l-1 18 65-11 17-11-18-11-2-33-10-50-6-17 60 36 109 59 5-10 44-40 1-16-21 8-3-1-77-23-90-26-36-8-2-7-11-20 17-1 27-4 26-5 25-7 25-8 24-9 23-10 23-12 43-25 12-21-6-24-21-12-24 6-16 14zM131 359l-22 11-7 24 12 22 15 9 7 6 6 7 5 8 4 10 3 11 3 13 2 15-3 15 9 3 6-16 7-14 4-15 3-15V438l-1-15-4-15-7-15-8-14-11-13-23-7zM342 606l-10 25-15 26-9 14-25 27-30 29-13 10H216l-12-21-22-32-23-29-26-28-28-27-30-25-33-23-6 7 48 60 42 60 18 31 16 30 14 31 13 32 10 32 10 42 60-26 13-14-20-6-20-50-12-23H426l54 54 64-54V737H270l11-5 20-9 19-10 16-11 16-13 14-13 13-14 12-15 10-16V606l-17-17H359l-17 17zm424 0-9 25-7 13-8 13-10 14-24 27-30 29-13 10H638l-10-17-21-29-24-27-26-25-28-25-30-21-33-19-6 7 49 54 22 27 20 28 19 28 15 28 14 30 12 30 11 31 6 26 4 14 60-26 12-14-19-6-20-48-14-25H856l54 54 64-54V737H695l11-5 20-9 18-10 17-11 15-13 14-13 14-14 11-15 10-16V606l-17-17H784l-18 17z"/><glyph glyph-name="undefined" unicode="𦐃" horiz-adv-x="1024" vert-adv-y="918" d="M353-31l-9-9-10-8-11-7-12-7-11-5-13-3-12-3-13-2H249v32L163-27v16h86l15 1 7 2 7 2 6 3 5 3 6 4 6 4 10 11 8 15 9 31 9 46 6 60 6 73 3 86H234l-9-69-11-63-15-58-18-53-21-47L136-2 108-37 77-66 43-88l-6 7L63-52 85-19l21 35 17 41 15 45 13 50 10 56 7 60 5 62H65v22H173l1 52V579H91v21h83V797H75v22H346l33 27 59-49-27-16 4-111 1-70h17l24 33 32-33V579H416l1-35V430 352h16l24 32 32-32V330H416l-3-89-5-76-8-63-9-51-12-41-18-32-8-9zM809-21V-5h65l6 1h5l3 1 2 1 2 3 2 4 1 5v7V340l-34-67-18-34-42-63-23-30-24-28-26-26-8 6 34 64 33 65 29 67 27 69 11 36 11 38 3 8 27-14V636l-28-55-17-29-38-56-20-26-22-24-24-23-8 6 58 115 26 59 23 61 23 73 27-14v61H741l-27-21V17 3l-3-13-4-13-7-12-8-11-12-9-12-7-12-4-14-2-14-1v32L521-21V-5H628l7 1h5l3 1 2 1 1 1V1l1 1 2 3v5l1 7V333l-31-66-37-67-42-60-23-28-25-25-7 5 61 127 27 68 13 36 24 74 9 34h-1l5 13 27-12V633l-26-51-16-28-36-55-19-25-21-23-22-23-8 6 53 111 24 58 22 61 19 64 3 9 27-13v60H488v22H650l32 27 54-45v18H895l33 27 59-49-27-21V17L959 3l-2-13-5-13-7-12-8-11-11-9-12-7-13-4-14-2-13-1v32L809-21zM238 402h1l-4-50H352l1 78-1 113v36H239V403l-1-1zM346 797H239V6e2H351l-1 68-2 87-2-1v43z"/><glyph glyph-name="undefined" unicode="𦲯" horiz-adv-x="1024" vert-adv-y="918" d="M435 274H695l4 5 1-1 27 23 59-49-27-16-17-7-24-34-44-48-51-43-33-22 15-7 57-21 61-16 64-13 69-9L987 7 923-60l-76 9-72 14-68 17L644 3 584 29 541 53 501 31 429 2 350-24 264-44 171-60 72-71 70-61l97 21 90 24 82 26 75 30 66 32 17 10-18 13-45 39-40 44-19 28-29-25-32-24-36-23-39-20-41-18-45-16-3 8 74 51 64 50 28 27 25 26 21 27 19 28 16 29 16 35 56-33 10-17-21-2-8-13-15-22zm247-22H418l-14-17-18-18 24-23 44-35 48-33 35-19 53 39 43 42 37 44 12 20zm184 38-27 15-31 16-36 16-39 15-90 30-153 43-22-20-45-30-54-26-62-22-70-17-78-14-87-8-2 9 85 20 75 21 66 23 56 25 47 27 37 30 28 31 18 32 11 33 2 36 1 13 64-14 16-12-20-11-4-26-18-45-28-40-5-4 40-4 56-7 54-9 49-10 46-11 43-12 39-12 35-13 32-14 29-16 14-20-4-25-20-13-25 4-23 16zM204 403l-19 16v25l16 18 14 5 13 5 12 6 11 7 9 7 8 8 8 9 7 11 6 12 3 13h10V530l2-16-2-15-3-15-7-16-8-14-11-14-13-13-15-13-17-11H204zM823 559l14-22 27-29 1-19-20 9-23-10-37-15-41-14-22-6-22-5-47-10-3 9 78 47 51 32 31 22 9 7v1-1l4 4zm49 106 65-54V590H103v21H818l54 54zM630 873l65-11 16-10-16-10V769H861l54 54 65-54V747H695V669l-65-32V747H394V669l-65-32V747H44v22H329V873l65-11 16-10-16-10V769H630V873z"/><glyph glyph-name="undefined" unicode="𦺐" horiz-adv-x="1024" vert-adv-y="918" d="M212 199l-3 11-5 10-5 10-7 10-8 11-11 10-25 21-2 1-7-8-29-33-31-30-34-26-7 7 50 67 22 35 20 36 19 38 16 39 14 40 12 43 10 44 4 31H42v21H335l54 54 64-54V566H271l-11-45-14-46-17-45-1-4H349l32 27 59-48-27-16-5-3-9-46-20-67-25-62-29-57-34-51-40-47-45-41-49-36-55-30L44-74l-4 9L93-33 140 2l42 39 38 42 33 45 28 50 24 54 19 58 14 63 8 52H218l-29-57-24-38-11-16 17-4 17-5 15-7 15-7 14-9 12-11 12-12 10-13 8-14-1-25-17-17-25 1-17 18-2 10zM873-53 813-35 758-13 709 15l-5 4L640-5 582-23 522-39 459-51l-65-9-68-6-1 10 66 16L513-5 624 37l37 18-30 32-29 44-17 37-174-14-1 22 167 13-13 45-9 53v5l-2 12 66-6 17-9-14-10 5-31 12-45 4-8 203 16 49 58 68-48 2-22-312-25 5-11 24-36 29-31 12-10 45 28 42 29 40 32 39-51 2-19-19 7-27-19-48-28-23-13 12-7 47-19 54-16 27-4 29 128h11L944 0l3-1 21-12 7-24-13-21-24-7-65 12zM748 226l-5 9-12 19-16 19-20 18-23 20-13 8 4 9 15-5 16-3 15-4 14-5 14-6 26-13 12-7 12-8 10-9 7-24-10-21-24-7-22 10zm123 56-60 21-54 26-49 31-2 1-79-24-52-13-54-12-56-9-59-7-2 9 110 35 101 35 46 19 5 2-35 40-30 45-5 13-185-15-1 22 176 14-7 16-15 53-9 58-2 11 66-5 17-9-14-11 5-30 12-45 15-33 191 16 50 58 68-48 2-22-299-24 16-25 29-34 19-15 56 30 37 22 34 24 17-28 22-23 1-19-19 7-25-14-40-20-33-15 56-28 53-18 25-7 29 126h11L944 329l6-1 19-14 5-24-14-20-24-5-65 17zM770 560l-6 9-14 18-8 9-31 27-12 10-13 7 3 9 15-4 16-3 15-3 15-5 14-4 25-13 13-7 22-17 7-24-11-22-24-7-21 12-5 8zM630 873l65-11 16-10-16-10V778H861l54 54 65-54V757H695V688l-65-33V757H394V688l-65-33V757H44v21H329v95l65-11 16-10-16-10V778H630v95z"/><glyph glyph-name="undefined" unicode="𧅀" horiz-adv-x="1024" vert-adv-y="918" d="M671 53H544V-46h63l7 8L635-4l36 57zM902 68 812 95l-18 6 30-27V53H693l32-33 5-19-23 5-48-34-24-13-8-5H829L883 8l64-54V-67H87v21H348l-7 6v6l-2 7-6 15-4 8-18 26-8 9-10 8 6 8 10-6 13-3 22-9 20-11 9-6L391-1l7-8 2-24-9-13h89V53H211V74H480v54H367v13l-64-25-55-18-59-17-62-14L61 54l-2 9 177 68 1e2 46 45 25 41 25 38 25 28 22H335V226l-65-32v80H55v22H270v80H184l-64-32V576l64-32h86v41H77v21H270v70l65-10 16-11-16-10V606H441l44 49 54-49V585H335V544h80l32 27 60-48-27-22V376l-65-32v32H335V296H488l24 32 25-25 16 22 7 15 6 15 5 15 3 17 2 17 1 19V630l62-32 54 18 53 15 125 35 1-7 57-47 2-16-24 12-23-5-24-4-25-3-79-10-57-5-29-3-29-1V495H851l53 54 65-54V474H824V244l-65-33V474H641V440l-1-1-3-24-6-22-8-21-9-19-11-18-13-16-15-13-15-12-16-8v-2l23-26v-4l72-35 72-28 38-13 39-12 84-20 45-8 49-11-64-59zM695 143V128H544V74H726l36 39-33 14-34 16zM549 244l-18-14-39-26-43-24-45-22-18-9H597l30 33-38 26-29 25-11 11zM270 452H184V398h86v54zm145 0H335V398h80v54zM270 523H184V473h86v50zm145 0H335V473h80v50zM630 877l65-11 16-11-16-9V791H861l54 54 65-54V769H695V708l-65-32v93H394V708l-65-32v93H44v22H329v86l65-11 16-11-16-9V791H630v86z"/><glyph glyph-name="undefined" unicode="𧓩" horiz-adv-x="1024" vert-adv-y="918" d="M908-55 897-44 883-32 867-21 828 2 780 25 723 49l3 10 32-4 30-4 28-6 27-7 24-7 22-8 21-10L930 3 947-8l16-12 9-24-9-22-24-9-22 10-9 10zM595 77l41-50 2-19-21 7L599 4 556-17 478-47l-30-9-32-9-34-7-3 9L511 13l40 27 31 25 13 12zM324 66l-2 22-2 22-4 21v1l-32-27-50-35-53-32L127 8 90-10 86-30 70-19 36 37 75 51l85 32 28 12V337H124V272L65 242V683l59-29h64V869l54-11 14-11-14-9V654h65l29 27 57-49-27-19V337l-59-30v30H242V118l55 23 16 7-1 4-6 21-14 43-9 22-10 22 8 6 17-18 16-19 15-19 13-21 11-22 10-22 9-24 7-23 5-24 4-26-8-23-22-10-23 8-11 22V66zM473 440l65-32H830l32 26 59-48-27-22V97L830 65V97H538L473 65V440zM830 194H538V118H830v76zm0 96H538V215H830v75zm0 96H538V311H830v75zM188 632H124V358h64V632zm119 0H242V358h65V632zM903 438l-34 27-31 31-21 27-7-7-42-32-45-27-49-20-53-16-4 10 48 24 44 27 38 30 34 33 13 15-25 50-15 45-11 48-6 51-2 49H698l3-3V778H589V711h24l32 27 59-49-26-16-8-3-5-18-16-39-21-36-24-33-27-30-31-26-35-22-38-20-41-15-44-12-3 9 39 21 35 22 32 24 29 24 24 27 20 28 17 30 14 31 11 35 4 19H495l-7-16-10-19-9-13 12-2 12-2 12-4 11-3 19-10 9-7 8-7 8-8 1-24-16-19-24-1-19 16v4 6l-2 5-3 7-4 7-6 7-23 25-2 1-9-12-14-14-16-13-34-22-6 7 13 15 19 32 15 32 5 17 4 16 4 18 2 18 1 19 1 11 63-20 14-13-20-9-1-3h21V874l65-11 16-11-16-10V8e2h36l33 38 27-24v11H899l32 27 59-49-26-16-7-3-8-36-19-56-23-51-28-46-24-31 26-27 28-23 30-20 64-31-61-49-39 24zm-6 365H746l13-45 15-47 17-43 19-38 16-26 11 17 21 43 18 48 14 51 7 40z"/><glyph glyph-name="undefined" unicode="𧕃" horiz-adv-x="1024" vert-adv-y="918" d="M820-74l-14 1-13 3-13 4-12 7-11 8-9 11-6 13-5 12-2 14-1 13V125H720L707 99 677 59 641 25 599-4 551-28 497-47 438-60l-65-7-1 10 62 17 54 21L536 4l41 26 34 29 27 31 22 35H556V109L492 77V234l-18-9-31-15-33-13-5 8 78 64 9 8v14l10-5 43 42 16 19 16 19 12 18 11 18 3 4 51-39 6-14H780l3 2 3 7 3-2 23 20 59-49-27-16-32-14-19-13-27-16-28-13H881l32 27 59-48-27-22V125L881 93v32H799V12 6l1-5 1-3 1-2 1-1V-6h3l3-2 5-1h6H926l32 134h11L958-9l20-13 12-19-12-20-20-13H820zM344 66l-1 22-3 21-4 22v2l-12-9-52-37-55-34L129 8 89-10 84-31 68-19 36 37 167 83l27 10V337H129V272L64 240V686l65-32h65V869l64-11 16-11-16-9V654h65l32 27 59-49-27-21V337l-64-33v33H258V119l74 29-8 25-7 21-18 44-11 22 7 6 36-36 15-20 14-21 12-21 10-23 9-23 8-24 5-24 5-26-8-23-22-10-23 8-12 21V66zM869 27l-1 5-2 6-2 7-11 15-16 16-10 8-12 7 4 8 13-4 13-2 13-3 12-3 11-4 11-5 10-5 9-7 9-7 7-10 1-24L911 7 886 6 868 23l1 4zM687 238H556V147H668l7 16 10 42 2 33zm194 0H752l-7-45-15-46H881v91zM768 331H623l-23-21-21-19-23-17-13-8 13-7H706l6 4 32 36 18 22 6 10zM194 632H129V358h65V632zm129 0H258V358h65V632zM425 436l11 1 39 2V617l27-5v78l-23-15-25-15-27-12-6 8 59 61 16 20 6 7v29l15-8 9 13 13 22 11 22 22 52 56-32 11-16H752l4 4 1 2 1-1 26 22 59-48-27-16-30-13-10-8-22-14-24-14H865l32 27 60-48-27-22V625l-65-33v33H566l-35-18 9-1 16-11-16-10V541h78l33 38 43-38V520H540V442l40 3 62 3h33 35l1-9-65-20-87-21-74-16-19-4-9-19-13 14-19 63zm383-49H796l-13 1-12 3-11 5-11 7-9 9-7 12-5 12-4 13-2 13V617l65-11 16-11-16-10V527l132 54 10 4 4 2 3-7 52-44 1-17-22 11-15-5-52-8-78-8-22-2H787V462l-1-6V446l1-5 1-2 3-3 4-2 6-2 7-2H936l22 48h10l-10-48 13-9 8-12-8-13-13-9H808zm57 332H566V646H865v73zM746 805H607l-7-12-34-45-5-5 5-3H705l3 4 23 34 12 20 3 7z"/><glyph glyph-name="undefined" unicode="𧥓" horiz-adv-x="1024" vert-adv-y="918" d="M928-9l32 134h11L960-9l19-13 13-19-13-20-19-13H825l-14 1-14 3-12 4-13 7-11 8-8 11-7 13-4 12-3 14V12 125H726L713 99 683 59 648 25 607-4 559-28 507-46 448-59l-64-8-2 10 61 17 54 21L544 4l40 26 33 29 27 31 21 35H565V109L5e2 77V234l-47-24-33-13-5 8 77 64 8 8v14l10-5 42 42 32 38 25 40 52-39 6-14H783l4 2 3 6 2-1 24 20 59-49-27-16-31-13-8-6-25-16-28-15-13-6H883l32 27 59-48-27-22V125L883 93v32H803V6l1-5 2-5 2-2 5-2 5-1h7H928zM158 232l-2-24h68V380H161V272l-3-40zM871 27v5l-2 6-3 7-5 7-12 16-9 8-9 8-12 7 4 8 13-4 13-2 12-3 24-7 10-5 9-5 10-7 8-8 8-9V25L913 6H889L871 23v4zM692 238H565V147H674l6 16 10 42 2 33zm191 0H757l-7-45-14-46H883v91zM341 380H278V208h63V380zm432-49H630l-22-21-21-19-36-25 14-7H712l5 4 22 25 19 22 15 21zM435 436l11 1 38 2V617l26-5v78l-21-15-25-14-28-13-5 8 40 41 34 40 5 7v29l15-8 9 13 12 22 12 22 9 22 12 30 57-32 10-16H756l4 3v3l2-1 26 22 59-48-26-16-30-13-10-8-10-7-24-14-12-6-1-1H867l33 27 59-48-27-22V625l-65-33v33H574l-34-18 9-1 16-11-16-10V541h75l33 38 43-38V520H549V442l39 3 60 3h33 34l1-9-64-20-85-21-73-16-18-4-10-19-12 14-19 63zm357 71V462l-2-11 1-5v-2l1-3 1-2 2-3 5-2 6-2 7-2H937l22 48h10l-10-48 13-9 8-12-8-13-13-9H813 801l-13 1-12 3-11 5-11 7-9 9-7 12-6 12-3 13-2 13V617l65-11 16-11-16-10V527l129 54 9 4h1l4 2 2-7 52-44 1-17-22 11-15-5-50-8-57-6-21-2-33-2zM224 568H161V401h63V568zm117 0H278V401h63V568zM297 729H2e2l-36-85-19-40-3-5 19-10h84l5 11 14 39 33 90zm570-10H574V646H867v73zM751 805H615l-23-35-18-21-5-6 5-3H710l4 4 22 34 11 20 4 7zM208 750h95l4 5 1-1 27 23 59-48-27-16-16-7-49-66-24-31-14-16-3-4h80l30 27 56-48-27-19V25 12L397-1l-3-12-5-11-8-11-9-9-11-7-12-4-13-3-12-1v30L241-14V1h83 5l3 1 4 1 2 2 1 3 1 4 1 6V186H153l-5-31-9-37-10-35-12-34-14-32L86-14 67-42 46-69l-7 5L63-3 73 28l8 33 8 33 6 33 4 35 2 36 1 36v38V527L75 485 47 447l-9 5L92 580l10 26v13l4-2 16 44 25 80 11 40 8 40 10 49 61-24 14-14-19-6-19-61-5-15z"/><glyph glyph-name="undefined" unicode="𧴃" horiz-adv-x="1024" vert-adv-y="918" d="M699 759l54-28 87 50 34 22 14 10 13 10 8 7 4 3 30-43 8-9V762l-20 8-32-14-41-15-47-14-25-7-28-6V498H889l44 48 54-48V476H903V-40L839-72V476H758V363l-2-62-5-58-7-55-9-50-12-47-15-42-16-38-20-34-22-29-25-23-6 6 16 28 14 31 12 33 12 37 9 41 7 45 6 48 3 53 2 56-1 60V759zM487 869l54-11 13-11-13-9V724h27l44 48 54-48V702H541V6e2h46l27 27 54-49-27-16V256l-54-27v48H541V154h34l44 48 54-48V132H541V-48L487-75V132H356v22H487V277H444V240l-59-30V630l59-30h43V702H363v22H487V869zM310 0l-4-11-6-12-7-11-9-10-10-9-11-7-13-5-13-4-13-2-14-1v32L135-24V-8h75l7 1 6 1 5 1 4 2 6 5 2 2 21 66 11 49 5 35-13-14-54-49-29-22-30-20-33-19L84 13 48-1 44 8l86 69 50 48 22 25 41 52 35 55 4-3v14l-3 51-3 20-29-31-23-24-49-42-26-19-27-17-28-16-29-13-5 8 67 66 41 44 38 47 36 51 16 26 4-3-16 62-2 8-29-29-32-30-33-26-33-25-34-21-34-17-6 8 84 81 27 29 55 66 54 73-9-5-24 5-13 21-1 13-1 13-1 12-3 12-4 12-4 11-5 11-10 18-26-16-26-14-27-13-28-11-29-9-4 9 90 71 42 39 40 41 33 40 6 7 47-45 4-19-20 4-30-28-47-39-10-6 16-10 11-9 21-23 9-14 8-14 7-15 5-17-2-9 36 55-1 1 6 8 51-40 8-17H358l-49-64-51-59 9-15 24-53 16-48 4-3-2-3 14-53 9-54 6-55V164l-3-54-8-55L314 2l-4-2zM487 433H444V299h43V433zm1e2.0H541V299h46V433zM487 578H444V455h43V578zm1e2.0H541V455h46V578zM141 548v11l-1 11-2 12-2 11-7 23-12 25-9 11 7 7 12-9 12-8 12-10 10-10 10-11 9-12 7-12 7-14 6-14 4-15-8-23-21-12-23 7-12 22 1 10z"/><glyph glyph-name="undefined" unicode="𨇩" horiz-adv-x="1024" vert-adv-y="918" d="M802-74l-14 1-13 3-13 4-12 7-11 8-9 11-7 13-4 12-2 14-1 13V125H697L683 98 652 59 614 24 570-5 518-28 462-47 399-60l-69-7-2 10 66 17 59 21L504 4l44 26 37 29 29 32 22 34H523V109L458 77V236l-21-11-33-15-35-13-5 8 84 65 10 8v13l10-5 46 43 18 19 30 37 15 22 50-41 5-13H765l3 2 4 7 2-2 23 20 59-49-27-16-34-14-21-14-28-15-15-8-14-5H872l32 27 60-48-27-22V125L872 93v32H781V6l1-5 1-5 3-2 4-2 5-1h7H921l32 134h11L953-9l19-13 13-19-13-20-19-13H802zM36 27l10 4 29 7V396l60-11 14-11-14-9V56l55 18V509H137V492L73 460V820l64-32H290l32 27 59-48-27-22V476l-64-32v65H249V310h42l34 37 43-37V288H249V94l124 43 5-9-59-40-61-34-63-31L131-5 87-23 81-43 66-31 36 27zm823-1v5l-2 6-4 7-6 8-6 7-17 17-11 8-13 7 3 9 14-5 15-1 26-7 12-4 21-10 9-6 9-8 8-9 1-25L902 7 878 6 859 22v4zM666 238H523V147H646l7 16 10 42 3 33zm206 0H731l-8-46-15-45H872v91zM752 331H594l-24-22-23-18-37-25 13-7H685l5 4 46 48 9 11 7 9zM387 436l10 1 43 2V617l29-5v80l-27-17-27-15-29-12-5 8 43 41 39 41 6 8v27l15-8 24 35 12 23 11 22 12 30 56-33 10-16H735l4 4 1 3 2-1 25 21 59-48-26-16-31-13-23-15-24-14-13-7H856l32 27 59-48-27-22V625l-64-33v33H534l-36-18 7-1 16-11-16-10V541h69l44 49 54-49V520H505V442l16 1 61 3 34 2h35 37l1-9-69-20-63-15-84-17-46-9-10-19-13 14-17 63zm402-49H777l-12 1-13 3-11 5-11 7-9 9-7 12-5 12-3 13-3 13V617l65-11 16-11-16-10V526l32 13 78 29 50 20 2-8 53-45 2-16-24 11-16-5-55-8-20-3-41-4-45-3-16-1V462l-1-6V446l1-5 2-2 2-3 4-2 6-2 7-2H930l22 48h11l-11-48 13-9 8-12-8-13-13-9H789zM290 767H137V530H290V767zm566-48H534V646H856v73zM728 805H577l-7-13-18-22-18-22-6-5 6-3H683l4 4 25 34 7 11 6 10 3 6z"/><glyph glyph-name="undefined" unicode="𨊝" horiz-adv-x="1024" vert-adv-y="918" d="M2e2-25v15h83 5l4 1 3 1 1 2 1 1 1 2 1 4 1 6 1 7V187l-40-48-38-43-39-41-40-37-43-35L58-48l-7 7 72 79 35 42 67 87 48 69L95 166l-6-21-15 12-29 59 11 3 55 12V740l64-33h2l5 11 13 36 18 48 9 28 4 13 2 8 4 11 56-33 11-16-24-3-12-18-42-53-27-29-2-3H301l29 27 57-48-27-19V383l21 40 54-36 9-18H424l-56-88-8-13V14L359 1l-2-12-4-13-5-11-7-11-10-8-11-7-12-5-12-2-13-1v29L2e2-25zM852-67l-70 1-62 4-55 8-48 11-40 16L544-7 520 18l-5 11L498 4 482-15 465-33 446-48 427-62 406-74l-6 7 14 19 25 37 21 38 17 41 7 22 5 22 4 19h-1l4 13-15-7V325l65-32H805l32 27 59-49-26-21V169l-65-32v32H701V94H803l44 48 54-48V72H701V-2l22-1h59l67 4 74 7 58 4-52-75-77-4zM637 169H546l-49-24 59-24 14-15-21-6-12-30-8-17 14-14 22-13 29-11 35-9 8-1V169zM805 271H546V191H805v80zM301 390H175V244l50 10 67 12 9 14V390zM528 880l43-11 11-10-11-9V799h40l34 38 43-38V778H571V729h45l24 27 52-49-27-13V536l-49-24v24H571V475h26l43 48 54-48V453H571V358l-43-21V453H405v22H528v61H483l-48-24V753l48-24h45v49H411v21H528v81zm188-48 57-28 76 32 31 15 25 13 6 4-1 1 1-1 4 3 5-11 43-39 1-17-21 9-1-1-29-7-34-7-39-5-22-3-22-2-21-1V671H883l44 48 54-48V649H907V367l-65-33V649H775V590l-3-37-5-34-7-32-8-30-12-27-13-25-16-22-18-19-20-15-22-11-6 7 15 18 13 18 11 20 10 21 7 23 7 24 4 27 3 29 1 31v34V832zM301 546H175V412H301V546zm227 79H483V557h45v68zm88 0H571V557h45v68zM301 686H175V568H301V686zm227 21H483V646h45v61zm88 0H571V646h45v61z"/><glyph glyph-name="undefined" unicode="𨳂" horiz-adv-x="1024" vert-adv-y="918" d="M924-9l32 134h11L956-9l19-13 13-19-13-20-19-13H813l-14 1-13 3-14 4-12 7-10 8-10 11-6 13-4 12-3 14V12 125H711L697 98 667 59 630 24 587-4 538-28 482-47 422-60l-67-7-2 10 64 17 56 21L523 4l42 26 35 29 28 32 22 34H542V109L478 77V235l-19-10-32-15-34-13-5 8 80 65 10 8v13l10-5 44 42 33 38 27 41 51-40 5-14H773l3 2 4 7 2-2 24 20 59-49-27-16-32-13-21-14-13-8-14-8-29-13H877l32 27 59-48-26-22V125L877 93v32H791V12l1-6V1l1-3 1-2 1-1 1-1h2l3-2 5-1h7H924zM361 32l-3 19-9 38-5 14-45-25-90-42L94-10l-6-3-6-20L67-20 38 38l11 3 76 20 13 66 18 84 16 80 1 8H57v21h50V799l64-32H295l44 48 54-48V745H171V621h90l43 49 54-49V6e2H171V482h90l43 48 54-48V460H171V320H296l54 54 64-54V299H238l-24-75-31-81-24-54-11-22 174 46 18 4-4 11-24 62-9 21-10 22 8 6 33-36 29-36 24-39 20-39 17-40-4-24-19-15-24 3-16 19zm504-6-1 6-1 6-4 7-5 7-6 7-8 8-18 17-13 7 4 8 13-4 14-2 13-3 12-3 22-9 10-5 10-7 8-7 8-10 1-24L907 7 882 6 864 23l1 3zM678 238H542V147H659l7 16 10 42 2 33zm199 0H743l-7-46-15-45H877v91zM762 331H611l-24-22-45-35-13-8 13-7H697l6 4 34 36 25 32zM409 436l11 1 41 2V617l27-5v78l-24-15-26-15-28-12-6 8 61 61 17 21 6 7v28l15-8 10 14 25 43 10 23 12 29 56-32 10-16H745l4 4 1 2 1-1 26 22 59-48-27-16-30-13-21-15-24-14-13-7H861l32 27 59-48-27-22V625l-64-33v33H552l-35-18 8-1 17-11-17-10V541h84l33 38 43-38V520H525V442l43 3 63 3h34 36l1-9-67-20-31-8-85-19-69-14-10-19-12 14-19 63zm392-49H788l-13 1-11 3-12 5-11 7-9 9-7 12-5 12-4 13-1 13V617l64-11 16-11-16-10V527l49 20 88 34 10 4v1l1-1 4 2 2-7 53-44 1-17-23 11-15-5-53-8-19-2-20-3-20-2-43-3H779V462l-1-6V446l1-5 1-2 3-3 4-2 6-2 8-2H933l22 48h11l-11-48 13-9 8-12-8-13-13-9H801zm60 332H552V646H861v73zM739 805H595l-24-35-19-22-5-5 5-3H696l4 4 23 34 13 20 3 7z"/><glyph glyph-name="undefined" unicode="𩅼" horiz-adv-x="1024" vert-adv-y="918" d="M877-67 863-54 831-29 796-6 720 38l-14 6-18-16L662 9 633-8 603-23 571-37 536-49l-37-9-40-7-2 9 68 34 59 34 25 18 22 19 20 19 18 20 15 21 15 25 52-39 8-17H738L717 55l31-4 23-5 22-6 22-7 21-8L877 6l39-22 12-21-6-24-21-12-24 6zM417-29 387-3 362 14 334 32l-16 8-11 5-13-12-25-18L241-2 211-17 178-32 142-45 103-56 61-65l-2 9 71 38L162 0l54 37 23 18 19 19 17 18 13 19 13 23 53-38 8-18H341L318 54h4l19-1 17-3 17-3 17-5 31-9 15-6 27-14L477-9l-6-23-22-12-24 6-8 9zM794 241H628V161H794v80zm-398 0H230V161H396v80zm484 30-48 15-4 2 57-47-27-22V140l-64-32v32H628l-65-32V295l65-33H794l31 27-39 14-46 18-43 20-42 21-40 24-39 25-37 28-14 5-23-17-41-26-44-26-47-23-49-22-51-20-54-18-30-8 44-22H396l32 27 59-48-27-22V140l-64-32v32H230l-65-32V278l-64-14-62-10-2 9 114 41 103 44 93 48 42 25 40 27 37 28 35 30 32-39 99-47 84-33 44-15 90-25 47-11 96-19-63-59-50 13zM648 366l43-38V306H322v22H615l33 38zM361 583l65-53V508H146v22H308l53 53zm452 0 65-53V508H598v22H759l54 53zM67 557 46 571l-3 24 14 20 10 5 10 7 9 9 9 11 8 13 7 16 7 19 11 44 3 25 10 1 3-26 1-14H480v76H157v22H770l54 53 64-53V801H544V725H904l4 3 1 3 1-1 27 22 59-48-27-16-21-9-20-22-20-18-22-18-12-8-9-9-7 6 7 11 20 50 5 12 8 21H544V559l-64-33V704H147l1-14-2-22-3-21-6-21-8-19-10-17-13-15-15-14-24-4zM786 671l54-48V601H598v22H742l44 48zm-414 0 54-48V601H173v22H328l44 48z"/><glyph glyph-name="undefined" unicode="𩈻" horiz-adv-x="1024" vert-adv-y="918" d="M204-34V-51L140-83V291l64-32H408l51 60 8 12H68v22H863l44 48 53-48V331H552l-38-29-25-17-27-16-15-7-7-3H824l33 26 59-48-27-21V-45L824-77v43H204zM358 237H204V-13H358V237zM607 60H422V-13H607V60zM824 237H671V-13H824V237zM607 148H422V81H607v67zm0 89H422V170H607v67zM249 883l64-11 16-11-16-9V809h95l44 48 54-48V787H313V743h83l33 27 59-49-27-21V562l-65-32v32H313V506H418l44 49 54-49V485H313V404l-64-33V485H46v21H249v56H165l-65-32V775l65-32h84v44H56v22H249v74zm317-40 65-32 78 20 92 22 50 13 35 11 6 2 1-8 54-44 2-16-23 10-19-4-21-4-23-3-53-7-61-5-71-5H640h-9V689H863l54 53 64-53V667H841V406l-65-32V667H631V612l-4-35-7-33-10-32-15-28-17-26-21-23-25-19-26-17-31-12-33-10-3 9 27 18 23 19 20 19 18 20 13 22 11 22 8 24 5 25 2 28V843zM249 645H165V583h84v62zm147 0H313V583h83v62zM249 721H165V666h84v55zm147 0H313V666h83v55z"/><glyph glyph-name="undefined" unicode="𩑺" horiz-adv-x="1024" vert-adv-y="918" d="M289-29v16h64l7 1 5 1 5 1 2 2 1 5 1 5 1 7V218H165V-40L101-72V218H39v22h62V449H39v22h62V734l64-32h73V874l64-11 16-10-16-10V702h73l32 27 59-48-27-22V471h6l24 32 32-32V449H439V240h6l24 32 32-32V218H439V9L438-5l-2-13-4-13-7-13-9-10-10-9-13-7-13-4-13-2-14-1v32L289-29zM656 111l5 5 44-48 3-19-20 5-28-20L609 2 552-27 521-41 487-54 452-66 415-76l-4 9L532 8l50 36 43 35 18 18 13 14zM920-41 909-25 884 6 855 35 839 50 804 77 785 91l-21 13 4 9 48-12 22-9 43-21 20-12 19-14 34-30L971-2l5-23-11-22-24-6-21 12zm5 894 65-54V777H782l-23-34-35-44-13-14-27-26-14-11H858l32 27 60-48-27-22V165l-65-33v33H614V127L550 95V681l64-33h38l5 9 39 81 17 39H493v22H872l53 54zM858 320H614V186H858V320zM238 449H165V240h73V449zm137 0H302V240h73V449zm483 22H614V342H858V471zM238 681H165V471h73V681zm137 0H302V471h73V681zm483-54H614V492H858V627z"/><glyph glyph-name="undefined" unicode="𩖌" horiz-adv-x="1024" vert-adv-y="918" d="M367-40l-13 2-13 4-12 7-11 9-9 10-7 13-4 13-2 13-1 14v71L277 87 248 54 215 25 177 2 134-17 87-31 36-39l-2 9L80-11 122 9l36 23 31 25 25 27 21 31 17 32v1H179V132L115 99V233L91 217 64 2e2 35 185l-6 8 64 67 18 22 4 4v20l11-6 19 25 27 42 11 22 7 16 5 11 55-35 10-17-22-2-2-4-2-3H349l4 4 1 3 2-1 25 21 59-48-27-16-33-14-13-10-28-19-2-1h91l32 27 60-49-27-21V148l-65-32v32H360V38l1-5 2-5 2-2 1-1 4-1h4l7-1H493l32 135h11L525 23l20-13L558-9l-9-13 62 47 39 35 33 35 11 13 5 7 46-46 5-18-21 4-23-20-21-16-48-31-26-15-28-14-29-13-31-12-33-10-4 9 36 26H381l-14 1zM942-52 921-39 892 8 868 37 825 78 809 92l-17 12 4 9 42-14 20-8 19-10 36-23 17-14 15-14L975-3l4-24-13-20-24-5zM421 45l-2 7-2 7-3 7-10 16-20 26-10 6 5 9 11-6 12-2 12-4 10-4 11-5 19-11 9-7 8-7 8-8 1-25-15-19-25-2-19 16v6zM923 853l64-54V777H811l-30-47-21-30-23-27-26-25H869l32 27 59-48-27-22V165l-64-33v33H667V148l-65-32V681l65-33h27l24 57 18 48 5 16 3 8H557v22H869l54 54zM273 252H179V169h80l5 14 7 40 2 29zm155 0H338l-7-40-12-43H428v83zm441 68H667V186H869V320zM344 334H218l-16-20-19-22-14-13 10-5H317l2 2 10 22 13 30 2 6zM869 471H667V342H869V471zM237 830h91l3 4 1-1 28 23 59-48-27-16-27-12-20-14-21-14-11-6H428l32 27 60-49-27-21V632l-65-32v32H171l-33-16 9-2 16-10-16-10V552h57l33 37 43-37V530H147V455h7l25 2 27 1 28 2 60 1 1-10-57-18-77-21-79-20-10-20-12 15-19 62 10 2H69l13 1V625l24-4v72L91 682 68 668 43 655l-5 8 50 59 15 20 3 5v31l16-8 7 12 10 21 10 21 9 22 10 30 57-31 12-15zM388 401l-13-1-12 1-13 3-11 5-11 7-9 10-7 11-5 12-4 13-1 14V625l64-11 16-10-16-10V539l98 44 21 11v1l1-1 4 2 2-8 51-42 1-17-22 10-12-4-15-3-31-4-17-3-17-2-55-5h-9V476l-1-7v-9l1-6 1-2 3-3 4-2 6-2 8-1H492l22 48h10l-10-48 13-9 8-13-8-13-13-8H388zM869 627H667V492H869V627zM428 724H171V654H428v70zM324 808H206l-6-11-31-43-4-5 6-3H290l2 2 14 23 15 30 3 7z"/><glyph glyph-name="undefined" unicode="𩮏" horiz-adv-x="1024" vert-adv-y="918" d="M141 367l64-33H610l-4 35-2 64-1 19 65-13 16-11-15-9 1-45 5-40H858l44 49 54-49V313H677l13-61 18-55 23-50 17-26 19 24 23 38 19 40 17 50 59-29 12-15-20-5-12-27-26-44-30-41-29-31 17-19 43-33L892 3l24-8 28 123h11L945-15l7-2 20-15 3-24-14-20-24-4-70 23-61 32-52 40-22 24-40-28-49-27-53-23-56-19-62-16-3 10 57 25 53 26 47 28 42 30 35 29-28 42-28 58-19 62-14 65-2 12H205V166l-3-33-6-31-9-29-13-28-15-26L142-4 121-25 98-44 72-60 43-73l-5 8L59-44 79-23 95-2l14 22 11 22 9 23 6 23 4 25 2 26v27V367zM273 209l64-33H482l33 27 59-48-27-22V49L482 17V49H337V33L273 1V209zm209-54H337V71H482v84zm50 146 54-48V231H239v22H488l44 48zm279 52-4 7-13 14-18 15-10 7-25 15-14 7-16 6 3 9 16-2h17l16-1 15-2 14-3 14-4 13-4 13-5 12-6 12-7 9-22-8-23-23-10-23 9zM471 476l-7 12-15 23-15 18-74-25-79-23-102-27-58-12-3-1-9-19-13 15-18 63 11 1 24 2 27 2 24 2 27 67 3 13 3 7H39v22H146V869l65-32H463l44 48 53-48V815H211V761H452l33 38 43-38V740H211V691H452l33 37 43-37V669H211V616H479l44 48 54-48V594H263l-16-22-38-43-18-19 45 6 163 22 24 3-28 28-15 11 4 8 17-6 17-6 17-6 16-8 15-8 14-9 27-21 12-12 11-13 4-24-13-20-25-4-20 13-5 12zM945 633l38-52 1-20-19 8-10-6-31-15-35-15-36-14-40-13-43-12-46-11-50-9-52-8-56-7-1 10 149 48 83 32 37 17 33 16 30 17 26 17 22 17zM897 755l31-44 8-8V684l-19 8-35-18-29-14-65-26-35-13-38-11-40-11-42-9-45-8-2 9 117 52 68 33 57 31 26 17 22 15 17 13 4 3zM865 882l38-52 1-20-20 9-28-17-56-27-63-27-72-26-40-12-41-11-4 9 169 94 76 49 40 31z"/><glyph glyph-name="undefined" unicode="𩰃" horiz-adv-x="1024" vert-adv-y="918" d="M619 5l1-4V-3l1-2V-7l1-2 2-1 4-2 5-1 8-2H781l-8 7L752 5l-13 7-47 23-20 5 2 10 20-2h20l18-1 33-3 28-6 4-1V61H620V12l-1-7zM513 132H292V83H482l17 19 13 23 1 7zm284 0H579L567 98 556 83H797v49zM381 187l-19-10-30-13-27-11H575l3 2 12 10 31 22H381zm271-31-11-2-3-1h14v3zM797 452H275V411H797v41zM582 508H372l1-6-21 6-26-18-25-14-6-3H525l48 29 9 6zm32-32-12-3h12v3zM472 567l-6 9-15 18-9 9-9 8-30-9-85-22-74-17-66-12-58-11h-2l-11-19-12 16-16 62 10 1 25 1 27 1 27 2 9 14 16 33 2 6H39v21H146V873l65-33H484l33 38 43-38V819H489l39-34V763H494l34-30V712H211V678H5e2l34 38 43-38V657H266l-30-27-29-22-3-2 109 9 42 4 64 4-23 17-15 8 3 9 17-5 16-3 16-3 16-4 28-11 13-6 12-7 23-16 8-24-11-22-23-8-22 11-5 8zM949 697l8-15 36-35 1-17-20 8-23-10-30-10-34-11-37-9-39-9-43-8-46-7-49-6-51-5-56-3-1 9 150 40 84 24 37 13 34 13 30 12 26 13 23 13zm-48 90 7-15 37-35 1-18-20 9-20-9-56-19-31-9-33-9-35-8-37-7-40-7-42-6-44-5-2 10 186 67 59 24 49 25 21 12zM478 763H211V733H452l26 30zM868 880l8-16 35-34 2-18-21 8-16-7-50-19-59-18-32-9-71-18-40-7-41-7-3 10 171 73 77 38 21 12 19 12zM482 819H211V785H452l30 34zM631 310v-6l-1-12v-8-2l1-3 3-3 4-3 7-2 8-2H907l19 27h11l-11-27 11-8 8-11-8-11-11-8H689l54-44-27-16-42-18H797l32 27 59-48-27-22V61L808 35l10-3 11-5L842 6l-4-21h83l26 92h11L947-15l17-10 10-16-10-17-17-10H628l-13 1-13 4-12 6-10 8-9 10-7 12-5 12-3 13-1 14V61H540L510 35 470 11 421-10 364-27 3e2-41 227-52l-82-8-90-3v9l88 15 79 15L292-6l60 18 52 21 41 22 9 6H292L227 29v97l-82-21-46-9-48-8-3 9 129 52 50 22v14l15-7 38 18 54 32 22 15 2 1-162-18-84-8-11-18-11 16-14 64H87h81V389l43-7v56l-31-10-35-9-38-7-40-6-3 10 104 46 30 14 13 7v22l21-10 41 26 19 16 17 15 16 17 36-39H612l11 9 5 7 2-3 16 13 60-48-27-16-46-19H797l32 27 59-48-27-22V389l-50-25 85 15v1-1l5 1 1-5 62-52 2-17-24 14-33-4-27-2-27-1-28-1-60-2-64-1H670l-35 1h-4zm9-79-12 1-12 2-11 5-11 7-9 9-7 11-6 11-4 13-1 14v85l64-11 16-10-16-10V330l36 8 33 6 31 5 61 12 5 1v27H275l-33-17 7-4-16-10V342H425l34 38 43-38V320H233V281h43 45 98l53-1 55-2 1-10-107-16-37-5 28-38H648l13 10 7 7 1-3 10 8H653 640z"/><glyph glyph-name="undefined" unicode="𩽝" horiz-adv-x="1024" vert-adv-y="918" d="M814-74l-14 1-13 3-13 4-12 7-11 8-9 11-6 13-5 12-2 14-1 13V125H712L699 98 668 59 632 24 589-4 540-28 486-47 425-60l-67-7-1 10 63 17 57 21L525 4l42 26 35 29 28 32 22 34H545V109L480 77V235l-18-10-32-15-34-13-4 8 79 65 9 8v13l10-5 45 42 17 19 28 37 11 19 3 3 51-39 5-14H774l4 3 3 6 2-2 24 20 59-49-27-16-31-13-35-22-14-8-28-13H878l32 27 59-48-27-22V125L878 93v32H793V12 6l1-5 1-3 1-2V-5l1-1h3l2-2 6-1h6H924l33 134h10L957-9l19-13 13-19-13-20-19-13H814zM72-78 48-75 33-55l3 24 8 11L52-7 60 8l7 17 6 18L85 87l11 50 4 28h9l7-56 1-26V59l-1-24-3-22-3-21-5-20-6-18-7-18L72-78zM259 19l-1 14-2 15-2 14-3 14-3 14-11 29-6 14-8 14 7 6 26-22 11-12 11-13 10-13 9-15 8-15 6-16 6-17 6-17-7-24-21-12-24 6L259 5V19zM208-37l-23-8-22 12-7 23 3 13 2 13 2 13 1 15V59 75l-3 35-2 18-4 19 9 4 9-18 9-16 9-18 13-33 10-33 3-16 2-16 1-17-12-21zM866 27l-1 5-2 6-3 7-5 7-6 7-7 8-19 17-13 7 4 8 13-4 14-2 13-3 12-3 12-4 10-5 10-5 10-7 8-7 8-10V25L908 7 883 6 865 23l1 4zM354 59l-4 13-4 13-10 25-6 13-14 24-10 11 6 7 12-8 14-8 13-8 23-21 21-25 9-14 9-15 8-16-3-24-18-16-25 2-16 19-5 28zM680 238H545V147H661l6 16 11 42 2 33zm198 0H744l-7-46-14-45H878v91zm-735-9-59-30V583L64 557 43 533l-8 5L94 688l22 65 20 68 9 31 4 14 59-28 12-14-20-6-22-57h95l32 27 59-48-27-16-13-6-21-33-24-30-30-33-27-27h98l30 26 56-48-27-19V229l-59-30v30H143zm61 172H143V251h61V401zm116 0H258V251h62V401zm443-70H613l-23-22-46-35-12-8 13-7H699l5 4 34 36 18 22 7 10zM413 436l10 1 41 2V617l26-5v78l-23-15-26-15-28-12-5 8 60 61 22 27v29l16-8 23 35 11 22 10 23 12 29 56-32 11-16H746l4 3 1 3 1-1 27 22 59-48-27-16-30-13-22-15-36-21H862l32 27 59-48-27-22V625l-64-33v33H555l-35-18 8-1 16-11-16-10V541h82l34 38 43-38V520H528V442l73 4 32 2h34 35l2-9-67-20-60-15-104-22-20-4-10-19-12 14-18 63zm389-49H789l-12 1-12 3-12 5-10 7-10 9-6 12-6 12-3 13-2 13V617l65-11 16-11-16-10V527l48 20 87 34 11 4-1 1 1-1 5 2 2-7 52-44 2-17-23 11-15-5-53-8-19-2-20-3-20-2-43-3H781V462l-1-6V446l1-5 1-2 3-3 3-2 6-2 8-2H934l22 48h10l-10-48 12-9 9-12-9-13-12-9H802zM204 573H143V423h61V573zm116 0H258V423h62V573zM271 740H169l-18-40-32-61-15-25 39-19h65l12 19 19 41 16 36 6 16 5 16 4 14 1 3zm591-21H555V646H862v73zM740 805H597l-24-35-18-22-5-5 5-3H698l3 4 24 34 12 20 3 7z"/><glyph glyph-name="undefined" unicode="𪓄" horiz-adv-x="1024" vert-adv-y="918" d="M822-74l-14 1-14 3-13 4-11 7-12 8-8 11-7 13-4 12-3 14V12 125H722L709 99 679 59 644 25 602-4 554-28 501-47 442-60l-65-7-2 10 62 17 54 21L539 4l40 26 34 29 27 31 21 35H559V109L494 77V234l-48-24-32-13-5 8 85 72v14l11-5 42 42 17 19 28 37 13 22 51-39 6-14H781l3 2 3 6 2-1 24 20 59-49-27-16-31-13-20-14-27-15-15-8-12-6H881l33 27 59-48-27-22V125L881 93v32H8e2V12l1-6V1l1-3 1-2 1-1 1-1h2l3-2 5-1h7H926l33 134h10L959-9l19-13 13-19-13-20-19-13H822zM67-66 45-55 38-32 49-10l9 6 9 8L77 14l8 11 8 14 8 15 7 17 13 39 4 23 10-1 3-45-1-22-1-21-4-19-4-19-7-18-8-16-10-17L91-59 67-66zM273 10V40l-2 29-1 14-3 14-8 42-5 13 8 6 9-12 10-11 10-12 9-13 8-14 14-29 6-16 5-16 4-17-6-23-22-13-23 7-13 21zM228-34l-24-5-20 13-6 24 4 13 3 13 3 14 1 14 2 15V82l-1 31-2 18-4 16 9 4 8-16 10-15 8-16 6-16 6-16 5-17 2-16 3-17 1-18-1-17-13-21zM360 56l-2 16-3 15-3 15-5 14-4 15-11 29-9 14 8 6 12-11 13-11 12-12 11-13 10-15 9-15 8-15 8-17 6-18 5-18-5-24L399-2 375 4 362 25l-2 31zM870 27l-1 5-2 6-3 7-4 7-6 8-16 16-9 8-13 7 4 8 13-4 13-2 13-3 23-7 11-5 10-5 9-7 9-8 7-9V25L911 7 887 6 869 23l1 4zM39 210l111 26 36 7 17 3V353H86v21H203V503H134V466L70 433V858l64-32H336l32 27 59-49-27-21V482l-64-33v54H267V374h19l54 54 64-54V353H267V256l35 5 42 5 43 3 44 2 3-9-85-25-116-32-103-32-41-14-6-20-15 13-29 58zm650 28H559V147H670l7 16 9 42 3 33zm192 0H754l-8-45-14-46H881v91zM770 331H625l-22-21-22-19-23-17-12-8 13-7H708l6 4 32 36 24 32zM429 436l10 1 39 2V617l26-5v78l-22-15-25-15-27-12-6 8 58 61 17 20 5 7v29l16-8 22 35 11 22 10 22 6 18 5 12 57-32 11-16H753l4 3 1 3 1-1 27 22 59-48-27-16-30-13-10-8-11-7-23-14-13-7H866l32 27 59-48-27-22V625l-64-33v33H569l-35-18 9-1 16-11-16-10V541h77l33 38 43-38V520H543V442l70 4 31 2h33 34l2-9-65-20-30-8-82-19-48-10-18-4-10-19-13 14-18 63zm381-49H797l-12 1-12 3-12 5-10 7-9 9-7 12-6 12-3 13-2 13V617l64-11 16-11-16-10V527l132 54 9 4h1l4 2 2-7 52-44 2-17-23 11-15-5-33-5-18-3-57-6-21-2-35-2V462v-6-10l1-5 1-2 2-3 4-2 6-2 8-2H937l21 48h11l-11-48 13-9 9-12-9-13-13-9H810zM146 612l-3 33-6 45-3 14V525h69v55l-17-12-25 6-13 20-2 18zm190-87V684l-10-18-20-34-22-33-13-16-4-6V525h69zm0 279H267V627l11 37 11 53 4 16 1 10v1l3 14 39-17v63zm-133 0H134V748l8-10 9-10 9-12 18-27 7-15 14-32 4-11V804zm663-85H569V646H866v73zM748 805H610l-7-12-35-45-5-5 6-3H707l3 4 23 34 11 20 4 7z"/><glyph glyph-name="undefined" unicode="𪓘" horiz-adv-x="1024" vert-adv-y="918" d="M243-13V3h53l7 1 5 1 3 1h2l1 2 1 1 1 1 1 3v5l1 7V283H152V-34L87-67V283H39v21H87V537H39v22H87V831l65-32H318l32 27 59-49-27-21V569l17 22 32-32V537H382V315l17 22 32-33V283H382V25 11L379-2l-4-13-7-12-9-11-10-9-12-7-13-4-14-2-14-1v32L243-13zM730 9V793H681V30 24l1-6 3-5 1-1 2-1 2-1h3l5-1h7 25zM896 320H789V197H896V320zm-274 0H514V197H622V320zM318 537H152V304H318V537zm578-77H789V342H896V460zm-274 0H514V342H622V460zM318 777H152V559H318V777zm555 16H789V638h84V793zm-251 0H538V638h84V793zM937 9l32 134h11L969 9 989-4l13-20-13-19-20-13H705l-14 1-13 3-13 5-12 6-10 9-9 11-6 12-4 13-2 13V30 175H514V111L450 78V514l64-32H622V616H538V578l-65-32V847l65-32H873l32 27 59-49-27-21V595l-64-33v54H789V482H896l33 27 59-49-27-21V143l-65-32v64H789V9H937z"/></font>
</defs>
</svg>
