<svg xmlns="http://www.w3.org/2000/svg"><defs><font name="Jigmo Regular" horiz-adv-x="1024" vert-adv-y="1024"><font-face font-family="Jigmo" font-weight="400" font-stretch="normal" units-per-em="1024" ascent="995" descent="169"/><glyph glyph-name="undefined" unicode="䟓" horiz-adv-x="1024" vert-adv-y="918" d="M587-18V-2H694h7l5 1 3 2h2l1 1 1 1 1 2 1 3v5l1 6V724H437v21H854l54 54 65-54V724H780V19 6L777-8l-4-12-7-13-9-11-11-8-11-7-13-4-14-3-14-1v33L587-18zM79-32 51 28 94 39V396l65-11 16-11-16-10V55l51 14 15 5V509H159V492L94 460V820l65-32H342l32 27 60-48-27-22V476l-65-32v65H289V310h61l34 37 43-37V288H289V93l145 44 3-9-33-20-70-38-35-17L190 8 1e2-24 94-44 79-32zM342 767H159V530H342V767z"/><glyph glyph-name="undefined" unicode="䟔" horiz-adv-x="1024" vert-adv-y="918" d="M923 312l-41 36-47 35-55 33-95 48-26 13V-45L595-77V842l64-11 16-11-16-9V489l33-6 36-8 36-11 33-11 62-27 56-30 26-17 24-18 11-22-7-23-23-11-23 7zM71-32 45 28 99 39V396l65-11 16-11-16-10V54l93 21V509H164V492L99 460V820l65-32H398l32 27 59-48-26-22V476l-65-32v65H321V310h74l44 48 54-48V288H321V91l136 35 45 11 3-9-41-21-85-37-86-33L160-6 92-26 85-45 71-32zM398 767H164V530H398V767z"/><glyph glyph-name="undefined" unicode="䟕" horiz-adv-x="1024" vert-adv-y="918" d="M860-18 8e2 37 745 99l-48 70-29-36-72-69L517 5 429-44 335-82l-4 9 89 47 80 54 73 62 64 70 38 51-19 37-35 85-29 93-22 101-16 108-7 110H452v22H866l33 26 59-48-27-16-5-2-19-102-32-117-39-108-48-98-54-87 10-16 47-62 53-55 57-47 87-53-60-47-68 47zM63-32 36 28 83 39V396l65-11 16-11-16-10V54l76 21V509H148V492L83 460V820l65-32H351l33 27 59-48-27-22V476l-65-32v65H289V310h75l33 37 43-37V288H289V93l118 33 40 11 4-9-37-21-75-37-78-33L183 8 103-19 84-25 77-45 63-32zM864 745H557l20-107 24-105 28-96 34-88 38-79 6-10 37 65 42 95 34 105 27 113 17 107zM701 526l-4 13-6 13-8 13-9 13-23 28-29 28-19 13 5 8 42-16 19-9 18-10 16-11 16-13 14-14 12-14 11-16 9-17-1-25-18-16-25 1-17 18-3 13zM351 767H148V530H351V767z"/><glyph glyph-name="undefined" unicode="䟖" horiz-adv-x="1024" vert-adv-y="918" d="M530 41V-24L466-56V632l64-11 16-10-16-10V62H679V847l64-10 16-11-16-10V62H892V632l64-11 16-10-16-10V9L892-24V41H530zM39 27l11 4 32 8V396l64-11 17-11-17-10V55l65 19V509H146V492L82 460V820l64-32H327l32 27 59-48-26-22V476l-65-32v65H275V310h59l34 37 43-37V288H275V93l142 44 4-9-67-40L249 38 141-6 89-24 82-44 68-31 39 27zM327 767H146V530H327V767z"/><glyph glyph-name="undefined" unicode="䟗" horiz-adv-x="1024" vert-adv-y="918" d="M918-53 889-37 856-8 821 36 786 97l-34 80-29 103-23 128-3 25H540V44l174 71 5-8-56-44-56-36L552-5 497-33 465-48l-5-21-16 11L413 0l62 20V745l56-28 151 59 102 44 61 31h1l4 2 6-11 41-38 1-18-21 8-71-27-36-12-27-8 6-179 11-113h81l54 54 64-54V433H762l2-16 22-122 27-97 30-73 31-52 28-35 19-17 27 117h11L949 4l3-1 21-13 7-23-13-21-24-7-25 8zM69-32 41 28 84 39V396l65-11 16-11-16-10V55l52 14 15 5V509H149V492L84 460V820l65-32H334l32 27 59-48-26-22V476l-65-32v65H280V310h62l33 37 43-37V288H280V93l145 44 4-9-68-40-72-35L180 8 90-24 84-44 69-32zM684 564l-5 164-56-14-38-7-38-5-7-1V455H695L684 564zM334 767H149V530H334V767z"/><glyph glyph-name="undefined" unicode="䟘" horiz-adv-x="1024" vert-adv-y="918" d="M66-32 38 28 84 39V396l64-11 16-11-16-10V55l72 19V509H148V492L84 460V820l64-32H343l32 27 59-48-27-22V476l-64-32v65H285V310h68l33 37 43-37V288H285V93l112 33 39 11 4-9-71-40-74-35-75-31L104-19 87-25 80-45 66-32zM925 25l33 134h10L958 25l19-13L990-8 977-27 958-40H853l-14 1-14 2-12 5-12 7-11 8-9 11-7 12-4 13-3 14V46 476H596V331l-5-57-10-54-16-50-21-47-26-43-31-39L452 6 411-24 366-50 316-71l-4 9 43 30L394-1l33 33 29 35 24 37 19 40 15 43 10 45 6 49 2 51V530l64-32H767l32 27 59-49-27-21V46l1-6V35l1-3 2-2V29l1-1 2-1 4-1 4-1h7 72zM343 767H148V530H343V767zM447 654v21H650V863l64-10 16-11-16-10V675H860l54 54 64-54V654H447z"/><glyph glyph-name="undefined" unicode="䟙" horiz-adv-x="1024" vert-adv-y="918" d="M914-13l-7-12-8-10-9-10-11-9-11-6-12-6-13-3-13-2-14-1v32L709-24V-8H816l7 1 6 1 6 2 4 1 4 2 3 3 4 4 3 4 3 6 3 6 7 24 6 35 7 47 5 58 4 68 4 80 3 90 2 1e2 2 111V745H799l-3-112-9-115-13-106-18-98-23-88-27-79-33-71-38-60-42-51-48-40-6 7 38 46 34 53 30 61 26 69 22 77 18 86 14 95 9 104 5 112V745H631v22H899l32 26 59-48-26-16-1-95-1-111-2-101-3-91-4-80-5-70-5-60-7-50-8-40-9-32-5-12zM42 27l10 4 29 7V396l60-11 15-11-15-9V56l56 18V509H143V492L79 460V820l64-32H298l32 27 59-48-26-22V509l-65-33v33H256V310h44l33 37 43-37V288H256V94l126 43 4-9-59-40-62-34-63-31L137-5 93-23 87-43 72-31 42 27zM528 154l-14 1-14 2-13 4-12 7-11 9-8 11-7 12-4 13-3 13v14V513l-70-25-8 20 78 28V847l64-10 16-11-16-10V559l44 16 32 69 79-28 7-20-162-59V240l1-7v-5l1-3 1-1 1-1 1-2h2l3-1 5-1 7-1h78l32 135h11L638 218l19-13 13-19-13-19-19-13H528zM298 767H143V530H298V767z"/><glyph glyph-name="undefined" unicode="䟚" horiz-adv-x="1024" vert-adv-y="918" d="M645 498V336l-5-56-7-53-10-50-13-46-16-44-20-40-22-37-24-33-29-28-31-24-7 7 23 30L504-6l18 34 16 36 13 39 10 41 9 44 6 47 3 50 1 53V498H445v21H864l54 54 64-54V498H840V-40L775-72V498H645zM71-32 44 28 88 39V396l65-11 16-11-16-10V55l71 19V509H153V492L88 460V820l65-32H345l33 27 59-48-27-22V476l-65-32v65H288V310h67l34 37 43-37V288H288V93l112 33 39 11 4-9-71-40-73-35-75-31L109-19 92-25 85-45 71-32zM345 767H153V530H345V767zm492 53 65-53V745H525v22H783l54 53z"/><glyph glyph-name="undefined" unicode="䟛" horiz-adv-x="1024" vert-adv-y="918" d="M782 78V95h54 6l5 1 3 1 2 1 1 1 1 1 1 2 1 3 1 5v6V492H707V-45L642-77V492H508V57L444 25V546l64-32H642V664H387V476l-64-32v65H272V310h57l34 37 43-37V288H272V93l139 44 5-9-66-40-68-34-69-31L143-6 93-24 86-44 72-31 43 27l10 4 34 8V396l59-11 14-11-14-9V55l67 19V509H149V492L84 460V820l65-32H323l32 27 59-48-27-22V686H642V863l65-10 16-11-16-10V686H871l53 54 65-54V664H707V514H857l32 27 60-49-27-21V116l-1-13-3-14-4-13-6-12-9-11-11-8-12-7-13-5-13-2-14-1V62L782 78zM323 767H149V530H323V767z"/><glyph glyph-name="undefined" unicode="䟜" horiz-adv-x="1024" vert-adv-y="918" d="M786-24V-8h86l7 1 4 1 4 1 2 1 1 1v1l2 1 1 4V8l1 6V230l-47-35-32 45-29 47-25 52-20 54-17 58-9 46-15-48-18-48-21-47-24-43-27-40-29-37-32-33-30-24V-40L454-72V659l65-32H699l-2 17v70l4 69H533v21H681l26 22 59-49-27-16-24-11 4-34 10-69 3-20H894l32 27 59-49-27-21V14 1l-3-14-4-13-7-12-9-11-11-9-11-7-13-4-14-2-14-1v32L786-24zM39 27l10 4 34 8V396l59-11 15-11-15-9V55l68 19V509H145V492L80 460V820l65-32H322l32 27 60-48-27-22V476l-65-32v65H270V310h59l34 37 43-37V288H270V93l142 44 4-9-66-40-69-34-71-31L139-6 88-24 82-44 67-31 39 27zM673 605H519V195l15 20 47 75 20 41 18 42 16 45 13 46 11 50 9 52 5 39zm221 0H737v-2l3-21 15-61 17-56 21-53 22-48 26-45 29-41 24-28V605zM322 767H145V530H322V767z"/><glyph glyph-name="undefined" unicode="䟝" horiz-adv-x="1024" vert-adv-y="918" d="M864-34 804-9 751 20 703 56 691 67 636 25 577-11 513-40 444-61 371-76l-3 9 70 25 63 29 58 33 53 38 47 41-35 42-30 50-23 55-18 59-9 58H483v22H820l32 27 59-49-27-16-10-4-20-49-32-67-39-59-44-54-9-9 51-33 49-23 54-18L991 6 928-53 864-34zM72-32 44 28 90 39V396l64-11 17-11-17-10V55l73 19V509H154V492L90 460V820l64-32H350l32 27 60-48-27-22V498l-65-32v43H292V310h69l33 37 43-37V288H292V93l113 33 39 11 5-9-36-21-74-37-37-17-75-31L110-19 93-25 86-45 72-32zM814 363H555l19-51 26-53 28-48 32-42 32-33 9 10 37 52 33 57 27 62 16 46zM539 831l64-32H765l32 27 60-49-27-21V535l1-4 1-4 1-2 2-1 4-2 5-2 7-1h77l27 92h11l-11-92 16-10 11-17-11-16-16-10H851 838l-13 2-12 3-12 6-11 8-9 10-7 12-4 12-3 14-2 13V777H603V659l-3-33-7-31-10-31-13-29-17-27-20-26-23-24-26-23-30-19-32-19-6 8 26 26 42 50 16 25 14 25 10 25 8 26 5 25 2 26v26V831zM350 767H154V530H350V767z"/><glyph glyph-name="undefined" unicode="䟞" horiz-adv-x="1024" vert-adv-y="918" d="M857 4e2l56-33 11-16-20-2-25-48-39-62-44-57-50-52-53-47-60-42L570 3 502-29 429-55 351-76l-3 9 73 30L489-3l63 37 58 40 53 44 48 47 43 52 38 54 33 59 27 59 5 11zM70-32 42 28 86 39V396l64-11 16-11-16-10V55l53 14 16 5V509H150V492L86 460V820l64-32H338l33 27 59-48-27-22V476l-65-32v65H284V310h63l34 37 43-37V288H284V93l147 44 4-9-70-40-72-35-73-31L145-6 91-25 84-44 70-32zM560 283v16h86 6l5 2 5 1 2 2 2 5 1 5v6V863l65-10 16-11-16-10V320l-1-13-2-13-5-13-7-13-8-10-11-9-12-7-13-4-14-3-13-1v33l-86 16zM533 654l61-22 14-14-19-7-4-13-11-32-12-32-14-31-33-61-19-28-21-28-23-27-25-25-8 6 46 92 14 29 23 61 9 30 8 31 7 30 4 26 3 15zM915 462l-10 22-11 21-12 21-13 21-30 42-54 63 6 8 26-14 24-16 23-17 21-18 19-19 35-42 16-21 14-23 13-23V442l-16-18H941l-18 17-8 21zM338 767H150V530H338V767z"/><glyph glyph-name="undefined" unicode="䟟" horiz-adv-x="1024" vert-adv-y="918" d="M101 777l62-31 135 51 74 30 23 11 4-9 46-41 1-17-21 9-32-10-53-14-55-13-29-5-29-5-31-5-30-2-1-217H351l54 53 65-53V487H338V273l17-9 24-16 22-17 20-18 18-19 16-20 4-24-14-20-25-4-20 14-9 17-13 17-14 18-17 18-9 8V-45L274-77V269l-75 50 3 9 35-10 33-12 4-1V487H165V412l-2-64-5-60-7-57-9-53-11-50-13-46-16-43L85 1 64-34 41-63l-9 4L46-25 58 12 69 51 79 92l8 45 6 48 5 52 2 55 1 58v62V777zM871-54 808-42 753-25 706-2 667 26 637 59 613 96l-17 40-8 30-8-26-18-46-20-43-24-39-27-34-30-29-32-24-7 7 24 31L468-4l19 35 17 38 16 41 12 44 11 48 7 51 6 55 2 52 1 17 64-15 15-11-17-10-5-40-9-57-9-41 26-54 22-32 24-28 28-23V515H601V477l-64-32V836l64-32H860l32 27 59-49-27-21V483l-64-32v64H763V283h96l44 48 54-48V261H763V35l10-4 48-12 57-6 66-1h64L944-59l-73 5zM860 782H601V537H860V782z"/><glyph glyph-name="undefined" unicode="䟠" horiz-adv-x="1024" vert-adv-y="918" d="M888-22 840 17 8e2 72l-26 52-33-38-51-47L634-2 573-37 507-66l-5 10 61 37 54 40 49 44 45 48 40 53 4 8-16 48-21 97-16 112-11 125-2 55H527V128l112 81 28 18 7-7-43-51-88-91-16-15V62h-1L473 13l2-21-19 6-48 43 8 7 46 33V664l65-32H688l-2 65-1 151v18l65-13 16-12-16-9V699l3-67H853l54 54 65-54V611H754l2-50 10-123 15-107 18-79 16 33 25 67 21 71 18 86 61-22 14-14-19-7-15-59-25-75-31-70-36-64-9-13 7-22 29-59 32-43 34-28h2l28 121h10L951 21l7-2L978 4l4-23-14-21-24-4-56 22zM39 27l11 4 32 8V396l64-11 17-11-17-10V55l65 19V509H146V492L82 460V820l64-32H327l32 27 59-48-26-22V476l-65-32v65H275V310h59l34 37 43-37V288H275V93l142 44 4-9-67-40L249 38 141-6 89-24 82-44 68-31 39 27zM327 767H146V530H327V767zm560-27-4 9-4 10-6 9-8 10-9 11-23 21-13 11-17 9 4 9 18-6 18-4 17-5 15-7 15-7 14-8 13-10 11-10 11-12 9-13V733l-17-19H907l-18 17-2 9z"/><glyph glyph-name="undefined" unicode="䟡" horiz-adv-x="1024" vert-adv-y="918" d="M766 52 830-2V-24H423V-2H712l54 54zM888 19 845 56l-38 49-31 60-26 71-21 82-16 92-4 34H561V167l118 31 35 9 3-9-61-35-61-29-56-23-54-20-28-9-8-20-13 13-19 47-58-34L254 38 146-6 94-24 88-44 73-31 45 27l11 4 31 8V396l65-11 16-11-16-10V55l64 19V509H152V492L87 460V820l65-32H332l33 27 59-48-27-22V476l-65-32v65H281V310h59l33 37 43-37V288H281V93l131 41-1 2 11 2 23 4 51 10V756l60-30 86 24 72 24 69 25 66 28 31 15 5-11 43-38 1-17-21 8-36-14-35-11-36-11-37-10-7-1 2-105 7-112 6-54h95l54 53 65-53V444H774l3-25 15-88 19-76 24-64 27-51 30-39 30-27 27 117h11L950 60l9-5 19-16 1-24L963-4 938-5 888 19zM695 630l-2 93-43-7-40-4-40-3h-9V466H707l-5 48-7 116zM332 767H152V530H332V767z"/><glyph glyph-name="undefined" unicode="䟢" horiz-adv-x="1024" vert-adv-y="918" d="M546-29v16H653l7 1 5 1 3 1h2l1 1 1 1 1 2 1 3V2l1 7V568l64-11 17-11-17-9V9-5l-3-13-4-13-7-13-9-10-10-9-12-7-13-4-14-2-14-1v32L546-29zM39 27l10 4 34 8V396l59-11 15-11-15-9V55l68 19V509H145V492L80 460V820l65-32H322l32 27 60-48-27-22V476l-65-32v65H270V310h59l34 37 43-37V288H270V93l142 44 4-9-66-40-69-34-71-31L139-6 88-24 82-44 67-31 39 27zM544 402l60-24 13-15-19-6-19-53-15-36-17-35-18-34-20-33-22-33-23-31-26-30-28-28-8 5 38 69 33 67 15 34 26 69 11 35 9 35 8 35 2 9zM914 127l-9 35-22 66-12 32-29 61-48 89 7 7 25-24 24-26 22-27 21-29 18-31 34-65 28-70 12-37-4-25-20-15-24 4-15 20-8 35zM595 860l60-26 13-15-19-5-10-32-37-98-21-45-6-12H865l53 54 65-54V605H564l-29-50-25-38-26-36-29-32-30-29-8 6 43 72 40 77 18 41 17 43 16 45 15 46 14 49 13 51 2 10zM322 767H145V530H322V767z"/><glyph glyph-name="undefined" unicode="䟣" horiz-adv-x="1024" vert-adv-y="918" d="M647 869l65-11 16-11-16-9V621H871l53 54 65-54V6e2H712V-40L647-72V6e2H413v21H647V869zM70-31 41 27 84 39V396l59-11 14-11-14-9V55l63 19V509H145V492L81 460V820l64-32H314l32 27 59-48-27-22V476l-64-32v65H265V310h53l34 37 43-37V288H265V93l136 44 4-9-63-40-67-34-67-31L139-6 91-24 85-44 70-31zM499 525l65-11 16-11-16-9V320l-4-50-7-47-11-44-16-41-19-37-23-34-27-30-30-26-34-22-37-16-5 8L381 6l27 26 23 28 19 30 17 31 13 35 9 37 7 39 3 43V525zM921 84l32 134h11L953 84l20-13 13-19-13-20-20-13H882l-14 1-13 3-13 4-12 7-11 8-9 11-7 13-4 12-2 14-1 13V525l65-11 16-11-16-9V99l1-5 2-5 2-2 5-2 4-1h7 39zM314 767H145V530H314V767zm501-63-3 15-4 14-5 14-7 13-8 14-9 13-22 26-15 12 4 8 36-15 17-9 15-11 15-13 13-13 11-15 11-17 9-17 7-19-5-24-19-15-24 4-15 20-2 15z"/><glyph glyph-name="undefined" unicode="䟤" horiz-adv-x="1024" vert-adv-y="918" d="M854 19l33 135h10L887 19 906 6l13-19-13-19-19-13H663l-14 1-13 2-13 4-12 7-11 9-9 11-6 12-5 13-2 13-1 14v62L539 60 468-10 393-75l-7 7L454 4l64 75 59 78V664l65-10 16-11-16-10V253l41 70 47 88 42 92 37 96 34 1e2 27 98 4 14 60-26 12-14-18-5-27-86-38-102-42-97-47-93-51-89-57-83-24-33V41 34l1-4 1-4 1-1V24l1-1 3-1 3-1 5-1 6-1H854zM70-32 42 28 86 39V396l64-11 16-11-16-10V55l53 14 16 5V509H150V492L86 460V820l64-32H338l33 27 59-48-27-22V476l-65-32v65H284V310h63l34 37 43-37V288H284V93l147 44 4-9-70-40-72-35-73-31L145-6 91-25 84-44 70-32zM465 160l-24 1-17 18 1 24 10 21 9 23 8 25 7 27 7 29 5 31 4 33 3 35 6 76 9 1 8-39 6-38 3-36 1-35V323l-2-32-4-30-5-30-7-27-9-27-19-17zm457 94-3 27-4 27-5 27-7 26-8 27-20 53-24 55 8 6 22-22 19-25 17-24 16-27 13-27 12-28 10-28 8-29 6-30 5-30-8-23-22-12-23 8-11 22-1 27zM338 767H150V530H338V767zm383-83-10 16-11 17-29 33-36 33-45 35-24 17 4 9 30-10 27-10 26-12 24-14 22-14 21-15 19-16 17-16 16-18 14-19 2-24-15-20-24-3-20 15-8 16z"/><glyph glyph-name="undefined" unicode="䟥" horiz-adv-x="1024" vert-adv-y="918" d="M754 509H901l5 6 1-1 26 21 59-48-27-16-18-8-42-52-51-57-40-38-22-20-7 6L887 478l4 9H734V9L733-5l-2-13-4-13-7-13-9-10-11-9-12-7-13-4-13-2-14-1v32L540-29v16H648l6 1 5 1 4 1h2l1 1v1l1 2 1 3 1 5 1 7V374l-20-35-30-47-34-44-37-43-41-41-44-39-49-37-51-35-6 8 44 42 42 43 38 42 35 43 32 44 29 45 25 46 22 46 19 48 8 27H424v22H741l-17 10-13 19-13 18-15 18-15 17-17 17-37 32-42 30-23 15 3 9 28-6 26-9 25-10 24-12 23-13 22-15 1-1L826 777H465v22H843l8 11 3-2 21 18 60-49-27-16-28-11-62-52-63-47-45-30 30-25 36-39 6-24-13-21-15-3zM39 27l11 4 32 8V396l64-11 17-11-17-10V55l65 19V509H146V492L82 460V820l64-32H327l32 27 59-48-26-22V476l-65-32v65H275V310h59l34 37 43-37V288H275V93l142 44 4-9-67-40L249 38 141-6 89-24 82-44 68-31 39 27zM327 767H146V530H327V767z"/><glyph glyph-name="undefined" unicode="䟦" horiz-adv-x="1024" vert-adv-y="918" d="M880-44 836-16 796 18 760 56 746 76 712 43 661 3 606-31 547-59 484-82l-4 9 58 32L591-6l48 37 44 42 37 41-21 34-26 54-21 58-17 62-10 48-5-25-21-70-25-66-28-61-30-55-35-51L444-3 402-42 358-75l-6 7 36 40 34 44 30 46 28 51 25 55 23 59 19 63 16 68 14 73 11 76 5 45H449v21H595l19 153-48-6-49-4-51-2-1 9 187 50 86 24 79 26 73 26 3-8 49-42 2-17-23 10-48-15-81-20-42-9-44-8-45-7-17-3 35-10 14-13-17-5-15-129H859l54 54 65-54V552H658l-6-53-32 4 31-4-14-80-3-13H857l32 27 60-48-27-16-9-4-16-47-27-65-33-59-37-56-19-22 20-22 35-32 36-25 39-21 77-31-62-52-46 23zM71-32 44 28 88 39V396l65-11 16-11-16-10V55l71 19V509H153V492L88 460V820l65-32H345l33 27 59-48-27-22V476l-65-32v65H288V310h67l34 37 43-37V288H288V93l112 33 39 11 4-9-71-40-73-35-75-31L109-19 92-25 85-45 71-32zM853 385H634l22-56 25-58 27-52 29-48 13-16 9 12 31 53 27 57 23 62 13 46zM345 767H153V530H345V767z"/><glyph glyph-name="undefined" unicode="䟧" horiz-adv-x="1024" vert-adv-y="918" d="M524 33V-31L460-63V785l64-32H893l32 27 60-48-27-22V1L893-31V33H524zM39 27l11 4 32 8V396l64-11 17-11-17-10V55l65 19V509H146V492L82 460V820l64-32H327l32 27 59-48-26-22V476l-65-32v65H275V310h59l34 37 43-37V288H275V93l142 44 4-9-67-40L249 38 141-6 89-24 82-44 68-31 39 27zM677 383H524V55H677V383zm216 0H741V55H893V383zM677 732H524V404H677V732zm216 0H741V404H893V732zM327 767H146V530H327V767z"/><glyph glyph-name="undefined" unicode="䟨" horiz-adv-x="1024" vert-adv-y="918" d="M902-28 859 16 822 66l-33 55-27 62-22 66-18 73v4H565V56l139 52 36 12 37 12 4-9-65-41L579 8 454-53l-4-20-16 11L399-6 5e2 32V831l65-32H882l33 27 59-49-27-21V530l-65-32v64H763l3-74 8-79 10-62h80l54 54 64-54V326H788l14-59 20-61 25-55 28-50 33-43 36-37 24 106h11L969 1l17-14 13-21-5-24-21-13-24 5-47 38zM72-32 44 28 90 39V396l64-11 17-11-17-10V55l73 19V509H154V492L90 460V820l64-32H350l32 27 60-48-27-22V476l-65-32v65H292V310h69l33 37 43-37V288H292V93l113 33 39 11 5-9-36-21-74-37-37-17-75-31L110-19 93-25 86-45 72-32zM699 562H565V347H718l-8 53-8 84-3 78zM350 767H154V530H350V767zm532 10H565V584H882V777z"/><glyph glyph-name="undefined" unicode="䟩" horiz-adv-x="1024" vert-adv-y="918" d="M894-25 871 40 858 71l-3 8-80-26-93-25L594 8 512-9 458-19l-9-18-13 14-18 63 86 8 14 1 32 87 77 214 11 36 2 4H406v22H644V638H447v21H644V863l64-10 16-11-16-10V659H812l54 54 64-54V638H708V412H864l53 54 65-54V390H647l52-27 11-15-19-4-55-120-35-69-38-67-21-33-3-3 90 10L770 82l50 6 29 3-20 40-34 59-57 86 7 7 28-22 26-24 24-26 23-27 21-29 39-59 34-65L954-3l-1-24-17-17-25 2-17 17zM45 27l11 4 31 8V396l65-11 16-11-16-10V55l64 19V509H152V492L87 460V820l65-32H332l33 27 59-48-27-22V498l-65-32v43H281V310h59l33 37 43-37V288H281V93l142 44 4-9-68-40L254 38 146-6 94-24 88-44 73-31 45 27zM332 767H152V530H332V767z"/><glyph glyph-name="undefined" unicode="䟪" horiz-adv-x="1024" vert-adv-y="918" d="M43 27l10 4 34 8V396l59-11 14-11-14-9V55l67 19V509H149V492L84 460V820l65-32H323l32 27 59-48-27-22V476l-64-32v65H272V310h57l34 37 43-37V288H272V93l139 44 5-9-66-40-68-34-69-31L143-6 93-24 86-44 72-31 43 27zM730 518H866l4 5h1l27 22 59-48-27-16-14-6-46-71-32-42-32-41-71-78-38-37-39-36-42-33-34-25 19-21 28-19 36-14 45-10 57-6h71L982 52 928-23l-89-2-76 4-64 10L646 6 602 30 569 60 545 96l-15 41-6 39-12-44-9-29-18-51-10-23-9-20-8-15 7-22-20 2L389 6l7 9 10 11 11 13 23 35 40 71 41 83v2l5 7 9-3-2-11 12-37 15-39 15-24 62 68 67 79 32 41 58 83 52 85 10 18H428v21H666V701l64-11 16-10-16-10V518zM323 767H149V530H323V767zm573 81 6-13 40-37 1-17-20 8-42-17-44-16-46-15-47-13-48-12-49-10-51-9-53-8-54-5-55-2-1 9 155 40 49 14 93 31 86 34 41 18 39 20z"/><glyph glyph-name="undefined" unicode="䟫" horiz-adv-x="1024" vert-adv-y="918" d="M813-45 704-42l-98 7-86 12L445-5 382 18 330 47 291 81l-25 40-1 4-19-30-24-33-28-30L164 4 130-22 93-45 52-65l-5 8L81-28 111 1l28 29 25 29 21 31 19 31 15 32 13 34 9 34 6 31 3 15 61-22 14-14-19-7-6-19-14-39-10-19 9-15 28-28 38-24 48-20 59-16 22-4V353H297V337l-65-33V595l65-33H722l32 27 59-48-27-22V320l-64-32v65H544V202H770l54 54 64-54V181H544V30l67-6 95-3 105 2 118 5 60 3-56-73-120-3zM722 541H297V374H722V541zM147 678l1-16-2-25-4-24-6-23-9-20-11-19-14-18-16-14-25-4-20 15-4 24 14 20 11 6 11 7 9 10 10 13 9 16 8 19 7 22 12 52 3 30 10 1 3-31 2-20H480V871l64-10 16-11-16-10V699H649l75 90 22 30 16 24 3 6h-1l6 8 50-40 7-19-24 2-32-29-54-40-47-32H894l3 3 1 3 2-1 26 22 59-48-27-16-22-10-37-38-43-40-34-30-7 6 12 19 47 85 12 24H147zm141 56-5 11-6 12-8 12-18 24-34 38-15 10 5 9 17-8 18-6 16-8 30-17 27-21 23-23 11-13 3-24-15-20-24-3-20 15-5 12z"/><glyph glyph-name="undefined" unicode="䟬" horiz-adv-x="1024" vert-adv-y="918" d="M71-32 44 28 88 39V396l65-11 16-11-16-10V55l71 19V509H153V492L88 460V820l65-32H345l33 27 59-48-27-22V476l-65-32v65H288V310h67l34 37 43-37V288H288V93l112 33 39 11 4-9-71-40-73-35-75-31L109-19 92-25 85-45 71-32zm290 8V-2H490V724l55-27L851 827l3-9 47-41 1-16-21 9-108-35-69-20-71-18-36-8-36-7-6-1V471H843l53 54 65-54V449H801V-2h66l54 54L986-2V-24H361zM737 449H555V-2H737V449zM345 767H153V530H345V767z"/><glyph glyph-name="undefined" unicode="䟭" horiz-adv-x="1024" vert-adv-y="918" d="M553 854l62-22 14-14-19-7-19-72-14-47-9-25H851l53 54 65-54V646H696V439H818l54 53 65-53V417H696V210H829l54 53 64-53V188H696V-56L632-89V646H560l-38-92-21-47-24-45-26-45-29-44-8 4 54 144 17 47 28 93 22 92 9 45 6 40 3 16zM47 27l10 4 32 8V396l60-11 15-11-15-9V55l64 19V509H151V492L87 460V820l64-32H321l32 27 60-48-27-22V476l-65-32v65H272V310h54l34 37 43-37V288H272V93l137 44 4-9-64-40-67-34-67-31L146-6 97-24 91-44 76-31 47 27zM321 767H151V530H321V767z"/><glyph glyph-name="undefined" unicode="䟮" horiz-adv-x="1024" vert-adv-y="918" d="M791 521h1l-2-24 11-62 16-74 18-70 19-64 22-59 24-53 26-49 28-44 33-41-58-42-31 46-27 50-25 55-22 59-18 64-16 68-11 73-3 25-4-24-15-75-18-69-21-64-24-58-28-52L635-9 6e2-48 561-81l-6 8 29 38L610 7l25 47 21 51 19 56 16 62 13 67 11 73 8 78 5 84v30H596v22H728V874l64-11 16-10-16-10V577h55l54 54 64-54V555H792V523l-1-2zM563 870l59-25 13-15-19-5-31-99-41-113-22-54-6-14 27-4 16-11-16-10V-45L478-77V462l-29-59-27-49-29-46-9 4 76 208 54 166 31 116 15 59 3 9zM39 27l10 4 30 7V396l59-11 15-11-15-9V56l60 18V509H141V492L77 460V820l64-32H302l32 27 59-48-27-22V476l-64-32v65H257V310h48l33 37 43-37V288H257V94l130 43 5-9-62-40-64-34-65-31-99-42-13-4-6-21L68-31 39 27zM302 767H141V530H302V767zm572-72-2 17-7 32-6 15-6 15-7 16-16 30-11 14 6 7 31-21 15-13 12-13 24-31 9-16 9-18 8-19 6-19-5-24-20-14-24 5-14 20-2 17z"/><glyph glyph-name="undefined" unicode="䟯" horiz-adv-x="1024" vert-adv-y="918" d="M875 848l6-13 41-37V781l-20 8-82-31-44-14-42-11V530H864l54 54 64-54V509H734V310H847l33 27 59-49-27-21V-13L847-45V19H557V-45L492-77V342l65-32H670V509H421v21H670V717l-33-7-50-8-50-7-52-5-54-3-1 9 150 40 92 28 44 15 83 33 76 36zM69-32 41 28 84 39V396l65-11 16-11-16-10V55l52 14 15 5V509H149V492L84 460V820l65-32H334l32 27 59-48-26-22V476l-65-32v65H280V310h62l33 37 43-37V288H280V93l145 44 4-9-68-40-72-35L180 8 90-24 84-44 69-32zM557 288V41H847V288H557zM334 767H149V530H334V767z"/><glyph glyph-name="undefined" unicode="䟰" horiz-adv-x="1024" vert-adv-y="918" d="M593 659l56-34 10-17-20-2-35-61-24-39-52-72-9-11 34-6 16-11-16-9V-40L488-72V386l-47-50-32-29-34-27-7 7 76 102 47 71 22 37 60 115 15 35 5 12zM723-13V3h64l7 1 5 1 5 1 1 2 1 1 1 1 1 3 1 5V498H620v21H867l54 54 65-54V498H873V25 11L871-2l-5-13-7-12-8-11-11-9-12-7-13-4-14-2-14-1v32L723-13zM66-31 36 27 74 38V396l60-11 15-11-15-9V56l54 18V509H136V492L72 460V820l64-32H288l32 27 59-48-27-22V476l-64-32v65H248V310h41l33 37 43-37V288H248V94l89 32 34 11 4-9-29-20-29-20-61-34-62-31L130-5 87-23 81-43 66-31zM288 767H136V530H288V767zm273 96 56-35 10-16-20-2-30-50-21-33-45-61-23-29-24-28-25-26-54-45-7 7 78 116 54 94 33 67 18 41zm325-16 64-54V772H654v21H832l54 54z"/><glyph glyph-name="undefined" unicode="䟱" horiz-adv-x="1024" vert-adv-y="918" d="M74-32 46 28 89 39V396l64-11 17-11-17-10V55l52 14 15 5V509H153V492L89 460V820l64-32H337l32 27 59-48-27-22V476l-64-32v65H284V310h61l33 37 43-37V288H284V93l144 44 4-9-33-20-70-38-36-17L185 8 95-24 88-44 74-32zM788 320v17h54 7l5 1 5 2 1 1v1l1 2 2 3 1 5V557H731V343l28-48 20-32 21-29 22-29 24-27 26-26 28-25 30-24 48-35-60-44-32 28-29 29-28 30-25 32-23 33-20 34-17 35-13 35V-45L666-77V239l-27-38-34-41-36-39-38-36-41-34-42-31L403-8 356-33l-5 8 79 67 37 35 35 37 33 38 31 39 29 42 27 43 25 44 19 40V557H534V267l-65-33V611l65-33H666V686H441v21H666V874l65-11 16-10-16-10V707H854l54 54 65-54V686H731V578H864l32 27 59-48-27-22V358 345l-3-14-4-13-7-12-8-11-11-8-13-7-12-5-14-2-14-1v32l-54 16zM337 767H153V530H337V767z"/><glyph glyph-name="undefined" unicode="䟲" horiz-adv-x="1024" vert-adv-y="918" d="M640 321V250l-5-48-11-46-16-42-21-39-26-35L531 8 496-21 456-45 412-66 364-82l-4 9 43 26 37 26L474 7l28 29 23 31 19 32 14 35 10 37 6 39 1 42V353l65-11 16-11-16-10zM916 3l33 135h10L949 3l19-13 13-19-13-19-19-13H818l-14 1-13 2-13 4-12 7-11 9-9 11-7 12-4 13-3 13V25 380l64-11 17-11-17-10V25l1-7V13l2-3 1-1 1-1V6h2l4-1 4-1 7-1h98zM69-32 41 28 84 39V396l65-11 16-11-16-10V55l52 14 15 5V509H149V492L84 460V820l65-32H334l32 27 59-48-26-22V476l-65-32v65H280V310h62l33 37 43-37V288H280V93l145 44 4-9-68-40-72-35L180 8 90-24 84-44 69-32zM674 675l39-23 11-16-21-3-42-66-53-73-44-53 59 7 44 4 43 5 44 4 44 4 44 3 17 1-42 65-36 48 7 7 26-18 44-38 20-19 17-19 30-38 13-19 11-19 9-19-2-25-19-16-24 2-17 19-4 16-5 17-8 18-9 18-3 6-65-18-128-30-171-34-20-4-9-18-13 14-20 62 11 1 88 10 78 153 20 47 15 35v2H429v22H654V858l64-11 17-10-17-10V697H858l54 53 64-53V675H674zM334 767H149V530H334V767z"/><glyph glyph-name="undefined" unicode="䟳" horiz-adv-x="1024" vert-adv-y="918" d="M862 491h-1l6 11 31-18V675l-25-39-38-51-43-46-48-42-27-18-6 7 54 76 33 50 29 52 13 27 24 54 3 7 31-19v54H707v22H898l32 26 59-48-26-21V141l-1-14-3-13-4-13-6-12-10-11-10-9-12-6-13-4-14-3-14-1V88l-64 16v16h71l5 1 3 1 3 2 1 1 1 1 1 4v4l1 7V424l-30-48-20-29-45-55-24-26-26-25-28-23-29-21-6 7 81 113 35 57 31 60 25 57zM515 104v16h82l5 1 3 1 2 1 1 1 1 1 1 5 1 4 1 7V420l-27-47-41-60-21-27-23-26-25-25-26-22-27-21-7 7 57 83 35 57 31 59 27 64 16 40 31-18V673l-23-36-36-50-20-23-43-43-23-19-25-18-7 7 65 97 29 51 27 51 11 27 11 28 3 7 31-19v54H418v21l-24-20V503l-65-32v64H275V304h69l34 38 43-38V283H275V73l28-14 75-25 87-17L566 6 679 3 805 6 944 17l58 6-52-76-142-8H678L560-53 456-37 364-14 285 18 220 58l-52 47-37 56-2 8-13-57-12-45L90 25 74-13 57-48 38-79l-9 4 9 34L48-4l8 39 8 41 7 45 7 47 5 50 4 53 3 57 2 59 1 12 64-16 15-11-17-9-4-40-7-57-8-55-2-10 17-29 40-45 20-15V535H157V498L93 466V863l64-32H329l32 27 60-48-2-1H612l32 26 59-48-26-21V141l-2-14-2-13-4-13-7-12-9-11-10-9-13-6-13-4-13-3-14-1V88l-75 16zM329 810H157V557H329V810z"/><glyph glyph-name="undefined" unicode="䟴" horiz-adv-x="1024" vert-adv-y="918" d="M464 826l53-27H844l53 54 65-54V777H517V444H832l54 54 65-54V423H727l13-55 16-57 17-52 15-38 40 54 71 88 5 5 43-47 4-19-21 5-112-86-19-13-4-3 20-42 24-42 27-38 30-35 32-32 48-39-59-44-36 35L847 7 817 49 792 94l-23 48-18 51-15 54-11 58-7 59-2 59H646V54l67 23 30 9 30 8 5-9-54-34L563-39 528-56l-3-21-17 10-36 55L587 32V423H517V401l-3-63-5-61-8-57-12-53-14-50-16-47-20-42-23-39-25-34-30-29-5 5 21 34L395 1l18 39 14 42 12 45 10 48 7 51 5 55 3 59V826zM70-32 42 28 86 39V396l64-11 16-11-16-10V55l53 14 16 5V509H150V492L86 460V820l64-32H341l30 27 56-48-27-19V476l-59-29v62H284V310h63l34 37 43-37V288H284V93l147 44 4-9-70-40-72-35-73-31L145-6 91-25 84-44 70-32zM341 767H150V530H341V767zm490-86 65-54V605H567v22H778l53 54z"/><glyph glyph-name="undefined" unicode="䟵" horiz-adv-x="1024" vert-adv-y="918" d="M528-24V-8H636l6 1 5 1 5 2 2 2 2 5 1 5v6V267l-40-50-68-75-70-68-7-7 2-21-18 6-49 43L657 294V589H421v22H657V863l65-10 16-11-16-10V611H861l54 53 65-53V589H722V529l5-27 12-60 17-55 13-35L886 534l2 4 50-42 6-18-20 2-69-75-35-35-38-32-6-5 24-52 27-49 31-47 36-45 39-43 53-50L929 4 884 52l-40 49-35 51-30 53-25 56-21 57-11 46V14L721 1l-3-14-4-13-7-12-8-11-11-9-13-7-12-4-14-2-13-1v32L528-24zM43 27l10 4 33 8V396l59-11 15-11-15-9V55l66 19V509H148V492L83 460V820l65-32H321l32 27 59-48-27-22V476l-64-32v65H270V310h56l34 37 43-37V288H270V93l139 44 4-9-65-40-67-34-69-31L142-6 92-24 86-44 71-31 43 27zM532 367l-5 17-5 17-7 17-7 16-9 16-20 32-12 16-13 14 6 8 36-21 17-12 15-14 15-15 13-16 12-17 11-19 10-19 8-20-3-25-19-15-24 3-15 19-4 18zM321 767H148V530H321V767zm5e2-57-5 15-5 15-12 28-7 14-26 41-11 12 6 8 14-9 15-8 15-10 13-11 13-12 25-27 10-15 20-33-1-24-18-17H843l-18 18-4 15z"/><glyph glyph-name="undefined" unicode="䟶" horiz-adv-x="1024" vert-adv-y="918" d="M37 27l11 4 32 8V396l59-11 15-11-15-9V55l67 19V509H142V492L78 460V820l64-32H315l32 27 60-48-27-22V476l-65-32v65H265V310h56l33 37 43-37V288H265V93l138 44 5-9-65-40-68-34-68-31L137-6 87-24 81-44 66-31 37 27zM395-18V3H660V229H446v22H660V837l64-11 16-11-16-10V251h96l53 53 65-53V229H724V3H871l53 54L989 3V-18H395zM580 387l-3 18-5 19-5 17-6 18-14 35-9 17v1l-15-43-17-42-20-38-21-36-23-33-26-29-8 6 16 34 30 72 26 81 10 43 10 47 8 49 6 51 5 53 2 12 63-19 14-12-18-8-5-35-10-53-13-50-7-26 13-10 15-15 13-15 13-17 11-18 20-38 8-21 7-21-5-25-20-14-24 5-14 21-2 19zm337-15-6 23-14 41-7 19-8 19-18 33-8 13-16-48-17-41-20-37-21-35-23-31-26-26-8 6 17 32 30 69 13 37 11 41 11 42 9 46 7 48 6 51 6 65 62-18 16-12-19-9-5-34-9-53-12-50-7-24 22-15 16-14 14-15 27-37 24-43 11-24 10-24-4-25-18-15-25 3-15 18-6 24zM315 767H142V530H315V767z"/><glyph glyph-name="undefined" unicode="䟷" horiz-adv-x="1024" vert-adv-y="918" d="M352-29v16H460l6 1 5 1 3 1h3l1 1v1l1 2 1 3 1 5V9 286l-53-37-1-21-17 9-43 50 114 61V616H384v22h97V853l65-11 16-11-16-10V638h26l34 37 43-37V616H546V383l72 36 28 13 5-8-44-42-48-38-13-10V9L545-5l-2-13-5-13-6-13-9-10-11-9-12-7-13-4-13-2-14-1v32L352-29zM666 750l53-26 119 65 40 23 30 20v1l1-1 4 3 10-17 33-33 1-18-21 8-32-14-22-8-72-25-25-7-27-7-27-5V530H865l54 54 64-54V509H876V-51L811-83V509H731V396l-3-68-6-64-8-58-11-55-14-50-16-46-20-40-22-36-25-30-29-24-7 7 19 29L606-6l15 36 14 39 10 44 9 48 6 52 5 56 2 62-1 65V750zM44 27l10 4 26 7V396l59-11 15-11-15-9V56l50 18V509H142V492L78 460V820l64-32H285l32 27 59-48-27-22V476l-64-32v65H249V310h35l33 37 43-37V288H249V95l84 31 32 11 5-9-27-20-58-37-58-33L166 9 105-18 95-22 90-42 74-31 44 27zM285 767H142V530H285V767z"/><glyph glyph-name="undefined" unicode="䟸" horiz-adv-x="1024" vert-adv-y="918" d="M639 249h1l-4-41H770V396l64-11 16-11-16-10V208h36l53 53 65-53V186H834V-45L770-77V186H633l-6-37-11-45-13-40-16-36L568-4 547-31 523-54 497-70 468-82l-4 9 21 19 18 21 16 23 14 27 12 29 11 34 8 37 6 41 3 28H415v22H575l1 45V396l64-11 17-11-17-10V251l-1-2zM66-32 39 28 85 39V396l65-11 16-11-16-10V55l73 19V509H150V492L85 460V820l65-32H347l32 27 59-48-27-22V476l-64-32v65H288V310h70l34 37 43-37V288H288V93l114 33 40 11 4-9-36-21-74-37L222 22 106-19 88-25 81-45 66-32zM680 767H881l4 4h1l27 22 59-48-27-16-15-6-25-41-40-56-44-51-47-47-50-42-54-38-56-34-61-29-63-23-66-19-3 9 61 29 58 30 55 34 52 36 48 40 44 43 41 47 38 50 35 53 17 31H663l-30-32-15-15 17-4 17-6 31-12 28-14 24-15 10-8 7-24-12-22-23-6-22 11-9 16-15 19-33 30-27 23-3 2-34-29-32-24-11-7 13-3 16-5 15-6 14-7 14-8 14-8 24-18 11-11 6-23-13-22-24-5-21 12-11 20-7 10-16 21-21 21-24 21-4 2-47-27-39-17-4 8 63 53 56 53 26 28 24 29 22 29 20 30 18 32 16 32 3 5 54-35 9-18-20-1-33-47-5-6zm-333 0H150V530H347V767z"/><glyph glyph-name="undefined" unicode="䟹" horiz-adv-x="1024" vert-adv-y="918" d="M665-24V-8H772l7 1 4 1 4 1 2 1 1 1v1l2 1 1 4V8l1 6V353H428v21H794V525l64-11 16-11-16-9V374h14l54 54 64-54V353H858V14 1l-3-14-4-13-7-12-9-11-11-9-11-7-13-4-14-2-14-1v32L665-24zM69-32 41 28 84 39V396l65-11 16-11-16-10V55l52 14 15 5V509H149V492L84 460V820l65-32H334l32 27 59-48-26-22V476l-65-32v65H280V310h62l33 37 43-37V288H280V93l145 44 4-9-68-40-72-35L180 8 90-24 84-44 69-32zM622 128l-13 36-16 33-19 33-9 16-22 31-13 15 6 7 35-21 16-11 16-13 29-29 13-16 25-35 11-19V131l-16-19H640l-18 16zM906 864l5-11 41-39 1-17-20 8-34-13-70-23-36-11-37-10-39-8-38-7-40-7-40-4-13-1-6-21-10-31-12-30-14-30-16-29-17-29-19-29-22-27-25-27-7 6 28 63 25 60 11 29 8 30 8 29 6 29 4 28 3 24h-1l2 16 63-19 15-13-19-8-1-2 117 40 69 25 99 43 31 16zM693 551l-3 16-3 15-4 16-5 17-14 33-18 35-12 17 7 7 33-27 28-30 13-15 10-17 10-17 9-18 7-18 6-19-6-23-20-14-24 6-13 20-1 16zM334 767H149V530H334V767zM888 562l-8 32-13 31-7 16-17 30-21 31-12 15 6 7 34-21 15-11 15-13 14-14 13-15 12-15 11-17 10-17 9-18-2-24-18-17-25 2-16 18z"/><glyph glyph-name="undefined" unicode="䟺" horiz-adv-x="1024" vert-adv-y="918" d="M621 121l42-48 3-19-20 5-56-39-55-32-61-31-32-14-34-13-36-12-4 9L485 7l74 56 42 39 19 18 1 1zM909-38 896-20 881-2 847 33 807 67l-71 53 4 9 31-9 28-11 27-12 25-14 46-30 21-16 20-18L957 1l16-19 5-24-13-21-23-6-21 13-12 18zM70-32 43 28 87 39V396l64-11 16-11-16-10V55l54 14 16 5V509H151V492L87 460V820l64-32H341l32 27 59-48-26-22V476l-65-32v65H285V310h65l34 37 43-37V288H285V93l149 44 3-9-70-40-72-35-74-31L108-19 91-25 85-44 70-32zM485 842l64-32H847l33 27 59-49-27-21V181l-65-33v43H549V127L485 95V842zM847 396H549V213H847V396zm0 209H549V417H847V605zM341 767H151V530H341V767zm506 21H549V627H847V788z"/><glyph glyph-name="undefined" unicode="䟻" horiz-adv-x="1024" vert-adv-y="918" d="M535-29v16H643l6 1 5 1 5 1 2 2 1 2 1 3 1 5V9 294H438v21H664V471H532v21H737l54 54 65-54V471H729V315H846l54 54 65-54V294H729V9L728-5l-3-13-4-13-6-13-9-10-11-9-13-7-12-4-14-2-13-1v32L535-29zm-1 252 55-34 10-16-21-3-39-62-36-50-19-24-41-44-23-20-24-18-7 7 62 99 29 51 26 53 23 50h-1l6 11zM39 27l11 4 32 8V396l64-11 17-11-17-10V55l65 19V509H146V492L82 460V820l64-32H327l32 27 59-48-26-22V476l-65-32v65H275V310h59l34 37 43-37V288H275V93l142 44 4-9-67-40L249 38 141-6 89-24 82-44 68-31 39 27zM909-8l-7 24-18 45-11 22-24 43-29 43-33 42 6 8 24-15 23-16 21-18 19-18 19-21 16-21 16-23 14-24 13-24 12-26-2-24-18-17-24 2L909-8zm-1 493-28 25-27 28-27 31-25 34-26 38-25 41-25 44-22 45-18-39-25-48-27-45-29-42-31-38-33-36-34-32-37-27-38-24-6 8 31 32 30 32 28 35 27 36 25 40 24 41 22 45 40 96 20 61 58-28 12-16-20-4-9-23 69-92 57-68 28-29 28-26 27-23 27-19 46-29-59-46-28 22zM327 767H146V530H327V767z"/><glyph glyph-name="undefined" unicode="䟼" horiz-adv-x="1024" vert-adv-y="918" d="M384 17l11 3 34 7 23 5V428l59-11 14-11-14-9V46l56 15V530l59-11 15-10-15-10V337h41l33 37 43-37V315H626V77l157 44 4-9-80-42-79-35L553 5 445-32l-13-4-8-20-14 14-26 59zM809 831l-16-9 2-141 5-86h63l53 53 65-53V573H801l2-37 12-127 16-110 20-93 22-75 23-56 25-38 8-7 28 118h10L957 14 979 4l10-22-10-23-22-10-48 14L871-4 839 45l-27 65-24 80-21 98-16 113-12 131-2 41H387v22H735l-4 83-2 159v18l64-13 16-11zM39 27l10 4 30 7V396l59-11 15-11-15-9V56l60 18V509H141V492L77 460V820l64-32H302l32 27 59-48-27-22V476l-64-32v65H257V310h48l33 37 43-37V288H257V94l130 43 5-9-62-40-64-34-65-31-99-42-13-4-6-21L68-31 39 27zM302 767H141V530H302V767zm561-66-7 28-4 14-5 14-24 55-9 12 6 7 13-10 13-9 25-22 11-13 20-26 9-14 8-16 7-15-2-25-19-15-24 2-16 19-2 14zM644 804l64-54V729H439v21H590l54 54z"/><glyph glyph-name="undefined" unicode="䟾" horiz-adv-x="1024" vert-adv-y="918" d="M885-28 852 8 821 46 798 82 758 38 714 0 666-32 615-58 560-76l-3 9 49 27L650-9l40 36 38 39 33 44 12 18-23 49-17 49-12 50-9 53-4 55 3 1H677v21H878l32 27 59-48-27-16-8-3-14-49-25-67-28-61-32-56-3-4 36-46 30-32 33-30 50-39-58-44-38 34zM608 83l-7 20-11 20-15 22-7 10-33-57-35-45-37-39-42-33-45-27-48-20-4 10 41 28L403 3l34 36 31 39 28 43 24 49 11 26-21 21-62 52-36 29 5 8 42-19 38-21 34-21 14-10 14 46 15 63 9 52H395v21H586l32 27 59-48-27-16-6-3-10-47-19-66-23-60-2-4 24-23 20-23 17-23 14-25 10-25-4-25-20-15-24 5-14 20-5 17zM69-31 41 27 82 39V396l59-11 15-11-15-9V55l62 19V509H144V492L79 460V820l65-32H309l32 27 59-48-27-22V476l-64-32v65H262V310h51l33 37 43-37V288H262V93l133 44 5-9-63-40-65-34-66-31L103-19 90-24 84-44 69-31zM874 385H718l15-51 18-49 19-46 21-43 10-18 17 34 24 58 19 64 13 51zM603 539l-6 15-10 17-14 18-7 7-26-35-31-34-33-30-38-27-40-24-5 8 32 31 31 33 27 33 24 34 21 35 4 9-52 41-67 47 4 9 41-15 36-16 34-18 21-12 11 30 12 40 8 41 4 28H405v22H586l32 27 59-49-27-16-6-2-4-22-13-45-17-44-19-38 17-13 20-18 17-19 14-21 10-22-3-24-19-16-24 3-16 19-4 13zm275-21-10 18-12 19-17 20-14 15-35-41-32-31-36-29-37-23-40-20-5 8 64 57 28 31 27 34 24 35 7 12-48 39-67 50 4 8 41-16 37-17 35-19 18-11 16 32 18 42 16 45 8 28H677v22H872l32 27 60-49-27-16-9-4-11-28-20-47-23-45-22-36 23-18 21-20 19-21 16-21 13-23-1-24-18-18-24 1-18 17-5 17zM309 767H144V530H309V767z"/><glyph glyph-name="undefined" unicode="䟿" horiz-adv-x="1024" vert-adv-y="918" d="M545-29v16H653l6 1 5 1 5 1 2 2 2 5 1 5V9 428H416v21H743l21 119H576l-8-42-68-21 63 364 61-22 14-13-17-5-14-84H794l32 27 59-48-27-17-9-3-41-255h58l54 54 64-54V428H740l12-43 15-46 18-44 19-42 1-2 96 88 29 27 13 14v-1l1 1 40-50 2-19-20 7-52-32-39-22-41-20-21-8 13-23 25-37 28-36 30-32 33-32 48-40L932-8 895 27 861 65l-30 39-26 42-23 43-19 45-16 48-8 39V9L738-5l-2-13-5-13-7-13-8-10-11-9-12-7-13-4-14-2-13-1v32L545-29zM70-32 42 28 86 39V396l64-11 16-11-16-10V55l53 14 16 5V509H150V492L86 460V820l64-32H338l33 27 59-48-27-22V509l-65-33v33H284V310h63l34 37 43-37V288H284V93l147 44 4-9-70-40-72-35-73-31L145-6 91-25 84-44 70-32zM471 7 425 54l82 49 69 38 45 22 22 9 22 8 5-9-34-32-78-64-69-54V0L471 7zm82 233-6 13-13 26-17 28-30 46-12 14 6 7 16-11 32-21 15-11 26-23 24-24 20-25 2-25-15-19-24-2-20 15-4 12zM338 767H150V530H338V767zm453-43H603L579 589H768l23 135z"/><glyph glyph-name="undefined" unicode="䠀" horiz-adv-x="1024" vert-adv-y="918" d="M779-29v16h86l6 1 5 1 5 1 2 2 2 5 1 5V9 525H514V-46L455-76V557l-30-27-30-25-7 7 83 122 35 58 16 29 14 29 23 57 4 7 56-33 10-16-20-2-23-40-18-29-41-57-47-55-13-12 47-24H666V863l64-10 16-11-16-10V546H886l32 27 60-48-27-22V9L950-5l-3-13-4-13-7-13-8-10-11-9-13-7-12-4-14-2-13-1v32L779-29zM70-31 41 27 84 39V396l59-11 14-11-14-9V55l63 19V509H145V492L81 460V820l64-32H314l32 27 59-48-27-22V509l-64-33v33H265V310h53l34 37 43-37V288H265V93l136 44 4-9-63-40-67-34-67-31L139-6 91-24 85-44 70-31zM582 414l60-29H755l32 27 59-49-26-21V116L755 84v64H642V84L582 54V414zm173-51H642V170H755V363zM314 767H145V530H314V767zM922 618l-10 20-11 21-12 19-28 38-33 36-39 35 5 8 26-10 24-12 23-13 21-16 20-17 19-18 18-20 16-21 14-22 14-23V598l-16-18H949l-19 16-8 22z"/><glyph glyph-name="undefined" unicode="䠁" horiz-adv-x="1024" vert-adv-y="918" d="M36 27l10 4 33 8V396l59-11 15-11-15-9V55l64 19V509H141V492L76 460V820l65-32H310l33 27 59-48-27-22V476l-65-32v65H261V310h55l33 37 43-37V288H261V93l137 44 4-9-64-40-66-34-68-31L135-6 86-24 80-44 65-31 36 27zM925 41l65-54V-34H389v21H872l53 54zM863 263l64-54V188H452v21H809l54 54zM629 339l-4 16-2 7-55-17-73-19-44-9-19-4-10-19-13 15-16 63 10 1h20l37 1 4 29 4 27 16 79 5 26 5 26 5 27 5 26 2 9 60-25 14-14-20-6-28-83-30-76-10-24-10-20h7l24 1 50 2h26 27 1l-10 30-30 73-11 18 8 6 30-30 15-15 25-32 12-17 21-34 17-35-2-24-18-17-25 2-16 18-4 18zm292 0-5 16-2 7-27-10-24-7-91-24-21-4-17-4-11-19-12 15-17 63 11 1h19l20 1h8l4 29 14 79 5 27 5 26 15 79 2 9 61-25 13-14-20-6-37-108-20-51-21-45 14 1 23 1h23l25 1 51 1-3 12-14 35-24 56-10 18 8 6 30-30 28-31 23-33 21-34 18-35-3-24-18-17-24 2-17 18-3 18zM310 767H141V530H310V767zM909 605l-19 16-27 55-3 4-30-6-49-8-46-8-89-13-123-16-37-4-15-2-10-18-12 15-15 64h11l74 3 35 1 54 109 31 70h-1l6 10 54-35 10-17-22-1-37-53-29-36-33-38-8-8h20l43 2 44 1 46 2 47 1h49l24-1-12 18-42 53-33 35 6 9 44-24 20-14 19-14 35-32 17-18 15-18 14-19 12-20 2-24-16-19-24-2z"/><glyph glyph-name="undefined" unicode="䠂" horiz-adv-x="1024" vert-adv-y="918" d="M804-60H688L584-55l-92 9-79 14-67 20-53 24-41 31-21 30-17-23-22-27L167-2 140-25 111-46 80-64 46-79l-4 8L68-47 116 1l21 25 19 26 17 26 28 56 11 30 8 26 4 14 59-28 12-15-20-5-6-14-16-32-9-16 2-3 27-24 37-20 50-16 63-14 41-4V241H265l-65-32V427l65-32H749l32 27 59-48-27-22V230l-64-32v43H528V135H770l54 54 64-54V113H528V7l59-3L688 3 802 8l127 8 59 4-55-75-129-5zM749 374H265V262H749V374zM437 560l-8 13-8 12-11 13-11 13-13 12-29 24-12 9V452l-64-33V637l-16-23-24-30-27-28-28-25-31-24-32-21-35-18-36-15-5 8 31 24 54 49 25 26 23 28 21 28 20 29 17 31 15 32 4 10H71v22H281V871l64-11 16-11-16-9V740h43l54 53 65-53V718H345V674l22-6 20-7 19-8 18-9 16-10 17-11 15-13 13-13 13-15 4-24-14-20-24-5-20 14-7 13zm458-82-26 21-25 23-44 51-19 26-18 29-16 30-4 10V452l-64-33V637l-16-23-25-30-26-28-28-25-31-24-32-21-35-18-36-15-5 8 30 24 55 49 25 26 23 28 21 28 19 29 18 31 15 32 4 10H517v22H679V871l64-11 16-11-16-9V740h92l53 53 65-53V718H743v-4l52-64 21-23 21-21 23-20 23-19 25-18 25-16 50-28-59-48-29 21z"/><glyph glyph-name="undefined" unicode="䠃" horiz-adv-x="1024" vert-adv-y="918" d="M809-13V3h54l7 1 5 1 5 1 2 3 1 4 2 5V120L865 99l-12 22-13 31-11 33-10 33-8 34-3 20-9-32-15-37-17-34-19-30-22-23-5-5V-34L656-67V116L636 94l-11 22-14 31-11 33-10 33-8 34-3 20-9-32-15-38-17-34-19-29-22-24-2-1V-45L431-77V648l64-32H656V756H399v21H870l54 54 64-54V756H721V616H885l32 27 59-48-27-22V25 11L946-2l-4-13-7-12-9-11-10-9-13-7-13-4-13-2-14-1v32L809-13zM38 27l10 4 30 7V396l59-11 15-11-15-9V56l58 18V509H139V492L75 460V820l64-32H297l32 27 59-48-27-22V476l-64-32v65H254V310h46l33 37 43-37V288H254V94l128 43 4-9-60-40-63-34L166 8 101-19 88-23 82-43 67-31 38 27zM885 595H721V149l14 35 11 33 9 36 8 40 5 45 5 47 3 53 1 44H724v21h54l32 27 59-48-27-16-2-1-3-32-4-34 6-35 7-34 9-33 10-31 10-30 10-21V595zM495 476V152l11 26 11 33 9 37 8 40 6 44 4 48 3 52 1 44H495zM297 767H139V530H297V767zM495 498h54l32 27 59-49-27-16-2-1-3-31-4-33 6-36 8-34 8-33 10-31 11-30 9-22V595H495V498z"/><glyph glyph-name="undefined" unicode="䠄" horiz-adv-x="1024" vert-adv-y="918" d="M577 119l44-47 3-20-20 6-49-36L507-9 481-24 427-50 399-61 368-71l-4 9 95 73 63 52 37 36 13 15 5 5zM885-55 874-38 849-6 817 24 8e2 39 740 83 717 97l4 9 27-7 25-8 25-9 23-10 22-12 21-13 20-14L920 2l16-18 6-24-12-21-23-6-22 12zM43 27l10 4 29 7V396l60-11 14-11-14-9V56l57 18V509H144V492L80 460V820l64-32H303l29 27 57-48-27-19V476l-59-29v62H258V310h44l34 37 43-37V288H258V94l127 43 4-9-60-40-62-34-64-31-97-42-13-4-6-20L72-31 43 27zM346 152v21h81V699l59-29h82V842l64-11 17-11-17-9V670h75V842l65-11 16-11-16-9V670h75l32 27 59-49-27-21V173h21l25 32 32-32V152H346zM568 412H486V173h82V412zm139 0H632V173h75V412zm140 0H772V173h75V412zM568 648H486V433h82V648zm139 0H632V433h75V648zm140 0H772V433h75V648zM303 767H144V530H303V767z"/><glyph glyph-name="undefined" unicode="䠅" horiz-adv-x="1024" vert-adv-y="918" d="M423 828l59-29H899l32 27 59-49-27-21V-18L899-51V3H482V-34L423-64V828zM39 27l10 4 30 7V396l59-11 15-11-15-9V56l60 18V509H141V492L77 460V820l64-32H304l30 27 57-48-27-19V476l-60-29v62H257V310h48l33 37 43-37V288H257V94l130 43 5-9-62-40-64-34-65-31-99-42-13-4-6-21L68-31 39 27zM839 161l-22 27-21 30-18 30-17 34-16 35-13 36-4 14V95L663 63V334l-14-27-22-36-23-33-25-32-28-28-29-25-31-22-6 7 45 59 20 30 20 33 18 34 16 36 16 37 13 39 13 41 6 24H495v21H663V632l-38-9-34-7-35-5-36-4-3 10 128 52 56 27 52 29 43 27 1 1 4 2 13-21 28-29V687l-19 7-43-20-29-13-23-9V492h49l54 54 64-54V471H728V448l39-79 19-32 18-31 20-28 21-25 21-24 21-21 12-10V777H482V25H899V163l-37-28-23 26zM304 767H141V530H304V767z"/><glyph glyph-name="undefined" unicode="䠆" horiz-adv-x="1024" vert-adv-y="918" d="M894-35 858-6 825 27 794 63 772 94 728 68 656 29 510-39 460-60l-6-20-15 12-32 57L508 21V363H417v22h91V820l65-32H814l53 54 65-54V767H573V654H780l54 53 65-53V632H573V519H786l53 54 65-54V498H573V385H885l44 48 53-48V363H674l49-1e2 27-47 12-19 106 86 24 22 7 7h-1l5 4 39-51 2-19-21 8-10-6-33-17-59-27-23-9-24-8-5-2 8-12 29-39 30-35 31-30 32-27 32-22 62-32-61-48-38 25zM72-32 44 28 90 39V396l64-11 17-11-17-10V55l73 19V509H154V492L90 460V820l64-32H350l32 27 60-48-27-22V487l-65-32v54H292V310h69l33 37 43-37V288H292V93l113 33 39 11 5-9-36-21-74-37-37-17-75-31L110-19 93-25 86-45 72-32zM661 363H573V43l183 65 6 2-23 39-24 49-21 53-19 56-14 56zM350 767H154V530H350V767z"/><glyph glyph-name="undefined" unicode="䠇" horiz-adv-x="1024" vert-adv-y="918" d="M730 592l64-11 16-11-16-9V340h83V540l65-11 16-11-16-9V318l-65-32v32H794V37H899V248l65-10 16-11-16-10V-17L899-49V16H625V-49L561-81V248l64-10 17-11-17-10V37H730V318H647l-64-32V540l64-11 17-11-17-9V340h83V592zM453 847l65-32H880l33 27 59-49-27-21V627l-65-32v43H518V385l-4-62-7-60-12-55-16-53-20-49-24-45-28-41-32-36-36-32-40-28-6 8 32 34L353 2l25 38 21 41 18 43 14 46 11 49 8 52 3 55V847zM38 27l11 4 33 8V396l59-11 15-11-15-9V55l68 19V509H144V492L79 460V820l65-32H320l32 27 59-48-27-22V476l-64-32v65H268V310h58l34 37 43-37V288H268V93l141 44 4-9-66-40-68-34-70-31L138-6 88-24 81-44 66-31 38 27zM320 767H144V530H320V767zm560 26H518V659H880V793z"/><glyph glyph-name="undefined" unicode="䠈" horiz-adv-x="1024" vert-adv-y="918" d="M509-24V-8H617l6 1 5 1 5 2 2 2 1 1 1 4 1 5v6V173l-37-39-44-38-65-51-47-33-1-21-17 8-42 52 125 65 99 55 27 14 2-3V401H463v22H638V557H432v21H638V713H463v21H638V863l65-10 16-11-16-10V734H820l32 27 59-48-27-22V578h21l34 38 43-38V557H884V390l-64-32v43H703V292l44-74 25-33 2-3 71 93 43 62-1 1 6 7 49-43 5-19-21 3-30-29-32-27-34-26-17-11-32-19 17-19 27-27 30-24 32-22 33-19 66-31-61-50L886 5 850 30 817 59 786 90l-27 33-24 37-21 38-11 27V14L702 1l-2-14-5-13-6-12-9-11-11-9-12-7-13-4-14-2-13-1v32L509-24zM44 27l10 4 33 8V396l59-11 15-11-15-9V55l68 19V509H149V492L85 460V820l64-32H325l32 27 59-48-27-22V476l-64-32v65H273V310h59l33 37 43-37V288H273V93l142 44 3-9-65-40-68-34-70-31L144-6 93-24 87-44 72-31 44 27zM527 233l-5 13-6 12-8 12-9 13-11 13-25 25-16 14-18 11 5 9 40-14 19-8 34-20 15-11 14-12 13-14 11-14 10-16V221l-17-17H549l-18 17-4 12zM820 557H703V423H820V557zM325 767H149V530H325V767zm495-54H703V578H820V713z"/><glyph glyph-name="undefined" unicode="䠉" horiz-adv-x="1024" vert-adv-y="918" d="M528 585l64-32H835l32 27 59-49-27-21V316l-64-32v54H592V225H867l32 27 59-49-27-21V-23L867-55V-2H592V-39L528-72V585zM45 27l11 4 31 8V396l65-11 16-11-16-10V55l64 19V509H152V492L87 460V820l65-32H332l33 27 59-48-27-22V476l-65-32v65H281V310h59l33 37 43-37V288H281V93l142 44 4-9-68-40L254 38 146-6 94-24 88-44 73-31 45 27zM867 203H592V20H867V203zM835 531H592V359H835V531zM332 767H152V530H332V767zm193-83V670l-2-20-5-19-6-18-9-17-11-16-13-16-24-6-22 11-6 24 11 22 11 7 10 8 9 9 8 11 8 12 6 15 5 15 5 19 3 19 1 22 10 1 4-22 5-21v-4H679V860l64-11 16-10-16-10V706H910l32 27 59-49-27-16-22-9-43-49-11-11-10-13-8 5 7 14 13 43 6 23 3 13H525z"/><glyph glyph-name="undefined" unicode="䠊" horiz-adv-x="1024" vert-adv-y="918" d="M381 214l203 76 1 14V444H438v22H585V670H447v21H585V863l64-10 16-11-16-10V314l35 12 30 9 4-8-24-18-47-31-2-34-9-56-13-51-18-47-23-42-28-36-32-31-37-26-41-18-44-13-4 9 39 22 33 24L497 6l25 31 20 35 17 38 12 42 9 46 3 44-99-51-49-23-4-20-16 11-34 55zM749 863l64-10 16-11-16-10V691h69l44 49 54-49V670H813V466h70l34 37 43-37V444H813V240h79l44 48 54-48V218H813V-34L749-67V863zM43 27l10 4 33 8V396l59-11 15-11-15-9V55l66 19V509H148V492L83 460V820l65-32H321l32 27 59-48-27-22V476l-64-32v65H270V310h56l34 37 43-37V288H270V93l139 44 4-9-65-40-67-34-69-31L142-6 92-24 86-44 71-31 43 27zM321 767H148V530H321V767z"/><glyph glyph-name="undefined" unicode="䠋" horiz-adv-x="1024" vert-adv-y="918" d="M647 875l53-38 8-18H685l-39-40-40-35-14-11-5-4H855l32 27 59-49-26-21V353l-65-33v65H692l-10-25-21-42-25-38-29-35-34-32-38-28-17-10H699V358l64-11 16-10-16-10V175H864l54 54 64-54V154H763V-40L699-72V154H395v21H495l27 26 30 32 27 34 23 36 19 36 15 39 2 7H528V320l-64-32V761l64-32h44l9 13 8 17 44 86 6 13 3 8 5 9zM39 27l10 4 34 8V396l59-11 15-11-15-9V55l68 19V509H145V492L80 460V820l65-32H322l32 27 60-48-27-22V476l-65-32v65H270V310h59l34 37 43-37V288H270V93l142 44 4-9-66-40-69-34-71-31L139-6 88-24 82-44 67-31 39 27zM659 546H528V406H644l3 12 8 43 4 44v41zm196 0H723l-3-46-8-49-12-45H855V546zM322 767H145V530H322V767zm337-60H528V568H659V707zm196 0H724V568H855V707z"/><glyph glyph-name="undefined" unicode="䠌" horiz-adv-x="1024" vert-adv-y="918" d="M742-23V-7h81l6 1 2 1 4 2v1l1 1 1 4 1 5v7 93H551V-42L486-75V410l65-32H838l33 27 59-49-27-21V15L902 1l-2-14-5-13-6-12-9-11-11-9-12-6-13-5-13-2-14-1v33L742-23zM39 27l11 4 32 8V396l64-11 17-11-17-10V55l65 19V509H146V492L82 460V820l64-32H327l32 27 59-48-26-22V476l-65-32v65H275V310h59l34 37 43-37V288H275V93l142 44 4-9-67-40L249 38 141-6 89-24 82-44 68-31 39 27zM838 232H551V129H838V232zm0 124H551V254H838V356zM555 449v16h86l6 1 5 1 5 1 2 2 2 5 1 5 1 7V726l-22-13-8-3-4-15-14-36-16-35-19-34-21-31-23-29-25-27-28-25-30-22-32-19-6 8 48 53 40 56 18 30 15 30 13 32 11 32 10 34 4 18H440v21H577l32 27 54-44V873l64-11 16-11-16-10V787l19-56 18-45 13-25 83 95 9 12 7 10 5 8-2 2 6 6 47-44 6-18-27 4-93-65-24-16-11-7 25-40 25-32 28-28 30-24 32-20 66-30-61-50-40 23-36 28-33 31-29 36-24 40-21 43-17 47-1 4V487l-1-14-2-13-4-13-7-13-9-10-11-10-12-6-13-4-14-2-13-1v32l-86 16zM327 767H146V530H327V767z"/><glyph glyph-name="undefined" unicode="䠍" horiz-adv-x="1024" vert-adv-y="918" d="M422 828l59-29H615l32 27 59-49-27-21V519l-64-32v65H481V390h85l44 49 54-49V369H481V218h85l44 49 54-49V197H481V-46L422-76V828zM892-22 856 9 825 44 803 74 776 47 728 10 675-20 617-43 553-60l-3 9 59 27L661 5l46 34 41 37 32 37-6 10-18 45-14 48-11 52-5 54v52H686v22H878l32 27 59-49-27-16-5-2-8-44-19-64-24-58-31-53-15-20 29-34 30-27 32-23L992-1 932-49 892-22zM38 27l10 4 30 7V396l59-11 15-11-15-9V56l58 18V509H139V492L75 460V820l64-32H3e2l29 27 57-48-27-19V476l-59-29v62H254V310h46l33 37 43-37V288H254V94l128 43 4-9-60-40-63-34L166 8 101-19 88-23 82-43 67-31 38 27zM876 374H737l12-49 14-50 16-47 18-43 14-24 25 51 20 54 13 59 7 49zm34 452 59-49-27-21V519l-64-32v65H720v21H878V777H731v22H878l32 27zM3e2 767H139V530H3e2V767zm315 10H481V573H615V777z"/><glyph glyph-name="undefined" unicode="䠎" horiz-adv-x="1024" vert-adv-y="918" d="M523 466l-2-73-5-69-8-64-11-61-14-56-17-51-20-47L422 3 395-33 365-64l-7 6 21 36 18 39 16 42 14 45 12 50 8 54 7 58 4 62 1 67-1 71V847l65-32H838l33 27 59-49-27-21V605l-65-32v54H523V466zM39 27l10 4 34 8V396l59-11 15-11-15-9V55l68 19V509H145V492L80 460V820l65-32H322l32 27 60-48-27-22V476l-65-32v65H270V310h59l34 37 43-37V288H270V93l142 44 4-9-66-40-69-34-71-31L139-6 88-24 82-44 67-31 39 27zM435-34v21H693V132H513v22H693V267l64-11 16-11-16-10V154h57l53 54 65-54V132H757V-13H864l54 54 64-54V-34H435zM899 247l-5 17-7 17-8 17-10 16-36-9-40-9-142-27-85-14-10-18-13 15-16 62 10 2h24l45 2 8 33 26 101 9 30H535v21H836l54 54 64-54V482H717L648 361l-11-19-13-19-3-5 57 2 72 4 81 2 30-1-7 10-51 60-21 21 6 8 51-30 24-16 20-16 18-17 17-19 15-18 12-19 11-21 9-20-4-25-19-15-25 4-15 19-3 16zM322 767H145V530H322V767zm516 26H523V648H838V793z"/><glyph glyph-name="undefined" unicode="䠏" horiz-adv-x="1024" vert-adv-y="918" d="M880-36 853-15 828 9 804 36 782 66 760 98l-20 35-18 37-16 41-13 40H676l-23-67-29-57-35-51-40-46-47-40-52-34-58-27-4 9 51 36 45 38 39 42 33 45 28 50 22 53 14 49H401v21H625l10 50 5 67 1 60H530v22H698l54 54 64-54V449H704l-3-65-10-72-10-40H828l53 54 65-54V251H706l44-65 47-62 24-27 23-23 24-21 25-18 24-15L968-6 908-55 880-36zM39 27l10 4 30 7V396l59-11 15-11-15-9V56l60 18V509H141V492L77 460V820l64-32H302l32 27 59-48-27-22V487l-64-32v54H257V310h48l33 37 43-37V288H257V94l130 43 5-9-62-40-64-34-65-31-99-42-13-4-6-21L68-31 39 27zM9e2 426l-36 37-33 39-30 42-26 45-23 49-21 51-16 53-10 46-20-12-10-4-14-35-23-55-25-51-29-48-30-45-32-42-35-40-37-35-40-32-42-28-5 8 34 35 32 37 31 39 29 40 27 42 4 7H501l-18 16-4 16-11 29-6 14-6 13-14 25-16 25-10 11 6 7 13-7 14-7 13-9 13-10 25-23 11-13 21-29 10-15v-2l22 45 21 50 19 52 11 35H439v22H620l32 27 50-41-8 59 9 2 42-108 22-49 15-28 47 121 4 14 4 12 3 6 55-35 9-17-22-1-47-63-42-50-2-4 27-44 21-29 55 106 16 35h-1l6 10 52-39 8-17H952l-69-77-32-33 25-31 33-33 35-30 54-38-59-45-39 32zM302 767H141V530H302V767z"/><glyph glyph-name="undefined" unicode="䠐" horiz-adv-x="1024" vert-adv-y="918" d="M899-57 865-41 832-22 803 1 775 26 751 55 729 86l-20 34-16 37-4 11-5-18-23-52-28-46-35-40-41-32-46-25-51-17-56-10-2 10 51 19 45 24L536 9l32 32 27 36 21 42 16 47 6 28H396v21H642l1 4 6 59 1 64v13l64-12 16-11-17-10-3-49-9-58H873l44 48 54-48V194H696l-1-3 41-54 23-27 25-25 25-22 27-18 27-15 29-13L921 6l77-18-63-57-36 12zM43 27l10 4 33 8V396l59-11 15-11-15-9V55l66 19V509H148V492L83 460V820l65-32H321l32 27 59-48-27-22V476l-64-32v65H270V310h56l34 37 43-37V288H270V93l139 44 4-9-65-40-67-34-69-31L142-6 92-24 86-44 71-31 43 27zM8e2 266l-1 6-2 7-3 8-4 8-4 8-20 27-9 6 4 9 11-6 12-3 12-4 21-9 9-6 18-14 8-8 7-10 1-24-17-18-24-1-18 17-1 7zM460 841l65-32H832l32 26 59-48-27-21V360l-64-32v32H525V296l-65-33V841zM832 509H525V382H832V509zm0 139H525V530H832V648zM321 767H148V530H321V767zm511 20H525V669H832V787z"/><glyph glyph-name="undefined" unicode="䠑" horiz-adv-x="1024" vert-adv-y="918" d="M36 27l10 4 33 8V396l59-11 15-11-15-9V55l64 19V509H141V492L76 460V820l65-32H310l33 27 59-48-27-22V476l-65-32v65H261V310h55l33 37 43-37V288H261V93l137 44 4-9-64-40-66-34-68-31L135-6 86-24 80-44 65-31 36 27zM408-40v22H649V121H497v22H649V277l65-10 16-11-16-10V143h33l54 54 64-54V121H714V-18H836l54 53 64-53V-40H408zm14 323v21H649V433H531v22H649V595l65-11 16-11-16-10V455h20l44 48 53-48V433H714V304H822l54 54 64-54V283H422zm509 70-27 26-50 56-46 63-21 33-37 72-17 38-12 36H660l-32-65-30-51-34-49-37-46-42-44-45-41-49-39-7 8 41 46 39 45 35 47 31 47 29 49 25 50 17 43H401v22H609l14 40 14 54 11 51 2 15 61-22 14-14-19-7-10-39-18-57-9-21H843l53 54 65-54V677H735l66-90 48-59 49-52 52-47 40-32-59-44zM310 767H141V530H310V767z"/><glyph glyph-name="undefined" unicode="䠒" horiz-adv-x="1024" vert-adv-y="918" d="M760 310H895V530H764V380l-4-70zM34 27l10 4 27 7V396l59-11 15-11-15-9V56l52 18V509H133V492L68 460V820l65-32H278l32 27 60-48-27-22V476l-65-32v65H241V310h38l33 37 43-37V288H241V95l86 31 33 11 5-9-28-20-58-37-30-17L158 9 127-5 85-22 80-42 64-31 34 27zM490 864l64-10 17-11-17-10V651h13l54 54 64-54V630H554V408h37l30 26 56-48-27-19V77L591 47V88H456V23L391-9V440l65-32h34V630H359v21H490V864zM456 386V109H591V386H456zM278 767H133V530H278V767zm617 5H764V552H895V772zM959 1l-2-14-5-13-6-12-9-11-11-9-12-7-13-4-14-2-13-1v32L766-24V-8H874l6 1 5 1 5 2 2 2 2 5 1 5v6V288H758l-5-46-10-61-15-55-18-49-22-44L662-4 632-35 599-59 563-76l-4 8 29 24 26 27 22 32 19 36 16 40 13 47 10 52 7 58 3 63v69V823l60-30H895l33 27 59-48-27-22V14L959 1z"/><glyph glyph-name="undefined" unicode="䠓" horiz-adv-x="1024" vert-adv-y="918" d="M792 691l65-53V616H776V471h91l33 27 59-49-27-21V-24L867-56V-2H535V-40L471-72V503l64-32h77V616H541v22H738l54 53zM36 27l10 4 33 8V396l59-11 15-11-15-9V55l64 19V509H141V492L76 460V820l65-32H310l33 27 59-48-27-22V476l-65-32v65H261V310h55l33 37 43-37V288H261V93l137 44 4-9-64-40-66-34-68-31L135-6 86-24 80-44 65-31 36 27zm831 89H535V19H867v97zM813 291l30 113h10L843 291l17-12 7-10V449H776V309l2-6 1-4 1-2 1-1 1-1 3-1 3-2 6-1h7 12zM612 449H535V182l28 50 13 27 11 26 8 28 8 28 5 29 3 29 2 31-1 19zM717 616H671V471h46V616zM535 806l59-27 13-15-20-5-20-47-15-31-36-62-41-58-23-27-24-26-27-24-7 6 52 91 31 60 25 62 12 31 10 32 7 27 4 13zM916 546l-16 23-14 23-13 26-11 27-10 28-7 30-7 32-3 34-1 30H608v21H812l27 22 59-48-27-16-13-7 23-55 26-50 14-22 14-19 15-18 16-16 15-13 10-9-58-43-17 20zM310 767H141V530H310V767zM801 232l-14 1-13 2-13 4-11 7-11 8-8 10-7 12-4 13-2 13-1 13V449H670l-2-23-4-34-8-32-10-32-11-29-14-29-17-27-19-25-21-24-25-21-4 4V138H867V254l-7-10-17-12H801z"/><glyph glyph-name="undefined" unicode="䠔" horiz-adv-x="1024" vert-adv-y="918" d="M885 26 854 70l-28 49-25 55-23 60-20 65-18 71-15 76-11 82-8 81-20-28-40-48-43-41 31-31 36-44 14-23 15-24 23-48 18-51 13-51 7-54 1-55-3-56L747-2l-3-2-4-10-5-12-7-12-8-10-10-10-11-7-13-5-13-4-13-2-14-1v32L539-29v16H646l7 1 6 1 5 1 3 1 6 5 1 1 17 69 8 50 2 48-2 37-16-18-31-33-34-31-34-30-38-29-39-26L467 9 424-13 379-33l-5 8 77 58 36 29 34 30 32 31 31 31 28 33 27 33 46 66-5 20-16 48-5 10-36-39-23-22-50-42-56-39-30-18-32-16-6 8 74 72 64 70 36 46 28 42-12 22-23 36-51-41-65-42-36-20-5 8 82 80 47 51 39 48 17 24 12 19H510v21H734l54 54 64-54V611H717l39-158 22-73 8-25 81 131 11 19 50-41 7-18-21 2-24-26-46-46-35-31-15-13 31-80 26-55 27-49 29-42 29-36 40-39-58-43-33 38zM37 27l11 4 32 8V396l59-11 15-11-15-9V55l67 19V509H142V492L78 460V820l64-32H315l32 27 60-48-27-22V476l-65-32v65H265V310h56l33 37 43-37V288H265V93l138 44 5-9-65-40-68-34-68-31L137-6 87-24 81-44 66-31 37 27zM315 767H142V530H315V767zm214 25 56-33 10-17-21-2-31-47-34-44-39-44-22-21-49-41-7 7 80 125 25 46 20 44 9 21 3 6zM930 551l-34 37-31 42-28 47-13 27-12 28-8 22-7-3v26l-3 11H567v22H771l26 22 60-49-27-16-4-2 48-63 17-20 34-35 17-15 16-14 17-12 13-11-58-44zM795 795v-2l2 1-2 1z"/><glyph glyph-name="undefined" unicode="䠕" horiz-adv-x="1024" vert-adv-y="918" d="M901-6 870 17 840 42 812 69 786 97l-26 29-23 32-21 33-20 35-1 2V-45L631-77V189l-35-48-29-33-30-31-33-29-34-25L432-1 394-21 353-38l-4 8 67 53 31 27 30 28 27 31 25 31 24 34 21 35 20 36 7 14H368v22H631V409l64-11 16-11-16-10V281H839l54 53 65-53V259H696l71-76 54-50 28-23 58-41 30-18 56-31-60-47L901-6zM35 27l10 4 27 7V396l59-11 15-11-15-9V56l53 18V509H134V492L70 460V820l64-32H281l32 27 59-48-27-22V476l-64-32v65H243V310h38l34 37 43-37V288H243V94l87 32 33 11 4-9-28-20-58-37-30-17L159 9 96-18 86-22 80-43 65-31 35 27zM353 407l57 16 4 1V761l59-11 15-11-15-9V444l41 14V866l59-11 15-11-15-9V682h26l33 38 43-38V661H573V478l119 41 3-9-77-46-103-54-85-41-26-11-5-21-15 12-31 58zm434 2-14 1-14 2-13 4-11 7-12 9-8 10-7 13-4 13-3 13v14V866l64-11 16-11-16-10V644l49 40 32 29 28 30 13 15 8 11 5 6 46-45 5-19-22 4-16-13-38-27-40-23-22-11-23-9-23-9h-2V488l1-5 1-3 1-2 1-1 1-1 2-1 3-1h5l7-1H919l32 134h11L951 473l19-13 13-19-13-20-19-12H787zM281 767H134V530H281V767z"/><glyph glyph-name="undefined" unicode="䠗" horiz-adv-x="1024" vert-adv-y="918" d="M730 299l-18-11-4-37-12-55-6-15H854l54 53 64-53V159H703l56-56 25-23 25-21 26-19 26-16 27-14L917-2l70-23-62-53-35 15-31 17-30 20L801-3 776 22 752 48 729 77l-21 32-20 33-7 16-5-13-27-46-34-42-40-37-47-31-53-27-59-22-65-16-4 9 61 26 54 28 47 31 39 33 33 36 26 38 16 34H4e2v22H631l9 30 7 48 2 51v9H530V282l-65-33V786l65-32H638l1 4 7 38 2 12 5 35 1 11v5h-1l1 5 3 9 59-27 13-15-24-6-13-21-15-21-17-21-8-8H838l32 27 59-49-27-21V309l-64-33v43H665l49-9 16-11zM39 27l10 4 34 8V396l59-11 15-11-15-9V55l68 19V509H145V492L80 460V820l65-32H322l32 27 60-48-27-22V476l-65-32v65H270V310h59l34 37 43-37V288H270V93l142 44 4-9-66-40-69-34-71-31L139-6 88-24 82-44 67-31 39 27zM786 215l-2 8-3 8-4 8-10 17-14 17-8 8-10 6 4 9 12-4 12-3 12-3 12-4 11-6 10-6 10-7 10-8 9-8 8-10 2-25-16-18-24-2-19 16-2 7zm52 248H530V341H838V463zm0 135H530V484H838V598zM322 767H145V530H322V767zm516-35H530V619H838V732z"/><glyph glyph-name="undefined" unicode="䠘" horiz-adv-x="1024" vert-adv-y="918" d="M406 2l11 2 42 6 1 347 64-11 16-11-16-9V214h82l33 38 43-38V192H524V21L627 38l34 5 36 4 3-9-34-15L604-2 521-31 452-53l-8-20-14 14L406 2zM797-54l-14 1-13 2-13 5-12 6-11 9-9 11-7 12-4 13-2 13-1 14V357l64-11 17-11-17-9V189l98 59 32 21 15 10 7-15 37-35V211l-20 9-29-12-39-13-40-13-44-12-17-3V32l1-6V20l2-2 1-2 1-1 1-1 1-1 4-1 4-1h7H917l32 134h11L949 11 968-2l13-20-13-19-19-13H797zM37 27l11 4 32 8V396l59-11 15-11-15-9V55l67 19V509H142V492L78 460V820l64-32H315l32 27 60-48-27-22V476l-65-32v65H265V310h56l33 37 43-37V288H265V93l138 44 5-9-65-40-68-34-68-31L137-6 87-24 81-44 66-31 37 27zM667 861l-1 1 6 8 50-42 7-18-25 2-43-38-25-20-12-9H872l32 27 60-48-27-22V368l-65-32v54H511l-64-32V777l64-32h96l5 7 15 30 33 63 7 16zM796 444l-16 22-38 41-19 18-20-17-33-25-37-21-39-18-41-15-42-10v-8H872V724H511V430l70 39 34 22 30 25 28 26 13 14-40 31-86 60 4 8 35-10 33-13 33-15 30-15 19-11 27 41 18 34 15 36 3 7 56-32 11-16-20-3-11-20-24-38-25-33-6-6 19-13 47-41 22-22 7-23-11-22-24-7-22 11zM315 767H142V530H315V767z"/><glyph glyph-name="undefined" unicode="䠙" horiz-adv-x="1024" vert-adv-y="918" d="M845-15l-9-9-10-9-11-7-11-7-11-5-13-4-13-3-13-1-12-1v32L634-13V3H742l7 1 7 1 7 1 6 2 6 3 5 3 6 4 5 4 5 5 13 20 8 14 6 16 6 18 4 20 4 20 2 24 1 24v4l-2-1v43H671l-16-48-23-47-28-44-33-39-38-37-44-32-49-29-53-24-5 9 48 32L472 4l37 36 31 37 26 39 22 40 16 43 11 46 7 47 2 51v4H420v22H659V503l64-11 16-10-16-10V369H850l54 54 64-54V347H661l27-6 16-10-18-11-3-35-7-34H838l32 26 59-48-25-15v-2-30l-1-28-2-26-4-26-6-24-7-23-9-21-10-20L853-4l-8-11zM37 27l11 4 32 8V396l59-11 15-11-15-9V55l67 19V509H142V492L78 460V820l64-32H315l32 27 60-48-27-22V476l-65-32v65H265V310h56l33 37 43-37V288H265V93l138 44 5-9-65-40-68-34-68-31L137-6 87-24 81-44 66-31 37 27zM440 410l-24 5-13 21 5 24 8 9 7 9 6 11 6 12 4 13 4 14 2 17 2 16v19l-2 19 9 3 7-19 8-19 1-2H732l5 10 35 84 11 31 10 31H420v22H659V869l64-11 16-11-16-9V740H839l54 53 64-53V718H803l48-29 10-16-22-3-16-23-34-42-26-28-14-14-1-1H896l3 3 2 4 1-1 26 21 59-48-27-16-21-9-28-29-24-22-27-20-14-10-13-10-7 7 10 13 52 96H476l2-13 2-18V492l-2-17-4-18-6-17-7-17-21-13zM315 767H142V530H315V767zM579 599l-2 13-3 12-3 13-8 25-12 25-6 13-9 11 6 7 12-9 13-8 12-10 11-10 11-11 10-12 18-26 7-14 7-15-4-25-19-15-24 4-15 19-2 13z"/><glyph glyph-name="undefined" unicode="䠚" horiz-adv-x="1024" vert-adv-y="918" d="M472 473l61-30 155 38 95 28 29 9 27 9 3-8 51-43 2-16-23 10-14-4-24-6 18-128 11-64 12-59 14-53 15-46 17-41 18-34L958 7l24-27-57-43-23 32L882 6 866 47 852 94l-12 51-9 56-7 62-3 66-1 72 1 56-56-10-33-6-35-4-36-5-37-3-38-3-40-1h-9V222l-3-42-5-40-8-37-10-35-13-33L483 5 465-22 445-45 422-65 396-81l-5 7 16 23 15 24L435-3l11 26 9 28 8 30 5 32 3 34 2 36-1 39V473zM804-18 802-2l-4 18-5 19-1 5-49-23L711 4l-3-1V-2H697L571-48l-25-9-8-20-14 13L498-4l11 2 73 14 62 13V431l64-11 16-11-16-10V39l60 13 19 3-16 47-21 52-12 27 8 6 37-47 17-22 27-43 11-21 19-39 7-19 6-19-6-23-21-14-24 6-13 21-2 15zM38 27l10 4 30 7V396l59-11 15-11-15-9V56l58 18V509H139V492L75 460V820l64-32H297l32 27 59-48-27-22V476l-64-32v65H254V310h46l33 37 43-37V288H254V94l128 43 4-9-60-40-63-34L166 8 101-19 88-23 82-43 67-31 38 27zM571 724l62-20 14-14-20-8-3-10-13-30-16-27-19-25-23-22-26-19-30-16-32-14-35-10-38-7-3 9 33 17 30 17 27 18 23 19 19 20 16 19 13 22 9 22 6 24 6 35zM297 767H139V530H297V767zM797 599H906l24 104-8-11-20-22-23-24-11-13-8 5 7 15 24 72 5 19H775V614l1-5 2-3v-2l1-1 1-1 2-1 3-1 5-1h7zm-394 7-22 12-7 23 11 22 6 2 6 5 6 8 7 10 6 14 6 15 5 18 10 45 2 25h10l2-26 2-14H644V888l64-11 16-10-16-10V765H899l32 27 59-48-26-17-16-6-10-122 19-13 13-19-13-20-19-13H797l-14 1-13 3-13 4-13 6-11 9-8 11-7 13-4 13-3 13v13V744H456l1-11V712l-1-20-2-18-4-17-5-16-8-14-10-14-24-7z"/><glyph glyph-name="undefined" unicode="䠛" horiz-adv-x="1024" vert-adv-y="918" d="M672 781H874l5 7 1-1 26 21 59-48-27-16-17-8-25-36-41-48-45-46-47-41-52-37-55-33-59-29-41-16 28-15 11-16-20-3-16-29-12-20H803l54 54 64-54V346H714V215H858l54 53 64-53V193H714V-3H850V159l65-11 16-11-16-10V-35L850-68v43H512V-41L447-73V159l65-11 16-11-16-10V-3H649V193H386v22H649V346H532l-21-26-18-20-19-19-21-19-23-17-24-15-6 8 47 65 27 43 13 22 10 22 19 45-45-13-69-14-2 9 64 24 61 27 57 30 53 32 49 35 46 38 43 42 38 44 36 48 14 23H652l-35-33-11-9 32-7 16-5 16-4 27-11 12-6 11-7 11-7 8-23-10-22-23-9-23 10-8 14-7 8-18 18-53 39-3 2-37-28-33-21-6-4 10-2 15-4 16-5 14-5 27-13 24-15 11-8 8-23-10-23-23-8-22 11-11 17-25 28-22 19-25 21-3 1-50-25-38-15-5 8 65 49 58 49 26 25 24 25 44 53 19 27 19 33 52-40 8-17H703l-31-37zM71-31 41 27 80 38V396l59-11 15-11-15-9V56l55 18V509H142V492L77 460V820l65-32H293l32 27 60-48-27-22V476l-65-32v65H253V310h41l34 37 43-37V288H253V94l90 32 33 11 5-9-29-20-30-20-61-34-62-31L136-5 92-23 86-43 71-31zM293 767H142V530H293V767z"/><glyph glyph-name="undefined" unicode="䠜" horiz-adv-x="1024" vert-adv-y="918" d="M403 106l11 2 39 3 43 4 9 1V557H409v21H846l54 54 64-54V557H854V151l52 4 74 6 2-9-73-17-55-12V-31L789-63V110L503 58l-42-7-17-4-9-18-13 15-19 62zM32 27l11 4 29 7V396l59-11 15-11-15-9V56l58 18V509H134V492L70 460V820l64-32H292l32 27 59-48-27-22V476l-64-32v65H249V310h45l34 37 43-37V288H249V94l128 43 4-9-60-40-63-34L161 8 95-19 83-23 77-43 62-31 32 27zM789 260H570V122l219 22V260zm0 146H570V281H789V406zm0 151H570V427H789V557zM292 767H134V530H292V767zM751 867l65-11 16-11-16-10V749h54l54 54 64-54V727H816V636l-65-32V727H622V636l-65-32V727H385v22H557V867l65-11 16-11-16-10V749H751V867z"/><glyph glyph-name="undefined" unicode="䠝" horiz-adv-x="1024" vert-adv-y="918" d="M606 111l41-49 3-20-20 7-29-21-26-15-54-29-61-25-32-12-35-10-35-8-4 9L472 7l51 34 44 34 37 35 2 1zM911-39 897-24 863 8 844 23 799 54l-80 50 4 9 33-7 30-10 29-11 27-11 26-12 46-28L954 5l18-16 7-24-11-22-23-8-22 11-12 15zM69-32 41 28 84 39V396l65-11 16-11-16-10V55l52 14 15 5V509H149V492L84 460V820l65-32H334l32 27 59-48-26-22V476l-65-32v65H280V310h62l33 37 43-37V288H280V93l145 44 4-9-68-40-72-35L180 8 90-24 84-44 69-32zM470 577l65-32H876l33 26 59-48-27-21V145l-65-32v32H535V108L470 75V577zM876 276H535V167H876V276zm0 124H535V298H876V4e2zm0 123H535V421H876V523zM334 767H149V530H334V767zm170 79 65-32H842l32 27 59-49-27-21V639l-64-32v43H569V634l-65-32V846zm338-54H569V671H842V792z"/><glyph glyph-name="undefined" unicode="䠞" horiz-adv-x="1024" vert-adv-y="918" d="M425 702l65-32H736l-2 43-4 140v17l65-11 16-11-16-10 4-122 2-46h38l54 54 65-54V648H802l3-63 10-118 12-106 12-74 14 64 14 85 13 93 1 11 63-19 14-13-18-8-12-74-19-88-21-79-23-73-2-4 20-64 24-56 10-17 20 87h11L939 12l20-22 10-22-8-23-22-11-23 7-36 41-31 51-25 59-15-28-31-49-35-41-38-33-40-22-5 8 32 30L721-8l27 42 25 49 23 56 7 19-23 97-16 97-14 109-10 120-3 67H490V460l-3-68-5-65-8-61-10-59-13-55-15-52-18-48L397 8 373-33 346-69l-8 5 18 40 15 43 14 44 11 48 11 51 8 53 5 56 4 60 2 63-1 66V702zM441-13V3H549l7 1 4 1 5 1 1 2 1 1 1 1 1 3 1 5V206l-14-5-11-26-20-43-10-20-25-38-14-16-15-16-15-15-8 6 9 19 21 57 7 20 6 20 11 43 4 23 4 22 2 9 61-24 7-8v90l65-10 16-11-16-10V25l-1-14-2-13-5-13-6-12-9-11-11-9-12-7-13-4-13-2-14-1v32L441-13zM50 27l10 4 27 7V396l59-11 15-11-15-9V56l52 18V509H149V492L85 460V820l64-32H294l33 27 59-48-27-22V476l-65-32v65H257V310h38l33 37 43-37V288H257V95l86 31 33 11 5-9-28-20-58-37-30-17L174 9 143-5 101-22 96-42 80-31 50 27zm649 89v11l-2 11-3 12-4 13-11 28-15 32-11 15 7 7 14-13 15-12 26-24 10-13 10-13 9-13 7-13 7-14 5-15-7-24-21-12-24 6-12 21v10zM497 320v22h73V627l65-11 16-11-16-9V503h16l34 38 43-38V482H635V342h15l44 48 53-48V320H497zM294 767H149V530H294V767zm573-7-3 17-6 20-4 9-9 20-13 22-8 8 6 8 10-7 12-5 12-7 11-7 10-8 9-8 18-18 8-11 6-10V758l-18-17-25 1-16 18z"/><glyph glyph-name="undefined" unicode="䠟" horiz-adv-x="1024" vert-adv-y="918" d="M804-59H688L584-54l-92 9-78 13-67 18L293 9 253 37 231 66 214 44 191 19 166-4 139-25 111-44 80-60 46-74l-4 8L94-21 117 2l21 23 19 23 17 25 14 25 13 27 12 27 8 29 3 8 58-29 12-15-20-5-6-12-16-30-8-13 1-2 27-21 38-18 50-15 62-12 42-4V220H265l-65-32V397l65-33H749l32 27 59-48-27-22V210l-64-33v43H528V125H770l54 53 64-53V103H528V8l58-3H688L802 9 988 20 933-54 804-59zM749 343H265V242H749V343zM175 6e2l-1 8-2 16-2 8-3 8-3 8-4 8-9 18-8 6 4 6H39v21H254v70H82v21H254v81l64-11 17-11-17-9V798h65l54 54 64-54V777H318V707H441l44 49 54-49V686H405l33-27 7-19-25 2-29-22-22-15-16-9h83l44 49 54-49V575H318V505h75l44 49 53-49V484H318V414l-64-32V484H77v21H254v70H44v21H178l-3 4zm554-73-12 17-14 15-6 6-9-19-21-29-23-26-28-22-30-19-35-15-37-11-4 9 32 20 28 21 24 22 20 23 16 24 13 26 10 27 1 5-27 17-50 28-29 14 3 9 31-4 31-6 29-9 18-7 2 14 1 34v50H539v22H663V879l64-11 16-11-16-9V763h86l32 27 59-49-26-16h-2l-1-31 1-50 4-45 7-39 9-33 11-26 13-20 11-13 27 117h11L959 452l6-2 20-15 4-24-14-20-24-4-32 12-28 18-23 25-19 30-14 35-11 40-8 44-4 49-1 55 2 46H727V691l-4-39-7-37 23-16 20-16 18-17 16-20 4-24-13-21-24-4-21 14-10 16zM151 686l6-3 11-3 10-5 10-5 9-6 17-15 15-17 7-11-2-24-1-1h99l3 4 33 57 10 20 3 9H151z"/><glyph glyph-name="undefined" unicode="䠠" horiz-adv-x="1024" vert-adv-y="918" d="M749 305H265V218H749v87zm48 421V685l-2-12v-7l1-3 1-3 3-3 4-3 6-2 8-2H918l19 27h10l-10-27 11-8 8-11-8-11-11-8H818 806l-12 1-12 2-11 5-11 7-9 9-8 11-5 12-4 12-2 14v41H641V641l-64-32v32H447l-64-32V726H289l-2-9-9-25-13-22-17-20-21-18-24-16-28-14-27-12 1-6H888l4 3 5 9 3-3 21 18 59-49-27-16-57-23-49-25-16-7-10-7 19-16-27-21V413l-1-14-2-13-4-13-7-12-9-11-2-2 52-43-27-21V185l-64-32v43H528V113H770l54 54 64-54V92H528V11l58-2H688l114 3 127 8 60 3-56-74-129-4-116 1-104 3-91 9-79 11-66 17L294 6 254 32 231 58 213 37 166-5 139-24 110-40 79-54 46-66l-4 9L94-16l44 41 20 22 16 22 15 22 13 24 11 24 7 19v1l4 12 58-31 11-15-21-4-20-36-7-9 27-18 37-16 50-13 63-10 42-4V196H265l-65-32V359l6-3V522l64-32H480v71l64-11 16-11-16-9V490H749l32 27 31-26 11 10 50 60 2 1H151V552l-2-17-4-16-7-16-9-14-12-13-14-12-16-9-25 1-17 18 1 24 18 17 11 2 10 3 8 5 9 6 8 7 7 9 7 12 6 13 4 13-24-7-37-10-4 9 34 19 29 17 26 18 22 17 17 18 13 16 10 16 5 15 2 13H66v21H227V850l65-11 16-11-16-9V747h91V853l64-11 17-10-17-10V747H577V853l64-11 16-10-16-10V747h91V850l65-11 16-11-16-9V747h85l44 49 54-49V726H797zm-220 0H447V662H577v64zm86-351v16h64l6 1 5 1 5 2 2 2 2 5 1 4 1 7v55H544V367l-64-33V468H270V373l-48-25 43-21H749l3 3-12-2-13-1v32l-64 16z"/><glyph glyph-name="undefined" unicode="䠡" horiz-adv-x="1024" vert-adv-y="918" d="M415 716l59-30H622V874l64-11 16-10-16-10V793H794l44 49 54-49V772H686V686H897l2 2 1 1 29 24 59-49-27-16-18-7-7-9-33-43-20-22-8-12-9 5 6 13 16 68 6 23H474V342l-3-55-4-52-6-48-7-46-9-42-11-39-13-35L406-7 388-35 368-58l-7 5 11 27 9 29 9 32 7 34 7 38 5 41 3 43 3 48v50 53V716zM466-46v22h85V381l64-33H806l32 27 59-48-26-22V-24h28L923 8l32-32V-46H466zM39 27l10 4 30 7V396l59-11 15-11-15-9V56l60 18V509H141V492L77 460V820l64-32H304l30 27 57-48-27-19V476l-60-29v62H257V310h48l33 37 43-37V288H257V94l130 43 5-9-62-40-64-34-65-31-99-42-13-4-6-21L68-31 39 27zM806 82H615V-24H806V82zm0 122H615V103H806V204zm0 123H615V226H806V327zm79 120 24 70h11l-11-70 14-10 10-14-10-15-14-10H674l-13 2-12 3-12 6-10 7-9 10-8 12-4 12-4 13-1 13v49L480 509l-3 21 124 16V654l65-11 16-11-16-9V555l65 8 47 61 71-46 2-21-185-24V476l-1-6v-6l1-3v-3l1-2 1-2 2-2 4-2 6-2 7-1H885zM304 767H141V530H304V767z"/><glyph glyph-name="undefined" unicode="䠢" horiz-adv-x="1024" vert-adv-y="918" d="M804-53H688L584-49l-92 9-78 14L347-8 293 15 253 44 232 71 214 47 191 22 166-1 140-22 111-41 80-57 46-70l-4 8L94-18 117 5l21 23 19 24 16 25 15 26 13 26 12 28 8 29 3 8 58-28 12-15-20-5-5-13-16-30-8-12V90l27-21 38-19 50-15 62-12 58-7V229H302l-64-32V406l64-32H722l32 27 58-47 11 12 55 82v1H152V438l-2-21-4-20-6-19-9-18-11-16-14-14-17-12-25-1-18 16-2 24 16 19 11 4 10 5 10 7 9 9 8 11 8 14 7 17 6 19 5 21 2 24h2V720l65-32H810l32 27 59-48-27-22V537l-64-33v33H203l-58-30h1l4-37H888l4 3 3 6 2-2 24 20 59-48-27-16-30-13-31-24-43-30-17-11-16-12-6 7-24-19V218l-64-32v43H544V132H770l54 54 64-54V111H544V13l42-2H688l114 4L988 26 933-48 804-53zM722 353H302V251H722V353zM360 667H203V558H360V667zm228 0H425V558H588V667zm222 0H652V558H810V667zM613 876l65-11 16-11-16-9V801H814l54 54 64-54V780H678V730l-65-33v83H405V730l-64-33v83H86v21H341v75l64-11 16-11-16-9V801H613v75z"/><glyph glyph-name="undefined" unicode="䠣" horiz-adv-x="1024" vert-adv-y="918" d="M612 89l42-49 3-18-20 6L599 3 557-20 510-42 484-53 429-71l-4 9L514 2l37 30 47 43 14 14zM899-61 888-47 863-21 849-8 816 18 759 55 738 67l3 9 48-10 24-7 21-8 21-9 20-10 19-10 19-12L930-3l16-13 8-23-9-23-23-8-23 9zM39 27l10 4 30 7V396l59-11 15-11-15-9V56l60 18V509H141V492L77 460V820l64-32H302l32 27 59-48-27-22V476l-64-32v65H257V310h48l33 37 43-37V288H257V94l130 43 5-9-62-40-64-34-65-31-99-42-13-4-6-21L68-31 39 27zm360 94v22H563V288H438v22H563V412l64-11 16-11-16-9V310H755V412l65-11 16-11-16-9V310h20l54 53 64-53V288H820V143h52l53 54 65-54V121H399zM755 288H627V143H755V288zM926 509l32 134h11L958 509l20-13 12-20-12-19-20-13H806l-14 1-13 3-13 5-12 6-10 9-9 11-6 12-4 13-2 13V839l59-29H891l32 27 59-49-26-21V632l-65-32v54H782V530v-6l1-6 2-3 1-2 1-1 2-1 2-1h3l5-1h7H926zm-287 0 33 134h10L672 509l19-13 13-20-13-19-19-13H520l-14 1-14 2-13 5-12 7-11 8-9 11-7 12-4 13-2 14v13V842l64-32H604l29 27 57-49-27-19V632l-59-29v51H498V524l1-5 2-5 2-2 5-2 5-1h7H639zM302 767H141V530H302V767zm589 21H782V675H891V788zm-287 0H498V675H604V788z"/><glyph glyph-name="undefined" unicode="䠤" horiz-adv-x="1024" vert-adv-y="918" d="M480 571l64-32H845l32 27 59-48-27-22V236l-64-32v43H727V140H872l54 54 64-54V119H727V-46L663-78V119H399v21H663V247H544V231l-64-33V571zM39 27l10 4 30 7V396l59-11 15-11-15-9V56l60 18V509H141V492L77 460V820l64-32H302l32 27 59-48-27-22V476l-64-32v65H257V310h48l33 37 43-37V288H257V94l130 43 5-9-62-40-64-34-65-31-99-42-13-4-6-21L68-31 39 27zM663 382H544V268H663V382zm182 0H727V268H845V382zM663 518H544V404H663V518zm182 0H727V404H845V518zM302 767H141V530H302V767zm140 84 65-32H607l29 27 57-49-27-19V618l-59-29v40H507V613l-65-32V851zm281-3 59-29h98l32 27 59-49-27-21V618l-64-32v43H782V613l-59-30V848zm157-51H782V650h98V797zm-273 0H507V650H607V797z"/><glyph glyph-name="undefined" unicode="䠥" horiz-adv-x="1024" vert-adv-y="918" d="M910-9 877 33 848 80l-21 43-11-24-36-57L740-6 696-46 648-76l-5 8 39 38 36 42 32 50 29 55 25 63-21 69-13 66-11 70-7 76v26l-24-51-22-37-9 4 33 124 11 43 19 92 8 48 7 49 7 51 6 52 1 12 63-20 14-13-18-7-5-34-11-51-11-50-24-88h98l44 48 54-48V589H941l-10-93-15-94-19-88-23-79-17-46 16-34 26-44 29-39 31-34 45-40-58-43L910-9zM567-8V9h43 7l5 1 5 2 2 2 1 5 1 5 1 6V148l-19-10-23 8-11 22-1 26-2 51-4 50-3 24-3 25-3 29V-24L498-56V340l-6-34-6-30-6-29-8-29-8-28-10-28-10-27-13-25h-2V-40L365-72V537l-20-20-8 6 34 77 29 77 15 51 11 48 4 14 60-26 8-10V869l65-11 16-11-16-9V525h69l32 27 59-49-27-21V30l-1-13-2-14-4-13-7-12-9-11-10-8-13-7-13-5-13-2-14-1v32L567-8zM39 26l10 4 23 8V396l59-11 15-11-15-9V57l42 16V509H134V492L70 460V820l64-32H261l32 27 59-48-27-22V476l-64-32v65H232V310h25l34 37 43-37V288H232V96l76 30 30 11 5-9-25-20-26-19-54-35-54-31L128-5 92-21 86-42 71-30 39 26zM498 503H429V197l6 57 4 59 1 30 2 30v25l1 18 55-15V503zm134 0H563V418l3 1 13-21 10-23 10-23 17-48 7-26 6-25 3-16V503zm244 86H790l-10-30-15-41 25-127 17-67 19-62 2-4 16 69 15 84 11 92 6 86zM498 748l-15-4-25-61-12-26-29-50-32-47-8-9 52-26h69V748zM261 767H134V530H261V767zM651 589l-6 21-18 59-16 37-26 53-10 17 7 6 32-26 15-14 14-16 26-35 12-19 21-41 10-21-2-25-19-16-24 2-16 18z"/><glyph glyph-name="undefined" unicode="䠦" horiz-adv-x="1024" vert-adv-y="918" d="M459 362l65-32H808l32 27 60-48-27-22V-20L808-52V2H524V-36L459-68V362zM34 27l10 4 27 7V396l59-11 15-11-15-9V56l52 18V509H133V492L68 460V820l65-32H278l32 27 60-48-27-22V476l-65-32v65H241V310h38l33 37 43-37V288H241V95l86 31 33 11 5-9-28-20-58-37-30-17L158 9 127-5 85-22 80-42 64-31 34 27zM808 155H524V23H808V155zm0 154H524V177H808V309zM609 416l-4 12-5 12-7 13-8 12-10 13-25 26-12 11-11-30-18-34-22-32-25-29-29-24-32-20-36-15-4 8 28 24 25 25 21 26 18 28 15 29 12 32 9 35 6 36 2 19H370v21H499l-1 42v84H463l-12-23-25-41-30-41-9 5 8 23 21 69 11 43 4 21 4 20 3 21 2 14 1 4 2 11 61-23 14-13-20-8-16-42-9-18h89l44 48 54-48V740H563V656l-3-42h15l44 49 54-49V593H557l-5-28-9-34 20-8 18-8 16-10 17-10 14-12 13-13 12-14 10-15 9-15-1-25-19-17-24 2-17 18-2 12zm83 393 64-33H891l32 27 59-48-26-22V415l-65-32v64H756V410l-64-33V809zm199-54H756V469H891V755zM278 767H133V530H278V767z"/><glyph glyph-name="undefined" unicode="䠧" horiz-adv-x="1024" vert-adv-y="918" d="M504 342v21H671V476H564v22H671V616l65-11 16-10-16-10V498h16l44 48 54-48v-2l18 35 28 63 56-33 11-17-20-2-20-39-34-56-37-53-24-31h60l44 49 54-49V342H810l-42-46-47-45-7-6H856l32 27 59-48-27-22V-34L856-67v43H679V-40L615-72V169l-55-35-61-32-5 8 54 41 52 41 15 14v71l50-25 28 29 42 46 12 15H504zM442 847l64-32H893l32 27 60-49-27-21V638l-65-33v33H506V471l-3-68-6-65-8-62-11-59-13-55-16-51-20-49-22-44-25-41-29-36-8 6 19 41 17 42 15 45 13 47 11 51 9 53 7 57 4 59 2 63V847zM64-31 35 27 77 39V396l59-11 14-11-14-9V55l62 19V509H138V492L74 460V820l64-32H303l33 27 59-48-27-22V476l-65-32v65H257V310h51l33 37 43-37V288H257V93l133 44 4-9-63-40-65-34-66-31L98-19 85-24 79-44 64-31zM856 1e2H679V-2H856V1e2zm0 124H688l-9-8V121H856V224zm-41 49 1 10v6l-2 12-3 6-5 13-6 5 4 8 7-4 9-1 8-3 8-3 7-4 8-5 7-5 13-13 5-8-3-25-19-16-24 3-16 18 1 6zm25 203H736V363h28l44 62 32 51zM303 767H138V530H303V767zm590 26H506V659H893V793z"/><glyph glyph-name="undefined" unicode="䠨" horiz-adv-x="1024" vert-adv-y="918" d="M538 170l65-32H846l33 27 59-49-27-21V-34L846-67v54H603V-51L538-83V170zM39 27l10 4 30 7V396l59-11 15-11-15-9V56l60 18V509H141V492L77 460V820l64-32H302l32 27 59-48-27-22V476l-64-32v65H257V310h48l33 37 43-37V288H257V94l130 43 5-9-62-40-64-34-65-31-99-42-13-4-6-21L68-31 39 27zm807 89H603V9H846V116zm1 145 43-37V202H567v22H813l34 37zm0 81 43-38V283H567v21H813l34 38zM836 514l54-48V444H581v22H792l44 48zM621 654H527V529l11 5 20 13 17 13 14 13 11 14 9 14 6 15 4 16 2 16v6zM302 767H141V530H302V767zM901 578l21 49h11l-11-49 13-8 9-13-9-13-13-9H815l-13 2-12 2-11 6-11 7-9 9-7 11-6 12-3 13-1 14v43H684l-3-16-8-24-12-22-14-18-16-17-19-13-21-11-23-8-25-6-16-2V385H908l33 38 43-38V363H527v-5l-4-62-5-59-8-54-11-51-14-46-16-42L450 6 427-26 402-54 374-75l-7 7 19 27 17 30 15 33 13 37 11 39 8 44 6 48 4 52 3 56-1 60V629l-26-26-28-23-30-21-7 7 43 56 20 28 18 28 10 18v11l5-2 18 33 13 31 12 32 11 33 8 28 4 14 60-27 12-15-20-5-6-16-4-9H752l33 27 59-48-27-16-16-7-12-17-31-38-24-24-6-6H886l44 49 54-49V654H806V611l-1-7v-9l1-3v-2l1-3 3-2 4-3 6-2 8-2h73zM749 783H566l-19-37-19-32-20-30 19-9H709l1 2 25 61 9 28 4 14 1 3z"/><glyph glyph-name="undefined" unicode="䠩" horiz-adv-x="1024" vert-adv-y="918" d="M402 541l65-32H721L710 614l65-6 18-9-16-11 8-79h81l7 7-23-2-20 15-1 8-5 16-3 7-3 9-8 16-5 9-5 9-8 6 5 8 9-5 11-3 20-9 18-11 9-7 16-14 7-8 2-25-11-13 32 35 54-48V487H788l12-97 15-92 13-59 17 52 18 67 16 81 61-22 14-14-19-7-13-54-22-68-25-64-25-52 24-63 22-43 24-32 10-9 27 116h11L958-5l6-3 20-15 4-24-14-20-24-4-42 17-35 30-31 41-27 52-7 18-26-35-37-41-41-36-43-29-46-22-5 8 39 31L686-3l33 37 31 42 28 47 10 20-17 60-19 84-16 94-13 105v1H467V294l-3-50-4-47-6-45-7-41-9-38-11-35L414 5 399-24 381-48 362-69l-8 6 19 51 7 29 7 31 6 34 4 37 4 39 2 43v45l-1 48V541zm255-86 53-49V385H633V186l12 28 15 46 13 43 4 14 59-27 13-14-20-5-11-32-20-47-22-45-24-40-19-27V73h-5L598 37 568 7 536-18 502-39 466-54l-5 8 29 24L517 4l26 28 23 30 7 11h-4V283l-10-6-1-8-5-28-5-27-7-26-9-26-9-25-12-24-12-23-15-21-16-20-9 5 14 48 12 47 4 24 3 25 3 25 1 25 1 26-1 26 1 12 64-14 8-5v92H485v21H613l44 49zM36 27l10 4 29 7V396l60-11 14-11-14-9V56l55 18V509H137V492L73 460V820l64-32H290l32 27 59-48-27-22V476l-64-32v65H249V310h42l34 37 43-37V288H249V94l124 43 5-9-59-40-61-34-63-31L131-5 87-23 81-43 66-31 36 27zM290 767H137V530H290V767zm88-144v21H489V820l65-10 16-11-16-10V644h93V874l64-11 17-11-17-10V769H835l44 48 54-48V747H711V644H884l44 48 53-48V623H378z"/><glyph glyph-name="undefined" unicode="䠪" horiz-adv-x="1024" vert-adv-y="918" d="M664 486l-11 21 3 23v8l-42-19-81-29-20-6-19-6-8-20-14 14-17 45V455H833l54 54 64-54V433H455V104l5 1 40 4 57 85-17-1-18 16-2 9-3 8-9 20-6 10-15 22-19 23-11 10 4 8 15-8 14-6 11-4 6 8 29 61 11 25 8 22 1 5 2 5 3 5 54-36 9-17-25-1-41-43-41-34-5-6 18-11 22-17 10-9 9-10 9-11v-9l75 114 50-41 7-18-21 1-39-47-61-66-45-44-17-14 78 7 22 2 22 1 4 1-1 7-4 25-3 13-6 14 9 5 8-13 19-21 15-21 12-20 10-21 3-10-8-23-22-11-23 8-11 21 3 23v8L614 89 533 60l-20-6-19-6-8-20-14 14-17 45V25H859l54 53 13-11-5 10 3 23v8L902 97 861 81 799 60 759 48l-8-20-14 13-23 62 11 2 40 4 58 85-16-2-19 17-2 8-3 9-4 10-5 10-6 10-24 33-11 12-12 10 6 8 14-8 25-10 6 9 24 46 18 39 8 22 1 5h-1l2 5h1l3 5 53-36 9-17-25-1-9-11-45-43-14-12-14-11-6-6 18-11 12-8 21-18 18-20V227l61 89 16 26 50-41 7-18-21 1-40-47-84-88-23-22-17-14 79 7 49 4-3 19-5 26-6 14 8 5 8-13 19-21 22-31 11-20 4-10 4-11-8-23-22-11-10 3 32-26V3H455V-34L396-64V826l59-11 15-11-15-9V534l5 1 40 4 57 85-17-1-18 16-2 9-3 8-9 20-6 11-15 21-19 23-11 10 4 8 15-8 14-6 11-4 6 8 29 61 11 25 8 22 1 5 1 3 1 2 3 5 54-36 9-17-25-1-41-42-41-35-5-6 18-11 22-17 10-9 9-10 9-11v-9l69 106 6 8 50-41 7-18-21 1-39-47-61-65-45-45-17-14 78 8 22 1 22 1 4 1-1 7-4 25-3 13-6 14 9 5 8-13 19-21 15-21 12-20 10-20 3-11-8-23-22-11-23 8zM35 27l10 4 29 7V396l59-11 15-11-15-9V56l54 18V509H136V492L71 460V820l65-32H288l30 27 56-48-27-19V476l-59-29v62H246V310h41l33 37 43-37V288H246V94l89 32 33 11 5-9-58-40-61-34-62-31L129-5 86-23 81-43 66-31 35 27zM932 486l-11 21 3 23v8l-22-11-41-16-62-21-40-12-8-20-14 13-23 62 11 2 40 4 58 85-16-1-19 16-2 8-3 9-4 10-5 10-6 10-24 33-11 12-12 10 6 8 14-8 25-10 6 9 24 47 18 38 8 22 1 5h-1l2 5h1l3 5 53-36 9-17-25-1-9-11-45-43-14-12-14-11-6-6 18-11 12-8 21-18 18-20V657l61 89 11 18h-1l6 8 50-41 7-18-21 1-40-47-84-87-23-23-17-14 79 8 49 3-3 19-5 26-6 14 8 5 8-13 19-21 22-31 11-20 4-10 4-11-8-23-22-11-23 8zM288 767H136V530H288V767z"/><glyph glyph-name="undefined" unicode="䠫" horiz-adv-x="1024" vert-adv-y="918" d="M740 294l-7 39-4-1V-51L664-83V170H654l-29-46-22-30-45-54-23-24L510-6 485-26 458-45 431-60l-6 8 60 70 38 51 36 56 34 60 15 33 3 6 53-35V310l-31-7-26-5-27-3-2 9 2 1h-2l-17-27-32-44-37-42-41-39-22-18-25-17-7 7 2 3-62-40-65-34-66-31L103-19 90-24 84-44 69-31 41 27 82 39V396l59-11 15-11-15-9V55l62 19V509H144V492L79 460V820l65-32H309l32 27 59-48-27-22V476l-64-32v65H262V310h51l33 37 43-37V288H262V93l133 44 4-9 61 90 27 44 24 45 23 51 55-35 6-10 73 39 42 25 39 26 31 24 5 3 24-35 14-17 1-18-20 8-26-15-32-14 38-88 22-45 4-8 32 57 24 47 15 31 3 5 52-39 8-18-22 1-22-26-26-26-27-24-29-23 32-54 23-31 24-26 24-23 24-17L995 4 935-44 905-23 878 3 852 33 829 66l-22 38-19 41-18 45-16 50-14 54zM403 462l52 12 11 2V792H411v22H636l44 48 53-48V792H679V397l-65-33V483l-35-17-86-38-40-16-6-21-15 12-29 59zm513-25-14 28-32 52-18 23-3 5-28-33-30-28-31-24-33-21-35-15-5 8 28 24 27 26 24 27 23 29 22 32 6 10-24 24-46 38-24 19 4 8 30-9 29-12 28-15 23-16 12 23 17 40 15 41 7 24H710v22H893l32 26 59-48-27-16-10-4-9-25-20-44-21-40-20-31 35-35 21-26 21-27 19-29 2-25-15-19-25-3-19 16zM614 584H531V490l37 8 46 8v78zM309 767H144V530H309V767zm305-79H531V605h83v83zm0 104H531V710h83v82z"/><glyph glyph-name="undefined" unicode="䠬" horiz-adv-x="1024" vert-adv-y="918" d="M401 638l-2 19-2 10-2 9-5 18-11 27-7 6 6 8 8-5 10-4 10-6 18-13 9-8 8-9 8-10 6-10 11 48 8 43 4 27H406v22h74l32 27 50-41-6 39 9 3 43-98 8 26 4 11 5 23 3 17h-1l5 13 57-32 11-16-24-4-17-22-17-19-10-10-10-9-3-2 17-38 10-18 5 17 9 24 13 37 3 8h-1l5 10 54-36 2-4V828l59-29H898l32 27 59-49-26-16-8-3-11-32-32-87-26-61-31-61-14-24 38-22 29-32 23-37 17-40 11-41 7-41 3-39V205l-2-33-4-27-5-14-5-12-7-11-9-11-9-9-12-7-12-6-13-4-13-2-14-1v32l-43 16v16h43l7 1 5 1 5 1 4 2 3 2 5 5 5 10 8 28 4 27 2 32 1 35-4 36-6 37-11 36-15 35-19 32-24 33 1 1-7 3 8 35 16 66 9 32 15 61 18 86 2 8H795V-46L736-76V521l-55-40-16 23-16 27-14 29-14 31-14 34-12 37-12 39-11 42-8 41-20-12-5-2-5-22-12-44-13-43-16-42-17-41-19-39-2-4H561l34 38 43-38V514H449v12l-13-24-23-37-26-34-28-33-8 6 53 113 30 78 6 22-22 2-17 19zM395-59 370 2 476 23l80 17 12 64 12 62 7 38 2 12h-1l4 15 60-26 13-14-21-6-30-73-30-61-4-6 66 14 72 14 4-10-34-16-67-29L555-8 426-50l-10-3-7-19-14 13zM44 27l10 4 26 7V396l59-11 15-11-15-9V56l50 18V509H142V492L78 460V820l64-32H285l32 27 59-48-27-22V509l-64-33v33H249V310h35l33 37 43-37V288H249V95l84 31 32 11 5-9-27-20-58-37-58-33L166 9 105-18 95-22 90-42 74-31 44 27zM456 90v27l-2 14-1 14-2 14-6 29-3 15-6 14 8 5 9-12 12-12 9-13 17-27 7-14 12-31 5-15 4-16-8-24-22-11-23 7-11 22 1 14zM417 455l64-32H608l30 26 56-48-27-19V261l-59-29v29H481l-64-32V455zm191-54H481V283H608V401zM285 767H142V530H285V767zM736 526V702H720l-21-25-29-28-10-8-3-3 13-22 16-27 17-24 17-21 16-18z"/><glyph glyph-name="undefined" unicode="䠭" horiz-adv-x="1024" vert-adv-y="918" d="M765 68l43-49 2-19-20 6-39-25-21-11-21-10-21-9-23-9-22-7-49-11-3 9 21 12 58 39 34 26 32 28 29 30zM942 628l-6-12-8-11-9-10-10-8-12-7-12-5-13-4-13-2-14-1v32l-75 16v16h75l7 1 6 1 5 1 4 2 4 2 3 3 6 7 3 6 3 7 2 6 4 20 1 13 1 16 2 16v20l1 21v22l1 14H822l-6-28-9-29-10-28-14-27-15-25-17-25-20-23-22-22-24-20-23-16 5-5-27-16V358l-53-27v38H537V281l25-14 18-12 17-13 16-14 14-15 13-15 12-16 10-17 9-18-3-24-18-17-25 3-16 18-3 15-10 29-7 16-18 30-34 44V-42L483-69V223l-13-29-20-39-22-37-25-34-26-31-30-28L316 0l-7 7 44 63 21 34 18 35 17 36 15 38 14 40 11 43 10 44 5 29H433V304l-54-27V611l54-27h50V702H338v22H483V863l54-10 13-11-13-9V724h46l44 48 54-48V702H537V584h50l27 27 40-37 34 47 15 25 14 24 12 25 9 24 8 25 6 24 4 25 1 17H665v21H898l32 27 59-48-26-17-1-21-2-42-1-19-2-17-4-29-3-13-3-11-5-13zm5-697-21 12-23 36-9 12-31 34-25 22-14 9 4 9 16-6 17-4 17-6 16-7 15-8 15-8L952 5l25-23 6-24-12-21-24-6zM39 26l10 4 23 8V396l59-11 15-11-15-9V57l42 16V509H134V492L70 460V820l64-32H264l29 27 57-48-27-19V476l-59-29v62H232V310h25l34 37 43-37V288H232V96l76 30 30 11 5-9-25-20-26-19-54-35-54-31L128-5 92-21 86-42 71-30 39 26zM693 565l59-30H882l33 27 59-48-27-22V111L882 78v33H752L693 81V565zM882 245H752V132H882V245zm0 145H752V267H882V390zM483 562H433V390h50V562zm104 0H537V390h50V562zm295-48H752V412H882V514zM264 767H134V530H264V767z"/><glyph glyph-name="undefined" unicode="䠮" horiz-adv-x="1024" vert-adv-y="918" d="M464-59l-24 7-11 22 8 24 8 7 8 7 15 18 14 24 7 13 7 15 7 16 4 18 10-1-1-19 1-18V57l-1-17-2-16-4-16-4-15-6-15-7-13-7-13-22-11zM611-28l-24-6-20 14-6 23 6 14 3 7 2 9 1 9 2 21V87l-3 12 9 4 5-12 8-10 13-22 4-11 5-11 3-11 3-11 2-11V-8L611-28zm53 50-1 15-2 9-1 8-2 9-3 11-7 21-6 9 7 6 8-8 10-7 18-14 15-15 7-7 7-8 11-18-3-24L703-6 679-4 663 16l1 6zm96 15-2 15-4 15-5 16-4 8-8 18-6 6 6 7 7-5 10-4 9-4 9-5 9-5 16-12 21-22 2-25-17-19-24-1-19 17zM661 240H571V170h90v70zm0 91H571V261h90v70zm249 12-21 21-21 25-19 28-8 11H725V353h41l44 48 54-48V331H725V261h41l44 49 54-49V240H725V170H873l32 27 59-49-26-15V115l-1-21-1-20-2-18-6-33-5-14-6-14-7-13-8-10-9-11-9-8-11-8-10-7-12-6-13-4-12-3-13-1-13-1v32L692-29v16H8e2l7 1 7 1 12 3 6 3 5 3 5 4 5 4 9 12 3 5 3 8 3 9 3 12 2 13 2 15 1 17v8 43H571l-65-32V401l-38-40-47-41-40-28v-4h-5l-5-4-3 4H257V94l130 43 5-9-62-40-64-34-65-31-99-42-13-4-6-21L68-31 39 27l10 4 30 7V396l59-11 15-11-15-9V56l60 18V509H141V492L77 460V820l64-32H302l32 27 59-48-27-22V476l-64-32v65H257V310h48l33 37 43-37v-1l26 26 39 46 38 47 22 34v20l10-5 34 56 1 2H394v22H562l16 32 24 54H502v21H610l18 49 20 67 18 70 2 10 60-26 14-14-20-5-15-53-25-69-12-29h91l54 54 64-54V643H747l61-86h81l44 48 54-48V535H823l46-58 44-49 20-18 20-16 37-25-59-45-21 19zM661 428H571V353h90v75zM779 535H604l-15-26-36-51 18-9H802l14 19-28 49-9 18zM302 767H141V530H302V767zM734 643H660l-37-76-6-10H769l-19 43-16 43zM546 826l54-36 9-17-21-1-16-22-34-38-18-19-41-36-22-17-24-17-26-16-6 7 70 88 29 41 24 39 11 20 11 24zM906 674l-16 25-10 13-23 26-28 28-32 29-19 14 5 8 21-9 22-8 20-9 37-20 17-10 30-23 27-25 6-24-12-21-24-6-21 12z"/><glyph glyph-name="undefined" unicode="䠯" horiz-adv-x="1024" vert-adv-y="918" d="M733-30 699-47V111H626V-15L561-47V111H485V-37L421-69V313l64-32H839l33 27 59-48-27-22V8L903-6l-2-14-5-13-6-12-9-11-11-9-12-6-13-4-14-3H818v32L733-30zM43 27l10 4 26 7V396l59-11 15-11-15-9V57l36 12 12 4V509H141V492L76 460V820l65-32H280l32 27 59-48-27-22V509l-64-33v33H245V310h34l33 37 43-37V288H245V95l83 31 32 11 4-9-27-20-27-19-58-35-58-31L134-5 94-22 89-42 74-31 43 27zM561 260H485V133h76V260zm138 0H626V133h73V260zm140 0H763V133h76V260zm55 291-33 23-31 24-29 27-29 29-27 31-25 34-25 36-22 39-1 2-32-48-30-40-32-37-34-35-35-32-37-29-40-26-17-9 51-26h48l24 27 49-46v43l48-24h54l25 27 48-46v43l48-24h49l29 27 57-49-27-18V352l-59-29v40H810V347l-48-24V491l-24-12V352l-49-24v35H635V347l-48-24V491l-24-12V352l-49-24v35H466V347l-59-30V535l-15-8-43-19-5 9 37 27 68 59 32 31 30 34 29 35 27 37 25 40 44 81 5 10 54-36 10-16-20-2-1-1 66-72 28-28 29-26 30-23 29-22 30-19 31-16 61-29-61-50-33 20zm-35-59H810V384h49V492zm-170 0H635V384h54V492zm-175 0H466V384h48V492zM280 767H141V530H280V767zM725 660l54-48V590H535v22H681l44 48zM839 111H763V-14h55l6 1h5l3 1 2 1 1 1 1 1 1 2 1 3 1 5V8 111z"/><glyph glyph-name="undefined" unicode="䠰" horiz-adv-x="1024" vert-adv-y="918" d="M542-24V-40L478-72V233l-45-49-26-23-27-21-7 7 56 84 32 55 29 56 13 29 21 54h-1l5 12 58-31 10-16-20-3-21-41-15-26H676l1 2 5 22 10 33 11 34 3 7-1 1 5 9 54-37 8-17H748l-9-11-34-33-9-8-2-2H845l44 49 54-49V299H732V213h75l44 48 54-48V191H732V105h75l44 49 54-49V84H732V-2H858l53 54L976-2V-24H542zM39 27l10 4 30 7V396l59-11 15-11-15-9V56l60 18V509H141V492L77 460V820l64-32H304l30 27 57-48-27-19V476l-60-29v62H257V310h48l33 37 43-37V288H257V94l130 43 5-9-62-40-64-34-65-31-99-42-13-4-6-21L68-31 39 27zM668 84H542V-2H668V84zm0 107H542V105H668v86zm0 108H542V213H668v86zM433 648l59-30H604l29 27 57-48-27-19V445l-59-29v51H492V429l-59-30V648zm276 0 59-30H877l32 27 59-48-26-22V445l-65-32v54H768l-59-30V648zm168-51H768V488H877V597zm-273 0H492V488H604V597zM304 767H141V530H304V767zM747 868l64-11 17-10-17-10V764h46l54 54 64-54V743H811V665l-64-32V743H625V665l-65-32V743H396v21H560V868l65-11 16-10-16-10V764H747V868z"/><glyph glyph-name="undefined" unicode="䠱" horiz-adv-x="1024" vert-adv-y="918" d="M596 348l43-19 12-15-21-6-10-21H903l32 27 59-48-27-17-1-23V181l-1-41-1-35-1-31-2-26-2-21-1-16-3-14-8-17-8-10-9-9-9-9-11-7-11-7-12-5-12-4-13-3-13-1-13-1v32L729-27v16h78l-4 2-1 5-1 6-4 7v2L744-3 678-18 582-37 512-49 502-68 489-53 471 10l11 1 31 2 31 2 63 4 45 3v79H588L529 72V181l-29-21-27-16-29-14-6 8 43 43 36 42 15 21 13 20 11 21 9 21 7 20 4 16 2 6H555l-59-29V495l59-30H875l33 27 59-48-27-22V348l-65-32v32H596zM414 845l59-30H893l32 27 60-49-27-21V691l-65-32v32H473V471l-2-68-5-64-6-62-9-58-11-55-12-52-15-48-17-45-20-40-23-37-8 4 14 40 23 87 10 47 7 51 7 54 4 57 3 59 2 64-1 66V845zM36 27l10 4 29 7V396l60-11 14-11-14-9V56l55 18V509H137V492L73 460V820l64-32H293l29 27 57-48-27-19V476l-59-29v62H249V310h42l34 37 43-37V288H249V94l124 43 5-9-59-40-61-34-63-31L131-5 87-23 81-43 66-31 36 27zM903 266H655l56-11 16-10-16-10V202h68l32 26 60-48-27-21V101L779 69v32H711V24l30 1h34 12l-6 8-17 19-10 10-12 8 4 8 14-5 14-4 26-9 11-5 21-10 9-6 9-7 8-7 3-24-7-10 10 2 6 3 5 3 6 4 5 5 5 4 2 2 1 5 1 14 1 20 2 24 1 30 1 35 1 40 1 45 1 39zM652 180H588V123h64v57zm127 0H711V123h68v57zM652 266H607l-22-31-18-20-2-2 23-11h64v64zM625 444H555V370h70v74zm124 0H679V370h70v74zm126 0H808V370h67v74zM669 678l64-10 17-11-17-10V512l-64-32V678zM878 576l43-37V517H766v22h78l34 37zm-286 0 43-37V517H484v22h74l34 37zM293 767H137V530H293V767zm585-97 43-38V611H766v21h78l34 38zm-286 0 43-38V611H484v21h74l34 38zM893 793H473V713H893v80z"/><glyph glyph-name="undefined" unicode="趴" horiz-adv-x="1024" vert-adv-y="918" d="M551 619l64-14 16-11-17-10-5-81-12-95-16-88-22-79-27-73-32-64-38-57L419-1 371-40 318-70l-5 8 45 37 40 43 35 49 31 56 25 62 22 70 17 77 12 84 7 91 4 94h-1l1 18zM899-16 870 40l-27 63-21 71-19 78-14 86-10 94-7 102-2 110 2 112H509v21H751l26 22 59-48-27-16-24-12 7-78 11-108 14-1e2 16-91 19-83 22-74 25-64 27-56 30-47 31-38 4-5-57-42-35 47zM69-32 41 28 84 39V396l65-11 16-11-16-10V55l52 14 15 5V509H149V492L84 460V820l65-32H334l32 27 59-48-26-22V476l-65-32v65H280V310h62l33 37 43-37V288H280V93l145 44 4-9-68-40-72-35L180 8 90-24 84-44 69-32zM334 767H149V530H334V767z"/><glyph glyph-name="undefined" unicode="趵" horiz-adv-x="1024" vert-adv-y="918" d="M65-32 38 28 87 39V396l65-11 16-11-16-10V54l80 21V509H152V492L87 460V820l65-32H363l32 27 59-48-26-22V476l-65-32v65H297V310h80l33 37 43-37V288H297V92l123 34 41 11 4-9-77-40-79-35L188 8 106-19 86-25 79-45 65-32zM871-10 856-32l-10-9-10-8-11-7-11-6-13-4-13-3-13-2-13-1v32L654-24V-8H762l8 1 6 1 12 3 5 3 5 3 5 4 4 4 4 6 5 6 12 25 12 33 12 41 10 48 9 56 8 64 6 71 5 78 5 85 2 81H596l-26-46-25-39-26-37-28-33-30-30-8 6 62 112 19 40 35 85 31 92 25 95 3 15 60-25 13-15-19-6-28-82-19-48-20-45-9-17H897l33 27 59-49-27-16h-1l-2-67-4-87-5-79-7-73-8-65-10-59-11-52-12-46-14-38-17-33zM740 374l65-54V299H490v21H687l53 54zM363 767H152V530H363V767z"/><glyph glyph-name="undefined" unicode="趶" horiz-adv-x="1024" vert-adv-y="918" d="M530-24V-8H638l6 1 6 1 2 1 2 1 2 1v1l1 1 1 4 1 5v6V396H434v21H659V750H459v22H825l54 54 64-54V750H724V417H867l54 54 65-54V396H724V14L723 1l-2-14-5-13-6-12-9-11-11-9-12-7-13-4-13-2-14-1v32L530-24zM66-32 39 28 85 39V396l64-11 16-11-16-10V55l73 19V509H149V492L85 460V820l64-32H345l32 27 59-48-27-22V476l-64-32v65H286V310h69l34 37 43-37V288H286V93l114 33 39 11 4-9-36-21-73-37-37-17-76-31L105-19 87-25 81-45 66-32zM345 767H149V530H345V767z"/><glyph glyph-name="undefined" unicode="趷" horiz-adv-x="1024" vert-adv-y="918" d="M64-32 37 28 86 39V396l64-11 16-11-16-10V54l79 21V509H150V492L86 460V820l64-32H358l33 27 59-48-27-22V509l-65-33v33H294V310h78l33 37 43-37V288H294V92l120 34 42 11 3-9-37-21-77-37-79-33L186 8 105-19 85-25 78-45 64-32zM574 136l-20-32-10-26-2-18 2-11 7-9 15-9 27-9 37-6 49-2H924l32 134h11L956 14 975 1l13-19-13-20-19-13H679l-55 3-45 7-40 13L508-8 486 22l-9 36 5 37 15 38 24 40 33 43L749 449H515v22H768l32 27 59-49-27-16-23-9L603 174l-29-38zm41 735 59-27 13-15-20-5-28-75-40-89 249-1 54 54 64-54V638H587l-34-62-25-39-27-38-29-35-31-33-7 6 63 118 39 82 17 43 32 89 14 46 13 47 3 9zM358 767H150V530H358V767z"/><glyph glyph-name="undefined" unicode="趸" horiz-adv-x="1024" vert-adv-y="918" d="M804-45H688L584-40 492-30 413-16 346 4 293 30 252 62 231 93 215 69 192 41 167 15 141-9 111-31 80-49 46-66l-4 8L93-8l23 25 40 52 17 28 15 28 13 30 11 32 8 26 1 4 3 10 59-27 12-15-20-5-5-15-17-34-9-17 2-4 27-25 37-20 50-18 63-13 41-5V267H265l-65-32V459l65-32H749l32 27 59-49-27-21V246l-64-33v54H528V156H770l54 54 64-54V135H528V23l59-4H688l114 4L988 35 933-39 804-45zM749 405H265V289H749V405zm32 91-21-14-10-6-12-5-11-4-12-4-12-3-13-2-12-1-13-1v33L558 505v16H665l17 1 16 3 15 6 8 3 7 4 14 9 4 5 5 6 5 9 5 11 4 14 4 17 3 19 2 21 1 24 1 15H468l-17-35-32-41-39-37-46-31-54-26-62-21-68-15-75-11-2 9 72 21 64 24 56 26 46 28 39 31 31 34 23 36 16 39 8 41 1 35H74v22H847l54 53 64-53V795H493l-5-45-11-40H776l32 27 59-49-27-16-2-28-2-24-4-23-4-21-6-20-8-17-9-16-11-14-13-13z"/><glyph glyph-name="undefined" unicode="趹" horiz-adv-x="1024" vert-adv-y="918" d="M663 455H442v21H663V707H474v22H663V880l64-11 16-11-16-10V729H840l32 27 59-49-27-21V476h25l24 33 32-33V455H727V396l-5-71-13-66-19-61-6-14 18-24 37-39 37-32 39-27 40-21 41-15L987 6 924-53 874-37 826-15 782 13 740 47 702 87l-35 46-5 7-32-49-41-45L542 6 489-27 429-55 363-76l-4 9 61 30L474-3l46 37 40 40 33 44 26 47 11 28-25 48-26 63-15 50-4-10-17-37-11-18-11-18-11-16 4-22-19 4-53 38 8 8 28 25 14 12 36 42 34 46 10 16 9-3-4-19-4-20-4-11 31-58 33-57 12-17 8 32 8 61 2 64v59zM61-32 34 28 79 39V396l65-11 16-11-16-10V55l72 19V509H144V492L79 460V820l65-32H339l33 27 59-48-27-22V476l-65-32v65H281V310h69l34 37 43-37V288H281V93l113 33 40 11 4-9-36-21-73-37-37-17-76-31L1e2-19 82-25 75-45 61-32zM840 707H727V476H840V707zM339 767H144V530H339V767z"/><glyph glyph-name="undefined" unicode="趻" horiz-adv-x="1024" vert-adv-y="918" d="M844 337l59-49-27-16-12-5L771-43 7e2-54 807 288H487v22H812l32 27zM71-32 44 28 88 39V396l65-11 16-11-16-10V55l71 19V509H153V492L88 460V820l65-32H345l33 27 59-48-27-22V487l-65-32v54H288V310h67l34 37 43-37V288H288V93l112 33 39 11 4-9-71-40-73-35-75-31L109-19 92-25 85-45 71-32zM883 434l-31 29-30 32-29 36-27 38-25 42-24 46-22 48-20 53-1 4-39-91-26-52-28-50-29-48-32-45-34-43-37-41-39-37-7 7 31 43 56 91 27 46 25 49 44 101 19 54 18 54 14 52 4 14 60-27 12-15-19-5-11-31 40-68 28-44 28-41 28-36 29-33 29-30 29-26 30-22 52-33-59-46-34 25zM747 519l54-48V449H547v22H703l44 48zM345 767H153V530H345V767z"/><glyph glyph-name="undefined" unicode="趼" horiz-adv-x="1024" vert-adv-y="918" d="M908 837l54-49V767H858V444h14l53 54 65-54V423H858V-40L793-72V423H672v21H793V767H7e2v21H864l44 49zM535 312v73l-93-61-1-21-18 9-41 50 151 76 2 1V767H417v21H567l54 54 65-54V767H599V469l68 30 37 14 5-8-63-46-47-32V374l-3-65-8-62-10-57-15-53-19-48-22-43L496 8 466-24 432-51 395-70l-6 8 30 27L444-5l23 33 19 37 16 41 13 45 10 49 6 54 4 58zM39 27l10 4 30 7V396l59-11 15-11-15-9V56l60 18V509H141V492L77 460V820l64-32H302l32 27 59-48-27-22V476l-64-32v65H257V310h48l33 37 43-37V288H257V94l130 43 5-9-62-40-64-34-65-31-99-42-13-4-6-21L68-31 39 27zM302 767H141V530H302V767z"/><glyph glyph-name="undefined" unicode="趽" horiz-adv-x="1024" vert-adv-y="918" d="M839-23l-10-9-9-8-11-7-12-6-11-5-13-4-12-3-13-1-13-1v33L627-18V-2H735h8l7 1 14 4 6 2 5 4 6 3 6 5 10 11 12 17 10 22 10 27 8 33 6 39 5 44 3 49 1 54-1 60v13l-2-1v43H678V416l-11-72-16-69-21-65-28-61-32-55-39-52L486-4 436-45 381-81l-6 8 48 43 43 46 37 48 32 51 26 54 22 58 16 61 11 64 6 68 1 72V627l65-11 16-11-16-9V492l-3-43H849l32 27 59-48-26-16 2-37V313l-1-57-3-51-5-47-7-43-10-39-11-34-14-30-18-25-8-10zM70-32 42 28 86 39V396l64-11 16-11-16-10V55l53 14 16 5V509H150V492L86 460V820l64-32H338l33 27 59-48-27-22V476l-65-32v65H284V310h63l34 37 43-37V288H284V93l147 44 4-9-70-40-72-35-73-31L145-6 91-25 84-44 70-32zM338 767H150V530H338V767zm92-140v21H646V853l65-11 16-11-16-10V648H867l54 54 64-54V627H430z"/><glyph glyph-name="undefined" unicode="趿" horiz-adv-x="1024" vert-adv-y="918" d="M894-23 847 8 804 44 764 86l-8 11-41-39-56-43-62-35-66-27-71-19-2 10 65 28L584 5l54 39 50 43 41 46-33 55-29 59-25 65-22 71-16 72h-3L580 337l-24-91-28-82-33-74-37-64-42-56-47-45-7 7 38 51 34 57 29 65 26 72 23 81 19 89 14 97 11 104 6 114 2 110H464v21H825l33 27 59-48-27-16-9-4-43-276h41l32 27 60-48-27-16-8-3-18-61-29-77-36-71-40-64-21-25 13-15 38-35 40-28 41-22 82-31-62-53-50 23zM71-32 44 28 88 39V396l65-11 16-11-16-10V55l71 19V509H153V492L88 460V820l65-32H345l33 27 59-48-27-22V476l-65-32v65H288V310h67l34 37 43-37V288H288V93l112 33 39 11 4-9-71-40-73-35-75-31L109-19 92-25 85-45 71-32zM876 455H615l27-65 29-66 31-60 32-53 26-35 11 16 35 61 30 67 24 74 16 61zM823 772H629l-6-113-10-116-9-67H772l51 296zm-478-5H153V530H345V767z"/><glyph glyph-name="undefined" unicode="跀" horiz-adv-x="1024" vert-adv-y="918" d="M609 313H878V532H614V383l-5-70zM74-32 48 28 96 39V396l65-11 16-11-16-10V54l79 21V509H161V492L96 460V820l65-32H369l32 27 59-48-26-22V476l-65-32v65H304V310h78l34 37 43-37V288H304V92l121 34 41 11 4-9-38-21-76-37-79-33L197 8 116-19 96-25 89-45 74-32zM369 767H161V530H369V767zm509 6H614V554H878V773zM942 5 939-8l-4-13-7-12-9-11-11-9-12-7-13-4-13-2-14-1v33L749-18V-2H863l4 1 4 1 2 1 1 2 1 1 1 4 1 4 1 7V291H606l-7-48-18-62-23-55-30-50-36-43L449-4 402-34 348-56 290-72l-3 10 53 24L387-9l40 32 34 37 28 41 24 46 17 50 12 57 7 62 1 67V827l64-32H878l32 26 59-48-27-21V19 5z"/><glyph glyph-name="undefined" unicode="跁" horiz-adv-x="1024" vert-adv-y="918" d="M70-32 42 28 86 39V396l64-11 16-11-16-10V55l53 14 16 5V509H150V492L86 460V820l64-32H338l33 27 59-48-27-22V476l-65-32v65H284V310h63l34 37 43-37V288H284V93l147 44 4-9-70-40-72-35-73-31L145-6 91-25 84-44 70-32zM923 30l32 135h11L955 30l19-13L987-2 974-22 955-34H560l-14 1-14 2-12 4-13 7-11 9-8 10-7 13-4 13-3 13V52 804l64-32H876l32 27 59-49-27-21V406l-64-32v65H538V45l1-5 1-3 2-2V34l1-1 5-1 5-1 7-1H923zM678 750H538V460H678V750zm198 0H743V460H876V750zM338 767H150V530H338V767z"/><glyph glyph-name="undefined" unicode="跃" horiz-adv-x="1024" vert-adv-y="918" d="M709 545l-6-85H851l54 54 64-54V439H706l16-53 19-56 20-53 24-50 25-46 27-44 30-41 32-37 35-34 49-43-58-43-38 38-36 41-32 43-29 47-25 49-22 52-18 55-15 57-10 60-3 37-7-41-18-76-26-71-31-66-39-60-45-55L480 1 423-41 360-76l-5 8 56 43 50 47 43 50 38 54 32 58 26 63 20 68 14 73 5 51H416v21H642v4l3 83V701l-53-10-50-9-51-6-53-5-2 9 148 45 90 30 86 31 112 49 5 2 5-11 43-38V770l-20 9-42-16-42-15-43-13-69-19V546v-1zM61-32 34 28 79 39V396l65-11 16-11-16-10V55l72 19V509H144V492L79 460V820l65-32H339l33 27 59-48-27-22V509l-65-33v33H281V310h69l34 37 43-37V288H281V93l113 33 40 11 4-9-36-21-73-37-37-17-76-31L1e2-19 82-25 75-45 61-32zM339 767H144V530H339V767z"/><glyph glyph-name="undefined" unicode="跄" horiz-adv-x="1024" vert-adv-y="918" d="M871 14l32 134h11L903 14 922 1l13-19-13-20-19-13H589l-14 2-13 2-13 4-12 7-10 9-10 10-6 13-4 13-3 13-1 13V498l65-32H792l32 26 59-48-27-16v-4-29l-3-53-1-24-2-23-6-41-3-17-4-17-4-14-5-12-7-11-9-11-10-9-11-7-12-6-13-4-14-2-13-1v32L631 191v17H739h7l5 1 5 1 4 2 3 2 5 5 2 5 2 5 2 6 4 14 5 33 4 41 2 23 2 51 1 28v19H568V35 29l1-5 1-3 1-2 1-1 1-1h2l3-1 5-1 6-1H871zM61-32 34 28 79 39V396l65-11 16-11-16-10V55l72 19V509H144V492L79 460V820l65-32H339l33 27 59-48-27-22V509l-65-33v33H281V310h69l34 37 43-37V288H281V93l113 33 40 11 4-9-36-21-73-37-37-17-76-31L1e2-19 82-25 75-45 61-32zM904 484l-30 27-28 29-28 32-26 34-25 36-24 38-23 40-21 43-6 15-25-45-59-91-31-44-34-43-35-41-37-40-38-39-41-37-8 7 96 130 59 89 53 91 47 94 24 53 56-33 10-17-20-2-7-15 72-93 28-33 56-60 29-26 58-47 48-32-59-45-31 25zM339 767H144V530H339V767z"/><glyph glyph-name="undefined" unicode="跅" horiz-adv-x="1024" vert-adv-y="918" d="M908 128l-16 19-21 19-24 19-27 19-19 12V-24L736-56V253L634 304l3 9 48-11 44-13 7-2V498H566V423l-1-63-5-61-9-58-14-54-18-52-22-47-27-44L439 3 403-33 363-65l-6 7 31 39 28 39 24 42 20 43 17 46 12 48 8 52 6 53 1 57-3 60V772l65-32v-4l167 63 92 37 29 13 4-10 46-40 1-17-21 9-38-13-64-18-67-17-70-15-36-5-37-6h-6V519H854l54 54 65-54V498H801V263l42-19 31-17 29-18 27-19 23-20 20-21 6-24-12-21-23-7-22 13-14 18zM49 27l10 4 33 8V396l59-11 15-11-15-9V55l67 19V509H154V492L89 460V820l65-32H328l32 27 60-48-27-22V476l-65-32v65H277V310h57l34 37 43-37V288H277V93l140 44 4-9-65-40-68-34-70-31L148-6 98-24 92-44 77-31 49 27zM328 767H154V530H328V767z"/><glyph glyph-name="undefined" unicode="跇" horiz-adv-x="1024" vert-adv-y="918" d="M807 842l64-11 16-11-16-9V573h23l44 48 54-48V552H871V245l-64-32v64H701V213l-64-32V552H538V46H856l54 54 64-54V25H538V-40L474-72V552H399v21h75V842l64-11 16-11-16-9V573h99V842l64-11 16-11-16-9V573H807V842zM39 27l10 4 34 8V396l59-11 15-11-15-9V55l68 19V509H145V492L80 460V820l65-32H322l32 27 60-48-27-22V476l-65-32v65H270V310h59l34 37 43-37V288H270V93l142 44 4-9-66-40-69-34-71-31L139-6 88-24 82-44 67-31 39 27zM807 552H701V299H807V552zM322 767H145V530H322V767z"/><glyph glyph-name="undefined" unicode="跉" horiz-adv-x="1024" vert-adv-y="918" d="M69-32 41 28 84 39V396l65-11 16-11-16-10V55l52 14 15 5V509H149V492L84 460V820l65-32H334l32 27 59-48-26-22V476l-65-32v65H280V310h62l33 37 43-37V288H280V93l145 44 4-9-68-40-72-35L180 8 90-24 84-44 69-32zM763 62V78h64l6 1 5 1 4 1 2 1 1 1v1l1 1 1 4 1 5 1 6V326H663V-45L599-77V326H437v21H849l32 27 59-48-27-22V1e2 87l-3-14-4-13-7-12-9-11-11-9-12-6-13-5-13-2-14-1V46L763 62zM941 459l-32 28-62 62-55 70-26 38-24 40-24 42-20 44-3 7-20-41-24-46-27-44-27-41-29-40-31-37-32-35-34-31-36-29-7 7 55 72 52 77 46 82 22 44 39 93 21 56 57-30 11-15-19-4-7-16 69-93 28-35 58-64 30-29 62-52 48-35-59-45zM775 552l65-54V476H518v22H722l53 54zM334 767H149V530H334V767z"/><glyph glyph-name="undefined" unicode="跊" horiz-adv-x="1024" vert-adv-y="918" d="M905 43 880 71l-24 31-45 72-43 86-19 49-19 51-14 47V-51L652-83V355l-25-50-28-50-29-48-33-46-34-43-37-41-38-37L387 5 343-27l-6 7 36 39 66 82 32 42 29 44 27 46 25 48 23 49 21 51 12 31H421v21H652V643H442v21H652V858l64-11 16-10-16-10V664H824l54 54 64-54V643H716V433H861l54 54 65-54V412H727l76-134 25-40 25-37 25-33 25-29 24-25 24-22 38-29-58-44-26 24zM39 27l10 4 34 8V396l59-11 15-11-15-9V55l68 19V509H145V492L80 460V820l65-32H322l32 27 60-48-27-22V476l-65-32v65H270V310h59l34 37 43-37V288H270V93l142 44 4-9-66-40-69-34-71-31L139-6 88-24 82-44 67-31 39 27zM322 767H145V530H322V767z"/></font>
</defs>
</svg>
