<svg xmlns="http://www.w3.org/2000/svg"><defs><font name="Jigmo Regular" horiz-adv-x="1024" vert-adv-y="1024"><font-face font-family="Jigmo" font-weight="400" font-stretch="normal" units-per-em="1024" ascent="995" descent="169"/><glyph glyph-name="undefined" unicode="㓃" horiz-adv-x="1024" vert-adv-y="918" d="M75 210l64-33H304l33 27 59-48-27-22V-27L304-59V-5H139V-43L75-75V210zM920 25l32 134h11L952 25l20-13L985-8 972-27 952-40H710l-14 1-14 2-12 5-13 6-11 9-8 11-7 12-4 13-3 13V46 317L398 301l-2 21 228 17V555l-31-5-54-9-57-7-60-7-1 10 57 17 55 15 52 15 49 14 46 14 43 13 40 13 37 13 34 12 26 10v1-1l5 2 3-9 48-41 2-17-22 10-10-4-33-9-36-9-39-10-42-9-45-9-3-1V343l170 13 49 57 68-49 2-21-289-21V40l1-5 1-3 1-2 1-1 1-1 2-1 3-1 5-1h7H920zM304 156H139V16H304V156zm10 176 53-49V262H77v21H270l44 49zm0 110 53-48V373H77v21H270l44 48zm46 119 54-48V491H56v22H316l44 48zM303 677l64-54V602H77v21H249l54 54zM61 637 41 651l-3 24 14 20 11 5 10 8 10 10 9 12 9 16 8 18 7 21 6 24 6 26 3 29 10 1 3-30 2-19H894l3 3 2 4 1-2 26 22 59-48-27-17-23-9-1-1-11-12-12-11-12-12-13-13-15-13-15-13-18-14-16-15-7 6 12 19 11 19 10 17 10 16 8 16 8 15 8 14 4 8H147l1-15-2-25-4-23-6-22-9-20-11-19-14-17-17-14-24-3z"/><glyph glyph-name="undefined" unicode="㓸" horiz-adv-x="1024" vert-adv-y="918" d="M66 2 77 4l56 8 57 8 58 8 1 1V240H164V175L99 143V509l65-33h85V6e2H174V562l-64-32V831l64-32h75l29 27 57-49-27-18V423l-59-30v62H164V261h85l29 27 57-48-27-19V37l57 8 8 1V291l59-30h80V460H432V428l-59-30V828l59-29h69l33 27 59-49-27-21V578l-65-32v54H432V482h80l32 27 59-49-26-21V208l-65-33v65H432V54l54 8 61 8 63 7 63 6 2-9-61-17-62-16-60-14L373 0 257-25 2e2-37 143-48l-34-7-8-19L88-60 66 2zM731-24V-8H839l7 1 5 1 5 2 1 1v1l1 1 1 4 1 5V863l65-10 16-11-16-10V14L924 1l-2-14-5-13-6-12-9-11-10-9-13-7-13-4-13-2-14-1v32L731-24zM657 783l64-11 16-11-16-9V138l-64-33V783zm-156-6H432V621h69V777zm-252 0H174V621h75V777z"/><glyph glyph-name="undefined" unicode="㕆" horiz-adv-x="1024" vert-adv-y="918" d="M125 831l64-32H867l54 54 64-54V777H189V449l-3-75-5-71-8-66-10-61-13-57-16-51-19-45L94-18 70-52 42-80l-7 6L52-41 68-5 82 35 95 80l10 50 8 54 7 59 3 64 2 69V831zm443-94 65-11 16-11-16-10V541H859l54 54 64-54V519H633V317H796l32 27 59-48-27-22V-11L796-43V22H405V-43L341-75V349l64-32H568V519H224v22H568V737zM405 296V43H796V296H405z"/><glyph glyph-name="undefined" unicode="㕻" horiz-adv-x="1024" vert-adv-y="918" d="M224 318l64-33H735l32 27 59-48-26-22V-13L735-46V19H288V-46L224-78V318zm511-54H288V40H735V264zM480 869l64-11 16-11-16-9V730H813l54 53 64-53V708H575l32-32 5-19-20 5-27-27-44-40-23-18 46-8 16-11-16-10V340l-64-32V562l-7-6-51-38-54-37-57-36-60-35-63-34-66-32-70-30-5 9 65 39 62 39 58 39 57 39 53 39 50 39 46 40 44 41 40 40 27 30H93v22H480V869zM880 358l-19 20-21 20-25 21-28 20-30 21-34 20-36 21-39 22-41 23 3 8 46-12 43-15 40-15 37-17 35-17 32-18 30-19 27-20 24-20 22-22 7-24-11-22-24-6-22 11-16 20z"/><glyph glyph-name="undefined" unicode="㖦" horiz-adv-x="1024" vert-adv-y="918" d="M893 34 859 59 829 85l-29 28-27 29-24 31-22 31-19 34-16 34-6 19V-45L621-77V222l-5-7-31-40-35-38-37-35-40-34-43-31L384 9 335-16 284-39l-5 9L325 2l43 31 41 33 37 33 35 35 32 36 30 38 25 39 24 41 8 16H479V240l-64-32V632l64-32H621V702H350v22H621V869l65-11 16-11-16-9V724H861l54 53 65-53V702H686V6e2H833l32 27 59-49-27-21V272l-64-32v64H695l16-21 24-28 23-27 25-26 26-25 28-23 29-23 30-21 33-20 34-18 25-14-60-48-35 24zM63 745l65-32H255l32 27 59-49-26-21V186l-65-32v64H128V154L63 121V745zm192-54H128V240H255V691zM621 439H479V326H621V439zm212 0H686V326H833V439zM621 578H479V460H621V578zm212 0H686V460H833V578z"/><glyph glyph-name="undefined" unicode="㚵" horiz-adv-x="1024" vert-adv-y="918" d="M524 1l10 3 36 10 37 12 39 13 41 14 42 15 43 16 44 18 47 18 48 19 50 20 5-10-46-28-45-27-44-24-43-23-42-21L706 6 666-12 628-28 590-44l-16-6-5-20-16 12L524 1zM343 101l-18 25-20 24-21 23-6 6-37-65-43-57L151 8 98-33 41-65l-5 8L86-17l44 45 40 50 36 57 31 64 5 13-6 5-26 21-28 20-30 20-14 9-6-21-18-62-62 18 18 61 16 62 16 62 15 62 15 63 14 63 2 10H39v22H152l7 32 12 64 12 65 10 59 3 16 62-21 14-13-18-7-8-45-11-66-13-65-4-19H328l32 27 60-49-27-16-4-1-10-76-18-94-22-87-28-79-12-28 18-14 27-22 24-25 24-25 21-28 4-24-13-21-24-4-21 14-16 26zm341 81-7 14-10 14-9 13-11 14-12 12-14 13-14 12-15 13-18 11 4 9 40-12 20-7 18-10 17-10 17-11 16-12 14-14 14-15 12-15 4-25-15-20-25-3-19 15-7 14zM327 605H214l-5-23-14-64-15-64-15-63-16-63-7-26 19-6 35-13 33-15 29-16 6 17 23 77 18 84 14 91 8 84zM870 289l-54 32-49 35-45 40-27 29-18-18-52-47-57-44-60-40-65-36-69-31-4 9 62 40 60 42 54 44 51 46 48 49 20 23-16 22-29 50-24 53-17 55-2 10-18-28-27-38-29-35-31-33-34-29-36-27-6 7 28 34 27 35 24 35 24 36 21 38 19 40 18 40 15 43 14 45 10 41 4 14 60-25 13-14-20-6-9-29-17-46-15-32H818l2 2h1l30 25 59-48-27-16-13-6-23-44-36-61-40-58-41-49 29-26 43-33 47-29 51-26 55-22 35-15-61-51-59 28zM810 697H601l-11-23 10-24 25-50 28-46 32-43 10-11 32 44 35 56 31 59 17 38z"/><glyph glyph-name="undefined" unicode="㛒" horiz-adv-x="1024" vert-adv-y="918" d="M338 92l-17 26-20 24-21 24-5 5-37-65-42-58L149-2 97-43 41-75l-5 8L85-27l43 45 40 52 35 57 31 64 5 14-5 5-27 21-27 21-30 19-14 9-5-20-18-63-62 18 17 61 33 125 15 63 14 64 14 64 2 10H38v22H150l7 32 12 65 11 65 11 61 2 15 62-20 15-14-18-7-8-46-12-66-12-65-4-20H324l32 26 59-48-27-16-3-1-10-77-17-95-23-87-27-81-13-28 19-14 27-23 24-25 23-26 21-28 4-24-14-21-24-3-21 13-16 26zM790 280l59-28 12-15-20-5-1-3-10-23-11-24-11-25-12-25-13-26-14-25-15-27-16-26-10-14H870l53 54 65-54V-8H353V14H713l6 23 9 29 8 29 9 27 8 27 8 26 7 26 7 24 7 23 4 19 4 13zM550 87l-5 22-5 20-5 20-6 20-8 20-7 19-8 19-9 19-10 19 7 6 33-30 14-16 14-19 12-18 12-20 10-21 10-21 9-23 8-23-5-24-19-15-25 5-14 20-3 21zM323 602H212l-5-24-14-64-14-65-31-126-8-28 19-5 35-14 32-15 28-16 7 17 22 78 18 85 14 92 8 85zm137 57 65-33H816l32 27 59-48-27-22V338l-64-33v33H525l-65-33V659zm356-54H525V359H816V605zm81 226 65-54V756H379v21H844l53 54z"/><glyph glyph-name="undefined" unicode="㛚" horiz-adv-x="1024" vert-adv-y="918" d="M782-18V-2h86 7l5 1 5 2 1 1 1 1 1 2 1 3 1 5V213H726V-8L661-40V213H501V-40L437-72V632l64-32H702l-10 7-6 13-8 12-8 13-11 13-12 13-13 13-15 14-16 13-18 15-19 13 4 8 23-7 22-8 21-8 19-10 18-10 17-10 16-12 11-9 10 9 16 20 16 17 14 17 13 16 12 14 10 14 2 3H449v21H823l3 3 4 6 2-1 23 19 59-48-27-16-27-12-2-1-13-11-14-11-16-12-18-11-18-13-20-13-22-13-11-7 8-7 12-14 4-24-12-18H890l32 27 59-49-27-21V19 6L951-8l-4-12-7-13-8-11-11-8-12-7-13-4-14-3-14-1v33L782-18zM329 102l-17 24-19 25-20 23-4 4-34-63-41-58L149 8 98-33 44-65l-5 8L85-17l43 44 37 51 34 57 30 63 5 14-6 5-25 21-26 20-28 20-13 8-5-19-16-62-63 16 17 62 16 62 15 61 15 63 13 63 14 63 2 10H42v22H148l6 32 12 64 11 65 10 65 2 10 62-21 14-12-17-8-7-45-12-65-12-65-4-20H315l32 27 59-49-27-16-3-1-9-75-17-94-22-87-27-80-12-28 19-14 25-23 24-24 22-26 20-27 3-25-14-20-24-4-20 14-15 27zM661 401H501V234H661V401zm229 0H726V234H890V401zM314 605H209l-5-23-12-64-14-63-15-64-15-62-8-27 18-6 34-13 31-15 26-16 5 16 21 78 18 84 13 91 8 84zm347-27H501V423H661V578zm229 0H726V423H890V578z"/><glyph glyph-name="undefined" unicode="㞳" horiz-adv-x="1024" vert-adv-y="918" d="M130 125V61L71 31V645l59-11 15-11-15-9V147h68V802l59-11 14-10-14-10V147h73V645l65-11 16-11-16-10V186l319 52V853l64-11 16-10-16-10V248l81 14 45 62 72-43 4-21-202-33V-56L714-88V217L395 165V93L330 61v64H130zM538 354l-9 14-11 15-11 14-12 15-13 15-14 15-15 15-16 16-17 15 5 8 42-19 20-10 19-12 17-11 17-12 16-13 15-14 15-14 13-14 5-24-12-21-25-5-21 12-8 15zm41 235-9 15-11 14-11 15-12 14-13 15-14 15-15 15-15 16-18 15 5 9 21-11 21-9 20-10 18-11 18-12 17-12 16-13 16-13 14-14 13-15 5-24-13-21-23-5-22 13-8 14z"/><glyph glyph-name="undefined" unicode="㨂" horiz-adv-x="1024" vert-adv-y="918" d="M885 34 854 60 825 86l-27 27-25 29-22 31-20 32-18 33-15 35-3 10V-45L630-77V216v-1l-30-40-33-37-35-36-38-33-41-31L410 9 364-16 315-38l-5 8L353 1l41 32 38 32 35 34 33 35 29 36 28 38 24 38 22 41 8 17H501V240l-64-32V632l64-32H630V702H378v22H630V869l65-11 16-11-16-9V724H871l44 48 54-48V702H695V6e2H829l32 27 60-49-27-21V272l-65-32v64H702l16-21 22-28 22-28 24-26 24-25 26-23 28-22 29-21 30-20 32-18 23-14-60-47-33 23zM91-18V-2h75 6l5 1 5 2 2 2 2 5 1 5v6V316l-12-7-32-18-33-17-13-8-3-20-16 10-37 54 9 4 34 14 33 15 34 15 34 13 2 2V632H55v22H187V863l65-10 16-11-16-10V654h17l54 53 64-53V632H252V4e2l32 14 33 14 34 13 34 13 4-8-28-22-30-21-30-20-31-19-18-11V19L251 6 249-8l-5-12-7-13-8-11-11-8-12-7-13-4-14-3-13-1v33L91-18zM630 439H501V326H630V439zm199 0H695V326H829V439zM630 578H501V460H630V578zm199 0H695V460H829V578z"/><glyph glyph-name="undefined" unicode="㨮" horiz-adv-x="1024" vert-adv-y="918" d="M96-23V-7h75l7 1 4 1 5 1 2 2 2 5 1 5 1 7V311l-8-5-29-18-31-17-11-6-2-21-17 9-39 53 10 5 32 14 31 15 31 14 31 14 2 1V631H72v22H193V863l64-10 16-11-16-10V653h26l44 48 54-48V631H257V399l58 26 31 14 32 13 5-9-26-22-28-20-28-20-28-19-16-10V15L256 1l-2-13-4-13-7-13-9-10-11-9-12-7-13-4-13-2-14-2v33L96-23zM584 292l62-17 15-13-18-8-6-37-13-54-17-48-22-43-26-39L529 1 495-27 457-48 416-63l-44-8-2 9 39 18 34 21L473 1l26 27 23 32 18 35 16 39 12 44 9 49 5 49 2 16zM784-51l-14 2-13 2-13 4-13 7-10 9-9 10-7 13-4 13-2 13-1 13V283l65-11 16-11-16-9V29l1-5 1-5 2-2 5-1 5-1 7-1H911l32 134h11L943 14 963 1l12-19-12-20-20-13H784zM650 871l58-28 13-15-23-5-3-7-8-13-7-14-8-13-8-13-17-26-10-12v-1h91l32 26 60-48-27-21V342l-65-32v32H610l-65-32V732l-17 7-13-6-13-5-27-9-14-4-14-4V358h17l33 38 43-38V337H447V272l-64-32V750l50-24 5 4 11 10 10 9 10 8 10 10 8 8 8 8 8 8 3 4-1 1 5 4 35-46v2l65-32h13l2 6 2 15 2 15 6 30 2 15 2 14 6 29 1 9h-1l2 5v1l3 8zm266-94 59-48-26-22V304l-65-32v65H804v21h80V729H811v21h73l32 27zM728 530H610V363H728V530zm0 172H610V552H728V702z"/><glyph glyph-name="undefined" unicode="㪌" horiz-adv-x="1024" vert-adv-y="918" d="M877-30 826 3 780 40 738 82l-6 7-48-45L628 3 567-31 502-58 432-76l-2 9 8 4v31L363-16V1h75 7l5 1 3 1 2 1 1 1 1 1 1 2 1 3v5l1 6V222H329V-4L264-37V222H136V-38L72-70V650l64-32H302l-13 11-4 12-6 13-7 13-9 13-10 13-10 13-12 14-14 14-14 14-16 13 5 8 38-16 19-9 17-10 16-10 15-12 14-12 6-6 6 8 14 19 13 18 11 17 21 31 8 13 3 6H87v22H402l4 3 1 3 2-1 26 22 59-49-27-16-23-9-2-3-12-10-13-12-14-12-15-13-16-13-19-13-19-14-8-6 10-11 10-15 2-25-13-16H460l32 27 59-48-27-22V22 9L521-5l-4-13-6-11L553-6l54 38 50 42 45 48 2 3-3 4-33 52-29 56-23 61-19 65-11 65H537v21H688V863l64-10 16-11-16-10V670H886l44 48 53-48V648H752V449H862l32 27 59-48-27-16-8-4-21-59-33-74-38-67-43-62-14-16 9-10 40-35 43-29 47-25 50-21L994-4 932-56 877-30zM597 428l22-59 26-59 29-56 32-49 29-39 8 10 36 59 32 65 28 71 18 57H597zM264 415H136V244H264V415zm196 0H329V244H460V415zM264 597H136V437H264V597zm196 0H329V437H460V597z"/><glyph glyph-name="undefined" unicode="㪗" horiz-adv-x="1024" vert-adv-y="918" d="M98 331l65-32H366l33 27 59-49-27-21V19L366-13V19H163V-45L98-77V331zM865-30 807 2 755 39 707 81l-9 10-59-48L576 2 508-32 435-58 357-76l-3 9 74 28L495-6l63 38 56 43 52 48 1 2-2 3-38 52-32 56-28 61-21 65-14 66H505V406H24v22H294l6 23 8 30 8 29 8 27 8 26 7 25 6 23 6 22 6 22 3 15 4 13 59-28 12-15-20-5-9-21-10-21-10-23-12-24-12-24-13-26-14-26-17-27-9-15h98l44 48 30-27H651V863l64-10 16-11-16-10V670H863l54 54 64-54V648H715V449H848l32 27 59-48-26-16-11-4-23-60-37-74-43-68-48-61-15-16 8-8 46-34 49-31 54-25 57-21L989-3 926-57 865-30zM366 277H163V41H366V277zM543 428l24-58 29-60 32-55 36-49 37-43 12 14 41 60 37 65 32 70 19 56H543zM149 497l-3 21-3 21-5 20-9 37-6 19-7 18-6 18-8 17 8 6 14-14 14-14 13-16 12-18 10-18 11-20 9-20 8-21 7-23 7-22-6-25-20-13-24 5-14 21-2 21zM43 702v22H232V863l65-10 16-11-16-10V724h71l54 53 64-53V702H43z"/><glyph glyph-name="undefined" unicode="㭔" horiz-adv-x="1024" vert-adv-y="918" d="M355 361l-8 13-8 13-9 12-10 12-12 12-12 12-13 12-11 10V-40L208-72V433l-12-31-19-48-22-46-24-45-25-43-28-40-30-39-9 5 21 44 20 44 20 45 17 45 17 46 15 48 14 48 11 50 11 50 5 34H43v21H208V863l64-10 16-11-16-10V621h32l54 54 64-54V6e2H272V474l3-1 19-6 18-7 17-8 17-9 15-10 15-11 14-11 13-13 12-14 5-24-13-20-25-5-20 13-7 13zM559-24V-8h86l6 1 5 1 5 2 2 2 1 1 1 4 1 5v6V299H415v21H666V726l-36-5-51-7-52-5-55-4-57-2-1 9 55 14 53 12 51 11 50 12 48 12 45 11 44 13 42 12 40 12 33 11 5 2 3-8 51-43 1-17-22 10-14-4-41-10-42-9-43-9-42-8V320H864l54 54 64-54V299H731V14L730 1l-2-14-5-13-6-12-9-11-11-9-12-7-13-4-14-2-13-1v32L559-24zM870 667l59-28 12-15-21-5-2-5-10-26-13-26-13-26-14-27-15-27-16-27-17-28-19-28-21-27-8 5 11 32 11 31 12 30 10 29 11 28 9 28 9 27 8 27 8 25 5 20 4 13zM538 440l-3 21-5 22-6 22-8 21-8 22-11 21-10 22-13 22-13 23 7 6 21-17 19-18 18-19 16-21 14-21 12-22 12-23 9-24 8-24 7-26-6-23-21-13-24 6-13 21-2 22z"/><glyph glyph-name="undefined" unicode="㰯" horiz-adv-x="1024" vert-adv-y="918" d="M876-15 844 22 815 62l-27 46-23 50-20 53-15 59-12 63-2 24-15-66-26-70-31-64-39-59-45-52L508 0 450-39 386-70l-5 8 58 40 50 44 45 48 38 51 31 57 26 61 20 67 14 71 7 77 1 81v70H608l-6-13-20-43-22-43-24-43-26-42-9 4 17 47 16 46 16 45 14 43 14 43 12 43 11 41 9 41 8 40 7 35 2 15 61-23 14-13-19-7-5-21-12-40-14-42-15-42-16-42-4-7H880l32 27 59-49-27-16-14-6-7-12-9-15-11-16-13-19-14-20-15-21-18-24-19-25-8 5 13 28 10 27 10 25 9 23 7 20 6 18 4 15 4 13H736V535l-5-86-2-10 7-37 14-63 17-59 20-53 23-48 26-44 27-38 29-34 30-29 32-24L969-2 910-46 876-15zM44 40l11 1 40 7 42 6 43 8 44 8 46 10 5 1 3 7 11 31 12 30 11 29 11 28 9 27 9 26 8 25 6 24 5 18 4 13 59-28 12-15-20-5-2-3-11-24-11-25-13-25-14-26-15-27-16-27-18-28-14-20 14 3 48 10 47 11 50 11 50 11 3-9-47-21-48-19-46-17-46-16-45-15-45-13-43-12L150-2 107-12 88-17 79-36 66-22 44 40zM159 152l-2 18-4 19-4 18-5 19-7 18-8 18-9 19-10 19-12 19 7 6 17-14 17-15 16-16 14-18 13-17 11-20 10-19 8-21 7-21 6-22-6-24-21-12-24 6-13 21-1 19zM98 670l65-32H372l32 26 60-48-27-21V396l-65-33v33H163L98 363V670zm274-54H163V417H372V616zm49 215 64-54V756H55v21H367l54 54z"/><glyph glyph-name="undefined" unicode="㳆" horiz-adv-x="1024" vert-adv-y="918" d="M703 853l64-11 16-10-16-10V248l90 14 45 62 72-43 3-21-210-33V-56L703-88V217L362 163l-3 21 344 54V853zM229 114l3-4 13-34 9-36 5-40V-43L248-65l-24-8-22 12-7 23 3 37-1 33-4 31-7 27-11 25-14 22-17 21-22 18-27 17-31 16 2 9 37-6 33-11 30-16 17-13 1 2 9 18 12 26 15 34 19 42 22 49 26 57 29 64 33 73 37 79 9-4-27-83-25-75-23-67-21-59-18-51-14-43-12-35-9-28-5-19-2-11-10-27zM521 353l-10 15-11 14-12 15-12 15-14 14-15 15-15 16-16 16-19 15 6 8 21-9 22-10 20-10 20-11 18-12 17-12 16-13 16-14 15-13 13-15 6-24-12-21-24-6-21 13-9 14zM180 455l-8 11-8 11-11 11-12 11-14 12-16 11-17 11-19 12-20 10 2 9 24-5 22-4 21-6 20-7 19-7 18-9 16-9 15-11 14-12 12-13 5-25-13-20-24-5-21 14-5 10zM563 589l-10 14-10 15-12 14-13 15-14 15-14 15-16 15-16 16-18 15 5 9 22-10 21-9 21-11 19-11 18-11 18-13 16-13 15-13 15-14 14-14 6-24-13-21-24-6-21 12-9 15zM272 710l-6 10-8 11-10 10-12 12-13 11-16 11-16 12-19 12-21 11 3 9 23-6 23-4 21-7 20-7 18-7 16-9 17-9 14-10 13-12 12-12 4-24-13-21-25-4-20 13-5 10z"/><glyph glyph-name="undefined" unicode="㹥" horiz-adv-x="1024" vert-adv-y="918" d="M368-35v22H645V316H431v22H645V619H408v22H645V854l64-11 16-11-16-9V641H851l53 54 65-54V619H648l61-10 16-11-16-9V338H816l54 53 65-53V316H709V-13H868l54 53 64-53V-35H368zM317-21l-8-10-9-10-11-8-10-7-12-6-13-4-12-3-13-2-13-1v32L141-24V-8h75l7 1 7 1 6 2 6 1 5 3 5 3 4 4 4 4 5 6 4 6 16 35 15 57 9 74 4 85-6 94-7 41-8-16-22-39-25-38-28-36-29-34-32-33-34-30-37-29-39-26-6 9 32 33 30 33 28 34 27 35 23 35 22 36 20 37 18 38 15 39 13 40 7 19-15 51-15 33-31-30-40-33-41-31-43-27-45-23-5 8 38 32 37 32 36 35 34 36 32 38 7 9-9 19-61 92-79 89 6 7 94-77 72-93 2-4 30 41 28 46 27 47 23 45 5 11 55-36 9-17-20-1-19-33-31-48-34-45-34-43-14-15 25-48 36-105 22-103 10-99-1-92-8-79-14-66-20-49-7-11z"/><glyph glyph-name="undefined" unicode="㻌" horiz-adv-x="1024" vert-adv-y="918" d="M501-29v16H609l6 1 5 1 3 1h2l1 1 1 1 1 2 1 3 1 5V9 294H407v21H630V471H5e2v21H702l54 54 64-54V471H695V315H810l54 54 64-54V294H695V9L694-5l-2-13-5-13-6-13-9-10-11-9-12-7-13-4-14-2-13-1v32L501-29zm0 252 56-34 9-16-20-3-5-9-16-27-17-26-18-25-18-25-19-24-21-22-21-22-22-20-23-18-7 7 15 24L389 9l31 49 14 25 14 26 13 26 13 27 22 50 1 1 1 4 3 6zM865 16l-8 23-9 22-11 22-12 22-12 21-14 22-15 21-16 21-16 21 6 8 24-15 22-16 21-18 20-19 18-20 16-21 16-23 14-24 13-24 11-26-1-24-18-17-25 2L873-8l-8 24zM39 135l10 3 30 8 31 9 31 9 29 9V455H64v21H170V734H53v22H258l54 54 65-54V734H234V476h14l54 54 64-54V455H234V193l5 2 34 10 34 12 36 11 37 11 4-9-33-20-32-20-33-17-32-17-32-15-31-14-32-14-30-13L89 85 84 65 68 76 39 135zM871 485l-27 25-27 28-26 31-26 35-25 37-25 41-24 44-22 44-17-38-25-48-27-45-28-42-31-38-32-36-35-32-36-27-38-24-6 8 31 32 29 32 28 35 27 36 25 40 23 41 22 45 20 46 19 50 16 48 4 13 58-28 12-15-19-5-10-23 8-11 31-42 29-39 29-35 28-33 28-29 27-26 27-23 26-19 26-15 20-14-59-46-28 22z"/><glyph glyph-name="undefined" unicode="㻬" horiz-adv-x="1024" vert-adv-y="918" d="M774-47l-11-6-11-5-12-4-11-4-12-3-11-3-13-2-12-1H668v33L561-26v16H677h9l8 2 9 2 8 2 16 5 8 4 8 4 7 4 8 6 7 7 7 10 7 11 6 14 7 16 5 18 4 21 5 22 1 11H553l-7-13-72-2 55 116H351v21H884l44 49 54-49V250H601l-38-80H809l32 27 59-48-27-16-3-2v-3l-5-25-6-24-7-23-7-20-9-19L825-1 814-16 8e2-30 785-41l-11-6zM32 135l11 3 60 16 31 9 28 10V455H58v21H162V734H48v22H249l54 54 64-54V734H227V476h11l54 54 65-54V455H227V193l3 2 34 10 35 12 35 11 37 11 3-9-32-20-32-20-32-17-63-32-31-14-32-14-30-13L92 88l-9-3-5-20L63 76 32 135zM835 426l54-48V356H437v22H791l44 48zM383 531l-23 8-10 22 8 23 6 5 7 8 7 10 6 13 7 17 5 18 5 21 5 24 5 26 3 28 10 1 3-29 2-17H628v86H432v22H782l54 53 65-53V795H692V709H899l32 27 59-48-26-17-15-5v-1l-7-12-7-11-7-11-8-11-8-10-9-11-9-9-6-11-9 4 4 12 2 13 2 13 2 12 2 13 2 13 2 12 2 13 1 4H692V449l-64-32V688H431l1-14 1-24-1-22-2-20-3-19-6-17-7-17-9-15-22-9zm178 1 43-37V473H425v22H528l33 37zm290 0 43-37V473H715v22H817l34 37zM561 634l43-37V575H443v22h85l33 37zm265 0 44-37V575H715v22h78l33 37z"/><glyph glyph-name="undefined" unicode="㻯" horiz-adv-x="1024" vert-adv-y="918" d="M548-29v16H656l6 1 5 1 3 1h2l1 1 1 1 1 2 1 3 1 5V9 127H451v21H677V336l-29-3-40-2-41-1H525l-43 2-1 9 42 10 41 8 40 7 38 8 38 8 36 8 35 8 34 9 33 9 27 8v1-1l5 2 1-7 55-45 1-16-23 10-18-5-34-6-35-6-36-6-19-2V148H868l54 54 64-54V127H742V9L740-5l-2-13-4-13-6-13-10-10-10-9-13-7-13-4-13-2-13-1v32L548-29zM32 135l11 3 29 8 30 8 31 9 28 10V455H58v21H161V734H47v22H247l54 54 64-54V734H225V476h12l54 54 64-54V455H225V193l4 2 34 10 34 12 35 11 36 11 5-9-32-20-33-20-31-17-32-16-32-16-31-14-30-14-31-13L83 85 77 65 62 76 32 135zM874 328l48-42 7-18-22 2-8-7-13-12-13-13-14-14-15-14-16-14-18-15-17-14-19-16-7 6 13 20 12 20 12 19 11 18 11 17 10 17 10 15 9 15 9 14 4 9 3 4 3 3zM565 199l-4 10-4 10-6 9-7 11-7 10-9 11-10 11-10 12-12 9 5 9 14-7 15-5 15-7 13-6 13-8 12-8 12-8 11-10 9-10 9-11 4-24-15-20-25-2-20 15-3 9zM677 439l-14 1-13 2-13 4-13 7-10 9-9 11-7 12-4 13-2 13-1 14v13L483 525l-3 21 111 13V670l65-11 16-11-16-9V567l76 8 47 60 71-46 2-21-196-23V518l1-5 1-4 2-3 5-1 5-1 7-1H905l31 130-1-2-28-37-10-13-10-12-11-12-9-13-8 5 6 14 3 16 4 16 4 15 9 29 4 14 4 14 1 3H452V401l-3-68-5-65-8-59-11-55-14-50-16-45-20-41-22-35-25-30-28-23-7 7 19 29L329-3l15 36 12 39 11 44 8 47 7 53 4 57 2 62v66V724l64-33H609V863l65-10 16-11-16-10V777H819l54 54 64-54V756H674V691H899l3 3v1-1l29 24 59-48-27-16-17-7-3-5-3-4h8L937 503l20-13 12-19-12-19-20-13H677z"/><glyph glyph-name="undefined" unicode="㼥" horiz-adv-x="1024" vert-adv-y="918" d="M881 27l1-5 1-5 2-1 2-1 3-2 5-1h31l33 135h10L959 12 978-1l13-19-13-19-19-13H902 888l-14 3-13 4-11 7-12 9-8 11-7 12-4 13-2 13-1 14 4 533H674L650 45l13 3 32 10 34 9 35 9 37 8 3-9-32-18-33-17-31-15-31-15L647-3 618-17 590-30 564-42 538-54l-5-2-5-20-15 11L480-9l9 5 27 8 27 8 29 9 13 4 34 764H521v21H845l54 54 65-54V789H684l-9-2e2H821l32 27 59-49-27-16-5-2 1-516V27zM410-19l-9-10-9-9-11-8-11-7-12-5-12-4-12-3-13-2H307v32L221-19V-3h94l7 1 7 2 6 2 10 6 5 3 5 5 5 6 5 5 2 6 5 9 4 13 4 17 4 19 4 23 4 25 3 29 4 31 1 21H218l-12-68-69-21 26 152-9-9-56-51-59-48-7 7 52 55 48 57 41 50 18 105 38-28 37 55 22 37H45v21H230V698H94v21H230V869l65-11 16-11-16-9V719h27l34 38 40-35 14 32 28 71 4 13 58-31 10-16-19-4-25-57-37-75-39-71-30-50h60l54 54 64-54V513H347l-43-62-47-62-13-15-5-29 20 7 27 9 25 9 24 10 23 9 22 10 21 10 19 9 14 8 4 2 6-12 40-38 1-17-20 9-21-8-22-7-24-7-25-6-25-5-26-5-28-4-29-3-29-2h-1l-13-81H401l33 27 59-49-27-16-3-1V193l-4-32-3-30-4-27-5-25-4-22-5-19-6-18-6-15-8-14-8-10zM728 259l-3 22-2 22-3 21-5 20-5 19-6 19-7 19-7 19-9 18 8 6 15-14 15-16 13-17 13-19 11-19 9-21 9-22 7-24 7-24 5-25-7-23-22-12-24 7-11 21-1 23zM385 698H295V534h6l5 8 37 68 35 71 7 17z"/><glyph glyph-name="undefined" unicode="㼯" horiz-adv-x="1024" vert-adv-y="918" d="M392 92l-9 16-10 15-10 15-11 14-12 15-13 14-13 14-14 15-4 2V-51L232-83V159l-4-8-21-40-22-37-25-34-25-29-28-26L78-37 48-54l-6 8L65-22 87 5l20 28 20 30 18 34 18 36 16 40 15 42 14 45 8 28H149V224L84 191V643l65-32h83v91H45v22H232V869l64-11 17-11-17-9V724h81l53 53 65-53V702H296V611h84l32 27 59-49-27-21V277l-64-32v43H296V227l12-4 20-8 18-10 18-10 17-12 16-13 16-14 15-15 14-15 12-17 4-24-14-20-24-4-20 15-8 16zM873 31V26l1-3 1-2 1-1 1-1 2-1 3-1h5l7-1h32l32 135h11L958 16 978 3l12-19-12-19-20-13H894l-14 1-14 2-13 4-12 7-11 9-8 10-7 13-4 13-2 13-1 14 4 499H651L626 46l17 4 35 9 36 8 37 8 39 7 3-9-36-17-34-16-34-15-33-14L624-2 593-15 563-27 534-39 506-50l-7-2-5-21-15 12L448-3l10 4 28 7 29 8 30 8 15 4 37 717H490v22H845l54 53 65-53V745H662l-9-187H813l32 27 59-48-26-17-6-2V38l1-7zM713 247l-2 20-3 20-4 19-4 19-6 19-7 18-7 18-8 18-10 17 8 6 15-13 16-14 14-16 12-17 12-19 10-19 9-21 8-22 7-23 5-24-6-23-22-13-23 7-13 21-1 22zM232 439H149V310h83V439zm148 0H296V310h84V439zM232 589H149V460h83V589zm148 0H296V460h84V589z"/><glyph glyph-name="undefined" unicode="䀾" horiz-adv-x="1024" vert-adv-y="918" d="M189 409l65-32H770l32 27 59-49-26-21V-26L770-58V-4H254V-42L189-74V409zM770 120H254V17H770V120zm0 118H254V142H770v96zm0 117H254V260H770v95zm97 63-46 30-43 33-39 36-13 14-4-4-44-32-48-29-51-25-55-21-3 9 49 30 45 31 42 33 38 34 4 5-28 36-28 46-24 48-20 52-14 51H528v21H845l33 27 59-48-27-17-10-4-13-32-26-49-29-47-33-43-33-36 10-10 39-30 41-26 43-24 46-20 33-15-61-50-50 26zM442 870l65-54V795H289l-12-34-15-34-17-32-20-30-1-2H404l33 27 59-49-27-21V453l-65-33v43H222V447l-65-32V588l-3-3-28-23-31-20-32-18-6 8 26 26 24 25 22 26 20 26 18 28 15 28 15 29 12 30 11 32 3 13H71v21H388l54 54zM404 641H222V485H404V641zM840 795H597l23-42 27-46 29-42 31-39 25-27 27 35 28 42 23 44 20 46 10 29z"/><glyph glyph-name="undefined" unicode="䁈" horiz-adv-x="1024" vert-adv-y="918" d="M189 381l65-32H770l32 27 59-49-26-21V-47L770-79v43H254V-52L189-84V381zM770 90H254V-15H770V90zm0 119H254V112H770v97zm0 118H254V231H770v96zM116 757l64-32H409l33 27 59-49-27-21V530l-65-32v54H179l-2-28-5-37-7-35-10-33-12-30-14-28-18-25-19-22-21-19-25-15-6 8 16 21 14 23 11 23 11 24 8 26 7 28 5 29 3 32 1 33v35V757zM876 394l-54 22-50 24-44 28-18 14-42-26-57-28-63-22-69-18-75-12-2 9 71 23 65 25 58 28 51 30 28 21-20 21-28 36-21 39-15 41-4 25-1-1-27-19-28-18-31-16-5 8 23 24 22 24 21 23 20 23 18 24 16 24 15 24 13 25 11 26 9 20v2l2 3 2 7 57-32 11-16-21-3-5-9-16-27-18-26-20-24-2-2H866l54 53 65-53V716H876l-17-52-25-51-32-46-38-42-11-8 4-3 42-21 46-19 52-17 57-14 45-12-63-57-60 20zM809 716H633l-23-22-12-10 14-26 21-34 25-32 29-28 25-20 16 16 31 39 24 42 19 44 7 31zM409 703H180V573H409V703zm36 176 64-54V804H86v21H391l54 54z"/><glyph glyph-name="undefined" unicode="䂢" horiz-adv-x="1024" vert-adv-y="918" d="M527 0l10 3 33 11 35 11 36 13 38 14 38 16 41 16 42 18 43 18 45 19 47 19 4-8-42-29-41-26-41-25-40-23-38-21L699 6 662-11 627-28 592-44l-13-5-6-20-15 11L527 0zM350 799l64-54V724H277l-13-50-16-54-18-52-20-51-16-35H306l32 27 59-49-27-21V62L306 30V95H202V30L138-2V369l-29-48-30-45-34-44-8 5 24 50 23 48 22 49 21 50 11 30v2l7 18 18 50 16 51 14 52 12 52 7 35H65v21H296l54 54zM306 460H202V116H306V460zM675 183l-7 14-8 14-9 13-9 13-12 12-12 13-13 13-14 12-16 11 4 9 19-6 19-6 18-8 17-9 17-10 16-12 14-12 14-13 13-15 12-16 2-25-15-19-25-2-19 15-6 14zM849 289l-51 32-46 36-41 39-24 28-14-16-49-48-53-44-57-40-60-36-65-31-4 8 58 41 54 41 51 45 47 46 44 48 19 25-15 22-27 49-22 53-15 55-1 7-15-25-25-37-27-36-30-32-31-30-35-27-6 7 26 34 24 34 23 35 21 37 20 37 18 39 16 42 14 43 13 44 10 47h1l2 9 60-24 13-15-19-6-8-28-17-47-14-32H8e2l32 27 59-48-27-16-11-5-21-44-34-62-38-57-38-50 27-28 40-32 44-28 47-26 51-23 34-14-62-51-54 28zM793 697H602l-12-24 10-24 24-50 26-46 30-43 7-8 28 41 32 56 29 59 17 39z"/><glyph glyph-name="undefined" unicode="䆹" horiz-adv-x="1024" vert-adv-y="918" d="M50-37v22H480V74H146V96H480v84H268V164l-64-32V428l64-32H756l32 27 59-48-27-22V169l-64-32v43H544V96H780l44 48 54-48V74H544V-15H856l54 54 64-54V-37H50zM480 280H268V202H480v78zm276 0H544V202H756v78zM480 375H268V302H480v73zm276 0H544V302H756v73zM660 635l-11 2-12 2-11 5-10 7-9 9-7 10-5 12-3 13-2 14v62H145v-8l-2-15-4-16-7-15-9-14-13-12-14-11-15-9-25 2-17 18 2 24 18 17 11 2 10 3 9 3 8 6 7 6 8 8 6 10 6 13 6 14 1 17h10l1-17 1-5H480v82l64-11 16-10-16-10V792H894l3 3 2 3 4 7 3-2 20 16 59-48-27-16-64-27v2l-13-6-14-6-15-6-16-6-15-9-6 8 14 11 11 13 11 12 10 11 10 10 7 9H649V709l-1-7v-6l1-5v-3l1-3 1-2 3-3 5-3 6-2 8-1H913l18 26h11l-11-26 12-8 7-11-7-11-12-8H858l48-42V572H709l36-35 5-19-24 5-1-1-12-8-12-8-14-9-15-9-16-10-18-10-15-8H866l44 49 54-49V439H59v21H363l-15 12-2 8-3 7-4 9-6 8-7 10-9 9-9 10-11 11-12 10-15 8 4 9 16-5 17-4 15-5 15-5 13-7 13-6 11-8 12-8 9-10 9-10 3-25-15-18H601l9 9 14 16 13 16 12 14 11 13 10 12 8 12 8 10 6 9v1H118v22H482V694l60-11 14-10-14-10V594H808l38 42H673l-13-1zM364 768l58-30 12-15-24-5-3-5-20-21-26-18-29-15-34-13-39-12-43-9-49-8-53-5-58-3-2 9 57 14 50 14 46 13 40 14 34 15 28 15 22 15 15 15 11 15 3 7 4 13z"/><glyph glyph-name="undefined" unicode="䍶" horiz-adv-x="1024" vert-adv-y="918" d="M895 35 866 60 839 87l-24 28-23 29-21 30-18 31-16 33-13 35V-45L659-77V210l-23-34-30-38-33-35-36-34-37-31-41-28-43-26-45-22-5 8L405 1l37 32 35 32 32 33 30 35 27 36 25 37 23 40 20 40 7 18H545V240l-65-32V632l65-32H659V702H428v22H659V869l65-11 16-11-16-9V724H857l53 53 65-53V702H724V6e2H843l32 27 60-49-27-21V272l-65-32v64H728l16-21 20-29 21-27 22-26 23-25 24-24 26-22 27-21 28-20 30-18 20-13-60-47-30 24zM261 369l-1-56 41 11 44 11 47 12 48 11 3-10-45-21-44-19-42-18-40-16-16-7-3-30-10-59-13-53-17-49-21-43L167-4 139-34 107-59 72-76l-5 8L94-43l23 28 21 31 18 36 14 40 11 45 9 50 5 55v1l-35-15-34-13-32-13-10-4-5-20-16 12-31 57 10 4 32 9 33 9 35 11 37 10 19 5v8l-1 66v91H82v22H197V643H48v21H263l6 14 8 21 7 21 8 20 7 18 7 18 6 17 5 17 6 15 3 10h-1l5 11 56-33 10-16-22-3-16-24-11-16-11-16-25-33-14-17-15-18-4-6h32l54 54 65-54V643H261V482h19l54 53 64-53V460H261V369zm398 70H545V326H659V439zm184 0H724V326H843V439zM659 578H545V460H659V578zm184 0H724V460H843V578zM137 709l-2 14-3 13-3 13-4 14-4 13-5 14-6 13-6 14-9 13 7 6 12-10 13-9 12-11 11-11 10-13 10-13 9-14 8-15 7-15 7-15-5-25-19-15-25 5-14 20-1 14z"/><glyph glyph-name="undefined" unicode="䚵" horiz-adv-x="1024" vert-adv-y="918" d="M719 853l64-11 17-10-17-10V249l78 12 45 63 72-43 3-21-198-33V-56L719-88V216L396 163l-3 21 326 54V853zM71 269l64-32H303l32 26 59-48-27-21V-13L303-45V19H135V-45L71-77V269zm232-54H135V41H303V215zM546 354l-9 14-10 15-11 14-12 15-13 15-14 15-14 15-16 16-17 15 6 8 20-10 21-9 19-10 19-12 17-11 17-13 16-13 15-13 14-14 13-14 5-24-13-21-24-5-21 13-8 14zM313 414l53-48V344H72v22H269l44 48zM302 554l64-54V478H72v22H248l54 54zm284 35-9 15-10 14-11 15-12 14-13 15-14 15-14 15-15 17-17 14 5 9 20-11 21-9 20-10 18-11 18-12 16-12 16-13 15-14 14-13 13-15 5-24-13-21-24-5-21 13-8 14zM348 698l65-53V623H51v22H294l54 53zM302 832l64-54V757H72v21H248l54 54z"/><glyph glyph-name="undefined" unicode="䛠" horiz-adv-x="1024" vert-adv-y="918" d="M64 256l65-32H294l32 27 59-49-27-21V-2L294-34V-2H129V-40L64-72V256zm730 24 59-27 13-15-20-6-1-2-10-24-10-24-11-24-12-26-13-25-13-26-14-26-16-27-9-14H867l54 54 64-54V-8H377V14H722l5 22 8 30 9 29 8 27 7 27 8 26 7 25 6 24 6 24 4 18 4 14zM294 202H129V19H294V202zM564 88l-4 21-4 21-6 19-6 20-6 20-7 19-8 19-8 19-9 19 7 6 16-15 15-15 14-17 14-18 12-18 11-20 10-21 9-22 9-22 7-23-4-24-20-15-24 5-15 20-3 22zM479 659l64-33H819l32 27 59-48-27-22V338l-64-33v33H543l-64-33V659zM292 412l65-54V337H66v21H238l54 54zM819 605H543V359H819V605zM292 552l65-54V476H66v22H238l54 54zm46 150 65-54V627H45v21H285l53 54zM895 831l65-54V756H402v21H842l53 54zM292 842l65-54V767H66v21H238l54 54z"/><glyph glyph-name="undefined" unicode="䞮" horiz-adv-x="1024" vert-adv-y="918" d="M784-49 650-45 531-34 427-17 338 8 264 39 204 77l-42 45-25 52v1l-8-40-11-44-12-40L92 14 76-19 58-49 37-74l-8 5L39-40 50-9l9 34 8 37 7 39 6 43 5 45 4 48 2 52 1 55 1 12 64-15 15-11-17-10-3-35-6-53-2-12 14-38 29-40 41-34 10-5V476l64-10 16-11-16-10V288h80l44 49 54-49V267H302V73l50-17 85-18L538 25l115-7H783l147 5 60 2-58-73-148-1zM584 94v16h86l7 1h5l3 1 2 1 1 2v1l1 1 1 3 2 5V373H497v22H692V528H580v22H745l54 54 65-54V528H756V395h85l54 53 64-53V373H756V132 118l-3-13-4-13-7-12-9-11-10-9-13-7-13-4-13-2-14-1V78L584 94zm-6 220 55-33 10-17-20-2-3-6-16-23-15-23-15-22-17-21-17-21-18-20-19-18-20-17-21-16-7 6 13 23 13 22 26 44 13 22 12 23 11 22 11 24 19 42v2l2 3 3 6zM9e2 131l-7 20-7 19-9 19-10 20-11 18-12 19-12 18-14 19-15 19 7 7 20-13 20-14 19-15 17-16 17-18 15-18 14-19 13-21 11-21 11-22-2-24-18-17-24 1-17 19-6 20zM50 476v22H238V670H66v21H238V874l64-11 16-10-16-10V691h54l54 54 64-54V670H302V498h65l54 54 64-54V476H50zm857 62-25 22-23 25-23 28-23 30-23 33-21 36-21 38-17 35-14-29-22-42-24-39-25-37-28-34-29-30-30-28-33-24-34-20-6 8 27 28 25 29 25 30 23 32 22 34 20 37 19 39 18 41 16 43 13 41 5 13 58-29 12-15-20-4-7-19 5-6 28-36 26-34 26-31 25-28 24-26 25-22 23-19 23-16 22-14 22-14-60-45-24 19z"/><glyph glyph-name="undefined" unicode="䟝" horiz-adv-x="1024" vert-adv-y="918" d="M864-34 804-9 751 20 703 56 691 67l-1-1-54-41-59-36-64-29-69-21-73-15-3 9 70 25 63 29 58 33 53 38 47 41-35 42-30 50-23 55-18 59-9 58H483v22H820l32 27 59-49-27-16-10-4-20-49-32-67-39-59-44-54-9-9 7-6 44-27 49-23 54-18 59-14L991 6 928-53 864-34zM44 28l11 3 35 8V396l64-11 17-11-17-10V55l18 4 38 11 17 4V509H154V492L90 460V820l64-32H350l32 27 60-48-27-22V498l-65-32v43H292V310h69l33 37 43-37V288H292V93l35 10 39 12 39 11 39 11 5-9-36-21-36-19-38-18-37-17-38-15-37-16L188 8 150-6 110-19 93-25 86-45 72-32 44 28zM814 363H555l19-51 26-53 28-48 32-42 32-33 9 10 37 52 33 57 27 62 16 46zM539 831l64-32H765l32 27 60-49-27-21V535l1-4 1-4 1-2 2-1 4-2 5-2 7-1h77l27 92h11l-11-92 16-10 11-17-11-16-16-10H851 838l-13 2-12 3-12 6-11 8-9 10-7 12-4 12-3 14-2 13V777H603V659l-3-33-7-31-10-31-13-29-17-27-20-26-23-24-26-23-30-19-32-19-6 8 26 26 22 25 20 25 16 25 14 25 10 25 8 26 5 25 2 26v26V831zM350 767H154V530H350V767z"/><glyph glyph-name="undefined" unicode="䩣" horiz-adv-x="1024" vert-adv-y="918" d="M565-29v16h86l7 1 5 1 3 1h2v1l2 1 1 2 1 3V2l1 7V294H465v21H673V471H552v21H735l53 54 65-54V471H737V315h99l54 54 64-54V294H737V9-5l-3-13-4-13-7-13-9-10-11-9-11-7-14-4-13-2-14-1v32L565-29zM899 485l-25 26-25 28-25 31-24 34-24 37-23 41-22 44-19 42-15-35-24-49-25-44-27-42-29-39-31-35-32-32-34-28-37-24-4 6-19-15V259l-65-32v54H290V170h57l54 54 64-54V148H290V-40L225-72V148H45v22H225V281H150V243L86 211V506l64-32h75V595H194V557l-64-32V713H56v21h74V863l64-10 16-11-16-10V734H316V863l65-10 16-11-16-10V734h22l25 33 32-33V713H381V573l-65-32v54H290V474h80l32 27 56-46 23 24 27 33 26 34 25 37 23 39 22 41 21 45 19 47 17 50 16 52 3 9 59-28 12-15-20-5-9-24 7-10 29-42 28-39 27-36 27-33 26-29 26-26 25-23 25-18 24-16 19-13-60-46-26 22zM551 223l56-33 11-17-21-2-4-9-15-27-17-26-16-26-18-24-18-24-19-23L470-9 449-30 427-48l-8 6 14 25L447 8l14 25 14 25 13 25 14 26 12 25 12 27 11 27 10 23 4 12zM894 16l-8 23-8 23-10 22-11 22-12 21-13 21-14 21-14 21-15 21 6 8 23-15 21-16 20-18 19-19 17-21 15-21 15-23 13-23 13-25 10-25-1-25-19-16-24 2L901-8l-7 24zM225 452H150V302h75V452zm145 0H290V302h80V452zM316 713H194V616H316v97z"/><glyph glyph-name="undefined" unicode="䩲" horiz-adv-x="1024" vert-adv-y="918" d="M880-54 836-31 795-5 758 24 746 35 707 8 659-20 607-44 551-62 493-76l-4 9 55 23 50 27 47 28 42 30 32 27-21 24-25 39-22 42-17 45-10 43H561v22H861l32 27 59-49-27-16-12-5-17-32-30-48-34-44-38-40-6-6 4-3 35-22 38-20L906 8 949-6l41-13-62-54-48 19zM472 742l59-29H695V869l64-11 16-11-16-9V713H865l54 54 64-54V691H531V380l-3-60-5-57-6-53-9-51-12-47-13-44-16-41-18-38-21-34-24-29-7 5 14 34L425 0l12 38 10 40 9 43 7 46 4 49 4 51 1 55v58V742zM294 863l65-10 16-11-16-10V734h19l24 33 32-33V713H359V573l-65-32v54H271V474h78l29 27 57-49-27-19V259l-59-29v51H271V170h50l53 54 65-54V148H271V-40L206-72V148H33v22H206V281H135V243L71 211V506l64-32h71V595H178V557l-65-32V713H43v21h70V863l65-10 16-11-16-10V734H294V863zM853 261H632l19-34 24-38 26-36 28-32 20-19 9 9 31 39 28 42 25 45 11 24zM206 452H135V302h71V452zm143 0H271V302h78V452zM811 664l64-10 17-11-17-10V552h11l44 48 53-48V530H875V369l-64-32v43H689V363l-64-32V530H531v22h94V664l64-10 17-11-17-10V552H811V664zm0-134H689V401H811V530zM294 713H178V616H294v97z"/><glyph glyph-name="undefined" unicode="䰤" horiz-adv-x="1024" vert-adv-y="918" d="M381 92l-8 16-9 15-11 15-10 15-12 14-12 14-13 14-14 15-3 2V-51L225-83V155l-2-4-21-40-22-37-23-33-26-30-27-26L76-37 46-54l-5 8L63-22 84 4l19 29 20 30 18 34 17 36 16 39 14 43 14 45 7 28H145V224L81 191V643l64-32h80v91H44v22H225V869l64-11 17-11-17-9V724h76l53 53 65-53V702H289V611h81l32 27 59-49-27-21V277l-64-32v43H289V227l12-4 19-8 18-10 18-10 16-12 16-13 15-14 15-15 13-15 13-17 3-24-14-20-24-3-20 14-8 16zM621 346l63-18 15-12-18-9-8-48-16-63-20-57-24-51-28-45L552 5 515-26 475-51 431-68l-47-8-3 9 42 19 37 22L493 1l29 31 25 37 21 41 19 48 14 53 12 59 7 64 1 12zM929 19l32 135h11L961 19 981 6l13-19-13-19-20-13H8e2l-14 1-13 2-13 4-13 7-10 9-9 11-6 12-5 13-2 13-1 14V358H575V294l-65-33V750l65-32h77l3 9 5 18 10 32 8 30 4 14 4 14 3 13 2 8h-1l5 11 57-32 11-16-24-3-2-4-17-25-10-13-9-13-11-13-11-14-12-14-1-2H874l32 27 59-48-27-22V358l-64-32v32H746l33-5 16-11-16-10V170l10 2 19 2 5 27 5 29 5 28 6 35h-1l2 5 2 8 59-27 12-15-23-6-2-5-7-12-15-26-9-12-9-13-9-12 11 1 14 1 15 2 25 1v1 9l-5 27-5 7 7 7 6-7 10-6 8-6 7-7 7-9 7-9 6-9 6-11 5-10 5-12-7-24-20-13-24 6-13 21v10l1 17-5-3-13-7-12-7-12-7-11-7-11-6-8-4-6-25-15 11-23 38V34l1-4 1-4 1-1V24l1-1 5-2 5-1 7-1H929zM225 439H145V310h80V439zm145 0H289V310h81V439zm322 91H575V380H692V530zm182 0H757V380H874V530zM225 589H145V460h80V589zm145 0H289V460h81V589zM692 697H575V552H692V697zm182 0H757V552H874V697z"/><glyph glyph-name="undefined" unicode="䰩" horiz-adv-x="1024" vert-adv-y="918" d="M335 405l-1 9-3 10-2 10-4 11-3 10-5 12-5 11-6 13-2 2-15-24-45-64-40-52H382l33 27 59-49-27-21V19L382-13V19H202V-45L138-77V272L96 227 41 172l-7 7 47 61 44 62 13 17v66l34-17 39 60 39 65 15 26H38v22H206V702H87v22H206V874l65-11 16-10-16-10V724h23l34 37 41-36 19 42 27 67 5 12 57-32 10-16-19-3-24-54-36-71-37-68-36-61h55l44 48 54-48V519H321l-10-16 4-4 12-7 11-9 11-8 9-9 9-10 9-9 8-10 7-11 5-10-2-25-19-16-24 3-16 19v8zm296-59 63-18 15-12-19-9-8-48-15-63-19-57-24-51-28-44L565 5 529-26 489-51 446-68l-46-8-3 9 41 19 36 22L506 1l28 31 24 36 21 42 18 48 14 53 11 59 8 64 1 12zM931 19l33 135h10L964 19 983 6l13-19-13-19-19-13H808l-14 1-14 2-13 4-12 7-11 9-8 11-7 12-5 13-2 13V41 358H587V294l-64-33V750l64-32h74l4 9 4 17 5 17 4 16 9 30 3 14 4 13 3 14 2 7h-1l2 5 3 7 57-32 11-16-24-3-2-4-8-12-9-13-9-13-10-13-10-13-11-14-11-14-1-2H878l32 27 59-48-27-22V358l-64-32v32H754l32-5 16-11-16-10V170l9 2 12 2h7l1 12 3 15 5 29 3 14 2 14 4 27 1 8h-1l2 5 3 8 59-27 12-15-23-6-2-4-7-13-8-13-7-12-8-13-9-13-9-13 10 1 14 2 14 1 15 1 10 1-1 1v10l-1 8-3 18-5 7 7 7 7-7 8-6 8-6 8-7 7-9 6-9 6-9 6-11 5-10 4-12-6-24-21-13-23 6-13 21 1 20v7l-4-3-12-7-12-7-12-7-22-13-6-4-6-25-16 11-22 36V34l1-4 2-5 2-2 5-2 5-1 7-1H931zM382 175H202V41H382V175zm0 156H202V197H382V331zM7e2 530H587V380H7e2V530zm178 0H765V380H878V530zM359 702H271V541h6l11 18 35 68 34 69 2 6zm341-5H587V552H7e2V697zm178 0H765V552H878V697z"/><glyph glyph-name="undefined" unicode="䰸" horiz-adv-x="1024" vert-adv-y="918" d="M75-78 51-75 37-54l5 24 8 11L58-6 66 8l7 17 7 19 6 20 6 23 6 24 5 26 4 28h10l3-29 3-27 1-26V58l-2-23-2-23-4-21-6-19-6-19-8-18L75-78zM896 13l-9 30-9 24-20-6-43-11-42-10-43-10-85-17-42-8-43-8-42-7-20-4-9-18-12 15-19 63 11 1 84 7 3 1 5 17 14 49 14 48 13 48 14 47 13 48 12 46 11 46 21 86 3 15 60-25 13-15-19-6-8-25-14-45-15-46-16-46-18-46-18-47-19-46-20-47-22-47-3-7 18 2 43 3 43 5 43 3 43 5 44 3 44 3 18 1-7 20-12 29-11 28-26 56-27 55 8 6 22-22 21-24 19-25 18-27 17-27 16-28 15-29 14-30 13-31L966 2l-2-25-19-16-24 2-17 19-8 31zM278 19l-1 14-2 14-2 14-3 15-5 14-5 14-6 14-6 15-9 14 7 6 12-11 14-10 13-12 11-13 10-13 9-16 9-15 7-16 6-16 5-18-6-24-21-12-24 6L278 4V19zM221-38l-23-7-22 12-7 23 3 13 2 13 1 13 2 15V59l-1 16-1 17-2 18-2 18-5 19 9 4 10-18 10-16 8-17 8-17 6-16 5-17 5-17 3-16 2-16 1-17-12-22zM383 44l-3 14-5 13-4 13-5 13-7 13-6 12-8 12-8 13-10 11 6 8 13-8 14-8 14-9 12-10 13-11 11-12 10-13 10-14 9-15 8-15-2-25-18-16-25 2-16 18-3 14zM151 229 92 199V586l-3-4-21-26-22-23-8 6 13 29 13 29 13 29 12 31 13 31 12 32 12 33 11 34 11 35 9 31 4 13 59-28 11-15-19-5-6-16-15-35-2-6H293l32 27 60-48-27-16-14-6-2-4-10-15-10-14-12-15-14-16-14-16-17-17-17-16-11-10H344l29 26 57-48-27-19V229l-59-30v30H151zm69 172H151V251h69V401zm124 0H274V251h70V401zM586 719l61-23 14-14-19-6-7-27-14-46-15-44-17-42-19-41-20-39-21-37-24-36-26-32-28-30-7 6 19 35 17 37 17 37 17 37 14 40 14 40 12 42 12 43 9 44 8 41v2l1 3 2 10zM909 383l-22 35-20 37-17 39-15 40-13 44-11 45-8 47-5 50-1 47H632v21H775l26 22 59-48-27-16-17-9 4-13 14-47 15-44 16-41 16-39 19-36 20-34 20-31 23-28 23-26 5-5-58-42-24 32zM220 573H151V423h69V573zm124 0H274V423h70V573zM291 740H179l-3-7-16-33-17-31-17-31-15-23 40-20h72l12 19 11 22 11 20 9 19 8 17 7 16 5 15 5 14v3z"/><glyph glyph-name="undefined" unicode="䱏" horiz-adv-x="1024" vert-adv-y="918" d="M84-70 60-65 48-44l5 25L63-9 72 3l8 14 8 16 7 18 7 20 6 22 6 24 6 25 4 27h10l3-28 2-26 1-26-1-24-2-24-3-22-5-21-7-20-7-19-10-17L84-70zM838 290l60-26 13-15-20-5-2-6-10-27-10-27-11-29-11-28-12-30-14-29-14-31L792 6 781-13h84l53 54 65-54V-34H493v21H767l6 26 7 34 8 32 8 31 7 31 7 29 7 29 7 28 6 28 6 26 2 9zM322 26l-2 13-2 14-3 14-5 14-5 14-6 14-7 15-8 14-11 14 6 7 15-11 15-10 13-12 13-12 11-13 10-14 9-15 8-16 7-17 6-17-6-24-21-13-24 6-13 21V26zM249-29l-23-7-22 12-6 23 3 12 2 12 1 14 1 14V65l-1 16-2 16-2 18-3 18-6 19 9 4 10-17 11-16 9-17 8-16 7-16 6-16 4-17 4-16 2-16V-8L249-29zM437 63l-6 13-5 13-6 13-8 12-8 13-9 12-10 13-12 10 5 8 15-7 16-7 14-8 14-10 14-11 12-11 12-13 10-14 10-14 9-16-1-25-17-16H461L444 36l-7 27zM637 78l-2 21-3 20-4 21-5 20-5 21-6 21-14 42-9 21 8 5 16-17 15-19 13-19 12-19 11-21 10-21 8-21 8-22 6-22 6-22-7-24-21-12-23 6-13 21-1 20zM171 232l-64-32V586l-7-9-23-24-24-23-7 6 45 87 15 30 15 31 14 31 13 32 13 34 13 34 10 30 4 12 58-30 11-15-20-4-7-16-16-35-2-3H339l32 27 59-48-27-16-15-7-3-4-10-14-12-15-13-14-15-15-16-16-18-16-20-16-10-9H393l32 27 60-48-27-22V232l-65-32v32H171zm79 169H171V254h79V401zm143 0H314V254h79V401zM551 649l65-32H859l33 27 59-49-27-21V331l-65-32v32H616l-65-32V649zm308-54H616V353H859V595zM250 570H171V423h79V570zm143 0H314V423h79V570zM335 733H201l-4-8-18-33-19-30-19-30-13-19 43-22h85l14 20 13 21 12 20 11 18 10 18 8 16 6 14 5 14v1zm571 98 65-54V756H504v21H852l54 54z"/><glyph glyph-name="undefined" unicode="䳉" horiz-adv-x="1024" vert-adv-y="918" d="M115-8l9 5 12 5 17 7 22 9 27 12 31 14 36 17 40 19 45 21 51 23 55 23 5-8-50-34-47-30-42-26-38-24L254 4 225-14 201-30 180-42l-7-5-3-23-17 9L115-8zM915-25l-9-10-10-9-10-7-12-7-11-4-12-5-13-2-13-2-14-1v32L704-24V-8H811l9 1 6 1 13 3 6 3 6 3 5 4 5 4 5 6 5 6 4 8 5 11 5 17 4 21 3 24 3 29 2 32 1 35v29 43H585l-65-32V777l65-32h86l2 5 2 13 10 41 3 13 3 13 3 13 2 13 2 8h-1l5 13 58-29 11-16-22-4-4-5-7-12-8-13-9-11-8-12-19-21-8-9H838l33 27 59-48-27-22V476l-65-32v43H585V401H882l44 48 54-48V380H585V294H898l32 26 59-48-26-16V240 199l-2-37-2-35-3-30-4-28-5-25-6-22-8-19-10-18-8-10zM498-7 475 3l-8 23 11 23 8 6 8 7 7 10 7 12 7 15 6 17 4 19 4 23 3 23 1 27 10 1 4-27 6-24 3-24 1-22-1-21-3-21-4-18-7-19-10-16L521 1 498-7zM646 28l-24-2-19 15-2 25 3 6 4 8 2 9 3 10 1 13v13l-1 15-1 15-2 18-6 17 9 4 9-17 10-15 8-15 7-14 6-15 5-14 3-14 2-15 1-14-2-14-16-19zm60 77 1 10 1 10-1 10-1 10-2 10-3 10-5 10-5 12-9 8 6 8 11-8 12-6 11-8 10-9 9-10 8-12 7-12 5-14 4-14 3-15-9-23-23-10-22 10-10 23 2 10zm96 40 1 6-1 7-1 7-4 7-4 8-6 9-7 8-9 9-12 6 4 9 13-4 13-3 13-4 12-5 11-6 10-7 10-9 8-10 7-12 5-13-6-24-21-13-24 6-13 21 1 7zM269 175l-4 13-6 14-7 13-7 13-9 14-10 13-11 15-12 14-14 13 5 8 36-18 16-10 15-10 15-12 13-12 13-13 11-14 10-14 9-16-1-24-17-17H289l-17 17-3 13zM394 323l-38 31-35 35-31 36v1l-15-22-40-49-44-45-48-41-52-38-56-33-5 8 48 41 45 43 42 44 38 47 34 50 23 38-22 38-20 45-16 47-11 50-1 1-10-24-19-37-21-35-23-32-25-29-27-25-7 6 17 31 18 33 16 33 15 35 14 38 13 39 11 42 10 44 9 46 7 44 2 15 62-21 14-13-19-8-6-29-13-48-12-37H353l33 27 59-48-27-16-8-4-14-43-24-62-29-59-22-39 11-13 31-30 33-27 36-25 39-22 25-15-60-47-42 28zM838 605H585V509H838v96zM349 697H209l-7-17 10-25 20-45 21-42 24-38 9-12 9 19 23 57 20 59 11 44zm489 27H585V627H838v97z"/><glyph glyph-name="undefined" unicode="䵔" horiz-adv-x="1024" vert-adv-y="918" d="M136-24V-8h75l7 1 5 1 5 2 2 2 1 5 1 5 1 6v91l-3-3-17-16-35-29-17-13-16-13-16-13L101-2l-1-23-17 9L41 34l9 5 17 8 17 8 18 8 18 9 19 8 19 9 20 9 21 10 22 8 12 5V369l64-11 17-11-17-9V156l6 8 10 14 9 13 8 14 9 12 7 13 8 12 6 12 4 7h-1l3 4v1l3 3 49-42 7-18-24 2-5-5-11-9-12-10-13-11-14-9-14-10-14-9-16-9-2-2 8-3 17-9 17-10 15-11 15-11 14-12 14-13 13-14 11-14 4-25L414-5 389-9 370 5l-7 15-8 13-8 14-9 14-10 14-11 13-11 14-9 9V14L296 1l-2-14-4-13-7-12-9-11-10-9-13-7-13-4-13-2-14-1v32L136-24zM904 36 878 61 854 88l-23 27-20 29-19 30-17 32-14 33-8 23V-45L688-77V203l-16-26-28-38-30-36-33-33-35-31-38-29-40-26-42-22-5 8L457 1l33 31 32 33 29 33 27 34 25 36 23 37 20 40 19 40 7 19H588V240l-64-32V632l64-32H688V702H478v22H688V869l65-11 16-11-16-9V724H863l53 53 65-53V702H753V6e2H857l32 27 60-49-27-21V272l-65-32v64H755l15-22 19-28 20-28 20-26 21-25 23-24 23-22 25-21 26-20 27-18 18-12-60-46-28 24zM389 495l-10 16-11 16-24 30-13 15-13 14-15 13-6 6V487l-7-4 6-4 10-17-20-1-9-16-8-13 3-1 24-6 23-9 22-11 21-11 20-14 20-16 18-17 17-19 16-19 4-25-14-20-24-4-20 14-11 18-12 18-12 17-14 17-15 15-15 15-18 14-18 13-19 14-5 3-4-6-22-32-24-30-25-29-26-27-24-23 9-4 12-6 10-6 11-8 10-8 9-9 9-11 8-10 8-12V173l-18-18H179l-18 18-2 10-5 20-3 10-5 10-4 10-5 9-6 11-6 10-22-18-30-22-32-19-6 8 24 27 25 27 23 27 22 28 21 29 20 30 19 30 18 31 16 33 10 22v94l-17-27-20-29-22-28-22-25-23-24-25-20-26-19-28-15-6 8 20 22 20 24 18 24 19 25 17 27 16 28 16 29 14 31 14 33 4 10H62v22H233v79l-21-5-34-7-34-7-35-6-36-5-3 10 33 15 33 14 32 13 32 12 31 12 62 24 29 12 29 12 23 10 6 2 3-10 48-41 1-16-22 9-9-3-30-9-30-9-32-8-12-3V686h63l54 54 64-54V664H297V627l20-7 19-9 18-10 18-12 18-13 17-14 15-15 16-16 14-18 5-24-14-21-24-4-20 13-10 18zm299-56H588V326H688V439zm169 0H753V326H857V439zM688 578H588V460H688V578zm169 0H753V460H857V578z"/><glyph glyph-name="undefined" unicode="𠠇" horiz-adv-x="1024" vert-adv-y="918" d="M750-24V-8H857l7 1 4 1 4 1 2 1 1 1v1l1 1 2 4V8l1 6V863l64-10 16-11-16-10V14 1l-3-14-4-13-7-12-9-11-11-9-12-7-12-4-14-2-14-1v32L750-24zM60 19l11 1 65 2 64 2 37 1V170H171V105L112 76V393l59-30h68V466H78v21H512l44 48 54-48V466H440V363h68l32 27 60-48-27-22V148l-65-32v54H440V33l40 2 49 3 47 2h45l1-9-43-12L533 9 484 1 433-8l-54-7-56-7-59-6-61-6-64-6-44-3L85-60 73-45 60 19zM375 466H299V341l-60-30v31H171V191h66l32 27 59-48-27-22V27l18 1 56 2V224l65-33h68V342H440l-65-32V466zM685 783l65-11 16-11-16-9V138l-65-33V783zM584 561l-9-9-10-9-10-8-11-7-12-4-12-5-13-2-13-2-13-1v32l-93 14-22-21-28-22-32-18-5 8 11 13-23 4-15 20-3 18-3 18-4 18-4 18-21-12-21-12-40-20-20-10-20-8-19-9-16-7-6-22-15 12-31 58 10 4 20 4 17 4V815l65-11 3-2 2 1 19 10 18 9 48 24 15 7 14 7 8 4h-1 1l5 2 2-8 51-43 2-17-23 10-13-4-14-2-15-2-15-3-17-3-18-3-19-3-19-4-21-3-13-2V613l22 5 23 5 23 5 23 4h2l-5 16-6 16-4 17-6 16-7 14 8 6 12-12 12-12 12-13 11-15 10-16 10-16 10-17 8-18 8-19 8-20-2-13 10 13 18 26 16 27 12 29 10 30 8 32 5 34 2 36v26H356v21H543l32 27 60-48-27-16V773l1-35V678l-1-24-1-21-2-18-2-16-3-13-8-15-8-10zM543 799H479l-2-31-6-40-10-38-12-36-17-33-18-30-11-13h78l8 1 7 1 13 3 5 3 6 3 5 4 5 4 5 6 3 4 1 5 2 11 2 15 1 19v23 57 19l-1 43z"/><glyph glyph-name="undefined" unicode="𠣰" horiz-adv-x="1024" vert-adv-y="918" d="M618 333l-2 11-2 7-3 5-4 7-5 7-6 7-7 8-8 4 4 9 9-3 10-1 11-2 9-3 9-2 10-4 8-5 8-5 8-6 7-7 3-25-15-19-12-1h26l32 27 59-48-27-22V38L676 5V70H395V5L330-27V252l-14-7-79-32-85-29-3 10 79 38 75 39 27 15v61l56-28 53 34 61 43 9 7H158v22H413V526H243v22H413V659l64-11 16-11-16-10V548h59l54 54 64-54V537l39 47 36 50 3 4 50-40 8-18-21 1-28-36-47-50-51-48-27-22H746l44 48 54-48V403H589l-2-1-60-43-66-41-6-3H636l-18 14v4zM837-30l-10-9-10-8-11-6-11-6-12-4-12-4-13-3-13-2H732v32L625-24V-8H732l8 1 8 1 7 1 7 2 6 3 6 3 6 4 6 4 6 5 5 6 16 21 14 32 14 43 12 53 11 63 8 74 7 82 5 93 3 102 1 101H288l-26-52-29-51-32-51-34-49-37-48-39-46-43-44-7 6 33 51 33 50 31 51 28 50 27 51 24 52 22 52 20 53 17 53 14 48 1 4v2l3 8 59-27 13-14-20-5-12-36-21-54-15-33H888l33 27 59-48-27-16-1-86-3-104-5-94-7-85-9-76-12-66-13-58-16-49-19-40-22-33-9-9zM676 182H395V91H676v91zm0 112H415l-20-11V203H676v91zM645 526H477V425h59l20 16 51 46 38 39z"/><glyph glyph-name="undefined" unicode="𠱑" horiz-adv-x="1024" vert-adv-y="918" d="M208 268l65-32H751l32 27 59-48-27-22V-33L751-66v54H273V-49L208-82V268zm543-53H273V10H751V215zm136 9-41 20-40 19-38 22-37 23-34 23-33 25-32 26-29 28-23 27H466l-16-18-41-35-46-33-51-32-57-30-62-28-68-26-74-23-3 9 69 33 63 33 58 33 53 34 46 34 40 34 14 15H71v21H412l28 34 23 36 17 34 3 8 56-33 10-17-21-2-13-22-29-38H835l53 54 65-54V437H602l49-29 34-20 35-19 36-18 37-17 39-17 39-15 41-15 42-14 38-13-62-54-43 18zM168 845l64-33H792l32 27 59-48-27-22V560l-64-32v54H232V544l-64-32V845zm624-54H232V603H792V791z"/><glyph glyph-name="undefined" unicode="𡆏" horiz-adv-x="1024" vert-adv-y="918" d="M568 831l59-48-27-22V589l-64-32v32H367V-51L324-72V826l43-22H536l32 27zM898 589H740V573l-64-32V837l64-33H898l32 27 59-48-26-22V19L961 6 959-8l-4-12-6-13-10-11-10-8-13-7-13-4-13-3-14-1v33L789-21 769-31V316H722V267l-2-43-4-41-7-37-8-34-11-31-13-27-15-24L645 9 625-7 603-19l-3 6L616 3l14 19 12 20 10 23 9 26 7 29 6 32 3 35 2 38v39l-18-11V146l-53-27v27H588V72l14 3 22 3 23 4 3-9-40-23-20-11-2-1V36h-4l-14-7-21-10L528 9 506 0 484-10l-22-9-2-1-6-20-15 12-30 57 10 4 24 6 23 5 19 5v94H467V127l-53-27V318l53-27h23v69H470l-43-22V505l30-7 4 3 15 16 7 7 13 14 6 7 6 6 6 5 1 2-1 2 1-2 3 4 10-17 33-33 1-13 23-11h23l21 26 49-48-27-11V360l-43-22v22H585V291h23l27 27 44-40V492l31-15 4 1 14 10 13 8 13 8 13 7 12 7 12 7 11 7 11 7 5 3v1l1-1 4 3 4-10 46-40 1-17-21 9-7-2-12-2-12-3-14-2-28-4-14-3-16-2-15-2-13-1V338h82l34 37 43-37V316H828V-2h-1 49 7l5 1 5 2 2 2 1 2V8l1 5 1 6V589zM539 133l-6-3V60l2 1 4 1v71zM50 745l64-32h84l29 27 57-49-27-18V186l-59-30v62H114V154L50 121V745zM542 470l-9-7V259l-43-22v32H467V165h18l24 26 30-29v30l49-24h20V269H585V259l-43-22V470zM198 691H114V240h84V691zM608 466H585V381h23v85zm-69 38-4-1-18-3-9-2-10-2-10-2-10-2h-5l8-8-11-8V381h20V492l43-10 9-9v29l-3 2zM898 691H740V611H898v80zm-362 0H367V611H536v80zm362 92H740V713H898v70zm-362 0H367V713H536v70z"/><glyph glyph-name="undefined" unicode="𡙬" horiz-adv-x="1024" vert-adv-y="918" d="M205 198l65-32H754l32 27 59-48-27-22V-25L754-57V-3H270V-41L205-73V198zm549-53H270V18H754V145zM485 332H307V252H485v80zm0 98H307V354H485v76zm0 97H345l-23-18-15-10V451H485v76zm396-24-41 21-39 21-38 23-7 5 30-25V527H549V451H688l44 48 54-48V430H549V354H688l44 48 54-48V332H549V252H793l44 49 54-49V231H307l-64-33V454l-42-26-46-25-48-25-51-24-5 9 45 33 44 31 41 30 39 31 23 19v3h3l10 8 34 30 31 29 29 29 26 29 20 25 5 6 48-44 5-19-20 4-13-14-31-29-19-16H495l9 8 14 15 13 14 13 13 12 13 11 12 11 11 9 10 8 10 4 5 4 5 42-48 3-20-23 7-3-1-13-8-13-8-15-8-15-8-17-9-18-8-9-5H667l51 51-26 19-33 26-31 28-28 30-24 29H463l-14-18-41-38-46-36-51-35-57-32-62-31-68-28-73-25-3 9 68 35 63 35 57 36 52 35 46 37 40 37 17 19H71v21H410l27 36 23 38 17 39 3 7 57-32 10-16-20-3-14-25-29-42-2-2H829l54 54 64-54V731H596l18-12 34-22 34-21 35-21 36-20 37-19 38-18 39-17 41-16 42-15 36-14-62-52-43 19z"/><glyph glyph-name="undefined" unicode="𡝜" horiz-adv-x="1024" vert-adv-y="918" d="M518 444l-3-70-6-66-7-63-10-58-11-54-13-50-16-46L435-5 415-41 393-73l-8 5 12 35L408 5l10 42 10 45 8 49 7 53 5 57 4 61 1 65 1 68V775l61-31 10 2 52 9 49 10 48 10 46 11 45 12 42 12 41 14 39 14 37 16 4-10 46-40 1-17-21 9-7-3-40-12-42-12-44-11-45-9-47-8-48-6-50-5-51-3-53-1h-8V518H716V703l65-11 16-10-16-10V518h90l53 53 65-53V496H781V306h80l33 27 59-49-27-21V-8L861-40V25H635V-40L571-72V338l64-32h81V496H519V445l-1-1zM342 101l-18 25-19 24-21 23-5 6-37-64-42-58L153 8 102-33 46-65l-5 8L89-17l44 45 39 50 35 57 31 63 5 14-6 5-26 21-27 20-29 20-14 9-6-21-17-62-62 18 17 61 16 62 16 61 15 63 15 63 13 63 2 10H43v22H154l7 32 12 64 12 65 10 65h1l1 10 62-21 14-12-17-8-19-111-13-64-4-20H327l32 27 59-49-26-16-4-1-9-76-18-94-22-86-28-80-12-28 19-14 26-22 24-25 23-26 21-27 4-25-14-20-24-4-20 14-16 26zM635 284V46H861V284H635zM326 605H216l-5-23-13-64-15-64-15-63-16-63-7-26 19-6 34-13 32-15 28-16 6 17 23 77 17 84 14 91 8 84z"/><glyph glyph-name="undefined" unicode="𡠙" horiz-adv-x="1024" vert-adv-y="918" d="M281 104l-14 24-15 24-15 21-27-57-35-57L136 9 93-33 46-65l-5 8L79-18l35 45 31 50 28 57 25 63 5 16-4 5-21 21-22 20-22 19-6 4-3-14-15-62-62 14 13 62 14 62 13 61 12 63 12 63 11 63 2 11H43v22h85l6 31 10 64 9 65 8 59 2 17 63-20 15-12-18-8-6-45-10-66-9-64-4-21h76l32 27 59-49-27-16-3-1-8-75-14-94-19-86-23-80-11-30 17-14 21-24 21-24 19-26 17-27 2-24-16-19-24-3-19 16-13 26zM844-51l-80 2-67 6-55 10-46 15L559 1 531 25 510 52 495 82l-5 15-2-1-3-5-12-18-11-16-12-16-23-30L415-4 403-18l-8-9 3-22-19 5L329-3l8 7 14 10 14 10 14 10 15 11 30 22 22 15V353H347v21h99l29 27 57-48-27-19V105l9-11 21-22 22-18 25-14 31-11 39-8 51-5 62-1 77 2 93 6 59 3-55-74-95-3zM790 129v16h64l7 1h5l4 1 1 1 1 1 2 3 1 3 1 5V314H785V149l-65-32V314H626V115L567 85V653l59-29H748l-16 15-4 14-11 28-7 14-6 12-15 25-17 25-11 10 5 8 14-7 15-7 14-8 13-9 13-11 12-12 12-12 8-10 3 3 13 19 12 19 11 17 10 16 9 15 7 14 3 7H581v22H842l3 2 1 2 1-1 27 23 59-48-26-16-21-9-1-1-11-12-12-12-13-13-16-13-16-14-17-14-19-14-5-4 5-6 10-15 1-25-16-17H876l32 26 59-48-27-21V167 153l-2-14-5-13-7-11-8-12-11-8-12-7-13-4-14-3H854v32l-64 16zM269 605H190l-3-22-12-64-11-63-13-64-13-62-6-30 12-4 29-14 27-15 16-12 4 12 17 78 15 84 11 91 6 85zM720 460H626V335h94V460zm156 0H785V335h91V460zM720 602H626V481h94V602zm156 0H785V481h91V602zM430 516l-13 26-8 13-7 13-8 12-9 12-18 24-11 10 5 8 14-7 15-6 14-8 14-8 13-10 13-10 13-12 12-12 11-13 12-14 3-25-15-19-24-3-20 14-6 15zm33 189-5 14-6 13-6 13-7 13-8 12-8 13-8 13-9 12-11 11 5 8 14-8 15-7 14-8 14-9 13-11 12-11 12-12 11-13 11-13 10-15 1-24-16-19-24-1-19 16-5 13z"/><glyph glyph-name="undefined" unicode="𢂓" horiz-adv-x="1024" vert-adv-y="918" d="M785-13V3h86l7 1 5 1 5 1 1 2V9l1 1 2 3 1 5V777H510V-34L446-67V831l64-32H893l32 27 59-49-27-21V25 11L954-2l-4-13-7-12-8-11-12-9-12-7-12-4-14-2-14-1v32L785-13zM581 496l65-33H757l32 27 60-48-27-22V151l-65-32v64H646V119L581 87V496zM250 170v16h43l7 1 4 1 5 1 2 2 2 5 1 5 1 7V648H246V-45L181-77V648H113V148L49 116V702l64-32h68V869l65-11 16-11-16-9V670h69l32 27 59-49-27-21V208l-1-14-2-13-4-13-7-13-9-10-11-9-12-7-13-4-13-2-14-2v33l-43 16zM757 442H646V205H757V442zm32 233 64-54V6e2H550v21H735l54 54z"/><glyph glyph-name="undefined" unicode="𢄟" horiz-adv-x="1024" vert-adv-y="918" d="M857-51l-75 2-62 6-52 10-42 15L592 2 566 25 546 53 533 82l-4 14-1-1-3-4-10-17-11-16-10-17-22-30-21-28-7-8 4-22-19 4L377-4l8 8 13 9 13 10 14 10 28 22 14 11 19 15V353H397v21h89l30 27 56-48-27-19V104h-1l8-11 20-21 20-18 23-14 29-11 36-8 47-5 57-1 70 2 86 6 59 4-54-75-88-3zM798 129v16h65l6 1h5l3 1 2 1 2 2 1 2 1 3v5l1 7V314H804V149l-64-32V314H657V115L598 85V653l59-29H767l-17 16-4 14-9 28-6 13-6 13-6 12-14 25-8 12-10 10 6 8 13-7 14-7 13-8 12-10 13-11 11-11 11-13 6-8 1 1 12 20 11 18 10 17 9 16 8 15 7 13 3 9H614v22H852l3 2 1 1 29 23 59-48-27-16-20-8-1-1-10-12-11-12-13-13-13-13-16-14-16-14-18-15-4-3 6-8 9-16V640l-16-16h90l32 26 59-48-26-21V167l-2-14-2-14-4-13-6-11-10-12-10-8-13-7-13-4-13-3H863v32l-65 16zM239 170V-45L174-77V648H110V148L45 116V702l65-32h64V869l65-11 16-11-16-9V670h64l33 27 59-49-27-21V208l-1-14-2-13-5-13-7-13-8-10-11-9-12-7-13-4-14-2-13-2v33l-43 16zM740 460H657V335h83V460zm144 0H804V335h80V460zM740 602H657V481h83V602zm144 0H804V481h80V602zM471 517l-6 13-6 13-6 13-14 25-8 11-8 12-8 12-10 9 5 8 13-7 14-6 14-7 13-9 13-9 12-11 11-11 12-13 11-13 10-14 3-24-16-20-24-2-19 15-6 15zm26 203-5 13-6 13-6 13-6 12-15 25-8 13-10 10 6 8 13-8 14-7 13-9 13-9 12-11 12-10 21-25 11-14 9-14V695l-16-18-25-1-18 17-9 27zM239 186h43l6 1 5 1 5 1 2 2 2 5 1 5v7V648H239V186z"/><glyph glyph-name="undefined" unicode="𢔅" horiz-adv-x="1024" vert-adv-y="918" d="M894 34 862 59 831 85l-28 28-26 29-24 31-21 31-19 34-16 34-5 18V-45L627-77V220l-4-5-31-40-34-38-37-35-40-34-42-30L394 9 345-16 294-38l-4 8L335 2l43 31 40 33 37 33 34 35 32 36 28 38 26 39 24 41 7 16H488V240l-64-32V632l64-32H627V702H360v22H627V869l65-11 16-11-16-9V724H863l53 53 65-53V702H692V6e2H836l32 27 59-49-27-21V272l-64-32v64H7e2l17-21 22-28 24-28 24-25 26-25 27-24 29-22 31-21 31-20 34-18 24-14-60-47-35 23zM315 660l53-37 9-18H356l-14-23-28-40-28-37-31-37-31-36-9-9 37-6 16-11-16-9V-40L187-72V395l-31-29-36-31-39-29-39-26-6 7 32 34 32 35 31 35 29 35 29 36 27 37 26 38 24 38 23 39 20 36 6 10zM627 439H488V326H627V439zm209 0H692V326H836V439zM627 578H488V460H627V578zm209 0H692V460H836V578zM276 864l53-38 8-17H318l-12-18-25-34-24-32-27-31-27-30-28-29-28-27-30-26-31-23-33-21-6 7 25 29 25 29 24 29 24 30 23 31 23 31 22 33 21 33 20 34 17 31 5 9z"/><glyph glyph-name="undefined" unicode="𢛔" horiz-adv-x="1024" vert-adv-y="918" d="M179 863l64-10 16-11-16-10V-45L179-77V863zM885 34 854 60 825 86l-27 27-25 29-22 31-20 32-18 33-15 35-3 10V-45L630-77V216v-1l-30-40-33-37-35-36-38-33-41-31L410 9 364-16 315-38l-5 8L353 1l41 32 38 32 35 34 33 35 29 36 28 38 24 38 22 41 8 17H501V240l-64-32V632l64-32H630V702H378v22H630V869l65-11 16-11-16-9V724H851l53 53 65-53V702H695V6e2H829l32 27 60-49-27-21V272l-65-32v64H702l16-21 22-28 22-28 24-26 24-25 26-23 28-22 29-21 30-20 32-18 23-14-60-47-33 23zM630 439H501V326H630V439zm199 0H695V326H829V439zM80 389l-24 5-13 20 5 24 8 9 8 11 8 14 7 16 8 19 8 21 7 23 8 25 7 27 8 30 9-1 1-31V572l-1-27-2-25-3-24-4-22-4-20-6-19-6-17-8-16-21-13zM630 578H501V460H630V578zm199 0H695V460H829V578zM323 503l-3 15-4 14-5 16-5 15-7 16-7 17-9 16-9 18-11 17 7 6 16-14 15-13 15-13 13-15 13-14 10-15 11-15 9-16 8-16 7-16-3-24-20-16-25 4-15 19-1 14z"/><glyph glyph-name="undefined" unicode="𢤦" horiz-adv-x="1024" vert-adv-y="918" d="M158 863l64-10 16-11-16-10V-45L158-77V863zM324-54v22H622V62H393V83H622v89H489V156l-64-32V429l64-32H819l32 27 59-49-27-21V161l-64-32v43H687V83H818l44 49 54-49V62H687V-32H866l54 54 65-54V-54H324zM622 276H489V194H622v82zm197 0H687V194H819v82zM622 375H489V298H622v77zm197 0H687V298H819v77zM75 389l-24 4-14 20 3 25 7 8 8 11 7 14 7 17 8 18 7 21 7 24 7 25 7 27 7 30 10-1V602l1-29-1-28-1-25-3-23-3-22-4-20-4-19-5-17-7-16-20-14zM527 489l-2 8-2 8-3 9-4 9-5 9-6 10-6 10-8 10-10 8 5 8 12-6 13-4 12-6 11-6 11-7 9-8 10-8 9-9 7-10 7-10-1-24-17-17H717l6 8 8 17 8 15 8 15 7 13 6 12 5 12 5 10 3 10 1 3h-1l2 3H373v22H628V707l53-10 14-11-14-9V603H817l54 53 65-53V581H788l43-32 8-18-26 1-7-7-10-9-11-10-11-10-13-11-14-11-14-11H880l44 49 54-49V442H331v21H556l-12 1-17 18v7zM287 504l-2 15-3 14-4 15-5 16-6 16-6 16-7 17-8 17-9 17 7 6 14-14 15-13 13-14 12-14 11-15 11-15 9-15 9-16 7-16 7-16-5-24-19-15-25 4-14 20-2 14zM732 868l60-11 14-11-14-9V774h79l53 54 65-54V753H792V683l-60-30V753H576V683l-59-30V753H320v21H517v94l59-11 15-11-15-9V774H732v94z"/><glyph glyph-name="undefined" unicode="𢾀" horiz-adv-x="1024" vert-adv-y="918" d="M373 404l-1 9-2 10-4 10-3 11-5 11-6 11-13 25-3 3-19-26-48-64-43-51H426l32 27 59-49-27-21V19L426-13V19H222V-45L157-77V276l-50-50-59-54-7 7 51 61 50 62 15 20v63l35-18 44 61 44 66 16 25H44v22H232V702H98v22H232V874l65-11 16-10-16-10V724h15l44 48 54-48v-1l22 45 30 68 5 10 56-33 10-16-20-3-26-53-39-71-41-70-39-59h53l53 54 65-54V519H354l-11-15 5-5 13-7 12-8 11-8 10-9 10-10 9-9 8-10 8-11 6-11-2-25-18-16-25 2-16 19-1 8zM874-29 824 3 779 40 738 82l-5 6-47-44L630 3 571-31 507-58 439-76l-3 9 63 28L557-6l53 38 48 42 45 48 2 3-4 5-32 51-28 56-23 61-18 65-11 65H542v21H688V863l65-10 16-11-16-10V670H881l44 48 54-48V648H753V449H859l33 27 59-48-27-16-9-4-20-58-33-74-37-68-42-61-14-17 9-10 39-35 43-30 46-25 49-20L990-5 928-56 874-29zM426 175H222V41H426V175zM6e2 428l22-59 26-59 28-56 31-49 29-38 7 9 35 59 32 65 27 71 17 57H6e2zM426 331H222V197H426V331zM4e2 702H297V541h13l12 19 38 68 37 69 3 5z"/><glyph glyph-name="undefined" unicode="𣀇" horiz-adv-x="1024" vert-adv-y="918" d="M366 373l58-32 11-15-23-4-3-5-8-13-8-13-8-13-8-13-9-13-9-13-10-14-1-1h44l53 53 65-53V202H318V95h51l54 53 64-53V73H318V-45L254-77V73H94V95H254V202H67v22H334l2 7 3 16 3 16 3 15 6 31 3 14 3 14 5 23h-1l5 13zM873-30 821 3 773 40 729 82l-6 7-51-45L614 3 551-31 485-58 414-76l-3 9 66 28L538-6l56 38 51 43 47 48 2 2-4 4-33 52-29 56-25 60-19 66-12 65H522v21H678V863l64-10 16-11-16-10V670H864l53 54 65-54V648H742V449H857l32 27 60-48-27-16-9-4-21-59-35-74-39-67-44-62-14-16 8-9 42-35 45-30 48-25 52-21L992-4 930-56 873-30zM583 428l23-58 26-60 30-55 32-50 32-40 9 11 37 59 34 66 28 70 18 57H583zM186 260l-1 11-1 12-3 23-2 12-3 13-2 12-3 13-5 11 8 6 8-11 10-9 9-10 8-11 15-21 7-12 7-11 6-12 6-13-5-24-19-15-24 4-15 20-1 12zM48 374v22H254v91H103v22H254V611l64-11 17-11-17-9V509h53l44 48 54-48V487H318V396h87l54 53 64-53V374H48zm88 245V582L77 552V850l59-30H436l30 27 56-48-27-19V598l-59-30v51H136zm63 180H136V641h63V799zm120 0H253V641h66V799zm117 0H373V641h63V799z"/><glyph glyph-name="undefined" unicode="𣁵" horiz-adv-x="1024" vert-adv-y="918" d="M728 853l65-11 16-10-16-10V249l66 11 44 63 73-42 4-21-187-33V-56L728-88V216L423 163l-3 21 308 54V853zM282 363l-2-58 4 1 46 12 50 12 51 11 54 11 2-10-50-21-49-19-47-18-45-17-20-7-3-30-10-60-15-54-19-49-23-43-27-37-31-32-35-24L74-86l-4 9 31 24 27 29L151 8l20 36 16 40 13 46 9 50 7 55v3l-6-2-39-15-38-13-36-13-13-5-6-20-15 12-30 58 10 4 36 9 37 10 38 10 42 10 22 6v8 66 93H87v21H218V640H48v22H288l7 14 9 22 9 20 9 20 8 19 8 18 7 18 7 16 6 16 3 10 1 3 1 2 3 6 55-35 9-17-21-1-8-11-10-15-12-15-13-17-13-16-14-17-14-18-16-17-5-5h49l54 54 65-54V640H282V477h38l53 54 65-54V456H282V363zm282-8-9 14-10 14-10 15-11 15-12 14-13 15-14 15-14 16-16 15 5 8 40-20 18-10 18-11 17-12 16-12 15-13 15-13 13-14 13-15 4-24-13-20-24-5-21 13-7 15zm38 235-9 14-9 15-10 14-11 15-13 15-13 14-13 16-15 16-15 14 5 8 19-10 20-9 19-10 18-12 17-12 16-12 15-13 14-13 13-14 13-14 4-24-13-21-24-5-21 14-7 14zM148 719l-3 14-4 14-5 14-5 13-6 14-7 14-7 14-10 12 7 7 13-10 14-9 13-11 12-12 11-12 10-13 10-14 9-15 8-15 7-17-4-24-19-15-25 4-15 19-4 28z"/><glyph glyph-name="undefined" unicode="𣂮" horiz-adv-x="1024" vert-adv-y="918" d="M147-29v16h43l6 1 5 1 5 1 2 2 1 2 1 3 1 5V9 56l-10-9-24 3-16 19-1 12-2 13-2 11-3 12-3 11-4 12-4 11-8 24-7 9 6 7 10-8 11-8 11-8 10-9 9-10 9-11 8-11 8-13 2-4v98l-4-4-25 2-17 18-1 11-8 32-8 21-4 9-5 10-4 11-8 7 6 8 10-7 10-5 11-6 10-8 10-8 9-9 9-9 8-11 1-2V401H125V-45L61-77V455l64-32h86l33 26 59-48-27-21V231l3 3 20-16 3 13 7 25 7 25 8 24 7 24 7 23 6 23 6 22 6 21 4 16 1 2 1 3 3 8 58-29 12-16-21-4v-1l-10-20-10-22-11-21-11-22-12-22-13-22-13-22-14-23-11-15 9-9 18-21 16-22 16-24 15-25 14-27 13-28 13-30L435-9l-3-25-19-15-25 2-15 19-8 30-8 29-10 28-9 27-10 25-11 25-11 24-11 23-12 22-7 14V9L275-5l-2-13-5-13-6-13-9-10-11-9-12-7-13-4-14-2-13-1v32L147-29zM599 761l61-30 5 2 34 13 32 13 29 12 28 12 26 11 24 11 21 11 19 10 12 7 5 3 7-14 37-35 1-18-20 8-16-7-23-8-24-7-26-8-28-8-30-7-32-7-34-7-37-5-7-1V498H867l54 54 65-54V476H858V-40L794-72V476H663V363l-3-62-7-59-9-55-13-51-15-47-20-43L574 8 549-25 520-53 487-76l-6 8 23 29L525-8l19 34 15 37 13 41 11 44 8 48 5 52 3 56V761zM462 50l-6 20-7 19-8 20-9 20-10 20-12 20-12 21-13 21-14 22 7 7 21-16 1-2 1 3 7 27 7 24 7 25 7 24 7 23 13 47 6 22 4 16 1 4v2l3 8 59-29 12-15-21-4v-2l-10-22-10-22-11-22-11-22-12-23-13-23-13-23-15-22-4-7 4-4 19-17 16-19 16-18 14-20 13-20 12-21 11-20 9-22-2-24-19-16-24 2-16 19-5 19zM451 540l-24 23-23 26-22 27-20 28-19 31-18 31-16 34-11 29-3-6-22-43-23-40-25-39-26-35-28-33-29-30-31-27-33-24-34-19-6 8 27 27 26 29 24 30 24 31 22 34 22 36 20 38 19 40 17 42 9 22H126v21H254l32 27 59-48-27-17-6-2 3-5 22-30 21-29 22-27 22-25 22-23 23-22 23-20 24-18 24-17 18-12-59-45-26 22zm-84 49 65-54V514H140v21H314l53 54z"/><glyph glyph-name="undefined" unicode="𣈥" horiz-adv-x="1024" vert-adv-y="918" d="M510-24V-8h60l5 1 3 1 2 1 1 1 1 1 2 5 1 4v7V417H465V349l4 5 11-7 13-5 11-5 11-6 10-7 10-6 9-7 9-8 8-8 8-8 2-24-15-19-25-3-19 15-2 8-2 7-2 9-4 9-5 9-5 9-6 10-6 10-7 11-8 6V205l4 5 11-7 13-5 22-11 10-6 10-7 9-7 9-7 8-8 8-8 2-25-15-20-25-2-19 16-2 7-2 8-2 8-4 9-5 9-5 9-6 10-6 10-7 11-8 7V-40L401-73V471l64-32H585l32 27 60-49-27-21V13L649-1l-3-13-4-13-6-12-9-11-11-9-13-6-13-5-13-2-13-1v33L510-24zm257 9-6 24-7 24-8 23-8 24-10 24-11 23-12 25-23 46-6 3 9 28 9 27 9 27 9 26 9 25 16 51 7 25 7 24 5 20 1 4v1l3 8 59-27 12-15-20-5-2-5-10-25-12-24-12-25-12-24-13-25-15-24-15-24-17-24-12-15 18-16 20-21 18-22 16-22 15-23 14-24 12-24 12-25 9-25 10-26-5-24-19-14-24 3-15 20-5 23zm131 2-6 22-9 23-9 22-9 23-12 24-11 24-14 25-13 26-12 22-6 4 10 26 10 27 21 51 10 26 18 49 9 25 7 25 6 19 5 13 58-30 11-15-20-5-14-29-12-24-13-25-14-24-15-23-15-24-16-23-18-23-12-13 18-17 21-21 19-22 17-22 16-23 15-23 13-23 13-23L956 8l9-24-2-24-19-16-24 3-16 18-6 22zM57 777l65-32H244l32 27 59-48-27-22V89L244 57v64H122V57L57 25V777zM244 423H122V143H244V423zm0 301H122V444H244V724zM901 537l-30 24-29 26-28 27-27 29-26 31-24 32-23 34-21 36-2 4-7-10-27-35-29-35-32-33-35-33-37-32-39-32-42-30-46-30-47-28-6 8 42 37 39 35 37 35 35 35 32 34 30 34 27 35 25 34 22 35 4 7H467v21H648l3 2 2 4 1-1 26 22 59-48-26-16-5-2 3-4 28-29 27-29 28-27 29-26 28-23 29-22 29-21 30-20 30-17 23-14-60-46-31 22zM783 594l64-54V518H485v22H729l54 54z"/><glyph glyph-name="undefined" unicode="𣌾" horiz-adv-x="1024" vert-adv-y="918" d="M896 35 868 60 842 87l-25 28-23 29-20 30-18 31-16 33-12 33V-45L663-77V209l-23-33-30-38-32-35-35-34-37-31-40-28-43-26-45-22-5 8L412 1l36 32 34 32 33 33 29 35 27 36 25 37 22 39 20 41 7 18H550V240l-64-32V632l64-32H663V702H435v22H663V869l65-11 16-11-16-9V724H857l54 53 64-53V702H728V6e2H845l32 27 59-49-27-21V272l-64-32v64H732l15-21 20-29 21-28 22-25 23-25 24-24 25-22 27-21 28-20 29-19 20-12-60-46-30 23zM198 874l64-11 16-10-16-10V686h81l32 27 59-49-27-21V229l-64-32v64H262V-40L198-72V261H115V197L50 165V718l65-32h83V874zm0-403H115V283h83V471zm145 0H262V283h81V471zm320-32H550V326H663V439zm182 0H728V326H845V439zM663 578H550V460H663V578zm182 0H728V460H845V578zM198 664H115V492h83V664zm145 0H262V492h81V664z"/><glyph glyph-name="undefined" unicode="𣘛" horiz-adv-x="1024" vert-adv-y="918" d="M3e2 363l-6 13-6 12-8 13-8 11-9 12-10 12-10 12-4 3V-40L175-72V408l-2-5-16-48-19-46-21-45-22-43-24-41-27-39-9 5 17 43 16 44 17 45 15 45 13 46 12 48 12 48 10 49 9 50 4 36H39v21H175V863l64-10 17-11-17-10V621h26l44 49 54-49V6e2H239V471l16-5 16-7 15-8 14-9 14-10 13-11 12-12 12-13 10-13 3-24-15-20-24-3-19 15-6 12zm280-71 63-17 15-13-19-8-6-37-13-54-18-48-22-43-27-39L522 0 488-27 449-48 408-63l-45-8-3 9 40 18 35 21L466 1l27 27 23 32 20 35 16 39 12 44 9 49 5 52 2 13zM783-51l-14 2-13 2-13 4-13 7-10 9-9 10-7 13-4 13-3 13V35 283l64-11 17-11-17-9V29l2-5 1-5 2-2 5-1 5-1 7-1H915l32 134h11L947 14 967 1l13-19-13-20-20-13H783zM540 752v4l65-32h14l2 6 3 15 2 16 3 14 3 15 3 15 2 15 2 14 3 15 2 9h-1l4 13 59-28 12-15-22-5-4-7-22-40-9-13-8-14-9-12-10-13h94l32 26 60-48-27-21V342l-65-32v32H605l-65-32V731l-19 8-1-1-12-5-13-5-13-5-14-4-14-4-7-2-8-4V358h19l34 38 43-38V337H439V272l-65-32V740l56-10 11 10 11 9 11 9 18 17 8 8 8 9 3 4v1l4 3 36-48zm380 25 59-48-27-22V304l-65-32v65H805v21h82V729H812v21h75l33 27zM728 530H605V363H728V530zm0 172H605V552H728V702z"/><glyph glyph-name="undefined" unicode="𣸁" horiz-adv-x="1024" vert-adv-y="918" d="M609 874l64-11 16-10-16-10V788H798l32 27 59-48-26-22V681h19l44 48 54-48V659H863V552l-65-33v43H673V471H817l44 48 54-48V449H673V374H861l54 54 65-54V353H673V-45L609-77V353H306v21H609v75H359v22H609v91H399v22H609v75H314v22H609v86H407v21H609v86zM556 131l47-44 6-18-20 3-11-11-28-24-28-22L493-5 464-23 432-38 401-51l-33-9-33-7-35-4-2 10 31 13 29 15 28 15L413-2l26 18 25 19 24 21 23 22 22 25 21 26 2 2zM187 120v1l2-5 11-34 7-36 4-40V-36L201-58l-23-8-22 11-8 23 2 38V40l-2 32-6 27-8 26-11 22-13 20-16 18-20 17-24 16 3 9 30-7 27-11 25-17 6-6 5 13 10 26 13 35 15 42 18 50 21 58 24 65 27 73 32 80 9-2-40-159-18-68-16-59-13-51-11-44-9-35-7-28-3-20-2-11-9-31zM527 236l45-46 5-19-20 5-8-7-24-20-24-18-25-17-25-15-27-12-26-12-27-9-27-6-29-4-2 9 23 13 23 14 23 15 22 14 22 17 21 17 20 18 20 19 19 20 15 18 6 6zM5e2 338l46-47 4-18-20 4-5-4-22-18-22-15-22-15-23-13-23-11-25-10-24-8-25-6-25-4-4 9 22 13 21 13 40 27 18 14 19 16 18 16 17 17 17 19 13 15 2 2 2 2 1 2zM135 470l-5 11-6 11-8 11-8 10-10 11-12 11-13 11-14 11-16 10 3 9 19-6 19-4 17-6 16-7 16-8 15-8 13-11 13-11 11-12 10-13 3-24-16-20-24-2-19 16-4 10zM798 659H673V584H798v75zm0 108H673V681H798v86zM209 727l-5 10-5 11-7 10-8 11-11 11-11 11-12 12-14 12-17 10 4 9 19-7 18-5 18-6 16-7 15-9 14-8 13-10 12-11 11-11 10-12 2-25-15-19-25-2-19 16-3 9z"/><glyph glyph-name="undefined" unicode="𣻢" horiz-adv-x="1024" vert-adv-y="918" d="M838-51l-89 2-76 6-62 10-50 15L520 1 488 24 464 52 446 82l-6 16-3-2-5-6-12-17-14-17-14-16-13-16L351-5 337-19 327-29l1-23-18 6L262-1l9 6 31 20 16 10 16 11 17 11 17 11 17 12 6 3V353H278v21H391l32 27 59-48-26-22V105l9-11 22-21 25-18 28-14 36-11 45-9 58-5 71-1 87 2 104 6 60 3-56-74-107-3zM376 513l-8 14-8 14-8 13-9 13-10 12-10 12-11 12-11 12-37-148-18-68-16-59-13-51-11-44-9-35-6-28-4-20-2-11-8-31-1 1 3-5 10-34 7-36 5-40V-36L190-58l-23-8-22 11-8 23 2 38V40l-2 32-6 27-8 26-10 22-14 20-16 18-20 17-24 16 4 9 29-7 28-11 24-17 6-6 5 13 10 26 13 35 15 42 19 50 21 58 23 65 28 73 28 74-4 4 5 8 16-7 16-6 16-7 15-8 15-10 14-10 14-12 13-12 13-13 12-14 5-24-14-21-25-5-20 14-7 14zM782 129v16h76l6 1h5l3 1 2 1 2 2 1 2 1 3 1 5v7V314H768V149l-65-32V314H592V116L528 83V656l64-32H733l-16 13-6 15-5 14-7 14-16 26-9 13-9 13-9 12-11 13-13 11 5 8 16-7 16-7 16-8 14-9 14-11 14-11 13-13 11-13 5 5 15 20 14 19 14 17 11 16 10 15 9 14 3 6H543v22H840l4 2 1 4 1-1 27 21 59-48-27-16-22-9-2-2-12-12-13-12-15-13-16-13-18-13-19-14-22-15-6-4 4-4 10-15 2-25-15-18H879l32 26 60-48-27-21V167l-1-14-3-14-4-13-6-11-9-12-11-8-12-7-13-4-14-3H858v32l-76 16zM703 460H592V335H703V460zm176 0H768V335H879V460zM124 470l-5 11-6 11-7 11-9 10-10 11-12 11-12 11-14 11-17 10 4 9 18-6 19-4 17-6 17-7 15-8 15-8 13-11 13-11 11-12 11-13 2-24-15-20-25-2-19 16-4 10zM703 602H592V481H703V602zm176 0H768V481H879V602zM414 704l-7 13-7 14-7 13-18 26-9 12-10 13-11 13-13 11 5 8 16-7 16-7 16-8 15-10 14-10 14-11 12-12 13-13 12-13 10-15 3-24-15-20-24-2-20 15-5 14zM198 727l-4 10-6 11-7 10-8 11-10 11-12 11-12 12-14 12-17 10 5 9 18-7 19-5 17-6 16-7 15-9 14-8 13-10 12-11 12-11 9-12 2-25-15-19-25-2-19 16-3 9z"/><glyph glyph-name="undefined" unicode="𣿅" horiz-adv-x="1024" vert-adv-y="918" d="M322-41v22H617V62H392V84H617v99H467V167l-65-33V456l65-32H617v73H329v21H617v61l-33-3-49-4-50-3-51-1H380l-1 9 52 11 50 10 49 9 48 10 46 9 46 9 43 10 42 10 41 10 39 11 2-8 55-45 2-17-23 12-21-5-41-8-43-7-43-6-42-6V518H846l54 54 65-54V497H681V424H831l32 27 59-49-27-21V172l-64-32v43H681V84H824l44 48 54-48V62H681V-19H854l54 53 64-53V-41H322zM193 121l3-5 12-33 7-37 5-40V-37L209-58l-24-8-21 11-8 23 2 38V40l-3 31-6 28-9 25-12 22-15 21-19 18-22 17-27 16 3 9 32-7 30-11 27-17 10-9 7 16 11 27 14 35 16 42 20 50 23 57 26 66 30 72 33 80 9-2-23-84-22-76-20-67-18-60-15-51-12-43-10-36-7-28-5-19-2-11-9-30zM617 290H467V204H617v86zm214 0H681V204H831v86zM617 402H467V312H617v90zm214 0H681V312H831v90zM142 469l-6 11-7 10-8 12-11 11-11 11-13 11-15 11-16 11-18 10 3 9 20-5 20-4 20-6 17-7 17-8 16-9 15-10 13-11 13-12 11-13 3-25-14-19-25-3-20 14-4 11zM726 872l64-11 17-11-17-9V766h80l53 53 65-53V744H790V706l-64-32v70H572V663l-64-32V744H310v22H508V872l64-11 16-11-16-9V766H726V872zM223 726l-5 10-7 10-8 11-9 11-12 12-12 11-15 12-16 11-18 11 4 9 20-7 20-4 19-7 18-7 16-8 16-9 14-9 12-10 12-12 11-13 3-24-15-19-24-3-20 15-4 9z"/><glyph glyph-name="undefined" unicode="𤲚" horiz-adv-x="1024" vert-adv-y="918" d="M9e2 35 871 60 843 86l-26 28-24 29-22 30-19 32-17 33-14 35-2 5V-45L654-77V213l-26-37-32-38-34-36-37-33-39-31-42-28-45-26-47-22-5 8L388 1l39 32 37 32 33 33 32 35 28 36 27 38 23 39 21 41 8 17H532V240l-65-32V632l65-32H654V702H411v22H654V869l65-11 16-11-16-9V724H864l54 53 64-53V702H719V6e2H846l33 27 59-49-27-21V272l-65-32v64H725l15-21 22-29 22-27 23-26 23-25 26-23 26-23 28-21 29-19 31-19 22-13-60-47-32 24zM110 162V97L46 65V812l64-32H323l32 26 59-48-27-21V130L323 97v65H110zm74 298H110V183h74V460zm139 0H249V183h74V460zm331-21H532V326H654V439zm192 0H719V326H846V439zM654 578H532V460H654V578zm192 0H719V460H846V578zM184 758H110V481h74V758zm139 0H249V481h74V758z"/><glyph glyph-name="undefined" unicode="𤴱" horiz-adv-x="1024" vert-adv-y="918" d="M32 278l11 5 14 4 16 5 16 6 18 7 17 7 19 9 19 9 20 10 18 8v64V772l65-32H534V874l64-11 16-10-16-10V740H856l54 53 64-53V718H265V412l-4-67-7-64-11-60-15-55-19-51-22-47-27-42-30-37L96-44 58-70l-6 8L81-29 107 6l23 39 20 41 16 45 14 49 9 52 7 56 2 34-2-2-17-16-16-14-17-14-16-13-16-11-16-11-11-6-5-23-16 11-34 55zM873 5l33 134h10L906 5 925-8l13-19-13-20-19-13H637l-14 1-14 3-13 4-11 6-11 9-9 11-7 13-4 12-3 14V26 282L289 258l-1 21 263 25V545l-41-6-60-7-65-6-68-5-1 9 66 16 63 14 59 14 56 13 53 13 48 13 46 13 42 13 38 13 30 10 5 2 2-8 50-43 1-16-22 10-11-4-38-10-40-10-44-9-48-10-50-9-7-1V310l220 21 48 59 70-48 2-21-340-32V26l1-6V15l1-3 1-2 2-2 2-1 3-1 5-1h7H873zM108 508l-3 17-4 16-5 16-5 16-6 14-7 15-8 14-9 14-10 11 6 8 14-9 15-9 15-11 13-12 13-14 11-16 10-16 10-18 8-19 8-20-4-24-20-15-25 4-14 20-3 18z"/><glyph glyph-name="undefined" unicode="𤷆" horiz-adv-x="1024" vert-adv-y="918" d="M879 10 843 31 810 53 779 75 750 99l-26 26-24 26-21 28-19 29-11 25V-43L585-75V171l-12-13-34-32-37-30-39-29-43-26-46-24L325-5 273-25 218-42l-3 9L265-6l48 26 44 27 41 28 38 29 35 30 31 31 28 32 26 33 3 5H428V170l-65-32V511l65-33H585v79H291v21H585V695l64-11 16-10-16-10V578H870l44 49 54-49V557H649V478H813l32 27 59-48-27-22V203l-64-33v65H664l15-14 23-21 25-22 26-19 28-20 29-18 31-18 33-16 34-16 37-15 33-14L917-9 879 10zM32 278l11 5 14 4 16 5 16 6 18 7 17 7 19 9 19 9 20 10 18 8v64V772l65-32H534V874l64-11 16-10-16-10V740H856l54 53 64-53V718H265V412l-4-67-7-64-11-60-15-55-19-51-22-47-27-42-30-37L96-44 58-70l-6 8L81-29 107 6l23 39 20 41 16 45 14 49 9 52 7 56 2 34-2-2-17-16-16-14-17-14-16-13-16-11-16-11-11-6-5-23-16 11-34 55zm553 66H428V256H585v88zm228 0H649V256H813v88zM585 457H428V365H585v92zm228 0H649V365H813v92zM108 508l-3 17-4 16-5 16-5 16-6 14-7 15-8 14-9 14-10 11 6 8 14-9 15-9 15-11 13-12 13-14 11-16 10-16 10-18 8-19 8-20-4-24-20-15-25 4-14 20-3 18z"/><glyph glyph-name="undefined" unicode="𥆖" horiz-adv-x="1024" vert-adv-y="918" d="M785 280l59-28 12-15-20-5-1-3-11-24-10-23-12-25-12-25-14-26-13-25-16-27-16-26-10-14H868l54 54 65-54V-8H338V14H706l6 23 9 29 9 29 9 28 8 26 9 26 7 26 7 24 6 24 5 18 4 13zM66 791l64-32H275l33 27 59-48-27-22V111L275 79v54H130V68L66 36V791zM539 87l-4 21-5 21-6 20-6 20-8 20-7 19-9 19-9 19-10 19 7 6 17-15 16-15 15-16 14-18 13-19 11-20 11-21 10-21 9-22 8-23-4-25-20-15-24 5-15 20-4 21zM275 343H130V154H275V343zM449 659l64-33H811l33 27 59-48-27-22V338l-65-33v33H513l-64-33V659zm362-54H513V359H811V605zM275 540H130V364H275V540zm0 198H130V562H275V738zm620 93 65-54V756H365v21H842l53 54z"/><glyph glyph-name="undefined" unicode="𥉝" horiz-adv-x="1024" vert-adv-y="918" d="M373-51v22H572V213H465V148l-64-32V487l64-32H569V6e2H484V535l-64-32V842l64-32h85l32 27 59-49-27-21V401l-64-32v64H465V234H572l32 27 60-48-27-22V-29h81V267l65-33H886V444H783V412l-65-32V847l65-32h92l32 27 59-49-27-21V578l-64-32v54H783V466H886l32 26 60-48-27-21V181l-65-33v65H783V-29h84l54 54 65-54V-51H373zM63 791l64-32H266l33 27 59-48-27-22V101L266 68v65H127V68L63 36V791zM266 343H127V154H266V343zm0 197H127V364H266V540zm0 198H127V562H266V738zm609 55H783V621h92V793zm-306-5H484V621h85V788z"/><glyph glyph-name="undefined" unicode="𥝾" horiz-adv-x="1024" vert-adv-y="918" d="M355 297l-8 12-8 13-9 12-10 12-12 13-12 11-13 13-11 9V-45L208-77V354l-12-30-19-46-22-43-24-42-25-40-28-37L48 81l-9 6 21 40 21 41 19 41 18 43 16 44 15 45 14 47 11 47 11 50 5 34H43v22H208V721l-23-5-41-9-43-8-46-7-3 10 43 17 41 15 38 15 36 14 33 14 29 13 27 13 24 13 21 12 13 9 4 3 12-19 30-31 1-19-20 9-12-6-25-10-27-10-29-10-19-6V541h32l54 54 64-54V519H272V409l3-1 19-6 18-6 17-8 17-10 15-9 15-11 14-12 13-13 12-13 5-24-13-21-25-5-20 14-7 13zm90 507 64-32H870l53 54 65-54V750H509V434l-2-72-4-68-6-64-7-59-8-54-11-49-12-44-15-39-16-33-19-28-9 4 9 32 8 34 7 39 7 43 6 48 4 52 3 58 1 62 1 67-1 71V804zM921 13l32 135h11L953 13 973 1l13-20-13-19-20-13H783 770l-14 3-13 4-12 7-11 9-9 10-7 13-4 13-2 13-1 14V328L527 297l-4 21 174 32V569l-16-3-43-7-45-7-48-5-1 9 44 16 43 15 41 13 38 14 36 13 33 13 31 13 28 13 26 12 18 11 5 2 6-13 39-37V624l-19 8-25-9-29-11-30-9-34-10-34-9V362l93 18 44 62 73-41 4-21-214-40V35l1-7 1-5 1-3 1-2 1-1h1l1-1 4-1 4-2H921z"/><glyph glyph-name="undefined" unicode="𥦁" horiz-adv-x="1024" vert-adv-y="918" d="M656-30v17H763h7l4 1 4 1 2 1 1 1v1l1 2 1 3 1 5 1 6V111H547V-14L482-46V111H244V-40L180-72V392l64-32H506l-6 7-13 12-14 12-16 12-17 11-18 11-19 12-21 11-22 11-23 11 3 9 26-4 25-4 24-5 23-6 21-7 21-8 20-10 19-10 18-11h1l16 9 30 17 27 16 26 15 22 13 20 13 6 4H182v22H714l8 6 9 8 2-2 18 14 59-48-27-16-65-27v2l-16-7-23-9-26-9-27-10-31-10-33-10-9-2h1l11-22-7-21H785l32 27 59-49-27-21V8-5l-3-14-4-13-7-12-9-11-11-9-12-6-13-5-13-2-14-1v32L656-30zM482 226H244V132H482v94zm303 0H547V132H785v94zM482 338H244V247H482v91zm303 0H547V247H785v91zM363 739l60-26 13-15-22-6-5-10-19-28-25-25-30-22-34-19-40-17-44-14-49-11-53-9-59-6-2 9 56 17 51 17 45 17 39 18 34 19 27 20 22 20 16 21 11 20 4 16 4 14zM907 616l24 69h11l-11-69 15-10 10-15-10-14-15-10H660l-13 2-12 3-12 5-10 8-9 10-8 11-4 12-4 14-1 13V753H146V742l-1-21-4-19-7-18-9-17-11-16-14-14-17-12-24-1-19 17-1 24 17 19 10 3 10 5 9 7 9 8 9 11 7 14 7 16 6 18 6 21 2 23h10l2-23 2-12H480V887l64-11 16-10-16-10V775H894l3 3 3 6 2-2 24 20 59-49-27-16-32-13-5-4-11-9-26-19-14-9-16-10-17-10-15-12-7 7 13 15 11 16 11 14 9 14 9 13 8 12 7 11H652V645l-1-6v-6l1-3v-3l1-2 1-2 2-2 4-2 6-2 7-1H907z"/><glyph glyph-name="undefined" unicode="𥲆" horiz-adv-x="1024" vert-adv-y="918" d="M782-81 669-79l-94 5-76 8-63 11-50 15-40 18L315-1 291 23 278 41 248 16 229 2 210-11 192-23 174-35 137-58l-16-9-4-22-16 11L64-25l10 5 19 7 20 7 19 7 40 15 42 15 10 3V228H73v21H224l33 27 59-48-27-22V50l17-10 26-14 30-13L399 3l46-8 59-6 74-4h92l111 2L914-8l61 2-59-73-134-2zM735 67V83h86 7l5 1 3 1 3 2 1 3 2 3v5l1 6v95H685V82L620 49V199H461V57L397 25V469l64-32H638l-6 9-8 11-9 11-11 10-10 11-13 11-13 10-14 11-15 11-17 8 3 9 19-4 20-4 17-4 18-6 17-7 15-8 16-9 14-9 12-8 8 5 21 17 19 14 18 14 15 14 14 12 6 4H408v22H794l3 3 6 9 2-2 21 17 59-49-27-16-46-19-1-1-33-16-20-9-21-10-23-9-26-9-3-1 3-3 8-23-9-17H843l32 26 59-48-27-21V104 90l-3-13-4-13-7-12-8-11-12-9-12-6-12-4-14-3-14-1V51L735 67zM620 308H461V220H620v88zm223 0H685V220H843v88zM208 341l-10 12-12 10-12 11-13 10-13 11-14 10-15 10-16 10-17 9 3 9 19-4 20-3 18-4 18-6 18-6 17-7 16-7 16-9 15-9 15-10 10-22-8-23-22-10-23 8-10 10zm412 74H461V330H620v85zm223 0H685V330H843v85zM255 485l-9 10-9 11-10 11-12 10-13 11-13 10-15 11-15 11-17 9 4 9 19-5 19-3 18-6 18-5 16-7 16-7 15-8 15-9 14-10 13-9 9-23-10-23-23-9-22 10-8 11zm83 166-4 10-7 10-8 11-10 12-11 11-13 12-15 11-16 13-11 6H217l-15-19-21-25-24-23-25-23-28-20-30-19-32-18-6 9 25 25 24 25 22 24 21 24 17 25 16 25 14 25 12 25 11 25 5 21 1 1 1 4 3 8 58-29 12-15-21-5-4-8-14-28-8-12H426l54 54 64-54V747H284l16-5 17-8 17-8 15-9 14-10 13-10 12-12 10-12 2-25-15-19-25-2-19 15-3 9zm425 0-5 10-6 10-8 11-10 12-11 11-14 12-14 11-16 13-12 6H639l-12-15-22-23-24-22-25-20-28-18-30-17-32-14-5 8 26 23 23 22 23 23 20 22 18 23 16 23 14 23 11 24 10 24 7 20h-1l5 13 58-29 12-16-21-4-4-8-15-27-9-13H856l54 54 64-54V747H708l16-5 18-8 17-8 15-9 14-10 13-10 12-12 10-12 2-25-15-19-25-2-19 15-3 9z"/><glyph glyph-name="undefined" unicode="𥲗" horiz-adv-x="1024" vert-adv-y="918" d="M357 158l-4-10-6-12-6-11-9-10-10-9-12-7-12-5-13-4-13-2-14-1v32l-54 16v16h54l7 1 6 1 5 1 4 1 3 3 3 2 2 2 5 19 4 10 3 11 1 13-2 13-5 16-8 17-11 19-14 20-17 21-21 21 1 2-6 5 14 23 13 23 13 21 12 21 10 19 10 19 8 18 8 18 3 8H163V-61L99-93V573l64-32H315l32 27 59-49-27-16-14-6-9-14-12-17-14-17-14-17-16-18-16-18-19-18-20-17-13-12 23-14 25-16 21-16 18-17 16-18 12-20 10-20 5-22 2-23-3-23-4-2zM863-61l-73 5-66 8-59 11-51 17L570-1 534 23 505 51 489 78l-2-4-18-34L447 9 423-19 396-44 367-65 335-81l-6 8 25 25 22 25L396 3l18 28 15 30 13 32 10 34 8 36 6 39 4 42 1 11 63-17 15-13-18-9-4-24-11-42-13-39-4-9 6-8 23-21 27-18 34-15 37-12V331H459v22H747l54 53 64-53V331H690V199H8e2l44 48 54-48V177H690V16l42-5 62-5h70l76 3 62 1-60-72-79 1zM432 353l-24 1-16 20 2 24 6 7 6 8 4 10 4 9 3 11 2 12 2 13v29l-5 15 9 4 7-15 5-8v2H626v99l64-11 17-11-17-10V495H887l33 26 59-48-27-16-18-7-7-10-8-9-9-11-9-9-9-9-11-10-10-8-9-10-8 6 6 11 5 13 4 12 4 12 3 12 4 12 5 21H447l6-15 4-14 2-16V413l-1-15-2-15-5-15-19-15zM338 635l-6 12-6 13-8 12-10 13-12 13-12 13-15 14-16 14-13 8H217l-14-20-21-30-23-28-26-26-28-25-31-23-32-22-6 8 25 29 24 28 22 28 20 29 17 28 16 29 14 30 13 30 10 30 7 26 4 14 59-27 13-15-21-5-5-14-15-32-10-20H426l54 54 64-54V747H273l8-2 20-9 18-10 17-10 15-11 14-13 13-12 12-14 10-16 1-24-17-19H359l-18 17-3 11zm425 0-6 12-6 13-8 12-11 13-11 13-13 13-14 14-16 14-13 8H638l-10-16-22-27-23-26-26-24-28-22-30-21-33-17-6 8 26 25 24 26 22 26 20 26 18 26 16 27 14 28 11 28 11 29 6 25 1 4 1 1 2 9 60-27 12-15-20-5-5-13-15-32-12-21H856l54 54 64-54V747H698l8-2 19-9 19-10 16-10 16-11 14-13 13-12 12-14 10-16V626l-16-19H784l-18 17-3 11z"/><glyph glyph-name="undefined" unicode="𥳉" horiz-adv-x="1024" vert-adv-y="918" d="M957 82l-8-10-9-10-10-9-10-7-12-6-12-5-13-3-13-1-13-1V62L803 78V94h54l7 1 7 1 5 1 6 2 5 3 5 3 4 4 4 4 4 5 4 7 5 9 4 14 3 18-2 22-5 23-11 24-17 26-26 26-35 25-44 28-8 6 16 27 16 26 16 25 14 24 14 23 13 22 11 22 11 21 7 14H704V-39L639-71V604l65-33H898l2 2 1 3 1-1 28 23 59-48-26-16-16-7-1-1-13-20-15-20-16-20-17-21-18-21-20-22-21-21-22-21-15-12 48-10 44-22 34-26 27-29 18-31 11-32 5-30V140l-4-25-8-21-7-12zM410 277l-1 6-2 7-4 8-4 8-6 8-6 10-8 9-8 11-4 2-28-25-53-45-36-28H468l33 27 59-48-27-22V-21L468-53V1H235V-37L170-69V190l-61-40-65-38-6 9 59 46 56 46 17 14v54l39-20 50 45 49 48 8 9H41v21H253V496H101v21H253V625l65-11 16-11-16-9V517h31l44 49 54-49v-4l30 41 33 47-1 1 6 8 51-41 7-17-20 1-27-36-42-51-46-50-32-32h66l53 54 65-54V363H385l-10-9 2-1 13-4 12-4 12-5 10-5 11-6 9-6 9-6 8-7 7-8 2-25-16-19-24-2-19 16-1 5zm58-164H235V22H468v91zm0 114H235V135H468v92zM433 496H318V384h19l17 19 44 49 35 44zM338 662l-5 10-6 11-9 11-9 12-12 12-12 12-15 12-16 13-12 7H217l-14-20-22-26-23-24-26-24-28-22-30-20-32-18-6 8 25 26 24 26 22 26 20 25 18 25 16 26 14 26 12 27 10 26 8 27 3 8 59-28 12-15-21-4-4-11-15-29-9-14H426l54 54 64-54V762H281l19-7 18-8 16-9 16-10 14-10 13-11 11-12 11-14 1-25-15-18-25-2-19 16-3 10zm425 0-5 10-7 11-8 11-10 12-11 12-13 12-15 12-15 13-12 7H639l-12-16-21-24-24-23-26-21-27-19-30-18-33-15-5 8 26 24 23 23 22 23 20 24 19 24 15 23 14 25 12 25 10 25 6 21 4 13 59-28 12-15-20-5-4-9-15-29-10-15H856l54 54 64-54V762H706l18-7 19-8 16-9 15-10 14-10 13-11 12-12 10-14 2-25-16-18-24-2-19 16-3 10z"/><glyph glyph-name="undefined" unicode="𥳘" horiz-adv-x="1024" vert-adv-y="918" d="M50-52v21H480V53H146V75H480v79H268l-64-33V392l64-32H756l32 27 59-48-27-22V154l-64-33v33H544V75H780l44 48 54-48V53H544V-31H856l54 54 64-54V-52H50zM480 249H268V175H480v74zm276 0H544V175H756v74zM480 339H268V270H480v69zm276 0H544V270H756v69zM346 438l-2 7-5 8-5 9-7 9-9 9-10 9-11 10-12 11-15 8 4 9 16-6 17-3 15-5 14-4 14-6 12-7 12-6 11-8 10-9 9-10 3-24-13-18H601l9 9 14 15 13 15 12 14 11 12 10 12 9 11 7 10 6 8H118v21H480v96l64-11 16-11-16-10V548H787l54 54 65-54V527H710l34-35 5-19-24 5-12-7-13-8-14-8-15-9-16-9-17-9-13-7H866l44 49 54-49V4e2H59v21H361l-13 10-2 7zm-3 217-5 10-6 11-8 11-10 11-11 12-13 12-15 12-16 13-11 7H222l-14-20-21-25-24-25-26-23-27-21-31-21-32-17-6 7 26 26 24 26 22 26 19 25 19 25 16 25 14 27 12 25 9 27 7 22 4 13 59-28 12-15-20-5-5-10-15-29-8-13H431l54 54 65-54V754H286l19-7 18-8 16-8 16-10 14-10 13-11 12-12 10-13 2-25-16-19-24-2-20 16-3 10zm425 0-5 10-6 11-8 11-10 11-11 12-13 12-15 12-16 13-12 7H638l-13-14-19-18-22-17-23-15-25-14-27-13-5 8 20 20 20 20 17 19 16 19 14 20 12 20 11 19 9 20 7 20 4 15 4 13 58-28 13-15-21-5-2-4-12-22-15-22-3-4H861l54 54 65-54V754H711l19-7 17-8 17-8 16-10 14-10 13-11 11-12 11-13 1-25-15-19-25-2-19 16-3 10z"/><glyph glyph-name="undefined" unicode="𥳲" horiz-adv-x="1024" vert-adv-y="918" d="M370 180l-4-10-6-12-8-11-9-10-10-9-11-7-12-5-13-4-13-2-14-1v32l-54 17v16h61l6 1 5 1 4 2 3 2 5 5 6 18 4 10 3 11 1 13-3 14-5 15-9 17-12 19-15 20-19 22-22 22-6 6 16 23 14 23 14 21 12 21 12 20 11 19 9 18 8 17 3 9H163V-39L98-72V597l65-33H329l3 3 29 24 60-48-27-16-15-6-11-15-12-17-14-18-15-17-17-17-18-18-19-18-21-18-14-11 24-14 26-15 22-17 20-17 16-18 13-20 10-20 6-23 2-23-3-23-4-2zm37 14v21H644v98l64-10 16-11-16-10V215H826l54 54 65-54V194H840l19-10 12-15-20-4-2-6-11-24-12-24-12-24-12-23-14-23-13-22L760-2 744-23l-5-5H863l54 53 64-53V-50H370v22H722l14 39 8 24 8 24 8 23 16 49 8 24 11 39H407zM559 42l-3 17-5 15-5 16-6 16-7 16-8 16-8 16-10 16 7 6 15-11 15-13 14-13 13-14 11-15 12-16 9-17 9-17 8-18 7-18-5-25-20-14-24 5-14 20-5 32zM463 592l65-32H824l32 27 59-48-27-22V311l-64-32v43H528V306l-65-32V592zM824 430H528V344H824v86zm0 109H528V452H824v87zM338 643l-5 11-6 12-9 11-10 13-11 12-13 12-14 13-17 14-11 7H217l-14-20-22-27-23-26-26-25-28-23-30-22-32-19-6 8 25 27 24 27 22 27 20 26 18 27 16 27 14 28 12 27 10 29 7 23 1 3v2l3 9 59-28 12-15-20-5-5-11-15-31-9-16H426l54 54 64-54V748H277l4-1 19-8 18-8 17-10 15-10 15-11 13-12 11-13 10-14 1-24-15-19-25-1-19 16-3 10zm425 0-5 11-7 12-8 11-10 13-11 12-13 12-15 13-16 14-12 7H638l-11-15-21-26-24-24-25-22-28-21-30-19-33-16-5 8 25 25 24 24 22 24 20 25 18 24 16 26 14 26 12 26 10 27 6 22 4 14 60-28 11-15-20-5-4-11-15-29-11-18H856l54 54 64-54V748H702l4-1 19-8 18-8 16-10 16-10 14-11 13-12 12-13 10-14 1-24-16-19-24-1-19 16-3 10z"/><glyph glyph-name="undefined" unicode="𦄓" horiz-adv-x="1024" vert-adv-y="918" d="M295 355l-4 20-1 3-24-12-34-14V-45L168-77V330l-5-2-54-15-27-7-5-1-10-19-12 15-21 61 11 2 27 3 39 4 26 57 19 39 18 38 55 116 17 39 18 39 15 34h-1l6 12 55-34 10-17-20-2-11-20-41-75-23-38-22-36-23-38-23-36-24-35-26-35-4-5 46 7 79 13 27 3 2 1-4 14-5 18-6 17-6 17-7 17-8 16-9 15 7 7 15-12 14-12 14-14 12-16 12-17 11-17 10-19 9-20 8-21 7-22-4-24-20-15-25 5-14 20-2 20zm298-63 63-17 15-13-19-8-6-37-14-54-17-48-23-43-26-39L535 0 5e2-27 461-48 419-63l-45-8-3 9 40 18 36 21L478 1l28 27 23 32 19 35 16 40 13 43 9 49 5 49 2 16zM931 14l32 134h11L963 14 982 1l13-19-13-20-19-13H797l-14 2-13 2-13 4-13 7-11 9-8 10-7 13-4 13-3 13V35 283l64-11 17-11-17-9V29l1-5 2-5 2-2 5-1 5-1 7-1H931zM87 266l64-18 15-12-19-9-1-9-7-30-7-29-9-28-9-29-12-28L90 47 76 20 60-6 42-31l-8 5L42 3l7 28 8 28 7 28 6 28 5 27 4 28 3 28 3 28 1 22 1 18zM292 106l-3 22-4 20-4 20-4 20-6 18-6 18-13 36-8 16 7 6 14-13 15-14 13-15 11-17 12-19 10-20 9-20 9-22 7-23 7-24-6-24-20-13-24 5-14 21-2 22zM661 871l59-28 11-15-22-5-3-7-16-27-8-13-8-13-8-14-9-12-10-13h95l32 26 59-48-26-21V342l-65-32v32H618l-65-32V731l-19 7h-2l-12-5-13-5-13-5-14-4-14-4-9-2-7-4V358h21l33 38 43-38V337H450V272l-64-32V740l56-10 11 10 11 9 10 9 10 9 9 8 9 9 7 8 4 4-1 1 4 2v1h1l36-48v4l65-32h15l2 6 2 15 2 16 3 15 3 14 3 15 5 29 3 15 1 9 1 5 3 8zm274-94 59-48-27-22V304l-64-32v65H820v21h83V729H827v21h76l32 27zM742 530H618V363H742V530zM114 553l-5 16-6 16-6 17-7 15-8 15-9 15-10 14-11 15-13 14 6 8 16-10 18-10 16-11 14-12 11 30 16 45 8 21 7 22 8 22 21 60 2 5v1l3 6 57-32 10-16-21-3-23-43-25-41-26-40-14-19-15-19-8-10 4-3 13-15 12-16 11-17 10-18 9-20-2-24-19-16-25 2-16 19-3 17zM742 702H618V552H742V702z"/><glyph glyph-name="undefined" unicode="𦘴" horiz-adv-x="1024" vert-adv-y="918" d="M102 853l64-33H336l32 27 59-48-27-22V19L399 6 397-8l-4-12-7-13-9-11-11-8-12-7-13-4-13-3-14-1v33L217-18V-2h97 7l4 1 5 2 2 2 2 5 1 5 1 6V326H166V304l-2-57-5-54-7-50-8-45-12-41-12-37-16-31L86-38 66-60 43-75l-6 7L50-47 61-24 72 3l9 31 7 34 6 39 5 43 2 47 1 51v56V853zM917 25l33 134h10L950 25l19-13L982-8 969-27 950-40H715l-14 1-13 2-13 5-12 7-11 8-9 11-7 12-4 13-2 14-1 13V406L411 385l-2 21 220 21V710l-28-7-52-12-56-10-58-10-3 9 56 20 53 19 50 18 47 17 45 16 42 17 39 16 35 15 33 15 25 12 4 3 6-12 41-38 1-17-20 9-1-1-32-12-36-13-38-12-41-13-44-12-3-1V434l160 15 48 59 70-48 2-21-280-27V40l1-5 1-5 3-2 4-2 5-1h7H917zM336 568H166V347H336V568zm0 231H166V589H336V799z"/><glyph glyph-name="undefined" unicode="𦙋" horiz-adv-x="1024" vert-adv-y="918" d="M98 853l65-33H318l33 27 59-48-27-22V19L382 6 380-8l-5-12-6-13-9-11-11-8-12-7-13-4-13-3-14-1v33L211-18V-2h86 6l6 1 2 2h3l1 1V3l1 2 1 3 1 5v6V326H163V304l-3-57-4-54-7-49-8-46-11-40-12-37-15-32L86-38 67-60 45-75l-6 7L51-47 61-24 71 3l8 30 7 35 6 38 3 43 3 48 1 51-1 56V853zM919 15l32 134h11L951 15 971 2l12-19-12-20-20-12H628l-14 1-13 2-14 4-12 7-10 9-9 10-7 13-4 13-3 13V37 226l-46-9-58-10-2 10 55 20 51 18V584l64-11 16-11-16-9V282l40 17 47 24 46 24 43 26 41 27 38 29 38 30 40-50 1-20-19 7-24-17-43-27-45-26-48-23-48-22-52-20-53-17-2-1V37l1-7V25l1-3 1-2 1-1 1-1 2-1 3-1h5l7-1H919zM318 568H163V347H318V568zM550 857l60-25 13-14-20-6-8-27-15-45-17-43-9-22H866l54 53 64-53V653H544l-16-36-19-37-21-35-21-34-23-30-24-28-9 6 16 32 15 35 15 35 15 36 14 38 14 39 13 41 11 43 12 44 11 46 3 9zM318 799H163V589H318V799z"/><glyph glyph-name="undefined" unicode="𦡂" horiz-adv-x="1024" vert-adv-y="918" d="M88 853l65-33H270l32 27 59-48-26-22V19L334 6 331-8l-4-12-6-13-10-11-10-8-13-7-13-4-13-3-13-1v33L163-18V-2h86 6l5 1 5 2 2 2 1 2 1 3 1 5v6V326H153V304l-2-57-5-54-5-49-7-45-9-41-11-36-12-32L87-37 71-59 52-75l-7 7 8 20 8 23L68 2l7 30 5 35 5 39 2 43 2 48v51l-1 56V853zM364-51v22H644V56H422V78H644v81H508V143l-64-32V449l64-32H644v81H374v22H644v66l-28-3-46-4-48-3-49-1H422l-1 10 50 10 47 10 47 9 45 9 43 10 42 9 40 11 39 10 37 11 31 10 4 1 2-6 53-45 1-16-22 10-15-4-39-9-39-8-41-7-38-6V520H859l54 54 64-54V498H708V417H843l32 27 60-48-27-22V148l-65-32v43H708V78H832l44 48 54-48V56H708V-29H870l53 54 65-54V-51H364zM644 275H508V181H644v94zm199 0H708V181H843v94zM644 396H508V297H644v99zm199 0H708V297H843v99zM270 568H153V347H270V568zm0 231H153V589H270V799zm239 71 65-10 16-11-16-10V767h27l24 32 33-32V745H574V696l-65-33v82H360v22H509V870zm265 0 65-10 16-11-16-10V767h34l54 53 65-53V745H839V696l-65-33v82H694v22h80V870z"/><glyph glyph-name="undefined" unicode="𦺥" horiz-adv-x="1024" vert-adv-y="918" d="M957 91l-8-10-9-11-10-8-10-7-12-7-12-4-13-3-13-2-13-1V70L803 87v16h54l14 1 5 1 10 5 4 3 5 4 4 4 4 5 4 7 5 11 5 15 2 21-1 22-5 25-11 26-17 27-26 26-35 27-44 29v-1l-8 7 16 28 16 27 16 26 14 25 13 24 13 23 12 23 11 22 8 17H704V-36L639-68V637l65-33H898l3 3h1l28 24 59-48-26-16-16-7-1-1-13-22-15-21-16-22-16-21-19-23-19-22-21-23-23-22-15-13 48-11 44-24 35-27 26-31 18-32 11-33 5-31V152l-4-27-8-22-7-12zM410 297l-1 6-2 8-4 7-4 9-6 8-7 10-7 10-9 11-4 3-26-26-54-47-37-31H468l33 27 59-48-27-22V-15L468-47V6H235V-31L170-63V205l-61-42-65-39-6 8 59 48 56 48 17 15v54l39-19 50 48 49 50 10 11H41v21H253V525H101v22H253V660l65-11 16-10-16-10V547h31l44 48 54-48v-4l30 41 33 51h-1l6 9 51-40 8-18-20 1-27-38-43-54-46-52-33-35h67l53 54 65-54V387H384l-10-10 3-2 13-4 12-5 12-5 11-6 10-6 9-7 9-7 8-7 7-8 2-25-16-19-25-1-18 16-1 6zm58-172H235V28H468v97zm0 119H235V146H468v98zM434 525H318V408h19l17 18 43 52 37 47zM630 877l65-11 16-11-16-9V780H861l54 53 65-53V758H695V686l-65-32V758H394V686l-65-32V758H44v22H329v97l65-11 16-11-16-9V780H630v97z"/><glyph glyph-name="undefined" unicode="𧄓" horiz-adv-x="1024" vert-adv-y="918" d="M36-5 46-2 84 8l38 10 78 20 38 9 22 5-3 2 7 27 6 25 6 25 6 23 6 21 5 21 5 20 4 18 5 17 2 11h-1l2 5v27H150L86 261V514l64-32H310l32 27 59-49-27-21V294l-49-25 46-23 12-15-21-5-6-11-18-36-10-19-10-20-12-22-12-21-14-23-12-20 9 2 39 10 39 8 40 8 40 7 3-9-37-18-37-15-37-15L251 4 214-10 177-24 102-51 86-56 80-76 65-63 36-5zM430-41v22H673V62H489V84H673v99H557V167l-64-33V456l64-32H673v73H436v21H673v60l-21-2-42-4-42-3-44-1H480l-1 9 43 11 42 10 41 9 40 9 38 10 38 9 36 10 35 9 34 10 27 9v1h1l5 1 2-8 53-44 1-16-22 10-17-4-34-8-36-7-38-6-30-5V518H853l54 54 64-54V497H738V424H853l33 27 59-49-27-21V172l-65-32v43H738V84h99l44 48 54-48V62H738V-19H859l54 53 65-53V-41H430zM141 106l-2 17-3 16-3 16-4 16-4 16-5 16-6 15-6 16-8 15 7 6 13-12 13-12 12-13 12-15 10-15 10-16 8-17 8-17 7-19 5-19-5-24-21-13-24 6-13 20-1 17zM673 290H557V204H673v86zm180 0H738V204H853v86zM673 402H557V312H673v90zm180 0H738V312H853v90zM310 460H150V315H310V460zM64 568v21H193V718H42v22H193V869l65-11 16-11-16-9V740h47l54 53 64-53V718H258V589h49l44 49 54-49V568H64zM765 872l64-11 16-11-16-9V766h43l54 53 64-53V744H829V706l-64-32v70H646V663l-65-32V744H420v22H581V872l65-11 16-11-16-9V766H765V872z"/><glyph glyph-name="undefined" unicode="𧑠" horiz-adv-x="1024" vert-adv-y="918" d="M833 357l54-48V287H666l-13-33-16-33-19-32-8-12 7-4H816l33 27 59-48-27-22V-25L816-57V-3H617V-41L553-73V109l-5-5-28-26-31-23-33-21-36-19-6 8 29 28 27 26 25 27 22 27 21 28 15 24v22l10-5 9 16 13 30 11 30 3 11H474v22H789l44 48zM347 66l-1 22-2 21-4 22-1 2-10-9-25-19-26-18-27-17-27-17-28-15-29-15L138 8 108-6 98-10 93-31 78-19 45 37l10 4L86 51l29 10 30 11 30 11 29 12h2V337H135V272L75 242V683l60-29h71V869l53-11 14-11-14-9V654h71l29 27 57-49-27-19V337l-59-30v30H259V117l2 1 29 12 46 18-1 4-6 21-7 21-9 22-9 22-11 22 8 6 17-18 18-18 15-20 13-21 12-21 10-23 9-23 7-24 6-24 5-26-9-23-22-10-23 8-11 22-1 21zm469 86H617V18H816V152zM416 270l-21 14-4 25 13 20 3-1 5 4 6 7 6 12 6 15 6 18 5 21 5 25 5 28 2 31h10l3-31 4-28 1-9H654v90H540l-65-32V697l65-33H654v90H415v21H654v99l65-11 16-10-16-10V775H839l54 54 65-54V754H719V664H829l32 27 60-48-27-22V501l-65-33v43H719V421H906l32 27 59-48-27-16-14-6v-1l-12-19-14-20-8-11-9-10-7-12-9 4 5 12 1 14 2 12 1 10v43H472V379 358l-2-20-4-18-6-16-8-16-12-13-24-5zM206 632H135V358h71V632zm124 0H259V358h71V632zm324 11H540V533H654V643zm175 0H719V533H829V643z"/><glyph glyph-name="undefined" unicode="𧓕" horiz-adv-x="1024" vert-adv-y="918" d="M443-26l-1 9-3 10-4 10-2 5-16-4-40-9-40-8-40-7-39-7-39-7-38-7-38-6-37-6-15-3-9-18L69-59 51 4 62 5 99 8l37 2 38 3 39 2 39 3h2v85H157V87L93 55V269l64-32h97v72l64-11 17-11-17-10V237h92l32 26 59-48-27-21V103L410 71v32H318V21l14 1 41 2 42 1h10l-7 10-8 12-9 12-11 9 5 8 14-7 14-7 14-7 12-8 12-8 11-10 9-10 9-10 9-12 7-13-3-24-19-16-24 3-16 18-1 9zm473 0-1 9-4 10-3 10-2 4-8-3-39-9-79-15-38-6-40-7-39-6-39-6-38-5-17-2-10-18-12 15L530 8l11 1 39 2 39 2 39 2 39 2h14v86H620V87L555 55V269l65-32h91v72l64-11 17-11-17-10V237h92l32 26 59-48-27-21V103L874 74l4-2 15-7 14-7 14-9 11-9 12-10 10-10L964 9l8-12 7-13-3-24-19-16-24 3-16 18-1 9zM867 103H775V21l81 3 39 1h1l-8 12-8 12-10 13-12 11 5 8 4-3v25zM711 215H620V125h91v90zm156 0H775V125h92v90zm-613 0H157V125h97v90zm156 0H318V125h92v90zm450 82-45 19-44 19-41 20-39 22-36 23-33 24-31 25-28 26-19 23V302l-64-32V465l-7-6-37-28-39-25-41-23-45-22-46-19-48-17-51-15-53-13-56-9-2 9 52 20 50 20 47 21 45 21 42 23 39 24 37 25 34 26 26 24H267V463l-65-32V745l65-32H480v50H78v22H480v90l64-11 16-10-16-10V785H849l44 48 53-48V763H544V713H757l32 27 59-49-27-21V479l-64-32v54H565l44-26 34-19 35-17 36-18 39-16 41-15 43-15 45-14 47-14 42-13-62-55-49 18zM480 596H267V522H480v74zm277 0H544V522H757v74zM480 691H267V618H480v73zm277 0H544V618H757v73z"/><glyph glyph-name="undefined" unicode="𧔬" horiz-adv-x="1024" vert-adv-y="918" d="M899-27 870-10 841 9 814 28 789 48 765 69 742 91l-21 24-19 25-1 2V-43L636-75V108l-6-7-27-25-29-22-30-22-31-19L479-4 444-20 406-33 367-44l-3 9 34 20L430 5l31 21 29 21 27 22 25 23 24 24 21 24 17 22H383v22H636v53l65-11 16-11-16-10V184H836l53 54 65-54V162H708l59-41 25-17 26-15 26-15 27-14 28-14 29-12 30-12L990 8 929-43 899-27zM802 527l54-49V457H644l-8-9-22-25-24-24-13-12 6-3H778l32 27 59-49-27-21V255l-64-32v32H583l-65-32V340l-4-3-27-17-28-15-29-13-29-9-31-8-4 9 26 17 25 17 24 17 23 19 22 19 22 21 10 11v11l8-4 2 3 20 23 15 19H453v21H758l44 49zM778 362H583V276H778v86zM189 632H128V358h61V632zm116 0H243V358h62V632zm83-228-22 11-2 5V337l-59-30v30H243V118l53 23 15 7-1 4-5 22-6 21-8 21-9 22-9 22 7 6 17-18 17-19 14-20 13-20 11-22 9-22 9-24 7-23 5-24 4-26-8-23-22-10-23 8-11 22V67l-1 21-3 22-3 21-8-7-23-19-24-18-25-17-25-16-26-16-27-15L130 9 102-5 94-9 90-30 74-19 40 37l10 4L78 51l28 10 28 11 27 11 27 11 1 1V337H128V272L68 242V683l60-29h61V869l54-11 14-11-14-9V654h62l30 27 56-49-27-19V449l6 12 5 2 7 5 6 8 7 11 6 13 6 16 6 18 4 21 5 24 3 25 10 1 2-27 2-14H633v57H506l-64-32V761l64-32H633v54H385v21H633v65l64-11 17-11-17-9V804H847l44 49 54-49V783H697V729H824l32 27 59-49-27-21V621l-64-32v32H697V564H892l3 2v1l29 24 59-49-26-16-20-8-5-6-9-10-8-11-10-11-11-12-11-12-12-11-11-14-8 4 8 16 5 17 6 15 4 14 5 14 4 13 3 11 2 7H441l1-10 1-21-1-20-3-18-4-18-5-16-8-15-11-13-23-7zM633 707H506V643H633v64zm191 0H697V643H824v64z"/><glyph glyph-name="undefined" unicode="𧘞" horiz-adv-x="1024" vert-adv-y="918" d="M729 869l64-11 16-11-16-9V262l71 12 44 62 72-42 4-21-191-33V-45L729-77V229L418 176l-4 21 315 54V869zM341 213l-7 15-9 16-9 16-10 15-13 16-13 17-14 16-7 7V-45L194-77V349l-23-24-41-39-44-37-46-34-6 7 38 42 37 42 36 42 33 43 16 23v3h2l12 17 29 43 26 46 24 45 21 46 10 24H58v21H194V874l65-11 16-10-16-10V659h66l32 27 59-48-27-17-11-4-14-29-26-48-29-46-31-44-25-33h6V354h1l21-11 10-6 4 5 11 19 9 17 9 16 8 15 7 13 6 13 5 11 3 10 2 4-2 1 6 10 54-36 9-17-25-1-1-1-9-10-10-11-12-11-13-13-14-12-16-13-16-13-4-3 17-12 17-13 16-15 15-15 14-16 13-16 11-17 1-25-16-19H365l-19 16-5 15zM561 368l-9 14-9 15-11 14-11 15-13 15-13 15-14 15-14 16-17 15 6 8 20-10 20-10 19-10 18-11 17-12 16-12 15-13 15-14 13-14 13-14 5-24-13-21-24-5-21 14-8 14zm39 236-8 15-10 14-11 15-11 15-13 14-13 15-14 15-14 17-17 14 6 8 20-9 20-10 19-10 18-12 17-11 16-13 16-13 14-13 14-14 12-15 5-24-13-20-24-5-21 13-8 14z"/><glyph glyph-name="undefined" unicode="𧙥" horiz-adv-x="1024" vert-adv-y="918" d="M342 213l-7 15-8 16-10 16-10 15-12 16-14 17-14 16-6 6V-45L197-77V349l-23-24-40-39-43-37-46-34-7 7 39 42 36 42 35 42 32 42 17 24v3h2l11 17 29 43 26 45 23 46 21 46 10 24H63v21H197V874l64-11 17-10-17-10V659h65l32 27 59-48-26-17-13-5-13-28-26-48-28-45-31-45-24-33h5V354l22-11 10-6 3 5 11 19 9 16 9 17 8 15 6 13 6 13 5 11 4 10 1 4h-1l2 4v1l3 6 55-36 9-16-25-2-1-1-9-10-11-11-12-11-12-12-14-13-15-13-17-13-3-3 17-12 17-14 15-14 15-15 14-16 12-17 12-17V201l-16-19H365l-18 16-5 15zM786-13V3h86l7 1 4 1 5 1 1 2 1 1 1 1 1 3 1 5V777H507V-34L442-67V831l65-32H893l32 27 60-49-27-21V25l-1-14-2-13-4-13-7-12-9-11-11-9-12-7-13-4-13-2-14-1v32L786-13zM579 496l64-33H757l32 27 59-48-27-22V151l-64-32v64H643V119L579 87V496zm178-54H643V205H757V442zm32 233 64-54V6e2H547v21H735l54 54z"/><glyph glyph-name="undefined" unicode="𧡍" horiz-adv-x="1024" vert-adv-y="918" d="M392 92l-9 16-10 15-10 15-11 14-12 15-13 14-13 14-14 15-4 2V-51L232-83V159l-4-8-21-40-22-37-25-34-25-29-28-26L78-37 48-54l-6 8L65-22 87 5l20 28 20 30 18 34 18 36 16 40 15 42 14 45 8 28H149V224L84 191V643l65-32h83v91H45v22H232V869l64-11 17-11-17-9V724h81l53 53 65-53V702H296V611h84l32 27 59-49-27-21V277l-64-32v43H296V227l12-4 20-8 18-10 18-10 17-12 16-13 16-14 15-15 14-15 12-17 4-24-14-20-24-4-20 15-8 16zM626 271l62-19 14-13-19-9-7-31-17-49-23-45-28-40-33-35L537-2 495-28 448-49 396-66 341-76l-3 9 52 21 46 23L477 2l35 28 30 31 26 34 20 36 17 40 12 43 6 41 3 16zM926 25l32 134h11L958 25l20-13L990-8 978-27 958-40H813l-14 1-13 2-13 5-13 7-10 8-9 11-7 12-4 13-2 14-1 13V281H590V216l-65-32V835l65-32H847l33 27 59-48-27-22V248l-65-32v65H792V40l1-5 1-5 2-2 5-2 5-1h7H926zM847 455H590V302H847V455zM232 439H149V310h83V439zm148 0H296V310h84V439zM232 589H149V460h83V589zm148 0H296V460h84V589zm467 29H590V476H847V618zm0 164H590V640H847V782z"/><glyph glyph-name="undefined" unicode="𧡸" horiz-adv-x="1024" vert-adv-y="918" d="M666 271l63-19 14-12-19-9-6-31-16-49-20-44-24-40-29-36L596-1 558-27 517-49 472-66 423-76l-3 9 44 21 39 22L538 2l30 28 26 30 22 34 18 36 14 40 10 43 6 42 2 16zM46 2 57 4l50 8 51 8 50 8V240H138V175L74 143V509l64-33h72V6e2H145V562L86 533V828l59-29h65l27 27 54-49-27-16V423l-54-27v59H138V261h70l29 27 57-48-27-19V37l48 8 5 1V291l59-30h65V460H376V428l-54-27V826l54-27h61l29 27 57-49-27-18V578l-59-29v51H376V482h68l32 27 59-49-27-21V208l-64-33v65H379V55l44 7 55 8 57 7 57 6 2-9-56-17-54-16-54-14L323 0 271-12 220-25 168-37 118-48 90-55 82-73 68-60 46 2zM927 25l32 134h11L959 25l20-13L992-8 979-27 959-40H840l-14 1-13 2-13 5-13 7-11 8-8 11-7 12-4 13-3 14V46 281H643V216l-64-32V835l64-32H859l32 27 59-48-27-22V248l-64-32v65H818V40l2-5 1-3 1-2V29l1-1 5-2 5-1h7 87zM859 455H643V302H859V455zm0 163H643V476H859V618zM437 777H376V621h61V777zm-227 0H145V621h65V777zm649 5H643V640H859V782z"/><glyph glyph-name="undefined" unicode="𧪧" horiz-adv-x="1024" vert-adv-y="918" d="M70 256l65-32H264l32 27 59-49-27-21V-24L264-56V-2H135V-40L70-72V256zM363-27V-5H566V228H456V164l-64-32V496l64-32H563V604H475V539l-64-32V840l64-32h88l32 27 59-48-27-22V410l-64-32v64H456V250H566l33 27 59-49-27-21V-5h83V282l65-32H885V453H779V420l-65-32V845l65-32h94l33 27 59-49-27-21V582l-65-32v54H779V474H885l32 27 59-48-27-22V196l-64-32v64H779V-5h88l54 53L985-5V-27H363zM264 202H135V19H264V202zm4 204 54-48V337H77v21H224l44 48zm0 140 54-48V476H77v22H224l44 48zM873 791H779V625h94V791zm-310-4H475V625h88V787zM296 702l64-54V627H59v21H242l54 54zM268 837l54-49V767H77v21H224l44 49z"/><glyph glyph-name="undefined" unicode="𧯠" horiz-adv-x="1024" vert-adv-y="918" d="M35 39l11 2 36 6 38 7 39 8 40 8 40 10 5 1 2 6 10 32 10 30 10 29 9 28 9 27 7 26 7 24 6 24 4 18 4 14 59-27 13-15-21-5-1-3-9-25-11-24-12-25-12-26-14-27-15-28-17-28-12-19 10 2 43 10 43 11 44 11 46 11 4-9-43-21-42-19-41-17-42-16-41-15-40-13-39-12L134-2 95-12 80-16 72-35 58-22 35 39zM878-22l-8-10-10-9-10-8-11-7-11-6-13-4-13-3-13-2-13-1v32L668-24V-8H776l7 1 7 1 7 2 5 1 6 3 5 3 4 4 5 4 4 6 4 6 10 21 10 30 9 41 8 51 7 59 5 69 4 78 4 87 2 96v93H535l-22-32-27-35-28-34-31-33-33-30v1-89l-65-33v33H147L82 363V670l65-32H329l32 26 60-48-27-21V501l17 26 24 37 22 37 22 37 19 37 18 37 16 38 15 39 14 39 10 35 4 14 59-28 12-15-19-5-9-22-17-40-20-39-21-39-11-19H889l33 27 59-49-27-16-1-78-2-97-3-88-4-80-6-70-7-62-9-54-10-45-12-38-15-30-7-12zM138 153l-2 18-3 19-4 18-5 18-6 19-6 18-16 38-11 18 8 6 16-15 15-15 15-16 13-17 11-18 11-19 9-20 8-21 7-21 4-21-6-24-22-12-23 6-13 22v19zM476 530l64-32H690l33 27 59-49-27-21V175l-65-32v65H540l-64-33V530zm214-54H540V229H690V476zM329 616H147V417H329V616zm41 215 64-54V756H47v21H316l54 54z"/><glyph glyph-name="undefined" unicode="𧯤" horiz-adv-x="1024" vert-adv-y="918" d="M573 853l63-20 14-13-18-8-5-27-11-47-12-47-7-25H857l53 54 65-54V645H711V436H835l44 48 53-48V414H711V206H837l53 54 65-54V184H711V-56L646-88V645H590v-1l-15-46-17-46-18-45-20-45-23-44-25-43-8 4 14 47 15 47 14 46 13 46 11 46 11 46 9 46 8 46 7 47 6 46 1 11zM39 40l11 1 39 7 40 6 41 8 41 8 43 10 6 1 2 6 11 32 11 30 10 29 10 28 9 27 8 26 7 25 7 24 4 17 4 14 59-27 12-15-20-6-1-3-11-24-11-25-12-25-13-26-15-27-15-27-17-28-14-20 13 3 45 10 45 11 47 11 49 11 2-9-44-21-45-19-44-17-44-16-43-15-42-13-42-12L142-2 101-12 83-17 75-35 62-22 39 40zM149 152l-3 19-3 18-4 19-5 18-6 18-8 19-8 18-9 20-11 18 7 6 17-14 16-15 15-16 13-18 13-18 11-19 9-20 8-20 7-21 6-22-7-24-21-12-24 6-12 22-1 18zM90 670l64-32H351l32 26 59-48-27-21V396l-64-33v33H154L90 363V670zm261-54H154V417H351V616zm44 215 64-54V756H51v21H341l54 54z"/><glyph glyph-name="undefined" unicode="𧯾" horiz-adv-x="1024" vert-adv-y="918" d="M899 35 871 61 845 87l-24 28-21 29-20 30-18 31-16 33-11 30V-45L671-77V207l-21-31-29-37-32-36-34-34-37-31-39-28-42-26-44-22-5 8L425 1l36 31 34 33 31 33 28 35 27 36 24 37 22 39 19 40 8 19H562V240l-65-32V632l65-32H671V702H448v22H671V869l64-11 16-11-16-9V724H859l54 53 64-53V702H735V6e2H849l32 27 59-49-27-21V272l-64-32v64H739l15-22 20-28 21-28 21-26 22-25 24-23 25-22 26-21 27-20 28-19 19-12-59-46-29 23zM40-5 50-2 90 8l40 10L251 47l23 5-3 2 7 27 7 25 7 25 6 23 6 22 6 20 5 20 5 18 4 17 2 11 1 3 1 2v27H157L93 261V514l64-32H328l32 27 59-49-27-21V294l-50-25 46-23 12-16-21-4-6-12-9-17-10-19-10-19-11-20-12-21-13-22-14-22-12-20 51 12 41 8 41 8 42 7 3-9-39-18-39-15-39-15-40-14L264 3 107-51 89-57 83-76 68-63 40-5zM150 106l-2 17-3 16-3 16-4 16-5 16-5 16-7 15-6 16-9 15 7 6 14-12 13-12 13-13 12-14 10-15 10-16 9-18 8-17 7-19 6-19-6-24-21-13-23 5-14 21-1 17zM328 460H157V315H328V460zm343-21H562V326H671V439zm178 0H735V326H849V439zM671 578H562V460H671V578zm178 0H735V460H849V578zM68 568v21H206V718H45v22H206V869l64-11 16-11-16-9V740h57l53 53 65-53V718H270V589h58l44 49 54-49V568H68z"/></font>
</defs>
</svg>
