<svg xmlns="http://www.w3.org/2000/svg"><defs><font name="Jigmo Regular" horiz-adv-x="1024" vert-adv-y="1024"><font-face font-family="Jigmo" font-weight="400" font-stretch="normal" units-per-em="1024" ascent="995" descent="169"/><glyph glyph-name="undefined" unicode="㑣" horiz-adv-x="1024" vert-adv-y="918" d="M904 140l-23 45-20 48-18 49-15 51-14 52-9 42V-45L740-77V416l-19-55-23-56-25-52-26-50-29-46-30-42-34-39-7 6 24 43 22 46 22 48 21 50 20 54 18 55 16 58 16 61 14 64 9 50H628v21H740V863l65-10 16-11-16-10V632h43l54 54 64-54V611H805V576l4-17 15-56 16-54 17-51 18-49 20-47 21-45 22-42 24-41 26-39-55-46-5 8-24 43zM263 871l59-28 12-15-20-5-14-40-24-58-24-57-26-56-27-55-6-11 31-5 16-11-16-10V-45L159-77V482l-17-30-31-50-32-48-34-46-8 4 24 52 25 52 25 53 24 53 23 54 22 56 22 56 20 57 20 59 18 59 3 8zM546 340l-10 19-10 19-10 18-11 17-11 17-11 16-5 6V-45L414-77V357l-1-3-20-53-21-49-22-48-24-44-26-41-27-37-9 5 18 42 18 44 17 45 17 48 16 50 15 52 14 55 13 57 11 59 11 59v7H281v22H414V858l64-11 16-10-16-10V627h31l44 48 54-48V605H478V486l10-6 18-12 16-13 16-14 16-16 15-17 15-18 14-20 13-19 3-25-15-20-25-2-19 15-9 21z"/><glyph glyph-name="undefined" unicode="㔋" horiz-adv-x="1024" vert-adv-y="918" d="M40 4 51 5l53 5h3V314l65-32H506l32 27 59-48-26-22V37l8 1 65 1 1-10-64-12L519 7 457-3l-61-9-59-8-58-8-57-8-56-8-55-7-32-5-9-18L57-59 40 4zM744-24V-8H852l6 1 5 1 3 1 2 1 2 1v1l1 1 1 4 1 5v6V863l65-10 16-11-16-10V14L937 1l-2-14-5-13-6-12-9-11-11-9-12-7-13-4-13-2-14-1v32L744-24zM240 261H172V14l44 3 24 2V261zm133 0H304V23l28 2 41 3V261zm133 0H438V31l15 1 53 3V261zM672 783l65-11 16-11-16-9V138l-65-33V783zM115 362 61 335V848l54-27H243l44 48 54-48V799H233V686h35l33 27 59-49-27-21V489l-65-33v54H233V384h18l44 48 54-48V362H115zm59 148H115V384h59V510zm383-4 53-49V436H359v21H513l44 49zM401 866l63-20 14-13-19-8-3-19-9-38-9-37-10-35-1-3h96l44 48 54-48V671H419l-3-8-12-32-13-30-15-28-16-26-18-24-8 4 8 28 8 29 8 29 7 31 8 32 6 33 6 34 6 36 4 37 4 33 2 17zM115 664V532H268V664H115zm59 135H115V686h59V799z"/><glyph glyph-name="undefined" unicode="㘓" horiz-adv-x="1024" vert-adv-y="918" d="M343 839l59-29H550l32 27 60-49-27-21V546l-65-32v43H402V-46L343-76V839zM807-24V-8h65l7 1 4 1 5 2 1 1 1 1 1 1 1 4 1 5V557H747V541l-58-29-8-5V455h94l34 37 43-37V433H681V376h71l32 27 59-48-27-22V184l-64-32v32H681V165l18-6 17-8 16-9 17-9 15-10 15-12 14-12 14-12 13-13 5-25-12-21-24-5-21 12-8 14-9 13-9 14-10 13-10 13-12 13-11 12-13 13-5 5V-31L617-63V101l-4-5-21-24-21-23-24-21-24-18L498-6 471-20 443-31l-5 8L460-3l20 19 20 21 18 21 18 22 17 23 16 24 15 26 13 27 2 4H543V147l-64-32V409l64-33h74v57H456v22H617v83l64-11 2-1V842l64-32H893l32 27 60-49-27-21V14L957 1l-3-14-4-13-6-12-9-11-11-9-12-7-13-4-13-2-14-1v32L807-24zM49 745l64-32H220l29 27 57-49-27-18V186l-59-30v62H113V154L49 121V745zM571 239l-2 16-2 9-3 9-4 9-3 9-4 11-5 10-5 6V206h74v11l-3-3-25 1-17 17-1 7zm181 47-4-5-18-21-20-19-21-18-8-8v-9h71v80zm0 69H681V239l2 4 4 13 13 37 8 24 5 18h-1l5 12 35-22v30zM220 691H113V240H220V691zM617 355H543V324l4 4 9-8 11-6 10-5 9-7 17-14 8-7 6-7v81zM893 675H747V578H893v97zm-343 0H402V578H550v97zM893 788H747V697H893v91zm-343 0H402V697H550v91z"/><glyph glyph-name="undefined" unicode="㘕" horiz-adv-x="1024" vert-adv-y="918" d="M288-52v21h96V211l65-32H817l32 27 59-48-27-22V-31h20L934 7l43-38V-52H288zM528 158H449V-31h79V158zm145 0H593V-31h80V158zm144 0H737V-31h80V158zM51 745l65-32h94l30 27 56-49-26-18V186l-60-30v62H116V154L51 121V745zM381 254V189l-59-29V645l59-29H542l44 48 53-48V594H515V510h47l32 27 59-48-26-22V358l-65-32v43H515V275h36l44 49 54-49V254H381zM210 691H116V240h94V691zM450 369H381V275h69v94zm435 17 64-54V311H661v21H831l54 54zM713 875l64-11 16-10-16-10V774h86l54 54 64-54V753H777V677l-57-28 55-21 14-14-19-6-3-11-10-30-10-28-10-23H863l44 48 54-48V495H727l-4-9-14-25-15-23-16-21-18-20-20-17-7 6 10 23 10 23 19 47 8 25 8 25 7 26 7 28 5 28 4 24 1 5v1l1 4V753H553V677l-65-32V753H284v21H488V875l65-11 16-10-16-10V774H713V875zM381 489V390H562v99H381zm69 105H381V510h69v84z"/><glyph glyph-name="undefined" unicode="㛦" horiz-adv-x="1024" vert-adv-y="918" d="M913 142l-19 45-18 47-16 49-14 51-11 53-2 9V-45L768-77V394l-10-32-21-56-22-52-23-50-26-46-28-43-30-39-8 5 21 44 19 45 19 48 18 51 17 52 16 56 15 58 13 62 13 64 8 50H672v21h96V863l65-10 16-11-16-10V632h21l54 54 64-54V611H833V566l2-7 14-56 14-54 15-52 17-49 18-47 18-45 21-43 21-40 23-39-52-52-9 17-22 43zM596 341l-8 20-9 19-8 17-10 17-9 17-8 14V-45L479-77V338l-12-36-19-50-20-47-21-44-23-41-26-38-8 5 15 41 15 44 15 46 14 48 14 49 13 53 13 54 10 57 11 60 9 61v5H365v22H479V858l65-11 16-10-16-10V627h13l44 48 53-48V605H544V483l6-4 16-12 15-13 14-14 15-16 13-17 14-18 13-20 12-20 1-24-16-19-25-1-18 16-8 20zM273 104l-13 24-16 25-14 19-27-56-34-57L130 9 87-33 41-65l-6 8L73-18l34 45 32 50 28 57 24 63 5 16-4 5-21 21-21 20-23 19-5 4-4-14-14-62-62 14 14 62 13 61 13 62 12 63 12 63 10 63 2 11H38v22h84l5 31 10 64 9 65 9 65 2 11 62-20 15-12-18-8-6-45-9-66-14-85h75l32 27 59-49-26-16-3-1-8-75-15-94-18-86-23-80-10-30 16-14 21-24 20-24 19-26 17-27 2-25-15-18-25-3-19 16-13 26zM262 605H184l-4-22-11-64-12-63-12-64-13-62-7-30 13-4 28-14 27-15 16-11 4 11 17 78 14 84 11 91 7 85z"/><glyph glyph-name="undefined" unicode="㜮" horiz-adv-x="1024" vert-adv-y="918" d="M284 103l-14 25-16 24-16 22-28-58-36-58L134 9 90-33 42-65l-5 8L76-18l36 45 32 50 29 57 26 63 5 16-5 5-21 21-22 20-24 19-7 5-3-15-15-63-62 16 14 61 14 62 13 61 13 63 11 63 12 63 2 11H39v22h89l5 31 10 64 10 65 8 60 2 16 63-20 15-12-18-8-6-46-21-130-3-20h80l32 27 59-49-27-16-3-1-8-75-15-94-19-86-24-80-11-29 17-15 22-23 21-24 19-27 18-27 3-24-16-19-24-3-20 15-13 26zM348-27V-5h86V292l65-32H831l33 27 59-48-27-22V-5h29l25 32L982-5V-27H348zM566 239H499V-5h67V239zm133 0H631V-5h68V239zm132 0H764V-5h67V239zM272 605H189l-3-22-24-128-13-63-13-62-7-30 13-4 30-14 27-15 18-12 4 13 18 77 15 84 11 91 7 85zM433 361V297l-54-27V840l54-27H573l44 49 54-49V792H557V680h40l33 27 59-48-27-22V485l-65-32v54H557V383h26l44 48 53-48V361H433zm64 146H433V383h64V507zm405-4 54-49V433H690v21H858l44 49zM737 856l62-20 15-13-19-8-4-18-9-37-9-36-11-35-1-2H869l44 48 54-48V665H753l-3-9-13-31-14-30-15-28-16-25-19-24-8 5 17 56 8 29 9 30 8 31 7 33 6 34 6 35 5 36 4 38 2 11zM433 659V528H597V659H433zm64 133H433V680h64V792z"/><glyph glyph-name="undefined" unicode="㞩" horiz-adv-x="1024" vert-adv-y="918" d="M321 503l65-32H622l32 27 60-49-27-21V57 51l1-5 1-4 1-1V40l2-1 2-1 3-1 5-1 6-1H893l32 135h11L925 35l20-12L958 3 945-16 925-29H708l-14 1-13 2-13 4-12 7-11 9-9 11-6 12-5 13-2 14-1 13V449H386V427l-5-74-11-69-17-65-23-59-29-54-35-48-41-42-46-37-52-30L69-75l-4 9 51 32L161 2l40 38 33 43 28 46 23 51 16 54 12 60 7 64 1 69v76zM494 189l-4 21-4 20-7 18-7 18-8 17-10 16-11 17-12 15-15 15 6 8 19-9 19-11 18-14 16-15 14-16 14-19 12-21 10-21 9-23 7-25-4-24-21-14-24 5-14 21-3 21zM210 590V525l-64-32V787l64-11 17-10-17-10V611H480V855l64-11 16-11-16-9V611H813V787l65-11 16-10-16-10V557l-65-32v65H210z"/><glyph glyph-name="undefined" unicode="㡩" horiz-adv-x="1024" vert-adv-y="918" d="M706 19V35h75l6 1 5 1 5 2 2 2 2 5 1 5v6V218H544V-51L480-83V218H232V-8L168-40V272l64-32H480v91l64-11 16-10-16-10V240H802l33 27 59-49-27-21V57l-1-13-2-14-5-13-7-12-8-11-11-9-12-7-13-4-14-2-13-1V3L706 19zM926 544l-1 10-2 10-3 11-3 7-12-5-26-8-26-7-9-2V330l-64-32V546l-35-7-28-5-33-5-11-19-12 15-16 64h11l28 1 48 2 4 5 22 26 21 25 21 23 20 22 18 21 18 20 16 20 16 18 11 13 1 2 2 2 2 2 45-46 5-19-21 5-1-1-18-17-20-17-21-18-22-18-23-19-25-19-25-20-13-9 29 2 27 1 27 1h27 27 8l-7 12-8 12-9 13-12 11 5 7 15-8 15-7 13-9 13-8 12-10 11-11 9-11 9-13 7-13 6-14-4-24-21-14-24 4-14 20v10zM311 555l-3 10-1 4-4-2-25-9-26-7-7-2V330l-65-32V534l-9-2-27-6-56-9-6-1-10-19-12 15-17 64 11 1 56 2 18 1 2 3 39 48 20 24 19 23 19 23 19 24 18 23 32 42 6 7 47-44 5-19-20 3-27-27-21-22-22-21-23-20-23-21-24-20-24-19-8-6h3l27 2 27 1 54 3h27l-4 9-6 10-6 11-9 10-8 12-11 9 5 8 13-7 14-5 13-6 13-8 11-8 12-9 10-10 9-11 9-12 8-12-1-25-18-17-24 1-17 18-2 10zM98 511l61-21 15-13-21-9-6-14-8-17-10-17-10-17-12-15-13-15-14-15-16-14-16-14-7 6 11 18 9 17 8 18 7 17 6 17 5 16 4 15 2 16 2 15 1 10 2 16zm581 2 63-18 15-13-21-10-5-12-7-18-8-16-9-16-10-16-12-16-12-15-15-15-14-15-7 6 9 17 7 19 6 17 6 17 4 17 4 16 2 15 2 16 1 14v9h-1l1 4v2l1 11zM389 555l65-32H559l32 26 59-48-27-21V392l-64-32v32H454V376l-65-32V555zM917 398v11l-2 11-2 11-3 11-10 24-6 12-8 13-10 12 6 7 13-9 14-9 12-8 12-10 10-11 10-11 8-13 8-13 6-13 6-15-6-24-21-13-24 6-13 21v10zM308 410l-2 11-3 11-3 11-10 23-6 10-7 12-7 11-11 10 6 8 13-8 13-6 12-7 13-8 11-10 10-10 10-12 9-11 8-13 7-14-3-24-18-17-25 3-16 19-1 11zm251 91H454V413H559v88zm1 142 54-48V573H399v22H516l44 48zM125 668l-4 8-5 9-6 10-7 9-8 10-10 10-11 10-12 10-14 8 3 9 16-5 17-4 15-5 15-5 8-4 2 3 9 15 17 28 8 14 9 13 7 14 8 13 8 14 4 8v1l3 3v1l3 3 49-41 7-18-23 1-7-6-12-11-12-11-13-11-12-10-14-11-14-10-14-9 6-3 12-8 11-9 10-9 10-11 2-25-15-19-24-2-20 15-2 8zm435 50 54-49V648H399v21H516l44 49zm173-46-5 10-6 9-8 9-8 10-19 18-12 10-11 10-14 7 4 9 15-4 16-3 15-4 14-5 5-2 8 8 11 15 11 14 10 14 9 12 9 12 8 12 7 10 5 11 3 4-1 1 3 4 2 3 49-43 6-19-24 4-3-2-11-9-12-8-13-9-13-9-15-9-15-9-17-9-4-3 10-5 12-7 12-8 12-9 11-9 6-23-11-23-24-6-22 12-5 9zM594 798l53-48V728H384v22H550l44 48zm-34 75 54-48V803H399v22H516l44 48z"/><glyph glyph-name="undefined" unicode="㤻" horiz-adv-x="1024" vert-adv-y="918" d="M383-46l-14 1-13 2-13 4-13 7-10 9-9 11-7 12-4 13-3 13V40 252l64-11 17-10-17-10V33l2-5 1-4 2-2 5-2 5-1 7-1H732l33 135h10L765 18 784 5l13-19-13-19-19-13H383zM77-16 57-2 53 23 68 42 83 52 97 62l13 13 12 16 11 19 10 21 8 25 7 27 6 30 4 33 10 1 5-34 2-32-1-31-3-29-7-27-8-25-12-24-15-21L122 4 102-12 77-16zM896 59l-7 19-8 20-10 20-12 20-14 18-16 20-17 19-19 20-21 20 5 8 27-12 25-14 23-16 22-17 19-18 18-20 16-20 14-22 12-23 10-24-3-25-19-15-24 3-16 19-5 20zM565 139l-9 16-11 15-10 15-13 16-13 14-14 15-16 14-16 14-18 13 4 9 22-8 21-8 21-9 19-10 19-13 17-13 17-14 15-16 15-17 13-18 3-24-14-20-25-2-19 14-8 17zM414 741l65-11 16-11-16-9V528l-6-41-13-40-20-35-26-31-34-27-38-23-46-19-50-15-57-12-62-7-2 10 60 17 52 19 45 21 39 22 31 23 25 25 18 26 12 27 1 4-2-1-38-12-37-12-37-10-74-21-74-18-37-9-15-4-8-19-14 14-22 61 10 3 38 5 29 4V807l60-30 5 1 35 9 33 8 34 7 34 8 33 8 33 8 34 9 32 9 28 8v1l1-1 4 2 2-7 55-46 2-16-24 11-19-5-35-6-35-6-34-5-35-5-35-4-35-3-35-3-35-1H195h-4V463l19 3 38 5 38 5 38 6 38 5 39 4 11 1 1 5 1 31V741zM791 418v16h65l6 1h5l3 2 2 1h1l1 1v2l1 3 1 5 1 7V766H651V3e2l-64-32V820l64-32H877l32 26 59-48-26-21V456l-2-14-2-14-4-12-7-12-9-12-10-8-13-7-13-4-13-3H856v32l-65 16zM759 574l-3 10-4 11-6 11-8 11-8 11-11 12-12 13-13 12-16 11 4 8 19-7 18-6 17-7 16-8 14-9 14-10 12-12 11-12 10-13 9-14-1-25-18-16-25 1-17 17-2 11zm-449 9-3 11-5 10-7 11-7 11-9 11-11 10-12 12-13 11-16 10 4 8 18-6 18-5 17-6 15-7 15-8 14-9 13-10 11-12 11-13 9-13V574l-17-18H331l-18 17-3 10z"/><glyph glyph-name="undefined" unicode="㦨" horiz-adv-x="1024" vert-adv-y="918" d="M151 863l65-10 16-11-16-10V-45L151-77V863zm198-21 65-32H557l32 27 59-49-27-21V546l-64-32v43H414V-45L349-77V842zM809-24V-8h64l7 1 5 1 5 2 1 1 1 1 1 1 1 4 1 5V557H752V541l-52-26-13-8V455h91l33 37 43-37V433H687V376h69l32 27 59-48-27-22V184l-64-32v32H687V165l16-6 18-8 16-9 16-9 15-10 15-12 14-12 13-12 13-14 6-24-13-21-24-5-21 12-7 14-9 13-9 14-10 13-10 13-11 13-12 12-12 13-4 4V-31L622-63V101l-2-4-21-25-22-23-23-21-23-18L506-6 479-20 452-31l-5 8L468-3l20 19 19 21 18 21 18 22 16 23 16 24 14 26 14 27 2 4H551V147l-65-32V409l65-33h71v57H464v22H622v83l65-11V842l65-32H895l32 27 59-49-27-21V14 1l-3-14-4-13-7-12-8-11-12-9-11-7-13-4-14-2-14-1v32L809-24zM577 247l-2 8-2 9-3 9-3 9-8 20-5 10-3 5V206h71v11l-2-3-25 1-17 17-1 15zm179 38-4-4-9-11-8-10-20-19-21-18-7-8v-9h69v79zm0 70H687V241v2l5 13 9 25 3 12 4 12 3 12 4 11 2 7h-1l2 5 3 7 35-21v29zm-134 0H551V324l3 4 9-8 10-6 11-5 9-7 8-7 9-7 7-7 5-6v80zM81 390l-24 2-15 20 3 25 6 9 7 11 7 14 7 16 7 19 6 21 7 24 7 25 7 27 7 30 9-1 1-30 1-29V546l-1-26-2-23-3-21-3-20-4-19-4-17-6-15-20-15zM270 505l-2 14-3 15-3 15-4 15-5 17-5 16-7 16-6 17-9 17 8 6 12-14 14-14 13-14 11-14 11-15 9-15 9-15 8-15 7-16 6-16-5-24-20-15-24 5-14 20-1 14zM895 675H752V578H895v97zm-338 0H414V578H557v97zM895 788H752V697H895v91zm-338 0H414V697H557v91z"/><glyph glyph-name="undefined" unicode="㨆" horiz-adv-x="1024" vert-adv-y="918" d="M919 142l-19 45-18 47-15 49-14 51-11 53-2 9V-45L775-77V393l-9-31-21-56-22-52-23-50-26-46-28-43-29-39-8 5 20 44 19 45 19 48 18 51 17 52 16 56 14 58 14 62 12 64 8 50H680v21h95V863l65-10 16-11-16-10V632h20l54 54 64-54V611H840V565l2-6 14-56 14-54 15-52 16-49 18-47 19-45 20-43 21-40 23-39-52-52-10 17-21 43zM604 341l-8 20-8 19-9 17-9 17-9 17-8 13V-45L488-77V337l-11-35-19-50-20-47-21-44-23-41-26-38-8 5 15 41 15 44 15 46 15 48 13 49 13 53 12 54 11 57 10 59 9 59v8H375v22H488V858l65-11 16-10-16-10V627h12l44 48 54-48V605H553V483l6-4 16-12 15-13 14-15 14-15 14-17 13-18 13-20 12-20 1-24-16-19-24-1-19 16-8 20zM79-18V-2h75 6l5 1 5 2 2 2 2 5 1 5v6V315l-10-6-31-18-32-17-12-7-3-20-16 9-38 54 10 4 32 14 33 15 33 14 32 14 2 1V632H48v22H175V863l65-10 16-11-16-10V654h12l54 53 65-53V632H240V401l30 13 32 14 33 13 33 13 5-8-28-22-29-21-29-20-30-19-17-11V19L239 6 237-8l-5-12-7-13-8-11-11-8-12-7-13-4-14-3-13-1v33L79-18z"/><glyph glyph-name="undefined" unicode="㩜" horiz-adv-x="1024" vert-adv-y="918" d="M78-18V-2h64 7l4 1 5 2 2 2 2 5 1 5 1 6V312l-60-38-9-5-2-21-18 9-39 52 9 5 29 14 30 14 30 14 29 15h1V632H52v22H164V863l64-10 16-11-16-10V654h16l44 48 54-48V632H228V403l22 11 30 14 29 13 31 13 5-8-25-22-25-21-53-39-14-9V19L227 6 225-8l-4-12-7-13-9-11-11-8-12-7-13-4-13-3-14-1v33L78-18zm259-9V-5h86V292l65-32H821l32 27 59-48-27-22V-5h30l24 32L971-5V-27H337zM556 239H488V-5h68V239zm132 0H620V-5h68V239zm133 0H753V-5h68V239zM422 361V297l-54-27V840l54-27H563l44 49 53-49V792H546V680h41l32 27 59-48-27-22V485l-64-32v54H546V383h26l44 48 54-48V361H422zm65 146H422V383h65V507zm405-4 53-49V433H680v21H848l44 49zM726 856l62-20 15-13-19-8-4-18-8-37-10-36-11-35-1-2H858l44 48 54-48V665H743l-4-9-12-31-14-30-16-28-16-25-19-24-8 5 17 56 9 29 8 30 8 31 7 33 6 34 6 35 5 36 4 38 2 11zM422 659V528H587V659H422zm65 133H422V680h65V792z"/><glyph glyph-name="undefined" unicode="㰖" horiz-adv-x="1024" vert-adv-y="918" d="M285 364l-5 13-6 12-7 12-7 12-9 12-8 11-11 12V-40L167-72V397l-14-42-17-45-20-46-21-43-23-41-26-39-9 5 16 43 15 44 15 44 14 46 13 46 11 48 11 47 9 50 8 50 5 36H42v21H167V863l65-10 16-11-16-10V621h16l44 49 54-49V6e2H232V471l13-5 15-7 14-8 14-10 13-10 13-11 11-11 12-13 10-14 2-24-15-19-25-2-19 15-5 12zM776-61l-14 1-13 2-13 4-13 7-10 9-9 11-7 12-4 13-3 13V25 142H590l44-15 15-13-21-8-5-15-17-33-24-29L554 3 521-18 483-37 440-52 392-64l-52-8-58-4-1 9 55 15 49 16 43 17L465 0l31 20 26 21 20 23 14 23 10 25 5 26v4H513V78L449 46V470l64-32H823l33 27 59-48-27-22V110L823 78v64H754V18l2-5 1-4 2-3 5-1 5-1 7-1H921l32 135h11L953 3l20-13 13-19-13-19-20-13H776zm47 299H513V164H823v74zm0 89H513V259H823v68zm0 90H513V349H823v68zM417 492V428l-53-27V855l53-27H551l54 54 65-54V806H547V731h46l32 27 60-48-27-22V588l-65-32v43H547V514h34l44 48 54-48V492H417zm71 107H417V514h71v85zm415 21 65-53V545H690v22H850l53 53zM740 861l61-23 14-14-19-7-3-8-10-27-10-27-9-19H882l44 48 54-48V714H754l-4-8-14-22-14-21-16-20-17-18-19-15-7 6 10 21 9 22 10 21 9 22 8 23 7 23 7 25 6 25 5 26 3 22 1 4v1l2 10zM417 710V620H593v90H417zm71 96H417V731h71v75z"/><glyph glyph-name="undefined" unicode="㱍" horiz-adv-x="1024" vert-adv-y="918" d="M224 358l-2 16-8-6-16-10V277l5 4 11-14 11-14 11-16 9-17 9-18 8-20 7-20 6-22 5-19V253l59-29h58l30 27 49-43 1 23v27 12l64-15 6-5v96l-27-11-16-5-9-21-14 14-23 60 10 2 19 3 28 4 7 21 14 41 13 39 13 37 2 7-6-6-24 2-17 19-3 17-8 31-5 15-5 15-4 13-6 14-12 27-8 11 6 7 12-9 13-9 12-10 3-3 4 13 6 22 6 21 6 21 5 19 5 19 5 18 4 17 4 16 2 10 1 5v1l3 8 58-29 12-15-21-5-6-11-9-16-9-17-9-18-11-17-11-19-13-18-13-19-10-15 11-13 10-13 10-15 9-16 9-16 7-15 10 26 11 34 11 32 9 30 8 24 5 12 57-30 12-15-20-4-4-9-13-30-15-31-15-31-16-34-17-34-19-35-19-37-22-37-6-11 10 2 37 6 20 3 19 4 19 3h2v2l-3 19-4 19-4 18-5 19-6 18 9 5 12-15 12-16 11-17 10-18 9-20 8-20 7-21 6-22 5-22 5-23-8-23-22-12-23 8-11 21-1 22-1 21-1 20-2 20-1 1-15-9-17-10V-45L547-77V238l-8-5-1-7-4-29-5-28-6-28-7-29-7-28-9-28-10-27L479 2 466-25l-10 3 3 29 3 29 3 29 3 27 3 28 2 28 2 28 1 21-20-14V-2L397-32V-2H339V-40L280-69V70L259 58l-24 6-12 21-1 23-2 22-2 21-2 19-3 20-3 19-3 17-4 18-3 16-2 9V-45L133-77V206l-3-16-5-29-7-29-8-28-8-28L92 48 81 22 68-5 54-31l-9 4L49 2l9 56 4 27 4 28 3 28 4 56 1 28 1 22H74l1 18 58-14v75l-9-4-19-8-16-5-9-21-14 13-23 61 10 2 19 2 19 3 8 1 5 18 12 39 31 96-12-9-24 5-15 20-2 17-2 17-3 16-4 15-4 15-5 15-5 14-6 15-7 14-8 13 7 7 12-10 13-11 13-11 5-5v1l4 22 5 22 9 43 5 22 10 43 5 22 4 17h-1l4 14 59-27 13-15-21-5v-2l-9-21-9-21-9-20-19-41-11-20-11-20-12-19-5-8 6-9 11-15 9-16 8-17 8-18 5-15 7 23 12 38 34 111 4 13 59-28 12-16-20-4-7-19-15-37-16-39-17-37-16-37-34-73-18-36-20-36-4-6 28 4 19 4 19 5 19 4 16 3v2l-3 18-3 18-4 17-3 17-4 16-4 16-6 14 8 6 11-13 12-13 11-14 9-15 9-17 8-18 9-19 7-20 6-20 6-22-7-24-20-13-24 6-13 21-1 21zM897-7 880 29 866 69l-13 44-11 48-9 52-6 52-7-39-16-64-19-59-24-52L735 4 705-36 671-70l-7 7 24 38 22 43 19 47 17 52 14 56 11 62 9 67 5 73 3 78V578l64-10 16-11-16-10V535l-3-85-4-53v-3l10-62 11-58 12-53 13-48 15-44 15-39 17-34 18-29L973 3 916-39h-1L897-7zM397 202H339V19h58V202zM642 83v22l-1 21-2 21-2 21-2 20-3 20-3 19-4 20-4 19 9 3 11-16 11-17 10-18 9-20 8-20 7-21 7-22 5-23 5-23 4-24-8-24-22-10-24 8-11 22V83zM399 396l43-38V337H294v21h72l33 38zM760 862l63-17 16-12-19-9-2-20-7-41-8-42-8-41-8-32H901l32 27 59-48-27-16-8-4-6-15-7-17-7-19-9-19-10-21-11-23-13-24-13-27-9 4 7 28 4 27 5 24 4 23 3 21 4 18 1 17 1 7v16H782l-9-32-13-43-14-43-16-44-18-44-10 3 8 46 8 46 8 44 7 44 7 42 5 43 5 41 4 40 3 41 2 34 1 17zM399 535l43-37V476H294v22h72l33 37zm23 151 43-38V627H284v21H389l33 38zM399 826l43-38V767H294v21h72l33 38z"/><glyph glyph-name="undefined" unicode="㱫" horiz-adv-x="1024" vert-adv-y="918" d="M197 278l-4 15-4 14-5 13-7 14-8 13-9 12-11 12-12 13-1 1-4-7-27-43-30-40-33-36-8 5 24 42 22 43 21 45 19 47 17 49 15 51 13 54 12 56 9 59 5 46H38v21H329l44 49 54-49V756H256l-10-57-13-60-16-58-4-13H326l32 27 59-49-26-16-5-2-9-66-18-86-23-80-28-74-33-68-37-60-42-55L149-9 97-49 41-81l-5 8L85-33l44 45 39 49 35 54 32 60 26 65 23 71 18 78 14 82 8 75H206l-6-20-21-52-22-49-14-27 2-1 17-7 17-8 15-11 14-11 14-13 12-15 10-16 9-17 8-19-3-24-19-15-24 3-16 19-2 15zM892 35 862 60 835 87l-26 27-23 29-21 31-20 31-16 33-14 35-1 3V-45L650-77V212l-26-36-31-38-34-36-36-33-38-31-42-28-44-26-47-22-5 8L388 1l38 32 35 32 34 33 30 35 29 36 26 38 23 39 21 40 8 18H520V240l-64-32V632l64-32H650V702H411v22H650V869l64-11 16-11-16-9V724H875l44 48 54-48V702H714V6e2H854l32 27 59-49-27-21V272l-64-32v64H719l16-21 21-29 22-27 22-26 24-25 25-23 26-23 27-21 29-20 30-18 21-13-59-47-31 24zM650 578H520V326H650V578zm204 0H714V326H854V485l-18-2-7-12-9-16-10-16-10-16-22-31-12-16-13-15-11-16-9 5 7 18 5 19 11 37 6 17 5 18 6 17 5 18 5 16 3 12 4 12 57-32 7-10v86zM568 390l-3 16-3 17-3 16-3 15-8 29-9 28-6 12 7 6 11-10 12-10 10-12 11-13 9-14 9-15 8-15 8-17 8-18 6-18-3-24-20-15-24 4-15 20-2 18z"/><glyph glyph-name="undefined" unicode="㲯" horiz-adv-x="1024" vert-adv-y="918" d="M36 4 47 5 98 9h3V310l59-30H481l29 27 57-48-27-19V37h9l62 1 1-10-61-11L492 6 433-3l-58-9-55-9-56-8-54-8-53-8-53-7-28-4L66-74 54-59 36 4zM925 14l33 134h10L958 14 977 1l13-19-13-20-19-13H808l-14 2-13 2-13 4-12 7-11 9-9 10-7 13-4 13-2 13-1 13V266L592 235l-6 21 136 32V451L603 423l-5 21 124 30V663l-5-2-36-14-39-13-40-11-3 9 35 21 34 20 34 20 31 19 31 20 29 20 28 19 26 20 25 20 19 17 4 4 41-51 1-19-19 7-10-7-28-18-30-18-31-17-32-17h-1V489l35 8 40 65 75-37 5-21-155-37V303l73 17 41 65 75-38 5-21-194-45V35l1-6 1-5 1-5 3-2 4-1 5-1 7-1H925zM230 259H160V14l44 3 26 2V259zm127 0H284V23l30 2 43 2V259zm124 0H410V30l19 2 52 3V259zM110 360 56 333V843l54-27H224l44 48 54-48V795H221V682h31l33 27 59-49-27-21V530l6 22 7 28 7 30 8 30 6 31 7 33 5 34 5 36 5 37 3 33 1 5 1 11 62-19 15-13-18-8-3-18-9-39-9-36-10-35-1-3h86l44 49 53-49V668H398l-3-9-11-32-13-29-14-29-16-25-17-24-7 3V485l-65-32v54H221V381h33l33 38 43-38V360H110zm52 147H110V381h52V507zm363-4 54-49V433H339v21H481l44 49zM110 660V528H252V660H110zm52 135H110V682h52V795z"/><glyph glyph-name="undefined" unicode="䃹" horiz-adv-x="1024" vert-adv-y="918" d="M383 839l59-29H579l30 27 56-49-27-19V546l-59-29v40H442V-46L383-76V839zM778-24V-8h96l7 1 5 1 4 2 3 2 1 1 1 4V8l1 6V557H761V541l-59-30v3l-5-4V451h65l44 48 53-48V430H697V378h70l29 27 57-49-27-18V190l-59-29v40H697v-6l9-11 17-19 16-18 17-17 16-14 17-14 17-11 17-10 16-8 18-6 30-15L826 2 806 15 787 30 769 46 752 63 737 83l-14 20-13 23-12 23-1 2V16L644-11V129l-7-9-19-23-19-21-21-18-22-17-23-15-24-12-25-9-5 8 37 36 16 18 17 19 15 20 15 21 13 23 13 24 11 25 1 2H576V185l-59-30V408l59-30h68v52H486v21H644v90l53-11 5-4V839l59-29H896l32 27 59-49-27-21V14L959 1l-2-14-4-13-7-12-9-11-11-9-12-7-13-4-13-2-14-1v32L778-24zM293 799l64-54V724H240l-12-49-14-54-16-52-18-51-15-36h95l29 27 57-49-27-19V62L260 33V95H174V30L109-2V359L90 323 62 276 32 232l-8 5 20 49 20 49 19 49 18 49 8 26v7h3l5 17 15 50 14 51 12 52 10 52 6 36H49v21H239l54 54zM260 460H174V116h86V460zM596 253l-1 7-1 8-1 8-3 8-2 8-4 10-3 9-4 9-1 1V223h68v12l-6-6-24 1-18 17v6zm171 42-11-14-10-9-8-9-10-9-10-8-10-8-9-10-2 1v-6h70v72zm0 61H697V245l5 12 4 12 3 12 4 11 4 12 3 11 3 11 3 11 1 6 1 4 1 1 3 6 35-21v23zm-123 0H576V335h1l8-7 9-4 10-6 9-6 8-6 8-7 7-6 7-7 1 70zM896 675H761V578H896v97zm-317 0H442V578H579v97zM896 788H761V697H896v91zm-317 0H442V697H579v91z"/><glyph glyph-name="undefined" unicode="䄤" horiz-adv-x="1024" vert-adv-y="918" d="M763 68l42-49 3-20-21 7-1-1L767-8 747-19 727-30 706-40 684-50l-23-8-23-7-24-6-24-5-4 9 22 12 20 14 19 13 19 12L683-3l18 14 16 13 16 14 14 14 11 11 5 5zM284 638l64-54V562H207V-51L164-72V562H42v22H230l54 54zM918-45l-8 12-9 12-9 12L882 2 872 13 860 24 849 35 836 47l-14 9 3 9 17-6 17-4 17-6 16-7 15-8 15-8 15-10L950 5 964-6l12-12 6-23-12-22-24-6-21 12-7 12zm22 673-6-12-8-11-9-10-10-8-11-7-13-6-12-3-14-2-13-1v32l-76 16v16h76l7 1 6 1 5 1 4 2 4 2 3 3 3 3 3 4 3 6 3 7 3 15 2 11 2 13 1 16 1 16 1 20 1 21v22 14H819l-6-28-9-29-10-28-13-27-16-25-18-25-19-23-22-22-25-20-23-16 5-5-27-16V358l-54-27v38H531V281l6-3 20-11 18-12 18-13 15-14 15-15 13-15 11-16 11-17 8-18-2-24-19-17-24 3-16 18-3 14-5 15-5 15-8 15-9 16-9 15-12 16-12 16-11 12V-42L478-69V224l-14-30-21-40-22-36-25-34-27-31-29-28L308 0l-6 7 23 31 21 32 21 34 19 35 16 36 16 38 13 41 12 42 10 44 6 29H427V304l-54-27V611l54-27h51V702H331v22H478V863l53-10 14-11-14-9V724h48l44 48 54-48V702H531V584h51l27 27 41-37 17 23 17 25 16 24 14 24 11 25 10 24 8 25 6 24 4 25 1 17H661v21H896l33 27 59-48-27-17-1-21V750l-1-20-1-19-2-17-2-16-2-13-3-13-4-11-5-13zM71 476l53-10 14-11-14-9V294l-1-45-3-40-5-38-6-35-7-31-8-29L84 52 73 31 59 13 44 1 38 6l7 17 6 18 5 21 5 23 4 27 3 30 2 33 2 36v40l-1 43V476zm186 0 48-10 12-11-12-9V102L257 77V476zm432 89 60-30H881l32 27 59-48-27-22V111L881 78v33H749L689 81V565zM881 245H749V132H881V245zm0 145H749V267H881V390zM478 562H427V390h51V562zm104 0H531V390h51V562zm299-48H749V412H881V514zM255 826l54-49V756H77v21H211l44 49z"/><glyph glyph-name="undefined" unicode="䆾" horiz-adv-x="1024" vert-adv-y="918" d="M50-37v21H189V199l65-32H770l32 27 59-48-26-22V-16h21l54 54 64-54V-37H50zM383 146H254V-16H383V146zm194 0H447V-16H577V146zm193 0H641V-16H770V146zM166 230V166l-65-33V580l-45-3-2 9 56 15 51 15 46 15 39 16 34 17 28 17 21 18 16 17 11 17 5 17 3 8 59-27 12-15-23-6-4-7-20-25-25-21-29-18-35-16-39-14-44-12-48-9-54-7-12-1 64-32H403l54 54 64-54V527H343V456h85l32 27 60-48-27-22V331l-65-33v33H343V252h93l44 48 54-48V230H166zM278 331H166V252H278v79zm594 24 65-53V280H550v22H818l54 53zM632 581l60-27 12-15-21-5-3-8-12-25-14-26-8-13H835l53 54 65-54V440H631l-8-11-17-21-20-19-20-19-22-16-24-14-6 8 16 21 15 21 14 21 14 21 12 22 11 22 10 23 9 24 8 25 5 20 4 13zM166 435V352H428v83H166zm112 92H166V456H278v71zM902 659l20 76-8-3-6-4-12-7-14-8-14-8-15-8-16-7-16-10-6 7 14 13 11 14 11 13 9 13 10 11 8 11 3 5H652V676v-5l1-3 1-2v-2l2-1 2-1 3-1 5-1 7-1H902zM57 654 40 671v25l18 17 10 3 10 4 9 5 8 7 9 8 7 10 7 13 6 16 5 17 2 20h10l2-20 1-8H480v96l64-11 16-11-16-9V788H894l4 4 4 7 2-2 22 18 59-48-27-17-19-7-8-84 18-12 12-18-12-18-18-12H673l-14 1-13 2-13 4-11 6-11 9-9 10-7 12-5 13-2 13-1 14v84H146V757l-2-18-4-17-7-16-9-16-12-14-14-12-16-10H57z"/><glyph glyph-name="undefined" unicode="䌫" horiz-adv-x="1024" vert-adv-y="918" d="M297 355l-4 23-24-12-25-11-8-3V-45L172-77V330l-5-2-53-15-27-7-5-1-9-19-14 15-20 61 11 2 27 3 26 3 12 1 26 57 18 39 19 38 36 78 18 38 34 78 15 34 5 12 56-34 10-17-20-2-10-19-21-39-21-37-22-38-22-36-22-37-24-37-24-35-25-35-4-5 45 7 26 4 27 4 25 5 27 3 2 1-4 14-5 18-6 17-13 34-8 16-9 15 7 7 15-12 14-12 14-14 12-16 12-17 11-17 9-19 9-21 9-21 7-21-5-24-20-15-24 5-14 20-3 20zM923 3l32 135h11L955 3l19-13 13-19-13-19-19-13H780l-13 1-14 2-13 4-12 7-11 9-9 11-6 12-5 13-2 13-1 14V142H596l44-15 15-13-21-8-4-15-17-32-23-30L561 4 529-18 491-37 449-52 402-64l-52-8-57-4-1 9 54 15 48 16 42 17L473 0l31 20 25 21 20 23 14 23 9 25 4 21 2 9H521V78L457 46V470l64-32H826l33 27 59-48-27-22V110L826 78v64H759V25 18l1-5 1-3 1-1 1-1 1-2h2l3-1 5-1 6-1H923zM92 266l63-18 15-12-18-9-2-9-6-29-7-30-9-28-10-29-11-28L95 47 81 20 65-6 47-31l-9 5L46 3l8 28 7 28 7 28 6 28 6 27 4 28 3 28 2 28 1 22 2 18zM295 106l-3 22-4 20-4 20-5 20-5 18-12 36-6 18-9 16 8 6 14-13 14-14 13-16 12-16 11-19 10-20 9-21 8-21 8-23 6-24-5-24-20-13-25 5-13 21-2 22zM826 238H521V164H826v74zm0 89H521V259H826v68zm0 90H521V349H826v68zM427 492V428l-54-27V855l54-27H557l53 54 65-54V806H555V731h45l32 27 59-48-27-22V588l-64-32v43H555V514h31l44 48 54-48V492H427zm69 107H427V514h69v85zM117 553l-4 17-5 15-6 17-8 15-8 15-8 15-11 14-10 15-13 14 6 8 17-10 17-10 16-11 14-12 3 8 7 22 8 22 7 22 17 44 7 22 15 44 6 16 4 12 57-32 11-16-21-3-24-43-11-21-13-20-13-20-13-20-13-19-16-19-7-9 4-4 13-15 11-16 11-18 10-17 9-20-3-24-19-16-24 3-16 18-4 17zm788 67 64-53V545H695v22H851l54 53zM744 861l62-23 13-14-20-7-2-8-9-27-10-26-9-20H883l44 48 54-48V714H758l-4-7-13-23-14-21-16-19-17-18-18-16-8 6 10 21 9 21 9 22 9 22 8 23 8 23 6 25 6 25 5 26 3 22 1 4v1l2 10zM427 710V620H6e2v90H427zm69 96H427V731h69v75z"/><glyph glyph-name="undefined" unicode="䑌" horiz-adv-x="1024" vert-adv-y="918" d="M397 839l60-29H590l30 27 57-49-27-19V546l-60-29v40H457V-46L397-76V839zM73 853l65-33H256l32 27 59-48-26-22V19L320 6 317-8l-4-12-6-13-10-11-10-8-12-7-14-4-12-3-14-1v33L149-18V-2h86 6l5 1 3 2h2l1 1 1 1 1 2 1 3 1 5v6V326H138V304l-3-57-4-54-5-49-8-45-8-41L99 22 86-10 72-37 55-59 36-75l-7 7 9 20 8 23L53 2l6 30 6 35 4 39 3 43 2 48v51l-1 56V853zM817-24V-8h64l7 1 5 1 4 2 3 2 1 1V3l1 5 1 6V557H772V541l-55-28-9-5V455h83l33 37 43-37V433H708V376h67l30 27 56-48-26-19V184l-60-29v29H708V166l3-1 17-6 16-8 15-9 15-10 15-10 13-11 14-12 13-13 11-13 5-25-13-20-24-5-21 14-7 13-7 13-8 14-9 13-10 12-10 13-10 12-18 21V-34L654-61V103l-3-6-20-24-20-23-21-21-23-19L544-6 519-20 493-31l-5 8L507-4l18 20 18 20 17 21 16 22 15 23 14 24 13 26 13 28 2 4H581V147l-53-27V403l53-27h73v57H504v22H654v83l54-11 5-3V839l59-29H903l32 27 59-49-27-21V14L966 1l-2-14-4-13-7-12-9-11-11-9-12-7-13-4-13-2-14-1v32L817-24zM607 240v8l-1 8-2 8-2 10-3 9-3 9-8 20-7 9 7 6 9-7 19-12 9-6 8-7 16-15 5-7v82H581V206h73v13l-5-5-25 1-16 18-1 7zm168 44-1-2-8-11-9-10-9-10-19-19-11-9-9-10-1 1v-8h67v78zm0 71H708V232l3 11 12 37 3 12 6 24 3 12 2 6h-1l2 5 3 7 34-19v28zM256 568H138V347H256V568zM903 675H772V578H903v97zm-313 0H457V578H590v97zM256 799H138V589H256V799zm647-11H772V697H903v91zm-313 0H457V697H590v91z"/><glyph glyph-name="undefined" unicode="䖂" horiz-adv-x="1024" vert-adv-y="918" d="M351-26v16H465l5 1 3 1 1 2h1l2 1 1 5 1 5 1 7V60H44V82H480v56H125v22H480v52H467l-72-2-79-1-84-1-91 1v10l90 9 84 9 78 8 72 7 65 8 59 6 54 7 47 7 41 7 34 6 1-6 60-50 2-16-24 13-29-5-37-3-42-3-48-4-54-2-50-3V160H801l44 48 54-48V138H544V82H861l54 53 65-53V60H544V12L543-2l-2-14-4-12-7-12-9-12-11-8-12-7-13-4-13-3H458v32L351-26zM926 476v7l-2 8-3 8-4 7-13-4-25-7-27-7-8-2V310l-64-32V474l-36-6-27-5-34-4-2-4 61-20 14-12-23-10-2-7-8-13-8-13-9-13-11-12-12-12-12-12-14-11-13-11-7 6 10 14 7 16 6 14 6 14 4 13 4 13 2 12 2 12v11 5h-1l1 4v1l1 7-6-10-12 15-15 64h11l28 1h27 24l1 1 22 22 22 20 2 2-20-8-24 9-4 7-5 8-7 8-7 8-9 7-9 8-10 9-11 8-12 9-14 6 2 9 15-4 16-1 15-2 14-3 9-3 6 5 11 13 12 12 10 11 9 11 9 10 8 10 7 9 6 9 2 3h-1l5 6 44-48 3-19-24 7-10-6-12-6-13-7-13-6-14-7-15-6-14-6h1l12-5 12-5 11-7 11-7 9-22-8-22 16 15 20 18 18 17 18 17 16 15 16 16 10 10 5 5 41-50 3-20-21 7-17-12-19-13-21-14-22-14-23-14-24-15-24-14 16 1h27 54l27-1h6l-4 5-8 10-9 11-13 8 5 9 14-7 15-4 13-6 12-6 12-7 11-8 9-9 9-9 8-11 6-11-3-25-20-15-24 4-16 19 1 6zm-615 7-2 8-2 5-4-2-25-8-27-6-6-2V310l-65-32V465l-37-7-40-6 56-21 14-14-23-8-4-7-9-14-9-13-11-13-11-13-14-11-14-11-15-10-15-11-7 7 12 14 9 15 8 14 8 14 5 14 5 13 4 12 2 12 1 12 1 5 1 13-10-2H81L71 431 59 446 44 510H55l28 1h27l22 1 19 19 40 39 57 57 18 19 18 18 14 15 5 6 43-48 3-19-20 5-4-3-21-17-21-16-22-17-22-16-23-15-23-16-17-10h17l27 1h27 26 25l-1 2-5 8-7 9-8 9-9 10-11 7 4 9 13-6 13-3 13-4 12-5 11-6 11-6 10-7 10-8 9-10 8-9 1-24-16-19-25-1-18 16-2 7zm78-17 65-33H559l32 27 59-48-27-22V316l-64-32v32H454l-65-32V466zM917 361v7l-1 8-2 8-3 10-4 9-5 10-14 21-11 9 5 8 13-7 13-5 12-7 11-7 11-7 9-9 9-9 8-10 6-12 6-11-5-24-21-14-23 5-14 20v7zM559 412H454V338H559v74zM308 368l-1 9-3 8-3 9-4 9-5 9-6 9-8 10-7 10-11 7 5 9 12-6 13-4 12-5 12-6 11-6 10-8 10-8 9-9 8-10 8-11-2-25-17-17-24 1-18 18-1 7zM560 610l54-49V540H565l49-44V475H399v21H516l39 44H399v21H516l44 49zM126 572l-3 6-5 8-5 8-8 8-9 8-10 8-11 9-12 9-15 6 3 10 16-5 16-1 15-3 14-4 13-4 9 13 9 12 17 24 17 22 7 12 8 10 4 7h-1l4 4v1l2 1 45-45 5-19-23 5-4-4-12-8-25-16-12-7-14-8-13-7-7-3 9-4 11-7 10-7 10-8 5-25-13-21-24-4-21 13-2 6zM560 746l54-49V676H598l49-44V610H384v22H550l40 44H399v21H516l44 49zm70 129 65-11 16-10-16-10V806H861l54 54 65-54V785H695V740l-65-32v77H394V740l-65-32v77H44v21H329v69l65-11 16-10-16-10V806H630v69z"/><glyph glyph-name="undefined" unicode="䜌" horiz-adv-x="1024" vert-adv-y="918" d="M926 332l-2 21-3 20-5 19-1 7-9-4-26-11-26-10-10-4V-45L780-77V350l-6-2-54-14-28-6-7-1-8-19-14 14-20 62 11 1 28 3 27 3 14 2 11 22 22 41 20 39 21 38 19 36 19 35 17 34 16 31 16 31 12 24 5 10 54-36 9-17-20-1-7-10-18-29-20-31-21-32-22-32-25-34-24-36-27-36-29-36-7-9 21 2 27 4 27 4 27 3 27 4 28 2 9 1-4 16-7 19-9 19-8 19-10 19 7 6 17-15 15-15 15-17 13-18 12-19 10-20 10-21 8-22 7-23 5-24-7-23-21-13-24 7-12 21-1 21zM307 375l-1 4-2-1-25-12-26-11-8-3V-45L180-77V330l-7-2-27-8-28-7-28-7-7-1-9-19-13 15-19 61 10 2 28 3 40 4 9 19 19 38 19 39 19 39 19 38 19 39 18 38 18 40 19 38 15 35 5 11 55-35 10-16-20-2-10-20-22-38-22-38-45-74-24-37-24-36-25-35-26-35-4-5 48 7 27 4 54 9 28 3 3 1-5 14-5 18-6 17-7 17-7 17-8 16-10 15 7 7 15-12 15-12 14-14 13-15 12-17 11-18 10-19 9-20 9-21 8-22-5-24-20-15-24 5-14 20-7 40zm82-119 65-32H559l32 27 59-49-27-21V-2L559-34V-2H454V-40L389-72V256zM97 266l63-18 15-13-19-8-1-9-6-30-8-29-9-29-10-28-11-28L98 47 84 20 67-6 49-31l-8 5L49 3l8 28L72 87l7 28 5 27 4 28 4 28 2 28 2 22 1 18zm582 4 63-16 16-12-19-9-1-8-5-29-6-28-8-29-9-28-10-28-11-28-12-28L661 1 645-25l-9 3 13 60 7 28 5 28 5 28 4 27 3 28 3 27 1 27 1 27 1 12zM559 202H454V19H559V202zM917 82l-1 21-3 22-3 21-4 20-5 20-5 20-7 20-7 20-8 19 8 5 15-15 15-17 13-18 11-19 11-21 9-21 8-22 7-23 6-24 5-24-8-24-21-11-23 7-12 22-1 22zM308 106l-4 21-3 21-5 20-4 20-12 36-7 18-7 17-8 17 7 6 14-13 15-14 13-15 13-17 11-19 10-19 10-21 8-22 8-23 7-24-6-24-20-13-24 5-14 20-2 23zM560 406l54-48V337H399v21H516l44 48zm0 140 54-48V476H399v22H516l44 48zm-436 7-5 16-6 16-6 16-8 16-8 15-10 15-10 14-12 15-13 14 6 8 17-10 18-9 16-11 15-13h1l11 30 16 45 8 22 9 21 8 22 8 22 8 22 6 17h-1l2 4v1l4 7 56-33 10-16-20-3-1-2-12-21-12-20-12-21-13-20-13-21-28-38-15-19-8-10 3-3 13-15 13-16 11-17 10-18 9-19-2-25-19-16-24 2-16 18-4 18zm608 11-7 16-7 16-8 15-8 15-9 14-10 15-22 28-12 12 5 8 17-8 17-8 15-11 12-8 9 17 11 23 10 22 10 20 9 20 9 19 8 18 7 18 6 16 4 10-1 1 5 11 56-34 10-17-22-2-8-12-12-16-12-17-13-17-14-18-15-18-16-18-18-18-14-16 9-7 14-14 14-14 12-16 12-17 11-17 1-25-16-18-25-1-18 16-6 17zM594 697l53-49V627H384v21H550l44 49zM560 837l54-49V767H399v21H516l44 49z"/><glyph glyph-name="undefined" unicode="䦨" horiz-adv-x="1024" vert-adv-y="918" d="M98 842l65-32H388l33 27 59-49-27-21V546l-65-32v43H163V-45L98-77V842zM765-24V-8h75l6 1 5 1 5 2 2 2 2 5 1 5v6V557H636V541l-65-32V842l65-32H861l33 27 59-49-27-21V14L925 1l-2-14-5-13-7-12-8-11-11-9-12-7-13-4-14-2-13-1v32L765-24zM679 44 665 58 651 72 636 85 620 98l-18 14-17 13-39 27-2 1V-31L480-63V122l-2-3-27-26-27-24-30-22-30-21L332 8 299-8 264-21 227-31l-4 8L254-3l31 21 28 20 27 22 26 22 24 24 23 25 21 25 19 28h1H354V147l-65-32V409l65-33H480v57H245v22H480v83l64-11 16-10-16-10V455H715l34 37 43-37V433H544V376H666l33 27 59-48-27-22V184l-65-32v32H544V170l9-2 24-7 22-7 22-9 22-10 20-10 19-11 19-12 18-13 17-13 9-23-8-23-23-10-23 10-12 14zM480 269H354V206H480v63zm186 0H544V206H666v63zM480 355H354V291H480v64zm186 0H544V291H666v64zM861 675H636V578H861v97zm-473 0H163V578H388v97zM861 788H636V697H861v91zm-473 0H163V697H388v91z"/><glyph glyph-name="undefined" unicode="䨬" horiz-adv-x="1024" vert-adv-y="918" d="M920 40 896 68 876 97l-19 31-17 31-14 32-10 30V-49L751-81V211l-21-35-23-32-26-31-26-29-28-26-31-24-31-20-7 7 25 28 23 29 22 29 21 30 19 32 19 33 16 34 15 36 14 37 6 18H638v21H751V483l65-11 16-11-16-9V348h43l54 54 64-54V327H816V310l4-9 15-31 15-30 16-29 18-27 19-26 20-25 22-23 23-23 25-21 10-10-58-43-25 27zM559 162l-9 12-10 11-10 11-10 11-11 11-12 10-8 8V-49L424-81V178l-3-5-19-32-21-29-22-27-24-25-26-23-27-20-6 7 18 27 19 27 17 28 17 29 16 30 14 31 14 32 12 33 12 35 9 28H292v21H424V480l65-11 16-11-16-10V345h11l53 54 65-54V324H489V260l7-1 17-6 15-6 15-7 15-7 15-9 28-19 14-11 8-23-10-23-24-8-22 10-8 12zM184-68l-24-7-21 13-7 23 3 19 1 16-1 16-4 14-6 13-8 13-12 13L90 77 71 88 48 97l2 10 25-4 25-5 21-8 8-4 13 17 15 20 18 24 21 27 25 30 28 34 31 37 35 40 7-5-26-47-24-42-22-37-20-33-16-30-15-25-11-21-8-17-6-13 10-18 7-22 4-25 1-26-12-22zM141 245l-4 6-6 7-8 7-9 8-12 7-13 8-14 8-16 8-18 6 1 9 19-2 19-1 18-2 16-2 15-3 15-4 13-4 12-5 11-6 11-8 8-23-11-22-24-7-22 10-1 5zm68 145-5 7-6 7-7 7-10 7-10 8-13 7-13 8-15 9-17 5 2 10 18-3 18-1 16-1 15-3 15-3 14-3 13-4 12-5 12-6 10-7 9-23-10-23-23-8-23 9-2 6zM66 574 46 588l-3 24 15 20 10 5 9 5 9 8 9 11 8 12 8 15 6 16 6 20 6 21 2 24h10l2-24 2-12H480v70H157v22H791l44 48 53-48V803H544V733H904l3 3 2 3 1-1 27 22 59-48-27-16-24-10-8-9-10-9-10-8-10-9-21-16-12-7-9-9-7 7 7 10 5 12 5 12 6 11 5 12 5 12 5 11 2 6H544V512l-64-32V712H147V699l-1-21-4-20-5-19-8-18-11-16-12-15-15-13-25-3zm758 25 54-48V529H598v22H780l44 48zm-452 0 54-48V529H146v22H328l44 48zm0 87 54-48V616H173v22H328l44 48zm414 0 54-48V616H598v22H742l44 48z"/><glyph glyph-name="undefined" unicode="䪍" horiz-adv-x="1024" vert-adv-y="918" d="M640 837l56-49-26-19V546l-60-29v40H486V-48L432-75V837l54-27H610l30 27zM835-25v15h54 5l3 1 4 1 2 3 1 2 1 4 1 6V557H784V541l-47-24h1l-14-9V455h72l33 37 43-37V433H724V376h63l27 27 54-48-27-16V184l-54-26v26H724V165h2l16-7 15-7 15-10 14-9 14-11 13-11 12-12 13-13 11-13 4-24-14-20-24-4-20 14-7 13-7 14-7 12-8 13-9 13-9 13-10 12-10 12-4 5V-34L671-61V98L652 73 633 51 613 30 592 11 569-6 545-20 521-31l-6 8L533-4l17 20 16 19 16 21 15 22 14 24 13 24 13 26 11 26 2 6H606V147l-54-27V403l54-27h65v57H531v22H671v83l53-11h1V839l59-29H906l30 27 56-49-27-19V14 1l-2-12-4-13-5-11-8-11-9-8-11-7-12-5-13-2-12-1v29L835-25zM275 863l64-10 17-11-17-10V734h7l24 33 32-33V713H339V573l-64-32v54H256V474h71l26 27 54-49-27-16V259l-53-27v49H256V170h32l54 54 65-54V148H256V-42L202-69V148H48v22H202V281H139V243L80 213V503l59-29h63V595H179V557l-64-32V713H56v21h59V863l64-10 16-11-16-10V734h96V863zM626 241l-1 8-2 16-2 9-2 9-3 9-3 10-3 10-4 6V206h65v11l-4-3-24 2-17 18v7zm161 43-1-2-8-11-8-10-9-10-9-10-9-9-11-9-8-10v-7h63v78zm0 71H724V240l1 2 4 13 3 13 3 12 3 12 6 24 2 11 2 6-2 1 5 12 36-20v29zm-116 0H606V323l4 4 8-8 10-5 9-6 8-7 8-7 15-15 3-2v78zM202 452H139V302h63V452zm125 0H256V302h71V452zM906 675H784V578H906v97zm-296 0H486V578H610v97zM275 713H179V616h96v97zm631 75H784V697H906v91zm-296 0H486V697H610v91z"/><glyph glyph-name="undefined" unicode="䰐" horiz-adv-x="1024" vert-adv-y="918" d="M50-52v21H189V152l65-33H770l32 27 59-48-26-22V-31h21l54 54 64-54V-52H50zM383 98H254V-31H383V98zm194 0H447V-31H577V98zm193 0H641V-31H770V98zM471 503l-6 11-7 11-8 10-10 11-6 7-31-11-43-12-40-12-39-11-37-9-34-8-32-7-29-6-28-6-3-1-6-12 54-27H423l44 49 54-49V410H343V356h85l32 27 60-49-27-21V249l-65-32v32H343V188H458l33 38 43-38V167H166V102L101 70V460l-5 7-18 63 11 1 25 1 27 2 24 2 3 8 7 14 6 13 5 13 5 13 4 11 1 4H39v21H146V868l65-33H463l44 49 53-49V814H211V767H452l33 37 43-37V745H211V702H452l33 38 43-38V681h-4l53-48V612H263l-2-3-7-10-8-8-8-9-9-10-20-20-11-10-4-4 8 1 34 5 37 4 40 5 41 4 45 6 23 2-2 3-12 10-13 12-15 9 4 9 17-6 17-4 17-6 15-7 15-7 14-8 14-9 13-9 11-11 12-11 5-24-13-21-24-5-21 13-5 10zM278 249H166V188H278v61zm605 28 54-48V208H550v21H839l44 48zM633 460l57-31 12-16-21-3-2-3-12-22-14-20-4-5H835l53 54 65-54V339H631l-10-11-18-17-18-15-21-14-22-13-22-11-6 8 17 17 16 19 14 17 14 18 12 18 11 19 10 18 8 20 8 20 5 15h-1l5 13zM166 334V270H428v64H166zm112 76H166V356H278v54zM946 651l18-27 22-24 1-19-20 8-13-7-31-14-34-14-37-12-40-11-43-11-46-10-49-8-52-7-56-6-1 9 53 16 50 16 46 14 44 15 40 15 37 15 33 15 29 16 27 15 18 13 4 3zM898 763l16-25 24-26 1-18-20 8-11-6-27-13-29-13-31-11-33-12-36-11-37-10-40-10-42-8-45-7-2 9 41 17 39 17 37 16 35 15 33 15 30 14 28 15 25 15 24 14 16 12 4 3zM522 681H211V633H479l43 48zM866 879l21-32 18-20 1-18-20 8-7-4-25-13-26-12-28-12-31-12-33-12-35-12-37-12-39-10-41-9-4 9 38 19 36 18 34 18 32 16 30 16 28 16 25 15 23 14 21 15 14 11 5 3z"/><glyph glyph-name="undefined" unicode="𠃶" horiz-adv-x="1024" vert-adv-y="918" d="M425 28 402 55 376 82l-24 23-34-37-45-39L223-5 169-33 110-55 47-71l-3 9 58 26L156-8l47 32 44 36 39 40 29 38-30 24-36 27-37 27-40 27-41 28 5 9 46-19 45-21 41-21 40-23 31-20 10 15 25 53 21 56 11 42H139v21H410l33 27 29-24 2 14 4 17 4 17 3 17 3 15 3 14 2 14 1 3H121l1-14 1-26-1-24-1-21-3-20-4-18-6-16-8-16-22-11-24 7-11 22 7 23 6 5 5 8 7 12 6 14 6 18 5 21 5 24 5 26 5 29 3 33h10l3-33 3-21H384l7 24 7 28 8 26 7 25 7 24 7 23 6 23 6 22 5 20 3 15 4 13 59-28 12-15-20-5-9-20-10-21-10-21-12-22-11-23-13-24-14-23-15-24-11-17h98l33 27 59-49-27-16-14-6-7-12-8-13-8-14-8-14-10-15-10-16-10-15 17-14-27-16-9-4-14-42-25-61-32-55-13-18 30-24 30-26 28-27 26-28 7-23L491-4l-24-6L446 1 425 28zm503 7 32 135h11L960 35l19-12L992 3 979-16 960-29H698l-14 1-13 2-13 4-12 7-11 9-9 11-6 12-5 13-2 14-1 13V858l65-11 16-10-16-10V57 51l1-5 1-4 1-1V40l1-1 2-1 4-1 5-1 6-1H928zM149 575l-2 16-2 16-5 32-3 15-5 14-4 15-4 15-7 13 7 6 12-11 12-11 10-13 10-14 10-14 8-16 8-17 7-17 7-18 5-19-6-23-21-13-24 6-13 20v18zm132 12-3 34-3 17-2 16-3 15-3 16-3 14-4 15-6 13 8 6 10-12 12-11 10-13 9-14 9-15 8-16 7-18 7-17 6-19 5-20-6-24-21-13-24 7-13 20v19zM476 855l3-9 48-42 2-16-22 9-9-3-35-10-36-9-39-8-41-8-42-7-44-6-47-5-48-3-51-3H63l-1 10 51 11 49 10 47 10 45 11 42 10 41 10 38 12 36 11 34 12 31 13z"/><glyph glyph-name="undefined" unicode="𠓭" horiz-adv-x="1024" vert-adv-y="918" d="M891 61 861 92l-27 32-24 34-22 34-19 35-16 37-13 39V-39L675-72V276l-16-27-27-38-29-36-31-34-33-32-35-28-38-27-39-22-6 8 33 30 31 32 29 32 28 34 25 35 24 36 22 38 20 40 18 41 8 20H522v21H675V548l65-11 16-11-16-9V399h97l54 54 65-54V378H740v-4l12-25 18-35 18-33 20-31 22-31 23-28 26-28 27-26 30-25 31-24 15-12-59-44-32 29zM430 194l-13 13-14 13-13 12-15 13-15 11-16 12-16 12-6 4V-39L258-72V238l-20-32-25-34-26-32-28-29-29-28L99 58 66 35l-6 8L85 73l24 30 23 30 22 32 21 33 20 34 18 36 17 36 15 39 12 31H78v22H258V544l64-11 16-10-16-10V396h56l54 53 64-53V374H322V305l16-3 20-6 20-7 19-8 19-10 18-9 18-11 17-11 17-13 10-22-9-23-22-10-23 9-12 13zM874 492l-46 27-45 29-43 32-41 33-39 36-36 38-34 40-30 43-8 13-16-8v7l-18-23-40-43-43-41-46-40-50-38-53-35-56-34-60-31-63-29-67-27-4 9 62 35 58 36 55 37 52 38 48 38 46 39 41 40 38 42 34 42 10 15H299v21H509l27 23 59-49-26-15 8-8 37-36 38-34 38-31 40-30 42-28 42-26 45-24 45-22 48-20 33-14-62-51-49 24z"/><glyph glyph-name="undefined" unicode="𠦨" horiz-adv-x="1024" vert-adv-y="918" d="M872 317l-11-7-10-7-12-5-11-5-12-4-12-3-12-2-13-2H766v32L659 330v16H766l8 1 16 2 8 2 7 2 14 7 7 4 6 5 7 5 6 7 8 14 7 21 8 26 6 34 5 38 4 45 3 51 2 55 1 51H797l-9-52-16-57-20-52-24-50-29-45-34-43-37-38-42-35-46-30-35-18 45-8 16-11-16-9V197H871l54 54 64-54V175H550V-60L485-92V175H45v22H485v98 1 1 2h2l41 32 39 35 35 37 31 40 27 41 23 44 19 47 15 49 11 52 4 40H649l-11-27-16-29-18-28-19-25-22-22-23-18-26-15-6 7 17 23 17 22 14 24 14 25 11 27 10 28 9 30 7 32 6 34 4 36 1 10 63-19 14-13-19-8-3-18-10-36-6-19H889l32 27 59-48-27-17V664l-2-58-4-52-4-47-5-41-7-38-9-32-11-27-12-24-18-20-9-8zM267 601l65-11 16-10-16-10V424l-2-20h96V541l64-11 17-11-17-9V383l-64-32v32H326l-6-22-12-27-16-25-20-21-23-18-27-14-29-11-33-7-35-4-1 10 31 12 27 15 23 15 19 16 15 17 12 18 8 19 6 21v6H171V345l-65-32V543l65-11 16-11-16-9V404h96V601zM249 871l48-42 7-18-21 2-2-1-13-13H447l2 1 3 5 2-1 26 22 59-49-27-16-19-8-13-16-30-32-35-28-37-25-41-21-45-18-47-14-51-10-55-7-57-2-1 9 55 13 51 15 47 16 43 18 39 20 35 23 31 25 27 27 23 29 2 2H243l-16-12-21-14-21-13-22-12-24-10-24-10-26-8-4 9 21 16 19 16 19 15 18 16 17 16 15 16 15 16 13 16 13 17 8 13 6 7z"/><glyph glyph-name="undefined" unicode="𠧎" horiz-adv-x="1024" vert-adv-y="918" d="M485 251l65-11 16-11-16-10V166H871l54 54 64-54V145H550V-48L485-81V145H45v21H485v85zM291 276v10l-2 10-1 3-3-2-25-10-25-9-25-9-25-8-26-8-25-7-26-8-30-8-8-20-14 14-24 61 11 2 46 7 2 3 19 32 20 31 19 30 18 27-3-4-25-1-19 15-1 7-2 7-4 8-5 10-7 9-8 10-9 12-11 11-12 12-15 11 5 9 17-9 17-6 15-6 4-2 6 10 10 20 9 20 9 17 8 18 8 16 8 16 6 15 6 14 3 9 1 3 1 2h1l2 6 54-36 9-17-22-1-6-9-11-13-12-14-13-15-13-15-14-14-16-16-16-15-6-7 11-6 12-7 11-8 10-8 10-9 8-9 1-20 6 10 17 27 16 26 16 25 11 21 6 8 51-40 8-17H290l-5-6-19-24-20-25-20-25-22-26-22-26-24-26-24-28-14-13h2l26 4 26 3 27 4 27 3 26 3 26 2h3l-1 2-5 12-6 12-7 13-8 13-11 13 6 7 14-11 14-8 13-9 12-10 11-11 10-10 9-12 8-13 7-13 5-13-5-24-20-14-25 6-13 20v9zm630-4-3 14-2 11-25-9-25-10-26-8-52-15-51-14-26-7-4-1-9-19-13 14-22 62 11 2 26 3 27 3 9 1 2 4 16 28 17 28 17 30 18 30 2 5-23-4-20 14-5 12-5 11-13 23-8 11-9 12-9 11-10 12-11 13-13 10 5 8 16-7 15-6 15-7 13-7 5 13 7 17 8 16 7 16 7 17 7 16 13 32 5 12h-1l5 11 55-35 10-17-22-2-9-12-11-15-24-29-12-14-13-14-13-12-9-9 1-1 13-9 12-10 12-10 11-11 10-12 3-19v1l17 33 18 33 18 35 17 36 3 5 54-36 9-16-19-1-11-18-21-33-21-33-21-31-22-30-22-28-22-27-22-26-12-11 39 5 26 3 27 3 27 3 25 1-3 14-6 15-5 16-7 16-6 18-9 16 8 6 13-14 13-13 13-14 11-14 11-14 10-14 9-15 9-14 7-15 7-15-3-24-19-16-25 3-15 19-2 14zM388 673l64-32H566l32 27 59-49-27-21V506l-64-32v32H539l-3-4-5-7-10-15-6-9-6-7-6-8-7-9-5-5h94l32 27 60-49-27-21V269l-65-32v54H433V253l-65-32V474l65-32h45v1l1 11v10 11 31H452l-64-32V673zM585 420H433V312H585V420zM566 619H452V527H566v92zM847 879l1-6 62-52 3-16-25 14-34-4-62-5-63-5-64-5-65-4-67-3-67-3-69-2-69-1-70 1h-9l2-1 8-18H237l-1-1-15-17-18-17-18-15-20-14-22-14-23-13-24-11-25-10-28-9-4 9 22 17 21 16 20 16 18 17 16 16 15 16 14 16 12 17 10 16 7 12h-1l6 9 28-21 30 4 69 8 69 8 68 7 66 8 66 7 65 8 63 8 63 8 56 8 5 1zm37-198-9 10-12 11-13 11-16 13-18 12-19 13-22 13-23 15-25 14 3 9 29-7 27-7 24-8 23-9 22-8 20-9 18-9 17-10 15-9 13-11 8-23-9-23-23-8-23 10-7 10zM507 693l-3 7-4 8-6 9-7 9-9 9-11 11-12 10-13 11-16 9 4 9 17-6 18-4 16-5 15-6 14-6 13-6 13-8 10-9 11-9 8-10 2-25-16-18-24-2-19 16-1 6z"/><glyph glyph-name="undefined" unicode="𠧏" horiz-adv-x="1024" vert-adv-y="918" d="M488 213l64-11 16-11-16-9V140H897l44 49 54-49V119H552V-44L488-76V119H45v21H488v73zm109 13v8l-1 11-2 12-1 2-18-8-23-10-46-17-24-8-47-15-26-8-8-20-14 14-24 60 11 2 24 4 25 3 8 2 11 18 17 33 18 31 17 30 17 29 5 9-13-11-25 2-16 19v7l-2 8-3 9-5 11-7 10-8 11-10 12-12 12-13 14-16 11 5 8 18-8 18-7 15-7 3 7 9 19 9 18 9 18 7 16 8 16 7 15 6 14 6 13 2 7 2 4 4 5 16-11-16 16-2 8-3 8-3 10-5 10-7 10-8 11-9 11-11 11-13 12-14 11 5 8 16-7 17-6 16-7 14-7 14-8 13-8 11-10 11-10 9-11 8-12V666l-17-18H531l35-25 8-17H551l-4-5-10-12-12-12-11-13-13-13-13-15-15-15-15-14-4-4 5-2 14-9 13-9 11-10 11-11 8-11 8-13-2-19 5 9 15 29 15 28 13 28 11 22 5 11 54-36 9-17-20-1-5-9-17-27-19-26-18-28-21-27-21-28-22-28-23-27-25-28-4-3 17 2 24 4 25 3 48 7 19 2-2 6-6 16-7 17-7 19-11 19 7 5 15-16 14-14 14-15 11-13 11-14 9-13 8-13 7-12 6-12 4-13-7-23-22-13-23 8-12 21 1 7zM108 428l65-32H285l32 27 59-49-27-21V211l-64-32v43H173V206l-65-32V428zm566 0 65-32H851l32 27 59-49-27-21V211l-64-32v43H739V206l-65-32V428zm177-54H739V244H851V374zm-566 0H173V244H285V374zM723 796l27-9 25-10 24-9 22-11 21-10 18-11 18-11 15-12 15-12 13-12 5-25-12-20-19-5 38-32-27-21V474l-64-32v32H748l-65-32V661l65-32h94l26 22-6 10-8 12-11 12-12 13-14 14-16 14-18 14-20 15-21 16-23 16 4 9zm107 85 1-6 61-50 2-16-25 12-30-4-58-6-59-7-60-5-61-5-62-4-62-3-64-3-64-2H283h-1l8-14-21-2-2-3-15-20-16-19-18-19-19-17-20-17-22-15-13-8 38-19h93l33 27 59-49-27-21V474l-65-32v32H182l-65-32V634l-7-3-26-12-5 8 21 19 18 18 18 19 16 17 15 19 14 18 12 19 11 19 10 19 6 15 1 1 1 3 3 6 34-21 22 4 65 9 64 8 63 8 62 8 61 9 60 9 59 9 58 9 57 10zm12-274H748V496h94V607zm-567 0H182V496h93V607z"/><glyph glyph-name="undefined" unicode="𠮗" horiz-adv-x="1024" vert-adv-y="918" d="M904 405v8l-1 7-2 9-2 6-9-3-22-8-23-6-3-1V232l-28-14 58-48-27-16-47-19-30-18-66-35-70-31-28-10 45-9 82-13 90-9 97-8 58-5-64-66-99 11-92 15-84 17L561-6 511 10 481 1 4e2-19 315-35 227-48l-92-8-96-3-1 10 94 14 90 16L308-1l82 21 53 17-11 4-53 29-44 32-35 35-23 33H120v22H770l24 16 2-3 15 12-34-17V402h-2l-24-5-48-9h-2l-5-8 56-18 14-13-22-10-2-6-7-14-8-13-9-14-9-12-10-13-12-12-12-11-11-13-8 6 8 15 6 15 4 15 5 14 3 13 3 14 2 12 1 13v12 6h-1l1 5-10 13-16 64h11l24 1h25 18l1 2 19 21 18 21 2 2-18-5-22 11-3 8-4 7-5 8-6 7-7 8-7 8-19 16-10 10-13 5 4 10 13-5 14-1 14-3 13-3 5-2 4 5 11 13 9 12 9 12 8 10 8 11 6 9 6 9 5 9 1 3-1 1 3 3 1 1 2 2 46-44 5-19-26 4-8-5-10-6-12-7-12-7-13-7-14-7-15-6 6-3 11-5 11-6 10-6 10-8 7-23-7-13 6 6 17 19 17 17 15 18 14 16 14 15 9 11 5 5 43-47 4-19-20 5-15-12-18-14-18-14-20-14-21-15-21-16-23-15-3-2 19 1h23 24 23l24-1h4l-4 7-7 10-8 11-10 9 5 8 12-7 13-5 13-6 11-7 11-7 10-9 8-9 8-10 7-11 6-12-4-23-20-15-25 5-14 20v6zM739 170H294l21-17 38-26 45-23 51-21 59-19 8-2 25 9 69 30 66 32 61 36 2 1zM602 412l-2 8-1 4-3-1-23-8-24-7-4-1V232l-64-32V393l-32-6-26-5-16-3 59-21 13-13-22-9-4-8-8-14-9-14-11-13-10-13-13-12-13-11-15-11-14-12-7 7 11 14 8 15 7 16 7 14 5 14 4 12 3 13 3 13 1 12v6l2 14-7-1h-4l-10-18-12 15-15 63 10 1 26 1h26 19l17 21 37 39 18 20 34 39 17 19 16 19 12 15v1l5 6 46-46 4-19-20 4-3-3-19-17-20-17-21-17-21-17-21-17-22-16-19-13 17 1h25l49 1h23l-2 4-5 8-6 9-7 10-8 9-10 8 5 8 12-6 12-3 12-5 12-5 10-6 11-7 10-7 9-9 8-9 8-10 1-25-17-18H621l-18 16-1 8zm-310 1-1 8-1 3-24-8-23-7-2-1V232l-65-32V344l-20-8-3-8-8-14-9-13-9-14-11-12-12-13-13-11-14-11-14-12-7 7 10 14 8 15 7 15 5 14 5 14 4 13 3 13 2 13 1 12v6h-1l3 15-4-1H96L86 359 74 374 58 437l10 1H93l25 1h18l16 20 18 21 16 19 17 20 17 19 16 19 43 54 3 3 1 2 2 1 46-45 5-19-21 4-2-3-19-17-20-17-19-17-41-33-21-16-19-14 17 1h24l23 1h45l-2 4-4 9-6 8-6 10-8 9-9 8 4 8 12-6 12-3 12-5 11-6 10-5 10-7 10-8 8-9 8-9 8-10-1-25-17-17H310l-17 17-1 8zM895 287l1 7-1 9-1 8-2 9-4 10-3 10-5 10-6 11-9 9 6 7 11-7 12-6 10-7 11-8 9-8 8-9 8-9 7-11 6-11 5-12-6-24-21-13-23 6-14 21 1 8zm-296 7-2 8-2 9-3 9-4 9-4 9-5 10-7 10-6 10-10 7 5 8 11-6 13-4 11-5 11-7 11-7 10-7 9-9 8-10 8-10 7-11-1-24-17-17-25 1-17 18-1 9zm-310 1-1 8-1 9-3 8-3 10-4 9-5 9-6 10-7 10-9 7 6 8 10-6 12-4 11-6 11-6 10-7 10-8 9-9 8-9 8-11 6-11-1-24-19-16-24 2-17 18-1 9zM176 392l-4-1-24-4-25-5-18-3 60-20 11-11v44zM428 505l-2 7-4 7-5 8-6 7-8 9-8 8-10 9-12 9-13 7 3 9 15-4 15-3 14-3 14-4 9-3h1l8 13 7 13 17 23 7 12 8 11 7 12 7 11 4 7h-1l4 4v1l2 2 46-45 6-19-24 4-15-11-12-9-23-16-13-8-13-7-8-5 11-6 10-6 10-8 9-9 3-25-14-19-25-4-19 15-2 6zm-3e2.0-3 7-3 7-5 8-6 8-7 8-8 9-10 8-11 9-12 7 3 9 14-5 15-2 13-3 13-4 9-3 8 13 7 12 21 35 7 12 13 22 4 7h-1l5 7 49-43 6-19-24 4-3-3-22-17-11-8-12-9-12-7-21-13 12-6 10-7 9-7 10-9 3-25-15-19-24-4-20 15-1 6zM830 870l1-6 61-51 3-16-25 13-31-4-58-6-59-5-60-5-61-5-62-3-62-4-64-2-64-1H283h-3l8-16-21-1-1-1-15-19-16-18-18-16-19-16-20-14-21-14-23-12-25-11-25-10-5 8 21 17 19 18 18 17 16 16 15 17 14 17 12 17 11 18 10 17 5 13 5 10 31-20 25 3 65 9 64 8 63 7 62 8 61 8 60 8 59 9 58 9 57 9zm33-207-9 11-10 12-12 12-15 12-16 14-18 13-19 14-21 15-24 15 4 9 27-9 25-8 24-9 21-8 20-10 19-9 17-10 16-11 14-11 13-11 7-24-12-21-24-7-21 11-6 10zM513 676l-3 7-4 9-5 9-6 10-9 10-9 10-11 11-12 11-15 10 4 8 17-7 17-4 15-6 15-6 13-7 12-8 12-8 10-9 10-10 8-11 1-25-17-17-25-1-18 17v7z"/><glyph glyph-name="undefined" unicode="𠵂" horiz-adv-x="1024" vert-adv-y="918" d="M205 311l65-32H754l32 27 59-48-27-22V-25L754-58V-4H270V-41L205-74V311zm549-53H270V18H754V258zM436 488l-8 16-9 16-10 15-12 15-12 14-14 15-15 14-11 9V346l-64-32V582l-15-26-24-37-26-35-29-32-30-29-33-27-35-23-37-21-6 8 31 29 27 29 27 29 25 32 23 33 21 34 19 36 18 38 15 40 7 21H71v21H281V864l64-10 16-11-16-10V702h43l54 54 65-54V681H345V622l2-1 21-7 21-10 19-10 18-13 17-13 16-15 15-16 14-17 13-18 1-25-15-19-24-2-20 15-7 17zm457-97-26 26-25 27-22 30-21 31-20 32-17 34-16 36-3 10V346l-64-32V582l-15-26-24-37-26-35-29-32-31-29-32-27-35-23-37-21-6 8 30 29 28 29 27 29 25 32 23 33 21 34 19 36 18 38 15 40 7 21H517v21H679V864l64-10 16-11-16-10V702h92l53 54 65-54V681H743v-9l11-18 21-32 20-31 22-29 22-28 23-25 24-24 24-23 26-20 27-18 17-13-59-45-28 25z"/><glyph glyph-name="undefined" unicode="𡄹" horiz-adv-x="1024" vert-adv-y="918" d="M744 383l65-32h95l32 26 59-48-27-21V-26L904-59V-5H809V-42L744-75V383zM56 383l65-32h95l32 26 59-48-27-21V-26L216-59V-5H121V-42L56-75V383zM604 13 582 30 558 46l-7 4-20-17L494 6 453-17 410-39 363-57 311-72l-3 9 46 25 42 25 39 26 35 26 31 28 8 8-3 2-29 15-31 15-32 14-34 16-36 15 2 9 39-5 38-7 35-9 34-10 32-11 17-7 11 15 20 31 16 33 5 12H325v21H599l32 27 59-48-26-16-12-5-9-19-22-36-27-34-3-3 22-12 26-15 25-16 11-22-5-23-23-12-23 6-20 17zM904 329H809V17h95V329zm-688 0H121V17h95V329zm436-40-3 14-2 6-11-3-35-7-35-6-69-11-33-5-34-4-33-4-44-6-10-18-12 15-15 64 11 1h33l33 1 29 1 7 7 27 32 26 29 24 26 21 25 19 22 17 20 15 18 12 15 7 9-1 1 3 3 1 1 2 2 47-45 4-19-21 4-12-11-18-16-21-17-22-20-25-21-28-23-30-24-23-18h7l69 1h34 35l35-1 9-1-1 4-5 13-7 13-7 14-9 14-10 15-11 12 5 8 16-10 16-9 14-10 14-12 13-12 11-13 10-14 10-15 8-15 7-17-4-24-19-15-25 3-15 20-1 13zM431 415l-4 8-6 9-7 10-10 12-11 12-13 12-15 13-15 14-19 13 5 9 21-9 20-8 19-8 8-4 12 18 14 18 13 17 13 15 11 15 10 14 10 12 8 12 4 7 5 6 7-7-10 16 1 8v8 9 10l-1 10-1 11-3 11-2 12-2 12-6 12 9 5 7-11 10-9 8-9 8-10 8-10 7-9 6-10 10-19 5-10-6-25-21-13-22 6 34-33 4-19-22 4-5-4-13-10-14-11-15-11-16-12-17-13-19-13-12-8 8-4 14-8 14-9 11-8 11-10 9-10 4-24-15-20-24-3-20 14-2 7zM56 841l65-32h95l32 26 59-48-27-21V446l-64-33v43H121V440L56 408V841zm688 0 65-32h95l32 26 59-48-27-21V446l-64-33v43H809V440l-65-32V841zm160-54H809V478h95V787zm-688 0H121V478h95V787zm429 82 5-11 44-39 1-17-21 9-3-2-27-9-28-9-28-7-29-8-29-6-29-5-30-5-30-3-20-7-1-8-9-26-8-25-9-25-9-24-11-22-12-22-12-20-14-19-15-17-8 5 6 21 6 22 6 21 6 23 5 22 5 24 5 24 4 25 3 26 4 26 2 10 45-15 25 9 56 19 27 10 27 10 51 22 25 11 20 9 4 3zm10-259-3 15-3 16-4 16-5 17-5 16-13 35-7 18-9 18 8 6 13-15 15-15 12-14 12-16 11-15 10-16 9-16 9-16 8-17 7-16-4-24-20-16-24 4-15 20-2 15z"/><glyph glyph-name="undefined" unicode="𡅞" horiz-adv-x="1024" vert-adv-y="918" d="M314-43v21h92V276l65-32H827l32 27 59-48-26-22V-22h16l33 38 43-38V-43H314zM546 223H471V-22h75V223zm141 0H611V-22h76V223zm140 0H751V-22h76V223zM48 745l65-32h89l29 27 57-49-27-18V186l-59-30v62H113V154L48 121V745zm154-54H113V240h89V691zM367 334V269l-49-24V830l49-24H502l44 48 54-48V784H489V667h41l30 27 56-49-27-19V486l-59-30v30H489V355h23l44 49 53-49V334H367zm337 12V330l-48-25V548l48-24H885l26 27 54-48-27-16V335l-53-27v38H704zM430 486H367V355h63V486zm305 17H704V367h31V503zm78 0H778V367h35V503zm72 0H856V367h29V503zM679 868l61-22 14-13-18-7-5-23-11-42-7-26H867l54 54 64-54V713H707l-11-33-13-39-13-37-16-36-16-35-17-32-19-32-9 4 9 35 9 36 10 36 10 36 8 38 9 38 8 40 8 41 7 41 5 38 3 16zM367 645V507H530V645H367zm509 28 54-49V603H701v21H832l44 49zM430 784H367V667h63V784z"/><glyph glyph-name="undefined" unicode="𡓔" horiz-adv-x="1024" vert-adv-y="918" d="M394 783l65-33H648V874l65-11 16-10-16-10V750H866l54 54 64-54V729H459V390l-3-63-6-59-8-57-12-53-15-49-17-46-20-42-24-39-26-33-30-29-7 6 20 35L329-3l17 38 14 42 12 44 9 48 7 50 5 54 2 57-1 60V783zM901-29 879-16 858-2 837 13 817 30 799 47 782 66 766 86l-11 16V-34L690-67V78l-1-1-24-18-27-18-29-15-31-15L545-3 509-15 472-25l-40-8-3 9L465-6l34 18 31 18 29 17 27 18 24 18 21 18 20 19 6 7H462v21H690v53l-20-2-40-2-42-1H545l-44 2-1 9 44 9 41 8 40 8 39 8 38 7 35 8 35 9 32 9 32 9 24 8h1v14H589V288l-59-29V576l59-30H861l29 27 57-48-27-19V304l-49-24 49-41 2-16-23 11-17-5-32-6-33-7-35-5-27-3V148H858l54 54 64-54V127H759l7-6 21-13 20-14 19-13 20-12 20-10 21-10 21-9 21-7 21-7 37-14-62-52-24 11zM34 123l10 4 26 8 26 9 28 10 30 12 18 6V552H51v21H172V847l64-10 16-11-16-10V573h12l54 54 64-54V552H236V198l17 7 36 15 39 14 40 15 5-8-36-24-34-23-34-21-33-19-31-17-30-17-29-15-28-14L92 78l-4-2-5-21L67 67 34 123zM861 525H589V326H861V525zM627 506l59-30h78l29 27 57-48-27-19V380l-59-30v30H686l-59-30V506zm137-51H686V401h78v54zM473 595v21H695v97l64-11 16-11-16-9V616H879l44 48 53-48V595H473z"/><glyph glyph-name="undefined" unicode="𡡗" horiz-adv-x="1024" vert-adv-y="918" d="M327 101l-18 25-18 24-21 24-5 5-36-64-42-58L141 8 90-33 35-65l-6 8L77-17l43 45 39 50 35 57 30 63 5 14-6 5-25 21-27 20-29 20-13 9-6-21-17-62-62 18 17 61 16 62 16 61 15 63 14 63 13 63 2 10H32v22H142l6 32 12 64 11 65 11 65 2 10 62-21 14-12-17-8-8-45-12-66-12-64-4-20H313l32 27 59-49-27-16-4-1-9-76-18-94-22-86-27-80-12-28 18-14 26-23 24-24 23-26 21-27 4-25-14-20-24-4-20 14-16 26zM795-9V8h93l5 1 3 1 1 1h2l1 1 1 5 1 5 1 7V260l-11-13-25-2-19 15-5 15-7 14-7 14-2 4-12-4-34-10-65-16-65-13-31-5-31-5-30-5-8-1-11-18-11 15-15 64 10 1h29l31 1 27 1 14 47 5 15 4 16 4 17 5 16 2 12H503V-30L438-62V489l65-32H721l-18 13-3 10-6 9-7 10-8 11-11 11-12 11-14 12-15 11-18 12-19 10 3 10 22-6 21-5 20-6 18-7 18-8 16-8 14-10 3-2 6 4 19 15 17 14 18 13 17 13 16 11 6 5H485v22H852l9 7 13 9 2-2 16 13 59-49-27-16-65-27v4l-17-7-19-8-20-8-20-8-22-8-22-7-1-1 10-8 11-13 2-25-14-19-16-2H903l32 27 59-49-27-21V29l-1-14-2-13-4-13-7-13-9-10-11-9-12-6-13-5-13-2-14-1v32L795-9zm26 34-21 13-23 13-25 13-9 4-23-14-37-16-40-13-43-11-46-6-48-4-2 9 46 14 42 15 39 16 35 17 25 16-28 11-34 13-36 13-37 14 2 10 40-4 38-6 37-6 34-8 25-7 17 16 20 23 18 25v1H543v22H797l3 2 1 2 1-1 27 23 59-48-27-16-16-7-8-12-24-29-21-19 7-3 27-10 25-12 23-12 14-20-4-24L864 8l-24 4-19 13zM311 605H203l-5-23-13-64-14-64-15-63-17-63-6-26 18-6 34-13 32-15 27-16 6 17 22 77 18 84 13 91 8 84zM903 435H711l-8-16-8-16-9-16-9-16-10-14-10-15-11-14-11-12-2-3 12 1 33 2 32 2 33 2 34 1 34 2h6l-4 6-9 13-10 13-11 13-11 13-13 11 5 8 16-8 17-6 16-9 15-9 15-10 14-12 13-13 12-13 12-15 9-12V435zM703 683l-1 9-2 10-3 10-4 11-5 11-6 12-7 12-8 13-4 4-19-1-37-1H570h-7l-6-11-10-18-11-19-12-19-14-18-15-19-17-20-18-19-20-19-20-20-8 7 15 24 12 24 12 22 12 22 10 21 8 19 8 19 7 18 5 17 4 16 10 31 40-41 13 3 35 9 36 7 35 8 35 8 67 16 33 9 33 9 28 8 5 1 2-7 54-45 2-17-23 11-20-4-34-7-34-6-35-5-36-5-35-3-34-3 7-4 13-9 12-9 11-9 10-10 9-10 8-10 7-11 6-12-2-24-20-16-24 3-16 19v8zm213-19-2 9-5 9-5 11-7 11-8 12-9 12-11 13-12 14-15 13 5 8 18-10 17-7 16-9 15-9 13-9 12-9 12-10 10-10 9-12 8-11-1-25-17-17-24 1-18 17-1 8z"/><glyph glyph-name="undefined" unicode="𡤱" horiz-adv-x="1024" vert-adv-y="918" d="M271 104l-14 24-15 24-16 21-28-57-35-58L123 9 79-33 31-65l-6 8L65-18l35 45 32 50 29 57 26 63 5 16-5 5-21 21-22 20-24 19-6 5-4-15-14-62-62 14 14 62 13 62 13 61 13 63 12 63 11 63 2 11H28v22h88l5 31 10 64 19 130 1 11 63-20 14-12-17-8-7-46-9-65-10-65-4-20h79l32 27 59-49-27-16-3-1-8-75-15-94-19-86-23-80-11-30 16-14 23-23 20-24 19-27 18-27 2-24-15-19-25-3-18 15-14 27zM779-57l-14 1-13 2-13 5-12 7-11 8-9 11-7 12-4 13-2 14-1 13V133H614l24-9 14-13-20-8-4-14-18-31-23-28L559 5 526-16 488-33 446-48 399-60l-53-7-57-5-1 10 55 15 48 15 43 17L471 3l31 20 25 21 19 21 15 23 9 23 4 19v3H518V68L454 36V451l64-33H825l33 27 59-48-27-22V101L825 68v65H757V29l1-6 1-5V15l1-2 3-2 4-2 5-1h7H922l32 134h11L954 8 974-5l13-20-13-19-20-13H779zm46 282H518V154H825v71zm0 86H518V246H825v65zM259 605H178l-4-22-24-128-26-125-6-30 13-4 29-14 27-15 17-12 4 13 19 77 15 84 10 91 7 85zM825 397H518V332H825v65zM425 481V416l-53-27V844l53-27H536l44 49 53-49V796H535V720h32l29 27 57-49-27-18V587l-59-30v30H535V502h30l34 38 43-38V481H425zm305 8-49-25V641l-12-21-17-22-17-21-8 5 8 25 8 26 8 26 9 25 8 27 7 27 7 27 7 28 6 30 4 24 3 14 61-24 13-14-19-6-3-10-10-30-3-9H886l44 48 53-48V746H732l-10-25-12-26-13-26-14-25 47-24H889l27 27 54-49-27-16V478l-54-27v38H730zM476 587H425V502h51v85zm278 11H730V510h24v88zm71 0H797V510h28v88zm64 0H868V510h21v88zM425 698V609H567v89H425zm455 40 53-48V668H725v22H836l44 48zM476 796H425V720h51v76z"/><glyph glyph-name="undefined" unicode="𡭸" horiz-adv-x="1024" vert-adv-y="918" d="M698-37v16H806l6 1 5 1 5 1 2 2 1 5 1 5 1 7V365H197V-48L132-81V402l-93-5-1 9 108 17 1e2 18 92 21 84 22 75 26 67 27 58 30 50 32 42 35 33 36 2 3 47-45 6-18-21 3-27-25-50-36-57-32-63-29-73-25-79-21-87-18-94-14-89-9 35-17H827l32 26 59-48-26-21V1l-2-14-2-13-4-13-7-13-9-10-10-9-13-7-13-4-13-2-13-1v32L698-37zM320 243l64-32H639l33 27 59-49-27-21V32L639-1V53H384V16L320-17V243zm319-54H384V75H639V189zm64 153 54-48V272H267v22H659l44 48zM248 786l53-37 9-17-22-1-2-3-17-22-19-21-21-21-23-22-25-21-27-21-30-22-32-20-34-20-6 8 28 28 26 27 24 25 23 24 20 24 19 23 16 22 15 21 12 21 7 15 2 3v2l4 5zM351 592v16H458l7 1 5 1 4 1 3 2 1 5 1 5 1 7V876l64-10 16-11-16-10V630l-1-14-2-13-4-13-7-13-9-10-11-9-12-7-13-4-13-2-14-1v32L351 592zm539 34-12 17-14 17-17 17-19 18-21 17-24 18-24 18-28 19-28 20 4 9 33-11 32-11 30-14 27-14 26-14 24-16 21-17 20-16 18-18 16-19 5-24-13-20-24-5-21 13-11 16z"/><glyph glyph-name="undefined" unicode="𡮻" horiz-adv-x="1024" vert-adv-y="918" d="M873 398l59-28 12-15-19-5-18-46-29-62-33-57-36-52-40-48-44-43L678 5 627-28 572-55 514-76l-4 9 53 30L611-4l45 36 41 40 38 43 33 47 31 51 27 55 24 59 21 63 2 8zM38 4 49 5 98 9h1V310l59-30H460l30 27 56-48-26-19V37h7l59 1 1-10-58-11L473 6 417-3l-54-9-54-9-53-8-52-8-50-8-50-7-26-4L68-74 56-59 38 4zM222 259H158V14l41 3 23 1V259zm121 0H276V23l27 2 40 2V259zm117 0H396V31l17 1 47 2V259zm189 24v16h65 7l4 2 5 1 1 1 1 1 1 2 1 3 1 5V863l65-10 16-11-16-10V320l-1-13-3-13-4-13-6-13-9-10-11-9-12-7-13-4-13-3-14-1v33l-65 16zM110 360 56 333V843l54-27H213l44 48 54-48V795H216V682h27l32 27 60-49-27-21V538l3 14 7 28 7 29 6 31 7 31 6 33 5 34 4 36 5 37 3 32 2 17 62-19 15-13-18-8-4-18-8-38-8-37-10-34-1-4h76l44 49 54-49V668H384l-2-8-11-32-13-30-13-28-15-26-17-24-5 3V507l-65-32v32H216V381h26l33 38 43-38V360H110zM638 653l62-20 14-13-19-8-2-12-8-32-10-31-11-32-12-30-13-30-15-29-16-28-18-28-20-26-9 5 11 31 10 29 10 31 9 29 8 30 7 30 7 31 5 31 4 30 4 27h-1l3 15zM157 507H110V381h47V507zm759-41-7 22-7 21-8 21-9 21-10 19-21 41-12 21-13 20 7 7 20-15 18-16 18-18 16-18 15-19 14-20 13-21 11-22 12-23 9-23-2-24-19-16-24 2-16 19-5 21zM502 503l54-49V433H328v21H458l44 49zM110 660V528H243V660H110zm47 135H110V682h47V795z"/><glyph glyph-name="undefined" unicode="𡰟" horiz-adv-x="1024" vert-adv-y="918" d="M170 287l-3-51-6-49-7-45-10-41-12-39-13-35L103-3 85-30 64-52 42-69l-6 6L50-40 63-16 74 11 84 41l9 33 7 36 5 39 4 43 2 47v50V530l60-11 14-10-14-10V288l-1-1zM297-18H284l-12 2-12 3-11 5-10 8-8 9-7 11-4 12-3 12-1 13V541l54-11 14-11-14-9V57 50 44l1-4 1-3 1-3 2-2 3-2 5-3 6-1 8-1H931l9 19h-1l-11 3-11 6-10 7-8 9-7 11-4 12-3 12-2 13V284H852V259l-2-2h2l-6-32-7-30-9-28-12-27-14-23-16-22-18-19-20-16-22-14-23-11-4 7 18 17 16 17 14 19 12 19 11 20 8 22 7 24 6 25 3 27 2 29v23H763v21h35V452H760v22H883l27 27 54-49-27-16V110l1-6v-4l1-3 2-3 2-2 3-2 19 43h11L965 85l2-1 12-6 5-10 3-5-3-4-5-11-12-5-2-1h-1-7l-4-17 13-9 8-13-8-13-13-8H297zM568 420l2 6 1 6 1 7 1 6 1 14-1 8v8l-3 6 8 6 4-7 7-5 7-5 12-11 5-7 10-14 4-7 4-8-7-24-4-2h32l5 6 1 2v11l1 10 1 11 1 10 1 19 1 18v4h-1l4 13 59-28 12-15-27-6-1-3-6-8-1-1 48-43V376H668V296h14l25 32 32-32V275H668V197h17l33 38 43-38V176H668V65L604 32V176H511v21h93v78H534v21h70v80H523v21h54l-11 18 2 5zM450 231H392v-5l-3-27-3-26-4-24-5-21-7-19-5-12h67l5 1h3l3 1 1 1 1 1 1 1 1 3 1 4 1 6 1 6V231zm0 113H392V252h58v92zM883 452H852V327l8 11 23-24V452zm-433 0H392V365h58v87zM402 660l64-32H852l33 27 59-49-27-21V526l-65-32v32H466l-64-32V660zM109 862l64-17 15-12-18-9-2-10-6-31-8-32-9-31-11-31-12-30-14-31-16-31-18-29-21-29-8 5 11 33 10 32 9 31 9 31 7 31 5 30 5 30 4 30 2 29 1 24 1 17zM852 606H466V548H852v58zM281 634l-3 26-5 25-6 25-7 24-8 23-9 23-10 22-11 22-12 22 8 6 20-16 19-18 16-21 15-22 14-23 12-25 10-26 10-27 8-29 6-30-6-24-22-12-24 6-12 21-3 28zm161 45-13-1-12 1-11 3-12 4-10 7-10 9-7 11-6 12-3 13-2 14v74l65-32H620v80l64-11 16-10-16-10V794H874l44 48 54-48V773H421V752l-1-7-1-6v-7l1-2 1-4 2-2 5-3 6-3 8-1H926l12-8 7-11-7-11-12-8H442zm66-570-2-13-4-12-5-11-8-11-9-9-11-7-12-4-12-3-13-1V68L356 82l-3-5-10-12-11-10-11-8-5 7 7 9 4 12 4 13 3 14 2 16 2 17 1 20v22 24l-1 25V5e2l54-27h58l29 27 57-48-27-19V121l-1-12z"/><glyph glyph-name="undefined" unicode="𢅡" horiz-adv-x="1024" vert-adv-y="918" d="M362-36v21h84V285l65-32H840l33 27 59-49-27-21V-15h28l24 33 32-33V-36H362zM578 231H511V-15h67V231zm131 0H642V-15h67V231zm131 0H774V-15h66V231zM236 167v14h43 4l2 1h1l2 1 1 2 3 9v6l1 8V648H232V-48L179-75V648H122V147L63 118V699l59-29h57V869l53-11 14-11-14-9V670h61l27 27 53-49-27-16V208 195l-2-12-2-11-5-11-6-10-8-9-10-7-11-4-11-3-12-1v27l-43 13zM449 361V297l-49-24V828l49-24H584l44 49 54-49V783H571V674h38l33 27 59-48-27-22V483l-65-32v53H571V383h22l44 48 53-48V361H449zm63 143H449V383h63V504zm392-2 54-48V432H701v22H860l44 48zM745 847l62-20 14-13-18-8-4-17-9-37-9-35-10-34-1-2H871l44 49 54-49V660H762l-3-9-13-31-13-29-15-27-16-25-19-22-8 4 8 27 9 28 8 28 8 30 7 30 7 32 7 34 5 34 5 35 4 32h-1l3 16zM449 653V526H609V653H449zm63 130H449V674h63V783z"/><glyph glyph-name="undefined" unicode="𢆄" horiz-adv-x="1024" vert-adv-y="918" d="M383 692l59-30H579l30 27 56-48-27-19V439l-59-29v40H442V-44L383-73V692zM810-24V-8h64 7l5 1 3 1 1 1 2 1 1 1 1 2 1 3V7l1 6V450H761V434l-59-30v6l-5-3V369h86l33 38 43-38V348H697V305h70l29 27 57-49-27-19V142l-59-29v29H697V131l3-1 17-5 15-6 16-6 29-15 14-9 26-19 12-11 7-23-11-22-24-7-22 11-7 12-7 10-8 12-9 10-10 11-10 11-11 11-11 11-9 8V-33L644-60V75l-7-7-19-20-21-18-21-18L553-3 530-16 504-26l-25-8-4 8L495-9 514 8l18 17 17 18 17 18 15 20 14 20 14 22 11 19H572V126L513 97V334l59-29h72v43H490v21H644v68l53-11 5-4V692l59-30H896l32 27 59-48-27-22V13L959-1l-2-13-4-13-7-12-9-10-11-10-12-6-13-4-13-3-14-1v33L810-24zM218 167v14h43 3l3 1h1l2 1 1 2 1 4 1 5 1 6v8V648H215V-48L161-75V648H105V147L46 118V699l59-29h56V869l54-11 14-11-14-9V670h59l27 27 54-49-27-16V208 195l-2-12-3-11-5-11-5-10-9-9-9-7-11-4-12-3-11-1v27l-43 13zm378 21v6l-1 7-2 7-2 7-3 8-3 8-4 9-4 9-5 5V164h72v8l-5-5-25-1-18 17v5zm171 36-4-4-17-16-18-15-11-7-10-7-8-8-2 1v-4h70v60zm0 59H697V182l1 1 4 11 4 11 4 11 4 10 7 21 3 9 3 11 1 4h-1l2 4v1l3 6 35-23v24zm-123 0H572V258l5 5 7-6 10-4 9-5 9-4 8-5 8-5 14-12 2-1v62zM896 548H761V471H896v77zm-317 0H442V471H579v77zm317 93H761V569H896v72zm-317 0H442V569H579v72zM740 877l64-10 17-11-17-10V792h84l44 48 54-48V770H804V710l-64-33v93H601V710l-64-33v93H354v22H537v85l64-10 16-11-16-10V792H740v85z"/><glyph glyph-name="undefined" unicode="𢉧" horiz-adv-x="1024" vert-adv-y="918" d="M330 473l64-33H785l32 27 59-48-26-22V-23L785-55V-1H394V-39L330-71V473zM136 783l64-33H501V874l65-11 16-10-16-10V750H856l54 54 64-54V729H2e2V390l-3-62-5-58-8-55-12-52-13-48-16-45-20-42L101-9 76-41 48-69l-7 6L59-30 76 5 91 43l13 40 11 43 8 47 7 49 4 53 2 56V783zM785 145H394V20H785V145zm0 137H394V166H785V282zm0 137H394V303H785V419zM675 673l65-11 16-10-16-10V582h98l54 53 65-53V560H740V494l-65-32v98H504V494l-65-32v98H223v22H439v91l65-11 16-10-16-10V582H675v91z"/><glyph glyph-name="undefined" unicode="𢊓" horiz-adv-x="1024" vert-adv-y="918" d="M125 783l64-33H544V874l65-11 16-10-16-10V750H856l54 54 64-54V729H189V390l-3-63-6-59-8-57-12-53-15-49-17-46-21-43L84-18 56-52 26-80l-7 6L40-39 58-3 75 35 89 77l12 44 10 48 7 50 5 54 2 57V783zM321 296l65-32H794l32 27 59-49-27-21V-25L794-58V-4H386V-41L321-74V296zM794 123H386V18H794V123zm0 119H386V145H794v97zM646 341v17h75 7l5 1 5 2 1 1v1l1 1 2 4 1 5V705l64-11 16-11-16-9V379 366l-3-14-4-13-7-12-8-11-11-9-13-6-12-5-14-2-14-1v32l-75 16zm-392 0v17h97 6l5 1 5 2 2 2 2 5 1 5v6V705l65-11 16-11-16-9V379l-1-13-2-14-5-13-6-12-9-11-11-9-12-6-13-5-14-2-13-1v32l-97 16zm29 256 60-24 14-14-21-7-8-21-10-20-10-20-11-18-11-19-13-17-13-17-15-15-15-15-7 6 8 18 8 19 7 20 13 37 5 20 6 18 4 20 4 20 2 15h-1l4 14zm371 0 60-24 14-14-21-7-8-21-10-20-10-20-11-18-11-19-13-17-13-17-15-15-15-15-8 6 9 18 7 19 8 20 13 37 5 20 5 18 5 20 4 20 2 15 3 14zM895 440l-2 16-4 17-4 15-5 16-6 16-14 33-8 16-10 16 7 7 15-13 14-12 14-14 12-14 12-15 11-16 10-16 8-17 8-18 7-18-4-24-20-14-24 3-15 20-2 16zm-370 0-7 33-4 15-5 16-6 16-14 33-8 16-10 16 7 7 15-13 14-12 14-14 13-14 11-15 11-16 10-16 9-17 7-18 7-18-4-24-19-14-24 3-15 20-2 16z"/><glyph glyph-name="undefined" unicode="𢒞" horiz-adv-x="1024" vert-adv-y="918" d="M933 318l49-43 7-18-20 2-27-31-42-45-45-42-47-39-48-37-51-34L656 1 601-27 544-51 485-71l-4 9 55 30L588-2l50 33 48 34 46 36 44 38 42 41 40 43 37 44 34 44 4 7zM429 95l-12 16-11 16-12 15-13 16-14 15-15 15-15 15-16 16-8 7V-34L249-67V185l-10-18-23-40-25-38-27-34-28-31L106-4 75-28 42-49l-6 8L61-13 86 16l23 30 22 33 21 35 20 37 19 40 17 42 16 45 8 26H136V240L71 208V627l65-32H249v91H39v21H249V858l64-11 16-10-16-10V707H421l53 54 65-54V686H313V595H426l32 26 59-48-27-21V283l-64-32v53H313V240l38-16 21-10 19-11 18-13 18-13 17-14 16-15 16-16 15-16 5-24-12-21-25-5-21 12-9 17zM892 581l48-42 6-19-20 3-18-22-34-35-36-34-36-33-39-31-40-29-41-28-43-26-44-23-46-21-5 8 40 31 39 30 38 30 37 31 35 32 35 33 32 34 31 35 30 36 25 33 3 4h1l2 3zM170 399l-2 14-2 14-3 14-5 14-5 13-6 14-8 14-3 7V326H249V573H136V524l5-4 15-9 14-11 12-12 12-13 10-14 10-15 8-16 7-17 6-17-6-24-21-13-24 5-13 21-1 14zM426 573H313V326H426V483l-13-1-24-35-19-28-11-14-21-28-10-15-9 4 5 17 4 18 4 17 5 16 10 33 5 16 5 15 6 16 3 10h-1l2 3v2l4 6 54-34 1-1v73zM861 840l47-44 6-19-20 3-16-17-31-32-33-31-34-30-35-29-36-28-38-26-39-26-41-23-42-22-5 8 36 30 35 30 34 30 34 31 32 30 31 31 30 32 28 32 28 34 23 29 6 7z"/><glyph glyph-name="undefined" unicode="𢛓" horiz-adv-x="1024" vert-adv-y="918" d="M732 28l33 134h10L765 28l19-13L797-4 784-24 765-37H383l-14 2-13 2-13 4-13 7-10 9-9 10-7 13-4 13-3 13V49 282l64-11 17-10-17-10V43l2-5 1-5 2-2 5-1 5-2h7H732zM78-4 58 9 53 33 66 54l16 9L96 76l13 14 12 18 11 20 10 24 8 26 7 31 6 32 5 36h10l6-36 2-35-1-33-4-31-6-29-9-27-12-25-14-23-17-20L102 0 78-4zM896 75l-7 22-9 21-10 21-12 21-14 21-15 21-18 20-19 21-20 21 5 9 27-14 26-15 23-18 21-18 20-20 17-21 17-23 14-24 11-24 10-26-3-25-20-15-24 3-15 20-5 22zM564 162l-9 17-10 17-11 17-12 15-14 16-14 15-15 15-16 15-19 14 5 9 22-8 22-9 20-10 20-12 19-13 17-15 17-16 15-17 15-18 13-20 2-24-15-19-24-3-20 16-8 18zM436 494l-8 16-9 15-10 15-12 15-12 14-14 14-15 14-11 9V354l-64-32V586l-15-25-24-37-27-34-28-31-30-30-33-26-35-23-37-20-5 8 30 28 28 28 26 30 25 31 23 32 21 35 20 35 17 38 15 39 7 20H71v21H281V866l64-11 16-10-16-10V705h43l54 54 65-54V684H345V626h2l21-8 20-9 20-11 18-12 17-13 16-15 15-16 14-16 13-19 1-24-15-19-24-2-20 15-7 17zm457-97-26 26-25 27-22 29-21 31-20 32-17 34-16 36-3 9V354l-64-32V586l-15-25-24-37-27-34-28-31-31-30-32-26-35-23-37-20-5 8 29 28 29 28 26 30 25 31 23 32 21 35 19 35 18 38 15 39 7 20H517v21H679V866l64-11 16-10-16-10V705h92l53 54 65-54V684H743v-8l11-18 21-32 20-30 22-29 22-27 23-26 24-23 24-22 26-20 27-18 17-13-59-45-28 24z"/><glyph glyph-name="undefined" unicode="𢞥" horiz-adv-x="1024" vert-adv-y="918" d="M383-70H369l-13 3-13 4-13 7-10 8-9 11-7 12-4 13-3 14V16 175l64-10 17-11-17-10V9l2-5 1-3V-1l1-1 1-1 2-1 3-1h5l7-1H732l33 134h10L765-6l19-13 13-19-13-20-19-12H383zM75-45 57-29 55-4 71 14l15 6 14 8 13 10 11 11 11 14 9 17 8 18 7 21 6 23 3 27h10l3-27 3-26-1-25-4-24-6-22-9-21L152 4 137-14 120-30 1e2-44 75-45zM896 18l-6 15-8 15-9 15-12 16-14 16-16 16-17 16-20 17-22 15 4 9 27-10 25-10 22-11 21-13 19-14 18-15 16-15 14-18 13-18 10-19-1-24-18-18-25 2L901 3l-5 15zM565 79l-8 13-10 13-11 12-12 12-13 12-15 12-15 13-17 11-19 11 4 9 21-5 21-5 20-7 19-7 18-10 18-9 16-11 15-12 15-13 13-14 6-24-13-21-24-5-21 12-8 13zM432 359l-12 9-14 10-14 10-14 10-16 9-16 10-17 9-7 4V201l-64-33V394l-22-25-25-24-26-24-27-20-29-20-31-17-33-15-5 9 26 23 25 23 24 23 22 24 21 25 19 25 18 26 17 27 15 28 6 13H78v22H258V624l64-11 16-11-16-10V517h56l54 53 64-53V495H322V450l15-2 20-3 18-4 19-5 19-6 17-6 17-7 17-7 16-8 14-21-5-25-21-12-24 4-12 11zm463-99-30 23-27 23-25 26-23 26-19 27-17 28-13 28-1 4V201l-65-33V421l-18-21-27-28-29-26-31-25-33-22-35-20-37-18-39-15-4 9 33 24 32 24 29 25 28 25 26 26 23 27 22 28 20 29 18 30 2 5H522v21H675V626l65-10 16-11-16-10V519h97l54 54 65-54V498H740l12-17 16-24 19-23 19-22 22-21 23-20 24-19 27-18 30-18 31-17 25-14-60-47-33 22zM880 612l-47 18-45 18-43 21-41 21-39 23-37 25-34 26-31 28-3 3-23-11v13l-24-19-40-25-43-26-45-23-50-22-52-21-56-20-59-18-62-17-67-14-2 10 62 24 59 24 56 24 53 24 49 25 45 25 42 26 38 26 25 20H299v21H510l27 23 42-33h2l-1-1 16-14-14-9 30-17 37-19 38-18 39-18 41-16 42-15 44-14 46-13 47-12 45-12-63-56-48 15z"/><glyph glyph-name="undefined" unicode="𢮣" horiz-adv-x="1024" vert-adv-y="918" d="M351-28v16H458h7l5 1 4 2 3 2 1 5 1 5 1 6V77H44V99H480v70H125v22H480v67H467l-72-3-79-2-84-1H141v10l90 11 84 9 78 8 71 8 66 8 59 8 54 7 46 8 41 8 29 6 5 1 1-6 59-49 2-16-25 12-25-4-37-5-42-4-48-4-55-4-50-3V191H781l54 54 64-54V169H544V99H861l54 54 65-54V77H544V9L543-4l-2-14-4-13-7-12-9-11-11-8-12-7-13-5-13-2-14-1v32L351-28zm-7 432-3 9-4 10-6 10-8 10-8 10-10 11-11 11-12 12-15 10 4 8 17-7 17-4 16-6 15-7 13-8 14-8 11-9 11-9 10-11 9-11 2-24-16-19-25-2-19 16-2 8zM179 841l64-32 23 3 57 8 58 8 59 7 61 7 60 7 63 7 63 7 64 7 59 6 6 1v-6l64-54 3-15-25 13-37-3-65-3-65-4h-3l6-14 16-32 19-29 21-25 24-21 26-19 30-16 32-13 37-11 39-7 50-10-64-60-45 13-12 5 43-36V509H709l40-35 6-18-23 3-4-3-12-9-13-10-14-11-15-11-16-12-18-12-19-11H851l53 53 65-53V358H55v22H601l9 10 14 19 13 16 12 16 11 14 10 14 9 13 8 12 6 10 2 5H114v21H792l47 47-38 20-33 23-29 27-24 30-19 33-15 36-9 38-1 20-43-2-62-3-43-2 11-7-17-9V571l-64-32V794h-9l-60-2-59-1H268l-25 1V695l-4-25-9-24-13-20-16-19-20-15-22-13-25-11-29-8-31-6-34-6-3 10 32 12 27 14 23 13 19 14 16 14 11 15 8 13 4 14 2 14v14V841z"/><glyph glyph-name="undefined" unicode="𢱯" horiz-adv-x="1024" vert-adv-y="918" d="M351-19V-3H458l7 1 5 1 4 2 3 2 1 5 1 4 1 7v82H44v22H480v80H125v21H480v78H468l-73-4-78-2-85-2H141v9l90 11 84 10 78 9 71 9 66 9 59 8 53 8 47 8 41 8 28 7 6 1 1-7 57-47 2-16-24 12-24-5-37-5-42-5-48-5-55-4-50-3V224H781l54 54 64-54V203H544V123H861l54 53 65-53V101H544V19L543 5 541-8l-4-13-7-12-9-11-11-9-12-7-13-4-13-2-14-1v32L351-19zM144 396V380L79 348V850l65-32H377l53 53 65-53V796H318V694h84l33 27 59-48-27-22V510l-65-33v54H318V418h71l54 53 65-53V396H144zm653 18-9 9-12 10-16 11-20 11-22 11-26 11-28 12-32 12-35 12 2 10 37-4 35-4 31-5 29-7 26-7 24-7 21-9 20-10 16-11 15-13 7-23-12-22-24-7-21 11-6 9zM254 531H144V418H254V531zm541 30-5 7-8 7-10 8-14 9-16 8-18 10-21 9-24 9-26 9 2 9 27-3 26-2 24-2 22-4 19-4 19-5 16-6 15-7 13-8 12-9 6-25-12-20-24-6-21 11-2 5zM144 673V553H402V673H144zM628 869l59-27 12-15-20-5-5-12-14-32-15-29-15-28H859l54 54 64-54V7e2H615l-5-8-20-26-20-25-24-23-24-22-27-19-6 7 18 26 17 27 17 25 16 27 14 27 14 28 11 28 11 28 10 31 7 25 4 13zM254 796H144V694H254V796z"/><glyph glyph-name="undefined" unicode="𢹙" horiz-adv-x="1024" vert-adv-y="918" d="M706 654l-19-11-3-27-2-8 5-16 12-27 16-23 18-21 23-17 7-4 6 6 15 19 13 16 12 15 12 14 9 12 8 11 6 9 5 8v1l-1 1 3 3 2 3 46-47 4-18-26 5-4-3-12-7-13-8-15-10-16-10-18-12-20-12-4-3 7-4 31-13 35-10 40-9 46-5 55-7-61-60 28-23V340H693l-5-6-10-11-10-10-10-10-11-9-11-10-11-8-10-7H852l33 27 59-49-27-21V-35L852-67v43H468V-40L404-73V301l64-32H583l4 6 7 12 6 11 6 12 6 11 6 12 3 7H365v22H838l31 31-39 12-41 16-35 20-30 24-24 27-19 29-11 33-2 9-15-32-26-37-32-31-38-26-44-21-49-17-55-12-60-6-2 9 57 17 50 19 44 21 37 24 29 26 24 28 17 31 12 33 6 36 2 39v13l64-13 17-10zM85-18V-2h75 7l5 1 5 2 2 2 1 5 1 5 1 6V316l-12-7-33-18-32-17-13-8-3-20-17 10-37 54 10 4 34 14 33 15 34 15 33 13 3 2V632H50v22H182V863l64-10 17-11-17-10V654h18l53 53 65-53V632H246V4e2l33 14 33 14 33 13 35 13 4-8-28-22-31-21-30-20-31-19-18-11V19L245 6 243-8l-4-12-7-13-9-11-10-8-13-7-13-4-13-3-14-1v33L85-18zM550 247H468V-3h82V247zM707 69H614V-3h93V69zM852 247H771V-3h81V247zM707 162H614V90h93v72zm0 85H614V184h93v63zM434 457l-20 16-3 24 15 19 10 3 8 5 9 4 7 7 8 8 7 9 7 11 6 13 6 14 2 16h10V589l2-16 1-17-2-16-4-15-5-15-7-14-9-13-11-12-13-11-24-3zM878 607l-14 12-18 13-20 13-24 12-27 13-29 12-33 13-35 14-31 11-7-11-29-31-36-27-42-23-50-18-58-14-66-8-1 10 63 18 52 21 44 22 35 25 27 26 20 28 14 28 9 30 3 30v27l-1 17 65-10 17-11-18-11-2-18-9-39-15-37-8-13 28-3 39-5 35-7 33-8 31-9 27-9 25-11 23-11 21-13 18-14 9-23-10-23-22-9-23 9-10 12zM445 674l-20 15-4 24 15 20 9 4 9 5 9 6 8 7 8 8 7 10 7 11 6 13 5 14 3 16h9l1-17 3-17V777l-2-16-3-15-6-15-7-15-9-13-11-13-12-12-25-4zM851 836l42-49 2-19-24 7-10-5-11-6-13-6-14-6-14-7-15-6-17-6-16-8-5 8 14 11 12 12 11 12 10 12 10 10 9 10 8 10 8 9 8 11-1 1 6 5z"/><glyph glyph-name="undefined" unicode="𢺈" horiz-adv-x="1024" vert-adv-y="918" d="M475 357l-2 19-11-8-18-10V276l7 5 12-13 11-15 11-15 10-18 9-18 8-19 8-21 7-22 5-23 3-8V253l59-29h64l30 27 54-47 1 27v21h-1l1 18 64-15 10-8V347l-11-5-20-7-19-6-8-20-14 14-23 60 10 2 20 3 30 4 7 21 15 41 14 39 14 38 4 9-10-9-24 2-16 19-4 16-4 16-5 15-5 15-5 15-6 14-6 13-13 27-9 12 7 7 12-9 13-9 13-10 4-4 5 14 7 22 6 22 12 40 6 18 5 18 4 17 5 17 2 10h-1l2 4v1l2 8 59-29 11-15-21-5-6-12-9-16-9-16-11-18-11-18-12-18-13-18-14-19-10-15 11-12 11-13 10-16 10-15 9-16 9-18v-3l12 32 12 33 11 32 11 30 8 24 5 13 57-31 11-17-20-3-4-9-14-29-15-31-17-32-17-33-17-34-20-36-20-36-22-37-7-11 11 2 20 3 40 7 41 6 3 1-3 20-5 19-9 37-7 18 8 5 13-15 12-16 12-17 10-18 10-19 8-21 7-21 7-21 5-23 5-23-8-23-22-12-23 8-12 21v22l-1 20-2 21-2 20v2l-18-11-19-10h-1V-45L817-77V240l-13-7-1-7-4-29-5-28-6-29-7-28-8-28-9-28-10-27L742 2 729-25l-9 3 3 30 3 28 4 29 3 27 6 56 3 53-25-18V-2L658-32V-2H594V-40L535-69V81l-4-11-21-12-23 6-13 21-1 23-2 22-2 21-3 19-2 20-4 18-3 18-5 17-3 17-5 14V-45L379-77V227l-1-8-5-29-6-29-7-29-8-29-9-27-10-28-11-27L308-5 294-31l-9 4 4 29 5 28 5 28 4 27 4 28 4 28 3 28 2 28 1 28v28l1 12 61-16v78l-12-6-21-7-18-7-8-20-14 14-24 61 11 2 20 2 20 3 9 1 5 18 13 39 13 38 13 38 8 23-15-12-24 5-14 20-3 17-2 17-8 31-5 15-5 15-6 14-6 14-7 15-10 13 7 7 13-10 14-10 13-12 6-6 1 3 4 22 5 21 6 22 10 43 6 22 5 22 5 22 4 17 4 13 59-28 12-15-20-5-1-1-9-21-9-21-10-21-10-20-10-20-11-20-11-20-13-19-6-9 6-7 11-15 9-17 9-17 8-17 7-19v-2l10 28 38 116 11 34 4 13 58-30 12-15-20-4-8-19-16-38-16-38-34-74-18-37-18-37-20-35-20-36-4-7 11 2 40 8 20 4 20 4 17 4v1l-3 18-3 18-4 17-4 17-9 32-6 14 8 6 11-12 13-13 11-15 10-15 9-17 9-18 8-18 8-20 6-21 6-22-6-24-20-13-25 6-12 21-2 20zM60-18V-2h64 7l5 1 5 2 2 2 1 5 1 5 1 6V306l-39-30-5-4-1-21-17 8-45 48 10 6 24 14 25 14 24 15 24 13V632H59v22h87V863l64-10 17-11-17-10V654h13l34 37 43-37V632H210V407l11 6 24 14 26 14 26 13 6-8-20-22-20-20-21-20-22-18-10-8V19L209 6 207-8l-4-12-7-13-9-11-10-8-13-7-13-4-13-3-14-1v33L60-18zM658 202H594V19h64V202zM918 83l-1 22-1 21-2 21-2 21-3 20-3 20-7 38-5 20 8 4 12-17 11-17 11-18 9-20 8-20 8-21 6-22 6-23 5-23 4-24-8-24-22-10-23 8-11 21V83zM661 396l43-38V337H547v21h80l34 38zm0 139 43-37V476H547v22h80l34 37zm25 151 43-38V627H537v21H652l34 38zM661 826l43-38V767H547v21h80l34 38z"/><glyph glyph-name="undefined" unicode="𢿢" horiz-adv-x="1024" vert-adv-y="918" d="M885-28 839 4 797 41 760 83l-2 3-41-41L666 3 610-31 551-58 489-76l-3 9 57 28L595-6l49 37 44 43 40 47 2 4-3 5-30 52-25 56-20 60-16 65-10 65H583v21H715V863l64-10 16-11-16-10V670H886l44 48 53-48V648H779V449h92l32 27 60-48-27-16-8-4-19-57-30-75-34-67-38-62-14-17 9-11 36-35 39-29 42-25L964 9 996-5 935-56 885-28zM467 417H338l-9-16-9-16-10-16-10-15-11-14-12-14-12-14-4-3 12 1 23 2 24 1 23 1h24 9l-1 3-8 16-8 16-9 18-12 16 7 7 15-14 17-13 14-12 13-14 12-13 11-14 9-15 9-14 7-15 5-15-5-24-21-14-23 6-14 20v11l-2 12-3 13-3 13-5 13-10-4-23-8-23-8-22-7-22-7-43-13-38-11-9-20-13 14-24 60 11 2 21 3 21 2 22 2 2 1 3 6 6 16 6 16 7 16 11 31 4 16 3 9H137V-45L73-77V471l64-32H292l-11 21-6 11-6 11-7 11-8 11-8 12-9 11-8 13-11 10 5 8 14-8 14-6 14-7 13-7 12-9 12-8 11-9 10-8 7 10 12 15 11 14 10 13 9 12 6 8H141v21H392l2 2v1l6 9 3-2 21 17 59-48-27-16-41-17-11-8-13-9-14-9-16-10-16-9-9-6 9-8 5-24-9-13H467l33 27 59-49-27-21V14L531 1l-2-14-5-13-7-12-8-11-11-9-12-7-13-4-14-2-13-1v32L371-24v12l-13-3L337-1l-9 16-10 15-10 14-1-1-24-24L257-3 228-23 196-40 163-54l-5 8 27 23L210 1l23 23 20 23 19 25 4 6-8 8-16 13-16 13-18 13-18 12 3 9 22-6 23-6 20-8 20-9 9-5 5 11 12 26 10 28 2 9H171v22H331l32 26 59-48-27-16-10-4-4-10-15-31-17-29-8-12 3-2 16-15 16-15 15-17 4-24L383-8h63l6 1 5 1 5 2 2 2 2 5 1 5v6V417zm170 11 20-59 24-60 27-55 29-50 24-35 4 6 32 59 29 65 25 71 16 58H637zM488 852l1-7 59-48 2-16-24 12-26-5-29-4-32-4-32-4-34-5-36-4-38-5-39-5-41-4-43-4h-5l-1-6-9-30-9-28-10-28-12-28-12-27-14-27-15-26-17-24-18-24-9 5 9 28 9 28 9 27 8 28 7 27 7 27 6 28 5 28 4 28 3 23 3 15 62-20 1-2 36 11 39 10 39 11 36 9 36 9 33 8 62 16 24 5 5 2zM266 639l-1 10-3 11-4 10-4 11-6 11-6 12-8 12-10 12-11 10 5 8 14-8 15-6 13-8 13-9 12-9 11-11 10-11 9-12 8-13 6-13-3-25-19-15-25 4-15 19-1 10zm186 5-7 11-9 12-9 10-10 12-11 10-12 11-13 10-14 11-16 8 3 9 18-4 19-4 17-5 16-6 16-7 16-9 15-9 14-10 13-12 13-12 5-24-12-21-24-6-21 13-7 12z"/><glyph glyph-name="undefined" unicode="𢿮" horiz-adv-x="1024" vert-adv-y="918" d="M884-29 836 3 792 41 752 83l-4 5-45-44L649 3 591-31 529-58 464-76l-4 9 61 28L577-6l51 37 47 43 43 48 2 3-4 5-31 51-26 56-22 61-17 65-11 65H563v21H704V863l64-10 17-11-17-10V670H888l44 48 54-48V648H768V449H870l32 27 59-48-27-16-9-4-19-58-32-74-36-68-41-61-14-17 9-10 39-35 41-30 44-25L964 9 998-5 936-56 884-29zM345 5V22h86 7l5 1 5 2 1 1 1 1 1 1 1 4 1 5V445H108V-6L44-39V498l64-32H453l32 27 59-48-27-22V43 30l-2-14-5-13-7-12-8-11-11-8-12-7-13-5-14-2-14-1v32L345 5zm22 219 64-54V148H302V25L238-8V148H136v22H313l54 54zM619 428l22-59 25-60 28-55 30-50 27-37 6 8 34 59 31 65 26 71 17 58H619zM370 244l-3 7-3 8-4 8-2 4-6-2-25-7-24-6-24-5-23-5-22-5-21-4-21-5-17-3-10-20-13 15-17 63 10 1h20l21 1h12l3 8 14 33 7 16 7 16 7 15 12 32 4 10h-1l5 11 54-35 10-18-22-1-7-10-22-28-24-28-12-13-8-8h4 46 24l25-1 24-1-4 7-7 9-7 11-9 8 5 8 11-7 12-5 11-5 11-5 10-5 19-11 8-5 8-6 8-6 5-24-13-21-24-5-21 13-1 6zm72 415 59-48-27-22V525l-64-33v33H98v21H410v65H98v21H410l32 27zm15 220 2-6 56-47 2-16-24 11-22-5-32-5-33-5-34-4-34-4-35-3-35-3-36-2-37-1H175l7-9-21-5-9-15-10-16-11-16-11-14-13-14-14-13-14-12-16-10-14-11-7 7 11 14 8 16 17 30 7 15 11 31 5 16 5 16 2 10-1 1 5 13 33-16 12 3 35 8 36 7 34 8 34 7 34 7 33 8 32 8 32 8 25 7h1l4 1zm11-185-3 9-5 10-4 10-7 11-7 11-8 12-10 13-10 13-12 12 6 7 14-9 16-7 14-8 14-8 12-9 11-8 11-9 10-10 10-10 8-10 1-24-16-19-25-2-18 16-2 9zM272 704v7 7l-1 8-3 8-6 17-4 10-5 9-8 8 6 7 9-7 11-4 10-5 9-6 9-7 8-7 15-16 12-18-4-24-19-16-24 4-15 19v6z"/><glyph glyph-name="undefined" unicode="𢿳" horiz-adv-x="1024" vert-adv-y="918" d="M885-28 839 4 797 41 760 83l-2 3-41-41L666 3 610-31 551-58 489-76l-3 9 57 28L595-6l49 37 44 43 40 47 2 4-3 5-30 52-25 56-20 60-16 65-10 65H583v21H715V863l64-10 16-11-16-10V670H886l44 48 53-48V648H779V449h92l32 27 60-48-27-16-8-4-19-57-30-75-34-67-38-62-14-17 9-11 36-35 39-29 42-25L964 9 996-5 935-56 885-28zM358-27v16h76l6 1 5 1 5 1 2 3 1 4 1 5 1 7V249l-1-1-24-3-20 14-3 9-4 9-5 11-5 11-1 1-11-3-29-8-29-6-27-6-27-6-26-5-25-5-24-5-23-5h-1l-10-19-12 14-20 63 11 1 24 2 24 1 11 1 6 18 10 22 18 47 4 11H117V-39L53-71V466l64-32H244l5 13 9 24 8 25v2H132v21H399v76H132v21H399l32 27 59-48-27-22V498l-64-32v32H334l-24-49-8-15H455l32 27 59-49-26-21V11L518-3l-2-13-4-13-7-12-9-11-10-9-13-7-13-4-13-2-13-1v32L358-27zm24 46-16 13-18 13-20 13-2 1-16-11-31-17-34-14L210 6 172-1 131-5 130 5l37 14 33 14 31 16 28 17 22 18-23 11-27 13-29 13-30 15 3 9 33-4 32-6 30-7 28-8 16-5 10 12 16 24 14 25 1 4H162v22H363l2 1 1 1 29 24 59-48-26-16-14-6-6-11-21-29-20-23 7-3 22-11 21-12 19-11 12-23-6-23L420 1 396 7 382 19zM637 428l20-59 24-60 27-55 29-50 24-35 4 6 32 59 29 65 25 71 16 58H637zM455 412H291l-6-9-13-22-14-22-14-21-15-20-3-3 11 1 27 1 56 1h29l30-1 3-1-3 5-7 13-9 13-9 14-11 12 6 7 14-10 15-8 13-8 13-9 12-8 11-9 10-9 10-9 8-7V412zm-2 452 2-8 53-44 2-16-23 10-17-4-33-7-33-6-33-5-33-5-35-4-69-7-36-1-17-1 5-6-21-6-9-20-10-19-10-19-12-17-13-17-13-15-14-15-16-13-15-13-7 7 10 17 16 34 8 17 7 18 6 18 6 18 4 19 5 19 3 14h-1l4 14 37-16 7 2 36 8 34 8 34 8 33 9 33 8 32 9 32 8 31 9 25 8 5 2zm11-209-4 11-4 12-5 12-6 13-7 13-8 13-9 14-10 15-12 13 7 8 15-11 15-9 15-11 13-10 13-11 11-10 11-12 10-11 8-12 8-13V645l-17-18H484l-18 18-2 10zM272 674l-2 18-3 10-2 10-8 20-5 11-7 9 7 7 9-8 11-6 10-7 10-8 8-8 9-9 7-10 7-9 6-11 6-12-5-24-20-14-24 5-14 19v17z"/><glyph glyph-name="undefined" unicode="𢿻" horiz-adv-x="1024" vert-adv-y="918" d="M135 150l-2 13-2 7-3 7-4 8-3 9-5 8-1 2-6-9-18-25-20-24-22-22-8 6 12 28 13 27 12 27 11 28 11 27 10 28 8 28 9 28 6 29 6 29 3 9 60-24 13-14-20-6-3-11-11-30-12-29h55l33 27 51-42v15h86V406l64-10 16-11-16-10V304h15l24 33 32-33V283H458V132h29l24 33 32-33V111H458V-51L394-83V111H344l-3-21-69-22 29 183 62-21 14-13-17-6-13-79h47V283H316l-27-16-7-3-8-27-15-48-19-44-20-42-24-38-26-36L142-3 111-31 78-56 43-76l-6 8L65-40 91-11l24 31 22 33 20 35 17 37 2 4-22-2-18 17-1 6zM874-13 822 28 774 75l-42 52-5 7-17-27-48-58L609-1 550-42 487-76l-5 8 56 42 51 47 46 52 41 57 26 45-6 9-31 62-26 66-19 72-13 76-4 47-22-34-28-39-31-36-8 6 22 41 20 42 20 43 18 44 18 44 16 47 14 48 13 49 12 51 9 47v1l1 4 2 10 61-23 14-14-19-6-9-34-16-52-17-50-19-49-16-36H869l54 53 64-53V589H884l-14-91-22-92-26-85-33-78-31-60 17-22 42-45 45-39 49-34 54-30L993-1 932-49 874-13zM221 283H159l-3-7-14-28-16-27-2-4 4-1 9-4 9-4 10-5 8-5 8-6 8-6 13-13 11 35 11 45 6 30zM819 589H648l-17-33-17-31 15-61 22-72 25-66 29-60 23-39 16 35 26 76 22 82 17 89 10 80zM455 466l-14 12-14 13-16 13-16 13-18 11-18 13-20 12-12 8V390l-65-32V571l-7-9-20-24-22-24-24-22-25-22-27-22-29-20-32-18-33-18-6 8 27 26 50 49 22 24 21 24 18 24 17 24 16 24 12 21H54v22H262V853l65-11 16-11-16-10V638h84l54 53 64-53V616H327V581l22-4 23-7 22-8 22-8 20-9 20-10 19-11 18-11 17-12 11-23-8-23-22-10-24 8-12 13zM426 826l53-37 9-17H466l-7-10-11-13-12-14-11-13-12-13-13-13-14-13-14-13-13-14-8 6 9 17 8 17 7 17 8 16 7 16 7 16 7 15 7 15 6 15 4 10 5 10zM157 701l-3 11-3 11-5 12-5 12-7 12-7 12-9 13-9 13-11 11 5 8 15-9 14-8 14-8 13-9 13-11 11-10 11-11 9-12 9-12 8-13-2-25-17-17-24 2-18 17-2 11z"/><glyph glyph-name="undefined" unicode="𣁣" horiz-adv-x="1024" vert-adv-y="918" d="M135 150l-2 13-2 7-3 7-4 8-3 9-5 8-1 2-6-9-18-25-20-24-22-22-8 6 12 28 13 27 12 27 11 28 11 27 10 28 8 28 9 28 6 29 6 29 3 9 60-24 13-14-20-6-3-11-11-30-12-29h55l33 27 51-42v15h86V406l64-10 16-11-16-10V304h15l24 33 32-33V283H458V132h29l24 33 32-33V111H458V-51L394-83V111H344l-3-21-69-22 29 183 62-21 14-13-17-6-13-79h47V283H316l-27-16-7-3-8-27-15-48-19-44-20-42-24-38-26-36L142-3 111-31 78-56 43-76l-6 8L65-40 91-11l24 31 22 33 20 35 17 37 2 4-22-2-18 17-1 6zM876-28 826 20 781 76l-38 60-23-36-52-60-55-50-62-39-66-27-4 9 59 36 54 43 48 51 44 60 34 60-13 26-30 77-24 84-20 91-13 98-7 1e2H546v22H718V874l64-11 17-10-17-10V681h75l53 53 65-53V659H910L893 548 868 439l-29-99-34-89-30-60 13-24 40-55 44-48 46-40L968-9l24-14-61-47-55 42zM221 283H159l-3-7-14-28-16-27-2-4 4-1 9-4 9-4 10-5 8-5 8-6 8-6 13-13 11 35 11 45 6 30zM623 659l19-96 23-95 25-87 29-79 28-60 12 27 29 87 25 97 19 106 13 1e2H623zM455 466l-14 12-14 13-16 13-16 13-18 11-18 13-20 12-12 8V390l-65-32V571l-7-9-20-24-22-24-24-22-25-22-27-22-29-20-32-18-33-18-6 8 27 26 50 49 22 24 21 24 18 24 17 24 16 24 12 21H54v22H262V853l65-11 16-11-16-10V638h84l54 53 64-53V616H327V581l22-4 23-7 22-8 22-8 20-9 20-10 19-11 18-11 17-12 11-23-8-23-22-10-24 8-12 13zM426 826l53-37 9-17H466l-7-10-11-13-12-14-11-13-12-13-13-13-14-13-14-13-13-14-8 6 9 17 8 17 7 17 8 16 7 16 7 16 7 15 7 15 6 15 4 10 5 10zM157 701l-3 11-3 11-5 12-5 12-7 12-7 12-9 13-9 13-11 11 5 8 15-9 14-8 14-8 13-9 13-11 11-10 11-11 9-12 9-12 8-13-2-25-17-17-24 2-18 17-2 11z"/><glyph glyph-name="undefined" unicode="𣋣" horiz-adv-x="1024" vert-adv-y="918" d="M50-39v22H189V194l65-32H770l32 27 59-49-26-21V-17h21l54 54 64-54V-39H50zM383 140H254V-17H383V140zm194 0H447V-17H577V140zm193 0H641V-17H770V140zM166 223V158l-65-32V567l65-33H423l44 49 54-49V513H343V445h85l32 26 60-48-27-21V320l-65-32v32H343V244h93l44 48 54-48V223H166zm112 97H166V244H278v76zm594 26 65-54V271H550v21H818l54 54zM632 567l60-28 11-15-20-5-3-7-12-25-14-25-8-13H835l53 54 65-54V428H631l-8-11-18-21-19-19-20-17-22-16-24-13-6 7 16 21 15 21 15 20 13 21 12 21 11 22 11 23 8 23 8 24 5 19 4 14zM166 423V342H428v81H166zm112 90H166V445H278v68zM211 871l64-32H749l32 27 59-48-27-22V570l-64-32v64H275l-64-32V871zM749 710H275V624H749v86zm0 108H275V731H749v87z"/><glyph glyph-name="undefined" unicode="𣛱" horiz-adv-x="1024" vert-adv-y="918" d="M647 308l2-8 53-44 1-16-22 10-17-4-19-4-18-2-20-3-20-3-41-6-21-2-22-1-3-1-10-5V133h76l44 48 54-48V111H490V14H863v97H713v22H863v93H706v22H863l32 27 59-49-27-21V-29L863-61V-8H490V-45L426-77V250l55-9 16 7 20 9 20 8 19 8 19 7 19 7 18 7 18 7 12 5 5 2zm188 15-12-5-11-4-12-3-11-3-24-4-23-2H729v32L622 350v16H738l9 1 10 1 9 1 8 2 9 2 9 3 17 6 5 2 1 3 3 8 4 10 4 13 4 16 4 18 4 21 1 6H617l-20-30-24-32-27-30-30-29-31-27-33-25-37-23-38-20-5 8 31 28 30 29 28 29 26 29 24 30 21 31 20 31 17 33 15 33 12 30h-1l5 11 57-30 11-16-20-4-9-17-9-17H842l32 26 59-48-27-16-5-2-4-22-4-20-5-18-5-16-4-14-6-12-6-11-8-10-14-10-10-5zm81 261 24 70h11l-11-70 14-10 11-14-11-15-14-10H778l-12 2-13 3-11 6-11 7-9 10-7 11-5 13-3 13-1 13V731H582l53-21 13-14-20-7-5-14-15-31-19-29-22-26-25-23-28-21-32-17-33-14-38-10-39-7-2 9 34 17 33 17 28 19 25 19 21 21 18 22 15 24 13 24 9 27 6 28 2 7H439v-3l2-17V694l-1-16-3-16-4-15-6-14-7-14-22-12-11 4V6e2H253V472l19-6 16-7 16-8 15-9 14-10 14-11 13-11 12-13 12-14 3-24-14-20-25-4-20 15-5 13-7 12-7 13-8 11-9 13-10 12-11 11-18 18V-40L189-72V417l-5-15-18-47-20-46-22-45-23-43-26-41-28-39-8 5 18 44 18 44 17 44 16 46 15 46 13 47 13 49 10 48 9 51 5 35H43v21H189V863l64-10 17-11-17-10V621h15l54 54 42-35 6 20 7 6 7 7 6 8 6 10 6 11 5 13 4 15 4 16 3 17 1 18 9 1 4-19 3-11H636V869l64-11 16-11-16-9V752H904l4 3 29 24 59-48-27-17-22-9-2-1-8-9-8-11-10-10-10-12-12-13-12-12-11-16-8 5 8 17 6 17 5 16 5 14 4 14 4 12 3 12 1 3H738l32-6 16-11-16-9V613v-6-5-4-3l1-2 1-2 2-2 4-2 6-2 8-1H916z"/><glyph glyph-name="undefined" unicode="𣨀" horiz-adv-x="1024" vert-adv-y="918" d="M910 6l32 134h11L942 6 961-7l13-19-13-20-19-13H641l-14 1-13 3-13 4-13 6-10 10-9 10-7 13-4 13-2 13-1 13V442H289l22-9 13-14-19-6-7-23-15-41-16-35H431l33 27 59-48-27-16-8-3-11-39-25-57-30-52-37-46-42-41L295 5 242-24 183-47 119-63 50-74 49-64l65 20 59 24L225 8l47 30 41 35 34 39 29 43 24 47 18 52 10 39H255l-11-19-23-33-11-13 15-4 19-6 17-7 17-7 15-9 15-8 14-10 12-11 12-11 5-24-13-21-24-6-21 13-5 10-6 11-8 10-9 11-11 11-11 11-14 11-14 12-15 11-4-5-29-28-30-24-33-21-36-18-5 8 29 26 26 27 24 27 22 29 20 31 17 32 15 34 13 36 10 38 8 35H60v21H845l54 54 65-54V442H610l10-2 16-10-16-10V228l29 12 30 13 30 11 30 12 29 12 28 11 55 22 22 9 5 2 3-8 48-42 1-16-22 9-9-4-28-8-28-8-30-7-30-8-31-7-31-7-32-7-32-6-34-5-3-1V21l1-5 1-5 2-2 2-1h3l5-2h7H910zM867 883l64-54V807H579l24-30 3-19-20 7-24-19-45-30-12-8 39-6 16-11-16-10V531l-64-33V692l-10-6-50-29-54-27-57-27-59-27-63-25-66-23-70-22-3 9 65 32 62 31 60 30 56 31 53 30 50 31 46 32 45 31 40 32 15 12H93v22H813l54 54zm15-349-18 16-22 16-25 16-28 16-30 16-34 17-37 17-39 17-42 19 3 9 45-9 43-9 39-11 37-12 35-13 31-13 30-14 26-14 24-16 21-15 10-23-8-23-22-10-24 8-15 15z"/><glyph glyph-name="undefined" unicode="𣩼" horiz-adv-x="1024" vert-adv-y="918" d="M167 280l-3 14-4 14-4 14-5 13-7 12-8 13-8 12-10 12-2-5-25-44-27-40-29-36-8 5 19 42 20 42 18 45 16 47 15 49 13 51 11 54 10 56 8 59 5 47H31v21H255l54 54 64-54V756H227l-9-56-12-60-14-58-4-14h93l32 27 59-49-27-16-4-2-8-66-16-86-21-79-24-74-29-68-33-60-38-55L130-8 84-48 34-81l-6 8L70-33l38 44 35 49 31 55 27 59 24 65 19 72 16 77 12 83 7 75H182l-6-19-18-52-20-50-14-29h1l17-7 14-8 14-11 14-11 11-13 11-15 10-16 8-17 7-18-3-25-20-15-24 5-15 19-2 16zM397 839l60-29H590l30 27 57-49-27-19V546l-60-29v40H457V-46L397-76V839zM817-24V-8h64l7 1 5 1 4 2 3 2 1 1V3l1 5 1 6V557H772V541l-55-28-9-5V455h83l33 37 43-37V433H708V376h67l30 27 56-48-26-19V184l-60-29v29H708V166l3-1 17-6 16-8 15-9 15-10 15-10 13-11 14-12 13-13 11-13 5-25-13-20-24-5-21 14-7 13-7 13-8 14-9 13-10 12-10 13-10 12-18 21V-34L654-61V103l-3-6-20-24-20-23-21-21-23-19L544-6 519-20 493-31l-5 8L507-4l18 20 18 20 17 21 16 22 15 23 14 24 13 26 13 28 2 4H581V147l-53-27V403l53-27h73v57H504v22H654v83l54-11 5-3V839l59-29H903l32 27 59-49-27-21V14L966 1l-2-14-4-13-7-12-9-11-11-9-12-7-13-4-13-2-14-1v32L817-24zM607 240v8l-1 8-2 8-2 10-3 9-3 9-8 20-7 9 7 6 9-7 19-12 9-6 8-7 16-15 5-7v82H581V206h73v13l-5-5-25 1-16 18-1 7zm168 44-1-2-8-11-9-10-9-10-19-19-11-9-9-10-1 1v-8h67v78zm0 71H708V232l3 11 12 37 3 12 6 24 3 12 2 6h-1l2 5 3 7 34-19v28zM903 675H772V578H903v97zm-313 0H457V578H590v97zM903 788H772V697H903v91zm-313 0H457V697H590v91z"/><glyph glyph-name="undefined" unicode="𤂺" horiz-adv-x="1024" vert-adv-y="918" d="M760-61l-14 1-13 2-13 4-12 7-11 9-9 11-7 12-4 13-2 13-1 14V142H568l45-15 14-14-21-8-5-14-18-33-24-30L529 3 495-19 455-37 410-52 360-64l-54-8-60-4-2 9 58 15 51 16 46 17L438 0l33 20 27 22 21 23 15 23 10 24 5 22 1 8H486V78L422 46V470l64-32H814l32 27 60-48-27-22V110L814 78v64H739V18l1-5 2-4 2-3 5-1 4-1 7-1H917l32 135h11L949 3l19-13 13-19-13-19-19-13H760zM177 120l-1 1 3-5 10-34 7-36 5-40V-36L190-58l-23-8-22 11-8 23 2 38V40l-2 32-6 27-8 26-10 22-14 20-16 18-20 17-24 16 4 9 29-7 28-11 24-17 6-6 5 13 10 26 13 35 15 42 19 50 21 58 23 65 28 73 31 80 9-2-40-159-18-68-16-59-13-51-11-44-9-35-6-28-4-20-2-11-8-31zM814 238H486V164H814v74zm0 89H486V259H814v68zm0 90H486V349H814v68zM392 492V428l-65-32V860l65-32H533l54 54 64-54V806H525V731h48l33 27 59-48-27-22V588l-65-32v43H525V514h38l44 48 54-48V492H392zM124 470l-5 11-6 11-7 11-9 10-10 11-12 11-12 11-14 11-17 10 4 9 18-6 19-4 17-6 17-7 15-8 15-8 13-11 13-11 11-12 11-13 2-24-15-20-25-2-19 16-4 10zM460 599H392V514h68v85zm440 21 64-53V545H673v22H846l54 53zM727 861l61-23 13-14-19-7-3-8-9-27-11-27-9-19H879l44 48 53-48V714H738l-4-8-14-22-15-22-16-19-18-18-19-15-7 6 11 21 10 22 9 21 10 23 9 22 7 24 7 24 7 25 5 26 4 22 1 4v2l2 9zM392 710V620H573v90H392zM198 727l-4 10-6 11-7 10-8 11-10 11-12 11-12 12-14 12-17 10 5 9 18-7 19-5 17-6 16-7 15-9 14-8 13-10 12-11 12-11 9-12 2-25-15-19-25-2-19 16-3 9zm262 79H392V731h68v75z"/><glyph glyph-name="undefined" unicode="𤃨" horiz-adv-x="1024" vert-adv-y="918" d="M679 654l-19-12-3-26-2-5 6-19 13-26 16-24 21-20 24-17 10-5 8 7 16 18 15 17 13 15 12 14 11 12 9 11 7 9 5 8 1 1-1 1 5 5 44-47 3-19-25 6-6-3-12-7-14-9-16-9-17-11-20-12-21-11-4-3 6-3 33-13 39-11 45-8 49-6 56-6-60-60 29-24V340H667l-7-7-20-21-23-20-11-8-12-9-10-6H845l33 27 59-49-27-21V-35L845-67v43H422V-40L358-73V301l64-32H551l4 7 8 12 7 11 7 12 7 11 6 12 3 6H313v22H837l30 30-47 13-44 16-38 20-33 23-26 27-21 30-13 33-2 14-20-38-28-36-35-32-40-25-47-22-53-16-60-12-65-6-2 9 63 17 55 19 47 22 41 23 32 27 26 28 20 30 12 33 7 36 2 39v13l65-13 16-10zm194-48-16 12-19 13-23 13-26 12-29 13-32 13-36 13-39 14-35 12-9-12-31-32-38-27-46-23-54-18-62-13-57-6-13-48-21-76-19-67-17-60-15-51-12-43-9-36-7-27-5-20-2-11-8-31 2-4 12-33 7-37 4-40V-37L207-58l-23-8-22 11-8 23 3 38V40l-3 31-6 28-9 25-11 23-14 20-19 18-21 17-25 16 2 9 32-7 28-11 27-17 8-8 7 15 10 27 14 34 16 43 19 49 22 58 25 65 29 73 18 45v5l3 1 12 29 9-2-6-23 49 13 58 21 48 23 38 24 30 27 23 27 15 29 9 29 5 30-1 26-1 18 66-10 16-11-18-11-2-19-9-39-17-37-8-12 32-3 42-5 38-7 36-8 32-9 30-9 28-11 24-11 22-13 20-14 9-22-8-23-22-10-23 8-12 12zM516 247H422V-3h94V247zM687 69H581V-3H687V69zM845 247H751V-3h94V247zM687 162H581V90H687v72zm0 85H581V184H687v63zM141 469l-5 11-7 11-8 11-10 11-11 11-13 11-14 11-15 11-17 10 3 9 20-6 19-4 18-5 18-7 16-8 16-9 14-10 13-11 13-12 10-14 3-24-15-20-24-2-20 15-4 10zm245-12-19 16-2 24 16 19 10 4 10 4 9 6 8 5 9 9 7 9 7 10 6 13 6 14 2 16h10l1-17 2-17V556l-2-16-5-16-6-15-8-14-10-13-13-12-14-11-24-2zm13 217-20 15-3 24 15 20 11 4 10 5 9 6 9 7 8 8 8 10 7 11 6 13 6 14 2 16h10l1-17 2-17V777l-2-16-5-16-6-15-8-15-10-14-12-12-14-12-24-3zM220 726l-5 11-6 10-8 10-9 11-11 12-13 11-14 12-15 11-17 11 3 9 20-7 20-5 18-6 17-7 16-8 15-9 14-9 13-11 11-11 11-13 2-24-15-20-24-2-20 15-3 9zM843 837l40-51 3-19-24 8-12-6-13-6-13-6-15-6-15-6-16-6-18-6-17-8-5 8 15 11 13 13 13 12 11 11 31 30 8 9 7 9 3 4h-1l3 3 1 1 1 1z"/><glyph glyph-name="undefined" unicode="𤅇" horiz-adv-x="1024" vert-adv-y="918" d="M921 333l-1 21-2 21-3 19v3h-1l-19-12-20-9-2-1V-45L809-77V242l-16-9-1-7-5-29-5-28-7-29-7-28-8-28-9-28-11-28L728 2 714-25l-9 3 4 30 4 29 4 28 4 28 3 27 3 28 2 28 1 25-26-20V-2L639-34V-2H574V-40L510-72V80l-3-10-21-12-24 6-12 21-2 23-2 21-2 21-3 20-3 19-4 19-4 18-4 17-4 17-6 16 8 5 12-13 11-14 12-16 9-17 10-18 9-20 7-21 7-22 7-22 2-9V256l64-32h65l33 27 58-48 1 28v22 17l64-15 14-10V348l-15-6-41-13-9-20-13 13-23 62 10 1 22 3 21 2 10 2 8 22 15 40 15 40 15 37 4 10-11-10-24 2-17 18-4 17-5 15-4 16-6 15-5 14-13 28-14 27-10 12 7 8 13-9 14-9 13-10 5-5 5 14 7 23 7 21 7 20 6 20 6 19 5 18 5 16 5 17 2 10h-1l5 13 58-29 11-16-22-5-6-11-9-16-9-17-11-17-12-18-12-18-13-18-14-19-11-15 10-12 11-13 11-15 10-16 10-16 9-17-1-12 2 6 14 35 13 33 12 32 11 30 11 29 3 7 56-32 11-16-20-3-5-9-14-29-16-31-17-32-17-33-19-35-20-35-21-36-23-37-7-11 13 2 20 3 21 4 21 3 22 4 21 3 4 1-9 38-10 37-7 18 8 5 13-15 14-15 11-18 11-18 9-19 9-20 7-21 7-22 6-23 5-23-8-23-21-12-24 8-12 21v21zM450 357l-2 19-13-8-19-11-2-1V-45L350-77V229l-3-2-2-8-4-30-7-29-7-28-9-29-9-28-10-27-12-27L274-5 258-31l-9 4 11 57 5 28 5 27 4 28 4 28 3 28 2 28 2 28v28l1 12 64-17v79l-15-6-21-7-21-7-9-20-13 14-23 61 10 2 52 7 6 18 13 38 36 101-16-14-25 5-15 19-2 17-3 17-4 16-4 16-5 15-6 14-6 15-7 14-8 15-10 13 7 7 14-10 14-10 13-11 8-8 1 4 5 22 5 22 6 21 5 22 12 43 6 22 5 22 4 17 1 4v1l3 8 59-28 12-15-21-5-10-22-9-21-10-21-11-20-10-21-12-19-12-20-12-19-6-9 6-7 10-15 10-16 10-17 8-18 7-19-2-15 1 3 14 39 13 38 14 38 13 40 12 33 4 13 58-30 11-16-20-3-8-19-17-38-34-76-18-37-19-36-19-37-20-36-21-35-4-6 12 2 21 3 21 4 21 4 21 4 19 4v1l-3 18-4 18-4 17-4 17-10 32-6 14 7 6 12-12 12-13 12-14 10-16 10-16 9-18 9-19 7-20 7-21 6-22-5-23-21-14-24 6-13 21-2 20zM165 121l-4 3 4-10 9-33 6-35 4-40 1-42-11-22-23-8-22 11-9 23 3 38V41l-2 32-4 28-6 25-9 22-10 20-12 18-15 16-19 15 4 9 25-6 24-12 19-16 2 5 8 27 11 35 13 42 15 50 18 58 21 65 23 74 26 80 10-2-16-84-15-75-14-67-13-59-11-51-9-44-6-35-6-28-2-19-1-11-7-32zm474 81H574V19h65V202zM914 83v22l-4 42-2 20-4 21-3 20-4 19-4 19-5 19 8 5 12-17 13-16 10-19 9-19 9-21 8-20 7-23 5-22 5-24 5-24-8-23-22-11-24 8-11 21V83zM646 396l43-38V337H525v21h87l34 38zM110 473l-4 10-4 11-6 10-6 11-8 11-8 10-10 11-11 11-13 9 4 8 15-6 16-4 15-6 14-7 13-8 13-9 12-10 11-12 10-12 9-13V463l-17-17H130l-17 16-3 11zm536 62 43-37V476H525v22h87l34 37zm15 162 54-49V627H513v21H617l44 49zM171 730l-3 10-4 10-6 10-6 10-7 11-9 11-9 11-11 12-13 10 4 8 16-7 15-5 15-7 14-7 13-8 12-9 11-10 11-10 9-11 9-13V721l-17-17H191l-18 16-2 10zm475 96 43-38V767H525v21h87l34 38z"/><glyph glyph-name="undefined" unicode="𤏐" horiz-adv-x="1024" vert-adv-y="918" d="M394 837l65-33H588l30 27 56-48-27-19V498l-59-30v51H459V-45L394-77V837zM780-24V-8h96l7 1 5 1 3 1 2 1 1 1 1 1 1 1 1 4V8l1 6V519H768V482l-59-30V834l59-30H898l32 27 59-48-26-22V14L962 1l-3-14-4-13-6-12-9-11-11-9-12-7-13-4-14-2-14-1v32L780-24zM293 97l-5 18-6 19-7 19-9 19-10 20-11 21-13 22-11 18-3-15-14-56-17-51-21-48-25-43L112 2 79-32 43-59l-6 7L64-18 88 19l22 39 18 42 16 45 12 50 9 52 7 57 3 60V847l64-10 17-11-17-10V551l7 10 13 20 13 19 12 18 11 16 11 16 9 16 6 9v1l2 3 1 1 3 3 48-42 6-18-21 2-24-24-15-14-16-16-17-15-17-16-19-16-13-10V428l-3-67-7-64-4-22 7-5 20-18 19-19 17-18 15-20 14-19 13-19 11-20 10-20 8-20-3-24-20-15-24 3-16 20-3 16zM550 418l65-32H742l32 27 59-49-26-21V40L742 8V72H615V8L550-25V418zM742 223H615V94H742V223zm0 141H615V244H742V364zM82 352l-25 3-14 20 2 24 10 15 8 17 8 20 6 21 5 24 4 26 3 28 3 31 1 32 1 35 10 1 10-34 7-33 4-31 2-31 1-29-2-27-3-26-5-25-8-24-9-22-19-15zM898 654H768V541H898V654zm-310 0H459V541H588V654zM898 783H768V675H898V783zm-310 0H459V675H588V783z"/><glyph glyph-name="undefined" unicode="𤑸" horiz-adv-x="1024" vert-adv-y="918" d="M921 3l32 135h11L953 3l20-13 13-19-13-19-20-13H776l-14 1-13 2-13 4-13 7-10 9-9 11-7 12-4 13-3 13V25 142H590l44-15 15-13-21-8-5-15-17-33-24-29L554 3 521-18 483-37 440-52 392-64l-52-8-58-4-1 9 55 15 49 16 43 17L465 0l31 20 26 21 20 23 14 23 10 25 5 26v4H513V78L449 46V470l64-32H823l33 27 59-48-27-22V110L823 78v64H754V18l2-5 1-4 2-3 5-1 5-1 7-1H921zM276 98l-4 18-6 18-7 19-8 20-9 20-11 21-12 21-9 16-2-13-13-56-17-51-20-48-24-43L107 2 75-31 41-59l-6 7L60-18 82 18l21 40 17 41 15 46 11 49 9 53 6 57 3 60V847l64-10 16-11-16-10V555l4 6 12 20 12 18 11 18 11 17 9 16 9 15 6 10 5 8 50-42 7-18-23 2-9-9-13-14-14-15-15-15-16-16-17-16-18-16-11-9V428l-3-67-7-64-4-23 6-5 19-17 18-19 17-19 14-19 14-19 12-20 10-19 10-20 8-20-4-24-20-15-24 3-15 20-3 17zM823 238H513V164H823v74zm0 89H513V259H823v68zm0 90H513V349H823v68zM78 353l-24 2-16 19 3 24 9 15 8 18 7 19 6 22 6 24 3 26 4 28 2 31 1 32 2 35 10 1 9-34 6-33 4-31 3-31 1-29-1-27-4-26-4-25-7-23-8-22-20-15zM417 492V428l-53-27V855l53-27H551l54 54 65-54V806H547V731h46l32 27 60-48-27-22V588l-65-32v43H547V514h34l44 48 54-48V492H417zm71 107H417V514h71v85zm415 21 65-53V545H690v22H850l53 53zM740 861l61-23 14-14-19-7-3-8-10-27-10-27-9-19H882l44 48 54-48V714H754l-4-8-14-22-14-21-16-20-17-18-19-15-7 6 10 21 9 22 10 21 9 22 8 23 7 23 7 25 6 25 5 26 3 22 1 4v1l2 10zM417 710V620H593v90H417zm71 96H417V731h71v75z"/><glyph glyph-name="undefined" unicode="𤓲" horiz-adv-x="1024" vert-adv-y="918" d="M113 799l59-30 13 4 40 11 39 11 37 10 36 11 34 10 33 11 31 11 30 11 29 12 3-9 48-42 1-16-22 9-9-3-31-9-32-8-17-4 9-95 10-103 12-95 13-88 13-80 15-71 16-63 17-56 19-47 20-39L528-4 516 19 497 66l-17 53-14 60-13 67-10 75-9 82-6 89-5 97-1 104 1 93-5-1-35-7-36-7-38-6-35-4 61-11 16-10-16-10V-45L270-77V760l-40-4-42-3-11-1V369l-3-61-4-59-7-53-9-51-10-47-14-43-15-39L98-19 77-49 55-75l-9 6L60-39 71-7 82 28l9 38 8 42 6 45 4 49 4 52v56 59V799zM792 105v16h64l7 1 4 1 5 2 2 2 1 1 1 4 1 5 1 6V750H671V-40L607-72V804l64-32H878l32 27 59-49-27-21V143l-1-13-2-14-4-13-7-12-9-11-11-8-12-7-13-5-13-2-14-1V89l-64 16zm-9 352-4 18-7 17-7 17-9 17-11 16-12 17-12 17-15 17-17 16 6 8 21-11 21-11 19-13 17-15 16-15 15-17 14-17 12-19 10-20 9-21-3-24-19-16-24 3-16 19-4 17z"/><glyph glyph-name="undefined" unicode="𤔐" horiz-adv-x="1024" vert-adv-y="918" d="M786-63 711-49 643-32 580-12 523 11l-2 1L477-5 406-26 331-43 253-56l-83-8-86-4-1 10 85 14 80 17L323-9l72 22 66 25 5 2-42 27-40 34-33 36-23 36H213v22H713l14 13 2-3 20 16 59-48-27-16-29-12-31-26-55-37-59-33-16-7 6-2 60-15 66-12 71-9 77-7 58-5-64-65-79 10zM689 173H343l24-20 37-28 41-25 46-23 31-12 1 1 58 31 53 34 49 36 6 6zm147 73-8 12-10 13-5 5-46-5-70-7-69-6-69-5-69-5-68-5-68-4-68-5-112-6-11-17-11 16-13 64h11l67 1h68 67l20 1 5 3 41 28 41 27 41 26 39 27 38 26 38 25 36 26 36 26 34 26 24-36 15-16 1-19-19 8-21-14-38-23-39-23-41-23-40-23-43-22-43-22-45-22-12-5 69 1H627l69-2 70-1 32-1-8 7-16 14-20 13-21 14-22 15-25 14 3 9 28-7 27-7 26-9 23-9 21-11 20-10 18-13 17-13 15-14 13-15 4-24-14-20-24-4-21 14-6 12zM350 361l-11 12-12 12-13 12-15 11-17 11-18 12-19 11-21 11-23 10 2 10 26-4 24-4 24-5 22-7 20-7 11-5 5 4 20 16 20 16 19 15 19 14 17 14 17 14 17 13 15 13 11 8-1 1 1-1 3 3H149l1-12-2-22-4-20-6-19-9-18-11-17-14-15-16-12-24-2-19 16-2 25 15 19 11 3 10 6 9 7 9 10 9 12 7 15 7 17 6 20 5 22 3 25h9l3-25 2-14H646l14 20 15 23 15 22 16 20 13 20 13 20 13 17 11 18 11 17 7 11 5 8 50-41 6-19-21 2-13-13-31-32-17-16-18-17-20-18-20-17-22-17-10-8H885l3 4 2 4 2-1 25 20 59-48-27-16-27-11-8-8-12-9-13-10-13-11-14-10-15-11-17-11-16-13-6 7 13 16 10 17 10 15 10 15 8 13 8 13 7 12 2 2H495l24-35 14-16 1-19-20 8-19-10-18-10-20-9-21-11-22-10-22-11-24-9-18-7 8-5 17-10 16-12 15-13 8-23-10-22-24-8-22 10-8 12zM265 645l-3 12-4 12-5 12-6 12-7 12-8 13-10 13-11 13-12 11 5 8 16-8 16-8 15-8 14-9 13-11 13-12 11-12 9-13 10-14 8-15-3-25-19-16-24 2-16 19-2 12zm222 10-2 13-4 12-5 13-5 12-7 13-8 13-9 12-9 13-12 11 5 8 15-8 16-7 15-10 13-9 12-11 12-12 11-13 10-14 9-15 7-15-2-25-19-16-25 3-16 19-2 13zM811 876l1-6 60-49 1-16-23 12-28-4-57-8-60-6-63-6-67-5-69-5-73-4-77-3-79-2-84-1-86 1-1 9 86 10 83 9 79 9 75 8 73 9 69 9 65 9 61 10 59 10 50 9 5 1z"/></font>
</defs>
</svg>
