<svg xmlns="http://www.w3.org/2000/svg"><defs><font name="Jigmo Regular" horiz-adv-x="1024" vert-adv-y="1024"><font-face font-family="Jigmo" font-weight="400" font-stretch="normal" units-per-em="1024" ascent="995" descent="169"/><glyph glyph-name="undefined" unicode="㬰" horiz-adv-x="1024" vert-adv-y="918" d="M862-41 810-19 761 8 716 40 675 76l-37 42-32 46-28 51-24 55-16 54-17-69-27-60-36-55-46-49-54-44L294 9 222-24 141-50 51-71l-3 9 86 31L210 3l67 37 56 40 47 43 38 47 28 49 20 54 10 51H216V260l-65-33V737l65-33H480V874l64-11 16-10-16-10V704H808l32 27 59-48-27-22V292l-64-32v64H550l24-44 31-49 33-44 34-39 37-35 40-29 41-25 45-20 48-16 50-12L981 1 918-58 862-41zM540 346H808V509H544V390l-4-44zM480 683H216V530H480V683zm328 0H544V530H808V683zM480 509H216V346H478l2 44V509z"/><glyph glyph-name="undefined" unicode="㬱" horiz-adv-x="1024" vert-adv-y="918" d="M186 361l65-32H767l33 27 59-48-27-22V-27L767-60V-6H251V-44L186-76V361zM767 151H251V16H767V151zm0 157H251V172H767V308zM257 438l10 3 19 3 19 3 13 3V594H252l-8-34-13-39-14-35-17-34-20-31-21-29-25-26-26-24-30-20-31-17-6 8 24 25 43 51 17 27 17 29 13 29 12 31 10 34 7 35 3 20H50v22H254V724H148l-14-21-14-17-45-47-8 6 10 19 31 76 13 37 5 18 5 18 4 19 3 8 58-29 13-15-22-5-8-17-11-19-6-10h92V869l64-11 17-11-17-9V745h33l53 54 65-54V724H318V616h65l54 53 64-53V594H383V466l64 18 57 14 4-8-50-31-49-26-45-22-59-25-8-21-14 13-26 60zm664 15 32 134h11L953 453l19-13 13-20-13-19-19-13H856l-14 1-13 2-13 5-13 6-10 9-9 11-7 12-4 13-2 13-1 14V594H704l-4-24-10-30-12-29-16-27-19-25-22-23-25-21-28-19-31-16-34-13-4 8 28 22 24 22 21 22 19 22 15 23 12 23 10 24 7 23 4 26 1 12H523v22H706V724H611l-15-21-14-17-45-47-8 6 10 19 32 76 12 37 5 18 5 18 4 17 3 10 59-29 12-15-21-5-9-17-10-19-6-10h81V869l64-11 16-11-16-9V745h32l54 54 65-54V724H770V616h86l54 53 64-53V594H835V467l1-5 1-5 1-1h1l2-1 3-1 5-1h72z"/><glyph glyph-name="undefined" unicode="㬲" horiz-adv-x="1024" vert-adv-y="918" d="M794-66 668-60 555-47 454-28 366-2 290 32 228 74l-3 2-30-49-31-37-36-29L88-59 45-71l-2 9L79-41l31 25 28 29 23 36 19 41 8 23-9 10-34 55-18 61 9 2 29-52 34-41 9 42 9 61 4 59H157L93 277V697l64-33h65V793H44v22H345l54 54 65-54V793H286V664h70l32 27 59-48-26-22V277l-65-32v65H281l-7-67-13-64-17-58-4-7 11-9 59-32 72-27 84-20 97-15L672 3 794 2 930 6l60 4-58-74-138-2zM919 345l-23-16V103h27l24 32 32-32V81H437v22h83V377l-50-41-26-19-7 7L539 468l14 21 38 67 53-38 8-17H631l-17-24-54-60-26-26 45-22H837l23 21-23 22-17 22-14 22-10 24-7 24-3 24v19H635v22H765l27 22 59-49-27-16-11-5 16-24 13-16 15-15 17-15 20-13 21-14 24-12 55-27-61-48-14 8zm-291 3H579V103h49V348zm106 0H682V103h52V348zm103 0H788V103h49V348zM283 331h73V487H286V390l-3-59zM222 643H157V509h65V643zm134 0H286V509h70V643zm434-89v-1h2l-2 1zM598 799l52-39 8-18-22 1-19-24-36-37-20-18-20-17-44-30-23-13-24-12-6 8 70 76 44 58 26 40 9 16h-1l6 9zM901 623l-25 17-22 18-19 19-16 21-13 22-11 22-6 24-3 24 1 19H625v22H766l26 21 59-48-27-16-11-6 3-6 12-16 13-16 15-14 16-13 18-13 20-12 23-10 56-25-61-50-27 16zM776 708l54-48V638H592v22H733l43 48zm15 107h-1 1zM222 487H157V331h64l1 59v97z"/><glyph glyph-name="undefined" unicode="曶" horiz-adv-x="1024" vert-adv-y="918" d="M179 334l64-32H781l32 27 59-48-27-22V-27L781-59V-5H243V-43L179-75V334zM781 138H243V16H781V138zm0 143H243V159H781V281zm15 99-20-14-11-6-23-10-24-6-12-2-13-1-12-1v33L573 389v16H689l17 2 15 4 8 3 7 3 14 9 7 5 8 8 9 13 9 19 10 24 8 29 7 33 7 40 5 43 4 49 3 41H712l-18-50-23-50-28-47-32-43-37-41-40-37-46-33-50-30-54-26-59-22-4 9 53 31 49 32 44 34 39 36 35 38 30 39 26 41 22 44 18 45 7 30H528l-25-41-25-36-30-35-32-32-36-31-38-29-42-27-44-25-49-22-51-21-4 9 46 29 43 30 39 29 37 31 33 30 30 32 27 32 24 34 20 33 5 10H332l-15-16-30-27-31-26-33-24-36-24-38-21-41-19-5 8 67 56 59 55 51 56 22 28 20 29 17 29 19 35 53-36 10-17-21-2-32-43-16-19H828l32 26 60-48-27-16-2-1-2-29-5-51-5-45-7-42-9-38-9-33-11-30-13-26-15-21-19-18z"/><glyph glyph-name="undefined" unicode="朂" horiz-adv-x="1024" vert-adv-y="918" d="M61 72l11 2 30 2 71 8V433H55v22H871l44 48 54-48V433H501V-45L437-77V101L377 82 251 48 177 31 111 16l-8-1L94-4 81 10 61 72zM890-18 871-34l-11-7-11-6-12-5-12-4-12-4-12-2-13-1-13-1v32L7e2-16V1h75 8l16 2 15 5 13 7 6 3 7 5 6 6 3 3 4 9 5 15 5 20 4 25 3 29 2 33 2 39 1 42v36H748l-6-43-13-51-16-47-21-44-26-39-30-34L602-8 564-33 522-52l-5 8 35 28 31 29 26 32 23 34 19 37 15 40 11 43 8 47 2 34H544v22H689v48 64l65-10 16-11-16-10V350l-3-48H875l32 26 59-48-27-16V244l-1-45-1-39-3-36-4-32-4-29-6-24-7-22L903-2 890-18zM437 208H238V93l180 23 19 2v90zm0 112H238V229H437v91zm0 113H238V342H437v91zM211 854l64-33H749l32 27 59-48-27-22V537l-64-33v43H275V531l-64-32V854zM749 674H275V569H749V674zm0 126H275V695H749V8e2z"/><glyph glyph-name="undefined" unicode="朄" horiz-adv-x="1024" vert-adv-y="918" d="M896 35 868 60 842 87l-25 28-23 29-20 30-18 31-16 33-12 33V-45L663-77V209l-23-33-30-38-32-35-35-34-37-31-40-28-43-26-45-22-5 8L412 1l70 64 33 33 29 35 27 36 25 37 22 39 20 41 7 18H540V240l-64-32V632l64-32H663V702H435v22H663V869l65-11 16-11-16-9V724H857l54 53 64-53V702H728V6e2H860l32 27 59-49-27-21V272l-64-32v64H732l35-50 21-28 45-50 49-46 27-21 77-51-60-46-30 23zM198 874l64-11 16-10-16-10V686h81l32 27 59-49-27-21V229l-64-32v64H262V-40L198-72V261H115V197L50 165V718l65-32h83V874zm0-403H115V283h83V471zm145 0H262V283h81V471zM663 578H540V326H663V578zm197 0H728V326H860V485l-15-2-35-59-33-48-12-15-12-16-8 5 6 18 10 37 11 36 4 18 6 17 10 34 4 17 3 7 57-31 4-6v81zM586 372l-4 35-5 32-7 30-8 28-4 14-6 12 8 6 10-10 11-10 11-12 9-13 19-29 8-16 15-34 6-18-4-25-20-14-24 4-15 20zM198 664H115V492h83V664zm145 0H262V492h81V664z"/><glyph glyph-name="undefined" unicode="朆" horiz-adv-x="1024" vert-adv-y="918" d="M131 307l65-32H397l33 27 59-49-27-21V-20L397-53V1H196V-37L131-69V307zM903-17l-7-11-9-10-9-9-11-8-11-6-13-5-13-3-13-2-13-1v32L696-24V-8H804l7 1 6 1 6 2 5 1 5 3 4 3 4 3 4 5 4 6 3 6 6 17 7 28 6 37 5 48 6 56 5 66 4 74 3 84 3 93 2 90H866l-10-84-16-88-18-82-23-76-27-70-30-65-35-59-39-52L625-5 579-43l-7 7L610 9l35 49 32 53 28 58 25 63 21 69 19 74 14 79 11 85 6 77H740l-7-52-11-57-14-55-16-53-20-51-22-49-25-46-28-44-30-41-34-38-8 5 25 44 23 44 21 46 19 46 16 48 15 50 12 52 9 53 7 55 4 43H629l-6-20-16-43-17-41-19-39-22-35-25-34-8 5 28 76 13 40 11 41 11 41 9 45 7 45 6 48 4 48 2 46 1 17 64-16 15-12-17-9-4-32-8-50-10-49-12-48-1-2H899l32 26 59-48-26-16-5-169-3-85-5-75-5-67-5-58-6-50-7-41-8-33L910-5l-7-12zM397 127H196V23H397V127zm0 126H196V149H397V253zM511 555l-9-7V345l-65-32v43H156V340L92 308V563L67 547 41 533l-6 8 37 43 16 22 4 4v13l6-3 20 30 13 24 11 23 10 24 9 26 7 26 3 8 59-28 12-15-21-5-17-36-14-26-17-24-18-23-19-22-1-1 21-10H437l15 12-9 9-18 23-16 26-12 26-9 27-6 29-2 30 2 25H215v22H361l26 21 59-48-26-16-15-7 8-18 11-24 13-21 14-19 16-18 18-16 19-14 21-14 24-12 26-14-60-48-4 3zM265 569H156V377H265V569zm172 0H329V377H437V494l-13-2-29-38-20-24-22-24-10-14-8 5 6 16 4 15 9 31 14 42 7 25 2 8 1 4 4 7 55-34v58zM197 424l-1 11-3 24-8 33-8 22-4 12-7 9 7 7 9-8 11-7 10-8 10-9 9-10 8-10 8-12 8-11 7-13 6-13-3-24-19-15-24 3-16 19zM387 804z"/><glyph glyph-name="undefined" unicode="朇" horiz-adv-x="1024" vert-adv-y="918" d="M109 289l65-33H383l32 27 59-48-27-22V-10L383-42V23H174V-42L109-74V289zM699 874l54-35 10-17-23-2-33-39-23-24-25-23-4-5H872l32 27 59-49-27-21V353l-64-33v65H746l-8-24-18-41-21-39-26-35-28-32-32-29-15-10H741V358l65-11 16-10-16-10V175h59l53 54 65-54V154H806V-40L741-72V154H494v21h82l22 25 25 33 21 33 19 35 15 37 12 38 2 9H610V320l-64-32V761l64-32h31l6 13 25 60 15 40 7 21 5 11zM383 128H174V44H383v84zm0 107H174V150H383v85zm57 379-10 16-29 35-81 83-30 29-41-65-52-70-58-67-25-25 38-19H415l32 27 59-48-27-22V316l-64-33v33H152L88 283V526L37 484l-7 7 56 71 51 71 45 72 41 72 18 37 19 43 56-33 10-17-20-2-7-12 39-23 28-17 49-35 58-49 15-16 14-16 5-24-13-21-24-4-21 12-9 14zM251 510H152V337h99V510zm164 0H316V337h99V438l-12-1-35-43-20-21-11-11-9-12-8 5 5 13 9 29 4 14 4 13 8 25 8 30v1l2 4 3 6 52-32v52zM187 389l-1 10-2 10-4 21-3 10-3 9-3 11-4 10-7 9 7 6 8-7 11-6 9-7 9-8 18-17 7-10 14-21 7-12-4-24-18-16-25 3-16 18v11zM709 546H610V406h87l3 11 6 43 3 45v41zm163 0H773l-3-45-7-49-10-46H872V546zM709 707H610V568h99V707zm163 0H773V568h99V707zM350 670l53-49V6e2H186v21H306l44 49z"/><glyph glyph-name="undefined" unicode="更" horiz-adv-x="1024" vert-adv-y="918" d="M833-50 744-35 663-16 590 10 526 40 471 77 451 94 415 54 361 12 3e2-22 231-48 155-67 72-76l-2 9 81 20 71 26L284 9l54 36 45 42 33 42-30 38-27 52-4 13-19-36-11-17-9-13 6-22-20 3-54 36 7 8 27 24 26 24 23 24 11 13 1 1 21 22 9 13 9-4-5-16-4-16-6-16-2-6 14-24 32-44 24-24 14 24 21 59 14 65 1 16H297V310l-65-33V697l65-33H490V772H98v21H861l54 54 65-54V772H555V664H759l33 27 59-48-27-22V294l-65-33v65H548l-4-27-19-72-28-65-21-33 20-15 53-29 61-24 68-20 77-14 85-10 92-5 62-2-64-69-97 9zM490 482H297V347H487l3 35V482zm65-102-1-2-4-31H759V482H555V380zM490 643H297V503H490V643zm269 0H555V503H759V643z"/><glyph glyph-name="undefined" unicode="𠑱" horiz-adv-x="1024" vert-adv-y="918" d="M351-25V-9H458h7l5 1 3 1 1 1 1 1 2 1v2l1 3 1 5 1 6V67H310l6-13 38-36 1-18-20 8L294-6 244-20 186-32l-31-5-33-4-35-4-37-1-1 9L176 7l76 30 40 21 16 9H286L222 34V188H55v21H480v43H275l-64-32V414l21-10V589h-8l-64-32V712L98 702l-64-7-2 10 175 51 102 35 90 36 79 39 30 17 5 2 9-16 26-26 89-25 83-21 44-9 45-8 47-9 47-7 49-6 54-8-64-62-50 10-21 5 20-16-27-22V589l-64-32 18-15-27-21V427l-64-32v32H297l-56-28 34-17H749l32 27 59-48-27-22V252l-64-32v32H544V209H913l24 32 32-32V188H776l53-44-27-21V67L749 40l48-7 27-5 49-11 22-6 22-6 18-17V-37L918-54l-24-1-40 17L760-2 705 16 645 38l2 9h33l31-2 27-3V67H544V12L543-2l-2-13-4-13-7-12-9-11-11-9-12-6-13-4-13-3-14-1v33L351-25zM738 144H286V88H738v56zM242 188l44-22H738l26 22H242zM749 306H275V274H749v32zm0 55H275V328H749v33zM727 485H297V449H727v36zm0 57H297V506H727v36zm73 47H761l39-32v32zm-554 0 51-25H727l30 25H246zm234 98H224V611H359l-2 3-4 6-12 13-9 7-31 21-13 8-15 5 3 9 16-2 15-1 14-1 14-2 24-4 23-6 10-4 10-5 11-22-8-24-3-1h78v76zm205 0H544V611h46l-3 6 15 8 26 20 56 41 1 1zm115 0H710v-1l36-35 1-18-21 9-5-2-13-3-12-4-14-3-14-4-44-10-17-3-9-2H8e2v76zm-84 59V728H308v15l-37-9-56-12-13-3 22-11H8e2l11 9-61 18-34 11zM546 822l-9 4-74-33-91-32-42-12H619l22 25-56 26-36 20-3 2z"/><glyph glyph-name="undefined" unicode="𣆉" horiz-adv-x="1024" vert-adv-y="918" d="M211 481l65-32H747l33 27 59-49-27-21V230l-65-32v43H544V141H856l54 54 64-54V120H544V-44L480-76V120H50v21H480V241H276V225l-65-33V481zm536-54H276V262H747V427zM198 860l64-33H762l32 27 59-48-27-22V532l-64-33v43H262V526l-64-32V860zM762 674H262V564H762V674zm0 132H262V696H762V806z"/><glyph glyph-name="undefined" unicode="𣌡" horiz-adv-x="1024" vert-adv-y="918" d="M822-37 810-15 796 8 780 31 768 46 678 30 546 9 415-10 216-36l-45-5-10-18-12 15-17 63 113 9 83 138 53 99 15 32 14 32 4 6 54-35 10-17-20-1-27-45-65-96-49-63-27-32-15-16L542 49l132 9 66 3 16 1-63 70-56 57 6 7 36-21 63-44 53-46 23-22 40-46L874-6l15-24 1-24-17-19-24-1-19 16-8 21zM480 863l64-10 16-11-16-10V686H775l33 27 59-49-27-21V310l-65-32v64H248V278l-64-32V718l64-32H480V863zM775 508H248V364H775V508zM248 664V530H775V664H248z"/><glyph glyph-name="undefined" unicode="𣌢" horiz-adv-x="1024" vert-adv-y="918" d="M480 460l64-11 16-11-16-10V-36L480-68V460zM263 315l56-32 11-16-21-3-22-39-40-54-47-50-26-24-28-22-30-21L84 35l-6 8 71 80 21 25 37 53 15 26 27 54 14 34zM849 96l-12 23-13 22-15 24-17 22-19 23-45 45-53 48 5 8 34-15 31-18 29-18 27-21 24-21 22-22 21-23 18-24 17-25 14-26V74L9e2 56H875L857 73l-8 23zM207 844l64-32H747l32 27 59-49-27-21V437l-64-32v64H271V405l-64-32V844zM747 630H271V491H747V630zm0 160H271V651H747V790z"/><glyph glyph-name="undefined" unicode="𣌣" horiz-adv-x="1024" vert-adv-y="918" d="M149 339l64-11 16-11-16-9V18H793l53 54 65-54V-3H213V-41L149-73V339zm439-16-19-12-2-18-13-38-19-34-5-6 48-9 67-18 60-21 52-25 23-14 21-14 11-22-7-23-22-11-24 7-15 14-38 29-48 28-57 29-83 36-10-12-32-28-38-26-44-23-50-20-56-17-61-14-3 9 58 24 51 24 45 26 37 25 31 26 25 27 18 27 12 28 6 27 1 29v13l64-13 16-10zM488 868l57-31 10-17-24-3-18-26-20-24-21-25-13-11H779l32 26 59-48-27-21V381l-64-33v65H245l-65-32V763l65-32H445l3 7 5 16 15 44 8 27 6 25 2 6h-1l5 12zM779 563H245V434H779V563zm0 146H245V585H779V709z"/><glyph glyph-name="undefined" unicode="𣌤" horiz-adv-x="1024" vert-adv-y="918" d="M773 203l41-50 2-20-20 7-33-25-56-34-61-30-66-28L510-1 435-22 356-40 271-54 181-64 87-70v9l92 17 87 19L347-5l77 22 71 25 66 27 61 30 55 32 50 34 46 38zM351 130v16H458h7l5 1 3 1 1 1 3 2 1 5 1 5 1 6V424l64-11 16-11-16-10V167l-1-13-2-14-4-13-7-12-9-11-11-9-12-6-13-5-13-2-14-1v32L351 130zM274 342l54-36 10-16-22-2-22-28-20-21-24-21-26-20-28-18-30-19-34-16-36-16-39-14-4 9 93 67 26 21 44 42 18 21 15 21 12 20 13 26zM887 191l-19 15-42 32-24 15-53 30-94 48 3 9 37-6 34-9 33-9 61-22 28-13 50-27 44-30 11-22-7-24-23-10-23 7-16 16zM203 832l64-33H757l32 27 59-48-27-22V469l-64-32v64H267V437l-64-33V832zM757 640H267V523H757V640zm0 138H267V661H757V778z"/><glyph glyph-name="undefined" unicode="𣌥" horiz-adv-x="1024" vert-adv-y="918" d="M734-27l-9-10-9-9-10-8-11-6-12-6-12-4-13-3-13-2H632v32L524-27v16H639l7 1 7 2 6 2 11 5 4 4 5 5 5 5 4 6 6 11 6 12 4 16 5 17 4 21 3 23 3 54v11l-1 42H467l-7-42-16-47-26-43-32-39-40-33L299-6 245-30 185-49 118-63 45-72 44-62l70 19 63 21L231 3l48 26 39 29 32 32 23 33 18 36 9 38 2 29H208v22H718l33 27 59-49-27-16v-7-32l-1-30-2-29-4-26-4-24-5-22-7-21-8-18-10-17-8-11zM310 458l54-37 8-17H351l-7-10-22-27-26-25-28-24-31-22-34-21-37-20-41-18-43-17-46-15-4 9 80 48 68 47 29 23 27 24 22 24 20 24 16 24 16 30zM895 226l-44 19-39 21-36 23-31 25-27 27-22 29-17 30-10 26-4-2v15l-3 23H371v21H639l26 22 59-49-27-16-6-3 15-20 20-23 24-21 26-20 30-18 33-16 37-15 41-14 87-24-62-56-47 16zM203 856l64-32H746l32 27 59-48-27-22V524l-64-33v65H267V491l-64-32V856zM665 467h-1 1zm81 213H267V577H746V680zm0 123H267V701H746V803z"/><glyph glyph-name="undefined" unicode="𣌦" horiz-adv-x="1024" vert-adv-y="918" d="M480 514l64-11 16-11-16-9V414H775l33 27 59-48-27-22V288h53l44 48 53-48V266H840V99L775 67v64H544V-34L480-67V131H163v22H480V266H55v22H480V393H173v21H480V514zM775 266H544V153H775V266zm0 127H544V288H775V393zM189 856l65-32H770l32 26 59-48-26-21V520l-65-32v53H254V504l-65-33V856zM770 671H254V563H770V671zm0 131H254V693H770V802z"/><glyph glyph-name="undefined" unicode="𣌧" horiz-adv-x="1024" vert-adv-y="918" d="M179 320l64-32H781l32 26 59-48-27-21V-22L781-54V0H243V-38L179-70V320zM781 133H243V22H781V133zm0 133H243V154H781V266zM663 371v16H770l6 1h5l4 1 1 1 1 1 1 1 1 2 1 3 1 5 1 7V568H652V394l-65-33V568H437V394l-65-33V568H232V362l-64-32V568H55v21H168V828l64-32H792l32 27 59-48-27-22V589h21l44 49 53-49V568H856V409l-1-14-2-13-4-14-7-12-9-10-11-9-12-7-13-4-14-3H770v32L663 371zM372 775H232V589H372V775zm215 0H437V589H587V775zm205 0H652V589H792V775z"/><glyph glyph-name="undefined" unicode="𣌨" horiz-adv-x="1024" vert-adv-y="918" d="M203 848l64-10 17-11-17-10V662h69l32 27 60-49-27-21V209l-65-32v64H267V-56L203-89V241H132V177L67 145V694l65-32h71V848zM833-30l-10-8-21-12-12-5-12-4-12-3-12-3-13-1-13-1v33L621-18V-2H728h9l15 3 15 4 7 3 13 8 7 4 6 6 15 18 15 29 13 38 12 50 10 59 7 69 4 78 3 87v98l-2 54-2-1v43H557l-34-56-25-36-26-35-28-33-30-31-8 6 62 112 38 76 33 80 16 42 14 41 13 44 3 8 58-28 13-15-20-5-28-67-39-81H875l33 27 59-49-26-15 2-80V454l-2-90-5-81-7-72-11-63-12-54-17-47L869 9 844-22l-11-8zM478 141l-32 58 315 99 40 11 4-9-70-40-134-65-102-45-5-20-16 11zM203 449H132V263h71V449zm133 0H267V263h69V449zm377 60 64-54V433H504v22H659l54 54zM203 640H132V470h71V640zm133 0H267V470h69V640z"/><glyph glyph-name="undefined" unicode="𣌩" horiz-adv-x="1024" vert-adv-y="918" d="M139 317l65-11 16-10-16-10V20H791l54 54 64-54V-2H204V-39L139-72V317zm445-18-20-11-2-15-13-36-20-33-3-2 9-1 37-7 36-8 32-9 61-19 52-23 23-12 21-13 12-21-6-24-22-12-23 6-16 13-18 13-44 27-26 14-58 27-83 34-11-12-32-27-39-23-44-21-50-19-56-15-63-13-2 9 58 23 52 23 45 23 39 25 32 24 24 26 18 24 12 26 6 24 1 26v13l64-13 17-11zM308 862l64-32H651l32 26 60-48-27-21V647h77l32 27 59-49-27-21V335l-64-32v65H231l-65-33V679l65-32h77V862zM793 497H231V389H793V497zM231 625V518H793V625H231zM651 808H372V647H651V808z"/><glyph glyph-name="undefined" unicode="𣌪" horiz-adv-x="1024" vert-adv-y="918" d="M421 299l32-31 44-39 47-37 49-34 39-24 81 78 46 50 28 35 46-45 5-18-20 3-37-31-40-29-20-13-22-13-23-12-24-11-6-2 55-30 59-28 62-25 66-23L1e3-13 937-68 866-43 799-16 735 15 675 48 619 83l-52 38-48 41-44 44-38 47-31 46H281V33L470 61l50 6 50 6 2-10-48-16-97-28L331-5 140-49l-26-6-8-19L93-60 71 2 216 23V299H71v21H480v92l64-11 16-11-16-9V320H856l54 54 64-54V299H421zM203 844l64-32H757l32 27 59-49-27-21V438l-64-33v54H267V421l-64-32V844zM757 625H267V481H757V625zm0 165H267V646H757V790z"/><glyph glyph-name="undefined" unicode="𣌫" horiz-adv-x="1024" vert-adv-y="918" d="M68-13 46 49l99 13 93 14 66 9 39 4V251H58v22H343V435l65-10 16-11-16-10V-41L343-74V69L279 46 216 26 156 9 90-8 82-27 68-13zM891 15l32 134h11L923 15 943 2l13-19-13-20-20-12H659l-14 1-13 2-13 4-12 7-11 9-9 10-7 13-4 13-2 13-1 14V435l64-10 16-11-16-10V236l183 67 77 31 3-9 48-41 1-17-21 9-10-3-26-7-56-15-92-19-33-6-33-6-35-3-6-1V37l1-7V25l1-3 1-2 2-1V18h2l3-1 5-1 7-1H891zM203 846l64-33H746l32 27 59-48-27-22V466l-64-32v64H267V434l-64-32V846zM746 645H267V520H746V645zm0 147H267V667H746V792z"/><glyph glyph-name="undefined" unicode="𣌬" horiz-adv-x="1024" vert-adv-y="918" d="M39-40v22H168V380l64-33H792l32 27 59-48-27-22V-18h31l44 48 54-48V-40H39zM388 326H232V-18H792V326H620V174v-5l1-3 1-2v-2l1-1 2-1 4-1 5-1 7-2h78l30 113h10L749 156l17-11 12-18-12-18-17-12H641l-14 1-13 2-13 4-12 6-10 9-9 10-7 12-5 13-2 13-1 14V326H453V277l-4-30-8-29-12-27-16-25-20-22-22-21-27-19-30-16-33-13-36-12-4 10 31 20 27 20 24 20 20 20 16 20 12 20 9 20 6 21 2 21v71zM220 844l65-32H733l33 27 59-49-27-21V438l-65-33v54H285V421l-65-32V844zM733 625H285V481H733V625zm0 165H285V646H733V790z"/><glyph glyph-name="undefined" unicode="𣌭" horiz-adv-x="1024" vert-adv-y="918" d="M199 303l64-32H756l32 27 59-49-27-21V-28L756-60V-6H263V-44L199-76V303zM756 121H263V15H756V121zm0 128H263V143H756V249zM227 542l65-32H732l33 27 59-48-27-22V347l-65-32v43H292V342l-65-32V542zm505-53H292V380H732V489zm144 70-48 21-47 23-45 25-44 28-42 31-41 32-38 35-36 38-11 14-20-21-42-40-45-38-47-35-49-33-53-29-54-27-57-24-60-21-62-18-3 10 57 26 109 58 50 31 47 32 45 35 42 36 40 39 37 40 37 44 48-43 6-18h-2l85-60 42-26 43-25 89-43 45-18 47-17 89-26-62-55-50 19zM625 674l64-54V599H318v21H571l54 54z"/><glyph glyph-name="undefined" unicode="𣌮" horiz-adv-x="1024" vert-adv-y="918" d="M243 484l65-11 16-11-16-9V210l-5-42-8-40-13-37-17-34-22-31L216-1 186-25 152-45 114-61 73-74l-4 9 36 22 32 22L164 3l23 24 19 26 15 28 10 29 8 31 4 34v35V484zm592 0 64-11 16-11-16-9V-37L835-69V484zM534 451l64-11 16-11-16-10V25L534-7V451zM102 127 80 139l-7 23 11 22 12 9 12 11 11 12 10 14 8 15 8 17 6 19 6 21 4 23 2 25 10 1 5-26 3-24 1-24-1-23-3-22-6-22-8-21-11-19-12-18-16-18-23-7zm612 54-1 14-2 15-4 15-11 33-17 36-9 19-13 19 7 6 34-30 15-15 14-16 12-16 11-17 9-17 8-17 7-18 5-18-7-23-22-13-23 8-12 21-1 14zm-301 0-1 14-2 15-4 15-11 33-17 36-10 19-12 19 7 6 34-30 15-15 14-16 12-16 11-17 9-17 8-17 7-18 5-18-7-23-22-13-24 8-11 21-1 14zM192 857l65-32H8e2l32 27 59-48-27-22V548l-64-32v32H257l-65-32V857zM8e2 676H257V569H8e2V676zm0 128H257V697H8e2V804z"/><glyph glyph-name="undefined" unicode="𣌯" horiz-adv-x="1024" vert-adv-y="918" d="M380 191l-8 8-9 9-10 8-24 17-29 18-16 9V-46L220-78V248l-18-29-44-58-25-27-27-26L77 84 45 62l-6 7 46 58 40 58 18 30 30 60 12 30 11 31 3 11H42v21H220V518l64-11 16-11-16-9V368h44l53 54 65-54V347H284V274h4l19-2 18-3 33-7 16-5 15-5 27-13 13-8 10-22-7-23-22-11-24 8-6 8zM501 508l65-32H754l32 27 59-49-27-21V35l2-5 1-5 1-1h1l2-1 3-1 5-2h93l32 135h11L958 20 978 8l12-20-12-19-20-13H840 826l-13 3-13 4-13 7-11 8-8 11-7 13-4 13-3 13V42 454H566V250l-5-45-8-43-12-40-17-38-21-33-25-31L448-8 415-31 378-51 336-67l-4 9 35 25L397-8l27 26 22 28 18 29 15 31 11 33 7 35 4 37v39V508zM206 864l64-32H754l32 27 59-49-27-21V556l-64-32v32H270l-64-32V864zM754 683H270V577H754V683zm0 127H270V704H754V810z"/><glyph glyph-name="undefined" unicode="𣌰" horiz-adv-x="1024" vert-adv-y="918" d="M870-42l-10-7-11-7-11-6-12-5-11-4-13-3-12-2-13-2H765v32L679-30v16h86l8 1 15 2 15 4 14 6L830 9l6 5 6 6 7 13 7 18 6 23 5 28 5 34 4 39 3 43 1 48 1 42H717l-4-47-11-58-18-52-24-48-30-44-37-38-42-32-49-28-53-21-59-16-3 9 54 26 47 28 42 30 34 33 29 37 23 39 17 43 12 47 7 51 1 41H477v22H653V470l65-11 16-11-16-9V330H881l32 26 59-48-27-16V264l-2-49-3-46-4-41-5-36-7-33-7-28L907 5 895-16 880-34l-10-8zM108 492l64-32H343l32 27 60-49-27-21V5L407-9l-3-14-4-12-6-13-9-11-11-8-13-7-12-4-14-3H322v32L225-33v16H328l5 1 3 1 2 2h1l1 1 1 2 1 3 1 5V5 159H172v-8l-2-36-5-33-7-30-9-28L137-1 123-23 107-41 89-57 70-68 48-76l-4 9L58-53 71-38 81-21 89-3l7 20 6 22 4 24 2 27 1 29-1 32V492zM343 302H172V181H343V302zm0 136H172V323H343V438zM208 860l65-33H751l32 27 60-48-27-22V510l-65-32v64H273V526l-65-32V860zM751 674H273V564H751V674zm0 132H273V696H751V806z"/><glyph glyph-name="undefined" unicode="𣌱" horiz-adv-x="1024" vert-adv-y="918" d="M873 398l59-28 12-15-20-5-18-46-31-62-33-57-39-52-42-48-45-43L666 4 614-28 557-55 496-76l-3 9 54 30L598-4l47 37 43 40 40 43 36 46 31 51 29 55 25 59 24 71zM127 52V-13L62-45V648l65-32h69V853l64-11 17-11-17-10V616h70V853l65-11 16-11-16-10V616h70l32 27 59-48-27-22V41L465 9V52H127zm69 290H127V73h69V342zm134 0H260V73h70V342zm135 0H395V73h70V342zm178-59v16h65 6l5 2 5 1 2 2 2 5 1 5v6V863l65-10 16-11-16-10V320l-1-13-3-13-4-13-7-13-8-10-11-9-13-7-12-4-14-3-13-1v33l-65 16zM627 654l62-21 14-13-19-8-2-12-19-64-11-31-13-31-29-58-16-29-19-27-21-26-8 5 32 91 10 30 16 60 7 30 6 31 5 31 3 26 2 16zM196 595H127V363h69V595zm134 0H260V363h70V595zm135 0H395V363h70V595zM923 444l-12 43-8 22-18 41-21 41-25 41-13 20 7 7 39-31 18-17 17-19 16-19 14-20 14-21 12-22 11-22 11-24-3-24-18-16-25 2-16 18z"/><glyph glyph-name="undefined" unicode="𣌲" horiz-adv-x="1024" vert-adv-y="918" d="M480 261l64-53V186H349l-7-30-14-36-19-33-22-31-28-28L228 2 193-22 153-42 110-61 62-76l-4 9 43 25 38 24L173 8l29 25 25 27 19 27 17 27 11 28 8 29 2 15H103v22H426l54 53zm193-27 65-10 16-11-16-10V-40L673-72V234zM203 869l64-32H757l32 27 59-48-27-22V574l-64-32v54H267V531l-54-27V310H363l53 53 65-53V288H213l-64-32V569l54-9V869zM896 328l30 113h11L926 328l18-11 12-18-12-18-18-12H636l-14 1-13 2-13 4-12 6-11 9-9 10-6 12-5 13-3 13v14V573l64-11 16-10-16-10V466H754l54 53 64-53V444H614V346l1-5v-3l1-2 1-2 1-1 2-1 3-1 6-1 7-2H896zM757 705H267V617H757v88zm0 111H267V727H757v89z"/><glyph glyph-name="undefined" unicode="𣌳" horiz-adv-x="1024" vert-adv-y="918" d="M179 340l64-32H781l32 27 59-48-27-22V-31L781-63v53H243V-47L179-80V340zM781 138H243V12H781V138zm0 149H243V160H781V287zM438 427l-2 11-4 11-3 9-48-16-35-9-72-18-144-32-15-3-8-19-14 14-21 63 11 1 63 8L337 675l45 57 47-44 6-19-20 3L296 554l-62-57-53-46 49 5 109 12 37 3 37 3h8l-8 14-22 28-13 15-15 14 5 8 19-11 18-9 17-10 16-11 14-11 13-12 11-13 10-14 9-14 6-15-4-24-19-15-25 4-14 20-1 9zm471-21-6 18-13 31-58-15-37-9-108-21-69-12-45-7-10-19-12 15-17 64 10 1 34 1 33 2L744 618l56 73 54 78 3 3 50-41 6-19-20 2-48-59-63-70-62-64-32-29-32-28-9-6 181 10 38 1 17 1-16 27-38 57-16 20 6 7 42-29 19-15 33-33 15-18 14-18 12-19 11-19 10-20-2-25-18-16-24 1-17 19-5 17zM2e2 598l-5 8-16 20-24 23-49 39-20 12 4 9 23-9 22-6 20-7 11-5 67 95 43 68 6 10-1 1 6 8 50-40 8-18-22 1-41-43-52-47-51-40 12-6 30-16 14-9 11-10 11-10 4-24-14-21-24-4-21 13-2 8zm453 10-9 12-23 25-29 26-54 40-21 13 4 9 24-7 24-7 22-8 20-8 3-2 53 75 23 36 32 54 2 3 51-39 8-18-21 1-30-33-32-33-35-30-19-15-14-9 18-10 17-10 30-24 14-12 7-24-11-22-24-7-22 12-8 12z"/><glyph glyph-name="undefined" unicode="𣌴" horiz-adv-x="1024" vert-adv-y="918" d="M765-24V-8H873l6 1 6 1 2 1 2 1 1 1 1 1 1 1 1 4 1 5v6V288H713l-4-30-9-56-12-51-14-48-18-43-20-40-23-35-27-30-29-25-7 7 20 31L588 1l16 35 14 38 12 42 9 46 8 49 5 52 3 57 1 60V826l64-33H894l32 27 60-48-27-22V14L958 1l-2-14-5-13-6-12-9-11-11-9-12-7-13-4-13-2-14-1v32L765-24zM135 58V-6L71-39V641l64-32h82V840l64-11 16-11-16-9V609h83V840l64-11 16-11-16-9V609h82l32 27 59-48-27-22V58L510 26V58H135zm82 283H135V80h82V341zm147 0H281V80h83V341zm146 0H428V80h82V341zm209 38-3-62-1-7H894V530H720V380l-1-1zM217 588H135V363h82V588zm147 0H281V363h83V588zm146 0H428V363h82V588zM894 772H720V552H894V772z"/><glyph glyph-name="undefined" unicode="𣌵" horiz-adv-x="1024" vert-adv-y="918" d="M888-22 845 9 805 45 769 87l-6 8-35-37-52-42-56-36-62-27-65-19-3 10 60 28L604 5l50 38 46 44 37 46-30 55-27 59-23 65-19 71-14 72-20-118-22-90-25-82-31-74-34-65-40-56-43-45-7 7 34 50 30 58 28 65 23 72 21 81 17 88 13 97 10 105 6 114 1 110H496v21H825l32 27 59-48-27-16-8-4-40-276h33l33 27 59-48-27-16-7-3-16-60-28-78-32-70-38-63-20-27 13-16 35-34 37-29 38-22L996 6 935-46 888-22zM109 25V-40L50-69V619l59-30h52V826l54-11 13-11-13-9V589h53V826l54-11 14-11-14-9V589h51l30 27 56-48-27-19V25L373-5V25H109zm52 290H109V46h52V315zm107 0H215V46h53V315zm105 0H322V46h51V315zM871 455H636l24-65 27-67 29-60 30-53 21-32 9 13 31 61 27 67 23 73 14 63zM161 568H109V337h52V568zm107 0H215V337h53V568zm105 0H322V337h51V568zM823 772H650l-5-113-10-115-8-68H777l46 296z"/><glyph glyph-name="undefined" unicode="𣌶" horiz-adv-x="1024" vert-adv-y="918" d="M556 25V-40L491-72V621l65-32h68V826l65-11 16-11-16-9V589h68V826l65-11 16-11-16-9V589h68l33 27 59-48-27-22V-8L890-40V25H556zM381-19 362 88l-1 4-76-39-90-40-74-31-6-20-15 12L71 33l10 3 66 16 10 63 25 143 23 148 13 97 3 16 61-21 15-13-19-7-16-82-23-99-25-96-29-93-17-46-2-5L307 96l51 13-19 84-26 103-7 34 8 4 18-31 17-32 29-66 25-68 22-71L444-6l-5-25-21-14-24 6-13 20zM624 315H556V46h68V315zm133 0H689V46h68V315zm133 0H822V46h68V315zM147 718l62-21 14-13-18-7-17-73-13-44-14-42-15-41-17-39-19-37-19-35-22-33-24-31-8 5L78 415l13 38 22 79 10 42 8 43 8 45 8 56zM624 568H556V337h68V568zm133 0H689V337h68V568zm133 0H822V337h68V568zM409 386l-17 34-15 37-14 39-12 40-9 43-8 45-6 47-3 49v47H191v21H304l26 22 59-48-26-16-19-10 15-60 13-44 13-42 14-38 15-37 16-34 18-31 18-29 20-26-57-42-20 33zM330 772z"/><glyph glyph-name="undefined" unicode="𣌷" horiz-adv-x="1024" vert-adv-y="918" d="M4e2-26l-9-9-10-9-10-7-12-7-12-5-11-4-13-2-13-2-13-1v32L211-24V-8h86l7 1 8 1 13 3 6 3 5 3 6 4 5 4 10 12 6 14 4 14 3 19 2 22 2 26v30 34 26h-2v43H257l-1-19-7-43-11-41-14-39-17-36-21-34L162 9 134-19 103-44 68-65l-5 8L89-28 113 0l21 30 17 31 15 31 12 34 8 35 6 37 3 39V358H66v22H238V482l64-11 16-11-16-9V380H420l44 48 53-48V358H259l16-11-16-9V277v-5H372l32 27 60-48-26-16V221l1-38V148l-1-32-2-29-2-26-4-23-5-20-7-18-9-16-9-10zm75-5V-9H686V255H509v22H686V482l65-11 16-10-16-10V277h75l54 54 65-54V255H751V-9h92l54 54L961-9V-31H475zM208 860l65-33H740l33 27 59-48-27-22V510l-65-32v64H273l-65-32V860zM740 674H273V564H740V674zm0 132H273V696H740V806z"/><glyph glyph-name="undefined" unicode="𣌸" horiz-adv-x="1024" vert-adv-y="918" d="M454 3 422 47 357 24 243-11 172-30l-34-9L96-49 87-68 74-54 52 8l77 11V456l65-32H430l33 27 59-48-27-22V181l-65-32v32H194V28L350 52l60 8-19 18-55 46-21 15 4 8 25-8 24-8 24-11 21-10 21-13 18-13 19-14 16-14 30-32 4-24-13-21-24-4-21 13-9 15zM770 40V56h64 6l5 2h4l1 1 2 2 1 2 1 3 1 5 1 6V403H660V-44L595-76V456l65-32H856l32 27 59-48-27-22V77l-1-13-2-13-4-13-7-13-9-10L886 5 874-1 861-5 847-8 834-9V24L770 40zM430 294H194V203H430v91zm0 109H194V315H430v88zM208 860l65-33H751l32 27 60-48-27-22V521l-65-32v53H273V505l-65-32V860zM751 674H273V564H751V674zm0 132H273V696H751V806z"/><glyph glyph-name="undefined" unicode="𣌹" horiz-adv-x="1024" vert-adv-y="918" d="M1e2 25V-40L41-69V619l59-30h68V826l54-11 14-11-14-9V589h71V826l54-11 13-11-13-9V589h68l30 27 56-48-27-19V-8L415-37V25H1e2zM906 46 970-8V-29H505V-8H852l54 54zm9 791 64-54V761H776l42-21 12-15-20-4-43-104-22-46 22-3 16-11-16-10V52L703 19V489l-25-43-33-54-35-50-36-48-38-46-41-43-7 6 63 99 59 103 55 110 25 57 46 119 21 62H5e2v22H861l54 54zM168 315H1e2V46h68V315zm125 0H222V46h71V315zm122 0H347V46h68V315zm491 4-8 20-9 19-9 17-12 17-13 17-30 31-18 16-19 14 4 9 24-8 23-9 22-11 20-14 19-15 18-17 16-19 15-20 12-22 12-24-2-25-18-17-25 2-17 18-5 21zM168 568H1e2V337h68V568zm125 0H222V337h71V568zm122 0H347V337h68V568z"/><glyph glyph-name="undefined" unicode="𣌺" horiz-adv-x="1024" vert-adv-y="918" d="M728 171l44 30V707l59-10 15-11-15-9V240l59 37 11 7V869l65-11 16-11-16-9V-45L901-77V250l-42-45-50-49-17-15 2-21-19 6-47 45zM123 52V-13L64-42V646l59-30h69V853l54-11 13-11-13-9V616h72V853l54-11 13-11-13-9V616h72l27 27 53-48-27-17V19L444-8V52H123zm69 290H123V73h69V342zm126 0H246V73h72V342zm126 0H372V73h72V342zM696 729l54-48-27-17V175l-53-27v60H607V143l-54-27V729l54-27h63l26 27zm-26-48H607V229h63V681zM192 595H123V363h69V595zm126 0H246V363h72V595zm126 0H372V363h72V595z"/><glyph glyph-name="undefined" unicode="𣌻" horiz-adv-x="1024" vert-adv-y="918" d="M835 514l64-11 16-11-16-9V-45L835-77V514zM205 184l-5-37-6-34-9-32-11-30-13-27L147-1 130-22 111-40 91-55 68-65l-5 8L77-39 90-21 101-2l10 21 9 23 7 25 5 27 5 29 2 31 2 34V509l65-11 16-11-16-10V186l-1-2zM720 55 708 77 694 98l-16 21-19 20-21 20-23 19-54 38-11 7V-18L485-51V209l-24-31-24-28-27-27-29-27-31-25-34-24-35-22L243 5l-5 8 60 56 54 56 46 57 20 29 19 29 16 30 2 5H226v21H485V524l65-11 16-10-16-10V296H690l54 54 64-54V275H550V240l20-6 33-12 30-14 29-17 26-17 25-20 22-21 20-23 18-24 15-26 1-24-17-18-24-1-19 16-9 22zM710 516l51-40 7-17-21 1-26-29-49-50-37-34-43-35-7 7L689 480l18 32 3 4zM365 357l-4 13-5 14-8 14-9 15-11 15-27 31-15 17-19 16 5 8 44-22 20-11 18-13 31-27 26-30 10-16 8-17-2-25-19-16-24 3-16 19-3 12zM176 863l65-32H773l32 27 59-48-27-22V546l-64-33v65H241l-65-32V863zM773 694H241V599H773v95zm0 116H241V716H773v94z"/><glyph glyph-name="undefined" unicode="𣌼" horiz-adv-x="1024" vert-adv-y="918" d="M901 208l-48 20-44 21-25 14 20-17-27-21V-36L713-68v53H289V-52L225-84V252l-41-18-45-16-47-14-51-12-3 9 91 43 78 44 34 23 31 23 28 24 25 24 21 25 16 21 1 2H259V366l-64-33V726l64-32H480v63H82v22H480v93l64-11 16-11-16-9V779H835l53 54 65-54V757H544V694H765l32 27 59-48-27-22V409l-64-33v54H624l32-26 30-23 34-21 34-21 39-19 83-33 47-15 92-26-63-56-51 18zM713 116H289V7H713V116zm0 130H289V137H713V246zM375 430l42-35 7-19-21 2-10-11-28-27-30-24-34-23-28-17 16-8H713l26 22-46 33-32 28-28 30-24 32-10 17H375zM480 557H259V452H480V557zm285 0H544V452h53l1 1 1-1H765V557zM480 673H259V578H480v95zm285 0H544V578H765v95z"/><glyph glyph-name="undefined" unicode="𣌽" horiz-adv-x="1024" vert-adv-y="918" d="M50-51v21H372V269H82v21H480V401H249V363l-65-32V718l65-32H480v75H66v22H480v86l64-11 16-11-16-9V783H829l54 54 64-54V761H544V686H765l32 27 59-49-27-21V380l-64-33v54H544V290H824l54 54 64-54V269H652V-30H856l54 54 64-54V-51H50zM587 269H437V-30H587V269zm274-49 49-42 7-18-21 2-50-47-38-32-42-31-47-29-6 7 83 1e2 41 54 24 36zM214 61l-6 14-16 30-24 30-48 49-20 16 5 8 47-21 21-11 20-13 34-27 15-15 14-16 11-16 11-17-1-25-17-17H235L218 47l-4 14zM480 535H249V423H480V535zm285 0H544V423H765V535zM480 664H249V557H480V664zm285 0H544V557H765V664z"/><glyph glyph-name="undefined" unicode="𣌾" horiz-adv-x="1024" vert-adv-y="918" d="M896 35 868 60 842 87l-25 28-23 29-20 30-18 31-16 33-12 33V-45L663-77V209l-23-33-30-38-32-35-35-34-37-31-40-28-43-26-45-22-5 8L412 1l70 64 33 33 29 35 27 36 25 37 22 39 20 41 7 18H550V240l-64-32V632l64-32H663V702H435v22H663V869l65-11 16-11-16-9V724H857l54 53 64-53V702H728V6e2H845l32 27 59-49-27-21V272l-64-32v64H732l35-50 21-28 45-50 49-46 27-21 77-51-60-46-30 23zM198 874l64-11 16-10-16-10V686h81l32 27 59-49-27-21V229l-64-32v64H262V-40L198-72V261H115V197L50 165V718l65-32h83V874zm0-403H115V283h83V471zm145 0H262V283h81V471zm320-32H550V326H663V439zm182 0H728V326H845V439zM663 578H550V460H663V578zm182 0H728V460H845V578zM198 664H115V492h83V664zm145 0H262V492h81V664z"/><glyph glyph-name="undefined" unicode="𣌿" horiz-adv-x="1024" vert-adv-y="918" d="M744 82H274V-6H744V82zm0 110H274V103H744v89zM381 332l-35-24-53-32-57-27-18-8 56-28H744l24 20-57 5-93 13-84 19-76 25-65 29-12 8zm93 182H277l-17-22-5-6 20-27 39-36 45-32 10-5 32 31 34 39 29 41 10 17zM293 535H485l4 6 1-1 27 22 60-48-27-16-17-7-19-28-35-44-40-41-20-16 56-20 71-18 81-14 19-2V595l65-11 16-11-16-10V491h35l28-1 51-3 43-4 37-6 16-2 18-16 2-25-16-18-25-3-12 6-15 6-35 13-68 20-27 7-29 9h-3V337l-58-29 64-7 99-4H925l64 1-63-72-112 4-27 2 49-40-27-22V-39L744-71v43H274V-44L209-76V238l-34-14-65-20-70-17-3 9 66 27 61 28 57 30 52 31 47 33 17 14-45 41-34 46-13 29-35-34-28-24-30-23-32-23-36-20-38-18-4 8 87 79 25 26 45 52 35 53 14 26 12 27 3 6 55-34 10-17-21-2-6-10-8-12zM203 879l64-32H746l32 27 59-49-27-21V605l-64-32v53H267l-64-32V879zM746 726H267V648H746v78zm0 99H267V747H746v78z"/><glyph glyph-name="undefined" unicode="𣍀" horiz-adv-x="1024" vert-adv-y="918" d="M86 25V-40L27-69V619l59-30h56V826l54-11 13-11-13-9V589h58V826l54-11 14-11-14-9V589h57l29 27 57-48-27-19V25L365-5V25H86zM896 43 871 69 847 96l-22 29-21 31-18 32-16 33-15 36-12 37-3 9V-26L676-58V241l-20-38-24-38-25-37-28-34-30-32-32-30L483 5 446-19l-6 7 56 64 26 33 24 34 22 35 21 36 19 37 16 40 15 40 7 21H456v21H676V480l64-11 17-10-17-10V349H846l54 54 64-54V328H747l36-57 41-59 21-27 46-48 24-22 25-21 27-19 15-12-58-44-28 24zM142 315H86V46h56V315zm112 0H196V46h58V315zm111 0H308V46h57V315zM142 568H86V337h56V568zm112 0H196V337h58V568zm111 0H308V337h57V568zM523 846l65-32H835l32 27 59-49-26-21V473l-65-32v64H588V441l-65-32V846zm312-54H588V527H835V792z"/><glyph glyph-name="undefined" unicode="𣍁" horiz-adv-x="1024" vert-adv-y="918" d="M82 831l64-32H388l33 27 59-49-27-21V616l-58-29 8-15 34-34 1-18-20 8-69-30-26-10-5-1V352l22 5 40 65 76-37 4-21-142-34V198l49 12 39 66 76-36 5-21-169-44V34l1-4 1-4 1-2V23l1-1 2-2 4-1 5-1 7-1H929l29 113h11L958 17 976 5l12-18-12-18-18-11H340 326l-13 2-13 5-12 5-10 9-10 10-6 12-5 13-3 13V41 159L132 127l-4 21 126 33V314L149 289l-5 21 110 26V467l-39-10-28-4-29-2-2 9 123 61 93 53 16 10v32H146V562l-2-96-4-90-6-82-7-75-9-67-11-61L94 38 80-8 63-45 43-74l-8 5 8 31L52 1l8 45 7 51 5 59 5 67 3 74 2 81v89 95V831zM563 109V71L503 41V662l60-29h68V851l54-11 13-10-13-9V633h71V851l53-11 14-10-14-9V633h69l29 27 57-49-27-19V87L878 58v51H563zm68 268H563V130h68V377zm125 0H685V130h71V377zm122 0H809V130h69V377zM631 611H563V399h68V611zm125 0H685V399h71V611zm122 0H809V399h69V611zM388 777H146V638H388V777z"/><glyph glyph-name="undefined" unicode="𣍂" horiz-adv-x="1024" vert-adv-y="918" d="M549 25V-40L490-69V619l59-30h74V826l64-11 16-11-16-9V589h71V826l65-11 16-11-16-9V589h71l32 27 59-48-27-22V-8L894-40V25H549zM422 423l-19 15-29 51-25 37-65 82-1 1-40-79-26-44-26-42-30-40-18-23 57-29H371l29 27 57-48-27-19V18L371-11V51H2e2V-14L136-46V371l-36-41-34-34-35-30-7 6 54 76 50 78 46 84 21 44 39 93 20 56 58-30 11-16-19-3-13-29 51-35 39-34 35-34 15-17 27-35 3-24-14-20-25-3zM623 315H549V46h74V315zm135 0H687V46h71V315zm136 0H823V46h71V315zM371 331H2e2V72H371V331zM623 568H549V337h74V568zm135 0H687V337h71V568zm136 0H823V337h71V568zM172 837l59-28 12-15-20-5-14-30-27-52-32-54-18-28-43-56-24-28-8 6 70 153 20 55 9 25 7 25 5 19 4 13zM416 684l-7 16-18 31-11 15-24 30-29 31-17 16 5 8 42-20 19-11 18-11 17-13 16-14 29-31 12-17 12-17 1-24-16-19-25-1-18 16-6 15z"/><glyph glyph-name="undefined" unicode="𣍃" horiz-adv-x="1024" vert-adv-y="918" d="M716 874l65-11 16-10-16-10V686H894l32 27 60-49-27-21V229l-65-32v64H781V-40L716-72V261H6e2V197l-64-32V718l64-32H716V874zM434 66 414 79l-31 48-24 32-26 30-29 30-7 6V-34L233-67V179l-28-52-24-37-25-35-27-31L101-4 70-28 38-49l-6 8L57-13l44 59 21 32 20 35 19 38 18 39 31 87 8 27H129V240L65 208V627l64-32H233v91H36v21H233V858l64-11 17-10-17-10V707h95l54 54 64-54V686H297V595H402l32 26 59-48-27-21V283l-64-32v53H297V239l36-15 19-11 19-11 17-12 18-14 31-28 30-32 4-25-13-20-24-5zM716 471H6e2V283H716V471zm178 0H781V283H894V471zM159 399l-1 15-6 27-4 14-5 14-12 27-2 3V326H233V573H129V523l19-12 12-11 13-12 11-13 10-14 9-15 8-16 6-17 6-17-6-25-21-12-24 5-13 21v14zM402 573H297V326H402V483l-10-1-41-63-20-28-11-14-10-15-8 4 5 17 3 17 4 17 4 17 24 79 3 10-1 1 5 11 53-32v70zm314 91H6e2V492H716V664zm178 0H781V492H894V664z"/><glyph glyph-name="undefined" unicode="𣍄" horiz-adv-x="1024" vert-adv-y="918" d="M854-38 829-20 773 12 710 42 640 68 565 95l1 9 42-2 39-6 39-7 37-9 36-10 34-12 32-13 32-15L916-4l12-21-5-24-22-12-23 5-24 18zM560 277l-18-11-2-21H817l44 49 54-49V224H537l-14-53-17-33H845l54 53 65-53V116H495L465 76 423 38 373 7 316-18 251-37 178-49 98-55v9l76 17L243-9l59 24 50 27 42 32 33 35 4 7H216V1e2L152 68V277l64-32H478l2 43v13l64-13 16-11zm-85-53H216V138H445l6 9 17 42 7 35zM708 874l42-49 3-19-22 7-36-21-46-22-16-6-17-5-6-3H786l32 27 60-49-27-21V611l-65-33v43H544V530H770l32 27 59-48-26-22V304l-65-32v32H249l-65-32V562l65-32H480v91H152v22H480v91H152v22H598l-3 4 14 11 69 69 25 29h-1l6 5zm62-473H249V326H770v75zM249 509V423H770v86H249zM786 734H544V643H786v91zM376 765l-35 41-51 49-12 7 4 9 14-4 14-4 15-4 14-5 28-11 27-15 13-7 13-9 10-22-8-23-23-11-23 9z"/><glyph glyph-name="undefined" unicode="𣍅" horiz-adv-x="1024" vert-adv-y="918" d="M387 354h-1l2 6 3 7 57-30 11-17-22-3-14-25-32-48-25-34-6-8 10-20 23-38 24-35 27-33 29-30 42-36-58-44L424 0 395 36 368 75l-23 42-21 44-17 46-14 49-11 52-6 53-1 24-21-44-19-33-21-33-3-3h4V58l54 22 54 19 5-8-22-19-46-33-92-59-49-30-3-20-17 9L61-8 71-3l80 34V199l-12-12-29-27-31-25-33-22-6 7 49 60 45 60 17 27v5h3l17 30 16 32 15 32 13 33 4 13H54v21H238V568H122v21H238V713H83v21H238V869l64-11 16-11-16-9V734h47l54 54 64-54V713H302V589h18l54 54 64-54V568H302V433h68l54 54 64-54V412H287l-1-4 28-93 16-47 17-39 11 32 17 52 10 32 2 9zM584 25V-40L525-69V619l59-30h68V826l54-11 14-11-14-9V589h71V826l54-11 13-11-13-9V589h68l30 27 56-48-27-19V-8L899-37V25H584zm68 290H584V46h68V315zm125 0H706V46h71V315zm122 0H831V46h68V315zM652 568H584V337h68V568zm125 0H706V337h71V568zm122 0H831V337h68V568z"/><glyph glyph-name="undefined" unicode="𣍆" horiz-adv-x="1024" vert-adv-y="918" d="M170 337l65-33H778l32 27 60-48-27-22V-13L778-45V19H235V-45L170-77V337zM778 151H235V41H778V151zm0 132H235V173H778V283zM161 476l-2-16-5-27-6-25-10-25-10-23-14-21-15-20-17-18-19-17-21-15-7 7 14 20 12 21 10 20 9 20 7 21 5 20 4 22 2 22 1 22-1 23V659l65-32H415l32 27 45-37 19 10 20 14 16 14 13 14 11 15 8 14 5 15 3 15 1 17-1 16V874l65-32H781l32 27 59-49-27-21V718v-6-6-3-3l1-2 1-2 3-2 3-2 6-2 8-1h56l24 70h11l-11-70 15-10 10-15-10-14-15-10H853l-12 2-12 3-12 5-11 8-9 10-7 12-5 12-3 13-1 13V820H652V761l-4-24-7-23-10-22-13-19-15-17-18-14-20-12-22-10-25-7-16-4 5-4-27-21V476l-65-32v32H161zM874 328l-49 14-45 17-40 21-36 25-10 9-46-12-59-11-65-7-71-3-1 9 69 14 62 15 56 17 25 9-16 20-20 34-14 38-8 36H550v22H835l32 26 59-48-27-16-12-5-6-13-24-33-31-28-36-24-37-18 13-7 36-15 41-11 44-9 103-13-64-63-52 10zM828 573H619l15-27 21-30 23-26 26-24 4-2 21 10 35 22 28 23 20 24 14 25 2 5zM259 605H163V498h96V605zm156 0H324V498h91V605zM82 675v22H259v75H44v21H259v81l65-11 16-10-16-10V793H457l44 49 54-49V772H324V697h85l44 48 54-48V675H82z"/><glyph glyph-name="undefined" unicode="𣍇" horiz-adv-x="1024" vert-adv-y="918" d="M794-66 668-60 554-47 453-28 364-2 288 32 225 74l-4 4-29-51-31-37-34-29L88-59 45-71l-2 9L78-41l31 25 26 29 23 35 19 41 7 25-9 9-34 55-19 61 9 2 29-52 34-40 9 41 8 61 4 59H152L87 277V697l65-33h64V793H44v22H335l53 54 65-54V793H281V664h64l33 27 59-48-27-22V277l-65-32v65H277l-8-67-13-64-17-58-3-7 12-9 60-32 72-27 85-20 97-15L672 3 794 2 930 6l60 4-58-74-138-2zM899 92l-33 46-28 52-11 27-29-53-34-49-36-41-40-34-6 7 30 40 28 44 27 50 25 56 13 36-13 37-18 69-14 74-10 80-7 86-1 77H690V60L626 27V232l-23-14-104-59-4-22-16 10-37 55 10 4 43 15V783H458v21H666l44 49 54-49V783H690V717H896l32 27 59-48-27-16-4-2-11-73-19-90-20-84-23-77-26-69 7-16 26-51 30-45 30-38 32-31 11-9-58-43-36 40zM626 405H560V240l11 3 42 10 13 2V405zM278 331h67V487H281V390l-3-59zM894 696H754l12-75 15-83 18-77 19-71 13-36 22 90 17 82 14 89 10 81zM626 604H560V427h66V604zM216 643H152V509h64V643zm129 0H281V509h64V643zM626 783H560V625h66V783zM216 487H152V331h64v59 97z"/><glyph glyph-name="undefined" unicode="𣍈" horiz-adv-x="1024" vert-adv-y="918" d="M712 166l46-45 5-19-21 4-45-39L623 9 585-18H845l54 54 65-54V-39H60v21H576l-3 3L699 149l11 15 2 2zM376 24l-4 11-6 12-17 27-54 64-18 17 5 7 62-35 34-23 15-13 13-11 12-13 11-13 9-13V16L422-2H397L379 15l-3 9zM201 455l64-32H758l32 27 60-48-27-22V178l-65-32v32H265l-64-32V455zM758 293H265V199H758v94zm0 109H265V314H758v88zM706 867l64-11 16-10-16-10V771h48l54 54 65-54V749H770V660h58l44 48 54-48V638H770V548h96l44 49 54-49V527H770V462l-64-32v97H534v21H706v90H560v22H706v89H550v22H706v96zm-452 0 64-11 17-10-17-10V771h38l54 54 64-54V749H318V660h48l44 48 54-48V638H318V548h80l44 49 54-49V527H318V462l-64-32v97H60v21H254v90H98v22H254v89H87v22H254v96z"/><glyph glyph-name="undefined" unicode="𣍉" horiz-adv-x="1024" vert-adv-y="918" d="M701 527H9e2l4 5h2l26 22 60-49-27-16-17-7-29-37-33-37-39-39-44-38-13-10 47-8 44-19 35-24 27-27 20-28 11-30 6-27V131l-4-23-8-20-8-12-8-10-9-9-11-8-10-7-12-6-12-4-13-3-13-2-13-1V59L794 75V91h65l14 1 6 2 6 2 5 2 5 4 9 8 5 5 8 12 4 12 2 16-1 18-6 21-10 22-18 23-27 24-36 24-46 26-7 6 92 137 22 40 5 9H701V-32L637-65V559l64-32zM188-11V5h86 6l5 1 3 2h3V9l1 1 1 2 1 3 1 5v6V83L121 59 91 55 81 37 70 52 52 115l11 1 52 4 104 6 53 4 23 2v50l56-9 51 35 15 8H81v22H453l31 18v-2l13 10 59-48-27-16-64-27v10l-28-9-36-10-33-8-8-5V135l73 5 55 2 55 3 56 1 1-10-55-12-54-10L384 96l-24-3V26l-1-13-2-14-5-12-6-13-9-11-11-8-12-7-13-4-13-3-14-1v33L188-11zM135 440l64-32H456l32 26 59-48-26-22V289l-65-32v32H199l-64-32V440zm321-54H199V311H456v75zM53 448v21H295V571l65-10 16-11-16-10V469H505l44 49 53-49V448H53zM168 873l64-33H792l32 27 59-48-27-22V606l-64-32v32H232V569l-64-32V873zM792 713H232V628H792v85zm0 106H232V734H792v85z"/><glyph glyph-name="undefined" unicode="𣍊" horiz-adv-x="1024" vert-adv-y="918" d="M795-22 783-5 754 30 718 66l-43 37-48 39 4 9 31-12 28-13 27-13 48-30 22-16 39-34 17-17L859-3l4-24-13-20-24-5-21 13-10 17zM438-15l-7-11-8-11-9-9-11-8-11-7-13-5-13-3-13-2-13-1v32L243-24V-8h97l7 1 6 1 6 2 4 1 4 3 4 3 3 3 4 5 3 5 4 7 7 19 6 23 5 27 5 31 5 35 3 38 2 42 1 45 1 48h-1v43H191l-32-62-20-33-3-6 38-6 17-11-17-10V102l26 58 9 23 8 25 8 26 6 28 6 29 5 30 3 32 2 10 62-20 14-13-18-8-3-13-9-32-5-15 3-2 13-7 13-9 12-10 22-23 10-12 19-28V146l-17-18H338l-17 18-8 26-16 37-6 12-11 18-8-21-12-27-14-25-15-24-16-21-18-18-20-16-3 2V68H285l44 48 54-48V46H174V-18L110-51V236L96 217 72 189 46 162l-8 6 50 97 30 67 27 70 12 36 10 37 8 28H164L99 471V847l65-32H387l33 27 59-49-27-21V492l-65-32v43H221l18-8 13-15-19-5-22-57-10-22H419l32 27 59-49-26-16V332 282l-2-47-2-44-3-40-5-37-5-33-7-31-7-28-9-24-6-13zM584 815l65-32H866l32 27 59-49-27-21V535l-64-32v65H789l27-101 15-47 16-44 18-41 20-37 22-35 24-32 26-30 35-35-57-42-29 33-26 37-23 38-21 41-17 44-15 45-11 48-8 50-5 53v55H649V552l-4-77-6-73-9-69-12-65-15-62-19-57-21-53-25-49L509 2 477-37l-7 6 22 44 20 46 18 50 15 52 13 56 11 60 8 63 5 67 2 70V815zM744 216l-6 17-13 34-7 15-17 30-19 29-11 14-12 12 5 8 33-17 16-10 15-12 15-13 26-29 12-17 12-18 10-19V216l-17-18H761l-17 18zM387 648H164V525H387V648zM866 761H649V589H866V761zM387 793H164V670H387V793z"/><glyph glyph-name="undefined" unicode="𣍋" horiz-adv-x="1024" vert-adv-y="918" d="M137 287l64-32H428l32 27 59-49-27-21V-11L428-44V21H201V-44L137-76V287zm744 35-9 23-22 44-26 43-30 41-22 26V-34L708-67V750H514v22H870l54 54 64-54V750H772V528l24-14 22-17 21-17 20-20 19-20 17-21 31-46 14-24V324l-16-18-24-1-19 17zM428 130H201V42H428v88zm0 103H201V152H428v81zm68 366-22 31-14 16-57 58-83 74-45-66-27-36-29-35-62-66-26-24 40-20H459l32 27 59-48-27-22V316l-64-33v33H171l-65-33V529L86 512 48 484l-6 7 88 107 53 71 47 72 41 74 16 32 5 11 54-35 10-17-20-2-7-11 43-22 57-36 48-33 20-17 19-16 17-16 14-15 6-24-12-22-24-5-21 12zM282 510H171V337H282V510zm177 0H347V337H459V437l-17-1-38-42-21-22-12-10-10-13-8 6 7 14 5 14 5 15 4 13 24 69-1 1 5 10 55-36 2-4v59zM213 388l-2 10-4 21-3 10-11 31-5 10-7 9 7 7 9-8 11-5 10-7 10-8 9-9 8-9 8-9 15-22 7-12-3-24-18-16-25 2-16 19v10zM389 670l54-49V6e2H209v21H345l44 49z"/><glyph glyph-name="undefined" unicode="𣍌" horiz-adv-x="1024" vert-adv-y="918" d="M186 244l65-32H767l33 27 59-49-27-21V-39L767-71v43H251V-44L186-76V244zM767 81H251V-6H767V81zm0 109H251V103H767v87zM675 341l-3 4-6 6-9 5-11 6-13 6-48 18-25-10-32-12-36-9-38-7-3 9 94 51 26 16 44 34 17 17 15 18 6 8H504v-3H307l-16-25-16-20H394l32 27 59-48-27-16-12-6-6-11-23-30-27-27-33-23-37-20-41-18-47-15-51-13-56-9-61-6-2 9 59 17 52 17 48 18 41 19 25 14-13-5-22 10v2l-1 4-5 5-7 5-8 6-10 6-27 12-13 6-21-10-29-11-32-10-34-7-4 9 57 34 25 16 23 16 20 17 17 17 14 16 12 18 6 10H63v21H427l34 38 39-34H876l33 37 43-37V501H728l-20-27-17-18H833l32 27 59-48-27-16-14-6-7-12-25-30-30-26-36-23-42-20-47-18-52-15-58-13-64-9-69-6-1 10 66 16 61 18 54 18 48 19 16 8-23 8 1 3zM387 432H254l-18-16-23-15-6-4h7 15 13l24-3 11-3 11-4 10-5 9-23-9-21 31 22 24 22 19 23 14 24 1 3zm438 3H668l-23-16-26-16-4-2h25 17l26-4 13-2 11-4 11-6 10-22-7-22 37 23 29 23 22 23 16 24v1zM766 875l64-54V799H523l-34-32-11-10H678l7 10 2-2 24 19 59-48-27-16-22-10-17-16-36-30-40-27-46-23-48-20-54-18-58-14-63-10-66-8-71-3-1 9 69 14 64 16 59 17 54 18 46 20-2 3-15 12-10 7-38 20-32 14-19 5 1 7-20-11-33-15-34-13-37-12-38-10-41-7-3 10 72 34 63 34 54 37 24 19 22 21 8 9H194v22H712l54 54zM660 736H451l-13-10-29-17-6-3 15-1h19 17l17-1 16-2 15-2 14-3 13-3 13-5 11-5 13-21 33 20 33 26 28 27z"/><glyph glyph-name="undefined" unicode="𣍍" horiz-adv-x="1024" vert-adv-y="918" d="M572 25V-40L513-69V619l59-30h67V826l65-11 16-11-16-9V589h65V826l64-11 17-11-17-9V589h65l32 27 59-48-26-22V-8L898-40V25H572zM445 18l32 135h11L477 18 496 5l13-19-13-19-19-13H367 353l-13 3-13 4-12 7-11 9-9 11-7 11-4 14-2 13-1 14V155L257 87 229 35 196-7 159-40 117-62 72-74l-2 9 38 20 33 27 28 34 25 40 20 48 17 56 13 65 5 43H190V204l-65-33V453L97 434 66 419l-6 8 25 24 22 24 18 23v15l9-4 11 15 16 26 14 27 12 29 11 29 8 32 3 15H117v22H353l32 27 36-29 6 38 4 29 2 13 1 5H109l1-15 1-25V724l-1-21-1-19-4-17-4-17-7-15-22-12-23 6-13 21 6 24 4 4 6 9 6 11 6 14 5 18 5 20 5 24 9 55 4 31 9 1 6-53H435l32 27 59-48-27-17-13-5-29-53-16-27 3-3-8-5-7-10-9-18-4 2-1-19-1-16-2-15-1-13-2-12-2-10-3-10-5-10-56 33 1 3 3 15 1 11 1 13 2 33 1 19v9H275l-10-32-13-34-15-33-18-30-3-5h75l7 1 13 2 5 2 5 3 5 3 5 4 4 4 4 6 4 6 56-33-7-11-8-10-10-10-10-8-11-7-11-6-13-4-12-3-14-3H291v32l-86 16-6-8-22-26-8-7 21-10H399l29 26 57-48-27-19V268l-59-29v29H306l-2-11 42-6 16-11-16-10V33l1-5 1-3 1-2h1l1-1 1-2 4-1h4l7-1h78zM639 315H572V46h67V315zm130 0H704V46h65V315zm129 0H833V46h65V315zM378 97v10l-1 19-3 19-2 9-7 20-4 10-7 9 7 7 9-8 10-5 10-7 9-8 9-9 15-18 7-11 11-23-5-24-20-14-24 4-14 20zM258 459H190V290h62l1 8 5 82v79zm141 0H322l-3-83-9-84v-2h89V459zM639 568H572V337h67V568zm130 0H704V337h65V568zm129 0H833V337h65V568z"/><glyph glyph-name="undefined" unicode="𣍎" horiz-adv-x="1024" vert-adv-y="918" d="M129 309l64-32H4e2l32 27 60-49-27-21V-9L4e2-41V-9H193V-46L129-78V309zM928 35l32 135h11L960 35l19-12L992 3 979-16 960-29H856l-14 1-14 2-13 4-12 7-11 9-9 11-6 12-5 13-2 14V57 498H724l-5-79-10-82-16-75-20-70-25-61-30-56-34-48-39-41-44-33-48-23-5 8 41 32L524 6l32 42 27 47 23 53 19 60 15 65 11 72 7 79 2 74H544v21H857l53 54 65-54V498H834V51l1-5 1-4 1-1 1-1 1-1 5-2 5-1 7-1h72zM4e2 123H193V13H4e2V123zm0 132H193V145H4e2V255zM514 572l-9-7V352l-65-32v43H153V347L88 314V581L63 563 37 548l-7 8 38 45 17 22 3 5v12l6-3 21 33 13 24 22 51 9 26 8 27 3 8 58-27 13-15-21-5-17-38-16-27-16-26-19-24-20-23-1-2 22-11H440l16 13-10 11-19 24-16 26-12 28-9 28-6 30-2 31 2 27H214v21H362l27 22 59-48-27-16-15-8 9-21 12-24 12-22 15-21 16-19 18-16 20-16 22-14 49-27-60-48-5 3zM265 587H153V384H265V587zm175 0H329V384H440V509l-14-2-30-41-30-39-12-12-10-14-9 5 7 15 14 48 17 58 6 21 1 4 1 1 3 6 55-33 1-2v63zM195 446l-2 12-2 12-5 24-4 11-8 23-3 12-7 11 7 6 9-9 11-7 10-9 10-9 9-11 17-23 8-12 7-13 6-13-3-25-19-15-25 3-15 19-1 13zM866 826l64-54V750H574v22H812l54 54zm-477 5h-1 1z"/><glyph glyph-name="undefined" unicode="𣍏" horiz-adv-x="1024" vert-adv-y="918" d="M794-66 668-60 555-47 454-28 366-2 290 32 228 74l-3 2-30-49-31-37-36-29L88-59 45-71l-2 9L79-41l31 25 28 29 23 36 19 41 8 23-9 10-34 55-18 61 9 2 29-52 34-41 9 42 9 61 4 59H157L93 277V697l64-33h65V793H44v22H366l44 48 54-48V793H286V664h70l32 27 59-48-26-22V277l-65-32v65H281l-7-67-13-64-17-58-4-7 11-9 59-32 72-27 84-20 97-15L672 3 794 2 930 6l60 4-58-74-138-2zM651 438l-19-48-20-45-19-36H819l54 53 64-53V287H755V106h99l54 54 65-54V85H482v21H690V287H581l-17-27-27-40-29-36-31-35-34-31-36-29-39-26-6 8 60 67 28 35 25 36 24 37 22 39 20 41 18 42 16 44 8 26H457v21H660V578H513v22H660V715H457v22H610h-4l-16 19-1 11-1 9-2 10-2 10-4 9-5 9-5 10-6 10-8 9-10 8 5 8 12-5 12-4 13-6 11-6 11-8 10-10 10-10 8-11 8-12 6-13-3-25-16-12H743l4 6 19 45 13 28 15 39 5 13 3 6 54-36 9-18-24-1-34-39-35-34-12-9h95l44 48 53-48V715H724V6e2h69l54 54 64-54V578H724V459H870l54 54 64-54V438H651zM283 331h73V487H286V390l-3-59zM222 643H157V509h65V643zm134 0H286V509h70V643zM222 487H157V331h64l1 59v97z"/><glyph glyph-name="undefined" unicode="𣍐" horiz-adv-x="1024" vert-adv-y="918" d="M397-12l-6-12-8-11-9-10-10-8-12-7-11-6-13-3-14-2-13-1v32L215-24V-8h86l7 1 6 1 4 2 5 1 4 2 3 3 3 3 3 5 2 5 3 7 6 23 7 32 6 42 5 50 5 59 4 68 7 159 4 183H359l-9-86-12-91-14-85-17-80-19-75-22-70-24-64-27-60-29-54-33-47-9 5 23 52 22 55 20 60 19 65 16 69 14 74 13 79 10 84 8 88 5 81H266l-10-62-13-66-16-63-17-61-18-59-21-56-22-53-25-50-26-48L68 76l-8 5 38 99 18 51 16 54 16 56 14 58 12 60 12 62 9 65 7 52H164l-19-64-17-50-18-49-20-47-22-45-24-43-9 4L76 487l13 48 23 103 20 107 8 55 7 52 2 16 62-20 14-13-18-7-7-38-12-56-13-54-6-21H385l32 27 60-48-27-17h-1l-2-74-2-93-3-85-4-77-3-68-6-61-5-52-7-44-7-37-8-29-5-13zM551 268l64-33H828l32 27 59-48-27-22V-37L828-69v43H615V-42L551-74V268zM828 94H615V-4H828V94zm0 120H615V116H828v98zm91 354-28 22-26 23-49 54-23 29-41 65-17 36-1 2-21-34-27-37-27-35-30-33-31-32-33-29-34-27-12-8 55-28H868l33 27 59-49-27-21V312l-65-32v32H574l-64-32V558l-16-10-38-22-5 8 61 60 29 31 27 31 51 67 45 72 19 38 22 46 55-34 10-17-20-2-4-7 57-68 49-50 26-23 51-38 27-16 52-29-61-47-28 20zM689 514H574V333H689V514zm179 0H754V333H868V440H851l-29-36-31-34-12-10-10-13-8 5 7 15 19 58 14 38 6 19-1 1 5 10 54-35 3-6v62zM615 409l-6 21-3 11-4 11-4 10-5 11-7 9 7 7 9-7 11-7 10-7 10-9 10-8 16-21 8-11 7-11 7-13-3-24-18-16-25 3-15 18-5 33zM782 670l54-49V6e2H607v21H738l44 49z"/><glyph glyph-name="undefined" unicode="𣍑" horiz-adv-x="1024" vert-adv-y="918" d="M55 169l10 3 21 3 20 2 16 2 80 137 38 74 10 24 3 6 55-35 9-16-20-2-35-54-36-49-63-72-9-9 15 2 64 6 21 1 6 28 5 37 1 13 63-18 15-13-20-9-4-22-13-42-17-40-22-36-25-35-29-31L181-5 144-31 103-54 58-73l-5 8L92-37 127-8l30 29 27 31 23 31 18 32 16 34 7 22-9-4-60-24-40-15-37-12-8-20-14 13-25 60zM821 507l-16-9 2-97 5-66 14 2 47 59 70-47 3-21-133-15 1-10 11-81 14-66 17-50 17-38 18-27 10-10 27 114h10L928 12l8-2L955-5l4-25-15-19-25-4-26 10-27 18L840 1 817 37 796 82l-19 58-15 71-12 85-1 10-108-11-3 21 110 12-5 70-3 115v18l64-13 17-11zM534-1V15h43 4l4 1h2l1 1 1 1 1 1 2 3 1 4v5l1 8V145H525V-51L472-77V145H407V-15L348-44V196l59-29h65v75l53-11 14-11-14-9V167h69l29 27 57-49-27-19V39l-1-13-2-13-3-12-5-12-8-10-10-9-11-7-12-4-12-3-12-1v30L534-1zM471 543l52-37 9-17-28-1-14-12-15-13-8-6h-1H573l32 27 59-49-27-21V247l-64-32v32H430l-65-32V489l65-32h19l11 48 4 17 2 8v3h-1l6 10zM573 348H430V268H573v80zM121 306l-1 9-3 9-3 10-5 10-6 10-7 10-8 11-10 10-12 10 5 8 14-7 15-5 14-6 1-1 48 82 28 54h-1l6 10 52-40 8-17H233l-46-48-28-25-30-23 21-16 10-10 9-11 8-13 7-13-4-24-19-15-24 3-15 19-1 9zM573 435H430V369H573v66zm283-13-2 8-2 7-2 8-4 8-8 16-5 9-5 9-8 7 5 8 10-6 21-7 9-5 18-11 9-7 8-7 8-7 7-8 1-25-16-19-25-1-18 16-1 7zM176 863l65-32H773l32 27 59-48-27-22V578l-64-32v32H241l-65-32V863zM773 694H241V599H773v95zm0 116H241V716H773v94z"/><glyph glyph-name="undefined" unicode="𣍒" horiz-adv-x="1024" vert-adv-y="918" d="M64 388l65-32H339l32 27 59-49-27-21V-11L339-44V21H129V-44L64-76V388zM428-33v22H673V149H470v21H673V297l65-10 16-11-16-10V170h85l53 54 65-54V149H738V-11H865l53 53 65-53V-33H428zM339 177H129V42H339V177zm0 157H129V199H339V334zm582 4-1 14-3 11-20-9-21-8-42-14-42-11-42-9-11-20-11 16-18 62 11 1h21l16 1 58 133-18 1-17 18-2 17-3 9-3 10-9 21-12 23-8 12-10 11 6 7 12-9 14-7 9-5 7 35 22 85 4 17 2 11 5 12 57-30 11-16-22-4-23-41-18-30-31-46-1-2 12-10 19-18 9-9 7-11 2-2 39 98 12 30 3 7 56-33 11-16-20-2-56-104-58-96-44-65h4l21 1 21 1 22 1 44 2 22 1-4 16-15 49-6 17-8 17 8 5 12-15 13-13 12-14 21-29 17-28 8-15 7-14 6-14-4-24-20-15-24 4-15 19-1 13zM645 361v12l-1 9-15-8-59-28-77-31-7-21-14 12-28 60 10 3 36 6 58 131-21 1-18 18v7l-1 7-2 9-4 9-5 10-5 11-6 11-16 24-11 11 6 8 13-9 25-14 4 10 20 59 6 18 11 34 11 40h-1l5 13 57-31 11-16-22-4-24-38-34-49-33-43 23-18 10-8 9-9 7-10 5-7 45 103 55-34 10-17-21-2-68-114-58-87-14-19 62 11 42 7 20 2-2 8-3 12-4 12-9 28-9 12 8 6 10-11 13-10 11-10 10-11 9-11 16-25 7-13 5-13 5-14-6-24-21-13-24 7-13 21 1 10zM118 428v16h83l5 1 3 1 1 1 1 1 1 1 1 2 1 3 1 5V696l-7-3-15-45-13-32-15-31-16-28-18-27-20-25-20-23-23-21-25-18-7 6 32 50 28 52 12 27 12 28 9 29 9 31 7 31 3 15H63v22h88l32 27 32-27V867l65-11 16-11-16-10V658l28-14 3-2 7 12 21 44 18 35 13 27 8 20v1l-1 1 5 9 52-39 8-18-26 1-86-90-8-9 30-19 37-28 16-14 14-15 12-14 10-16 1-24-17-18-24-1-19 16-3 11-6 13-8 14-11 14-26 33-48 48V466l-1-14-2-14-5-13-6-12-9-11-11-8-12-7-13-5-13-2H194v32l-76 16zM915 869l65-54V793H431v22H861l54 54z"/><glyph glyph-name="undefined" unicode="𣍓" horiz-adv-x="1024" vert-adv-y="918" d="M711-24V-8h82l4 1 4 1 1 1 1 1 1 1 2 5 1 4 1 7V382H544V-24L480-56V382H216V-35L152-68V381l-38-12-34-8-35-6-2 9 109 58v14l14-7 75 45 48 33 17 13H50v22H877l44 48 53-48V520H544V404H808l28 23-44 20-136 52 2 10 40-4 38-6 35-6 34-8 60-17 28-9 25-11 24-11 21-12 13-21-5-24-21-13-24 5-34 25-33 18 40-33-27-21V13L871-1l-2-13-4-13-7-12-9-11-11-9-12-6-13-5-13-2-14-1v33L711-24zm0 69-10 11-17 17-26-18-45-25-25-11-25-9-5 9 40 33 35 33 16 17-50 36-20 11 4 9 23-6 21-5 21-6 20-7 6-3 17 24 19 31v1l6 8 51-39 8-18-22 1-18-21-11-11 13-8 15-10 14-11 8-23-9-22-23-9-23 9-8 12zM388 42l-9 13-10 12-7 8-31-21-23-13-25-11-26-11-28-9-4 9 64 50 36 34 2 3-49 35-21 12 3 9 24-6 23-5 21-7 21-9 3-1 16 21 20 31-1 1 6 8 52-39 7-18-21 1-19-21-11-10 17-13 16-12 13-14 6-24-12-21-24-6-21 12-8 12zm0 175-9 10-12 12-10 8-26-17-23-13-23-12-25-9-26-7-4 8 41 32 36 32 13 13-12 8-39 22-22 9 3 10 23-4 24-3 22-5 22-6 4-2 21 28 22 34h-1l6 9 51-40 8-17H431l-20-22-14-14 17-10 15-10 15-12 8-23-10-23-23-8-23 10-8 12zm323 0-10 10-11 12-10 8-25-17-22-13-23-11-23-9-25-8-4 8 38 31 35 33 13 13-14 8-38 22-22 9 2 10 24-4 24-3 22-5 21-6 6-2 20 28 21 34 6 9 51-40 8-17H753l-20-22-13-14 16-10 16-10 15-12 8-23-10-23-23-8-23 10-8 12zM480 520H314l24-33 12-14 1-19-19 8-37-21-57-27-23-10h1H480V520zM206 880l64-32H754l32 27 59-49-27-21V606l-64-32v32H270l-64-32V880zM754 716H270V628H754v88zm0 110H270V738H754v88z"/><glyph glyph-name="undefined" unicode="𣍔" horiz-adv-x="1024" vert-adv-y="918" d="M472 261l64-32H846l32 27 59-48-27-22V-38L846-70v53H536V-54L472-87V261zM18 194l80 21V788l51-26 73 39 133 71 5 2 6-12 40-37 1-18-20 9-49-19-50-18-77-23-26-6-23-5V611H262l44 48 53-48V589H162V433H262l44 49 53-49V412H162V232l87 21 82 18 44 9 45 8 2-10-82-34-178-66V-45L98-77V154L68 143l-5-19-15 11-30 59zM846 99H536V5H846V99zm0 109H536V120H846v88zM493 290l-64-32V605l64-32h92V683l64-10 16-11-16-10V573h91V683l64-10 17-11-17-10V573h92l32 26 59-48-27-21V290l-64-32v32H493zm92 140H493V312h92V430zm155 0H649V312h91V430zm156 0H804V312h92V430zM585 551H493V451h92V551zm155 0H649V451h91V551zm156 0H804V451h92V551zM461 876l64-32H856l32 27 59-48-26-22V690l-65-33v43H525V684l-64-32V876zm395-53H525V722H856V823z"/><glyph glyph-name="undefined" unicode="𣍕" horiz-adv-x="1024" vert-adv-y="918" d="M106 25V-40L46-69V619l60-30h68V826l54-11 13-11-13-9V589h71V826l53-11 14-11-14-9V589h69l29 27 57-48-27-19V25L421-5V25H106zM929 14l32 134h11L961 14 980 1l13-19-13-20-19-13H841l-14 2-13 2-13 4-12 7-11 9-9 10-6 13-5 13-2 13-1 13V229H663l46-15 15-13-19-8-6-27-14-43-17-40-21-36-23-32-27-27-30-22-32-18-36-13-37-6-3 9 33 17 28 18L546-6l22 23 19 26 17 29 14 32 12 36 9 40 6 38 2 11H534v22H830l54 53 65-53V229H820V35 29l1-5 1-3 1-2V18l1-1h2l4-1 5-1 6-1h88zM174 315H106V46h68V315zm125 0H228V46h71V315zm122 0H352V46h69V315zm87 12 10 4 80 25V471H529v21h69V6e2l65-11 16-11-16-9V492h16l24 33 32-33V471H663V377l41 13 61 16 4-9-79-48-127-67-5-22-16 11-34 56zm219-1v21h81V471H755v21h53V6e2l64-11 16-11-16-9V492h20l24 33 33-33V471H872V347h24l34 38 43-38V326H727zM174 568H106V337h68V568zm125 0H228V337h71V568zm122 0H352V337h69V568zm80 43v21H703V745H558v22H703V874l64-11 16-10-16-10V767h43l54 53 65-53V745H767V632H879l44 49 54-49V611H501z"/><glyph glyph-name="undefined" unicode="𣍖" horiz-adv-x="1024" vert-adv-y="918" d="M903 37 880 62 858 89l-21 27-19 29-16 30-15 31-13 33-3 9V-45L707-77V195l-10-17-26-38-28-36-30-34-32-31-35-29-36-26-39-22-6 8L497 1l30 31 55 65 25 34 22 36 21 38 18 39 17 40 7 20H621V240l-64-32V632l64-32h86V702H518v22H707V869l64-11 16-11-16-9V724h87l53 53 65-53V702H771V6e2h89l33 27 59-49-27-21V272l-65-32v64H771v-1l50-78 38-51 43-46 22-21 64-49-59-45-26 24zM114 314l65-32H377l32 27 59-48-26-22V-27L377-59V-5H179V-43L114-75V314zM377 127H179V16H377V127zm0 134H179V149H377V261zM132 368V352L73 322V664l59-29h60v98H38v21H192V875l53-11 14-11-14-9V754h65V875l54-11 14-11-14-9V754h36l53 54 65-54V733H364V635h59l30 27 56-49-27-18V357l-59-30v41H132zm575 71H621V326h86V439zm153 0H771V326h89V439zM192 491H132V389h60V491zm118 0H245V389h65V491zm113 0H364V389h59V491zm284 87H621V460h86V578zm153 0H771V460h89V578zM192 613H132V512h60V613zm118 0H245V512h65V613zm113 0H364V512h59V613zM310 733H245V635h65v98z"/><glyph glyph-name="undefined" unicode="𣍗" horiz-adv-x="1024" vert-adv-y="918" d="M572 25V-40L513-69V619l59-30h67V826l65-11 16-11-16-9V589h65V826l64-11 17-11-17-9V589h65l32 27 59-48-26-22V-8L898-40V25H572zM314-10V4h75l6 1h3l2 1 2 1V8l1 1 1 3 2 4 1 6V253H261l-17-40-22-45-12-22-7-10 27 2 44 2h45l8-1v5l-10 39-4 15-4 14-7 14 8 5 10-12 21-22 19-24 23-35 12-25-3-24-19-16-24 3-16 20-1 11-1 10L218 84 181 74l-8-21-14 14-24 61 11 2 33 4 5 22 11 48 7 24 6 25H117V-22L52-54V307l65-32h96l18 75v3H172l-65-33V569l65-10 16-11-16-10V409l31 28 33 33 7 9-49 46-15 11 4 9 37-12 18-7 18-8 12-7 20 30 10 20 9 20 3 5 43-29v12l65-10 16-11-16-10V353l-65-33v33H260l34-15 13-15-20-6-12-30-5-12H407l29 27 57-49-27-19V28l-1-12-1-13-4-12-6-12-7-10-10-9-10-7-12-5-13-2-13-1v30L314-10zM639 315H572V46h67V315zm130 0H704V46h65V315zm129 0H833V46h65V315zM639 568H572V337h67V568zm130 0H704V337h65V568zm129 0H833V337h65V568zM336 392l-23 10-38 45-2 2-12-8-20-14-23-12-23-10-23-9V374H353v25l-17-7zm17 140h-1l-17-23-17-19-6-6 31-24 10-8v80zm71 43-23 21-23 22-21 26-21 26-19 29-18 31-17 33-11 26-18-32-19-31 59-10 16-11-16-9V615h28l24 32 32-32V594H144v21h84V717l-21-31-26-32-27-29-28-27-30-24-31-21-33-18-5 9 50 51 24 27 22 29 22 31 39 66 18 36 17 38 19 47 57-31 11-17-20-2-3-5 48-62 22-26 44-45 22-20 23-17 22-15 45-26-60-47-25 19z"/><glyph glyph-name="undefined" unicode="𣍘" horiz-adv-x="1024" vert-adv-y="918" d="M179 305l64-32H781l32 27 59-48-27-22V-30L781-62v43H243V-35L179-68V305zM781 116H243V2H781V116zm0 136H243V138H781V252zM408 384l-16 19-9 10-10 10-24 19-43 29-6 4V325l-64-33V439l-29-34-23-21-25-20-26-17-27-14-28-11-30-8-4 9 47 35 22 18 19 20 19 20 18 22 16 24 15 25 14 26 2 4H150V480L86 447V752l64-33h86v47H46v21H236v85l64-11 16-11-16-9V787H404l44 48 54-48V766H3e2V719h86l32 27 59-48-27-22V517l-64-32v32H3e2V487l11-2 19-3 17-4 18-5 32-11 29-15 13-8 13-9 10-22-9-23-22-10-23 9zm527-43-52 31-22 17-22 17-19 19-18 20-16 19-14 21-7 14V328l-64-32V460l-15-15-27-23-28-20-30-20-33-18-34-15-37-14-38-11-4 9 66 41 29 21 28 21 25 21 44 45 19 24 14 21H612V489l-65-32V745l65-32h89v53H508v21H701v85l64-11 16-11-16-9V787H877l44 48 54-48V766H765V713h93l32 27 59-49-27-21V516l-64-32v43H771l43-37 37-27 21-13 44-23 23-11 56-25-60-50zM236 607H150V539h86v68zm150 0H3e2V539h86v68zm315 0H612V548h89v59zm157 0H765V548h93v59zM701 691H612V629h89v62zm157 0H765V629h93v62zm-622 7H150V629h86v69zm150 0H3e2V629h86v69z"/><glyph glyph-name="undefined" unicode="𣍙" horiz-adv-x="1024" vert-adv-y="918" d="M550 428l-2-16H654v71H565v21h89v61H552V489l-2-61zm216-37H713V325h53v66zm106 0H820V325h52v66zM283 331h73V487H286V390l-3-59zM766 483H713V412h53v71zm106 0H820V412h52v71zM766 565H713V504h53v61zM222 643H157V509h65V643zm134 0H286V509h70V643zM222 487H157V331h64l1 59v97zM552 754V587H654v67l-17-4-24-4-51-7-3 9 25 11 62 31 36 20 31 20 21 17 4 3 19-29 21-22 1-19-21 8-36-15-15-5 6-1 15-11-15-9V587h53v64l-18-2-2 9 18 8 2 1v1h2l28 15 44 27 14 8 30 24 5 4 16-27 24-24 1-19-21 9-16-7-34-11-35-8-4-2 13-10-13-9V587h47l44 48 54-48V565H820V504h52l29 27 57-48-27-19V417l20 28 32-33V391H931V293l-59-30v41H820v-8l38-55 31-40 33-35 17-15 17-14 18-12 14-12-59-44-18 18-17 19-16 21-15 22-14 24-13 24-12 26-4 12V57L766 30V304H713V59L654 29V213l-21-32-20-27-23-25-23-23-25-22-27-18-29-17-5 9 41 47 37 49 31 54 14 27 13 29 12 30 3 10H565v21h89v66H546l-1-20-7-54-8-51-10-48-13-44-15-41-17-38-19-34-22-28 32-7 97-15L672 3 794 2 930 6l60 4-58-74-138-2-126 6L555-47 454-28 366-2 290 32 228 74l-3 2-30-49-31-37-36-29L88-59 45-71l-2 9L79-41l31 25 28 29 23 36 19 41 8 23-9 10-34 55-18 61 9 2 29-52 34-41 9 42 9 61 4 59H157L93 277V697l64-33h65V793H44v22H345l54 54 65-54V793H286V664h70l32 27 59-48-26-22V277l-65-32v65H281l-7-67-13-64-17-58-4-7 11-9 59-32 72-27 45-11-2 2 12 33 12 36 10 38 8 40 8 43 6 47 4 49 2 52 1 56v58V807l64-32H706V876l64-10 16-11-16-10V775h81l54 54 64-54V754H552z"/><glyph glyph-name="undefined" unicode="𣍚" horiz-adv-x="1024" vert-adv-y="918" d="M73 255l65-32H264l32 26 60-48-27-21V-37L264-69v53H138V-53L73-85V255zM902-50 866-25 834 4 806 36 793 55 771 29 735-5 696-33 654-54 611-69l-45-7-1 9 39 17 37 21L675-4l32 29 29 34 28 38 1 3-5 9-17 40-13 44-7 34-19-42-16-29-18-27-20-25-17-17-4-17-21-12-23 6-13 20-2 23-2 22-3 20-3 21-8 38-14 52-6 16 8 5 12-13 13-14 12-16 10-17 10-18 17-41 14-44 1-6 14 31 22 59 10 30 8 31 8 33 6 34 5 34 4 37 2 10 62-20 15-13-19-7-13-54-4-13h98l32 27 59-48-26-16-10-4-15-41-25-56-29-51-11-17 23-25 27-25 29-21L936 9l66-31-62-50-38 22zM264 96H138V6H264V96zm0 105H138V118H264v83zm580 82H745l-8-22 23-58 19-38 11-20 21 45 21 54 12 39zM44 304v22H171v86H70v21H171v97H87v22h84v91H38v21H171v92H87v21h84v97l59-11 14-10-14-10V777h38l30 27 56-48-26-19V694l2 3 32-33V643H328V519l-60-29v40H230V433h23l34 38 43-38V412H230V326h28l44 48 54-48V304H44zm841 70-14 1-13 1-12 4-12 6-11 8-9 10-7 12-5 12-2 13-1 14V568H714l46-15 15-12-19-9-9-30-10-26-12-23-13-23-16-22-17-21-19-19-21-18-2-1v-1l-5-24-21-14-23 6-14 20-2 20-2 20-1 1-15-10-20-11-3-1V-45L466-77V231l-7-4-6-38-7-29-7-29-9-28-9-28-11-27-13-27L384-5 367-31l-8 4L381 86l5 27 4 28 3 28 3 28 1 28 1 28 1 12 64-17 3-2v82l-19-7-44-14h-1l-9-20-13 14-22 61 55 7 9 2L532 658l31 86 57-32 11-16-20-3-26-57-75-149-41-72-22-35-4-6 14 2 44 7 44 9 21 3-3 18-9 35-15 49-7 15 7 6 26-24 23-30 10-17 9-18 9-19 8-20 6-19 21 37 12 21 9 22 8 22 7 22 5 22 3 22 1 22 1 7H597v21H747V713H632v21H747V869l65-11 16-11-16-9V734h26l44 49 54-49V713H812V589h56l54 54 65-54V568H863V455v-7-4l1-4 1-5 1-1 2-2 4-1 5-2 8-1h47l27 91h11l-11-91 16-11 11-16-11-16-16-11H885zM424 538l-3 17-7 33-5 15-6 15-6 15-15 29-8 15-10 13 6 7 30-20 14-11 9-9 6 27 6 22 43 153 2 7 58-29 12-16-20-3-21-44-32-61-24-39-20-29 6-6 11-15 20-33 9-18 7-19-4-24-19-16-24 4-15 20zM268 643H230V552h38v91zm0 113H230V664h38v92z"/><glyph glyph-name="undefined" unicode="𣍛" horiz-adv-x="1024" vert-adv-y="918" d="M806-80 674-75 555-62 451-42 360-15 283 19 221 61 204 79l-6-19-24-44-28-38-31-29L80-73 41-85l-3 8L71-58 99-33 123-3l21 35 18 42 11 38-30 55-14 62 10 2 24-54 19-25 5 25 8 62 4 62H141L82 271V690l59-29h59V792H40v21H295l54 54 64-54V792H253V661h64l30 27 56-49-26-19V268l-60-29v62H250l-7-67-11-65-15-54 27-23 59-33 73-27 86-20L563-3l114-8 129-2L949-8l60 3-57-73-146-2zM945 379l-17 12-31 27-15 16-28 33-25 38-20 39H615l-43-50-35-33H658v72l64-11 16-11-16-9V461h53l33 37 43-37V439H722V388h97l32 27 59-48-27-22V202l-64-32v32H722V137H871l44 48 54-48V115H722V50L658 18v97H418v22H658v65H561l-65-32V420l65-32h97v51H532v17l-21-17-22-17-45-30-25-12-26-11-5 8 75 76 34 38 31 40 8 13H397v21h45l-7 283 54-25 25 17 11 7 27 22 16 14 11-18 31-32V814l-21 9-11-3-12-3-26-6-27-4-13-1 2-64h24l33 38 43-38V721H503l2-67h21l33 37 43-37V632H505l2-67H618l3 122 64-13 16-11-16-7-3-91h26l3 156H681v-1l-65-30 5 189 64-12 16-12-16-6-1-32h20l34 37 43-37V795H683l-1-53h29l33 27 46-38v11h83l3 68H797v22h79l32 27 59-49-27-16-5-2-4-216 15 21 33-32V544H825l58-48 33-22 16-10 16-9 31-14 26-14-60-48zM658 284H561V224h97v60zm161 0H722V224h97v60zM658 367H561V306h97v61zm161 0H722V306h97v61zM251 322h66V481H253V382l-2-60zM2e2 639H141V502h59V639zm117 0H253V502h64V639zm555 82H803l-27-16-5-2 2-138h93l3 67H790v22h80l2 67zM2e2 481H141V322h58l1 60v99z"/><glyph glyph-name="undefined" unicode="𣍜" horiz-adv-x="1024" vert-adv-y="918" d="M87 263l65-32H339l33 27 59-48-27-22V-28L339-61V-7H152V-45L87-77V263zM888-61 873-43l-10 9-23 18L827-6 780 23l-18 9 3 9 20-4 20-3 19-3 18-5 33-10L904 3l14-8 13-8 11-22-9-24-22-10-23 8zM633 54 672 2l1-19-21 8-12-6-35-15-39-12-21-6-22-5-23-4-24-5-3 9 22 11L551-9 568 2l43 31 12 11 7 6 3 4zM339 101H152V15H339v86zM731 572l-4 12-7 16-9-6-17-12-19-9-39-16-5 9 16 12 28 28 23 29 2 3-17 25-8 11-10 9 6 8 12-6 13-5 13-7 9-5 7 14 7 16 9 23-16 13-3 9-11-10-16-13-17-12-36-18-5 8 13 14 23 30 20 32 8 14-11 18-15 19-9 8 5 8 11-5 13-4 12-5 10-5 8 24 5 15 5 13 57-31 3-5h64l32 27 59-48-27-17-6-2-5-248 30 25 59-49-27-16-18-7-17-23-17-19-12-13 14-13V414H819V341l-58-29H899l24 32 32-32V290H743V248h87l33 27 59-48-27-22V62L830 30V62H591L527 30V281l64-33h88v42H466v22H602V414H497v14l-21-11-24 7-12 22 7 23 4 1 4 4 5 6 5 8 5 11 4 12 5 15 9 34 2 20h10l1-20 2-12h6L496 845l58-26 36 24 9 6 9 7 13 13 5 6 23-34 16-17 1-19-24 10-13-4-12-2-26-5-14-1-14-1 2-61h21l24 33 33-33V720H566l4-75h16l24 32 33-32V623H571l3-75H847l3 75H794v22h57l3 75H794v21h61l3 76H788v7h-6l-14-23-8-12 13-13 9-12 2-24-16-20-22-2 51-30 10-17-22-2-12-17-14-17 9-8 20-24 2-25-16-19-24-2-19 15zM679 144H591V83h88v61zm151 0H743V83h87v61zM339 210H152V123H339v87zm340 17H591V166h88v61zm151 0H743V166h87v61zM43 304v22H219v86H78v21H219v97H1e2v22H219v91H36v21H219v92H1e2v21H219v97l59-11 15-10-15-10V777h69l30 27 57-48-27-19V667l22 30 32-33V643H407V519l-60-29v40H278V433h43l44 49 54-49V412H278V326h78l44 48 53-48V304H43zm711 37H667l-58-29H754v29zm0 73H667V362h87v52zM909 526H506l2-19 1-15V478l-1-13-2-13-3-12-2-5H602v65l65-11 16-11-16-9V435h87v65l65-11 16-11-16-9V435h29l33 38 15-13 8 37 2 11 3 18zM347 643H278V552h69v91zm0 113H278V664h69v92z"/><glyph glyph-name="undefined" unicode="𪱕" horiz-adv-x="1024" vert-adv-y="918" d="M768 589l64-11 17-10-17-10V-45L768-77V589zM538-19 510 7 485 37 464 66 430 25 401-2 369-25 335-44l-1 3v-4L269-77V95L245 83 218 70 143 40 99 24 81 18 73-3 59 11 35 72l10 2 39 6 17 2V433H37v22H524l44 48 54-48V433H334V342H514l32 27 59-49-27-16-7-3-8-30-17-50-19-46-21-43-10-17 11-13 23-26 24-23 26-19L628 4 568-42 538-19zM375 320H334V-32l22 22 24 28 23 30 21 33 15 28-16 34-17 41-13 44-12 47-6 45zM269 208H165V95l71 15 31 6h2v92zM510 320H386l36-81 20-40 21-36 1-2 13 34 14 45 12 47 7 33zm-241 0H165V229H269v91zm0 113H165V342H269v91zM717 874l62-20 15-13-19-8-4-26-21-87-4-13H9e2l2 3 4 7 2-2 24 19 59-48-27-16-24-10-31-27-25-20-13-9-27-15-13-8-6 7 10 11 7 13 33 51 14 23H740l-15-47-14-39-15-37-16-35-19-33-19-31-9 4 30 107 9 37 17 79 8 41 7 42 6 44 5 45 2 11zM115 862l65-32H478l32 27 60-48-27-22V547l-65-32V809H180V547l-65-32V862zM392 660l54-49V590H212v21H348l44 49zm0 109 54-48V699H212v22H348l44 48z"/><glyph glyph-name="undefined" unicode="𪱖" horiz-adv-x="1024" vert-adv-y="918" d="M757 356l-2-20 20-63 17-41 18-38 21-36 24-35 26-32 28-30 31-28L989-5 930-49 895-17 863 18 835 54 809 93l-21 40-18 42-15 44-11 46v2l-4-19-15-58-21-52-25-49-30-44L615 6 576-27 533-55 486-77l-5 8 41 30L557-6l31 36 28 38 23 42 19 46 15 50 11 53 7 58 2 39H518v21H694v2V628H575v22H694V849l65-10 16-11-16-10V650h81l32 27 59-49-27-21V377h20l25 33 32-33V356H757zM301 383l5 8 31 76 5 13 8 23 1 5-1 1 5 11 55-34 11-17-25-2-10-13-43-46-12-12-14-13h66l54 54 64-54V361H350V263h34l44 49 53-49V242H350V147h34l44 49 53-49V126H350V22h53l54 53 65-53V0H183V-38L118-70V297L92 267 68 243 42 221l-7 6 51 85 30 57 2 4v10h5l19 44 11 29 11 30 7 25 4 13 59-28 12-16-20-4-19-43-28-50H301zM285 126H183V22H285V126zm0 116H183V147H285v95zm0 119H183V263H285v98zm555 16V628H759V377h81zM113 839l64-32H4e2l32 27 60-49-27-21V548l-65-32v32H177l-64-32V839zM4e2 667H177V569H4e2v98zm0 118H177V688H4e2v97z"/><glyph glyph-name="undefined" unicode="𪱗" horiz-adv-x="1024" vert-adv-y="918" d="M121 307l65-32H381l32 27 59-49-27-21V-20L381-53V1H186V-37L121-69V307zm758 30 59-49-27-16-11-5L820-42 749-56l94 344H567v22H847l32 27zM381 127H186V23H381V127zm0 126H186V149H381V253zM491 554l-7-6V356l-65-32v32H148V340L83 308V563L60 547 35 533l-6 8 51 65 3 4v13l7-3 19 30 12 23 11 24 10 24 9 26 5 21 4 13 59-28 12-15-20-5-16-35-15-26-16-25-18-23-19-21-1-1 22-11H419l15 12-9 9-18 24-15 25-12 26-8 27-6 30-2 29 2 25H204v22H345l26 21 59-48-27-16-14-7 7-18 12-24 12-21 14-19 16-18 17-16 19-15 21-13 47-26-60-48-3 2zM251 569H148V377H251V569zm110-36h-1l5 12 54-33v57H316V377H419V494l-12-2-28-38-19-24-22-24-10-13-8 4 6 16 17 60 4 14 12 39 2 7zM185 436l-4 23-2 11-2 11-7 22-7 23-7 9 7 7 9-9 11-7 19-16 9-10 9-11 15-22 7-13 6-13-4-24-19-15-24 3-15 19-1 12zm724-1-27 29-26 33-25 35-23 39-22 41-21 45-19 49-15 49-31-83-48-102-27-47-28-46-30-43-32-41-35-38-8 6 51 88 24 46 44 95 20 50 18 51 17 53 15 55 14 57 2 9 61-25 13-15-20-6-10-34 59-110 25-41 25-36 25-34 26-29 26-26 26-22 44-32-58-45-30 25zM787 519l54-48V449H619v22H743l44 48zM371 804z"/><glyph glyph-name="undefined" unicode="𪱘" horiz-adv-x="1024" vert-adv-y="918" d="M846-52 824-37 8e2-23 774-10 746 3l-18 7L703-6 659-25 610-40 554-51l-62-8-69-3-1 10 67 14 59 15L6e2-6l44 19 29 17-81 25-17-30-72 4 67 117H396v22H582l37 65H495l-65-32V403l65-33h82v64H4e2v22H867l44 48 54-48V434H787V370h82l32 27 59-48-27-22V233l-27-14 62-51V146H816l-6-31-16-37-23-33-2-1 24-7 30-11 28-13L879 0l25-16 13-21-6-24-21-12-24 5-20 16zM106 506l64-32H298l32 27 59-48-26-22V11L362-3l-3-13-4-13-6-12-10-11-10-9-12-7-14-4-12-2-14-1v32L191-27v16h86l6 1 5 1 3 1h2l1 2 1 1 1 1 1 3V4l1 7V169H170v-9l-3-35-4-33-6-31-7-28L139 8 128-14 115-33 99-49 82-61 64-69l-6 8L70-47l9 15 7 16L93 2l5 21 4 22 3 25 2 27v31l-1 32V506zM752 146H644L6e2 69l18-1 38-2 37-5 17-3 19 22 14 24 8 26 1 16zM623 233l48-39 9-17-20-3-4-6H850l46 46-27-13v32H623zM298 314H170V190H298V314zm279 35H495V254h82v95zm146 0H641V254h82v95zm146 0H787V254h82v95zM298 453H170V335H298V453zm425-19H641V370h82v64zM191 540l-64-33V811l64-33H364v92l64-11 16-11-16-9V778H601v92l64-11 16-11-16-9V778H838l32 27 59-48-27-22V529l-64-32v43H191zM364 656H191V561H364v95zm237 0H428V561H601v95zm237 0H665V561H838v95zM364 757H191V677H364v80zm237 0H428V677H601v80zm237 0H665V677H838v80z"/><glyph glyph-name="undefined" unicode="𬁟" horiz-adv-x="1024" vert-adv-y="918" d="M534-24V-8H641h6l5 2 5 1 2 2 2 5 1 5 1 6V249H77v21H663V407l64-11 16-11-16-9V270h97l54 54 64-54V249H727V13L726 0l-2-13-4-13-7-13-9-10-11-9-12-7-13-4-14-3-13-1v33L534-24zM379 13l-6 21-15 40-17 37-31 51-11 17-12 16 6 7 18-11 17-11 17-13 16-15 15-17 27-36 13-19 23-43-1-25L421-5 396-4 379 13zM211 867l64-33H749l32 27 59-48-27-22V416l-64-32v64H275V384l-64-32V867zM749 631H275V470H749V631zm0 182H275V652H749V813z"/><glyph glyph-name="undefined" unicode="𬁠" horiz-adv-x="1024" vert-adv-y="918" d="M175 180l11 1 56 2 81 3L515 321l108 82 57 47 5 4 39-51 1-20-18 8-86-58-125-75-94-52-38-18 97 3 55 2 55 2 108 2h20l41 41 40 50 1-1 2 3 48-42 6-19-20 3-32-36-53-47-57-44-62-38-69-35L472 1 393-25 310-48 222-65 128-78l-2 10 91 23 85 25L382 8l74 31 68 34 63 36 56 40 32 27-48-8-54-8-108-14-164-19-89-8-10-18-12 16-15 63zM374 301l-7 11-9 11-12 12-15 12-36 25-46 26-27 13 2 9 58-12 26-7 23-8 12-5L506 527l36 35 42-50 2-19-20 7-46-33-48-30-52-31-56-27 9-5 18-11 17-11 14-13 13-15 3-25-15-19-24-4-20 15-5 10zM203 863l64-32H746l32 26 59-48-27-21V544l-64-33v65H267V511l-64-32V863zM746 692H267V597H746v95zm0 117H267V714H746v95z"/><glyph glyph-name="undefined" unicode="𬁡" horiz-adv-x="1024" vert-adv-y="918" d="M186 324l65-33H767l33 27 59-48-27-22V-40L767-73v43H251V-46L186-78V324zM767 120H251V-8H767V120zm0 150H251V141H767V270zm58 77-67 14-63 17-59 21-55 25-11 6-28-12-67-24-72-21-76-18-83-13-86-10-2 10 85 20 79 21 73 23 68 26 60 26-36 25-41 36-37 40-27 39h-1l-43-58-47-51-51-48-57-45-62-40-67-37-5 9 61 45 56 46 50 48 45 50 41 51 35 54 30 56 16 36H71v22H390l20 61 15 64 3 9 60-23 14-14-20-7-14-46-16-44H835l53 54 65-54V714H443l-30-61-21-33H747l10 11 2-2 22 18 59-49-27-16-25-10-26-25-47-37-53-34-31-17 24-8 56-16 60-12 64-9 125-11-64-66-71 10zM727 598H396l27-24 41-30 43-28 46-25 17-8 63 38 47 34 41 37 6 6z"/><glyph glyph-name="undefined" unicode="𬁢" horiz-adv-x="1024" vert-adv-y="918" d="M186 334l65-32H767l33 27 59-48-27-22V-30L767-62v43H251V-35L186-67V334zM767 131H251V3H767V131zm0 150H251V152H767V281zM474 394v16H582l6 1h5l3 1 2 1 1 1 1 1 1 2 1 3 1 5v7V706H468l-4-47-11-55-16-50-22-47-28-41-35-38-39-32-45-28-49-23-55-17-4 9 50 27 43 28 38 31 32 33 26 36 22 39 15 42 11 44 6 48 1 41H60v21H480V874l64-11 16-11-16-10V727H845l54 54 65-54V706H668V432l-1-14-2-13-5-14-7-11-8-11-11-9-12-7-13-4-14-3H582v32L474 394zM224 649l58-29 13-15-21-4-4-10-15-28-17-27-18-26-21-24-24-23-24-21-28-19-29-18-31-16-5 8 47 48 40 46 18 24 29 48 11 26 11 25 6 21 4 14zM889 422l-24 46-29 44-16 21-36 41-61 60 6 8 27-12 26-13 25-17 23-17 23-19 21-19 20-21 19-23 33-48 3-25-16-19-24-2-20 15z"/><glyph glyph-name="undefined" unicode="𬁣" horiz-adv-x="1024" vert-adv-y="918" d="M175 327l65-32H783l33 26 59-48-27-21V-33L783-65v54H240V-49L175-81V327zM783 131H240V10H783V131zm0 142H240V152H783V273zM133 375v16h75l7 1h5l3 2 2 1 2 1 1 2 1 4 1 4V566l-43-9L86 538l-9-18-12 14-20 63 176 18 9 1V726l38-6 1e2 92 1 1H55v22H390l13 13 2-2 19 16 59-49-27-16-43-17-13-9-72-38-38-17h4l16-11-16-10V623l56 6 44 4 44 4 46 3 2-9-44-14-43-12-86-21-19-4V413 399l-2-13-5-13-7-12-8-11-11-9-12-7-13-4-14-2-14-1v32l-75 16zM689 872l65-11 16-11-16-9V768h84l54 53 64-53V746H754V634h71l54 54 65-54V613H754V495H870l53 53 65-53V473H754V363l-65-32V473H461v22H689V613H502v21H689V746H490v22H689V872z"/><glyph glyph-name="undefined" unicode="𬁤" horiz-adv-x="1024" vert-adv-y="918" d="M496 628l-9-9-10-9-11-7-22-12-13-4-13-3-12-1-13-1v32L285 631v16H393l15 1 6 1 6 3 6 2 6 3 10 9 10 11 2 3 3 7 3 9 3 13 3 14 4 17 5 42 2 24 1 14H328l-11-38-17-39-20-36-24-33-27-30-31-27-34-24-16-9 46-22H461l32 27 59-49-27-21V342l-64-32v43H194V296l57-29H767l33 27 59-48-27-22V-39L767-71v43H251V-44L186-76V284l-57-28V574L86 556 43 545l-4 9 39 21 35 23 31 24 27 25 24 27 21 29 17 30 14 33 11 35 4 19H72v22H479l32 27 59-49-27-16-2-1-2-27-3-24-3-21-3-20-4-17-4-17-5-14-6-13-7-11-8-11zM767 109H251V-6H767V109zm0 137H251V130H767V246zm25 172v16h71l5 1 3 1 2 1 1 1 1 1 1 5 2 4v7V8e2H684V329l-64-32V854l64-32H878l32 27 59-49-26-21V455l-1-14-3-13-4-13-7-12-8-11-11-9-13-7-13-4-13-2-13-1v33l-65 16zM461 540H194V374H461V540z"/><glyph glyph-name="undefined" unicode="𬁥" horiz-adv-x="1024" vert-adv-y="918" d="M552 27V-38L487-70V629l65-32h71V835l64-10 16-11-16-10V597h71V835l65-10 16-11-16-10V597h71l32 27 59-49-27-21V-5L894-38V27H552zM364-26l-8-11-9-9-10-8-11-7-12-6-12-5-13-3-13-1-13-1v32L177-29v16h86l7 1 7 1 11 3 6 3 5 3 4 4 4 4 4 5 4 7 3 5 3 10 4 13 4 16 3 20 3 23 3 26 4 29 2 31 2 22H197l-10-68-68-23 21 146-48-52-52-49-7 7 43 55 41 57 33 48 16 109 36-25 29 52 20 39H44v21H199V695H86v22H199V868l65-11 16-10-16-10V717h29l24 32 27-27 38 113 58-28 12-15-19-4-22-59-31-75-35-72-27-52h53l44 48 54-48V509H307l-36-62-41-63-10-12-4-33 56 24 40 19 35 20 27 16v1l5 2 9-16 34-34V354l-20 8-11-5-41-14-21-6-22-5-23-5-25-4-24-4-22-1-13-84H346l33 27 59-48-27-16-2-1-3-42-7-58-7-46-4-19-5-18-5-14-7-14-7-11zM623 320H552V48h71V320zm135 0H687V48h71V320zm136 0H823V48h71V320zM623 575H552V341h71V575zm135 0H687V341h71V575zm136 0H823V341h71V575zM333 695H264V533l32 72 31 71 6 19z"/><glyph glyph-name="undefined" unicode="𬁦" horiz-adv-x="1024" vert-adv-y="918" d="M175 326l65-32H783l33 27 59-48-27-22V-23L783-55V-1H240V-39L175-71V326zM783 135H240V20H783V135zm0 138H240V157H783V273zM755 384v17H863h6l5 1 3 1 2 1 1 1 1 1 1 2 1 3v5l1 6V868l65-11 16-11-16-9V422l-1-13-3-14-4-13-6-12-10-11-10-8-12-7-13-5-14-2-13-1v32L755 384zM574 364l-34 22-30 24-26 26-23 28-17 30-13 31-8 33-24-54-28-42-34-35-38-30-44-23-48-18-54-10-2 9 49 21 42 23 36 27 30 29 26 34 20 37 16 42 10 46 6 51 1 45H334l-18-18-22-18-23-16-25-15-7 7 51 65 27 42 12 21 10 21 8 22 8 21 9 31 58-28 12-15-20-6-14-27-14-23-15-22-17-21H572l3 3 4 7 3-2 22 19 59-48-27-16-39-17-8-6-39-24-31-17-15-11-7 7 13 14 47 64 4 6H450l-3-51-9-50 4-14 11-28 14-26 15-24 19-22 21-20 24-19 28-16 30-16 69-28-62-51-37 19zM79 442 42 496l61 26 53 24 135 70 29 14 5-8-46-45-49-39-75-51-51-31-5-3-4-21-16 10zM695 823l64-11 16-10-16-10V473l-64-32V823zM209 8e2l54-48V730H64v22H165l44 48z"/><glyph glyph-name="undefined" unicode="𬁧" horiz-adv-x="1024" vert-adv-y="918" d="M870-58 854-40 817-8 797 9 753 39 704 67 650 96l3 9 31-4 31-7 29-9 28-10 26-12 51-26L894 6l21-18 9-22-8-23-23-10-23 9zM338 119l31-43 8-9V48l-19 8-35-20L266 8 202-20 133-45 95-56 57-67l-4 9L214 34l54 34 48 34 18 14 4 3zM50 124v21H356V278H168V241l-65-32V472l65-11 16-10-16-10V3e2H356V501l65-11 16-10-16-10V145H603V501l65-11 16-10-16-10V3e2H856V475l65-11 16-10-16-10V257l-65-32v53H668V145H872l54 54 64-54V124H50zM164 847l64-32H790l32 27 59-49-27-21V530l-64-33v65H228V497l-64-32V847zM790 678H228V583H790v95zm0 115H228V699H790v94z"/><glyph glyph-name="undefined" unicode="𬁨" horiz-adv-x="1024" vert-adv-y="918" d="M901-61 873-46 846-28 821-9 797 12 775 37 755 63 736 91l-16 31-13 33h-1l-9-29-19-41-26-36-33-32L580-9 536-31 486-48 430-60l-62-7-1 9 58 18 51 20L521 1l37 24 30 27 25 28 17 30 13 34 2 11H430v21H649v4l1 39v75H497v22H760l54 53 65-53V294H715V219l-5-43H853l54 54 65-54V155H720l41-45 23-22 23-20 23-17 23-16 24-13 24-11 25-9 67-20-63-55-29 12zM111 513l64-32H318l33 26 59-48-27-21V15L382 1l-2-13-5-13-6-13-9-10-11-10-12-6-13-4-13-2-14-2v33L211-23V-7h86l6 1h5l3 1 3 1 1 2 1 2 1 3 1 5v7V459H175V222l3 5 15-5 16-3 29-9 25-9 12-6 11-6 10-6 10-7 6-24-11-22-23-7-22 11-3 7-4 7-5 8-14 17-19 18-23 20-13 7v-6l-2-38-5-37-8-34-9-32-12-30-15-27-16-25L88-33 67-51 43-66l-6 7L66-15 78 8 88 32l8 26 7 26 5 29 2 32 2 32-1 35V513zM253 283l-3 7-12 15-15 16-31 29-13 8 4 8 15-5 15-3 26-8 24-9 21-8 19-11 8-23-9-23-23-8-23 9-3 6zM556 492l55-35 10-16-22-2-14-19-15-19-17-18-18-17-21-17-45-32-52-29-6 8 59 62 32 38 13 19 12 18 10 18 9 18 7 17 3 6zM910 316l-19 14-34 30-15 17-14 18-13 18-12 19-3 6-11-6v30l-3 7H626v22H762l27 22 59-49-24-14 33-26 33-22 17-11 36-17 18-8 29-14-60-49-20 13zM786 476v-3l3 2-3 1zM207 867l64-33H747l32 27 59-48-27-22V566l-64-32v43H271V561l-64-33V867zM747 695H271V598H747v97zm0 118H271V717H747v96z"/><glyph glyph-name="undefined" unicode="𬁩" horiz-adv-x="1024" vert-adv-y="918" d="M186 267l65-32H767l33 27 59-49-27-21V-33L767-66v43H251V-39L186-71V267zM767 95H251V-1H767V95zm0 118H251V117H767v96zM505 702l65-33 159 33 85 19 45 12 2-6 56-47 2-17-23 12-23-5-49-6-57-5-32-3-72-4-39-1-42-1-12 1V557H836l54 54 64-54V536H799V3e2l-64-32V536H570V487l-4-33-8-32-11-29-16-26-19-24-23-20-26-18-29-15-32-10-35-9-3 10 30 17 26 18 23 18 18 19 16 19 11 20 9 22 5 23 3 24V702zM344 325l-7-11-9-10-10-8-11-8-12-6-12-5-13-3-13-1-13-2v33l-86 16v16h86l7 1 7 1 11 3 5 3 4 3 4 4 5 4 4 5 3 7 3 7 4 12 3 17 3 21 2 24 2 29 2 33v36 31l-1-1v43H223l-1-17-6-47-9-45-12-42-16-40-18-36-22-34-24-31-28-28-31-23-7 7 23 30 20 31 17 32 15 34 13 35 9 37 8 39 5 41 2 43V741H52v21H198V875l64-11 16-11-16-10V762h58l54 54 64-54V741H193l32-6 17-10-17-10V650v-9h87l32 27 59-49-26-15 1-17V545l-1-37-2-34-1-30-3-28-3-24-4-21-6-18-7-17-7-11zM558 887l56-33 10-16-21-3-19-32-17-24-11-13H835l53 54 65-54V745H537l-32-31-24-19-25-18-27-16-29-14-6 8 63 66 36 43 15 23 14 22 13 23 10 24 13 31z"/><glyph glyph-name="undefined" unicode="𬁪" horiz-adv-x="1024" vert-adv-y="918" d="M175 284l65-32H783l33 26 59-48-27-21V-41L783-74v43H240V-47L175-79V284zM783 99H240V-9H783V99zm0 131H240V121H783V230zM921 647l64-54V571H714V453h90l54 54 64-54V432H714V301l-64-32V432H481v21H650V571H401v22H867l54 54zM113 332v16h75l7 1h5l3 2 2 1 2 1 1 2 1 4 1 4V544L98 519l-17-3-8-19-13 15-21 62 11 2 75 8 78 11h7V718l38-6 90 98 5 6H50v21H360l10 12 2-2 21 17 59-48-27-17-32-13-36-25-52-33-36-20 5-1 17-10-17-10V604l90 12 42 4 42 4 2-9-40-15-80-24-56-15V370 356l-3-13-4-13-7-12-8-11-11-9-12-7-13-4-14-3H188v32l-75 16zM459 760v22H650v92l64-11 16-10-16-10V782H833l54 53 64-53V760H810l36-21 11-16-22-3-28-39-37-44-14-14-16-14-14-15-8 5 10 18 24 54 14 33 12 31 8 25H459zM572 627l-1 12-5 24-7 25-5 12-11 25-6 13-9 12 7 6 11-9 13-8 23-20 20-22 9-12 9-13 14-27-3-25-19-15-25 3-15 19z"/><glyph glyph-name="undefined" unicode="𬁫" horiz-adv-x="1024" vert-adv-y="918" d="M107 255l64-32H387l33 26 59-48-27-21V-37L387-69v53H171V-53L107-85V255zM487-2V19h86V837l65-33H832l32 27 59-48-27-22V19h30l24 33 32-33V-2H487zM387 96H171V6H387V96zM832 267H638V19H832V267zM387 201H171V118H387v83zM832 525H638V288H832V525zM48 304v22H246v86H87v21H246v97H112v22H246v91H40v21H246v92H112v21H246v97l64-11 17-10-17-10V777h79l33 27 59-48-27-22V664h5l25 33 32-33V643H454V519l-65-32v43H310V433h61l44 49 54-49V412H310V326H410l44 48 54-48V304H48zM832 783H638V546H832V783zM389 643H310V552h79v91zm0 113H310V664h79v92z"/><glyph glyph-name="undefined" unicode="𬁬" horiz-adv-x="1024" vert-adv-y="918" d="M415 280l65-11 16-11-16-10V126l-6-35-14-33-21-28L413 5 380-16 342-33 297-47 248-58l-56-8-61-4-2 9 59 15 53 16 45 17L325 5l31 19 24 20 17 19 12 21 3 10-34-10-76-21L114 19 98 15 89-3 76 11 55 73l10 2 76 9V342l60-29 35 9 193 47 60 16 5 1 2-7 56-46 1-16-23 11-22-5-68-11-33-4-68-8-33-3-33-2-34-1H207h-1V93l89 11 78 8 39 4h3v10V280zM775 45V61h71l5 1 3 1 2 2h1l1 1 1 2v3l1 5 1 7V308H646V-46L582-78V361l64-32H861l32 27 59-48-27-22V83l-1-14-2-14-4-13-7-12-9-11-10-8-13-7-13-4-13-3H839V29L775 45zM109 645l64-33H410l32 27 59-48-27-22V421l-64-32v32H173V384l-64-32V645zm451 0 65-33H861l33 27 59-48-27-22V411l-65-33v43H625V405l-65-32V645zM861 509H625V443H861v66zm-451 0H173V443H410v66zm451 82H625V531H861v60zm-451 0H173V531H410v60zM243 873l65-32H727l32 27 59-49-26-21V675l-65-32v32H308l-65-32V873zM727 749H308V697H727v52zm0 70H308V770H727v49z"/><glyph glyph-name="undefined" unicode="𬁭" horiz-adv-x="1024" vert-adv-y="918" d="M532 225V-46L473-76V599l-34-25 13-11-27-19V351l-59-30v30H147L82 318V566L66 550 44 533l-7 6 27 46 23 46 20 44 8 23 7 22 7 22 7 32 60-26 12-15-20-6-12-28-12-23-27-45-16-21-7-9 33-17H366l17 16-18 33-9 23-9 26-7 26-6 28-4 30-3 27H180v22H305l27 22 59-48-27-16-12-6 22-46 13-23 24-38 13-15 13-14 12-11 13-9 11-9V828l59-29h76l32 27 60-49-27-16-8-3-15-47-19-50-23-52-27-54-14-22 21-22 18-26 15-25 12-27 10-27 8-28 6-29 3-29 1-29-1-29-4-4-2-10-4-13-5-12-8-11-9-10-12-8-12-6-13-4-13-2-14-1v32l-32 12zM797-32v14h63 3l3 1h1v1h1l2 3 1 3 1 5 1 6V9 740H682v21H866l54 54 64-54V740H927V9L926-4l-1-12-3-11-5-11-6-10-8-8-9-7-12-5-11-3-11-1v27L797-32zM99 312l64-32H337l33 27 59-48-27-22V-14L337-46V8H163V-30L99-62V312zM337 133H163V29H337V133zm0 126H163V154H337V259zM673 603l59-30h51l25 27 51-48-27-14V240l-49-24v56H732V208l-59-30V603zm110-51H732V294h51V552zM168 420l-1 23-1 11-5 33-2 11-6 22-4 9 7 6 8-8 9-8 9-8 9-9 15-20 13-22 4-9V563H147V372h76v36l-16-12-25 4-14 20zm198 68-3-1-8-14-24-35-18-25-11-12-8-13-6 3V372h78V488zm0 75H288V399l3 7 2 16 3 15 3 15 15 66 1 7h-1l4 13 48-26v51zM331 8e2v-1h1l-1 1zM594 296l3 24v25 24l-3 25-4 26-6 26-7 27-18 55 2 2-5 2 5 31 26 111 10 51 9 47v5H532V245h32l7 1 5 1 4 1 3 1 2 2 2 2 1 1 2 17 4 25z"/><glyph glyph-name="undefined" unicode="𬁮" horiz-adv-x="1024" vert-adv-y="918" d="M558-26v16H672l5 1 3 1 2 1 1 2 2 1 1 3V4l1 7V431l64-11 16-10-16-10V11-3l-3-13-4-13-7-12-9-11-11-9-11-6-14-5-13-2-14-1v33L558-26zM121 307l64-32H360l32 27 59-49-27-21V-20L360-53V1H185V-37L121-69V307zM821 24l-1 21-5 42-3 20-4 20-4 20-16 59-7 20 8 5 27-34 12-18 11-19 10-19 9-21 8-21 7-21 6-23 6-22-7-24L857-3 833 3 821 24zM542-1 518 5 506 27l6 24 12 15 12 16 11 19 11 20 9 22 8 24 8 26 14 58 6 32h10l4-34 1-31-1-30-2-29-5-28-6-27-8-25-9-24-11-23-13-21L542-1zM360 127H185V23H360V127zM919 83l-3 19-9 37-6 19-13 39-8 20-8 21-9 21 8 5 30-34 14-18 25-36 21-38 17-39 7-19-5-25-20-14-24 4-14 20-3 18zM360 253H185V149H360V253zm572 48-40 47-38 52-17 28-32 60-14 32-13 34-9 32H716l-26-67-27-55-30-51-32-46-36-42-39-37-42-31-6 7 33 39 32 41 29 43 26 47 24 50 21 54 16 48H508l-22-16 1-1-27-21V345l-65-32v43H150V340L85 308V560L67 548 44 533l-7 8 32 43 15 21 1 3v15l7-4 17 30 12 24 10 23 8 24 9 26 5 21h-1l2 4 3 10 59-27 13-15-21-5-15-36-14-25-15-25-16-23-18-22-1-2 21-10H395l15 12-9 10-16 24-14 25-11 26-7 27-5 29-1 29 2 25H2e2v22H328l26 21 59-48-27-16-15-8 7-18 11-23 12-22 13-19 15-18 16-16 17-14 19-14 21-12 10-6H666l13 49 14 65 5 32-49-6-42-4-43-2H520l-2 9 162 41 72 21 66 22 59 22 3-8 48-42 1-16-21 9-9-3-32-9-67-17-35-7-13-55-17-67-12-34H856l53 54 65-54V586H782l76-104 40-49 20-22 42-41 21-17 9-9-58-43zM178 448l-4 23-4 22-3 11-3 10-3 12-6 9 7 6 9-8 9-7 19-17 16-20 15-23 6-12 5-10V569H150V377h91v53l-3-14-19-14-24 3-15 20-2 23zM395 569H305V377h90V494l-6-1-26-38-19-24-21-25-8-13-9 4 5 15 12 46 7 28 10 39 2 7-1 1 4 12 50-29v53zM353 804z"/><glyph glyph-name="undefined" unicode="𬁯" horiz-adv-x="1024" vert-adv-y="918" d="M170 263l65-32H778l32 27 60-49-27-21V-32L778-65v54H235V-48L170-81V263zM778 99H235V11H778V99zm0 110H235V120H778v89zM336 312v16h49l5 2 3 1 2 1h1l1 1 1 2 1 3 1 5v7 74H308V271l-64-32V424H154V306L90 274V463l-49-3-2 9 97 27 42 14 39 15 35 15 32 16 27 18 23 17 6 6H224l-15-10-21-11-23-10-23-9-26-7-27-5-28-5-2 10 25 11 44 26 19 12 17 13 16 14 13 14 22 29 2 4H46v21H330l9 37H186l-4-11-72-8 59 163 57-32 11-15-18-4H361l33 26 59-48-27-16-10-4-20-88h62l24 32 33-32H785l10 37H641l-4-11-71-8 58 163 57-32 12-15-19-4H817l32 26 59-48-27-16-10-4-20-88h21l44 48 54-48V673H702l31-24 7-17H719l-14-13H816l9 10 2-2 23 19 59-49-27-16-25-10-6-6-27-20-30-18-33-15-19-7 22-4 16-11-16-9V446h92l32 27 59-49-27-21V350 336l-3-13-4-13-7-13-9-10-11-9-12-7-13-4-14-3H834v32l-43 16v16h49l5 2 4 1 2 1 1 1 1 2 1 3 1 5 1 7v74H764V271l-65-32V424H610V306l-64-32V463l-50-3-1 9 96 27 42 14 40 15 35 15 31 16 27 18 23 17 7 6H679l-15-10-21-11-22-10-24-9-25-7-27-5-28-5-2 10 24 11 45 26 36 25 15 14 14 14 21 29 2 4H246l32-24 7-17H263l-13-13H361l9 10 2-2 22 19 59-49-26-16-26-10-6-6-27-20-30-18-32-15-19-7 21-4 16-11-16-9V446h92l32 27 60-49-27-21V350l-1-14-3-13-4-13-6-13-9-10-11-9-13-7-12-4-14-3H379v32l-43 16zM699 490l-13-4-43-10-46-8-26-3 39-19h89v44zm-455 0-14-4-43-10-45-8-27-3 39-19h90v44zM813 802H667l-18-50H8e2l13 50zm-455 0H211l-18-50H345l13 50z"/><glyph glyph-name="undefined" unicode="𭨘" horiz-adv-x="1024" vert-adv-y="918" d="M843-53 778-32 715 6 657 61l-53 74-45 94-37 113H259V277l-64-32V718l64-32H471l-8 174 65-12 16-10-15-10 6-142H770l32 27 59-49-26-21V310l-65-33v65H590l28-89 42-85 46-65 48-45 50-31 53-17 23-3 30 131h11L910 3 933-7l9-23-11-22-22-9-66 8zM489 514H259V363H517L492 485l-3 29zm281 0H553l3-18 27-133H770V514zM472 664H259V535H486L472 652v12zm298 0H536l15-129H770V664zm-62 74-6 10-8 10-17 20-23 21-26 22-17 9 4 9 18-5 18-4 17-5 32-13 14-8 14-8 13-9 12-10 12-10 5-24-12-22-24-5-21 12-5 10z"/><glyph glyph-name="undefined" unicode="𭨙" horiz-adv-x="1024" vert-adv-y="918" d="M128 25V-40L64-72V621l64-32h65V826l65-11 16-11-16-9V589h65V826l64-11 16-11-16-9V589h65l32 27 59-48-27-22V-8L452-40V25H128zM855-24l-8-11-9-10-9-8-11-8-12-6-12-5-13-3-13-1-14-1v32L647-29v16H754l8 1 6 1 12 3 5 3 4 3 4 4 4 4 4 5 4 7 8 16 7 20 6 26 7 28 6 33 5 37 5 41 3 45 4 48 1 41H701l-11-69-69-21 48 294H553v21H869l54 54 64-54V557H734L705 374H858l32 27 59-48-27-16-1-1-4-77-9-89-5-39-7-35-7-32-8-29-9-25-10-22-7-12zM193 315H128V46h65V315zm130 0H258V46h65V315zm129 0H387V46h65V315zM193 568H128V337h65V568zm130 0H258V337h65V568zm129 0H387V337h65V568zM859 847l64-54V772H611v21H805l54 54z"/><glyph glyph-name="undefined" unicode="𭨚" horiz-adv-x="1024" vert-adv-y="918" d="M292 551l-4 10-4 10-6 11-7 12-10 11-23 24-13 12-23-26-32-30-33-26-36-24-38-19-5 8 60 57 27 30 26 31 24 33 22 34 20 36 18 37 17 39 17 49 57-30 12-15-20-4-10-24-15-29H480l32 27 59-48-27-16-10-5-18-45-31-63-36-57-42-53-46-48-51-43-55-37-36-20 54-27H751l32 27 59-48-27-22V-26L751-58V-4H273V-42L209-74V355l-14-8-64-26-70-21-2 9 64 31 58 33 55 36 49 40 44 43 39 47 35 51 31 55 26 59 14 43H301l-17-30-26-36-23-29 15-4 17-8 17-8 14-8 14-11 12-10 12-13 9-13 9-14-2-24-17-17-25 2-17 17-1 10zM751 154H273V17H751V154zm0 158H273V175H751V312zM898 527l-16 19-18 19-22 19-50 38-61 38-42 23V390l-64-32V868l64-11 17-11-17-9V702l15-4 39-12 36-13 33-16 31-15 29-17 26-18 24-19 22-21 20-21 5-24-12-21-24-6-22 12-13 20z"/><glyph glyph-name="undefined" unicode="𭨛" horiz-adv-x="1024" vert-adv-y="918" d="M122 25V-40L63-69V619l59-30h68V826l54-11 13-11-13-9V589h71V826l53-11 14-11-14-9V589h69l29 27 57-48-27-19V-8L437-37V25H122zM874 337l59-49-26-16-12-5L817-41 747-56l91 344H573v22H842l32 27zM190 315H122V46h68V315zm125 0H244V46h71V315zm122 0H368V46h69V315zM190 568H122V337h68V568zm125 0H244V337h71V568zm122 0H368V337h69V568zM902 436l-27 29-25 32-24 35-22 39-21 42-20 45-18 48-14 47-29-80-22-53-50-97-27-46-30-43-31-41-34-38-8 6 49 88 45 92 39 98 18 52 16 53 15 55 12 51 3 15 61-25 13-14-19-6-10-36 32-65 48-85 25-37 25-33 24-30 26-25 25-23 42-31-58-44-29 25zM784 519l54-48V449H623v22H740l44 48z"/><glyph glyph-name="undefined" unicode="𭨜" horiz-adv-x="1024" vert-adv-y="918" d="M749 847l-16-9 6-204 7-75 123 10 49 58 69-49 1-21-240-19 8-86 24-143 17-63 23 44 29 69 29 82 58-28 12-16-20-4-22-57-35-72-38-64-15-22 25-59 33-55 30-33 25-18 28 125h11L960 3l22-9 10-23-10-23-23-9-26 3-32 13-38 27-39 44-39 64-12 28-25-30-48-47L649 2 594-32 537-58 477-76l-4 9 55 28L579-7l48 37 45 42 42 46 38 52-35 125-25 149-9 89-99-8-2 21 99 8-7 77-5 222-1 18 65-13 16-11zM130 46V-18L65-51V643l65-32h74V847l65-10 16-11-16-10V611h75V847l64-10 16-11-16-10V611h75l32 27 59-49-27-21V46L483 14V46H130zm74 291H130V68h74V337zm140 0H269V68h75V337zm139 0H408V68h75V337zM204 589H130V358h74V589zm140 0H269V358h75V589zm139 0H408V358h75V589zM872 696l-6 14-15 28-8 14-21 27-25 27-15 13 6 8 18-8 18-8 17-9 16-11 16-11 14-12 14-14 12-14 11-15 11-16 1-25-17-18H894l-18 16-4 14z"/><glyph glyph-name="undefined" unicode="𭨝" horiz-adv-x="1024" vert-adv-y="918" d="M565 431l64-33 116 28 87 23 47 14 14 5 5 2 2-8 53-44 2-16-23 10-17-4-46-8-55-8-30-3-33-2-35-4-37-2-40-1H629V265H872l54 54 64-54V244H845V-41L781-74V244H629V183l-4-38-7-36-10-33-15-31-18-28L554-8 529-29 501-47 470-61 436-72l-4 10 28 19 25 20L506-3l17 22 14 23 11 25 9 26 5 28 3 30V431zM446-33l-8-9-10-9-10-8-11-7-12-5-13-4-12-3-13-2-13-1v33L247-32v16h97l14 1 7 2 6 2 6 2 10 7 5 5 9 11 3 6 4 14 5 20 4 26 5 32 3 36 4 43 5 99 1 47H398l-9-50-14-53-16-49-18-47-22-43-24-41-28-37-29-33-33-30-35-24-6 7 27 32L216 3l23 35 20 37 19 40 16 41 14 46 12 47 9 50 4 38H294l-12-38-15-38-17-37-19-35-21-34-23-32-24-30-27-28-30-26L75 16l-7 7 46 61 39 62 34 65 14 35 12 35 11 37 4 19H181l-23-40-39-56-22-26-24-25-25-22-7 6 48 86 28 58 13 30 12 30 19 62 7 27 4 13 59-26 13-15-20-5-18-46-14-30H436l32 27 59-48-27-17h-1V288l-3-54-3-48-3-43-4-39-5-34-4-29-6-24-7-21-10-18-8-11zM179 872l64-32H808l32 27 59-49-27-21V516l-64-33v33H243l-64-33V872zm629-54H243V678H663l53 54 65-54V656H243V537H808V818z"/><glyph glyph-name="undefined" unicode="𭨞" horiz-adv-x="1024" vert-adv-y="918" d="M170 352l65-33H778l32 27 60-48-27-22V-4L778-36V28H235V-36L170-68V352zM778 163H235V50H778V163zm0 135H235V184H778V298zM514 863l59-10 15-11-15-9V619l-3-39-9-36-14-34-18-31-23-27-27-25-30-20-35-17-39-13-43-10-2 9 38 18 33 19 29 21 24 22 20 23 16 24 12 27 8 27 4 30v32V863zm-2-471v22H730V603H623v21H730V795H602v22H846l54 53 64-53V795H794V624h30l54 54 65-54V603H794V414h73l54 54 65-54V392H512zM73 430 52 492l123 16V643H73v21H175V792H63v22H259l54 54 65-54V792H239V664h30l44 49 54-49V643H239V517l40 6 33 4 34 4 35 3 3-9-65-26-96-30-91-25-37-9-8-19-14 14zM386 771l59-11 15-11-15-9V579l-59-30V771z"/><glyph glyph-name="undefined" unicode="𭨟" horiz-adv-x="1024" vert-adv-y="918" d="M635-18V-2H742h7l4 1 4 2h2l1 1V3l1 2 2 3v5l1 6V256l-52-55-42-41-45-39-46-35-48-33-6 8 81 81 76 86 36 46 35 46 11 15V616H559l24-16-41-31 8-6-27-22V351l-65-33v33H172l-64-33V574L76 549 50 532l-6 7 51 71 15 23 26 44 11 23 10 23 8 22 9 30 58-29 12-16-20-4-15-29-15-23-15-23-36-44-6-5 35-18H458l21 17-21 30-12 23-11 26-11 26-8 29-4 22-2-1v7l-4 30H221v22H384l26 22 60-48-27-16-10-6 11-21 29-46 15-19 14-18 15-16 14-12v3H764V853l64-11 16-11-16-10V638h42l53 53 65-53V616H828V433l50 88 5 10 54-37 9-18H926l-23-36-35-52-37-50-3-4V19 6L825-8l-4-12-7-13-9-11-11-8-12-7-12-4-14-3-14-1v33L635-18zM128 312l64-32H425l32 27 59-48-27-22V-14L425-46V8H192V-30L128-62V312zM425 133H192V29H425V133zm0 126H192V154H425V259zM283 563H172V372H283V563zm114-35h-1l6 11 55-34 1-2v60H347V372H458V487l-15-1-49-62-22-23-11-14-8 5 7 15 35 113 2 8zM214 418l-1 12-3 23-6 22-3 11-7 22-5 11-7 10 7 6 10-8 10-7 11-8 9-8 9-10 18-21 7-12 7-12 7-13-4-25-19-15-24 3-16 19zM409 8e2v-1h1l-1 1z"/><glyph glyph-name="undefined" unicode="𭨠" horiz-adv-x="1024" vert-adv-y="918" d="M175 320l65-32H783l33 26 59-48-27-21V-22L783-54V0H240V-38L175-70V320zM783 133H240V22H783V133zm0 133H240V154H783V266zm87 68-55 25-50 29-44 31-17 14-40-29-57-32-64-26-69-21-75-14-3 9 72 25 64 28 58 30 50 35 32 26-23 27-28 41-21 44-15 46-4 28-27-23-28-20-31-19-6 8 46 52 40 52 34 54 15 28 13 28 12 29 12 37 58-30 12-15-21-4-22-43-17-29-20-28-6-8H861l54 54 64-54V698H870l-16-58-25-57-31-53-39-47-14-14 50-30 47-22 51-20 1e2-29-63-55-60 21zM171 576l64-32H417l33 26 59-48-27-21V383l-65-32v32H235V367l-64-33V576zM109 830l62-31 64 15 59 16 55 17 51 20 20 9 5 2 3-9 46-41 1-17-21 9-33-11-29-7-29-7-30-6-30-4-31-4-32-2-32-1-34 2h-1V738H421l32 27 59-48-27-22V603l-64-32v32H172l-2-20-5-31-7-29-9-28-11-27-14-24-16-24-17-22-21-19-22-17-7 7 26 46 11 23 10 23 7 24 6 24 5 25 2 26 1 27v27V830zM417 522H235V404H417V522zM804 698H627l-21-23-14-14 15-31 21-40 25-36 29-33 25-22 15 17 31 44 24 47 19 52 8 39zM421 717H173V625H421v92z"/><glyph glyph-name="undefined" unicode="𭨡" horiz-adv-x="1024" vert-adv-y="918" d="M101 258l64-32H382l33 27 59-49-27-21V-9L382-41V-9H165V-46L101-78V258zM880-56 836-33 795-6 758 25 724 60 699 93 683 64 649 22 609-14 564-42 514-63 459-76l-3 9 50 22 43 27 37 31 32 35 26 40 21 45 3 9-24 49-19 51-14 56 10 3 25-50 27-46 10-15 10 50 6 62 1 67v20H605l-65-32V693l65-32h95V869l64-11 16-11-16-9V661h95l33 27 59-49-27-21V357l-65-32v64H764V369l-4-73-10-66-17-62-12-30 8-11 31-32 34-28 35-25 36-19L904 7l85-25-63-56-46 18zM382 101H165V13H382v88zm0 103H165V123H382v81zM48 304v22H243v86H86v21H243v97H111v22H243v91H39v21H243v92H111v21H243v97l65-11 16-10-16-10V777h78l32 27 59-48-27-22V664h4l25 33 32-33V643H450V519l-64-32v43H308V433h58l44 49 54-49V412H308V326h97l44 48 54-48V304H48zM7e2 639H605V411h95V639zm159 0H764V411h95V639zm-473 4H308V552h78v91zm0 113H308V664h78v92z"/><glyph glyph-name="undefined" unicode="𭨢" horiz-adv-x="1024" vert-adv-y="918" d="M286-22V-6H394l6 1h5l3 1 2 1 1 1 1 1 1 2 1 3 1 5v7V218l65-10 16-11-16-10V16L479 2l-2-13-5-14-7-12-8-10-11-9-12-7-13-4-14-3H394v32L286-22zM132-34 115-16l1 25 18 16 22 7 19 8 18 9 17 10 15 12 14 13 13 14 13 17 11 18 10 21 9-2-3-24-4-23-8-22-10-22-13-20-15-18L223 6 203-9 181-23 156-35l-24 1zM853 6l-8 12-10 13-13 14-35 31-72 55-29 20 5 9 64-25 54-26 23-13 20-13 19-13 16-13 14-13 12-15 3-25-14-19-25-3L858-4 853 6zM659 15l-2 10-5 12-7 12-22 30-14 17-36 36-22 19 6 8 50-26 41-27 18-13 15-13 14-14 11-14 10-15 7-15-5-25-20-14-24 5L659 8v7zM874 152l-49 13-93 27-44 16-81 34-37 20-35 22-2 2-12 5-24-15-41-21-44-21-46-18-48-17-50-16-52-14-55-11-57-10-59-7-2 10 111 34 101 37 47 19 45 21 81 43 37 24 19 13H192l-65-32V454l46-7V583l65-10 16-11-16-10V498H480V606l64-10 16-11-16-10V498H786v85l65-10 16-11-16-10V476l-65-32v32H544V363H832v91l64-10 17-11-17-10V342l-64-32v32H507l16-23 11-11 127-41 42-12 43-10 92-19 49-8 50-7 52-8-64-62-51 11zM480 476H238l-61-30 15-2 16-11-16-10V363H480V476zM196 837l64-32H763l32 27 59-49-26-21V617l-65-33v33H260l-64-33V837zM763 702H260V638H763v64zm0 81H260V724H763v59z"/><glyph glyph-name="undefined" unicode="𭨣" horiz-adv-x="1024" vert-adv-y="918" d="M667-26v16H775l6 1 8 1 3 2 1 1v1l1 1 1 4 1 4v7V64H648V-15L584-47V64H440V-15L375-47V64H227V-30L163-62V219l-26-13V361L96 351 35 340l-3 9 114 43 54 22 50 24 48 24 45 26 43 26 39 28 38 30 34 31 1 1 37-43 96-48 41-18 87-32 44-15 46-13 47-11 48-10 48-10-63-59-50 14-6 2 41-33-27-22V238l-54-27 55-44-27-22V12L860-2l-2-13-5-13-6-12-9-11-11-9-12-7-13-4-13-2-14-1v32L667-26zM375 167H227V85H375v82zm209 0H440V85H584v82zm212 0H648V85H796v82zM523 541l-23-17-42-29-44-27-47-24-49-23-52-21-54-19-47-13 36-19h94l29 27 57-48-27-19V238l-59-29v29H201l-37-18 63-32H796l26 22v28H729l-59-29V379l59-30h93l25 21-63 22-45 19-44 21-42 23-41 25-39 26-36 28-4 4-10 3zM404 379l60-30h96l29 27 57-48-27-19V238l-59-29v29H464l-60-29V379zm418-51H729V260h93v68zm-262 0H464V260h96v68zm-265 0H201V260h94v68zM646 455l43-38V396H318v21H613l33 38zM164 866l64-32H790l32 27 59-49-27-21V577l-64-32v64H228V545l-64-33V866zM790 711H228V631H790v80zm0 101H228V732H790v80z"/><glyph glyph-name="undefined" unicode="書" horiz-adv-x="1024" vert-adv-y="918" d="M235 263l64-32H719l32 27 59-48-27-22V-28L719-61V-7H299V-45L235-77V263zM719 101H299V15H719v86zm0 109H299V123H719v87zM66 304v22H480v86H141v21H480v97H189v22H480v91H50v21H480v92H189v21H480v97l64-11 16-10-16-10V777H759l33 27 59-48-27-22V664h53l44 49 53-49V643H824V519l-65-32v43H544V433H785l44 49 54-49V412H544V326H860l44 48 54-48V304H66zM759 643H544V552H759v91zm0 113H544V664H759v92z"/><glyph glyph-name="undefined" unicode="最" horiz-adv-x="1024" vert-adv-y="918" d="M856-23 813 3 773 32 736 65 725 77 701 54 659 23 616-4 569-26 519-44l-4 9L559-9l41 29 38 31 35 33 22 25-23 30-28 42-23 45-21 48-14 46H501V-45L437-77V101L377 82 251 48 177 31 111 16l-8-1L94-4 81 10 61 72l11 2 30 2 71 8V433H55v22H871l44 48 54-48V433H501V342H818l33 27 59-49-27-16-11-4-13-33-26-50-28-46-32-43-11-13 11-9 35-26 38-23 40-20L963 6 902-46 856-23zM437 208H238V93l180 23 19 2v90zM812 320H599l22-37 27-42 29-38 30-36 19-19 33 51 23 45 20 47 10 29zm-375 0H238V229H437v91zm0 113H238V342H437v91zM211 854l64-33H749l32 27 59-48-27-22V537l-64-33v43H275V531l-64-32V854zM749 674H275V569H749V674zm0 126H275V695H749V8e2z"/><glyph glyph-name="undefined" unicode="𰖿" horiz-adv-x="1024" vert-adv-y="918" d="M318-54v22H620V177H386v21H620V376H375l5-5 5-18-20 4-41-37-61-46-29-21 29-5 16-10-16-10V-41L199-73V232l-39-22-37-19-39-17-40-15-5 9 103 72 61 48 56 50 50 51 20 22 5 6 27-27v7H620V535l65-10 16-11-16-10V397H849l54 54 64-54V376H656l29-5 16-11-16-9V198H812l54 54 64-54V177H685V-32H868l54 54 64-54V-54H318zM294 550l45-46 5-19-20 4-34-29-53-40-28-18-28-18-30-17-30-15-33-13-32-12-5 8L182 438l47 43 43 44 22 25zM179 868l64-32H781l32 27 59-49-27-21V537l-64-33v65H243V553l-64-33V868zM781 691H243V590H781V691zm0 123H243V713H781V814z"/><glyph glyph-name="undefined" unicode="𰗀" horiz-adv-x="1024" vert-adv-y="918" d="M209 295l65-32H739l32 27 59-49-27-21V-24L739-56V-2H274V-40L209-72V295zM739 119H274V19H739V119zm0 122H274V141H739V241zM899 406l54-48V337H71v21H855l44 48zM698 867l-1 1 3 4 3 3 49-42 7-18-22 2-37-36-46-42-40-33H804l32 27 59-49-27-21V435l-64-32v32H220l-64-32V738l64-32H389l-15 14-4 13-5 14-14 28-17 29-22 30-12 15-14 15 6 8 36-21 32-23 28-25 25-27 10-15 10-15 1-25-15-15H598l10 15 84 136 6 10zM480 562H220V457H480V562zm324 0H544V457H804V562zM480 684H220V583H480V684zm324 0H544V583H804V684z"/><glyph glyph-name="undefined" unicode="𰗁" horiz-adv-x="1024" vert-adv-y="918" d="M136 359l64-11 16-11-16-10V16H824l54 53 64-53V-6H2e2V-44L136-76V359zM520 558l60-22 14-14-22-8-11-24-3-7H866l44 49 54-49V462H548l-21-36-10-15-12-16-2-4H738l32 27 59-49-27-21V83L738 51V83H383L318 51V423l65-32H489l3 10 11 54 2 7H71v21H509l1 6 4 31 2 14 1 15 2 9H201l-65-32V818l65-32H365v87l65-11 16-11-16-10V786H594v87l64-11 16-11-16-10V786H822l32 27 60-49-27-21V558l-65-32v32H520zM738 182H383V104H738v78zm0 99H383V203H738v78zm0 88H383V302H738v67zM365 668H201V580H365v88zm229 0H430V580H594v88zm228 0H658V580H822v88zM365 764H201V690H365v74zm229 0H430V690H594v74zm228 0H658V690H822v74z"/><glyph glyph-name="undefined" unicode="𰗂" horiz-adv-x="1024" vert-adv-y="918" d="M761-29v16h64l7 1 5 1 5 1 2 2 1 5 1 5 1 7V175H625V-45L560-77V439l65-33H847l32 27 59-48-27-22V9L910-5l-2-13-4-13-7-13-9-10-10-9-13-7-13-4-13-2-14-1v32L761-29zM101 270l64-32H380l32 27 59-48-27-22V-19L380-52V2H165V-35L101-68V270zM380 110H165V24H380v86zm0 107H165V131H380v86zM701 385H625V197h76V385zm146 0H766V197h81V385zM48 311v21H243v85H86v22H243v95H111v22H243v90H39v22H243v90H111v22H243v95l65-11 16-10-16-10V780h78l32 26 59-48-27-21V668h4l25 32 32-32V646H450V524l-64-33v43H308V439h58l44 48 54-48V417H308V332h97l44 49 54-49V311H48zM491 492v22H701v97H544v21H701v97H522v21H701V863l65-10 16-11-16-10V750h70l53 54 65-54V729H766V632h64l44 49 54-49V611H766V514H887l44 48 54-48V492H491zM386 646H308V556h78v90zm0 112H308V668h78v90z"/></font>
</defs>
</svg>
