<svg xmlns="http://www.w3.org/2000/svg"><defs><font name="Jigmo Regular" horiz-adv-x="1024" vert-adv-y="1024"><font-face font-family="Jigmo" font-weight="400" font-stretch="normal" units-per-em="1024" ascent="995" descent="169"/><glyph glyph-name="undefined" unicode="㓾" horiz-adv-x="1024" vert-adv-y="918" d="M376 354l64-11 17-11-17-9V240h44l54 54 64-54V219H440V107H549l54 54 64-54V85H440V-41L376-73V85H154v22H376V219H258v-1l-12-20-14-20-14-17-16-17-17-16-7 6 10 20 8 20 8 20 7 21 7 19 5 20 4 21 3 20 3 21 1 16 1 16 63-19 15-12-20-9v-3l-7-23-8-22-9-20H376V354zM771-24V-8h96l7 1 5 1 4 2 3 2 1 1 1 4V8l1 6V863l64-10 16-11-16-10V14L952 1l-2-14-4-13-7-12-9-11-10-9-13-7-13-4-13-2-14-1v32L771-24zM107 847l65-32H581l29 27 57-49-27-18V627l-59-30v41H172V471l-3-68-5-65-6-61-9-59-10-55-13-51-15-48L94 19 74-22 51-58l-8 5L55-13 67 28 77 73l9 48 8 50 6 54 4 57 3 60 1 63-1 66V847zm597-64 60-11 14-11-14-9V137l-60-30V783zM376 592l64-11 17-11-17-9V406l-64-32V592zM314 460l43-37V401H187v22h93l34 37zm271 0 43-37V401H459v22h93l33 37zM314 573l43-38V514H187v21h93l34 38zm271 0 43-38V514H459v21h93l33 38zm-4 220H172V659H581V793z"/><glyph glyph-name="undefined" unicode="㛓" horiz-adv-x="1024" vert-adv-y="918" d="M314 102l-17 25-17 24-20 23-2 3-33-62-39-57L143 8 94-33 42-65l-6 8L81-17l40 44 36 51 32 56 29 64 5 15-5 5-24 20-25 20-27 20-10 7-5-18-16-62-62 16L80 344l14 62 14 63 26 126 2 10H39v22H140l6 32 11 64 11 64 9 60 3 16 62-20 14-13-18-7-7-46-10-65-12-65-3-20h94l32 27 60-49-27-16-3-1-9-75-17-94-21-87-25-80-12-28 18-14 24-23 23-25 21-25 20-28 3-24-14-20-25-3-20 14-14 26zM774 52V68h54 6l5 1 5 2 2 2 1 2v3l2 5v6V310H731V-40L666-72V310H563V30L498-2V280l-4-5-35-40-38-38-41-36-7 7 33 43 31 42 29 43 27 43 24 43 23 44 20 45 7 16H373v22H575l3 8 16 46 12 41 4 14 60-27 12-15-20-4-10-30-14-33H865l54 53 64-53V487H628l-19-39-25-45-27-44-20-28H666V460l65-11 16-10-16-10V331H849l32 27 59-48-26-22V89l-1-13-3-14-4-13-6-12-10-11-10-8-13-7-13-5-13-2-13-1V35L774 52zM299 605H202l-4-22-13-65-14-63-14-63-15-63-7-28 17-5 32-13 30-16 23-14 6 15 20 77 17 85 12 90 7 85zm509 5-25 22-26 23-30 23-23 17-5-4-45-23-47-23-52-22-55-23-59-20-4 9 54 30 51 29 48 28 44 28 30 19-3 3-37 24-39 26-41 26-44 28 4 9 49-19 46-19 43-20 40-20 20-11 9 6 34 26 29 25 26 24 18 20h-1l6 6 45-46 4-19-20 4-11-9-31-25-34-23-25-17 5-3 32-21 31-21 28-21 26-21 10-23-9-23-22-9-23 8-21 22z"/><glyph glyph-name="undefined" unicode="㞴" horiz-adv-x="1024" vert-adv-y="918" d="M917-53 888-37 854-8 819 36 783 97l-33 80-30 103-24 128-2 25H535V44l20 8 30 11 30 13 30 13 33 13 33 13 5-8-28-23-29-21-28-18-28-18-28-17L547-5 520-20 492-33 465-46l-6-2-5-21-16 11L407 0l10 3 26 8 27 9V745l56-28 11 4 36 14 36 13 35 14 35 14 35 14 34 15 34 15 33 17 29 14 5 2 5-11 41-38 1-18-20 9h-1l-35-14-37-14-36-12-27-9 5-178 12-113h83l54 54 64-54V433H759l1-16 23-122 27-97 31-73 31-52 29-35 19-17 27 117h11L947 4l4-1L972-9l7-24-13-21-23-7-26 8zM122 138V73L58 41V670l64-11 16-11-16-9V159h70V831l65-11 16-10-16-10V159h79V670l64-11 16-11-16-9V105L336 73v65H122zM676 728l-20-5-38-9-37-7-39-5-7-1V455H692L681 564l-5 164z"/><glyph glyph-name="undefined" unicode="㣥" horiz-adv-x="1024" vert-adv-y="918" d="M480 871l59-28 12-15-19-4-15-41-24-58-24-57-26-56-26-55-6-11 30-5 16-11-16-10V-45L377-77V482l-17-30-31-50-32-48-34-46-9 4 25 52 25 52 24 53 24 53 23 54 22 56 22 56 20 57 20 59 19 59 2 8zM697-24V-8h86l7 1 5 1 5 2 1 1 1 1 1 1 1 4 1 5V320H492v22H805V476l65-10 16-11-16-10V342h10l44 48 54-48V320H870V14L869 1l-3-14-4-13-6-12-9-11-11-9-12-7-13-4-14-2-14-1v32L697-24zM274 659l55-35 10-17-20-1-13-23-24-39-25-38-27-37-28-35-9-11 35-6 16-11-16-9V-40L163-72V389l-21-22-32-32-34-29-35-26-7 7 55 68 26 35 26 35 24 36 24 36 22 38 21 38 20 39 17 36 5 11zM632 108l-7 16-9 17-9 16-10 15-11 15-12 15-13 14-12 15-15 13 4 8 19-8 20-9 17-10 17-11 17-13 16-14 14-16 14-16 13-18 12-19 2-24-17-19-24-1-19 16-7 18zM487 498v21H696V686H514v21H696V869l64-11 16-11-16-9V707h64l54 54 64-54V686H760V519H868l54 54 64-54V498H487zM241 863l54-35 10-17-20-1-10-17-22-34-22-33-23-31-23-30-25-29-26-27-26-26-28-24-29-21-7 7 21 29 21 28 21 30 21 29 20 31 19 31 19 32 18 34 17 34 17 34 3 6z"/><glyph glyph-name="undefined" unicode="㥡" horiz-adv-x="1024" vert-adv-y="918" d="M165 863l64-10 16-11-16-10V-45L165-77V863zM899-23 873-4 849 16 826 37 805 59 785 82l-19 26-17 25-9 16V-43L675-75V118L657 94 632 68 607 44 580 22 551 2 520-16 488-30 454-42l-4 9 28 21L504 9l25 22 24 22 22 23 20 25 19 26 17 27 16 29 2 4H467v22H675v98l65-11 16-11-16-9V209h90l53 53 65-53V187H740v-1l12-12 21-21 22-20 22-20 22-17 23-18 23-15 24-15 25-14 25-12L986 8 925-40 899-23zM403 845l60-30H882l33 27 59-49-27-21V627l-65-32v43H463V471l-3-68-4-64-7-62-9-58-10-55-13-52-15-48-17-45-20-40-22-37-8 4 13 40 12 42 11 45 10 47 7 51 7 54 5 57 2 59 2 64-1 66V845zM876 376l30 113h11L906 376l18-12 12-18-12-18-18-11H609l-14 1-13 2-12 4-12 7-11 8-8 10-6 12-4 13-3 13-1 13V615l60-11 15-10-15-10V489l3 1 34 9 32 8 33 9 33 8 65 17 63 20 26 8 5 2 2-8 53-44 2-16-23 10-17-4-66-14-34-6-67-10-35-4-34-2-35-3H590h-5V4e2v-7l1-5 1-4 1-2 1-1 2-1 2-2 3-1 6-1h7H876zM73 389l-24 5-14 20 4 24 8 9 8 11 7 14 8 16 7 18 8 21 7 24 8 25 7 27 7 30 10-1V602l1-29-1-28-2-25-2-24-4-22-5-20-4-19-6-17-8-16-20-13zM303 504l-3 14-3 15-4 15-6 15-6 17-7 16-8 16-8 18-11 17 7 6 15-14 16-13 14-14 12-14 12-14 11-15 10-16 9-15 7-16 7-17-3-24-20-15-24 4-15 20-2 14zM882 793H463V659H882V793z"/><glyph glyph-name="undefined" unicode="㨁" horiz-adv-x="1024" vert-adv-y="918" d="M399 530l64-11 16-10-16-10V14H867l54 54 65-54V-8H463V-45L399-77V530zM82-18V-2h76 6l5 1 5 2 2 2 2 5 1 5v6V315l-9-6-63-35-12-7-3-20-17 9-37 54 10 4 32 14 33 15 32 14 34 15V632H53v22H179V863l65-10 16-11-16-10V654h11l54 53 64-53V632H244V401l29 13 33 14 32 13 33 13 4-8-27-22-28-21-30-20-30-19-16-10V19L243 6 241-8l-5-12-7-13-8-11-11-8-12-7-13-4-14-3-13-1v33L82-18zM688 871l64-15 15-13-17-5-8-104H856l54 54 64-54V713H740L730 595H832l33 26 59-48-27-21V116L832 84v54H614V1e2L549 68V627l65-32h52l9 118H402v21H677l11 137zM832 288H614V159H832V288zm0 151H614V310H832V439zm0 134H614V460H832V573z"/><glyph glyph-name="undefined" unicode="㨖" horiz-adv-x="1024" vert-adv-y="918" d="M888-11 849 31 814 78l-32 52v1L763 97 720 41 673-7 621-46 564-76l-5 8 49 38 45 43 40 50 35 56 31 62-3 6-23 61-17 66-14 71-9 75-1 36-11-22-23-39-24-36-9 5 15 40 7 20-19-14-24 4-15 20-2 17-4 18-4 17-7-3-28-13-26-12-26-10-25-10-24-9-23-8-42-14-8-20-14 14-24 61 11 2 20 2 22 4 16 2 1 6 7 34 7 31 6 31 7 30 5 29 5 27 5 27 3 26 1 8H333v22H536l54 54 64-54V761H513l-5-20-8-27-8-26-10-28-9-28-12-29-11-30-14-31-13-26 7 1 25 4 26 5 27 5 28 6 30 4 8 1-1 3-6 19-7 19-8 19-9 20-9 20-11 21 7 6 17-17 17-16 15-17 13-18 13-18 11-18 11-19 9-19 9-18 7-20-3-20 5 16 14 43 13 43 13 46 11 46 11 48 9 49 8 51 7 47 2 16 62-21 14-13-18-7-7-33-12-52-13-50-15-49-13-38H884l44 48 53-48V589H912l-12-93-18-95-22-88-28-79-20-45 18-31 31-45 35-39 37-34 40-29L992-2 932-47 888-11zM79-18V-2h65 6l5 1 5 2 2 2 2 5 1 5v6V312l-32-20-29-18-9-5-2-21-17 9-40 52 10 5 29 14 60 29 29 14h1V632H53v22H165V863l65-10 16-11-16-10V654h18l44 48 53-48V632H230V403l22 11 30 14 30 13 31 13 4-8-24-22-26-21-26-19-27-20-14-9V19L229 6 227-8l-5-12-7-13-8-11-11-8-12-7-13-4-14-3-13-1v33L79-18zM322 38l10 3 27 7 27 8 30 8 30 9 15 4V283H341v21H461V449l65-10 16-11-16-10V304h23l44 49 54-49V283H526V96l19 6 35 10 37 10 39 10 4-9-35-20-35-18-33-17-31-14V52h-5L493 39 463 25 434 13 405 1 378-10l-5-2-6-20-15 12-30 58zM847 589H732l-12-31-16-37 11-58 18-72 20-67 23-61 8-17 2 5 22 77 18 84 13 92 8 85z"/><glyph glyph-name="undefined" unicode="㮹" horiz-adv-x="1024" vert-adv-y="918" d="M885-10 845 31 810 78l-30 52-19-33-41-56L673-7 621-46 565-76l-5 8 49 38 43 43 40 50 35 56 30 61-3 7-22 61-17 66-14 71-8 75-2 36-10-22-23-39-23-36-9 5 14 40 7 20-18-14-25 4-15 20-2 17-3 18-5 17-6-3-27-13-26-12-25-10-25-10-24-9-22-8-22-7-19-7-9-20-14 14-23 61 10 2 20 2 21 4 16 2 2 6 6 34 7 31 6 31 6 30 6 29 5 27 4 27 4 26 1 8H337v22H536l54 54 64-54V761H515l-5-20-7-26-17-55-11-28-10-29-12-30-14-31-12-26 7 1 24 4 26 5 26 5 28 5 29 5 8 1-1 3-6 19-7 19-8 19-9 20-8 20-11 21 7 6 17-17 16-17 15-16 14-18 12-18 11-18 11-19 9-19 8-18 7-20-3-18 5 14 14 43 13 43 12 46 11 46 10 48 9 49 9 51 6 47 2 16 62-21 15-13-19-7-6-33-12-52-13-50-15-49-13-38H879l44 48 53-48V589H909l-12-93-17-95-22-88-28-79-20-45 18-31 31-45 34-39 36-34 39-29L987-2 928-47 885-10zM296 364l-5 12-6 13-7 12-8 11-9 12-10 12-10 12-2 2V-40L174-72V401l-16-46-19-46-19-45-22-43-24-41-26-39-9 5 17 43 16 44 15 45 14 45 14 46 12 48 11 48 9 49 9 50 4 36H43v21H174V863l65-10 16-11-16-10V621h22l43 49 54-49V6e2H239V471l14-5 16-7 15-8 13-10 14-9 13-12 12-11 11-13 11-13 2-25-15-19-24-2-20 14-5 13zM326 38l10 3 27 7 27 8 29 8 30 9 15 4V283H345v21H464V449l64-10 16-11-16-10V304h21l44 49 54-49V283H528V96l18 6 35 10 37 10 38 10 4-9-35-20-33-18-33-16-31-15V52h-5L496 39 466 26 437 13 409 1 382-10l-5-1-5-21-16 12-30 58zM844 589H731l-11-31-17-37 12-58 17-72 20-67 22-61 8-16 1 4 23 77 17 84 13 92 8 85z"/><glyph glyph-name="undefined" unicode="㯰" horiz-adv-x="1024" vert-adv-y="918" d="M401 439l65-11 16-11-16-9V14H867l54 54 64-54V-8H466V-45L401-77V439zm-81-76-6 12-7 13-8 12-9 12-20 23-18 18V-40L188-72V417l-5-15-18-47-20-46-21-45-24-43-25-41-28-39-9 5 19 44 17 44 18 44 15 46 15 46 13 47 12 49 11 48 9 51 5 35H43v21H188V863l64-10 16-11-16-10V621h14l54 54 64-54V6e2H252V472l18-6 16-7 16-8 15-9 14-10 14-11 13-11 12-13 11-14 4-24-15-20-24-4-20 15-6 13zM678 633l62-22 14-14-17-5-7-35H877l44 48 54-48V535H726l-13-75H830l33 27 59-48-27-22V89L830 57v43H599V84L534 52V492l65-32h49l13 75H382v22H665l13 76zM830 213H599V121H830v92zm0 113H599V234H830v92zm0 113H599V347H830v92zM478 644V627l-64-32V846l64-32H879l32 27 59-49-27-21V633l-64-33v44H478zm90 148H478V665h90V792zm156 0H633V665h91V792zm155 0H788V665h91V792z"/><glyph glyph-name="undefined" unicode="㲛" horiz-adv-x="1024" vert-adv-y="918" d="M894 33l30 126-439-42V48l1-6 1-2 1-2 1-1 1-1 2-1 3-1 5-1h7H894zM467 468l-8 11-10 11-13 12-16 12-19 12-21 13-24 13-26 12-9 4v-1l-23-35-28-31-34-28-38-24-44-20-48-17-53-12-3 9 49 22 43 24 37 24 32 26 26 27 20 28 15 30 10 31 2 12H61v21H287l1 35v74H201l-5-7-16-17-18-18-19-18-21-16-22-17-6 6 15 23 14 21 13 21 13 21 11 19 10 19 8 19 8 19 6 17 4 12h-1l5 13 57-31 11-15-21-4-10-18-13-19-6-9H410l54 54 65-54V763H353V689l-4-35h82l54 54 64-54V633H345l-8-28-9-23 7-1 30-5 27-7 25-8 23-8 21-10 20-11 17-12 15-13 14-14 4-24-14-21-24-4-21 14-5 10zM601 825l65-33H863l32 27 59-48-26-22V483l-65-32v65H666V499l-65-32V825zm262-54H666V537H863V771zM945 20 958 1 945-19 926-32H507l-14 1-14 3-13 4-12 6-11 9-8 11-7 12-5 13-2 13V54v56L61 76 59 97l362 35v93L104 192l-2 21 319 34v81l-24-3-67-7-70-6-72-5-74-3v9l72 14 70 13 69 13 66 12 65 13 62 12 60 14 58 13 56 14 54 14 2-7 55-46 2-16-23 11-21-5-55-11-58-10-60-10-61-10-42-5V253l274 29 48 59 69-47 3-21-394-41V138l349 33 48 59 70-47 1-21-17-2L926 33l19-13z"/><glyph glyph-name="undefined" unicode="㴛" horiz-adv-x="1024" vert-adv-y="918" d="M889-11 848 31 811 77l-32 53-2 2-21-35-45-56L662-7 608-46 549-76l-4 8 51 38 47 44 41 49 37 56 32 62-2 5-24 62-19 66-14 70-9 76-2 38-12-24-24-39-25-36-8 5 15 41 15 41 15 42 14 44 13 45 11 46 12 48 9 49 9 51 7 47 3 16 62-21 14-13-19-7-7-34-12-51-14-50-15-49-14-38H866l54 53 65-53V589H911l-12-94-19-94-23-88-29-80-21-44 18-31 33-45 36-39 38-34 42-28L995-2 935-48 889-11zM187 120l2-4 12-33 8-37 4-40V-37L202-58l-23-8-22 11-8 23 2 38V40l-2 31-6 28-9 25-12 23-14 20-18 18-22 17-25 16 3 9 32-7 28-11 26-17 9-8 7 15 10 27 13 34 17 43 19 49 22 58 25 65 29 73 32 80 10-2-23-84-21-76-18-67-18-60-14-51-12-43-10-36-7-27-4-20-2-11-9-31zM297 38l11 3 28 7 29 8 30 8 32 9 17 4V283H316v21H444V449l64-10 16-11-16-10V304h30l44 49 54-49V283H508V95l22 7 37 10 39 10 40 10 3-9-36-20-36-18-35-17-34-15V52h-4L475 39 443 25 413 13 383 1 354-10l-6-3-6-20-15 13-30 58zM846 589H724l-13-31-16-36 12-58 18-73 21-66 24-62 9-19 3 7 23 77 19 84 14 92 8 85zM574 491l-3 18-5 17-9-4-28-13-28-11-27-11-26-10-25-8-24-8-24-8-22-6-8-20-14 14-23 61 11 2 21 2 23 4 17 2 1 6 7 34 7 32 7 30 7 31 6 28 6 28 4 27 4 26 1 7H308v22H525l54 54 65-54V761H495l-6-20-8-27-8-26-10-28-10-29-11-29-13-29-14-31-13-26 8 1 26 4 27 5 28 6 30 5 30 4 9 2v2l-7 18-7 19-9 20-9 20-10 20-11 21 7 6 17-16 18-17 15-17 14-17 13-18 12-18 11-19 9-19 9-19 7-20-3-24-20-15-24 4-15 20-3 17zM136 469l-6 11-7 11-8 11-9 11-12 11-12 11-14 11-16 11-17 10 3 9 20-6 20-4 18-5 18-7 16-8 15-9 14-10 14-11 12-12 11-14 3-24-15-20-25-2-19 15-4 10zm78 257-5 11-6 10-8 10-9 11-11 12-12 11-14 12-15 11-18 11 4 9 20-7 19-5 19-6 17-7 16-8 15-9 13-9 13-11 12-11 10-13 3-24-16-20-24-2-19 15-4 9z"/><glyph glyph-name="undefined" unicode="㷰" horiz-adv-x="1024" vert-adv-y="918" d="M784-18V-2h86 6l5 1 4 2h2V2l1 1 1 2 1 3 1 5 1 6V288H691l-10-18-14-27-15-27-16-27-18-27-16-23h1l29 3 29 4 29 3 30 4 29 2 30 3h5l-1 2-7 17-8 18-9 17-9 19-12 18 7 6 17-14 16-15 15-14 14-16 13-15 11-16 10-17 9-17 8-17 6-18-4-24-20-14-24 4-15 20-1 15-3 15-4 16-4 12-6-2-28-11-28-9-28-9-28-8-29-8-29-8-29-7-30-7-7-2-8-19-14 14-22 62 11 1 64 9 3 9 12 30 11 29 11 29 10 29 10 26H476V-40L411-72V342l65-32H642l3 7 8 27 8 25 5 21 1 4 1 2 3 8 58-29 12-15-20-4-3-7-11-26-6-13H892l32 27 59-49-27-21V19 6L953-8l-4-12-7-13-9-11-11-8-12-7-13-4-13-3-14-1v33L784-18zM316 97l-5 18-7 18-8 19-10 19-12 21-12 21-14 22-15 21-3-19-15-55-19-52-23-48-27-42L115 1 81-32 42-60l-6 8L66-18 93 19l23 39 20 43 17 45 14 49 10 52 7 57 3 60V847l65-10 16-11-16-10V546l12 16 14 20 14 18 13 18 12 17 12 17 11 15 7 10h-1l6 7 47-44 5-19-21 4-11-11-15-14-16-14-17-15-18-16-19-16-20-16-15-12V428l-3-67-8-64-4-20 9-7 22-17 20-19 18-19 16-19 15-19 14-19 12-20 10-20 8-20-2-24-19-16-25 3-15 19-4 17zM848 675l65-11 16-10-16-10V396l-65-33v43H520V390l-65-32V675l65-11 16-10-16-10V428H848V675zM82 352l-24 3-14 20 3 25 10 14 9 18 8 19 7 21 5 24 5 26 3 28 2 31 2 32v35l10 1 9-34 8-33 4-31 2-31 1-29-2-28-3-26-6-25-8-24-11-22-20-14zM764 485l-22 20-23 20-16 13-28-20-32-19-33-16-35-15-37-12-4 9 32 21 29 21 29 22 26 22 17 15-43 29-24 16-25 15-24 16 3 9 30-6 29-8 28-11 28-12 28-14 3-1 20 22 19 25 18 26 14 22v1l5 8 52-39 8-17H815l-8-11-24-26-24-26-14-12 6-3 27-18 26-19 26-21 10-22-8-23-22-11-23 8-23 22zM4e2 724v21H646V869l64-11 17-11-17-9V745H866l54 54 64-54V724H4e2z"/><glyph glyph-name="undefined" unicode="㿂" horiz-adv-x="1024" vert-adv-y="918" d="M886-27 849 7 816 45 787 87 770 62 731 18 687-20 638-51 586-73l-4 8 46 32L668 2l36 39 33 45 26 46v1l-21 49-17 53-12 57-8 61-1 26-9-16-21-30-22-27V292H517V190h17l54 54 64-54V168H517V78l35 6 42 6 43 7 45 6 3-10-43-16-41-15-41-13-39-12-37-11-37-11L411 5 378-5l-33-9-10-3-8-19-13 13-25 62 11 2 32 5 33 6 35 6 36 5 16 3V168H321v22H452V292H309v22H555l44 48 47-43 10 24 13 33 13 34 12 35 11 36 10 36 9 38 9 39 7 40 6 36 3 15 61-21 14-14-19-7-5-22-11-41-13-40-13-38-11-26H874l44 49 54-49V455H910l-11-74-17-76-21-70-25-64-17-32 14-21 28-35 32-30 33-26L963 4l24-14-60-46-41 29zM32 278l11 5 14 4 16 5 16 6 18 7 17 7 19 9 19 9 20 10 20 10 1 62V769l59-29H534V874l64-11 16-10-16-10V740H856l54 53 64-53V718H262V412l-4-67-7-63-10-60-15-55-19-51-22-47-26-42-30-38L95-43 58-70l-6 7L82-30 108 6l23 38 20 41 17 46 14 48 10 52 7 57 2 37-5-5-17-16-16-14-17-14-16-13-16-11-16-11-11-6-5-23-16 11-34 55zM845 455H743l-12-25-15-30 11-44 17-56 18-53 21-48 6-10v2l21 61 16 66 12 72 7 65zM383 409V392l-54-26V610l54-11 13-11-13-9V430h75V679l53-11 14-11-14-8V430h73V610l59-11 15-11-15-9V409l-59-30v30H383zM108 508l-3 17-4 16-5 16-5 16-6 14-7 15-8 14-9 14-10 11 6 8 14-9 15-9 15-11 13-12 13-14 11-16 10-16 10-18 8-19 8-20-4-24-20-15-25 4-14 20-3 18z"/><glyph glyph-name="undefined" unicode="䄺" horiz-adv-x="1024" vert-adv-y="918" d="M346 297l-7 13-8 12-9 12-10 13-11 12-12 11-13 13-9 8V-45L202-77V351l-10-27-19-46-22-43-23-42-25-40-27-37L46 81l-8 6 21 40 19 41 19 41 17 43 16 44 15 45 13 47 12 47 10 50 5 34H42v22H202V721l-22-5-39-9-43-8-45-7-3 10 43 17 39 15 38 15 34 14 32 14 29 13 27 13 23 13 20 12 13 9 4 3 13-21 29-30V771l-19 8-11-5-24-10-27-10-29-10-17-6V541h27l54 54 65-54V519H267V409l21-7 17-7 17-8 16-9 15-10 15-10 13-12 13-13 13-13 4-24-14-21-24-5-20 14-7 13zM945 178l-5-11-8-12-8-10-10-9-12-8-12-5-12-4-14-2-13-1v32l-73 11 5-8 25-33 25-29 28-24 31-20 32-17 35-12L998 2 936-52 895-32 857-9 823 20 793 52 767 88l-23 40-18 44-14 47-10 51-2 19-18-65-26-63-34-57-41-50-47-42-54-36-60-27-66-20-3 9 61 29L465 1l46 38 40 42 33 48 26 53 21 58 14 64 1 11H504l-7-42-69-21 45 262 51-38H654V6e2H435v21H654v97H406v22H654V869l65-11 16-11-16-9V740H868l54 53 65-53V718H719V621H848l32 27 59-48-26-22V433l-65-32v54H719v-6l-5-81-6-31H901l32 26 60-48-27-16-2-1-1-9-1-15-1-15-2-14-1-12-2-12-2-11-2-9-2-9-5-14zM848 6e2H719V476H848V6e2zm41-385 1 8 2 8 2 10 1 12 1 12 2 14 1 15 1 16v5H711l13-39 18-46 20-42 4-7h85 7l5 1 5 1 4 2 3 2 3 3 2 3 3 4 3 6 2 6 1 6zM654 455H529L508 337H649l4 37 1 75v6z"/><glyph glyph-name="undefined" unicode="䆈" horiz-adv-x="1024" vert-adv-y="918" d="M278 3e2l-6 12-6 13-6 12-8 11-8 12-9 11-10 12v1V-45L160-77V318l-13-38-18-44-19-42-21-40-24-37L40 82l-8 5 16 39 15 41 14 41 14 43 12 43 12 45 10 47 10 48 8 50 4 35H36v22H160V718l-9-2-33-9-35-8-38-7-3 10 34 16 32 16 30 15 22 11v1h3l3 2 26 13 23 13 20 13 19 12 16 12 9 8 4 4 39-51 1-20-20 8-20-11-23-10-24-10-11-4V541h16l44 48 53-48V519H225V406l13-5 15-7 14-8 14-9 13-10 13-11 11-12 11-13 10-13 3-24-16-20-24-2-20 16-4 12zM832-51l-81 2-67 6-56 10-46 15L545 1 517 25 495 52 480 82l-4 15-2-1-4-5-11-18-24-32-12-16-12-14L399-4 387-18l-8-9 3-22-19 5L313-3l8 7 14 10 29 20 15 11 15 11 15 11 16 11 4 3V353H331v21h98l32 27 59-48-27-22V105l-2-1 9-10 5-6 3 10 7 36 6 39 6 41 4 43 4 46 3 49 1 52v54l-1 57V845l65-33H875l32 27 59-48-27-22V646l-64-32v43H603V515l-3-59-4-55-4-53-7-50-8-47-10-45-11-41-14-39-15-35-9-16 2-3 22-18 25-14 32-11 40-8 50-5 64-1 77 2 93 6 59 3-54-74-96-3zM730 415l65-11 16-10-16-10V318h30l33 38 43-38V297H795V203h34l54 54 64-54V182H795V77L730 45V182H581v21H730v94H660l-9-17-10-16-12-16-12-14-13-14-8 5 7 17 6 17 8 35 4 17 3 17 2 18 2 17 1 18v13l1 17 63-19 15-12-20-9-5-18-6-20-7-15h60v97zm0 203 65-11 16-11-16-9V462l-65-32V618zM874 513l43-38V454H799v21h42l33 38zm-192 0 43-38V454H607v21h42l33 38zm-267 2-13 27-15 26-9 12-8 12-9 12-10 12-11 10 5 8 14-7 15-6 14-8 14-8 14-9 13-11 13-11 12-13 11-13 12-14 3-25-15-19-24-3-20 14-6 14zm267 95 43-38V551H607v21h42l33 38zm192 0 43-38V551H799v21h42l33 38zM449 705l-6 14-6 13-6 13-7 13-8 12-8 13-8 13-9 12-12 11 6 8 14-8 15-7 14-8 14-9 12-11 13-11 12-12 11-13 11-13 10-15 2-24-16-19-25-1-19 15-4 14zm426 86H603V678H875V791z"/><glyph glyph-name="undefined" unicode="䈚" horiz-adv-x="1024" vert-adv-y="918" d="M732 19l33 134h10L765 19 784 6l13-19-13-20-19-13H383l-14 1-13 3-13 4-13 6-10 9-9 11-7 12-4 13-3 13V40 176l64-11 17-11-17-9V34l2-5 1-3V24l1-1 1-1 2-1 3-1 5-1h7H732zM74-22 56-5V19L73 37l15 5 14 7 12 8 11 10 11 11 9 13 8 17 7 17 6 21 2 23h10l3-24 2-23-1-22-3-22-7-20-9-19-12-18L136 5 118-10 99-22H74zM896 34l-5 13-8 13-9 14-12 14-14 14-16 15-17 14-20 15-22 14 3 9 50-16 23-10 21-11 19-12 18-12 16-14 14-14 13-17 10-17V22L943 4H918L901 22l-5 12zM566 88l-8 11-10 11-11 11-12 11-14 11-14 11-16 11-17 11-19 10 4 9 21-5 20-3 20-6 19-6 18-7 17-9 16-9 15-10 15-11 13-12 7-23-11-22-24-7-22 11-7 12zM846 434l-14 15-15 14-18 15-1 1-55-7-82-9-79-8-74-6-71-7-68-5-65-5-58-4 64-32H730l32 27 59-49-27-21V225l-64-32v32H310l-65-32V427h-1l-57-4-31-2-11-18-11 16-14 64h11l54 1 57 1 48 1 21 19 23 21 21 20 20 19 19 19 18 18 17 17 15 18 11 12 5 6 44-47 5-19-21 5-1-2-19-15-20-16-21-15-23-16-24-16-26-16-19-11h31l68 1 72 1 75 2 78 1h83 38-1l-22 15-23 16-26 15-27 16-29 17 4 9 33-7 31-9 29-10 27-10 26-12 24-12 22-13 21-13 19-15 18-15 8-23-10-22-23-9-23 10-12 14zM730 374H310V247H730V374zM343 651l-5 10-6 12-8 11-10 11-11 12-13 12-15 13-16 13-12 7H222l-14-20-21-26-24-25-25-23-28-23-30-20-33-18-6 8 26 26 24 26 22 26 19 25 19 26 15 26 14 26 13 27 9 27 7 22v1l1 4 3 8 59-28 12-15-20-5-5-10-15-29-8-14H431l54 53 65-53V752H284h2l19-7 18-8 17-10 15-9 15-11 12-11 12-12 10-14 2-24-16-19-24-2-20 16-3 10zm425 0-5 10-6 12-8 11-10 11-11 12-13 12-15 13-17 13-11 7H638l-13-14-19-19-21-17-24-15-25-15-27-13-5 8 20 21 20 19 17 20 16 20 14 20 12 19 11 20 8 20 8 20 4 16 4 13 59-28 12-15-21-5-2-4-12-23-15-22-3-4H861l54 53 65-53V752H709h2l19-7 18-8 17-10 15-9 14-11 13-11 11-12 11-14 1-24-15-19-25-2-19 16-3 10z"/><glyph glyph-name="undefined" unicode="䉜" horiz-adv-x="1024" vert-adv-y="918" d="M377 27l-7 17-8 17-11 16-12 17-14 16-16 16-18 17-20 17-2 1-16-42-23-44-28-41L170-2 134-33 93-60 48-81l-5 8L81-43l34 31 29 34 25 36 21 38 16 42 13 44 9 48 2 29H53v22H232v1 55V448H171l-1-4-14-27-15-27-16-27-18-26-20-26-9 4 11 31 10 30 10 28 9 29 9 28 8 27 7 27 6 27 5 26 4 21 2 15 62-23 13-14-19-7-2-7-10-27-9-27-12-28-1-2H316l54 54 65-54V448H297V337l-4-56h40l54 53 64-53V259H290l-5-38-12-44 6-2 26-10 23-12 22-14 20-14 18-16 16-17 15-19 13-19 11-21-2-25L423-9 399-7 382 11l-5 16zM711 444l6 11 9 19 9 17 9 17 8 16 8 16 15 29 7 13 3 8 5 9 52-40 7-18-23 1-16-17-11-13-13-12-13-13-14-14-14-13-16-14-2-2H833l54 54 64-54V423H768V304h55l53 54 65-54V282H768V160h55l53 53 65-53V138H768V-1h85l54 54L972-1V-22H578V-38L513-70V394l-16-16-25-22-28-21-29-18-6 7 21 26 21 26 20 26 19 26 19 27 17 28 17 29 15 29 14 30 12 26v1l2 4 3 6 55-33 10-17-20-2-7-13-19-31-20-29-21-28-8-11H711zm-8-306H578V-1H703V138zm0 144H578V160H703V282zm0 141H578V304H703V423zM338 634l-6 11-6 12-8 12-10 13-11 13-13 12-14 13-17 14-12 8H216l-13-20-21-28-24-27-26-26-27-24-31-22-32-21-6 8 25 28 24 28 22 27 20 27 18 28 16 28 14 29 12 28 10 30 7 25 4 13 59-27 12-15-20-5-5-13-15-31-10-18H426l54 54 64-54V742H275l6-2 19-8 18-9 17-10 16-10 14-12 13-13 11-14 11-14 1-24-17-19-24-1-19 17-3 11zm425 0-6 11-6 12-8 12-10 13-11 13-13 12-15 13-16 14-12 8H639l-11-16-22-26-24-25-25-23-28-21-30-20-33-17-6 8 26 25 24 25 22 25 20 25 18 26 16 26 14 27 11 27 11 28 6 24 1 2 1 3 2 8 60-27 12-15-20-5-5-12-15-30-11-20H856l54 54 64-54V742H7e2l6-2 19-8 18-9 17-10 15-10 14-12 13-13 12-14 10-14 1-24-16-19-24-1-19 17-3 11z"/><glyph glyph-name="undefined" unicode="䊓" horiz-adv-x="1024" vert-adv-y="918" d="M336 238l-9 17-9 16-10 17-11 17-12 18-13 17-12 15V-34L196-67V302l-12-34-19-44-20-42-22-40-24-38L72 70 43 38l-7 6L55 81l19 38 18 39 16 40 15 42 13 44 13 46 10 46 9 49 5 35H44v22H196V863l64-10 17-11-17-10V482h30l54 53 64-53V460H260V386l16-10 19-14 18-14 16-15 16-15 15-15 14-16 13-17 12-16 3-24-15-20-24-3-20 15-7 16zM857-40l-71 3-64 10-57 15-50 23-42 29-33 35-24 41-12 40-2-7-18-41-20-40-22-35L416 1 389-27 358-51 325-70l-5 8 25 27L367-8l21 31 19 31 16 35 15 37 12 40 10 43 8 46 6 48 2 11 62-19 15-13-19-8-5-30-13-49-1-3 8-23 21-38 26-30 30-26 37-20 11-3V380H407v21H858l54 54 64-54V380H713V234H834l44 49 54-49V213H713V35l18-4 59-5 66 1 73 6 57 6-51-76-78-3zM472 850l65-32H836l32 27 59-48-27-22V492l-64-32v54H537V476l-65-32V850zM836 655H537V535H836V655zM341 791l59-29 11-15-20-4-9-20-10-21-22-45-12-22-13-23-14-24-16-25-16-24-9 4 8 28 8 28 8 26 7 25 8 25 7 23 6 22 6 22 6 21 3 14 1 4v2l3 8zM113 584l-2 18-3 19-3 19-4 21-5 21-5 22-6 23-7 24-7 25 9 4 14-22 14-21 12-21 11-21 11-20 9-21 8-19 7-19 6-19 6-19-6-24-21-13-24 6-13 21-1 16zM836 797H537V677H836V797z"/><glyph glyph-name="undefined" unicode="䌤" horiz-adv-x="1024" vert-adv-y="918" d="M775-29v16h54l7 1 5 1 5 1 1 1v1l2 2 1 3 1 5V238l-13-3-3-8-12-26-13-26-6-12 9-10 12-15 11-16 10-17 1-24-16-19H806L788 78l-6 16-6 16-2 5-7-11-17-21-17-19-19-17-20-16-5 4V-29L625-61V68L607 51l-25 2-17 17-5 19-6 17-3 11-10-13-17-21-19-19-20-18-21-15-1 1V-45L399-77V560l-11-7-25-14-26-13-6 8 20 21 48 52v14l9-4 17 20 17 21 17 22 15 22 16 23 12 19 6 8 50-40 7-18-20 1-6-6-19-23-20-21-21-21-22-19-9-8 15-8H625V767H338v21H858l53 54 65-54V767H689V589H851l32 27 33-27-9 13-13 16-15 17-17 16-18 16-20 16-21 17-23 17-24 16 4 9 29-9 27-9 26-12 24-12 23-13 21-15 21-15 18-17 17-17 16-18 5-24-13-21-24-5-13 8-22-17V9-5l-2-13-5-13-7-13-8-10-11-9-12-7-13-4-14-2-14-1v32L775-29zM302 375l-1 4-2-1-25-12-26-11-9-3V-45L175-77V330l-7-2-27-8-28-7-28-7-7-1-9-19-13 15-20 61 11 2 28 3 40 4 8 19 19 38 19 39 19 39 20 38 18 39 19 38 18 40 18 38 16 35 5 11 55-35 10-16-20-2-11-20-21-38-22-38-46-74-23-37-24-36-25-35-26-35-5-5 49 7 27 4 54 9 27 3 3 1-4 14-5 18-6 17-7 17-8 17-7 16-10 15 7 7 15-12 15-12 14-14 13-15 11-17 12-18 10-19 9-20 9-21 7-22-4-24-20-15-24 5-15 20-6 40zM92 266l62-18 16-13-19-8-1-9-7-30-7-29-9-29-10-28-11-28L93 47 78 20 62-6 43-31l-8 5L43 3l9 28L67 87l6 28 6 27 4 28 3 28 3 28 1 22 2 18zm690 75-6 16-4 9-7-10-16-21-18-18-18-16-19-13-5 4V43l10 16 11 22 11 22 11 22 10 23 7 16-4 6-9 15-11 16-10 15-13 15 7 7 16-11 17-10 16-11 5-4 7 19 7 26 6 22 1 3v2l3 8 59-27 5-6V495l-13-3-4-10-12-28-13-27-8-14 11-12 12-16 12-16 11-18V326l-17-17-24-1-18 17-6 16zm-222 0-6 16-5 10-8-11-17-21-17-18-20-16-20-13-4 4V48l7 12 13 22 12 21 12 23 11 22 9 21-3 5-10 15-10 16-11 16-13 15 6 8 17-11 18-10 16-13 4-3 5 14 8 26 6 22 1 3v2l3 8 59-27 2-2V494l-10-2-4-10-12-28-13-27-8-14 11-12 13-16 12-16 10-18V326l-16-17-25-1-18 17-5 16zM302 106l-3 21-4 21-4 20-5 20-12 36-7 18-7 17-8 17 7 6 15-13 14-14 14-15 12-17 11-19 11-19 9-21 9-22 7-23 7-24-5-24-20-13-25 5-13 20-3 23zM625 237l-10-2-3-8-12-27-13-26-5-9 11-16 12-18 11-19 9-17V237zm0 331H463V299l10 15 22 41 12 22 10 23 5 13-1 1-10 14-11 13-12 13-14 12 5 9 17-8 18-7 16-9 6-4 1 1 8 27 9 27 6 24 4 13 59-27 2-2v58zm226 0H689V299l9 15 11 20 11 21 10 22 10 22 6 13-2 2-11 14-11 13-12 13-14 12 5 9 17-8 18-7 17-9 6-4v1l9 27 8 27 7 24 4 13 59-27 5-6v62zM118 553l-4 16-6 16-7 16-7 16-9 15-9 15-11 14-11 15-13 14 5 8 18-10 17-9 17-11 15-13 11 30 17 45 8 22 8 21 9 22 8 22 7 22 6 17 2 4v1l3 7 57-33 10-16-20-3-2-2-12-21-11-20-13-21-13-20-13-21-27-38-16-19-8-10 4-3 13-15 12-16 11-17 10-18 10-19-3-25-18-16-25 2-16 18-4 18z"/><glyph glyph-name="undefined" unicode="䓜" horiz-adv-x="1024" vert-adv-y="918" d="M203-63l-23-7-22 11-7 24 3 27V16l-2 22-4 20-8 18-10 17-13 16-17 14-21 14-25 12 2 10 29-5 27-7 25-12 10-8 1 1 13 21 17 27 20 31 23 35 27 40 30 45 35 49 38 54 8-6-29-58-27-54-25-48-22-42-19-38-16-32-13-28-9-22-6-17-2-6 1-2 11-25 8-29 4-31V-41L203-63zM739 39l64-54V-37H318v22H685l54 54zM882-11 831 17 786 55l-39 47-31 56-26 64-19 73-5 26H475V116l36 5 36 6 38 6 40 6 41 5 2-10-38-15-38-14-36-13-36-10-35-10-34-10-32-8-32-8-30-6-7-2-9-19-13 15-20 62 11 2 28 2 31 3 31 4h2V573l63-32 16 3 46 10 45 9 44 9 44 10 84 20 40 11 40 12 33 11 6 2 2-8 52-44 2-17-23 11-16-5-41-9-41-9-43-8-43-7-10-1 2-72 8-85 7-41H871l53 54 65-54V321H731l2-12 18-67 23-56 27-47 31-38 35-31 40-21 10-3 28 124h11L946 37l6-2 20-15 5-24-14-20-24-4-57 17zM159 346l-5 8-6 8-10 9-10 9-13 9-15 9-16 10-18 9-21 8 3 9 22-3 21-3 19-3 19-4 17-5 16-6 15-6 14-8 12-9 12-10 5-24-12-21-24-6-21 13-4 7zM647 533l-15-1-46-4-47-3-47-1H475V343H662l-5 32-8 89-2 69zm-412 1-6 8-7 9-9 9-11 9-12 9-13 9-16 10-17 9-18 8 2 10 21-4 19-3 19-3 17-4 17-5 16-6 14-7 14-7 13-9 11-9 7-24-11-22-24-7-22 12-4 8zM633 871l65-10 16-11-16-10V753H866l54 54 65-54V732H698V640l-65-33V732H395V640l-64-33V732H44v21H331V871l64-10 16-11-16-10V753H633V871z"/><glyph glyph-name="undefined" unicode="䓡" horiz-adv-x="1024" vert-adv-y="918" d="M479 40 469 58 457 76 443 94l-18 18-19 18-22 18-25 18-27 18-10 6-21-49-29-49-35-43-41-39-46-33L98-52 41-75l-4 9L88-34 133 0l39 37 34 38 27 42 23 45 16 48 12 52 4 30H50v22H290l1 3 1 59V497H196l-3-6-16-29-19-29-20-29-23-29-24-28-8 6 15 33 15 32 14 31 13 31 12 30 11 30 10 29 8 29 7 28 5 23 3 14 61-24 13-15-20-6-3-9-11-29-13-30-14-30-1-2H426l54 54 64-54V497H356V376l-5-62h96l54 54 65-54V292H348l-7-42-13-44 13-3 32-12 29-13 27-15 25-15 24-18 20-18 18-21 16-21 13-23V23L529 5H504L486 22l-7 18zM603 579l65-32H872l32 27 59-49-27-21V-8L872-40V13H668V-24L603-56V579zm269-54H668V35H872V525zM673 876l65-10 16-11-16-10V756H861l54 54 65-54V735H738V642l-65-32V735H539v21H673V876zm-387 0 65-10 16-11-16-10V756h16l54 54 64-54V735H351V642l-65-32V735H44v21H286V876z"/><glyph glyph-name="undefined" unicode="䕌" horiz-adv-x="1024" vert-adv-y="918" d="M571-8V-45L507-77V425l-20-19-27-23-28-21-30-20-6 8 22 27 3 3H281V301h3l18-4 17-4 17-5 16-5 15-7 14-7 14-8 13-9 13-10 8-23-11-22-23-8-22 10-6 10-8 10-8 9-9 10-11 10-11 10-13 9-14 10-12 9V-37L216-69V258l-13-27-21-34-21-32-24-32-26-29L83 77 53 53l-7 6L68 91l20 31 20 32 18 32 17 33 15 34 13 35 12 36 10 37 5 19H50v21H216V529l-25-4-41-6-43-5-47-3-1 9 44 14 41 13 40 12 36 11 32 12 31 10 27 10 25 10 21 10 14 7v1-1l4 3 5-11 43-39 1-18-21 9h-1l-22-8-25-7-27-7-30-7-16-3V401h33l54 54 64-54v-7l29 37 21 27 19 28 6 8v12l5-3 8 11 17 30 16 30 15 31 12 28 2 3v2l3 6 55-34 11-17-21-2-8-14-19-32-21-30-22-29-4-5 15-7H711l7 11 10 20 10 18 9 17 9 17 9 16 8 15 7 15 11 22h-1l6 9 51-40 8-18-23 1-6-7-23-24-13-14-14-13-14-14-15-15-17-14-2-2H845l54 53 65-53V452H770V328h65l53 54 65-54V307H770V180h65l53 53 65-53V158H770V14h97l54 54 64-54V-8H571zM706 158H571V14H706V158zm0 149H571V180H706V307zm0 145H571V328H706V452zM630 873l65-11 16-10-16-10V769H861l54 54 65-54V747H695V669l-65-32V747H394V669l-65-32V747H44v22H329V873l65-11 16-10-16-10V769H630V873z"/><glyph glyph-name="undefined" unicode="䙙" horiz-adv-x="1024" vert-adv-y="918" d="M317 214l-6 16-7 15-8 16-10 15-11 16-11 16-13 16-2 3V-45L184-77V344l-17-19-37-38-41-38-43-34-6 7 35 42 33 41 32 42 30 43 14 22v5h3l11 16 25 44 24 44 21 46 20 46 9 25H63v21H184V874l65-11 16-10-16-10V659h54l33 27 59-48-27-17-11-4-13-28-24-48-26-46-28-44-24-34h7V352l18-10 8-5 3 5 9 18 9 17 7 16 7 15 6 13 6 13 4 11 3 10 1 4h-1l2 4v1l3 6 55-33 10-17-25-3-9-10-10-11-36-36-15-13-15-14-3-3 16-13 16-13 15-15 14-15 13-15 11-17 10-17 1-25-17-18H341l-19 17-5 15zM686 354l65-11 16-11-16-9V240h48l53 54 65-54V219H751V107H865l53 54 65-54V85H751V-41L686-73V85H459v22H686V219H565l-1-2-12-20-14-19-14-18-17-16-17-16-8 6 11 20 9 20 8 21 8 20 6 19 6 21 4 20 3 21 2 20 2 16v2 3l2 11 62-19 15-12-20-9v-3l-7-23-8-22-9-20H686V354zM411 847l65-32H893l32 27 60-49-27-21V627l-65-32v43H476V471l-3-68-5-65-6-61-9-59-10-55-14-51-15-49-17-44-20-41-23-36-9 5 13 40 12 41 10 46 10 47 7 50 6 54 5 57 3 60 1 63-1 66V847zM686 592l65-11 16-11-16-9V406l-65-32V592zM623 460l43-37V401H492v22h97l34 37zm277 0 43-37V401H770v22h97l33 37zM623 573l43-38V514H492v21h97l34 38zm277 0 43-38V514H770v21h97l33 38zm-7 220H476V659H893V793z"/><glyph glyph-name="undefined" unicode="䙾" horiz-adv-x="1024" vert-adv-y="918" d="M643 271l62-19 15-13-20-8-6-32-17-48-21-45-26-40-31-36L564-1 524-27 480-49 432-66 380-76l-2 9 47 21 42 22L504 2l33 28 28 30 24 34 19 37 15 39 11 43 6 42 3 16zM921 25l32 134h11L953 25l20-13L986-8 973-27 953-40H822l-13 1-14 2-13 5-12 7-11 8-9 11-6 12-5 13-2 14-1 13V281H614V216l-65-32V835l65-32H849l32 27 59-48-27-22V248l-64-32v65H801V46 40l1-5 1-3 1-2 2-2 5-2 5-1h6 99zM404 46l33 135h10L437 46l19-13 13-19L456-5 437-18H222l-14 1-14 2-13 4-12 7-11 9-8 11-7 12-5 13-2 13V68 568l64-11 16-11-16-9V319l31 29 30 26 28 25 26 23 23 22 21 19 18 18 15 16 9 11 5 5 44-47 4-19-21 5-18-14-21-16-24-17-26-18-29-20-32-21-34-22-38-22-11-6V61l1-5 2-4 2-3 5-1 5-1 7-1H404zM849 455H614V302H849V455zm0 163H614V476H849V618zM117 681l1-11V648 627l-1-18-3-18-4-16-7-15-9-14-22-9-23 9-10 23 10 22 5 3 5 6 7 9 6 11 6 15 5 17 5 20 4 22 4 24 3 27 9 1 3-27 3-18v1H243V858l65-11 16-10-16-10V702H426l3 2v1l29 24 59-48-27-17-19-7-5-8-8-11-9-11-10-11-9-12-11-12-11-12-11-14-8 4 7 16 5 16 4 15 4 15 5 14 3 13 4 12 2 10H117zM849 782H614V640H849V782z"/><glyph glyph-name="undefined" unicode="䚦" horiz-adv-x="1024" vert-adv-y="918" d="M697 270l64-16 15-11-18-9-3-29-9-46-11-43-14-40-18-35L682 9 659-19 633-44 604-62 572-76l-5 8 25 22 21 23L632 3l16 27 14 30 12 34 9 36 7 39 4 43 2 46 1 12zM929 9l32 134h11L961 9 981-4l13-20-13-19-20-13H873l-14 1-13 2-13 5-12 7-11 8-9 11-7 12-4 13-2 14-1 13V267l65-11 16-11-16-10V24l1-5 1-5 3-2 4-2 5-1h7 56zM151 232l-2-24h71V380H153V272l-2-40zM343 380H274V208h69V380zm552-17 32 135h11L927 363l19-12 13-20-13-19-19-13H761l-14 1-13 3-13 5-12 6-10 9-9 11-5 12-5 13-2 12v51l-51-7V213l-1-1-3-43-7-39-8-38-10-33-13-32L571-1 554-25 535-46 514-63 490-75l-4 7 16 18 14 20L529-9l11 24 10 26 8 29 6 32 5 35 3 37 1 40V616l54-27h83V734l-39-8-43-7-43-7-43-6-18-1V288l-4-49-5-47-8-44-10-40-11-39-14-35L456 2 437-27 416-53 392-75l-6 6 16 26 14 28 13 30 11 31 10 34 7 37 6 39 4 41 3 45v47V745l49-24 18 6 42 13 41 13 41 13 40 13 41 13 39 14 40 14 39 14 33 14 5 1 3-8 49-42 1-17-22 10-9-3-41-13-41-11-41-11-60-13 37-7 16-10-16-10V664h94l44 49 54-49V643H774V589H899l32 27 59-48-26-16-27-11-2-3-9-7-8-8-9-7-10-9-11-7-9-10-8 6 8 11 4 12 5 12 4 10 3 11 4 16H627V437l51 6V552l59-11 15-11-15-9V451l32 4 47 61 71-45 2-21-152-20V385l1-7 1-5 1-3 2-2 1-1 1-1 2-1 4-1h4l7-1H895zM220 568H153V401h67V568zm123 0H274V401h69V568zM295 729H194l-2-4-17-41-18-40-20-40-2-5 18-10h88l5 11 7 20 7 19 7 18 7 18 13 34 6 16 2 4zM396 12 394 1l-2-12-5-11-6-10-8-8-10-7-11-5-11-3-12-1v27L267-16V-2h62 4l2 1h1l2 2 1 2 3 8v6l1 8V186H146l-5-31-9-37-10-35-13-34L94 17 78-14 59-42 37-69l-8 5L42-33 54-2 65 29l9 32 7 33 6 33 5 35 2 36 1 36-1 38V528l-2-3-26-40-29-38-8 5 19 44 18 42 18 42 10 26v13l5-2 1 4 15 40 14 41 12 40 11 40 9 39 6 34 1 2v3l3 10 60-24 14-14-19-6-6-21-13-40-6-15H301l3 3v2l1-1 28 23 59-48-27-16-17-7-5-8-11-14-10-15-12-15-11-15-13-15-13-15-14-16-3-4h87l27 27 53-48-27-16V25 12z"/><glyph glyph-name="undefined" unicode="䛱" horiz-adv-x="1024" vert-adv-y="918" d="M68 256l64-32H286l32 27 59-49-27-21V-24L286-56V-2H132V-40L68-72V256zM619-40l-14 1-13 2-13 5-13 7-10 8-9 11-7 12-4 13-2 14-1 13V272l64-11 17-10-17-10V40l2-5 1-5 2-2 5-2 5-1h7H816l32 134h11L848 25l19-13L880-8 867-27 848-40H619zM409-6 386 3l-9 23 9 22 9 8 9 12 10 14 8 17 8 21 7 24 6 26 6 29 5 33 5 35h9l5-35 4-34V167l-1-29-3-28-4-25-6-23-9-22-10-20L431 3 409-6zM286 202H132V19H286V202zM923 73l-4 22-5 21-6 21-7 19-8 20-8 20-10 20-11 19-12 19 7 7 19-14 17-16 16-17 15-18 14-20 12-21 12-21 9-23 9-23 7-25-6-24-20-14-24 6-14 20-2 22zM707 160l-6 16-5 16-6 16-7 15-7 15-8 14-17 28-12 12 6 8 15-9 15-9 15-11 14-11 13-13 12-15 12-15 11-17 10-17 10-19-2-25-18-16-24 1-17 18-4 18zM652 869l64-11 16-11-16-9V709H854l33 27 59-48-27-22V432l-65-32v64H716V331l-64-32V464H514V4e2l-65-32V741l65-32H652V869zM282 412l65-54V337H71v21H229l53 54zm0 140 65-54V476H71v22H229l53 54zM652 688H514V486H652V688zm202 0H716V486H854V688zM326 702l65-54V627H52v21H272l54 54zM282 842l65-54V767H71v21H229l53 54z"/><glyph glyph-name="undefined" unicode="䜄" horiz-adv-x="1024" vert-adv-y="918" d="M683 354l64-11 17-11-17-9V240h47l54 54 65-54V219H747V107H860l54 54 64-54V85H747V-41L683-73V85H458v22H683V219H563v-2l-13-20-13-19-15-18-16-16-17-16-8 6 11 20 9 20 8 21 7 20 6 19 6 20 4 21 4 20 2 21 1 16v3 2l1 11 63-19 15-12-20-9-1-3-7-23-8-22-8-20H683V354zM64 256l64-32H284l32 27 59-49-26-21V-2L284-34V-2H128V-40L64-72V256zM410 847l65-32H888l33 27 59-49-27-21V627l-65-32v43H475V471l-3-68-5-65-6-61-9-59-10-55-13-51-15-48-18-45-20-41-23-36-8 5 12 40 12 41 11 45 9 48 7 50 7 54 4 57 3 60 1 63-1 66V847zM284 202H128V19H284V202zm-3 210 64-54V337H67v21H227l54 54zM683 591l64-11 17-11-17-9V402l-64-33V591zM896 455l43-38V396H766v21h96l34 38zm-276 0 43-38V396H491v21h96l33 38zM281 552l64-54V476H67v22H227l54 54zm615 16 43-38V509H766v21h96l34 38zm-276 0 43-38V509H491v21h96l33 38zM325 702l64-54V627H47v21H271l54 54zm563 91H475V659H888V793zM281 842l64-54V767H67v21H227l54 54z"/><glyph glyph-name="undefined" unicode="䜉" horiz-adv-x="1024" vert-adv-y="918" d="M523-29v16H630l7 1 5 1 4 1 3 2 1 5 1 5 1 7V353l64-11 16-11-16-10V168l8 9 11 13 11 13 12 12 11 12 12 13 11 12 12 13 8 8-1 1 5 4 41-50 2-19-20 7-11-7-15-9-45-26-15-7-16-8-16-6-5-3V129l9-3 26-9 26-12 25-13 24-14 24-15 23-16 22-16 22-18L939-5l8-23-9-23-22-9-23 9-18 19L839 6 820 24 8e2 41 779 58 758 75 737 91l-21 17V9L715-5l-2-13-4-13-7-13-9-10-11-9-12-7-13-4-13-2-14-1v32L523-29zM67 256l65-32H293l32 27 60-49-27-21V-24L293-56V-2H132V-40L67-72V256zM418 19l10 5 18 8 20 7 19 8 40 18 20 9 21 8 21 9 22 9 22 10 5-8-18-17-17-15-18-15-18-15-19-13-17-13L510 1 492-11 476-21l-3-23-17 10-38 53zM293 202H132V19H293V202zm-2 210 65-54V337H70v21H237l54 54zm608 50-28 20-27 24-25 25-24 28-23 30-21 33-20 35-15 32V491l-16-8 16-11 8-17-20-1-3-4 22-20 25-22 25-21 26-20 26-18 27-17 28-15 29-15 30-12 31-12 36-14-62-52-33 16-32 18-29 20-29 21-27 22-25 24-23 26-22 28-18 29-12 23-3-5-26-35-28-33-30-31-32-28-33-26-21-15 11-6 16-6 15-7 14-7 12-8 13-9 11-9 10-10 10-10 9-11 2-24-16-19-25-2-18 16-3 9-4 9-4 10-6 10-7 11-7 11-9 11-9 12-11 12-12 11v1l-6-4-36-21-39-18-39-15-5 9 35 24 33 24 31 25 29 27 28 28 27 30 24 31 23 32 22 35 12 21V653l-4-6-26-37-28-34-29-31-30-29-32-26-33-23-34-19-36-15-5 8 29 24 28 25 28 27 26 28 25 30 23 32 23 34 22 36 20 39 7 16H417v21H652V873l64-11 16-10-16-10V753H832l54 54 65-54V732H716v-4l17-22 25-31 25-30 24-27 25-25 25-22 25-20 26-17 25-15 27-13 28-14-60-48-29 18zM291 552l65-54V476H70v22H237l54 54zm46 150 64-54V627H49v21H283l54 54zM291 842l65-54V767H70v21H237l54 54z"/><glyph glyph-name="undefined" unicode="䝐" horiz-adv-x="1024" vert-adv-y="918" d="M620 450v21H772V604H691l-19-35-24-36-27-32-29-29-33-25-7 7 25 32 22 32 19 35 18 35 16 38 13 40 11 42 4 23H575v16l-3-12-9-25-9-25-10-25-12-25-12-26-13-27-15-27-14-22 21-22 18-25 16-26 13-27 10-27 9-28 6-29 3-29 1-29-1-30-4-4-2-9-4-13-6-12-8-11-10-10-10-8-13-6-13-4-13-2-14-1v32l-34 13V-45L378-77V831l65-32h79l32 27 60-49-27-16-8-3-2-5H684l6 47 4 44 1 17 64-17 15-12-18-9-5-32-8-38H857l54 53 64-53V731H738l-10-37-16-45-11-24H843l44 49 53-49V604H836V471h34l53 54 65-54V450H620zM795-22V-6h71l5 1 3 1 4 2v1l1 2 1 3 1 5v7 85H680V-40L616-73V391l64-32H881l33 26 59-48-27-21V16L945 2l-2-14-5-13-6-12-9-11-11-8-12-7-13-5-13-2H860v32L795-22zM296 230l-4 17-5 15-5 15-5 14-2 3 4-29 2-63-3-64-8-65L257 9l-4-3-3-10-6-12-7-11-8-11-11-9-11-7-12-6-13-3-13-3-14-1v33L80-18V-2h75 7l6 1 5 2 4 2 2 1 3 3 2 2 4 18 16 59 11 59 7 59 1 45-14-19-20-26-22-24-23-22-24-21-25-18-27-15L39 91l-5 8 22 21 21 21 19 22 19 22 17 24 17 24 15 26 15 27 13 28 12 30 13 26-2 13-8 44-7-11-16-21-17-22-18-21-19-20-20-20-22-19-23-18-24-17-7 7 17 24 32 46 16 23 14 22 14 22 12 22 12 22 10 22 10 22 14 28-14 49-6 16-9-12-25-29-27-27-29-27-31-26-7 7 23 33 22 31 21 31 20 31 18 30 16 30 15 29 13 30 11 30 3 6H58v22H225l54 54 64-54V750H267l-14-31-16-30-17-30-20-30-21-29-1-1 14-23 28-60 20-56 4 18 6 21 7 19 6 19 11 36 6 16 6 16 3 11 1 3 1 2 3 5 55-34 9-17-21-2-6-9-10-15-10-15-11-15-11-17-11-17-12-17-13-17-7-11 13-49 9-42 7-4 13-10 12-10 11-12 11-14 10-14 11-16 9-17 9-18-1-25-18-17-25 2-16 18-5 18zm585-11H680V122H881v97zm0 118H680V240H881v97zM508 296l2 24 1 24-1 25-2 25-5 25-6 27-8 26-9 27-10 29 2 2-6 2 7 31 7 29 7 28 7 28 6 27 6 25 5 25 5 24 4 24v4H443V245h34l7 1 5 1 4 1 3 1 3 2 1 2 1 1 2 17 5 25z"/><glyph glyph-name="undefined" unicode="䝰" horiz-adv-x="1024" vert-adv-y="918" d="M158 168l58-30 12-16-21-4-2-3-12-24-14-22-15-22-16-22L130 3 111-17 92-38 70-57 46-75l-7 7L55-44 70-19 84 4 98 27l12 22 11 23 10 22 10 23 8 21 5 17h-1l5 13zM648-24V-8H756l6 1 5 1 5 2 2 2 1 5 1 5 1 6V320H406v22H777V476l65-10 16-11-16-10V342h12l54 54 65-54V320H842V14L840 1l-2-14-4-13-7-12-9-11-10-9-13-7-13-4-13-2-13-1v32L648-24zM342 23l-5 15-5 15-7 15-7 15-8 15-9 15-10 15-10 16-13 14 6 7 17-11 17-9 15-12 15-13 14-12 13-14 12-16 10-15 10-16 10-17-2-25-18-17-24 2L346 8l-4 15zm233 82-9 18-10 16-12 16-12 16-14 15-14 15-16 15-16 15-18 13 4 9 22-8 22-8 21-10 20-12 18-13 18-14 17-15 15-17 16-18 13-19 3-24-15-20-25-2-19 15-9 17zM80 850l65-32H318l33 27 59-49-27-21V214l-65-32v32H145V198L80 166V850zM318 416H145V235H318V416zm0 190H145V438H318V606zm83-108v21H649V686H431v21H649V869l65-11 16-11-16-9V707H814l53 54 65-54V686H714V519H865l53 54 65-54V498H401zM318 796H145V628H318V796z"/><glyph glyph-name="undefined" unicode="䝷" horiz-adv-x="1024" vert-adv-y="918" d="M866-60 847-46 824-33 797-19 767-6 734 6 698 19 658 32 616 46 570 60l2 10 48-4 45-5 42-7 39-8 36-9 33-10 31-11L874 5 899-8l23-14 12-21-6-24-22-12-24 6-16 13zM394 91l13-22 28-29 1-18-20 8-14-7-28-12L344-2 311-13 275-25 237-37 196-48 152-58 106-68 56-76l-3 9 47 19 44 17 41 17L223 2l36 16 33 15 30 15 27 14 24 15 21 14zM211 492l64-32H749l32 27 59-48-27-22V114L749 82v32H275V76L211 44V492zM749 223H275V135H749v88zm0 108H275V244H749v87zm0 108H275V352H749v87zM429 523l-10 10-10 11-13 10-12 12-16 11-15 11-17 12-18 13-2 1-12-25-20-27-25-23-30-20-33-17-38-14-42-11-45-7-3 10 42 17 38 17 31 19 27 20 22 20 16 21 13 21 7 23 4 22H58v22H269v5 93H186l-4-6-14-16-15-16-15-13-17-12-19-11-18-9-6 8 14 14 12 16 11 15 10 16 9 16 7 16 7 17 5 18 5 18 2 13v2l1 4 3 9 60-26 13-14-21-6-1-1-9-21-6-9H392l53 53 65-53V780H334V687l-1-5h76l54 53 64-53V660H330l-1-8-7-24 2-1 22-5 21-6 19-7 18-7 18-8 16-8 15-8 14-9 13-8 10-23-8-23-22-10-23 8-8 10zM567 841l65-32H870l32 27 59-48-26-22V526l-65-32v65H632V542l-65-32V841zm303-53H632V580H870V788z"/><glyph glyph-name="undefined" unicode="䞃" horiz-adv-x="1024" vert-adv-y="918" d="M885-10 847 32 814 79l-27 49-16-30-40-57L686-6 637-46 584-76l-5 8 45 38 41 43 37 49 33 56 29 62-3 7-21 61-16 66-13 71-8 75-1 33-8-19-22-39-23-36-9 5 13 40 6 18-16-12-24 4-15 20-2 18-3 18-4 16-5-3-25-13-25-12-23-10-23-10-23-9-21-8-21-7-17-6-8-21-14 14-25 61 11 2 19 2 20 3 15 3 1 6 6 33 7 32 6 31 5 30 5 29 5 27 4 27 3 26 1 8H367v22H550l53 54 65-54V761H538l-6-20-7-26-8-27-8-27-10-29-10-29-11-30-13-31-12-26 5 1 23 4 24 5 25 5 27 5 28 4 6 1-1 5-5 18-7 19-7 20-8 20-9 20-9 20 7 6 16-17 16-17 14-17 13-18 12-17 11-19 10-18 9-19 8-19 6-19v-4l13 42 12 44 11 45 11 46 9 48 9 50 7 51 7 46h-1l3 17 62-20 14-13-18-8-6-33-12-52-12-50-14-48-13-39H876l44 48 53-48V589H910l-10-93-17-95-21-87-26-80-19-45 17-32 30-45 32-39 34-34 38-28L985-2 925-47 885-10zM133 167l59-28 12-15-20-5-2-3-10-22-12-24-12-22-14-22L119 5 103-16 86-36 67-56 46-75l-7 6L51-45 63-21 74 2 85 25l9 23 9 22 8 22 7 23 7 22 4 16 1 4v2l3 8zM355 38l10 3 25 7 26 7 28 8 28 10 13 4V283H374v21H485V449l65-10 16-11-16-10V304h13l44 49 54-49V283H550V97l15 5 33 10 35 10 36 10 4-9-33-20-31-18-31-16-28-15V52h-6L518 39 490 26 463 13 436 2 410-10l-3-1-5-21-16 12-31 58zM284 25l-3 15-4 15-5 15-6 14-6 15-7 15-7 14-8 16-10 14 7 7 14-11 15-11 13-11 12-13 12-13 12-15 10-14 9-16 9-16 8-17-3-24-19-16-25 3-15 19-3 15zM68 850l65-32H265l32 27 59-49-27-21V214l-64-32v32H133L68 182V850zM265 416H133V235H265V416zM846 589H742l-12-30-16-39 11-57 18-72 18-67 22-61 6-13v1l21 76 16 85 13 92 7 85zM265 606H133V438H265V606zm0 190H133V628H265V796z"/><glyph glyph-name="undefined" unicode="䞾" horiz-adv-x="1024" vert-adv-y="918" d="M646 327l60-10 14-11-14-9V264l-4-35-6-33-10-31-13-28-16-26-19-22-23-18-25-15-27-11-30-7-3 9 25 15 22 16 18 17 15 19 12 20 10 22 7 24 5 25 2 29v93zM915 120l32 134h11L947 120l20-13 13-19-13-20-20-13H845l-13 1-14 3-12 4-12 7-11 9-8 11-7 12-3 13-2 13-1 13V327l59-10 15-11-15-10V141l1-7 1-4 1-4 3-3 2-1 1-1 4-1h5 76zM884 412l24 101-4-3-8-8-7-9-8 4 5 11 2 11 6 33 2 10 3 13H564V473l94 12v82l64-11 16-11-16-10V493l27 3 47 59 71-45 3-21-148-18V427l1-5 1-3 1-2 1-1h1l2-2 3-1 5-1H884zM561 296l-3-40-5-37-7-35-8-33-9-30-12-27-13-24-15-21-13-14 17-2 120-6H756l169 5 62 2-59-73-171-1-147 3L487-26 384-8 299 18 231 53 179 98h-2v3l-35 52-21 61-6-47-7-46-9-43L88 38 75-1 60-36 43-69l-9 4 7 35L48 7l5 38 5 40 5 42 2 44 2 47 1 48-1 50-2 47v18l65-11 16-10-17-11-1-33-2-46 15-46 29-55 7-8V492H44v21H177V678H55v21H177V870l65-11 16-11-16-9V699h14l44 49 54-49V678H242V513h20l44 49 53-49V492H242l16-11-16-10V306h35l34 38 43-38V284H242V101l12-10 62-26 35-9 10 28 9 31 9 32 7 34 6 37 4 39 4 42 2 44 1 47-1 49V798l59-30 23 5 52 9 49 10 48 9 46 10 44 9 43 11 41 10 39 11 32 10 5 1 2-7 53-44 1-17-22 11-17-5-40-9-40-7-44-7-44-7-45-5-48-5-49-4-51-3-53-1H461V439l-2-51-4-49-6-45-7-43-9-41-11-38-13-35-14-32-17-29-17-22 34-8 70-10v1l8 21 7 23 7 24 6 26 4 29 4 31 3 33 1 36 1 38-2 41V626l60-30H674V747l65-10 16-11-16-10V683h66l44 48 53-48V661H739V596H901l3 3 29 24 60-48-27-16-23-10-7-8-8-8-2-2-10-119 20-13 13-19-13-19-20-13H744 730l-14 3-13 4-11 7-12 8-8 11-7 13-4 12-3 14v14 29l-94-11V339l-3-43z"/><glyph glyph-name="undefined" unicode="䟡" horiz-adv-x="1024" vert-adv-y="918" d="M766 52 830-2V-24H423V-2H712l54 54zM888 19 845 56l-38 49-31 60-26 71-21 82-16 92-4 34H561V167l21 6 31 8 32 9 34 8 35 9 3-9-31-18-30-17-31-15-30-14-28-12-28-11-28-10-26-10-25-8-3-1-8-20-13 13-19 47-24-14-34-20-34-18-36-16-35-16-36-15L182 8 146-6 110-19 94-24 88-44 73-31 45 27l11 4 31 8V396l65-11 16-11-16-10V55l50 14 14 5V509H152V492L87 460V820l65-32H332l33 27 59-48-27-22V476l-65-32v65H281V310h59l33 37 43-37V288H281V93l30 10 37 12 37 11 27 8-1 2 11 2 23 4 25 5 26 5V756l60-30 11 3 75 21 37 12 35 12 35 12 34 13 33 14 33 14 26 13h1l4 2 5-11 43-38 1-17-21 8h-1l-35-14-35-11-36-11-37-10-7-1 2-105 7-112 6-54h95l54 53 65-53V444H774l3-25 15-88 19-76 24-64 27-51 30-39 30-27 27 117h11L950 60l9-5 19-16 1-24L963-4 938-5 888 19zM693 723l-5-1-38-6-40-4-40-3h-9V466H707l-5 48-7 116-2 93zM332 767H152V530H332V767z"/><glyph glyph-name="undefined" unicode="䠦" horiz-adv-x="1024" vert-adv-y="918" d="M459 362l65-32H808l32 26 60-48-27-21V-24L808-56V-2H524V-40L459-72V362zM36 27l10 4 28 7V396l60-11 15-11-15-9V56l9 3 45 15V509H136V492L72 460V820l64-32H288l32 27 59-48-27-22V476l-64-32v65H248V310h41l33 37 43-37V288H248V94l24 9 32 12 33 11 34 11 4-9-29-20-29-20-30-18-31-16-62-31L130-5 87-23 81-43 66-31 36 27zM808 153H524V19H808V153zm0 155H524V174H808V308zM609 416l-4 12-5 13-7 12-8 13-11 13-11 13-13 13-12 11-11-29-18-36-22-32-25-29-29-24-32-20-36-16-4 8 28 24 25 26 21 26 18 28 15 30 12 32 9 35 6 37 2 19H370v22H499l-1 42v85H464l-1-3-12-21-12-21-13-21-30-40-9 4 8 24 7 24 7 23 6 22 6 22 6 21 4 21 4 21 3 21 2 14 1 5v1l2 9 61-22 14-14-20-7-8-22-8-21-9-19h89l44 48 54-48V744H563V659l-3-42h15l44 48 54-48V595H557l-5-28-9-35 20-8 18-8 17-10 16-11 14-12 13-13 12-14 11-15 8-16-1-24-19-17-24 2-17 18-2 12zm83 396 64-32H891l32 26 59-48-26-21V416l-65-33v65H756V410l-64-32V812zm199-54H756V469H891V758zm-603 9H136V530H288V767z"/><glyph glyph-name="undefined" unicode="䠧" horiz-adv-x="1024" vert-adv-y="918" d="M504 342v21H671V476H564v22H671V616l65-11 16-10-16-10V498h16l44 48 54-48v-2l18 35 24 53 4 10 56-33 11-17-20-2-20-39-34-56-37-53-24-31h60l44 49 54-49V342H810l-42-46-47-45-7-6H856l32 27 59-48-27-22V-34L856-67v43H679V-40L615-72V169l-55-35-61-32-5 8 54 41 52 41 15 14v71l50-25 28 29 42 46 12 15H504zM442 847l64-32H893l32 27 60-49-27-21V638l-65-33v33H506V471l-3-68-6-65-8-62-11-59-13-55-16-51-20-49-22-44-25-41-29-36-8 6 19 41 17 42 15 45 13 47 11 51 9 53 7 57 4 59 2 63V847zM35 27l10 4 32 8V396l59-11 14-11-14-9V55l12 4 34 10 16 5V509H138V492L74 460V820l64-32H303l33 27 59-48-27-22V476l-65-32v65H257V310h51l33 37 43-37V288H257V93l28 10 35 12 34 11 36 11 4-9-31-20-32-20-32-18-33-16-32-16-34-15L166 8 132-5 98-19 85-24 79-44 64-31 35 27zm821 73H679V-2H856V1e2zm0 124H688l-9-8V121H856V224zm-41 49 1 10v6l-2 12-3 6-2 6-3 7-6 5 4 8 7-4 9-1 8-3 8-3 7-4 8-5 7-5 6-6 7-7 5-8-3-25-19-16-24 3-16 18 1 6zm25 203H736V363h28l9 12 35 50 32 51zM303 767H138V530H303V767zm590 26H506V659H893V793z"/><glyph glyph-name="undefined" unicode="䣽" horiz-adv-x="1024" vert-adv-y="918" d="M372 373H66v21H860l44 48 54-48V373H598V293H802l33 27 59-49-27-21V-42L802-75v43H222V-48L157-80V325l65-32H373l-1 7h2l-2 2v71zM802 59H222V-10H802V59zM620 142l-13-1-12 1-12 3-11 4-11 7-9 10-8 10-5 12-4 13-1 14v56H434l-5-29-12-28-16-25-20-21-24-17-27-14-31-11-34-7-37-3-2 9 34 13 29 14 25 15 20 16 15 16 11 18 8 18 5 20 1 16H222V81H802V271H598V215l-1-7-1-5v-8l1-3 1-2 3-3 4-3 6-2 9-2H730l19 26h10l-10-26 11-8 7-11-7-12-11-7H620zM436 301v-8h98v80H437V302l-1-1zm-8 184-10 11-10 11-12 12-14 12-14 12-16 13-16 13-18 14-1 1-13-27-20-29-25-26-29-22-34-19-37-16-42-12-46-8-3 9 42 19 37 18 32 20 27 21 21 22 17 23 12 25 8 25 4 27H58v22H269v7V766H186l-3-5-14-19-15-16-16-16-17-13-18-12-19-11-6 8 14 15 11 17 11 17 10 17 9 18 8 17 7 19 5 19 5 21 2 15 1 4v2l2 9 61-24 13-14-20-7-1-3-10-22-8-14H392l53 53 65-53V766H334V663l-1-7h76l54 54 64-54V634H330l-1-9-7-28 3-1 22-6 20-8 20-7 19-9 17-9 16-9 15-9 15-9 13-11 9-22-10-23-22-9-23 9-8 11zM567 828l65-32H870l32 27 59-48-26-22V501l-65-32v54H632V485l-65-32V828zm303-53H632V544H870V775z"/><glyph glyph-name="undefined" unicode="䦯" horiz-adv-x="1024" vert-adv-y="918" d="M98 837l65-33H388l33 27 59-48-27-22V573l-65-32v32H163V-45L98-77V837zM861 573H636l-65-32V837l65-33H861l33 27 59-48-27-22V19L925 6 923-8l-5-12-7-13-8-11-11-8-12-7-13-4-14-3-13-1v33L732-18V-2h41L736 18 698 42 664 71l-30 31-3 5-20-20-40-32-44-27L479 8 427-7l-4 9 47 24 42 27 38 30 32 33 22 27-17 31-18 39-13 42-8 45-1 19-11-13-21-21-22-18-8 6 14 25 4 7-13-13H465l-17 18-1 8-2 9-3 10-1 1-7-3-26-9-26-8-24-7-23-7-22-6-22-5-21-5-16-4-10-20-13 14-18 63 10 1 19 1 20 1 18 1 5 14 6 19 6 19 5 17 5 17 4 17 4 15 2 9H211v22H394l53 53 65-53V472H381l-6-13-8-15-8-16-9-15-9-16-11-16-12-17-12-16-2-2 24 2 24 1 25 2 26 2 27 1h4l-2 3-5 11-8 12-8 12-9 13-11 12 5 8 14-10 15-7 13-8 13-9 12-8 10-9 11-10 17-20 7-11-1-20 6 10 12 25 12 25 12 26 10 27 9 27 9 28 7 28 5 24 4 14 60-25 13-14-20-6-3-11-12-29-13-29-14-28-5-10H720l44 48 53-48V373H754l-11-54-16-56-23-51-26-46-13-17 9-9 28-24 31-21 34-18 37-16 34-14L780-2h60 6l5 1 5 2 2 2 2 5 1 5v6V573zM203 75l11 2 24 3 26 3 28 4 28 4 9 2V197H218v21H329v81l65-10 16-11-16-10V218h13l44 49 54-49V197H394V102l17 3 33 5 35 3 35 4 2-9-32-14-33-13-31-11-31-9-30-10-29-9-27-8-26-7-26-7-3-1-8-20-14 14-23 62zM689 373H586l-13-20-13-18 10-30 16-39 18-36 21-34 7-9 3 4 20 43 16 48 12 51 6 40zM861 681H636V595H861v86zm-473 0H163V595H388v86zM861 783H636V702H861v81zm-473 0H163V702H388v81z"/><glyph glyph-name="undefined" unicode="䧝" horiz-adv-x="1024" vert-adv-y="918" d="M344 255l-2-9-5-13-7-12-8-10-10-10-11-7-12-6-13-4-13-2-14-1v32l-54 16v16h54l7 1 5 1 5 1 3 1 3 3 3 3 4 18 6 23 2 23 1 23-2 25-6 24-8 26-11 26-13 27-17 28-19 30 1 2-5 3 13 31 13 30 12 29 11 27 11 27 10 26 9 25 8 25 6 23 1 1H153V-45L88-77V831l65-32H306l32 27 59-49-27-16-10-4-1-2-10-23-12-25-14-24-14-26-15-25-17-26-19-26-20-26-17-20 27-21 25-24 21-26 19-26 15-28 11-29 8-29 4-31 1-31-3-31-5-3zM917-26l-7 16-8 17-9 17-7 11-25-6-55-11L751 8 697-2l-53-9-53-8-52-8-52-8-50-7-28-4-10-19-12 16-18 62 11 2 101 7 51 4 53 4 45 4V202H483V165l-65-33V396l65-33H630v97H390v22H529l-1 5 22 15 19 17 17 17 13 18 11 19 8 21 7 22 4 23v9H483V611l-65-33V804l65-11 16-10-16-10V670H631l-1 21V853l65-11 16-11-16-10V691l-2-21H854V804l64-11 17-10-17-10V627l-64-32v53H689l-4-20-9-29-13-26-15-24-18-21-22-17-23-15-26-11-13-3H846l54 53 65-53V460H695V363H848l32 27 59-48-26-22V202l-65-32v32H695V39l52 3 55 4 56 3 18 1-8 10-14 18-16 19-16 20-19 19 6 8 23-14 24-13 20-15 20-15 18-17 17-16 15-17 13-18L972 1l10-19V-42L965-60H940L923-42l-6 16zM630 342H483V224H630V342zm218 0H695V224H848V342z"/><glyph glyph-name="undefined" unicode="䩶" horiz-adv-x="1024" vert-adv-y="918" d="M304 863l64-10 17-11-17-10V734h22l24 33 32-33V713H368V573l-64-32v54H278V474h79l32 27 60-49-27-21V259l-65-32v54H278V170h56l53 54 65-54V148H278V-40L213-72V148H35v22H213V281H139V243L74 211V506l65-32h74V595H182V557l-64-32V713H44v21h74V863l64-10 17-11-17-10V734H304V863zM915-22 908 0l-8 22-9 20-3 6-23-9-41-13-42-11L738 5 694-5l-44-8-47-9-46-6-48-7-26-4-10-17-13 15-15 63 11 1 47 3 48 2 46 4 46 4 36 3V204H566V140l-65-32V421l65-32H679v96l64-10 16-11-16-10V389H856l32 27 59-49-26-21V204l-65-32v32H743V46l32 3 43 6 43 4 21 2-1 2-11 20-12 19-14 19-14 20-15 19 6 8 22-14 21-14 19-16 18-18 16-19 16-20 14-21 13-23L972-1l10-24-3-25-19-16-24 3-16 18-5 23zM679 367H566V226H679V367zm177 0H743V226H856V367zM213 452H139V302h74V452zm144 0H278V302h79V452zM688 866l64-12 17-10-18-11-1-49-9-64-14-59-9-25H876V796l64-11 17-10-17-10V582l-64-32v64H710l-2-5-26-46-30-40-36-32-41-25-46-18-50-9-2 9 45 19 38 23 33 28 28 31 22 37 13 28H564V577l-64-32V796l64-11 16-10-16-10V636H664l11 39 9 53 4 60v60 18zM304 713H182V616H304v97z"/><glyph glyph-name="undefined" unicode="䪧" horiz-adv-x="1024" vert-adv-y="918" d="M94 396l64-33H345l32 27 59-48-27-22V-29L345-61V-8H158V-45L94-77V396zM345 175H158V14H345V175zm0 167H158V197H345V342zm467-86v16h54l6 1 5 1 5 1 2 2 2 5 1 5v7V609L773 566V148l-65-32V541l-95-36V34l1-4 2-5 2-2 5-2 5-1 7-1H921l32 135h11L953 19 973 6l13-19-13-19-20-13H635l-14 1-14 2-13 4-12 7-11 9-8 11-7 12-5 13-2 13V41 481l-81-30-4 10v-6H39v21H279l6 22 8 28 7 27 7 25 6 23 5 22 4 20 4 19 3 16 1 10 1 4v2-1l2 10 61-24 13-14-21-7-5-13-8-18-9-20-10-21-11-22-12-24-14-24-15-25-9-15h53l54 54 64-54v-4l85 32V740l64-11 16-11-16-9V528l95 36V863l65-10 16-11-16-10V589l114 43v11l33 27 59-49-27-21V294l-1-14-2-13-5-13-7-13-8-10-11-9-12-7-13-4-14-2-13-1v32l-54 16zM156 541l-2 20-2 19-2 18-2 17-4 17-3 16-5 16-5 17-6 14 8 6 11-12 13-13 11-15 10-15 9-18 8-17 8-20 6-20 6-20 5-23-7-23-21-12-24 7-12 21v20zM57 713v21H222V869l64-11 16-11-16-9V734h42l53 54 65-54V713H57z"/><glyph glyph-name="undefined" unicode="䬜" horiz-adv-x="1024" vert-adv-y="918" d="M71 853l54-27H399l32 27 59-49-26-16h-1l-2-210 3-187 10-140 20-1e2 29-64 1-2V405l65-32h95l7 26 5 25 5 19 1 4v1l1 3H621l-64-33V708l64-11 16-10-16-10V510l22 19 21 19 21 20 18 19 12 13-30 27-17 15-17 14-17 14 4 9 22-6 22-9 21-9 21-11 18-10 11 16 14 23 13 23 9 19-1 1 6 10 51-34v16l65-11 16-10-16-10V451l-65-33v33H718l46-21 12-16-20-5-2-4-9-23-4-9H873l32 26 59-48-27-21V144 130l-3-13-4-13-7-13-8-10-12-9-11-7-13-4-14-2-14-1V90l-75 16v16h75l7 1 5 1 3 1h2l1 1 1 1 1 2 1 3v5l1 7V351H732l-17-38-12-21-11-21-12-21-5-7h5l21 2h22l21 1h22 23l7-1v3l-6 25-3 12-4 14-4 14-7 13 8 5 10-12 11-10 10-10 9-11 17-21 8-12 7-11 6-11 6-12-3-24-18-15-25 2-16 19v11l-2 9-8-3-21-6-21-5-21-6-20-6-21-6-20-5-16-5-8-20-14 14-23 61 10 2 21 2 13 1 10 42 6 23 6 23 6 22H589V94L541 69l21-20 58-22 83-11 111-2H922l31 134h11L953 14 975 4l10-22-10-23-22-10H814L699-48 606-36 529-6 470 49l-38 83-22 110-10 147-2 119-26-16V272l-54-27v27H286V85l24 5 29 5 14 2-7 17-7 18-8 19-8 20-11 19 8 6 31-31 14-16 14-17 12-16 11-18 10-17 9-18 8-17 8-19-4-24-19-15-25 3-15 20-2 16-4 17-4 17-5 17-2 4-12-6-27-13-26-11-25-11-24-10-23-9-22-9-21-8-17-7-7-21-15 13-27 59 10 3 20 4 20 4 21 4 24 5 24 5 13 3V272H206V208l-43-22V552l43-22h37V653l-22-5-23-3-25-3-25-3-3 9 23 10 22 11 21 10 20 10 19 10 18 10 17 10 16 10 15 10 9 7h-1 1l4 3 13-21 29-30 1-18-21 8-6-3-19-7-19-7-20-7-1-134h32l27 27 53-48-1 69 1 226H125V433l-2-73-4-68-5-64-7-58-8-53L89 68 78 24 65-14 49-47 31-74l-7 4L34-40 42-6l7 37 7 43 5 47 5 53 3 58 2 62 1 67-1 72V853zM243 509H206V294h37V509zm75 0H286V294h32V509zm464 19-15 19-21 22-15-12-24-17-26-15-27-13-29-11-4 7V472H845v40l-1-4-23-9-23 11-16 18zm63 145-9-1-4-7-17-25-20-22-11-13 2-1 20-16 20-17 19-18V673zM513 744v21H7e2V882l65-11 16-11-16-10V765h68l54 54 65-54V744H513zm-50 71v-5 5z"/><glyph glyph-name="undefined" unicode="䮈" horiz-adv-x="1024" vert-adv-y="918" d="M715 169l-4 13-5 13-7 12-8 12-9 13-10 13-11 13-12 12-9 7-30-27-33-26-35-24-37-22-39-17-5 8 33 27 30 27 30 28 28 29 26 30 24 31 23 33 21 34 19 36 18 37 1 2-5-5-49-43-52-39-55-35-59-30-61-25 1-6V254l-2-43-3-40-4-38-5-35-7-31-9-30-10-27-12-24-7-11-8-11-9-9-11-9-10-7-12-6-12-5-13-3-13-1-13-1v32L188-29v16h86l7 1 7 1 6 1 5 2 5 3 5 3 4 4 4 4 5 5 4 7 9 18 8 22 7 24 6 28 5 32 4 34 2 38 2 41v39h-1v43H142L78 304V831l64-32H321l53 54 65-54V777H297V648h19l54 54 64-54V627H297V503h19l54 54 64-54V482H297V358h71l32 27 59-48-26-16v-3l51 30 53 37 50 39 46 42 44 44 39 47 36 51 34 54 30 57 16 37H661l-12-20-21-32-23-30 11-4 15-7 15-7 14-9 13-9 13-10 12-11 11-12 11-12 3-25-15-19-24-3-20 14-5 12-5 11-7 12-7 11-8 12-8 11-10 12-10 11-10 10-16-18-27-27-29-26-32-23-33-20-6 8 26 28 25 28 23 29 21 29 21 30 18 31 17 31 15 33 14 35 12 34 3 8 58-30 11-16-20-4-8-17-14-28H840l32 27 59-48-27-16-12-6-22-43-35-59-39-55-42-51-37-40 54-34 10-17-21-1-11-21-19-28H909l32 27 59-49-27-16-12-5-26-53-42-67-46-60-50-54-55-48-60-41-64-35-68-27-72-20-77-13-2 9 73 23 67 27 63 33 57 37 54 42 45 44-22 1-18 17-3 12zM68-6 45 3 36 25l8 23 8 7 8 10 7 13 7 18 7 20 5 24 5 27 4 30 3 33 2 37h10l7-36 5-34 2-31 1-30V109l-3-25-4-23-7-21-9-20L91 3 68-6zM199 47l-24-6-21 13-6 24 4 13 2 14 3 15 1 16 1 17v17l-1 19-1 19-3 20-4 21 9 4 10-20 10-18 8-19 7-19 6-19 5-18 3-19 3-17 1-18-1-18-12-21zm29 86v14 14l-4 28-3 15-3 14-5 16-5 16-7 15 8 6 11-13 12-13 11-13 10-14 9-15 8-15 7-15 5-17 5-16 4-16-9-23-22-11-23 8-10 22 1 13zm64 62-2 11-2 12-3 11-4 11-5 12-6 11-6 12-7 12-11 10 6 8 13-8 13-7 13-8 12-9 11-11 10-11 9-12 8-13 8-13 6-14-4-24-20-15-24 4-15 20v11zM901 363H714l-15-21-28-33-23-23 8-4 18-6 16-8 16-10 15-10 14-11 12-13 12-13 10-15 9-15V163l27 32 40 59 35 64 21 45zM232 482H142V358h90V482zm0 145H142V503h90V627zm0 150H142V648h90V777z"/><glyph glyph-name="undefined" unicode="䰡" horiz-adv-x="1024" vert-adv-y="918" d="M168 341l63-19 15-13-18-8-6-28-11-48-13-46-16-44-17-40-20-40-22-36L99-16 72-47 42-75l-7 6L55-34 74 0 92 36l16 37 14 38 13 41 10 42 9 43 8 46 5 42 1 16zM340-56l-14 1-13 2-13 5-13 7-10 8-9 11-7 12-4 13-3 14V30 380l64-11 17-11-17-10V127h6l8 1 11 1 11 1 1 7 3 24 3 23 4 22 3 22 4 21 2 21 4 20 2 19 2 14v4 1l3 10 60-24 14-14-21-7-6-17-7-19-7-20-8-20-9-21-9-21-10-21-10-21 14 1 19 3 20 3 24 2 8 2-1 7-4 14-3 15-5 15-6 17-8 15 8 6 12-14 12-13 11-13 11-12 9-13 8-13 7-13 7-12 6-12 4-13-6-24-21-13-24 6-13 21 1 9-1 11-1 11v6l-8-2-20-11-19-9-16-9-15-7-12-7-8-4-5-27-16 11-23 36V24l2-5 1-5 2-2 5-2 5-1h7H921l9 38-19-15-33 28-29 30-27 32-23 34-20 37-16 38-13 41-10 42-5 44-15-57-23-58-27-53-35-47-40-41-46-34-51-28-56-21-4 9 50 30 44 33 38 36 33 41 27 45 22 49 16 54 12 58 2 26H517v21H685l1 17 1 68V620H596l-7-14-15-27-17-25-19-24-22-21-7 5 12 27 10 27 11 27 9 26 8 28 7 28 6 29 4 29 3 30 2 25 1 17 63-17 15-12-18-9-2-12-7-32-9-31-10-31-8-21h81V861l65-11 16-10-16-10V642h70l54 54 64-54V620H752V506l-5-73-2-12H846l54 54 65-54V4e2H746l11-37 14-40 16-38 17-36 19-32 22-30 23-27 26-26 27-23 21-14 11 46h11l-5-58 10-7-11-9-5-60L972-4l13-20-13-19-19-13H340zM141 380V315L77 283V756l64-32h64l1 3 4 17 4 17 3 16 8 31 6 29 6 22-1 1 5 12 57-30 11-16-23-4-11-19-25-40-10-14-10-14-9-11H404l33 26 59-48-27-21V380l-65-33v33H141zm97 166H141V401h97V546zm166 0H302V401H404V546zM238 702H141V568h97V702zm166 0H302V568H404V702z"/><glyph glyph-name="undefined" unicode="䵹" horiz-adv-x="1024" vert-adv-y="918" d="M903-10l27 92h10L930-10l16-10 11-17-11-16-16-10H460l-13 2-12 3-12 6-11 8-9 10-7 12-4 12-4 13-1 14V68H180V30L116-2V277l64-32H387v65H218l-64-32V462l64-32H794l32 26 60-48-27-21V310l-65-32v32H625V245H832l33 27 59-48-27-22V57L832 25V68H625V45L561 12V408H452V5 2l1-3 2-3 2-1 4-3 5-1 7-1H903zM832 146H625V89H832v57zm-445 0H180V89H387v57zm445 78H625V167H832v57zm-445 0H180V167H387v57zM794 408H625V332H794v76zm-407 0H218V332H387v76zM637 510v16H751l5 1 3 1 2 2h1l1 1 2 5 1 5v7V657H640v21H766V796H656v21H835l53 54 65-54V796H831V678h30l54 54 64-54V657H831V548l-1-14-2-14-5-13-7-12-8-11-11-8-12-7-13-5-14-2H745v32L637 510zM307 534l-3 8-5 9-7 10-10 9-11 11-13 10-14 11-8 5-1-3-16-28-20-24-24-22-27-19-31-16-34-13-37-9-4 9 32 19 28 19 25 20 20 20 17 21 12 21 10 23 6 23v7H50v21H195v92H148l-2-2-12-14-13-14-15-14-16-13-16-15-7 7 12 17 9 18 8 17 8 16 6 17 6 15 5 14 4 15 3 13 1 8h-1l4 14 60-27 12-14-22-6-5-10-10-15-3-5H264l44 48 53-48V768H259V699l-2-23h28l44 49 54-49V655H253l-5-22-5-10 10-2 18-4 17-6 16-7 16-7 13-9 12-9 12-11 9-12 2-24-16-19-24-2-19 16-2 7zm88 301 65-32H564l32 27 59-49-27-21V524l-64-32v54H460V508l-65-32V835zm169-54H460V567H564V781z"/><glyph glyph-name="undefined" unicode="䶔" horiz-adv-x="1024" vert-adv-y="918" d="M320 383l-2 8-2 8-2 9-5 14-1-4-12-22-12-20-13-17-16-14-16-12-7 7 9 16 7 18 1 2-13-12-25 3-16 18v9 8l-1 8-1 8-2 20-4-8-10-22-12-21-13-20-14-17-15-16-8 6 7 19 7 21 6 20 6 21 4 22 5 23 3 23 3 25 2 25 1 22 1 16 64-17 14-13-18-9-2-7-6-27-7-26-5-16 3-1 8-5 7-5 14-13 13-15 12-18-1-9 4 15 6 22 5 22 3 25 4 27 2 28 1 31 1 11 63-17 15-12-18-9-2-12-6-30-7-28-8-23 8-5 9-5 8-6 8-6 8-8 7-8 7-8 5-6V568l64-11 16-11-16-9V-18L379-51V14H113V-51L48-83V568l65-11 16-11-16-9V320H379v44l-15-15H339l-17 17-2 17zM189 115v8l-1 8-1 16v2l-3-9-11-22-13-20-12-18-15-16-15-15-5 4V35H379V80L364 64l-25-1-17 17-1 8-1 8-2 8-4 16-3 8-2 6-1-2-12-22-12-19-14-17-15-14-16-12-7 7 9 17 7 17 6 17 7 20 5 21 5 22 3 24 4 25 2 28 1 29 1 12 63-18 15-11-18-10-2-10-6-29-8-28-7-22 9-5 8-6 8-6 8-6 8-7 7-7 7-7 5-6V299H113V60l5 14 6 19 7 20 6 20 5 22 4 22 5 23 3 25 3 25 2 21v3 3l2 11 62-20 15-13-19-8-2-7-7-27-8-26-4-12 3-2 7-5 7-6 13-13 6-7 6-7 5-7 6-7-1-24-19-17-24 1-16 18-2 16zM814 256v16h53l7 1 5 1 4 1 3 2 1 5 1 5 1 7V609L769 565V148l-65-32V542l-99-37V41l1-7V30l1-4 1-1 1-1 1-1 2-1 3-1 5-1 7-1H923l33 135h10L956 19 975 6l13-19-13-19-19-13H627l-14 1-14 2-13 4-12 7-10 9-10 11-6 12-4 13-3 13-1 14V481l-83-30-7 19 90 34V740l65-11 16-11-16-9V528l99 36V863l65-10 16-11-16-10V588l120 44v11l32 27 59-49-27-21V294l-1-14-2-13-4-13-7-13-9-10-10-9-13-7-13-4-13-2-14-1v32l-53 16zM41 595v21H87V788l64-11 16-10-16-10V616h67V869l64-11 17-11-17-9V745h77l33 38 43-38V724H282V616h64l54 54 65-54V595H41z"/><glyph glyph-name="undefined" unicode="䶵" horiz-adv-x="1024" vert-adv-y="918" d="M339-13v7L294-28V156H238V-13L184-40V156H128V-41L69-70V346l59-29H406l27 27 54-49-27-16V27l-1-12-1-12-3-12-5-10-6-11-8-8-9-7-11-5-12-3-11-1v27L339-13zM923 9l32 134h11L955 9 974-4l13-20-13-19-19-13H885l-14 1-14 2-13 5-12 7-11 8-8 11-7 12-5 13-2 14V30 243l-18-9-3-29-7-46-11-42-13-40-15-36-18-31-21-29-23-23-27-20-28-14-5 8 20 22 18 23L664 2l14 27 12 31 10 32 8 37 6 39 3 43 2 47 1 12 63-15 16-11v23l64-11 16-11-16-10V24l1-5 2-5 2-2 5-2 5-1h7 38zM184 295H128V177h56V295zm110 0H238V177h56V295zm112 0H347V177h59V295zm487 68 32 135h11L925 363l19-12 13-20-13-19-19-13H787l-14 2-14 2-12 5-12 7-10 9-8 11-6 12-3 12-2 13v50l-46-7V213v-1l-3-42-6-39-7-37-8-34-11-30L612 2 597-23 581-44 563-61 543-74l-4 5 14 17 13 20 11 21 10 24 9 26 7 29 6 33 4 34 3 38 1 41V611l43-22h71V733l-29-7-38-7-37-7-39-5-18-2V288l-3-49-4-46-7-44-8-40-10-38-13-36L511 4 495-26 477-52 457-74l-5 4 14 26 12 27 12 29 10 33 8 33 7 38 6 39 3 42 3 44v48V740l40-20 17 6 36 14 70 26 35 13 35 13 69 28 34 14 29 13 4 2 4-10 46-40 1-17-21 9-6-2-35-12-36-11-36-11-37-10-17-5 36-6 16-10-16-10V664h66l44 49 54-49V643H795V589H896l33 27 59-48-27-16-24-11-2-2-8-7-8-8-8-8-19-16-9-10-8 6 7 10 4 13 3 11 3 11 2 10 2 9v4 4H660V436l46 7V552l54-11 13-11-13-9V451l33 5 37 54 59-39 3-21-132-20V385v-7l2-5 2-4 1-2 2-1 4-2h4l5-1H893zM426 613l-13 21-13 22-16 22-17 22-17 24-20 23-20 25-16 20-16-24-24-32-25-31-27-31-29-31-30-31-33-29-35-29 39-20h30l21 27 45-44v39l43-22h35l22 27 44-44v39l43-22h35l22 27 48-48-27-11V376l-43-22v22H397l-43-22V511l-23-9V376l-43-22v22H253l-43-22V511l-23-9V376l-43-22v22H114L60 349V543L38 527l-6 7 29 35 28 34 27 34 26 32 24 33 23 32 21 33 19 32 18 32 14 27-1 1 6 10 54-36 9-17-20-1-3-5 24-17 26-20 23-21 23-21 21-21 19-21 18-21 17-21 15-22 3-24-14-20-24-3-20 14-11 21zm6-1e2H397V397h35V513zm-144 0H253V397h35V513zm-144 0H114V397h30V513zM339 670l54-49V6e2H163v21H295l44 49zM396 0l3 1h1l1 2 1 1 3 8 1 7v8V156H347V0h49z"/><glyph glyph-name="undefined" unicode="𠈴" horiz-adv-x="1024" vert-adv-y="918" d="M310 873l57-32 12-15-20-4-18-40-27-59-29-57-31-56-31-54-6-10 34-5 16-11-16-10V-45L186-77V496l-30-45-36-50-38-48-39-46-8 6 31 51 60 106 29 53 28 55 27 55 26 57 25 57 24 58 21 55 4 13zM812-59 730-48 661-30 604-6 558 23 521 58 494 96l-15 33-4-10-21-46-25-41L399-4 365-34 327-59 286-76l-4 9 34 26 29 28 27 31 22 36 19 38 16 44 11 47 9 52 5 57 1 56 1 18 64-14 16-11-18-10-3-44-9-61-13-56 10-18 23-34 27-29 34-24 41-21V466H386v21H870l2 2 4 8 3-2 23 19 59-48-27-17-25-10-7-6-13-12-13-11-13-12-14-11-14-11-14-10-16-11-15-11-7 7 11 15 10 15 9 15 10 15 9 15 10 14 9 14 6 12H692V245H822l53 54 65-54V224H692V24l49-9 76-7 91-2h64L908-65l-96 6zM683 534l-12 21-15 20-16 20-18 19-20 19-22 18-24 18-25 19-28 18 4 10 33-10 31-11 28-14 28-15 24-17 24-18 10-10 11 13 20 25 20 23 20 22 18 22 19 22 17 21 16 21 7 9H411v21H850l8 11 3-2 22 18 59-48-27-16-24-10-21-22-21-19-21-19-21-18-23-20-24-19-24-18-27-19-13-8 20-21 19-22 16-24 2-25-16-19-24-2-19 15-11 21z"/><glyph glyph-name="undefined" unicode="𠊤" horiz-adv-x="1024" vert-adv-y="918" d="M292 872l58-30 12-15-19-4-16-40-26-59-26-57-27-56-29-55-6-10 31-5 16-11-16-10V-45L180-77V488l-22-36-33-50-34-49-37-46-8 6 27 51 27 53 27 52 26 54 25 54 24 55 23 57 23 57 21 58 20 60 3 8zM881-29 846-1 814 30 786 63 763 98l-21 37-15 40-12 41v3l-8-28-21-49-28-45-33-40-39-35L542-9 492-35 436-56 375-71l-3 9 56 25 50 27 44 30 37 32 32 35 26 38 20 40 15 44 9 47 5 50 1 13 63-16 16-12-19-10-1-5 4-12 15-38 17-36 20-33 21-30 25-29 28-25 30-24 32-22L954 8 981-6 921-54 881-29zM385 702l64-32H617V874l65-11 16-10-16-10V788H831l54 54 65-54V767H682V670H887l3 3v1h1l28 23 59-49-27-16-21-9-5-5-9-9-8-9-9-8-9-8-10-8-10-7-9-9-7 6 6 10 8 23 4 11 3 11 4 11 3 11 2 5H449V385l-3-60-6-57-8-53-10-52-14-47-16-44-19-41L351-7 326-40 297-69l-6 6 18 34L325 7l16 38 12 40 11 43 8 46 7 48 4 52 2 54V702zM673 342l-14 1-14 2-13 4-12 7-11 9-8 11-7 12-5 13-2 13v14 64L473 477l-3 21 117 16V643l64-11 16-11-16-9V523l94 13 47 60 71-44 2-21-214-30V421l1-4 1-4 1-1 1-1 1-1 5-2 5-1 7-1H887l32 135h11L919 406l19-12 13-20-13-19-19-13H673z"/><glyph glyph-name="undefined" unicode="𠊷" horiz-adv-x="1024" vert-adv-y="918" d="M268 871l59-28 12-15-19-5-15-40-24-58-24-57-26-56-27-55-5-11 30-5 16-11-16-10V-45L165-77V482l-17-30-31-50-32-48-35-46-8 4 25 52 25 52 24 53 24 53 23 54 23 56 21 56 21 57 20 59 18 59 2 8zM885-11 843 31 807 78l-32 52-1 2-22-35-44-56L659-7 606-46 547-76l-4 8 51 38 45 44 42 49 37 56 32 62-3 5-23 62-19 66-14 70-9 76-2 38-12-24-23-39-25-36-9 5 16 40 15 42 14 42 14 43 12 46 12 46 12 48 9 49 9 51 7 47 2 16 62-21 14-13-18-8-7-33-12-51-14-50-15-49-14-38H861l54 53 65-53V589H907l-13-94-18-94-23-88-29-80-20-44 18-31 32-45 36-39 38-34 41-29L989-2 930-47 885-11zM297 38l10 3 28 7 29 8 30 8 31 9 17 4V283H316v21H442V449l65-10 16-11-16-10V304h28l44 49 54-49V283H507V96l21 6 37 10 38 10 40 10 3-9-36-20-35-18-35-17-33-15V52h-4L474 39 442 25 411 13 382 1 353-10l-6-2-5-21-15 13-30 58zM842 589H721l-13-31-16-36 12-58 18-73 21-66 23-62 9-19 3 7 23 77 19 84 14 92 8 85zM572 491l-4 18-5 17-8-4-28-13-28-11-26-11-27-9-24-9-25-8-23-8-21-6-8-20-14 14-23 61 10 2 21 2 22 4 18 2 1 6 7 34 7 32 7 30 7 30 6 29 5 28 5 27 4 25 1 8H308v22H523l54 54 64-54V761H493l-5-20-8-27-8-26-10-28-10-28-12-30-12-29-14-31-13-26 8 1 26 4 26 5 28 6 30 5 30 4 9 2v2l-7 18-7 20-9 19-9 20-10 20-11 21 8 6 17-17 16-16 16-17 14-17 13-19 12-18 10-18 10-19 9-19 7-20-4-24-19-15-25 4-15 20-2 17z"/><glyph glyph-name="undefined" unicode="𠋞" horiz-adv-x="1024" vert-adv-y="918" d="M263 871l59-28 12-15-20-5-14-40-24-58-24-57-26-56-27-55-6-11 28-5 15-11-15-9V-46L162-76V487l-20-35-31-50-32-48-34-46-8 4 24 52 25 52 25 53 24 53 23 54 22 56 22 56 20 57 20 59 18 59 3 8zM803 255v16h49l5 1 3 1 2 1 1 1 1 1 2 5 1 4v7V629l-76-49V162l-64-32V538l-69-45V53 47l1-6 3-5 1-1 2-1 2-1h3l5-1h7H922l32 134h11L954 32l20-13L987-1 974-20 954-33H682l-14 1-14 3-12 5-12 6-10 9-9 11-6 12-4 13-2 13V53 455l-56-36-3 5V320l-53-27v27H438V101l17 9 24 12 12 6-1 6-4 22-6 21-13 43-8 22 8 5 16-18 14-19 13-20 12-21 10-22 8-22 8-23 6-24 5-25 4-25-9-23L532-5 509 3 499 25V47l-1 22-2 22-2 18-3-3-19-19-21-18-21-17-22-17-23-16L363 4 339-11 315-25l-5-2-3-21-16 10-38 54 11 4 24 10 25 11 23 11 24 10 24 12V320H335V255l-54-27V667l54-27h49V857l54-10 13-11-13-9V640h49l27 27 53-48-27-16V443l59 38V765l59-11 14-10-14-10V519l69 44V857l64-10 16-11-16-10V605l76 49v19l33 27 59-48-27-22V292l-1-14-2-13-5-13-7-12-8-11-11-9-12-6-13-4-14-3-13-1v33l-43 16zM384 619H335V341h49V619zm103 0H438V341h49V619z"/><glyph glyph-name="undefined" unicode="𠌬" horiz-adv-x="1024" vert-adv-y="918" d="M299 872l57-30 11-16-19-3-17-41-26-58-28-57-28-56-31-55-5-10 32-5 16-11-16-10V-45L180-77V493l-26-41-34-50-36-49-39-46-7 6 29 51 28 53 29 52 27 54 27 54 25 56 25 56 24 58 22 58 20 55 5 12zM672 354l65-11 16-11-16-9V240h59l54 54 65-54V219H737V107H866l54 54 65-54V85H737V-41L672-73V85H431v22H672V219H541l-1-2-12-20-14-19-15-18-18-16-18-17-7 7 11 20 10 21 9 20 8 20 7 20 6 20 4 20 4 21 3 21 1 15v3 3l2 10 62-19 14-13-19-8v-3l-8-23-9-22-8-20H672V354zM382 847l64-32H891l32 27 59-49-26-21V627l-65-32v43H446V471l-2-68-5-65-7-62-9-58-11-55-14-51-16-49-18-44-21-41-24-36-9 5 14 40 13 42 12 45 10 47 8 50 6 54 6 57 2 60 1 63v66V847zM672 592l65-11 16-11-16-9V406l-65-32V592zM606 460l43-37V401H466v22H573l33 37zm294 0 43-37V401H759v22H866l34 37zM606 573l43-38V514H466v21H573l33 38zm294 0 43-38V514H759v21H866l34 38zm-9 220H446V659H891V793z"/><glyph glyph-name="undefined" unicode="𠍪" horiz-adv-x="1024" vert-adv-y="918" d="M311 873l57-32 12-15-20-4-17-40-27-59-29-57-30-56-31-54-6-10 33-5 17-11-17-10V-45L189-77V495l-29-44-36-50-37-48-39-46-9 6 31 51 30 53 30 53 28 53 28 54 27 56 25 56 25 58 23 58 21 55 4 13zM385-74 364-60l-4 24 13 20 9 5 10 6 9 8 8 11 8 13 8 16 8 18 6 20 7 23 4 24h10l1-25 2-25V55l-3-22-3-20-6-19-7-19-9-16-12-15-14-13-24-5zM911-28l-2 15-5 15-5 16-7 16-8 17-9 17-11 17-12 19-13 18 6 7 19-14 18-13 17-15 15-15 14-16 12-16 11-16L961 7l8-18 7-17-4-25-20-14-24 4-14 20-3 15zM735-16V-3l-2 14-2 14-4 15-5 14-6 16-7 15-7 17-11 16 7 6 15-13 15-12 13-13 12-14 11-14 10-16 8-15 7-17 6-16 4-18-8-23-21-12-24 8-11 22v13zM617-51l-23-8-22 12-8 23 3 13 2 13 1 14V29l-1 14-2 14-2 15-4 15-4 16-7 15 8 5 11-13 12-13 10-14 9-14 8-15 7-15 5-17 4-17 3-16 2-18-12-22zM890 264l-36 44-33 46-29 50-27 53-23 57-19 60-16 64-13 67-6 59-17-23-22-24-24-23-11-10 26-36 30-49 23-47 20-48 10-36 1-1v-1l3-10 10-47 6-47V316l-5-46-9-45-4-2-3-10-6-12-8-11-8-10-11-9-11-8-12-5-13-4-14-2H626v32l-86 16v16h93l6 1 5 2 3 1 4 3 3 2 2 3 5 18 11 37 8 38 3 40-1 42-1 12-15-17-32-31-34-30-36-27-37-25-40-22-41-21-44-17-44-14-4 9 40 24 38 24 36 24 35 27 33 27 31 29 28 30 28 32 25 32 20 29-11 40-6 18-26-25-28-24-30-23-30-21-33-19-34-19-35-17-38-14-39-13-5 8 35 23 33 21 31 22 29 22 29 23 26 23 25 24 23 24 22 26 19 26 2-2-6 16-17 39-7-5-30-22-32-22-36-20-39-20-42-19-45-18-5 9 40 27 37 26 35 25 31 24 28 24 26 24 22 23 19 23 12 18H363v22H849l53 53 65-53V773H698l18-63 21-63 22-60 20-46h1l14 21 14 19 13 19 13 18 12 17 11 18 10 16 10 16 6 11 3 5 2 4 51-41 7-18-22 2-11-14-15-14-16-15-16-16-16-15-19-15-18-15-26-19 23-45 29-48 31-44 32-40 36-36 37-32 12-11-58-43-39 38z"/><glyph glyph-name="undefined" unicode="𠍰" horiz-adv-x="1024" vert-adv-y="918" d="M253 871l60-28 12-15-19-4-14-40-23-59-23-57-25-56-25-55-6-11 29-5 16-11-16-10V-45L154-77V477l-13-24-29-51-31-48-33-46-8 4L86 416l23 52 23 53 22 55 21 55 20 57 20 57 19 58 16 54 3 14zM702-24V-8H810l6 1 5 1 5 2 2 2 1 1 1 4 1 5v6V320H579v22H831V476l65-10 16-11-16-10V342h26l24 32 33-32V320H896V14L895 1l-2-14-5-13-6-12-9-11-11-9-12-7-13-4-14-2-13-1v32L702-24zM297 26l10 4 23 8V396l54-11 13-11-13-9V58h1l26 10 11 5V509H389V492l-64-32V820l64-32H499l32 27 59-48-26-22V509l-65-33v33H476V310h16l33 37 43-37V288H476V96l14 6 27 12 27 11 28 12 5-9-23-20-23-19-23-17-25-17-25-16-24-15L408 9 383-4 352-20l-5-21-16 11-34 56zm392 84-6 17-6 16-7 16-9 15-8 15-9 14-19 28-12 13 5 8 16-9 17-9 15-10 15-12 14-13 13-14 13-16 11-16 12-18 10-18-1-25-17-17H711L694 92l-5 18zM575 498v21H741V686H597v21H741V869l65-11 16-11-16-9V707h26l54 54 64-54V686H806V519h62l54 54 64-54V498H575zM499 767H389V530H499V767z"/><glyph glyph-name="undefined" unicode="𠏂" horiz-adv-x="1024" vert-adv-y="918" d="M280 862l58-30 12-15-20-4-16-40-25-58-27-56-28-56-29-54-6-9 32-6 16-10-16-10V-46L166-78V483l-23-37-33-50-35-48-37-45-8 5 28 52 28 51 27 52 26 53 26 54 24 55 24 56 23 57 21 58 21 58 2 8zm6-896v21H609V138H356v21H609V304l64-10 16-11-16-10V159H818l54 54 65-54V138H673V-13H861l54 54 65-54V-34H286zM911 333l13-9-8-11-9-9-10-9-10-7-12-7-11-5-12-4-13-3-13-1-13-1v32l-54 16v16h54l8 1 7 1 7 1 5 2 6 3 6 3 5 4 5 4 5 5 4 6-2 2 17 25 12 26 7 30 2 31v3l-20-15-27-17-28-16-30-15-30-13-32-12-33-11-34-8-36-7-3 9-4-14-20-37-16 11 13-9-8-11-9-9-10-9-10-7-12-7-11-5-12-4-13-3-13-1-13-1v32l-75 16v16h75l7 1 7 1 7 1 6 2 6 3 6 3 5 4 5 4 5 5 4 6-2 2 17 25 12 26 7 30 2 31v3l-22-15-29-18-30-17-32-15-34-14-36-12-38-11-40-10-42-7-2 9 38 17 36 18 34 16 32 18 31 17 28 17 26 19 24 19 22 19 19 20 2-1v1l-16 41-10 21-4-3-23-19-23-17-25-16-26-15-27-13-28-11-29-10-31-7-32-5-2 9 27 15 26 15 25 15 24 15 23 17 21 16 20 17 19 19 17 18 16 19-7 13-17 26-16-12-23-17-25-16-26-14-28-14-30-12-32-11-5 9 27 20 25 19 24 18 22 19 20 18 18 18 17 19 14 18 5 7H351v22H539l54 54 64-54V777H560l-6-7-16-20-18-18-13-13 23-24 36-44 30-44 22-43 17-42 1-5 18 10 25 13 23 13 22 14 22 15 20 16 19 16 18 18 18 18 15 19-7 13-17 26-16-12-23-17-24-16-27-14-28-14-30-12-32-11-4 9 26 20 25 19 24 18 22 19 20 18 18 18 17 19 14 18 6 7H668v22H856l54 54 64-54V777H877l-5-7-16-20-19-18-13-13 23-24 36-44 30-44 23-43 16-42 10-42 2-41-5-41-12-39-20-37-16 11zM868 610l-4-3-22-18-24-17-24-16-24-13-26-12-27-10-28-8-29-6-21-2 6-25 2-41-5-41-8-24 32 16 30 16 29 16 28 16 27 17 26 17 23 18 23 19 21 19 20 20 1-1v1l-16 41-10 21z"/><glyph glyph-name="undefined" unicode="𠚅" horiz-adv-x="1024" vert-adv-y="918" d="M845 783l65-11 16-11-16-9V-18L845-51V14H179V-51L114-83V783l65-11 16-11-16-9V35H845V783zM711 172l-9 19-10 19-12 20-4 6-22-6-47-11-46-10-44-9-43-9-42-8-40-8-40-8-37-7-15-3-9-18-13 14-20 62 10 2 38 3 38 4 15 2 5 12 15 39 16 39 16 39 15 39 15 38 15 38 14 39 14 38 12 38 4 7 57-30 11-16-19-3-9-19-17-37-17-38-19-38-20-37-20-37-20-36-22-37-24-35v-1h3l41 4 42 4 44 4 46 4 46 4 48 3h16l-13 20-14 21-15 22-15 23-17 24 7 6 23-16 22-18 21-18 19-19 18-18 17-19 16-19 14-19 14-18 12-20 3-24-16-19-24-2-19 15-9 19zM427 817l54-34 9-17-20-2-9-16-21-34-21-32-23-32-23-30-25-29-26-28-26-26-29-26-29-23-7 7 43 60 21 30 21 31 20 31 18 31 19 33 18 33 16 33 16 35 4 5zM706 559l-12 32-14 32-14 29-16 28-16 27-17 26-18 25-19 25-20 23 6 8 28-17 26-19 24-22 22-24 22-26 20-29 20-29 18-32 17-33 15-35-1-25-18-17-24 1-17 18-12 34z"/><glyph glyph-name="undefined" unicode="𠞄" horiz-adv-x="1024" vert-adv-y="918" d="M365 186v-1l-4-32-6-30-9-29-10-29-13-27-16-26-17-24-20-23-22-21-25-19-7 6 18 25 15 25L263 5l11 25 11 25 8 26 6 25 4 27 3 27v28 79l59-11 15-11-15-9V186zM253 562V304l-1-1-6-48-7-45-9-43-12-41-12-39-15-38-16-34-18-33-21-29-23-27-6 5 14 30L135-6l13 33 11 34 11 37 8 38 8 40 6 42 4 43 3 45V611l54-27h81V750l65-10 16-11-16-10V671l61 2 33 39 44-37V654l-138-4V584H523l32 27 59-49-27-16-19-8-1-1-7-9-7-9-7-9-15-20-8-9-6-12-9 4 4 12 1 13 1 12 3 24 2 11 2 11 1 6H253zM739-24V-8H846l7 1 5 1 3 1 2 1 1 1 1 1 1 1 1 4V8l1 6V863l64-10 17-11-17-10V14 1l-3-14-4-13-7-12-9-11-10-9-12-7-13-4-14-2-14-1v32L739-24zM93 796l58-29 18 4 47 10 45 9 44 10 43 10 42 11 41 12 40 12 38 12 32 12 5 2 3-8 50-43 1-16-22 10-12-4-39-11-41-10-42-9-43-7-44-7-45-6-46-5-46-3-49-2-19 1V412l-3-60-4-57-6-54-7-52-9-49-11-46L99 49 84 9 66-28 47-63l-8 4L49-22 59 17l8 41 8 43 6 46 6 48 3 50 3 53v56 58V796zM393 17l9 6 19 10 13 8V267l59-11 15-11-15-9V76l7 5 21 13 42 26 22 13 22 14 7-7-17-21-17-20-17-18-18-18-18-17-35-33L473-2 455-17V-39l-18 8-44 48zM659 783l65-11 16-11-16-9V138l-65-33V783zM408 304l-14 1-13 3-13 5-12 6-11 9-8 11-6 12-4 13-2 13-1 13v38l-66-10-4 21 70 10v97l60-11 14-10-14-10V459l18 2 37 54 60-39 3-21-118-18V390v-6l1-6 3-5 1-1 4-2h3l5-1h7H511l32 134h11L543 369l20-13 12-19-12-20-20-13H408z"/><glyph glyph-name="undefined" unicode="𠩺" horiz-adv-x="1024" vert-adv-y="918" d="M130 471l65-32H851l33 33-39 11-48 18-44 19-38 22-13 9-18-11-43-22-47-17-52-15-56-10-2 9 52 21 47 21 42 23 37 24 6 5-17 15-24 29-19 31-12 33-3 18-24-15-25-13-26-11-5 8 21 20 18 18 19 19 16 18 15 19 14 19 12 19 11 19 10 20 6 14 1 2 1 3 3 6 55-33 10-17-21-2-2-4-15-20-16-20-13-14H821l54 54 64-54V739H849l-15-40-20-38-26-36-30-31-8-7 28-12 40-15 46-12 49-11 47-11-46-42 55-45V417H195V267l-3-43-6-41-8-39-11-38-13-35-16-33L120 7 99-22 74-47 48-70l-7 7L59-34 74-5 89 24l12 31 10 32 8 32 6 35 4 36 1 37V471zm307 59-9 11-10 12-11 11-12 12-14 11-16 11-16 12-18 11-2 1V487l-64-32V6e2l-15-16-22-22-24-20-24-18-26-17-27-14-29-12-31-9-3 9 24 18 23 19 23 18 20 19 20 20 18 21 17 22 15 23 14 23H77v22H265v86H109v21H265v81l64-11 16-10-16-10V793h38l54 54 64-54V772H329V686h65l53 54 65-54V664H329V638l7-2 22-4 21-6 19-7 19-8 18-8 16-10 16-11 14-12 14-13 6-23-12-22-23-6-22 12-7 12zM781 739H636l-1-1-21-18-9-6 11-17 19-26 22-23 24-21 24-16 17 17 23 29 18 32 14 34 4 16z"/><glyph glyph-name="undefined" unicode="𠰅" horiz-adv-x="1024" vert-adv-y="918" d="M351-9V7H458l7 1h5l3 1 1 1 1 1 2 1v2l1 3 1 5 1 6V155H58v22H480V288H136v22H480V420l-10-1-71-5-76-4-82-4-89-2-1 10 88 13 81 12 75 10 70 11 63 10 58 11 51 9 45 11 39 9 28 8v1l4 1 2-7 54-45 1-16-23 11-16-5-36-7-42-7-47-7-53-6-49-5V310H769l54 53 64-53V288H544V177H847l54 54 64-54V155H544V28l-1-13-2-13-4-14-7-12-9-10-11-10-12-6-13-4-13-3-14-1v33L351-9zM217 839l65-32H742l32 27 59-49-27-21V576l-64-32v32H282V512l-65-32V839zm525-54H282V598H742V785z"/><glyph glyph-name="undefined" unicode="𠱟" horiz-adv-x="1024" vert-adv-y="918" d="M894 8 862 32 832 58 803 85l-27 30-25 31-24 33-22 34-19 37-2 4V-37L620-69V214l-9-14-27-38-30-35-31-33-33-30-36-27-37-25-39-22-42-17-5 8L367 8l33 27 32 28 30 31 28 31 26 34 24 35 22 36 20 39 8 16H352v21H620V441l64-10 16-11-16-10V306H833l54 54 65-54V285H685l19-23 27-30 26-29 28-27 27-25 28-25 30-22 30-21 31-20 32-17 23-14-60-47L894 8zM65 745l64-32H259l32 27 59-49-27-21V186l-64-32v64H129V154L65 121V745zm194-54H129V240H259V691zM520 448H506l-13 3-13 4-13 7-10 8-10 12-6 12-4 12-2 14-1 14V849l64-11 16-11-16-9V672l9 3 42 10 41 11 41 10 41 11 40 11 80 24 39 12 34 12 5 2 2-8 52-43 1-16-22 9-14-4-41-10-41-10-42-9-42-8-42-7-43-6-42-5-43-4-43-2H498V534l1-7 1-5 1-3v-2l1-1h1l2-2 3-1h5l7-1H869l32 135h11L901 512l20-13 12-19-12-19-20-13H520z"/><glyph glyph-name="undefined" unicode="𡁂" horiz-adv-x="1024" vert-adv-y="918" d="M839-51l-87 2-72 6-60 10-49 15L531 1 5e2 24 477 52 460 82l-6 15-2-1-5-6-12-17-13-17-13-16-14-15-13-15L369-5 356-19 346-29l2-22-18 6L281-2l8 7 15 10 16 10 15 10 32 21 34 23 5 3V353H297v21H406l32 27 59-48-27-22V105h-1l10-11 14-14 8 32 8 36 7 38 6 40 5 43 4 46 3 48 2 51v54l-1 57V852l65-33H897l32 27 59-48-27-22V644l-64-33v54H6e2V525l-3-58-3-56-4-29H713l-11 2-14 21 1 12-1 13-1 23-1 12-2 11-2 12-4 24-5 11 8 5 7-10 10-8 9-10 8-10 8-12 7-11 6-12 6-13 5-12 5-14-6-24-16-10h82l3 8 2 18 3 17 3 16 2 15 3 16 2 15 2 14 2 13 1 8h-1l4 13 59-26 13-15-23-6-2-5-7-13-7-13-7-14-8-14-9-15-9-14-10-15-2-3h43l44 48 53-48V360H809V254h17l54 54 64-54V232H809V80L744 48V232H609v22H744V360H588v-1l-7-50-9-47-10-44-12-41-14-37-16-35-19-31-4 2 4-3 23-18 28-14 34-11 44-9 55-5 69-1 84 2 1e2 6 61 3-56-74-104-3zM53 745l64-32h94l32 27 59-49-27-21V186l-64-32v64H117V154L53 121V745zm158-54H117V240h94V691zM384 528l-8 13-8 13-9 13-9 12-9 12-11 12-10 13-12 10 5 8 15-7 15-6 16-7 14-9 15-9 14-11 13-11 13-12 12-14 12-14 5-24-14-20-25-4-20 14-14 28zm232 8v21H744v93l65-11 16-11-16-9V557h30l44 49 54-49V536H616zM428 704l-6 14-7 13-7 13-8 13-9 13-9 13-10 12-10 13-12 11 6 8 15-8 15-7 15-8 15-9 14-10 13-11 13-12 11-13 12-14 10-14 3-24-15-20-25-2-19 15-5 14zm469 94H6e2V687H897V798z"/><glyph glyph-name="undefined" unicode="𡂙" horiz-adv-x="1024" vert-adv-y="918" d="M826-51l-88 2-74 6-61 10-49 15L514 1 482 24 459 52 442 82l-6 16-3-2-4-6-13-17-14-17-13-16-13-15-13-15L349-5 336-19 325-29l2-23-18 7L260-2l9 7 15 10 16 10 15 10 16 11 17 10 33 23 6 4V353H277v21H387l32 27 59-48-27-22V105l9-11 9-8 3 12 7 37 8 38 6 41 6 44 4 46 3 49 2 51v54l-1 57V845l65-33H876l33 27 59-48-27-22V646l-65-32v43H572V515l-2-59-5-55-5-53-7-50-9-47-10-45-13-41-14-39-17-35-10-16 2-2 25-18 28-14 34-11 45-9 56-5 69-1 85 2 102 6 61 3-56-74-105-3zM718 415l64-11 17-10-17-10V318h23l44 49 53-49V297H782V203h53l53 54 65-54V182H782V77L718 45V182H551v21H718v94H636l-10-17-11-17-12-15-14-14-13-15-8 6 9 17 5 18 6 17 5 17 4 17 3 18 3 17 2 18 1 18v12l2 17 63-19 15-12-21-10-5-18-7-19-7-15h72v97zM48 745l65-32h86l32 27 60-49-27-21V186l-65-32v64H113V154L48 121V745zm151-54H113V240h86V691zm519-72 64-11 17-11-17-9V457l-64-32V619zM667 508l43-38V449H577v21h56l34 38zm213 0 43-38V449H789v21h57l34 38zm-508 6-7 13-16 27-19 25-9 12-11 12-11 13-12 10 5 8 15-7 16-6 15-7 15-8 15-10 14-11 13-11 14-12 12-14 13-14 3-24-13-20-24-4-21 13-7 15zm508 91 43-37V546H789v22h57l34 37zm-213 0 43-37V546H577v22h56l34 37zM409 704l-6 14-7 13-15 26-9 13-9 12-10 13-11 13-12 11 5 8 16-8 15-6 16-9 14-9 14-10 14-11 13-12 12-13 11-14 11-14 2-24-15-20-24-2-19 15-6 14zm467 87H572V678H876V791z"/><glyph glyph-name="undefined" unicode="𡉪" horiz-adv-x="1024" vert-adv-y="918" d="M643-18V-2H751h6l6 1 2 2h2l1 1 1 1 1 2 1 3 1 5v6V367l-16-26-43-61-46-59-49-54-51-51-54-47-57-43-59-38-62-35-64-29-5 9 59 38 56 41 54 42 51 46 49 49 46 52 43 54 42 58 38 61 21 38H513l-16-70-69-17 89 395 61-24 12-15-17-5-55-243H772V761H404v22H829l54 54 64-54V761H837V433h35l54 54 64-54V412H837V19L836 6 833-8l-4-12-6-13-9-11-11-8-12-7-13-4-13-3-14-1v33L643-18zM39 124l11 3 27 8 29 10 30 10 32 11 20 7V552H56v21H188V847l64-10 16-11-16-10V573h24l54 54 64-54V552H252V197l22 8 39 15 41 15 43 15 4-9-38-25-38-22-36-21-35-19-34-18-33-16-31-15-29-14L98 78l-6-3-5-20L71 66 39 124z"/><glyph glyph-name="undefined" unicode="𡉬" horiz-adv-x="1024" vert-adv-y="918" d="M913-4l-9 29-10 29-3 8-21-7-52-15-51-14-52-14L663 0 611-12 559-24 507-35 454-46l-30-6-9-18-13 14L381 6l11 2 52 7 64 9 20 28 35 50 36 52 37 55 36 56 37 59 37 60 37 64 38 65 35 64 5 10 53-38 9-17H903l-30-50-41-64-40-62-41-60-41-57-42-54-41-52-41-49-43-46-11-11 70 10 52 8 53 8 53 7 53 8 53 7 19 2-2 7-12 29-14 31-15 30-17 30-16 31-18 33 8 6 26-27 25-27 22-28 20-28 19-29 17-30 16-29 14-30 13-30 10-31-3-25-19-15-24 3-15 19-7 29zM50 124l10 3 28 8 30 10 33 10 56 18V552H65v21H207V847l64-10 16-11-16-10V573h33l54 54 65-54V552H271V196l25 9 42 15 43 15 45 15 4-9-41-25-39-22-39-21-37-19-36-18-35-16-32-16-32-14-30-13-8-3-6-20L80 66 50 124zM594 328l-16 24-17 22-18 22-20 22-21 21-23 22-23 21-25 21-25 22 4 8 32-13 30-15 29-16 27-18 3-2 2 4 18 30 17 30 19 30 17 29 17 31 17 30 17 31 16 30 14 27 5 10 53-37 9-17-20-1-8-12-20-30-20-30-42-57-22-28-23-27-23-26-25-25-3-4 7-5 25-20 23-22 22-22 20-24 19-24 4-24-13-21-24-4-21 14-14 23zM912 831l64-54V756H439v21H858l54 54z"/><glyph glyph-name="undefined" unicode="𡉳" horiz-adv-x="1024" vert-adv-y="918" d="M895-23l-8-9-9-9-11-8-11-7-12-6-12-4-12-3-13-2-14-1v32L686-24V-8H793l8 1 7 1 6 2 6 1 5 3 5 3 5 4 4 4 5 6 5 6 8 18 9 29 8 39 7 50 6 59 5 68 3 78 2 88v96 52 43H536l-5-8-27-35-28-32-30-31-31-28-34-25-7 7 26 32 25 33 24 34 22 34 22 36 20 37 18 38 18 40 16 41 13 38 5 13 57-30 12-16-20-4-10-24-21-43-22-40-23-39-5-7H897l32 27 59-48-26-16V548l-1-97-2-89-3-79-5-71-6-61-8-53-9-44-11-36-14-29-8-12zM39 124l11 3 27 8 29 10 30 10 32 11 20 7V552H56v21H188V847l64-10 16-11-16-10V573h24l54 54 64-54V552H252V197l22 8 39 15 41 15 43 15 4-9-38-25-38-22-36-21-35-19-34-18-33-16-31-15-29-14L98 78l-6-3-5-20L71 66 39 124zm694 14-24 29-27 28-29 28-5 4-23-26-41-41-46-35-49-28-53-21-56-15-3 9 51 25 46 27 43 32 39 36 34 40 21 29-22 17-36 26-37 25-40 26-42 25 4 9 47-16 44-18 43-21 39-22 23-14 16 29 24 54 22 60 12 45H422v22H713l32 27 59-49-27-16-8-3-16-46-25-63-31-58-20-31 8-6 34-26 31-28 30-29 27-31 6-23-12-22-24-6-21 12-23 30z"/><glyph glyph-name="undefined" unicode="𡌞" horiz-adv-x="1024" vert-adv-y="918" d="M416 826l64-33H845l32 27 59-48-27-22V573l-64-32v54H480V476H894l32 27 59-48-27-16V395l-1-65-3-60-2-54-3-49-4-44-5-39-6-33-6-28-8-25-6-12-7-12-8-10-10-10-10-8-12-6-12-6-13-3-13-2-13-1v32L708-24V-8H816l7 1 6 1 10 3 4 2 3 4 4 3 3 4 4 6 2 7 6 17 6 23 5 31 5 36 4 41 3 48 2 54 2 58 1 65 1 59H480V417l-3-69-5-65-7-60-9-56-12-50-15-46-16-41L393-5 371-35 346-59l-7 6 15 29L367 8l13 35 11 40 8 44 7 48 5 54 4 58 1 63v67V826zM475 67V88H636V260H504v22H636V418l64-11 16-11-16-9V282h13l54 53 64-53V260H7e2V88h42l54 54 64-54V67H475zM42 152l10 3 26 7 27 9 60 20 17 6V549H58v22H182V827l65-11 16-11-16-9V571h16l53 54 65-54V549H247V220l19 7 37 13 39 14 41 14 4-9-36-23-36-21-34-20-34-18-32-17-31-15-30-15-28-13-27-12-5-2-5-21L73 94 42 152zM845 772H480V616H845V772z"/><glyph glyph-name="undefined" unicode="𡍑" horiz-adv-x="1024" vert-adv-y="918" d="M59-39v21H480V106H127v22H480V228l64-10 16-11-16-10V128H778l54 54 64-54V106H544V-18H846l54 54 65-54V-39H59zM370 483l59-48-27-16-13-6-8-15-22-33-26-32-29-29-33-27-36-25-40-24-43-20-46-19-51-15-3 8 45 26 41 25 39 25 34 26 31 27 26 28 24 29 19 29 16 30 3 8H91v21H337l33 27zM351 284v17H458h7l5 1 4 2 3 2 1 5 1 5 1 6V583l64-10 16-11-16-10V535l16-37 25-45 29-41 26-32 23 15 33 21 32 18 27 18 25 15 20 13 18 11 13 10 11 8 1 1v1-1l4 4 33-46 5-6 1-19-22 9-4-1-17-7-20-9-23-9-27-11-30-12-34-13-37-14-21-7 31-28 40-29 45-27 50-22 55-19 59-17 46-11-63-57-64 21-58 25-54 29-48 33-42 37-37 42-30 44-24 49-13 37V322l-1-13-2-14-4-13-7-12-9-11-11-8-12-7-13-5-13-2-14-1v32L351 284zM772 822l65-11 16-11-16-9V577l-65-32v43H252V550l-65-32V822l65-11 16-11-16-9V609H772V822zM573 843l-19-12-2-11-10-32-17-29-2-3h3l30-6 29-6 26-7 25-9 23-8 22-9 20-11 19-10 17-12 10-22-7-23-22-11-24 8-11 11-13 12-16 11-17 12-20 12-21 12-23 12-26 13-26 13-9 4-9-10-26-24-32-21-36-19-40-16-46-14-50-11-2 10 45 20 41 21 36 21 29 22 24 21 19 22 14 23 9 22 4 22 1 23v13l64-13 16-11z"/><glyph glyph-name="undefined" unicode="𡍓" horiz-adv-x="1024" vert-adv-y="918" d="M392 780l59-30H647V874l65-11 16-10-16-10V750H864l53 54 65-54V729H451V390l-2-62-4-59-7-56-8-53-10-49-13-45-15-43-17-38-19-34-22-31-8 5 13 34L351-5l10 38 10 42 7 44 7 48 4 51 3 54 1 58-1 60V780zM793 30l65-54V-45H488v21H739l54 54zM894 10 850 47 812 92l-31 52-25 59-20 66-15 73v3H574V116l15 5 29 10 29 10 31 12 32 10 33 11 4-8-28-21-29-19-27-16-28-16-27-14-27-14-25-13-26-12-24-10-3-2-6-20-15 12-31 58 10 3 25 7 24 7 5 1V596l54-27 8 2 33 11 32 10 32 11 32 11 30 12 31 13 30 13 29 14 30 15 5-12 41-38 1-18-20 9-1-1-32-11-33-12-32-10-17-4 2-72 5-84 8-61h79l54 53 64-53V345H787l12-60 17-60 22-52 27-44 30-37 36-29 1-1 26 115h11L959 47l13-8 16-18-1-24-18-17-24 1-51 29zM35 123l10 4 26 8 27 9 28 10 31 12 17 6V552H51v21H174V847l65-10 16-11-16-10V573h13l54 54 65-54V552H239V198l18 7 37 15 38 14 41 15 5-8-36-24-35-23-35-21-33-19-31-17-31-17-29-15-28-14L93 78l-5-2-4-21L68 67 35 123zM704 568l-19-4-35-6-34-4-35-2-7-1V367H718l-7 56-5 87-2 58z"/><glyph glyph-name="undefined" unicode="𡍶" horiz-adv-x="1024" vert-adv-y="918" d="M45 305l10 2 39 4 40 5 42 5 44 5 29 4V457H60v21H249v98l64-11 16-11-16-9V478h70l54 54 64-54V457H313V338l47 6 50 5 53 6 53 5 2-10-52-16-51-13-49-12-48-12-46-10-44-10-43-9-42-9-40-8-16-4-9-18-13 14-20 62zm825-25-55 26-50 32-44 34-2 2-20-17-50-33-53-27-49-18 13-10-16-9V174H786l54 53 64-53V152H544V5H856l54 54L974 5V-16H50V5H480V152H120v22H480v88l-3-1-3 9 6 2v19l30-5 21 9 51 27 48 31 42 35 16 16-6 6-32 42-27 44-21 48-15 50-4 31-25-25-29-23-31-21-6 7 23 29 22 28 20 28 20 29 17 29 16 31 15 30 13 31 12 33 10 32 3 8 59-28 11-16-20-4-6-15-16-34-18-32-20-31-8-12H861l54 54 65-54V677H878l23-9 13-15-20-5-15-45-27-59-32-55-36-49-25-27 38-25 47-25 51-21 56-19 41-13-63-54-59 24zM836 677H629l-20-24-14-16 14-36 22-45 25-40 29-37 33-34 4-3 22 28 30 47 26 51 21 56 15 53zM429 595l-5 11-7 12-5 8-21-6-41-10-39-10-38-8-37-7-35-7-34-5-32-6-31-5-8-1-10-19-12 15-17 63 11 1 30 2 31 1 28 2 10 22 12 22 11 22 10 21 9 20 8 20 7 18 4 12H50v21H394l53 54 65-54V783H295v-1l-10-18-10-18-11-18-13-18-14-19-14-20-16-19-18-19-4-5h10l35 3 37 2 39 2 40 3 41 2h15l-3 4-12 13-13 14-14 16-16 15-19 15 6 8 21-10 21-10 20-9 17-11 17-10 15-12 14-11 13-12 11-13 10-13 2-24-16-20-24-1-20 15-3 11z"/><glyph glyph-name="undefined" unicode="𡎍" horiz-adv-x="1024" vert-adv-y="918" d="M382 707l64-32H604V874l65-11 16-10-16-10V788H792l44 49 53-49V767H669V675H897l32 27 59-48-27-16-16-7-1-2-8-11-26-36-19-23-11-12-8-14-9 5 5 15 4 15 11 44 4 13 3 14 4 13v2H446V315l-2-51-5-48-6-46-8-42-10-39-12-37-14-33-16-30-19-26-20-22-8 6 11 27L347 2l9 29 8 32 7 35 5 38 4 41 2 43v46 49V707zM773 23V39h54 7l5 1 3 1 2 1 1 2 1 2 1 3 1 5 1 6V226H728V-49L663-81V226H542V-5L478-37V280l64-33H663v94l65-11 16-11-16-9V247H849l32 27 59-48-27-22V60 46l-3-13-4-13-7-12-9-11-11-9-12-6-13-5-13-2-14-1V6L773 23zM44 139l10 3 25 8 26 9 27 9 30 10 17 7V544H60v21H179V825l64-11 16-10-16-10V565h29l44 48 54-48V544H243V210l16 6 36 14 37 14 40 14 5-9-35-24-34-21-34-20-31-18-32-17-29-16-28-15-27-13-26-12-4-2-5-21L77 82 44 139zM669 366l-14 1-13 2-13 4-12 6-10 9-10 10-6 12-5 13-2 13-1 13v56L452 488l-3 21 134 18V643l64-11 17-11-17-9V536l80 10 46 61 71-45 3-21-2e2-27V443l1-5 1-3 1-2v-2l1-1 2-2 4-1 5-1 7-1H878l30 113h10L908 425l17-12 12-17-12-18-17-12H669z"/><glyph glyph-name="undefined" unicode="𡎰" horiz-adv-x="1024" vert-adv-y="918" d="M814 487l59-28 12-16-22-5-5-10-8-15-9-16-19-32-11-17-11-17-12-18-3-5h72l53 54 65-54V287H754V159h72l54 54 65-54V138H754V-44L690-76V138H499v21H690V287H469v21H771l3 12 5 20 9 39 5 18 8 35 4 16 3 16 2 10 4 13zM411 849l65-32H893l32 26 60-48-27-21V619l-65-32v54H476V476l-3-67-5-65-6-61-9-57-10-55-14-51-15-47-17-45-20-40-24-36-8 4L358-4l12 42 10 44 10 47 7 50 6 53 5 57 3 59 1 62-1 66V849zM36 123l10 4 26 8 28 9 29 10 31 12 19 7V552H53v21H179V847l64-10 16-11-16-10V573h16l54 54 65-54V552H243V197l19 8 37 15 40 14 41 16 5-9-37-24-36-23-35-21-33-19-33-17-31-17-30-15-28-14L95 78l-5-2-5-21L69 67 36 123zM615 349l-1 15-2 14-2 14-7 28-7 28-4 14-7 13 7 6 10-12 12-10 11-12 10-12 9-13 8-14 8-14 7-16 7-15 5-16-5-24-21-14-23 5-14 20-1 15zM508 491v21H690V620l64-10 17-11-17-10V512h64l54 54 64-54V491H508zM893 795H476V662H893V795z"/><glyph glyph-name="undefined" unicode="𡏇" horiz-adv-x="1024" vert-adv-y="918" d="M50-23V-2H480V137H120v21H480V269l64-11 16-11-16-9V158H786l54 54 64-54V137H544V-2H856l54 54L974-2V-23H50zM897 328l-31 39-28 42-25 46-23 49-20 52-18 56-15 58-12 63-6 55-2-3-21-23-23-23-25-22-25-21 26-25 33-38 28-41 22-41 15-43 10-44 4-45-3-45-9-45-16-46h-3l-6-10-7-12-8-10-9-9-11-8-11-7-13-4-13-4-13-2H625v32l-53 16v16h53l8 1h6l6 2 5 2 4 2 7 6 8 18 16 37 10 36 6 37 1 34-13-12-31-27-34-26-36-24-37-23-41-23-42-19-44-19-47-16-4 8 42 26 39 26 38 25 36 25 33 27 32 26 29 27 27 28 25 28 16 21-1 1-14 40-5 12-2-2-24-20-26-20-26-19-27-19-29-17-30-17-32-16-32-15-35-13-5 8 29 23 28 21 28 22 26 21 24 20 24 21 23 22 21 20 20 22 14 16-8 13-20 30-17-13-30-20-32-19-33-18-36-16-38-15-4 9 31 23 31 24 29 23 27 22 26 23 24 22 22 23 20 22 12 16H417v13l-23-14-16-7-10-13-13-16-14-17-15-16-16-17-18-17-19-17-21-17-14-10 24-13 26-14 22-16 19-16 17-17 13-18 10-20 6-21 2-23-3-22-4-2-4-10-6-12-8-11-8-10-11-9-11-7-12-5-13-4-13-2H270v32l-54 16v16h61l6 1 5 2 4 1 3 2 4 3 2 3 6 18 4 8 3 10v11l-2 13-5 15-9 16-12 18-16 19-19 21-22 21v1l-6 5 16 23 14 21 14 21 13 20 12 19 10 18 9 18 9 17 2 6H163V254L98 221V863l65-32H329l3 2v1l29 23 56-45v4H842l53 53 65-53V794H729l18-56 20-58 21-56 14-30 11 16 22 29 10 13 9 14 10 12 9 13 9 13 5 7v1l3 3v1h1l2 2 45-45 5-19-23 4-6-5-13-11-14-9-14-10-14-11-15-9-16-10-17-9-4-3 4-8 24-48 25-43 28-40 28-36 30-32 32-29 10-9-58-44-33 36z"/><glyph glyph-name="undefined" unicode="𡑘" horiz-adv-x="1024" vert-adv-y="918" d="M50-18V3H480V140H120v22H480V272l64-11 16-10-16-10V162H786l54 54 64-54V140H544V3H856l54 54L974 3V-18H50zM807 314v6l-31-16V426H707V322l-54-27V426H584V302l-59-30V603l59-30H9e2l29 27 57-48-27-19V353l-1-13-2-13-3-11-6-12-7-10-10-10-10-7-13-4-12-3H882v29l-75 15zM424 298l-38 26-32 34-26 41-21 48-16 54-13 61-3 23H166V374l6 2 24 7 24 7 25 7 27 8 27 7 4-8-23-16-23-15-23-14-23-12-22-12-22-11-21-10-21-9-18-9-6-20-15 12-29 59 10 3 20 4 14 3V8e2l58-28h1l28 9 54 18 26 10 26 10 26 11 25 11 25 12 19 10 5 3 6-13 41-37 1-18-20 9-1-1-28-10-28-9-28-8-9-2 2-71 4-71 4-28h39l53 54 47-39 26 18 28 22 27 23 25 24 24 24 23 26 21 28 21 29 18 30 15 27 5 10 54-37 8-18h-9l20-18 23-22 24-19 23-19 24-16 24-15 24-13 25-11 25-11 33-14-62-51-27 16-26 17-26 18-24 21-23 22-21 24-21 25-20 27-15 26-1-3-24-30-25-30-27-27-28-25-29-23-30-21-33-18-33-15-26-10 8-6V585H340l2-14 11-54 14-48 18-39 20-32 24-25 20-14 28 118h10L477 345l9-4 19-15 3-25-16-19-25-2-43 18zM653 552H584V447h69V552zm123 0H707V447h69V552zm124 0H830V447h70V552zM264 762l-12-2-29-4-30-3-27-1V607H273l-3 22-5 74-1 59zm540-58 65-54V628H596v22H751l53 54zm83-375 4 1 2 1 1 1h1l1 2 1 2 2 4 1 6v80H830V331l-4-2h61z"/><glyph glyph-name="undefined" unicode="𡒿" horiz-adv-x="1024" vert-adv-y="918" d="M50-18V3H480V140H120v22H480V272l64-11 16-10-16-10V162H786l54 54 64-54V140H544V3H856l54 54L974 3V-18H50zM248 884l49-43 6-18-27 3-1-1-9-6-9-7-11-7-22-15-7-4H370l32 27 59-49-26-21V667l-65-32v32H139V613H380l33 27 59-49-27-21V483l-65-32v32H139V426H390l32 27 59-49-27-21V282l-64-33v43H139V255L75 223V818l64-32h59l4 4 7 14 7 12 6 11 5 11 5 10 5 9 4 9 2 8 1 1-1 1 5 8zM887 355l-27 39-23 40-21 44-19 48-16 50-14 54-11 55-7 60-3 39-4-7-17-22-18-21-12-11 20-29 22-42 7-15 1-1v-1l11-26 15-41 9-32 2-1-1-2 1-7 8-41 5-40 1-40-2-39-6-39-4-2-3-10-6-12-7-12-8-10-10-10-11-7-12-5-13-4-14-2-13-1v32L579 3e2v16H687l7 1 5 1 5 1 4 1 5 5 2 2 4 18 9 31 5 33 3 35v28l-23-27-26-26-27-24-28-22-30-20-31-18-33-15-35-12-4 9 29 21 27 21 26 22 25 23 23 24 22 25 21 27 19 27 18 30 16 29-6 31-1 6-11-13-21-21-22-20-24-19-25-17-26-17-26-14-29-13-30-12-5 9 24 20 23 20 23 19 21 20 20 19 19 21 17 21 17 21 15 22 14 23 7-5-5 17-9 29-22-18-25-19-27-19-30-17-32-17-34-16-5 9 28 24 27 23 24 22 22 22 21 21 18 21 15 20 13 20 9 15H507v21H834l54 54 64-54V804H758l-2-4 15-51 16-56 17-53 13-33 5 11 10 17 8 17 9 15 8 16 8 15 7 15 6 14 3 9 5 9 53-37 9-17-23-1-7-8-11-13-12-13-12-13-13-13-14-14-16-13-16-13v-1l19-44 22-42 23-39 25-34 26-32 28-28 6-8-57-42-29 35zM390 404H139V314H390v90zM380 591H139V505H380v86zM370 764H139V689H370v75z"/><glyph glyph-name="undefined" unicode="𡓬" horiz-adv-x="1024" vert-adv-y="918" d="M50-34v22H480V98H120v22H480v91l64-11 16-11-16-9V120H786l54 54 64-54V98H544V-12H856l54 53 64-53V-34H50zM251 894l50-41 7-18-27 2-3-2-8-7-10-8-10-8-12-8-11-9-10-6H375l32 27 59-49-27-21V661l-64-32v32H141V6e2H385l32 27 60-48-27-22V461l-65-32v32H141V396H395l32 27 59-48-27-22V253l-64-32v32H141V216L77 183V821l64-32h59l4 5 7 15 7 12 6 13 6 11 5 11 4 10 4 9 3 8 1 2-2 1 6 8zM922 271l-24 27-22 30-20 33-18 36-16 38-13 41-12 44-9 47-5 45h-9l-11-10-18-16-19-15-21-14 18-13 28-27 24-28 20-30 15-31 12-31 6-33 2-33-4-33-7-34-4-1-5-10-6-12-8-11-9-10-11-8-11-7-12-5-13-4-13-2H714v32L606 242v16H721l6 1 5 2 4 1 4 2 3 3 2 2 7 19 9 24 5 25 3 24-1 12-10-9-29-22-30-21-32-19-35-18-35-17-38-16-40-14-42-12-3 9 37 22 35 21 34 21 32 21 30 21 28 22 26 22 24 23 22 23 11 13-9 20-6-4-21-14-23-13-23-13-24-12-25-11-26-11-25-9-28-8-28-7-4 9 24 16 23 16 23 14 22 15 21 15 20 15 20 15 19 15 18 16 12 11-7 10-14 20-9-5-24-13-26-12-26-12-29-10-31-9-32-9-4 10 28 17 27 16 24 17 24 15 21 15 20 16 18 15 13 13H508v22H802l14 76H638l-2-8-71-14 55 202 59-27 13-15-18-4-7-27H833l33 27 59-48-27-16-9-4-22-142h24l44 48 53-48V612H794l16-39 17-43 18-40 3-7 2 2 12 11 11 10 33 33 10 10 9 11 7 7h-1l3 2 1 1 1 1 40-50 3-19-23 7-7-4-13-7-15-8-29-13-15-6-16-5-4-1 6-12 19-33 20-29 21-27 22-23 22-20 23-16 17-13-58-44-27 23zM395 375H141V275H395V375zM385 579H141V483H385v96zM375 767H141V683H375v84zm456 29H661l-17-65H819l12 65z"/><glyph glyph-name="undefined" unicode="𡖟" horiz-adv-x="1024" vert-adv-y="918" d="M254 173l-7 22-5 11-6 12-7 11-8 12-9 12-10 13-4 3-17-20-28-26-29-26-31-22-33-20-6 8 25 27 25 28 24 29 22 29 21 30 20 32 18 33 17 34 16 36 12 32-20-21-43-38-46-33-49-29-51-25-4 8 44 34 43 34 39 37 37 40 35 42 18 26-18-1-18 16-4 12-3 10-5 12-5 10-5 11-7 10-7 11-7 10-8 10-11-14-25-28-27-25-29-23-32-21-6 7 24 29 22 28 21 28 19 29 18 30 16 31 15 31 13 33 12 34 9 29v2l1 4 3 8 59-28 12-15-20-4-6-18-13-29H374l33 27 59-48-27-16-12-5-18-39-29-56-33-53-35-49-38-45-10-10 52-29 11-16-20-3-10-19-16-31H402l32 27 59-49-27-16-9-4-17-47-29-63-32-59-36-53-40-48-43-42L214-5 164-35 110-59 54-76l-3 9 51 26 47 30 43 34 40 38 37 42 30 42H275l-18 17-3 11zM930 25l32 134h11L962 25l19-13L994-8 981-27 962-40H646l-13 1-13 2-13 5-13 7-10 8L574-6 568 6l-4 13-3 14-1 13V595l65-11 16-11-16-10V321l60 37 31 18 30 18 29 18 29 17 28 18 28 16 23 15 4 3 10-18 33-32V412l-19 8-21-10-30-14-30-14-31-14-32-15-33-13-33-14-34-13-36-12-6-2V46 40l1-5 1-3 1-2 2-2 5-2 5-1h6H930zM397 363H268l-12-19-24-34-25-31-1-1 4-2 15-7 14-7 14-9 12-9 12-10 11-10 11-12 9-12 8-13V174l16 27 27 56 23 61 15 45zM516 682l1-17V638l-1-26-1-23-4-21-4-20-6-17-9-17-22-11-24 7-11 22 7 23 5 6 7 9 7 13 6 16 6 20 6 22 5 26 5 29 5 31 3 35h10l4-35 3-24H683V853l65-11 16-11-16-10V703H918l33 27 59-48-27-16-13-6-1-2-15-28-9-15-8-16-10-16-11-16-12-18-10-18-9 3 6 21 4 20 4 20 4 17 4 18 3 16 3 15 3 15 1 6H516zM368 756H233l-10-19-19-32-22-31-3-4 11-4 13-6 12-7 13-8 11-9 11-10 10-11 10-11 9-13V580l22 36 28 51 25 54 14 35z"/><glyph glyph-name="undefined" unicode="𡙑" horiz-adv-x="1024" vert-adv-y="918" d="M88 530l65-33H349l32 27 59-48-26-22V-6L349-39V-6H153V-44L88-76V530zM901-44 872-20 846 5 821 33 798 63 778 95l-18 34-16 37-13 38-4 15-16-48-25-52-30-47-37-42L578-6 531-35 479-59 422-76l-3 9 51 26 45 30 40 33 34 36 29 40 24 44 18 48 13 50H452v21H677l6 37 3 56 1 18 64-15 16-12-18-9-6-46-6-29H868l54 54 65-54V240H735l17-28 20-32 21-31 22-29 22-25 24-25 25-21 26-19 27-18L967-3l26-15-61-47-31 21zM349 234H153V15H349V234zm0 242H153V256H349V476zm241-48v16h75l7 1 5 1 5 1 1 1v1l2 2 1 3 1 5V869l64-11 16-11-16-9V466 452l-3-13-4-13-7-13-8-10-11-9-12-7-13-4-14-2-14-1v32l-75 16zm-6 340 60-26 13-15-21-5-3-10-12-30-14-30-16-31-17-30-19-30-20-30-22-30-25-30-27-30-8 6 18 35 17 34 16 33 16 32 14 31 12 30 11 31 10 29 8 29 6 23 3 14zM908 512l-7 24-10 25-10 25-13 25-14 27-15 26-16 27-17 28-19 30 7 6 27-22 25-24 22-24 21-25 18-25 17-25 16-26 13-25 13-26 10-27-3-24-19-15-24 2-16 19-6 24zM40 621v22H219V869l65-11 16-11-16-9V643h60l54 54 65-54V621H40z"/><glyph glyph-name="undefined" unicode="𡭒" horiz-adv-x="1024" vert-adv-y="918" d="M768-24V-8H875l7 1 5 1 3 1 2 1 1 1 1 1 1 1 1 4V8l1 6V767H551v21H897l32 27 59-48-27-22V14 1l-3-14-4-13-7-12-9-11-10-9-12-7-14-4-13-2-14-1v32L768-24zM368 101H39v22H368v65l65-11 16-10-16-10V123h15l44 48 54-48V101H433V15L432 1l-2-14-4-13-7-12-9-11-10-9-13-6-13-4-13-3-14-1v33L250-23v1l-6-7H220L201-13l-1 9-5 19-3 8-3 9-4 9-4 9-10 18-7 7 5 8 9-6 11-3 10-5 10-6 9-7 10-7 9-8 8-8 8-9 7-10V-7h87l7 1h5l3 1 2 1 1 1 1 3 1 3 1 5v93zM575 478l65-32H755l32 27 59-49-26-21V131L755 98v65H640V98L575 66V478zM364 227l-21-10V330H294V235l-53-27V330H192V216l-59-30V388l-2-10-7-32-8-30-11-28-12-26-14-24-16-21-19-19-7 5 8 24 8 24 7 24 6 26 5 26 4 28 3 30 2 31v33l-1 34V682l64-32H440l32 27 59-49-27-21V532l-64-32v32H143V493l49-25H445l29 27 57-48-27-19V267l-1-13-1-13-4-12-5-12-8-10-10-9-10-7-13-4-12-3-12-1v30l-64 14zM755 424H640V184H755V424zM241 447H192V351h49v96zm102 0H294V351h49v96zm102 0H396V351h49v96zm-5 181H143V554H440v74zm360 42 64-54V595H534v21H746l54 54zM451 877l2-7 57-47 2-16-24 12-24-5-33-5-33-5-34-4-34-3-35-3-36-2-36-2-37-1-22 1 8-12-22-4-7-13-11-15-11-14-12-14-13-13-14-11-14-11-15-10-15-10-6 7 11 13 9 15 8 15 8 14 7 14 12 29 5 15 4 15 3 11v3l1 2v-1l3 8 32-16 12 3 37 8 35 7 35 7 34 7 34 8 34 7 32 7 32 8 26 6v1l5 1zm10-178-2 9-5 9-4 10-7 10-7 11-8 12-10 11-10 13-13 11 6 8 14-8 16-7 14-7 26-15 11-9 11-8 10-8 10-9 8-10 2-25-16-19-25-2-18 16-3 7zM264 710l1 6-1 7-1 7-3 8-2 8-4 8-4 9-5 9-8 8 6 7 9-6 11-4 9-5 9-5 10-6 8-7 8-7 7-7 6-9 5-9-2-24-20-16-24 3-15 19v6zM445 330H396V244l-2-2h34l5 1 3 1h2l1 1 1 1 2 1 1 2 1 5 1 5v71z"/><glyph glyph-name="undefined" unicode="𡱐" horiz-adv-x="1024" vert-adv-y="918" d="M890 112l-7-11-8-10-10-9-11-8-11-6-12-5-13-3-13-2-13-1V89L684 105v16H792l7 1 6 1 6 1 5 2 4 2 4 4 4 3 3 5 4 5 4 7v2l1 4 2 6 1 6 1 8 1 10 1 10 1 11H609l13-25 21-32 22-29 25-26 28-22 31-20 34-17 38-15 40-12 45-9L954-9 891-68 842-54 797-36 756-16 719 9 686 36 658 67l-25 33-18 37-14 39-6 33-5-19-24-52-32-48-41-41-49-36-57-30-64-25-72-19-79-13-2 10 76 23 67 26 58 30 50 32 40 35 33 39 24 42 17 45v1H349l-7-24-71-14 58 202 43-40H547v85H272v22H547v65H236v22H547v93l64-10 17-11-17-10V527H848l44 48 54-48V505H611V440H783l33 27 59-49-27-21V301l-65-32v43H611v-1l-6-63-5-17H849l32 27 59-49-27-16-3-1v-1l-1-11-1-10-2-9-1-9-2-7-1-7-2-7-3-7-7-12zM152 847l64-32H840l32 27 59-49-27-21V616l-64-32v54H216V471l-3-68-6-65-8-62-12-59-15-55-17-52-21-48-23-45L84-23 53-59l-8 6L66-12 85 30l17 45 14 48 12 50 10 53 7 57 5 59 2 63V847zM783 418H611V333H783v85zm57 375H216V659H840V793zM547 312H379l-24-81H540l5 26 2 54v1z"/><glyph glyph-name="undefined" unicode="𡳭" horiz-adv-x="1024" vert-adv-y="918" d="M908 362l-13 21-14 20-14 18-4 5-6-6-24-22-26-18-27-17-29-14-19-6 37-6 16-11-16-10V256h82l53 54 65-54V234H769l14-19 20-26 19-25 19-24 19-21 21-21 20-18 21-18 21-15 22-15 18-12-59-45L901-6 879 15 858 38 839 62 821 88l-17 27-15 28-14 30-6 16V-40L704-72V183l-14-23-23-34-24-31-27-28-27-27-30-24L529-5 496-23 462-38l-5 8L485-6l26 24 25 24 24 27 22 27 21 29 19 31 18 33 17 34 5 11H484v22H704v91l13-2-1 2 24 20 24 20 21 20 20 21 18 23 8 10-13 12-17 15-19 15-19 15 4 8 24-6 24-9 23-11 13-8 4 7 14 26 12 27 3 7H758l-27-17-13-5-8-15-20-33-19-29 8-6 16-15 15-16 15-17 4-24-13-20-24-4-21 13-9 16-10 15-11 16-1 1-16-17-24-26-27-23-27-20-30-19-30-14-6 8 24 23 23 24 22 23 21 26 19 26 17 26-5 5-16 15-17 14-18 14-19 14 4 8 23-7 23-7 21-9 21-11 3-2 14 27 15 32 4 10H514v21H666l2 2h1l30 25 50-41v14H889l33 27 59-48-27-17-12-5-6-11-17-29-19-28-5-7 7-6 20-18 18-20 18-22 17-23 3-24-14-20-25-3-19 14-12 22zM408 86l-6 15-7 15-8 16-9 15-12 15-12 16-15 17-2 2V-34L273-67V157l-4-6-20-31-21-30-23-28-25-27-26-24-28-23L95-32l-6 7L111 3l22 28 20 28 19 28 18 29 16 29 15 31 14 31 13 32 3 12H132l-1-2-9-59-11-57L99 79 84 27 67-22 48-68l-9 3L49-17l9 51 9 51 7 55 7 56 5 58 3 60 3 63v65 67V834l59-30H399l32 27 59-48-26-22V664l-65-32v32H151V509l-3-69-4-65-5-64-5-39H273V380l64-11 16-11-16-10V272h13l54 54 64-54V251H337V223l18-9 19-12 19-13 16-14 16-14 14-16 12-16 12-17 9-17-1-25-18-17-24 1-17 18-4 14zm12 369 21 91-20 9-8-3-17-4-18-4-19-4-37-6-20-3-20-2-20-1H249V476v-6l1-6 2-3 1-2 1-1 4-2h3l5-1h7H420zM828 638l-14 16-15 16-19 16-12 9-22-14-35-20-36-19-39-15-41-13-43-10-3 9 39 20 36 20 34 21 32 21 29 23 6 5-15 9-28 15-31 15-33 15 3 10 37-6 34-7 32-10 30-11 3-1 13 14 22 25 18 27H575v21H823l2 2 3 5 1-1 26 21 59-48-27-16-18-8-9-12-25-29-27-26 24-14 21-16 20-18 18-19 5-24-12-21-24-6-21 13-11 16zM399 783H151V686H399v97zm72-341 13-19-13-20-19-13H273l-14 1-13 3-13 5-12 6-11 9-8 11-6 12-4 13-2 13-1 13V654l60-11 15-11-15-9V547l7 4 19 8 18 8 34 15 17 7 16 8 15 8 11 5v1-1l5 2 3-8 47-42 1-14 10 41h11L452 455l19-13z"/></font>
</defs>
</svg>
