<svg xmlns="http://www.w3.org/2000/svg"><defs><font name="Jigmo Regular" horiz-adv-x="1024" vert-adv-y="1024"><font-face font-family="Jigmo" font-weight="400" font-stretch="normal" units-per-em="1024" ascent="995" descent="169"/><glyph glyph-name="undefined" unicode="㔓" horiz-adv-x="1024" vert-adv-y="918" d="M880-13l-9-10-10-9-10-7-11-7-11-6-13-4-13-3-13-1-12-1v32L670-13V3H778l7 1 7 1 12 3 6 3 5 3 5 4 5 4 5 5 5 7 10 19 10 28 9 36 9 44 7 52 6 60 4 68 4 75 2 83 1 79H725l-4-84-11-93-17-87-25-79-30-72-37-64-44-57L507-6 451-45 389-76l-4 9 54 39 49 44 42 49 36 55 30 62 25 69 19 75 13 83 7 89 1 80H478v22H661V842l65-11 16-11-16-9V6e2H897l32 27 59-49-27-16-1-64-1-84-4-77-5-69-6-62-8-55-9-48-11-42-13-35L888-2l-8-11zM424 844l30-43 8-9 1-19-19 8-51-30-36-18-36-16V439h97l54 53 64-53V417H321V-40L257-72V417H41v22H257V693l-57-18-43-11-43-9-46-6-2 10 122 49 75 34 68 39 33 19 60 44z"/><glyph glyph-name="undefined" unicode="㔔" horiz-adv-x="1024" vert-adv-y="918" d="M802 158l-3-24-11-31-17-34-24-32L715 6 675-22 626-42 568-56l-66-5-4 1-4-1-67 5-57 14-49 20L280 6 249 37 224 69l-17 34-10 31-3 24-1 2v2 2h1l3 25 11 31 17 31 24 30 32 28 41 24 48 19 58 12 66 5 4-1 4 1 66-5 57-12 49-19 40-24 32-28 25-30 17-31 11-31 3-25h1v-2-2l-1-2zM5e2 340l-2 1-63-13-51-16-40-20-31-23-24-24-16-24-10-23-5-21V162 146l5-23 11-26 17-27 23-26 31-25L385-3l50-17 60-12 3-1 63 13L611-3l40 22 31 25 23 26 17 27 10 26 5 23 1 16-1 15-5 21-10 23-16 24-23 24-31 23-41 20-50 16-61 12zM468 482l-6-12-8-11-8-11-11-8-11-7-12-6-13-3-13-2-14-1v32L265 469v16H372l7 1 6 1 5 1 4 2 7 5 6 8 2 5 3 6 9 32 3 18 4 20 2 21 2 22 4 49 1 43H302l-14-51-20-55-25-51-29-46-34-42-39-36-42-30-47-25-5 9 39 32 35 35 31 38 27 41 23 45 20 48 15 52 7 36H77v22H248l8 59 3 64v13l64-16 16-11-18-10-5-47-9-52H437l32 27 59-49-27-16-2-56-5-50-6-44-4-21-5-19-6-18-5-13zM587 799l65-32H856l32 27 59-48-26-22V476l-65-32v65H652V471l-65-32V799zm269-53H652V530H856V746z"/><glyph glyph-name="undefined" unicode="㔕" horiz-adv-x="1024" vert-adv-y="918" d="M902-5 886-26l-9-9-10-9-11-7-12-5-12-5-12-3-14-2-13-1v33L685-18V-2H793h7l7 1 7 2 5 2 5 2 5 4 4 3 10 10 13 26 10 30 8 38 8 46 6 55 6 63 3 71 3 79 2 86v84H753l-7-91-14-99-17-92-23-84-28-77-33-69-37-62-43-52-47-44-7 7 38 50 35 55 30 61 26 68 21 75 19 82 13 90 9 96 4 86H528v21H693l1 108V853l64-11 16-11-16-10V729l-3-108H902l32 27 59-48-27-16V516l-1-88-3-80-4-72-6-65-6-58-8-49-10-43-12-36L902-5zM186 116 169 90l-9-19-3-12 1-6 3-4 11-6 21-6 30-5 39-2H458l32 135h11L490 30l20-13L523-2 510-22 490-34H262l-45 2-38 6-33 10L118 1 99 27 93 59l6 32 14 31 22 32 28 35L361 406H77v22H383l32 27 59-49-27-16-25-10L211 145l-25-29zM169 868l62-20 15-13-19-7-4-18-10-39-13-37-16-36-1-1H367l54 53 64-53V675H173l-26-46-23-33-24-32-28-30-30-28-7 6 41 69 35 67 14 34 13 35 10 35 9 35 6 34 4 31 2 16zM383 611l64-54V535H141v22H329l54 54z"/><glyph glyph-name="undefined" unicode="㔖" horiz-adv-x="1024" vert-adv-y="918" d="M792 342l59-48-27-22V-40L759-72V294H2e2v21H759l33 27zM468 447l-6-12-8-11-9-10-10-9-11-7-12-5-13-4-13-2H372v32L265 435v16H379l6 1 5 2 4 1 3 2 6 6 3 5 3 5 7 23 4 17 4 20 3 20 5 45 4 51 1 46H302l-13-53-21-58-25-52-29-48-34-43-38-38-43-32-47-25-5 8 39 34 35 36 31 39 27 43 23 46 19 50 16 54 7 39H77v21H248l8 61 3 68v12l64-15 16-11-18-10-5-50-9-55H437l32 27 59-48-27-17v-3l-2-56-5-51-3-24-4-23-4-22-5-19-5-20-5-13zM587 776l65-32H856l32 26 59-48-26-22V444l-65-32v64H652V412l-65-32V776zm269-54H652V498H856V722z"/><glyph glyph-name="undefined" unicode="㔗" horiz-adv-x="1024" vert-adv-y="918" d="M887-9l-8-10-9-9-10-9-11-8-11-6-13-4-12-4-13-1-14-1v32L689-13V3h97l7 1 7 1 11 3 5 3 5 3 4 4 4 4 4 5 4 7 8 19 8 27 7 37 7 44 6 52 5 60 3 68 3 75 2 83v79H761l-3-83-9-93-15-86-20-79-25-72-30-64-35-57L583-5 537-45 486-76l-5 8 42 38 38 44 33 49 29 56 23 62 20 68 15 76 10 83 5 90 1 80H557v22H697V842l65-11 16-11-16-9V6e2H886l32 27 60-49-27-16-1-64-1-84-3-76-4-69-5-62-6-54-7-48-8-40-10-34L894 3 887-9zM525 87l-5-12-7-12-9-10-10-8-11-8-12-5-13-4-14-2-13-1V57L388 73V89h43l7 1 6 1 4 1 4 2 3 2 3 2 3 4 5 9 2 7 3 10 2 13 3 15 2 18 4 43 3 24 3 55v19H376V-41L317-70V315H250l-7-70-11-59-14-54-18-49-22-43L151 3 122-28 88-53 51-70l-4 8L77-38l26 28 22 32 19 36 17 40 13 46 10 51 7 57 3 61v2H114l-8-68-68-24L78 550l54-36h62V675H49v22H194V863l59-10 15-11-15-10V697h64V863l59-10 15-11-15-10V697h73l32 27 59-49-26-21V460l-65-32v64H376V337H489l32 26 59-48-27-16-1-1v-4l-1-30-2-27-2-26-2-23-6-41-2-17-3-16-4-14-5-13zM251 337h66V492H253V380l-2-43zm66 338H253V514h64V675zm132 0H376V514h73V675zM194 492H136L117 337h77V492z"/><glyph glyph-name="undefined" unicode="㔘" horiz-adv-x="1024" vert-adv-y="918" d="M877-11l-9-10-9-9-10-9-11-6-12-6-12-4-12-4-14-1-13-1v32L668-13V3H775l8 1 6 1 13 3 5 3 4 3 5 4 9 9 13 26 9 28 9 36 8 44 7 52 5 60 4 68 3 75 2 83 1 79H736l-4-83-10-94-16-86-22-79-28-72-34-64-39-57L537-5 486-45 429-76l-5 8 49 39 43 44 38 49 33 56 27 62 22 69 17 75 12 83 7 89 1 80H510v22H673V842l64-11 16-11-16-9V6e2H886l32 27 59-49-27-16-1-64-2-84-3-76-4-70-5-62-7-54-8-48-10-41-11-35L885 1l-8-12zM254 852l64-11 17-10-17-10V505h88V781l64-11 16-11-16-10V473l-64-32v43H318V91H428V382l65-11 16-10-16-10V59L428 27V70H144V5L79-27V382l65-11 16-10-16-10V91H254V484H167V468l-65-33V781l65-11 16-11-16-10V505h87V852z"/><glyph glyph-name="undefined" unicode="㔙" horiz-adv-x="1024" vert-adv-y="918" d="M892-9l-8-10-9-9-10-9-11-8-11-6-12-4-13-4-13-1-13-1v32L706-13V3h86l7 1 7 1 11 3 5 3 4 3 4 4 5 4 3 5 4 7 8 19 8 27 8 37 7 44 5 52 5 60 4 68 2 75 2 83v79H767l-4-83-9-93-15-86-19-79-25-72-30-64-36-57L588-5 542-45 491-76l-5 8 43 38 37 44 34 49 28 56 24 62 20 68 14 76 10 83 6 90 1 80H562v22H703V842l64-11 16-11-16-9V6e2H892l32 27 59-49-27-16V498l-2-84-3-76-4-69-4-62-6-54-7-48-9-40-10-34L899 3 892-9zM56 334v22H181V607H85v21H334l17 46 58 144 18 44 3 6 55-33 10-17-20-2-68-112-32-44-24-32h83l53 54 65-54V607H421V356h18l54 54 65-54V334H421V-34L356-67V334H245l-2-58-6-55-9-51-12-47-15-43-17-40L163 5 139-25 112-51 82-70l-6 7L98-37 116-8l16 31 14 34 12 37 9 41 7 45 5 47 2 52v55H56zM356 607H245V356H356V607zM187 691l-5 17-5 17-6 16-8 16-10 16-21 32-13 16-15 14 6 8 38-20 18-12 16-14 15-15 14-16 12-18 11-18 10-20 8-20-3-24-20-16-25 4-15 20-2 17z"/><glyph glyph-name="undefined" unicode="㔚" horiz-adv-x="1024" vert-adv-y="918" d="M873-11l-9-10-9-9-10-8-11-7-12-6-12-4-13-4-13-1-13-1v32L664-13V3H771l8 1 6 1 7 1 5 2 5 3 5 3 5 4 4 4 5 5 4 7 9 19 9 28 9 36 7 44 7 52 5 60 4 68 3 75 2 83 1 79H733l-4-83-11-94-16-86-21-79-28-72-34-64-39-57L534-5 483-45 427-76l-5 8 49 39 43 44 37 49 33 56 27 62 22 68 17 76 11 83 7 89 1 80H507v22H669V842l64-11 17-11-17-9V6e2H881l32 27 59-49-27-16V498l-2-84-3-76-4-70-6-62-7-54-8-48-9-41-12-34L880 1l-7-12zM435 852l8-15 36-35V784l-20 9-30-15-37-15-77-26-6-1V530h78l53 54 65-54V509H309V304h79l33 27 59-48-27-22V25L388-8V25H162V-40L98-72V337l64-33h83V509H49v21H245V718l-53-11-44-7-44-5-45-3-2 10 165 53 76 29 36 16 68 34 33 18zM162 283V46H388V283H162z"/><glyph glyph-name="undefined" unicode="㔛" horiz-adv-x="1024" vert-adv-y="918" d="M784-37l-11-5-12-5-11-4-23-6-12-2-12-2-24-1v32L571-13V3H679l17 1 9 1 9 1 16 5 9 2 16 8 18 11 10 9 9 12 8 15 8 17 6 20 6 23 4 26 3 28 1 20H538l-31-50-42-50-49-44-55-38-62-32-68-26-74-19L77-70 75-60l77 23 69 26 63 30 54 35 49 38 41 43 34 48 11 19H136v22H484l6 10 22 56 16 61 2 10 60-24 14-14-20-6-14-47-21-46H829l32 27 60-49-27-16-2-1v-8l-4-32-5-30-7-28-8-25-10-24-13-21L831-2 814-18 795-31l-11-6zM193 555l64-32H766l33 26 59-48-27-21V342l-65-32v53H257V326l-64-32V555zm573-54H257V385H766V501zM125 618v21H480V744H60v22H480V868l64-11 16-11-16-9V766H845l54 53 65-53V744H544V639H801l44 49 54-49V618H125z"/><glyph glyph-name="undefined" unicode="㔜" horiz-adv-x="1024" vert-adv-y="918" d="M886-11l-9-10-9-9-10-8-11-7-12-6-12-4-13-4-13-1-13-1v32L687-13V3h97l8 1 6 1 6 1 6 2 5 3 5 3 9 8 4 5 5 7 8 19 10 28 8 36 8 44 6 52 5 60 4 68 3 75 2 83 1 79H747l-4-83-10-94-16-86-22-79-28-72-33-64-39-57L550-5 499-45 443-76l-5 8 49 39 42 44 37 49 33 55 26 63 22 68 17 76 11 83 7 89 1 80H523v22H683V842l64-11 17-11-17-9V6e2H893l32 27 59-49-27-16V498l-2-84-3-76-5-70-5-62-6-54-8-48-10-41-11-34L893 1l-7-12zM177-24V-8h92l5 2 3 1 2 1 2 1 1 2 1 3 1 5v7V185L117 140l-28-7-8-19-14 13-23 61 10 3 1e2 18 130 25V361l55-9 85 1e2H77v22H441l9 11 2-2 22 18 59-49-27-16-29-12-43-35-35-26-36-22 2-1-16-10V248l97 20 97 17 3-9-92-36-105-35V14L347 0l-2-13-4-13-6-13-10-10-10-9-13-7-13-4-13-3H263v32L177-24zM473 741l54-36 9-17-21-1-42-62-68-88-20-23-21-22-8 6 50 105 45 92 22 46zM111 561l-2 15-2 14-8 28-12 29-6 15-9 13 7 7 13-12 13-10 12-12 22-26 18-30 8-15 6-17 6-17-6-24-20-13-24 6-13 20-3 29zm145 7-2 17-1 16-3 16-4 16-4 15-5 15-14 30-9 14 6 7 29-22 12-13 12-14 11-16 10-16 8-17 7-19 6-20 5-20-8-24-21-12-24 8-11 22v17zM486 856l2-8 51-43 1-17-22 10-12-4-73-17-39-8-42-8-43-7-46-6-48-6-51-5-53-4-55-2-1 9 245 59 81 22 72 23 28 10 5 2z"/><glyph glyph-name="undefined" unicode="㔝" horiz-adv-x="1024" vert-adv-y="918" d="M903-1l-8-11-8-10-10-9-11-8-11-6-12-5-13-3-14-2-13-1v32L728-8V9h75 7l7 1 6 2 5 1 4 3 5 3 3 4 8 10 4 6 7 19 7 27 7 37 6 44 6 52 4 60 3 68 2 75 2 83v80H788l-3-79-7-89-12-82-16-77-20-70-23-64-29-58-32-50-37-44-41-36-7 7 32 42 29 46 25 51 21 56 19 62 14 68 12 74 7 80 4 87v76H589v21H724V847l64-10 16-11-16-10V605H896l33 27 59-48-27-16-1-64-1-84-2-76-4-69-4-62-6-54-6-47-8-40-8-34-12-27-6-12zM415-13V3h54l6 1 6 1 3 1h2l1 2V9l1 1 1 3 1 5v7 89L474 96l-13 26-12 31-11 32-9 34-7 34-1 11-7-23-14-38-16-34-18-29-21-24-3-4V-34L277-67V109L261 90l-13 27-13 31-10 32-9 33-7 34-2 12-6-24-14-38-16-33-18-30-21-24V-45L67-77V648l65-32H277V756H39v21H471l54 54 64-54V756H342V616H490l33 27 59-48-27-22V25l-1-14-2-13-5-13-6-12-9-11-11-9-12-7-13-4-13-2-14-1v32L415-13zm75 608H342V155l10 28 9 33 9 37 7 40 5 44 5 48 2 53 1 44H343v21h48l32 27 59-48-27-16-2-1-2-32-5-36 6-33 7-34 8-33 9-31 10-31 4-10V595zM177 476H132V160l6 18 10 33 9 36 7 41 6 44 3 48 3 52 1 44zM277 595H132V498h45l32 27 59-49-26-16-2-1-3-31-4-36 5-33 7-34 8-33 10-32 10-30 4-10V595z"/><glyph glyph-name="undefined" unicode="㔞" horiz-adv-x="1024" vert-adv-y="918" d="M897-9l-8-10-8-9-10-9-11-8-11-6-13-4-13-4-13-1-13-1v32L7e2-13V3h97l7 1 7 1 11 3 5 3 4 3 5 4 4 4 4 5 3 7 9 19 8 27 7 37 7 44 5 52 5 60 4 68 3 75 1 83 1 79H772l-4-83-9-93-14-86-20-79-25-72-30-64-35-57L594-5 547-45 496-76l-4 8 42 38 38 44 33 49 28 56 24 62 20 68 15 76 10 83 5 90 1 80H567v22H708V842l65-11 16-11-16-9V6e2H897l32 27 59-49-27-16V498l-2-84-2-76-4-69-5-62-6-54-7-48-9-40-10-34L904 3 897-9zM458 866l3-9 49-42 1-17-22 10-11-4-66-17-64-15V654H449l54 53 64-53V632H348V-42L294-69V632H74v22H294V761l-23-5-37-7-38-5-39-5-40-4-2 10L427 854l25 10 6 2zM34 255l124 50 23 8V428H59v21H181V589l60-11 14-10-14-10V131l-60-29V286l-49-41-39-29-3-22-17 9-39 52zm506-64 33 135h11L573 191l19-13 13-19-13-19-19-13H474l-14 1-13 3-12 4-12 7-11 9-9 11-6 12-4 13-1 12-1 14V584l59-11 15-11-15-9V4e2l26 29 74 76-1 1 5 4 40-51 1-20-20 8-112-69-13-7V213l1-7 1-5 2-5 2-1 1-1 2-1 4-1h4l7-1h66z"/><glyph glyph-name="undefined" unicode="㔠" horiz-adv-x="1024" vert-adv-y="918" d="M889-10l-8-10-9-10-10-8-11-7-12-6-11-4-13-4-14-1-13-1v32L681-13V3H788l8 1 6 1 12 3 5 3 5 3 4 4 4 4 5 5 4 7 9 19 8 28 8 36 7 44 6 52 6 60 3 68 3 75 2 83 1 79H756l-4-83-9-93-16-87-20-79-27-71-32-65-38-56L567-5 518-45 464-76l-5 8 46 39 41 44 35 49 31 55 25 62 21 69 16 76 11 82 6 90 1 80H540v22H692V842l65-11 16-11-16-9V6e2H894l32 27 59-49-27-16-1-64-1-84-3-76-4-69-5-62-7-55-7-47-9-41-11-34L896 2l-7-12zM460-16l-7-11-8-10-10-9-11-8-11-7-12-5-13-3-13-2-14-1v32L254-24V-8H361l7 1 7 1 5 2 5 1 9 6 7 8 3 5 4 7 7 19 7 23 6 27 6 31 4 35 3 38 3 42 1 45v48 43H196l-15-28-20-35-21-33-4-5 41-6 16-11-16-10V97l21 40 20 47 18 51 7 27 6 29 5 30 4 26h-1l3 16 62-21 14-13-19-7-3-13-10-32-4-15 3-1 14-8 14-8 13-11 23-22 21-26 10-15 1-24-17-19H358l-19 17-8 26-6 13-12 25-14 23-7 9-10-23-13-27-15-25-15-24-18-21-19-19-21-16-4 5V68H306l44 48 54-48V46H177V-18L112-51V240L94 217 68 188 41 162l-8 6 55 98 33 67 15 34 27 72 11 37 8 27H165V487l-64-32V847l64-32H411l32 27 59-49-27-21V492l-64-32v43H227l19-9 13-15-20-5-23-56-10-22H445l32 27 59-49-26-16V332l-1-50-1-47-2-44-4-40-5-38-5-33-7-31-9-28L466-4l-6-12zM411 648H165V525H411V648zm0 145H165V670H411V793z"/><glyph glyph-name="undefined" unicode="㔡" horiz-adv-x="1024" vert-adv-y="918" d="M894-8l-8-10-9-10-10-9-10-8-12-6-12-4-13-4-13-1-13-1v32L686-13V3H794l7 1 7 1 6 1 4 2 5 3 9 6 8 10 4 7 7 19 8 27 7 37 7 44 5 52 4 60 4 68 3 75 1 83 1 79H773l-3-83-10-93-14-86-19-79-24-72-29-64-35-57L6e2-4 556-45 506-76l-5 8 41 38 5 6-9-6H403l-14 1-13 2-13 4-12 7-11 9-9 11-7 12-4 13-2 13-1 14V372l64-11 16-10-16-10V210l71 45 52 37v1l5 3 9-18 33-32 1-19-20 9-78-29-60-18-13-2V56l1-7 1-4 1-4 1-1 2-2 5-2 4-1H506l32 134h11L538 35l20-13L570 4l8 10 32 49 27 55 23 63 19 68 14 76 10 83 5 90 1 80H574v22H709V842l64-11 16-11-16-9V6e2H891l32 27 59-49-26-16-1-64-2-84-2-76-4-69-4-61-6-55-7-47-8-40-9-34L901 4 894-8zM39 25l10 3 19 3 19 3V372l64-11 16-10-16-10V233h66l33 37 43-37V211H151V45l91 16 65 9 2-9-30-15-57-24L146-7l-23-8L86-28 78-48 64-35 39 25zM277 863h-1l5 8 51-39 7-19-24 2-40-37-33-28H465l32 27 59-48-27-22V382l-64-33v54H139L75 371V783l64-33h86l4 6 13 30 23 50 5 11 5 10 2 6zM395 457l-15 21-35 40-15 16-15-15-32-24-33-21-36-19-39-14-36-9v-7H465V729H139V445l61 36 30 22 28 23 25 26 12 14-60 48-54 40 4 8 33-10 31-13 29-14 28-15 15-9 24 38 16 33 13 35 4 7 57-30 10-16-20-3-9-20-22-36-24-33-5-5 39-32 41-42 7-23-12-22-24-6-21 11z"/><glyph glyph-name="undefined" unicode="㔢" horiz-adv-x="1024" vert-adv-y="918" d="M795-39 773-50l-12-4-11-4-12-3-11-3-24-3-13-1H679v32L571-20V-4H688l8 1 10 1 8 1 17 5 8 2 9 4 17 8 9 6 10 8 9 11 8 13 7 16 7 18 5 21 4 24 3 27 1 17H538l-32-48-42-47-49-40L360 8 299-22 231-45 157-62 77-74l-2 9 77 23 70 24 62 29 55 32 48 36 41 40 35 44 9 16H136v22H485l5 10 22 51 14 51 4 15 60-24 13-14-19-7-14-42-20-40H829l32 26 60-48-27-16-2-1v-6l-4-30-5-28-7-26-8-25-10-22L845 5 830-12 814-27 795-39zM364 559l-2 9-7 17-39-11-44-10V358l-64-33V551l-18-3-98-15-12-1-10-18-12 16-15 63 11 1 33 1h33l22 1L307 759l44 46 43-48 3-19-19 5-83-67-80-58-28-18-4-2 66 2 32 2 63 1h2l-11 16-30 32-13 9 4 8 15-6 16-5 15-5 14-7 13-7 12-9 12-9 11-10 10-12 8-11 1-25-16-18-25-2-18 17zM571 339l-14 1-13 2-13 5-13 6-10 9-9 11-7 12-4 13-2 13-1 14V684l-21-16-62-38-6 7L510 761l52 67 25 37 5 9 51-41 7-17-21 1-22-26-3-2H791l12 14 2-3 19 16 59-49-27-16-54-22-11-6-30-15-15-7-15-6H872l32 27 60-48-27-22V514l-65-32v53H550V419l1-6 1-2v-2l1-1 1-1 2-1 3-1 5-1h7H915l32 134h11L947 404l20-13 13-20-13-19-20-13H571zM110 530l62-23 14-13-22-8-6-13-9-17-11-16-13-16-27-29-17-13-35-26-7 7 14 17 11 17 19 34 8 16 5 15 5 15 4 15 2 14 1 8h-1l1 6 2 10zm248-99-2 10-4 11-5 10-12 22-17 22-10 12-13 9 5 8 15-7 15-5 14-6 14-8 13-9 11-9 21-22 10-13 8-13-1-24-18-17-24 1-18 17-2 11zM679 674H550V557H679V674zm193 0H743V557H872V674zm-729 2-5 8-6 9-17 19-11 9-12 10-29 21-17 8 3 9 19-5 19-3 17-4 17-5 14-6 66 86 27 38 3 3 46-46 4-18-22 4-8-7-42-31-30-19-29-16 15-8 13-8 11-10 11-10 4-24-12-21-25-5-21 14-3 8zm627 91H583l-41-38-23-19 31-15H7e2l6 5 58 60 6 7z"/><glyph glyph-name="undefined" unicode="㔣" horiz-adv-x="1024" vert-adv-y="918" d="M908 4 902-8l-8-10-8-10-11-9-11-7-12-5-13-4-14-2-13-1v32L704-8V9H812h7l6 1 5 2 4 1 4 3 3 2 6 8 3 5 12 39 9 38 7 42 7 48 5 54 4 58 3 64 2 68 1 74v25 43H8e2l-3-79-7-88-11-83-15-76-18-71-23-64-26-57-31-51-34-43-39-37-7 7 30 42 26 46 23 51 20 56 17 62 13 68 10 74 7 80 4 86v77H590v21H736V847l65-10 16-11-16-10V605h99l32 27 59-48-27-16 1-52-1-75-2-70-3-65-5-60-5-55-7-51-9-45-9-41-10-37-6-13zM109 9V-29L50-59V420l59-30H256l24 27 51-48-27-14V-13L256-37V9H109zM396 9V-29L348-53V414l48-24H543l30 27 56-48-27-19V9L543-21V9H396zm49 182H396V30h49V191zm98 0H499V30h44V191zm-390 0H109V30h44V191zm103 0H207V30h49V191zM445 369H396V213h49V369zm98 0H499V213h44V369zm-390 0H109V213h44V369zm103 0H207V213h49V369zM189 496V480l-64-33V836l64-32H463l32 27 59-49-26-21V485l-65-32v43H189zM294 641H189V517H294V641zm169 0H359V517H463V641zM294 782H189V662H294V782zm169 0H359V662H463V782z"/><glyph glyph-name="undefined" unicode="㔤" horiz-adv-x="1024" vert-adv-y="918" d="M404 579h-1l5 13 58-29 12-15-24-5-10-16-17-22-20-22-11-10-9-7h53l54 53 64-53V444H397l16-7 37-21 54-37 50-40 9-23-10-23-23-9-23 10-39 46-86 93-11 11H348V310l-64-33V444h-4l-13-31-15-31-18-29-20-27-22-27-18-17 20-10H432l33 27 59-48-27-22V19L432-13V19H194V-45L129-77V244l-16-12-32-18-32-16-6 8 51 49 23 23 12 15v11l7-3 20 27 17 26 14 27 13 27 10 28 3 8H68v22H212l-14 15-4 28-1 9-2 9-6 18-3 10-3 9-6 7 7 7 7-6 10-5 9-6 9-6 16-16 7-8 14-19 6-10-1-24-14-12h41V597l-14-2-34-3-35-2-35-1-37 1-1 9 69 20 97 25 58 17 56 18 26 10 2-9 51-42 1-17-23 10-13-4-57-13-61-11-21-3 35-5 16-11-16-10V466h23l3 4 5 14 5 14 8 26 6 24 3 13 2 12 1 6zM897-9l-8-10-8-10-10-9-11-7-12-6-12-4-13-4-13-1-13-1v32L689-13V3H797l7 1 7 1 11 3 5 3 5 3 4 4 4 4 9 12 8 19 8 28 8 36 6 44 6 52 5 60 4 68 2 75 2 83 1 79H769l-3-83-10-93-14-86-21-79-25-72-31-64-37-57L587-5 539-45 487-76l-5 8 45 39 38 44 34 48 29 56 25 62 20 68 15 76 11 83 5 90 1 80H560v22H706V842l64-11 16-11-16-9V6e2H899l32 27 59-49-26-16h-1V498l-2-84-3-76-4-69-4-62-7-54-7-48-8-40-11-34L905 3 897-9zM284 138H194V41h90v97zm148 0H348V41h84v97zM284 251H194V159h90v92zm148 0H348V159h84v92zM72 573l-22 9-9 23 9 22 5 3 6 5 6 9 6 12 6 14 6 18 5 19 10 47 2 27h9l4-27 2-16H284V872l64-11 16-11-16-9V738H514l32 26 59-48-27-16-17-7-5-8-45-59-11-13-10-15-9 5 7 16 19 75 3 12 2 10H119l1-11 1-22-1-21-2-18-3-18-4-16-7-15-9-14-23-8z"/><glyph glyph-name="undefined" unicode="㔥" horiz-adv-x="1024" vert-adv-y="918" d="M907-6l-7-11-9-10-10-10-10-7-12-7-12-4-13-4-13-1-13-1v32L7e2-13V3H808l7 1 6 1 6 1 5 2 5 3 3 2 5 4 4 5 3 5 4 7 7 18 7 28 7 37 6 44 5 52 4 60 3 68 2 75 2 83 1 79H794l-4-83-8-93-13-86-18-79-22-71-28-64-31-57L632-4 590-45 544-76l-6 8 16 16H421l-14 1-14 3-12 4-12 7-11 9-8 11-6 12-5 13-1 12-1 14V274l59-11 15-10-15-10V136l94 60 28 21 12 10 17-25 24-26 1-18-21 8-36-15-38-14-20-7-21-6-21-5-19-4V34l1-7 1-5 3-5 1-1 1-1 3-1 3-1 5-1H539l33 135h10L572 12 591-1l3-5 15 19 30 50 25 55 22 62 17 69 13 76 9 83 5 90v80H607v22H730V842l65-11 16-11-16-9V6e2H9e2l32 27 59-49-27-16V498l-2-84-2-76-3-69-5-61-5-54-7-48-7-39-9-34L914 5 907-6zM173-22V-9h54l4 1h2l2 1v1h1l1 2 1 3 1 5 2 6V113H124V-31L59-63V370l-4 5-23 60 11 3 26 3 18 3 12 39 33 98 5 18 4 12 5 12 56-33 11-17-22-3-64-101-15-23 59 7 24 2 25 1 23 1h19l-9 23-12 29-8 15-10 14 7 7 13-12 14-11 25-23 21-25 10-12 16-27 7-14-4-24-18-15-25 3-15 19-2 12-2 11-2 11-65-22L81 381l-4-1-1-3 48-24H241l26 27 54-48-27-16V18 6L292-6l-3-11-4-11-6-10-8-9-10-7-11-5-11-2-12-1v27L173-22zm68 245H124V135H241v88zm0 109H124V244H241v88zm298 12 33 134h10L572 344l19-13 13-20-13-19-19-13H421l-14 1-14 3-12 5-12 6-11 9-8 11-6 12-5 13-1 13-1 13V605l59-10 15-11-15-9V467l94 60 28 21 8 7 4 3 15-24 26-27 1-18-21 8-19-8-36-14-60-20-21-5-19-4V365l1-6 1-6 3-5 1-1 1-1 3-1h3l5-1h7H539zM127 642V626L63 594V868l64-32H504l32 27 59-49-27-21V631l-64-32v43H127zm83 172H127V663h83V814zm147 0H274V663h83V814zm147 0H421V663h83V814z"/><glyph glyph-name="undefined" unicode="㔦" horiz-adv-x="1024" vert-adv-y="918" d="M508 281l-16 17-15 19-16 21-30 47-27 54-12 30-10 29H259l-16-31-17-29-17-26H310l44 48 54-48V390H193l-24-31-2-2 51-26H376l32 27 59-48-27-22V132l-64-32v32H218V14L348 32l44 4-91 58 3 9 29-6 28-8 27-9 26-10 6 6 8 13 17 23 8 13 9 12 32 46 5 7 46-45 5-19-22 4-21-17-39-26-26-14-13-7-3-1 13-6 48-25L530 5l21-15 10-22-8-24-23-10-23 8-33 32-18 16-40 30-5 4L354 3 281-18 212-37 146-53l-39-8-9-19L85-66 65-3l41 4 31 3 17 2V342l-30-32-24-22-26-21-28-20-6 7 75 105 33 53 27 54 13 28 1 4H53v21H265v81H91v21H265v81H64v22H340l3 6 45 118 3 9 5 11 55-34 9-17-22-2-26-34-21-25-24-23-11-9h77l54 53 64-53V702H330V621h82l44 49 53-49V6e2H330V519H496l34 38 43-38V498H396l72-87 35-37 17-16 16-14 48-34-59-44-17 15zM891 4 885-8l-8-11-9-9-10-9-12-7-12-5-13-4-13-2-14-1v32L687-8V9H794h7l6 1 6 2 4 1 4 3 3 2 3 4 6 9 12 39 9 38 8 43 7 47 5 54 5 58 3 64 2 68 1 74v25 43H779l-3-79-8-88-11-83-15-77-19-70-23-64-28-57-31-51-36-44-40-36-6 7 30 42 27 46 24 51 21 56 18 62 14 68 11 74 7 80 4 87v76H562v21H715V847l65-10 16-11-16-10V605H885l32 27 59-48-27-16 1-52-1-75-2-70-4-65-4-60-6-56-7-50-9-46-9-41-12-36-5-13zM376 224H218V154H376v70zm0 86H218V245H376v65zM190 759l-6 22-5 10-5 11-11 21-13 20-9 9 4 8 12-7 13-5 12-6 12-7 10-8 11-9 10-11 19-22 8-12V748l-17-17H210l-17 17-3 11z"/><glyph glyph-name="undefined" unicode="㔧" horiz-adv-x="1024" vert-adv-y="918" d="M905 4 890-19l-8-9-10-9-11-8-11-6-13-4-13-4-13-1-13-1v32L690-13V3H798l7 1 7 1 6 1 5 2 5 3 4 3 4 4 4 4 4 5 4 7 8 19 8 27 7 37 6 44 6 52 4 60 4 68 2 75 2 83v79H776l-3-83-9-93-14-86-19-79-24-72-30-64-34-57L603-4 558-45 509-76l-6 8 42 38L570 1 527-7l-4-1h-3l-41-7-94-13L167-56l-18-3-10-17-12 15L111 2l11 1 36 2V188l59-29H464l29 26 57-48-27-19V13l51-1 1-5 6 7 32 49 27 56 24 62 18 68 15 76 10 83 5 90v80H577v22H713V842l64-11 16-11-16-9V6e2H895l33 27 59-49-27-16-1-64-1-84-2-76-4-69-5-61-6-55-6-47-9-40-9-34L905 4zM263 137H217V7l46 2V137zm102 0H317V10l48 1V137zm99 0H418V13h11 35V137zM227 212l-54-27V432l54-27H451l32 27 59-48-27-22V212l-64-32v32H227zm82 87H227V234h82v65zm142 0H374V234h77v65zM309 384H227V321h82v63zm142 0H374V321h77v63zm50 107 21 48h11l-11-48 13-8 9-14-9-13-13-8H322l-12 1-13 3-11 5-11 7-9 10-7 10-5 13-3 13-2 13v19L147 527l-3 22 105 15V664H142V333l-2-55-4-50-5-47-6-45-8-41-10-38L95 23 82-9 67-36 49-59l-7 4 9 26L59-1l8 32 7 34 5 37 5 39 3 43 1 47 1 49-1 53V713l54-27H267V854l64-11 16-10-16-10V781h78l44 48 54-48V759H331V686H508l32 27 60-49-27-16-17-7-37-51-9-10-9-11-7-12-9 4 4 13 3 14 2 14 2 13 6 25 4 24H281l33-5 16-11-16-9V574l38 5 46 61 72-44 3-21-159-23V523l-1-6V507v-3l1-2 1-3 6-4 6-3 8-1H501z"/><glyph glyph-name="undefined" unicode="㘞" horiz-adv-x="1024" vert-adv-y="918" d="M103 831l65-32H856l32 27 59-49-26-21V-18L856-51V3H168V-34L103-67V831zm753-54H168V25H856V777zM550 7e2l-17-10-4-1e2-3-30H717l32 27 59-48-27-16V485l-1-58-1-53-2-47-3-42-3-36-4-31-4-25-6-22-8-18-7-11-9-11-9-9-10-8-11-8-11-5-12-5-13-2-13-3H640v32L533 139v16H640l15 1 6 2 5 2 6 3 5 3 4 3 4 5 4 6 5 6 2 5 4 15 4 22 3 28 3 34 3 40 2 46 2 110v53H524l-5-53-16-89-22-76-29-63-35-52-42-43-48-33-53-27-60-21-4 8 54 31 47 32 40 36 33 41 27 49 23 59 16 70 12 85 3 46H243v21H466l2 34 1 117v13l65-13 16-11z"/><glyph glyph-name="undefined" unicode="劜" horiz-adv-x="1024" vert-adv-y="918" d="M331 841l-16-10-4-155-3-52H456l32 26 59-48-27-16V519l-1-86-2-78-1-70-3-61-3-54-4-46-4-39-6-31-6-24-5-13-6-12-8-11-9-10-10-9-12-7-12-5-12-4-14-2-14-1v33L281 5V21H388l8 1h6l5 2 4 1 3 2 3 3 4 4 6 10 7 23 4 27 4 36 3 44 4 53 2 61 2 69 1 77 2 86v82H307l-5-78-13-128-18-109-24-91-29-76-35-63L143 6 97-35 46-69l-5 7L84-20l37 45 32 50 27 60 23 73 19 88 14 106 9 126 2 74H69v22H248l2 53 1 175v13l64-13 16-11zM7e2-29l-14 1-13 2-13 4-12 7-11 9-9 11-6 12-5 13-2 14-1 13V858l65-11 16-10-16-10V57 51l1-5 1-4 1-1V40l1-1 3-1 3-1 5-1 6-1H907l32 135h11L939 35l19-12L971 3 958-16 939-29H7e2z"/><glyph glyph-name="undefined" unicode="劝" horiz-adv-x="1024" vert-adv-y="918" d="M887 11l-9-9-10-8-10-8-12-6-11-5-12-4-13-3-13-2H784V-2L677 14V30H784l8 1 7 1 13 3 6 3 6 3 5 4 6 4 9 11 2 5 5 18 6 29 5 38 5 47 5 57 5 65 4 75 4 83 3 80H711L694 421 672 314l-29-93-37-80-48-67-59-55-71-42-84-32-3 9L418-5l62 47 50 54 40 65 30 75 24 89 17 105 12 120v7H486v21H655l6 110 7 168 64-15 16-11-17-10-8-136-10-106H889l32 27 59-48-27-16-1-1-2-66-5-84-4-75-4-66-6-58-5-49-5-41-7-32-7-26-11-21-9-11zM388 217l-19 45-23 44-26 46-9 14-27-55-40-69-43-64-45-60-50-55L53 15l-7 7L91 77l41 58 40 62 37 65 34 70 31 73 3 9-19 26-35 44-79 89-44 45 6 7 51-37 48-39 44-41 41-42 4-5 34 102 23 86 17 71H72v22H371l32 27 59-49-27-16-6-2-19-69-26-87-31-83-20-47 28-36 31-46 28-46 24-47 22-47-2-25-18-17-24 1-17 18-17 46z"/><glyph glyph-name="undefined" unicode="办" horiz-adv-x="1024" vert-adv-y="918" d="M415 638H120v21H415V858l65-11 16-10-16-10V659H695l32 27 59-48-26-16 1-70V498l22-13 31-22 28-23 25-24 25-26 21-27 19-28 18-30 15-30 13-31-2-25-18-16-25 2-16 19-9 29-10 28-12 27-15 27-16 27-18 27-43 53-33 36V461l-2-83-4-75-6-69-9-61-10-54-13-47-16-41L682-3l-8-10-9-10-9-9-11-8-11-6-12-6-12-4-13-3-13-1-13-1v32L464-13V3H571l8 1 7 1 12 3 6 3 5 3 5 4 5 4 5 5 5 7 14 25 13 33 11 41 10 50 8 58 6 66 4 74 2 81v89l-1 44h-1v43H480V6e2l-6-99-11-93-19-87-26-79-32-73-40-64-46-58L247-2 187-44 122-76l-5 9 59 40 52 46 45 51 39 57 33 63 26 69 21 75 14 82 8 89 1 95v38zM246 533l58-29 12-15-20-5-25-53-19-35-21-33-23-32-25-31-27-29-28-28-32-26-33-23-6 7 72 93 41 62 18 33 16 32 14 34 13 35 15 43z"/><glyph glyph-name="undefined" unicode="务" horiz-adv-x="1024" vert-adv-y="918" d="M745-13l-8-11-9-9-10-9-11-7-11-6-13-5-12-3-13-3H644v32L537-18V-2H644l8 1 12 2 6 2 4 3 5 3 3 3 5 5 3 6 4 6 7 13 6 16 5 18 5 21 4 23 3 25 3 27 2 30 1 31 1 23H523l-4-13-32-72-39-61-46-50-51-42-57-31-61-25-65-18L99-67l-2 9 65 22 60 25 55 29 50 34 43 40 37 47 32 56 23 61H238v21H468l15 62 12 90 1 11 63-18 15-12-18-9-13-75-14-49H731l32 27 59-48-27-16v-9l-1-33-2-31-4-29-3-28-5-26-6-24-6-22-8-20-9-19-6-12zM854 325l-66 25-64 30-62 34-60 39-57 43-9 8-25-21-70-48-73-43-76-38-79-31-83-25-85-18-2 9 81 28 78 33 75 36 71 41 68 46 64 50 17 15-58 59-49 57-33 47-17-19-33-34-34-31-36-30-38-28-40-25-43-23-5 8 70 63 33 31 31 33 57 68 26 35 46 74 21 38 3 6 53-37 9-18H440l-14-22-20-27H7e2l6 8 2-1 24 20 60-49-27-16-20-8-44-54-60-66-63-59-7-6 59-37 59-33 60-29 62-23 63-20 113-26-64-59-69 20zM684 741H390l-19-25-6-6 42-41 54-50 55-46 11-8 15 12 58 60 54 65 30 39z"/><glyph glyph-name="undefined" unicode="劢" horiz-adv-x="1024" vert-adv-y="918" d="M890-10l-8-10-9-10-10-8-11-7-12-6-12-4-12-4-14-1-13-1v32L682-13V3H789l8 1 6 1 7 1 5 2 5 3 5 3 5 4 4 4 4 5 5 7 8 19 9 28 8 36 7 44 7 52 5 60 4 68 3 75 1 83 1 79H755l-4-83-10-94-16-86-21-79-26-71-33-65-38-56L563-5 513-45 458-76l-5 8 47 39 42 44 36 49 31 55 26 62 22 69 16 76 11 82 6 90 1 80H535v22H691V842l65-11 16-11-16-9V6e2H896l33 27 59-49-27-16-1-64-2-84-2-76-5-69-5-63-7-54-8-48-9-40-11-34L898 1l-8-11zM436 12 428 2 418-8l-10-8-11-8-11-6-12-4-13-3-14-2-12-1V-8L238 9V25h97 7l7 1 11 4 5 2 5 3 4 4 4 5 4 5 5 6 10 22 9 27 8 33 7 38 5 43 3 49 2 54v59l-2 64-1 17-2-1v43H256V491l-7-83-12-78-14-73-19-67-22-63-26-57-31-51L92-26 53-65l-7 7L75-14l26 48 23 51 20 56 16 61 14 65 10 71 7 75 3 81 1 84V734H60v22H458l54 54 65-54V734H259V578l-2-53H426l32 27 59-49-26-15 3-42 1-65V320l-1-56-4-52-5-46-7-42-10-38-11-33-14-29-7-12z"/><glyph glyph-name="undefined" unicode="劥" horiz-adv-x="1024" vert-adv-y="918" d="M883-9l-8-10-9-10-10-9-11-7-12-6-12-4-12-4-14-1-13-1v32L674-13V3H782l7 1 7 1 12 3 5 3 4 3 4 4 4 4 5 5 3 7 9 19 8 28 8 36 7 44 6 52 4 60 4 68 3 75 1 83 1 79H764l-4-83-11-94-17-87-23-79-29-72-36-64-42-56L554-5 501-45 441-76l-4 8 51 39 47 44 39 50 35 55 29 62 23 69 18 75 13 83 7 89 1 80H560v22H7e2V842l65-11 16-11-16-9V6e2H884l32 27 59-49-26-16-1-64-2-84-2-76-4-69-5-62-6-54-8-48-8-40-11-34L890 3 883-9zM508 127l32 134h11L540 127l19-13 13-19-13-20-19-13H452l-14 1-14 3-13 4-11 7-12 8-8 11-7 13-4 12-3 14v13V530H217V320l-4-59-7-55-10-51-13-47-16-43-18-40-21-35-25-31L76-66 46-87l-6 9L61-52 80-23 98 8l14 34 12 38 11 40 8 45 6 48 3 53 1 55V584l64-32H366l32 26 59-48-27-21V148l1-6v-5l1-3 2-2v-1l1-1h2l3-2 5-1h7 56zM50 664v22H266V847l65-10 16-11-16-10V686h91l53 54 65-54V664H50z"/><glyph glyph-name="undefined" unicode="劧" horiz-adv-x="1024" vert-adv-y="918" d="M882-11l-8-11-9-9-11-8-10-7-12-5-12-4-13-4-13-1-13-1v32L673-13V3H781l7 1 7 1 12 3 6 3 4 3 5 4 9 9 5 7 9 19 9 28 9 36 8 44 7 52 5 60 4 68 3 75 2 83 1 79H739l-4-83-11-94-16-86-22-80-29-71-34-65-41-56L536-5 483-45 425-76l-4 8 50 39 44 44 39 50 33 55 28 62 23 69 18 75 11 83 7 89 1 80H508v22H675V842l64-11 17-11-17-9V6e2H893l32 27 59-49-27-16V498l-2-84-3-76-5-70-5-62-7-54-9-48-10-41-12-35L890-1l-8-10zM152-21V-5h86l6 1h5l3 1 2 1 1 1 1 1 1 2 1 3 1 5v7V286H44v22H259V516H66v21H259V735l-36-5-51-6-54-6-57-4-2 10 246 65 75 23 33 12 50 20v1-1l5 2 3-9 47-41 1-16-21 8-6-2-29-9-68-17-38-8-33-6V537h75l54 54 64-54V516H324V308h97l53 53 65-53V286H324V17L323 3l-2-13-5-14-7-11-8-11-11-9-12-7-13-4-14-3H238v32L152-21z"/><glyph glyph-name="undefined" unicode="动" horiz-adv-x="1024" vert-adv-y="918" d="M885-12l-9-10-9-9-10-8-11-7-12-6-12-4-13-3-13-1-13-1v32L675-13V3H783l7 1 7 1 7 1 5 2 6 3 5 3 5 4 5 4 4 5 4 7 10 19 10 28 9 36 8 44 7 52 6 60 4 68 3 75 2 83 1 79H736l-4-83-10-94-17-87-23-79-30-72-36-64-42-56L527-5 472-45 413-76l-5 8 52 39 47 44 40 50 34 55 29 62 24 69 18 75 13 83 7 89 1 80H498v22H673V842l64-11 16-11-16-9V6e2H898l32 27 59-49-26-16-1-64-2-84-3-76-5-70-6-62-7-55-9-48-10-41-12-35L893-1l-8-11zM429 145l-5 22-8 21-146-57L91 67 84 47 70 60 42 119l10 3 81 18 56 197 19 73 17 77H50v22H377l53 53 65-53V487H229l57-24 13-14-20-6-29-85-28-73-32-74-32-65 189 45 49 11 14 3-13 28-11 22-13 23-46 73 7 7 47-38 20-21 19-21 32-44 13-23 12-23 10-24 9-24-4-24-19-15-24 4-15 19-5 21zM404 788l65-54V713H95v21H351l53 54z"/><glyph glyph-name="undefined" unicode="劮" horiz-adv-x="1024" vert-adv-y="918" d="M881-12l-9-11-9-8-11-8-10-7-12-6-13-4-12-3-13-1-13-1v32L671-13V3H779l7 1 7 1 13 3 5 3 5 3 5 4 4 4 5 5 5 7 10 19 9 28 10 36 8 44 7 52 6 60 4 68 4 75 2 83v79H730l-4-83-11-94-17-87-24-79-30-72-36-64-43-57L517-6 462-45 401-76l-4 8 53 40 47 43 41 50 35 55 30 62 24 69 18 75 13 83 7 89 1 80H488v22H666V842l65-11 16-11-16-9V6e2H895l33 27 59-49-27-16-1-64-2-84-3-76-5-70-6-62-7-55-9-48-11-41-12-35L889-2l-8-10zM412 48l-9 24-22 46-27 47-14 24-48 70-9-40-18-59-23-53-29-48-33-43-37-37-43-31L53-76l-4 8L88-35 123-1l30 39 26 42 21 46 17 50 14 55 8 59 5 64v20H46v22H245v27V632H151l-9-26-14-36-16-33-17-31-19-28-20-25-9 4 22 62 20 65 9 35 8 36 7 39 7 40 4 42 5 43 1 12 63-20 15-12-19-9-4-23-9-43-10-42-8-28h87V853l64-11 16-11-16-10V654h59l54 53 65-53V632H309V423l-1-27h77l54 53 64-53V374H307l-1-24-9-68v-1l32-26 43-42 38-44 17-23 30-47 14-24V50L454 32l-24-1-18 17z"/><glyph glyph-name="undefined" unicode="劰" horiz-adv-x="1024" vert-adv-y="918" d="M866-16l-9-9-10-8-11-8-11-6-12-5-12-4-13-3-13-2H763v32L655-13V3H763l7 1 8 1 12 3 6 3 6 3 6 4 5 4 5 5 5 6 12 20 12 28 11 36 9 44 9 52 7 61 5 67 4 75 3 83v79H691l-4-84-13-94-20-87-27-79-35-72-42-64-49-57L445-6 381-46 311-76l-3 9 63 39 56 44 48 50 42 55 35 62 28 69 22 75 15 82 8 89 2 80H414v22H628V842l64-11 16-11-16-9V6e2H895l33 27 59-49-27-16-1-64-2-84-4-77-6-70-7-62-9-56-11-48-12-42-15-35L874-6l-8-10zM243 860l59-26 13-15-20-6-17-38-29-59-23-40-19-29H332l32 27 59-49-27-21V81L332 48V91H147V27L82-5V679l65-32h46l21 82 4 21 6 21 4 20 5 21 7 34h-1l4 14zm89-494H147V113H332V366zm0 259H147V388H332V625z"/><glyph glyph-name="undefined" unicode="劲" horiz-adv-x="1024" vert-adv-y="918" d="M906 8 897-2l-9-9-11-7-11-7-12-5-12-4-13-3-13-2-13-1V-8L696 9V25H803h8l7 1 13 4 5 2 6 3 5 4 5 5 5 5 4 6 2 5 4 18 5 28 5 39 5 47 4 56 4 66 4 74 4 83 3 81H744L728 417 707 309l-27-93-35-79-44-68-55-54-65-43-78-32-3 9 71 40 57 47 45 54 36 64 28 76 21 89 16 105 11 120 1 8H534v21H687l6 109 5 151 1 17 64-15 16-11-18-9-7-137-9-105H901l32 27 60-48-27-17h-1l-2-66-4-84-4-75-4-66-9-106-6-41-5-32-7-25-10-22-8-10zM84-42 58 17 259 59V331H82v22H388l54 53 65-53V331H324V72L429 92l53 10 55 8 3-9L436 65 105-36 98-56 84-42zM98 788H388l4 5 1-1 28 23 59-48-27-17-15-6-20-32-32-47-35-45-19-21 24-7 47-19 41-22 36-25 16-14 15-14 6-23-11-22-24-6-22 11-8 13-23 27-29 28-35 28-42 30-3 1-46-46-42-37-44-34-46-31-50-27-51-23-5 8 89 66 41 35 39 36 37 38 34 41 32 42 30 45 28 46 12 23H98v21z"/><glyph glyph-name="undefined" unicode="劳" horiz-adv-x="1024" vert-adv-y="918" d="M773-8 752-23 730-35l-12-5-11-4-12-2-13-2-12-2-13-1v33L550-2V14H657l8 1 16 2 15 4 7 3 14 7 14 10 8 9 8 13 9 17 7 22 7 26 5 30 5 35 3 39 2 42 1 36H509l-31-72-39-65-46-58-54-52-62-44-70-37-77-30L45-71l-2 9 79 33L194 8l63 40 55 46 47 51 38 55 32 61 18 49H141v21H455l15 66 9 76 1 13 63-18 15-12-18-9-10-62-15-54H786l32 27 60-48-27-16-1-1V272l-3-45-3-41-5-38-6-34-8-31-10-27-11-25-15-21L773-8zM148 551H894l3 4 1-1 28 23 59-48-27-16-18-8-39-50-44-50-35-36-8 6 59 120 14 32 1 2H149V510l-2-30-4-28-6-25-9-24-11-22-14-19-16-17-24-5-21 12-6 24 13 21 11 7 11 10 10 14 10 17 9 19 8 24 7 26 6 30 5 33 5 36h10l4-36 3-26zM630 867l65-11 16-11-16-10V739H861l54 53 65-53V717H695V616l-65-33V717H394V616l-65-33V717H44v22H329V867l65-11 16-11-16-10V739H630V867z"/><glyph glyph-name="undefined" unicode="劶" horiz-adv-x="1024" vert-adv-y="918" d="M887-9l-8-11-9-10-10-8-11-7-12-6-12-4-12-4-14-1-13-1v32L679-13V3H786l8 1 6 1 11 3 6 3 9 7 4 4 8 12 9 19 8 28 8 36 7 44 6 52 5 60 4 68 3 75 1 83 1 79H755l-3-83-10-93-15-87-20-78-27-72-31-64-38-57L569-5 521-45 467-76l-4 8 45 39 39 44 35 49 31 55 25 62 20 69 16 75 11 83 6 90v80H542v22H692V842l64-11 16-11-16-9V6e2H890l32 27 59-49-27-16V498l-2-84-2-76-5-69-5-62-6-55-8-47-8-41-11-34L894 2 887-9zM112 772l56-28 106 41 125 46 53 22h1l4 2 3-9 49-42 1-16-22 9-40-12-96-25-1e2-21-35-6-36-5-4-1V584H415l54 54 65-54V562H177V423l-3-67-5-63-7-59-9-56-11-51-14-48-15-44L94-4 73-39 50-69l-8 5L55-30 67 7 79 46 89 89l8 46 6 50 5 54 3 58 2 61-1 65V772zM216 444l65-32H436l32 27 59-49-27-21V84L436 52v53H281V41L216 9V444zm220-54H281V127H436V390z"/><glyph glyph-name="undefined" unicode="劷" horiz-adv-x="1024" vert-adv-y="918" d="M296 368l-2-57 173 36 60 11 2-10-111-40-128-43-3-29-12-59-16-54-21-48-25-43L183-5 149-35 110-60 67-76l-3 9L99-42l30 28 27 32 22 35 18 41 15 44 11 50 8 55v3L73 196l-6-20-15 13-27 59 208 49v6l-1 66v91H82v22H232V643H39v21H307l67 132 21 47 3 5 53-37 9-18H438l-33-41-42-49-34-34-5-5h90l44 49 54-49V643H297V482h59l54 53 64-53V460H297V369l-1-1zM868-11l-8-10-9-9-11-8-10-7-12-6-12-4-13-4-13-1-13-1v32L659-13V3H767l7 1 7 1 6 1 6 2 5 3 5 3 5 4 4 4 4 5 5 7 9 19 9 28 8 36 7 44 7 52 5 60 5 68 3 75 1 83 1 79H729l-4-83-10-94-16-86-22-79-27-72-34-64-39-57L531-5 480-45 424-76l-4 8 48 39 42 44 38 49 32 56 27 62 22 68 17 76 12 83 6 89 1 80H504v22H665V842l65-11 16-11-16-9V6e2H876l32 27 59-49-27-16V498l-2-84-3-76-4-70-6-62-7-54-8-48-9-41-12-34L876 1l-8-12zM157 706l-3 14-4 14-5 14-5 13-13 28-17 28-11 13 6 7 15-10 15-9 14-11 12-11 13-12 11-13 20-29 9-15 7-16-3-24-19-16-24 3-16 18-2 14z"/><glyph glyph-name="undefined" unicode="劸" horiz-adv-x="1024" vert-adv-y="918" d="M868-11l-8-10-9-9-11-8-10-7-12-6-12-4-13-4-13-1-13-1v32L659-13V3H767l7 1 7 1 6 1 6 2 5 3 5 3 5 4 4 4 4 5 5 7 9 19 9 28 8 36 7 44 7 52 5 60 5 68 3 75 1 83 1 79H729l-4-83-10-94-16-86-22-79-27-72-34-64-39-57L531-5 480-45 424-76l-4 8 48 39 42 44 38 49 32 56 27 62 22 68 17 76 12 83 6 89 1 80H504v22H665V842l65-11 16-11-16-9V6e2H876l32 27 59-49-27-16V498l-2-84-3-76-4-70-6-62-7-54-8-48-9-41-12-34L876 1l-8-12zM36 39 253 78V272H77v22H253V449l65-10 16-11-16-10V294h68l54 53 64-53V272H318V90l106 19 108 17 3-9L431 81 282 37 144-1 80-16 72-35 59-22 36 39zm6 437v22H253V681H77v21H253V869l65-11 16-11-16-9V702h68l54 54 64-54V681H318V498h92l54 54 65-54V476H42z"/><glyph glyph-name="undefined" unicode="劽" horiz-adv-x="1024" vert-adv-y="918" d="M773-46l-11-5-11-4-24-6-12-2-12-2-12-1-12-1v33L571-18V-2H679l17 1 9 1 8 2 9 2 8 2 16 7 7 4 8 5 11 7 10 10 9 13 9 15 7 19 7 22 6 24 4 28 3 31 1 22H538l-31-52-42-53-49-47-55-41-61-35-68-27-74-21L77-76l-2 9 77 24 69 28 62 32 55 36 48 42 41 45 34 50 12 23H136v21H484l6 11 22 60 16 65 2 10 60-23 14-13-19-7-15-51-22-52H829l32 27 60-48-27-16-2-1v-9l-4-35-5-32-7-29-8-27-10-25-13-22L831-3 814-20 795-34 773-46zM729 351v16H843l4 1 4 1 1 1h1l1 1 2 5 1 5 1 7V865l64-11 16-11-16-9V388l-1-14-2-13-4-13-7-12-9-11-11-9-12-6-13-5-13-2-14-1v32L729 351zM280 504l-2 7-10 15-8 9-10 9-12 8-14 9-33 19-5 1-14-11-34-24-37-21-41-19-4 8 65 55 28 28 26 28 23 29 20 30 18 31 15 32 12 34 4 14H58v22H449l54 53 64-53V795H334l-14-36-17-36-17-29H445l33 27 59-48-27-17-8-3-10-33-25-52-30-48-36-44-43-39-49-35-53-31-60-26-66-21-71-16-2 9 67 26 60 28 54 31 48 33 42 36 35 38 29 41 24 44 18 46 8 33H271l-12-18-26-30-29-29-5-4 16-1 19-3 18-4 17-4 16-6 14-7 14-8 11-10 11-11 3-25-14-19-24-4-20 14zM630 818l65-11 16-11-16-9V445l-65-33V818z"/><glyph glyph-name="undefined" unicode="势" horiz-adv-x="1024" vert-adv-y="918" d="M784-42l-11-5-11-5-11-4-24-7-12-2-12-2-13-1H679v33L571-19V-3H687h9l9 2 8 1 9 2 8 3 16 6 8 4 18 12 10 10 9 12 9 16 8 18 6 21 6 24 4 28 3 30 1 22H538l-31-52-42-52-49-47-55-40-61-34-69-27-74-20L77-77l-2 9 77 24 69 27 62 32 55 36 48 40 41 45 35 49 11 23H136v21H484l6 11 22 59 16 64 2 10 60-24 14-14-20-6-14-49-22-51H829l32 27 60-48-27-17h-2V181l-4-33-5-32-7-28-8-27-10-24-13-22L831-5 814-22 795-35l-11-7zM90 360v16h82l5 1 3 1 1 1 1 1 2 1 1 4 1 5 1 7V540L90 508l-6-20-16 13-26 59 145 33V732H51v22H187V875l64-11 16-10-16-10V754h21l54 53 65-53V732H251V608l71 15 33 5 34 5 3-9-31-15-62-27-48-18V397l-1-14-2-13-4-13-7-12-9-11-11-9-12-7-13-4-13-2-14-1v33L90 360zM649 473l-13 16-17 16-20 16-6 5-17-31-32-43-38-38-45-32-50-28-55-21-62-16-3 9 57 26 50 28 43 31 37 33 30 37 24 39 16 36-26 16-104 54 3 9 42-9 38-10 35-12 24-9 4 13 7 49 1 54v2H396v22H572V872l64-11 16-11-16-9V735H773l33 27 59-49-27-21V397v-5l1-4 1-1v-2l2-1 2-2 3-1 5-1 7-1h63l30 113h11L952 379l17-12 12-18-12-17-17-12H859 845l-13 3-12 3-12 7-11 8-9 11-7 11-5 13-2 14-1 13V713H636v-2l-5-60-11-56-9-24 16-8 25-15 22-16 20-18 17-18 6-24-12-21-24-6-21 12-11 16z"/><glyph glyph-name="undefined" unicode="勀" horiz-adv-x="1024" vert-adv-y="918" d="M228 319l63-17 15-12-18-9-5-35-11-52-14-49-17-45-21-41-24-37-27-33-31-29-34-23L68-81l-5 8L92-47l26 28 24 30 20 33 17 36 15 38 13 42 9 46 7 49 3 47 2 17zM881-9l-8-10-8-10-11-9-10-7-12-6-12-4-13-4-13-1-13-1v32L673-13V3H781l7 1 7 1 11 3 5 3 5 3 4 4 4 4 8 12 8 19 9 28 8 36 6 44 6 52 5 60 4 68 2 75 2 83 1 79H753l-3-83-10-93-15-86-20-79-25-72-31-64-37-57L571-5 523-45 471-76l-5 8 44 39 39 44 34 48 29 56 25 62 20 68 15 76 10 83 6 90 1 80H544v22H689V842l65-11 16-11-16-9V6e2H883l32 27 59-49-27-16-1-64-1-84-3-76-4-69-5-62-6-54-7-48-9-40-10-34L889 3 881-9zM283 19l57 26V315l64-11 17-10-17-10V76l175 87 5-8-57-49-56-42-78-54-52-32-3-22-17 10-38 53zm-2 839 64-11 16-10-16-10V718H453l54 54 64-54V697H345V557h97l32 27 60-49-27-21V304l-65-32v65H173V272l-64-32V589l64-32H281V697H55v21H281V858zM173 535V358H442V535H173z"/><glyph glyph-name="undefined" unicode="勂" horiz-adv-x="1024" vert-adv-y="918" d="M890-9l-8-10-9-10-10-9-11-7-12-6-11-4-13-4-14-1-13-1v32L682-13V3H789l7 1 7 1 12 3 5 3 4 3 5 4 4 4 4 5 4 7 9 19 8 28 8 36 7 44 6 52 4 60 4 68 3 75 2 83v79H760l-3-83-10-93-15-86-20-79-26-72-31-64-37-57L577-5 529-45 476-76l-5 8 45 39 39 44 34 48 30 56 25 62 20 68 15 76 11 83 6 90v80H550v22H696V842l65-11 16-11-16-9V6e2H892l32 27 59-49-26-16-1-64-2-84-2-76-5-69-4-62-6-54-8-48-8-40-11-34L897 2 890-9zM125 320l65-32H436l32 27 59-48-27-22V14L436-18V14H190V-24L125-56V320zm311-53H190V35H436V267zM281 847l64-10 16-11-16-10V681h56l54 53 65-53V659H345V432H466l54 53 64-53V410H345V341l-64-32V410H42v22H281V659H176l-15-33-15-29-16-29-18-27-19-26-21-25-8 5 45 118 10 31 18 61 14 63 7 33 2 10 61-24 13-14-19-7-15-46-12-32-3-7h96V847z"/><glyph glyph-name="undefined" unicode="勄" horiz-adv-x="1024" vert-adv-y="918" d="M881-9l-8-10-8-10-11-9-10-7-12-6-12-4-13-4-13-1-13-1v32L673-13V3H781l7 1 7 1 11 3 5 3 5 3 4 4 4 4 8 12 8 19 9 28 8 36 6 44 6 52 5 60 4 68 2 75 2 83 1 79H753l-3-83-10-93-15-86-20-79-25-72-31-64-37-57L571-5 523-45 471-76l-5 8 44 39 39 44 34 48 29 56 25 62 20 68 15 76 10 83 6 90 1 80H544v22H689V842l65-11 16-11-16-9V6e2H883l32 27 59-49-27-16-1-64-1-84-3-76-4-69-5-62-6-54-7-48-9-40-10-34L889 3 881-9zM417-32l-9-9-9-8-11-8-11-6-12-5-12-5-13-2-13-2H314v32L217-29v16h97l15 1 7 2 6 2 6 3 5 3 6 4 5 4 6 5 4 6 7 25 6 32 2 16H157l-7-67L83-3l33 338H41v22h77l27 277 55-35H420l32 27 59-49-26-16h-1l-3-78-4-95-2-31h18l33 38 43-38V335H474l-2-31-5-74-5-65-5-54h37l24 33 32-33V90H454l-3-25-7-36-7-28-11-23-9-10zm-8 367H180L159 111H392l6 59 5 64 5 74 1 27zM289 184l-3 14-4 13-4 12-6 12-6 12-14 23-9 11-11 9 4 8 14-6 15-5 14-8 13-9 12-10 12-12 11-13 9-15 9-15 8-17-3-25-19-15-24 3-16 18-2 15zM420 577H204L183 357H410l6 128 4 92zM303 430l-2 11-2 12-4 11-4 12-5 11-5 10-14 22-10 8 4 8 13-6 13-5 13-7 12-8 11-10 11-11 9-12 9-14 8-14 7-16-4-24-20-14-24 3-15 20-1 13zM151 875l62-23 14-14-20-7-5-21-13-41-14-39v-1H429l53 54 65-54V707H166l-22-51-18-35-19-33-21-31-23-30-25-26-8 5 45 98 27 70 12 36 20 75 8 39 9 51z"/><glyph glyph-name="undefined" unicode="勆" horiz-adv-x="1024" vert-adv-y="918" d="M885-10l-8-10-9-10-10-8-11-7-12-6-12-4-13-4-13-1-13-1v32L677-13V3H784l8 1 6 1 6 1 6 2 5 3 5 3 4 4 5 4 4 5 4 7 9 19 8 28 9 36 7 44 6 52 5 60 5 68 2 75 2 83 1 79H749l-3-83-10-94-16-86-21-79-27-71-33-65-38-56L557-5 507-45 452-76l-5 8 48 39 41 44 36 49 31 55 27 62 21 69 16 76 12 82 6 90v80H530v22H686V842l64-11 16-11-16-9V6e2H891l32 27 59-49-26-16h-1l-1-64-1-84-3-76-4-69-6-63-6-54-8-48-9-40-11-34L893 1l-8-11zM455 328h-1l6 9 53-38 8-17H5e2l-26-30-29-32-33-31-18-15-17-12 34-30 40-42 37-44 5-24L480 1 456-4 435 9 406 54 377 93 290 45 190-1 101-38 96-58 80-47 49 11l68 22V756l64-32h83V858l64-11 16-10-16-10V724h82l33 26 59-48-27-21V380l-65-33v33H181V53l158 51 25 7-95 111 6 8 25-13 24-14 40-30 58 91 19 35 14 29zM410 552H181V401H410V552zM181 702V573H410V702H181z"/><glyph glyph-name="undefined" unicode="勋" horiz-adv-x="1024" vert-adv-y="918" d="M286 471l64-11 16-11-16-9V310l-4-58-11-55-16-51-23-46-28-42-33-38-40-33-44-28-50-23L47-82l-4 9L93-46l43 29 37 31 32 34 26 36 21 39 16 42 11 45 6 48 1 52V471zM908 11 9e2 1 890-9l-10-8-10-7-12-6-13-4-12-3-13-2-13-1V-8L699 9V25H807h7l7 1 6 2 5 2 6 2 5 3 4 4 5 5 4 5 4 6 5 23 5 28 4 39 4 47 3 56 4 66 3 74 3 83 3 81H766L752 417 735 310l-24-93-30-79-39-68-48-55-57-43-67-32-5 9 60 40 49 46 39 54 30 65 24 76 18 89 14 104 9 121v8H581v21H709l5 109 5 151 1 17 63-15 16-11-17-9-7-137-7-105H894l32 27 60-48-27-17-3-66-4-84-3-74-4-66-3-57-4-49-5-40-4-32-5-25-8-20-8-11zM468 9 451 37 427 64 398 91l-35 28-20 15-22 13 4 9 49-15 23-8 21-10 40-22 17-12 17-14 15-14 14-15 4-24L513 1 488-4 468 9zM111 562l64-32H444l32 27 59-48-27-22V175l-64-32V509H175V127L111 95V562zm11 285 64-32H428l32 27 59-49-27-21V621l-64-32v43H186V616l-64-32V847zm306-54H186V654H428V793z"/><glyph glyph-name="undefined" unicode="勎" horiz-adv-x="1024" vert-adv-y="918" d="M890-11l-9-10-9-9-10-8-11-7-12-6-12-4-12-4-14-1-13-1v32L681-13V3H788l8 1 6 1 7 1 5 2 6 3 4 3 5 4 4 4 5 5 4 7 9 19 9 28 8 36 8 44 6 52 6 60 4 68 3 75 2 83v79H750l-4-83-10-94-15-86-22-79-28-72-34-64-39-57L553-5 502-45 446-76l-5 8 48 39 43 44 38 49 32 56 27 62 22 68 16 76 12 83 7 89 1 80H525v22H687V842l64-11 16-11-16-9V6e2H897l33 27 59-49-27-16-1-64-1-84-3-76-5-70-5-62-7-54-8-48-10-41-11-34L897 1l-7-12zM43 34l10 2 27 4 31 5 35 6 81 12 11 2V224H71v21H238V385l64-11 16-11-16-9V245h59l54 54 65-54V224H302V76L437 97l63 8 2-9L385 60 88-21 80-40 67-27 43 34zM450 409l30 113h10L480 409l17-12 12-17-12-18-17-12H404l-13 1-13 2-13 4-12 6-11 8-9 11-6 12-5 12-3 14-1 13V557H231l-6-33-9-34-12-33-15-29-18-28-21-25-23-23-26-20-29-18-31-13-5 8 46 44 19 23 17 23 14 25 12 26 9 27 7 28 5 29 2 23H50v21H238V718H77v22H238V869l64-11 16-11-16-9V740h65l54 53 64-53V718H302V578h92l53 54 65-54V557H383V427l1-5v-3l1-2 1-2 1-1 2-2 3-1 5-1 7-1h46z"/><glyph glyph-name="undefined" unicode="勏" horiz-adv-x="1024" vert-adv-y="918" d="M135 331l65-32H416l32 27 59-49-27-21V19L416-13V19H2e2V-45L135-77V331zM885-9l-8-10-9-10-10-9-11-7-12-6-12-4-13-4-13-1-13-1v32L677-13V3H784l7 1 7 1 11 3 5 3 5 3 4 4 5 4 4 5 4 7 8 19 8 28 8 36 7 44 6 52 5 60 4 68 3 75 1 83 1 79H755l-4-83-9-93-15-86-20-79-26-72-31-64-37-57L571-5 523-45 471-76l-5 8 44 39 40 44 34 48 30 56 24 62 21 68 15 76 11 83 5 90 1 80H544v22H691V842l65-11 16-11-16-9V6e2H887l32 27 59-49-27-16V498l-2-84-3-76-4-69-5-62-6-54-7-48-9-40-11-34L892 2 885-9zM416 277H2e2V41H416V277zm-3 406 59-28 12-15-21-5-54-114-29-51-26-42h87l54 54 64-54V406H56v22H339l15 53 40 131 12 43 4 20 3 8zM191 476l-6 42-4 20-9 39-6 19-13 37-7 18-8 17 7 6 29-28 13-16 13-18 11-18 11-19 9-21 8-21 8-22 7-23-5-25-21-13-24 5-13 21zM75 702v22H275V863l65-10 16-11-16-10V724h81l54 53 65-53V702H75z"/><glyph glyph-name="undefined" unicode="勓" horiz-adv-x="1024" vert-adv-y="918" d="M901-8l-8-11-9-9-10-9-11-8-11-6-13-4-13-4-12-1-14-1v32L693-13V3H8e2l7 1 7 1 11 3 10 6 4 4 8 9 4 7 7 19 8 27 8 37 6 44 6 52 4 60 4 68 3 75 2 83v79H777l-4-83-9-93-14-86-19-79-25-72-29-64-36-57L601-5 556-45 506-76l-6 8 42 38 37 44 32 49 28 56 24 62 19 68 15 76 10 83 6 90v80H575v22H713V842l65-11 16-11-16-9V6e2H899l32 27 59-49-26-16-1-64-2-84-2-76-4-69-5-61-6-55-7-48-8-40-9-34L908 3 901-8zM277 476l61-23 13-14-22-8-13-28-27-54-9-13-1-3H432l32 27 59-48-27-22V-2L432-34V-2H178V-39L113-72V366l65-33h88l1 7 5 61v13l1 14 2 33h-1l1 5 2 10zM432 158H178V20H432V158zm0 154H178V180H432V312zM31 460l10 4 53 17V860l64-11 16-10-16-10V710h61l34 37 43-37V688H158V503l89 29 68 21 3-9-59-38-82-45-92-47-4-20-16 10-34 56zM485 802l6 7 46-45 6-19-22 4-50-44-18-14-36-27-19-12-10-6V514v-4l1-4 1-2 1-1 1-1 5-3 5-1 7-1H517l29 113h11L546 497l18-12 12-17-12-18-18-12H409l-13 1-14 1-12 5-12 6-11 8-9 11-7 12-4 12-3 13-1 14V860l65-11 16-10-16-10V680l88 109 9 13z"/><glyph glyph-name="undefined" unicode="勔" horiz-adv-x="1024" vert-adv-y="918" d="M897-9l-8-10-8-9-10-9-11-8-11-6-13-4-13-4-13-1-13-1v32L689-13V3H797l7 1 7 1 11 3 5 3 4 3 5 4 4 4 4 5 3 7 9 19 8 27 7 37 7 44 5 52 5 60 4 68 3 75 1 83 1 79H772l-4-83-9-93-14-86-20-79-25-72-30-64-35-57L594-5 547-45 496-76l-4 8 42 38 38 44 33 49 28 56 24 62 20 68 15 76 10 83 5 90 1 80H567v22H708V842l65-11 16-11-16-9V6e2H897l32 27 59-49-27-16V498l-2-84-2-76-4-69-5-62-6-54-7-48-9-40-10-34L904 3 897-9zM127 43V-22L67-51V626l60-29H227l2 5 3 19 4 20 8 39 15 79 1 1H37v21H432l54 54 65-54V760H324l-14-37-17-39-28-54-10-18-11-15H461l30 27 56-49-26-19V43L461 13V43H127zm66 532H127V65h66V575zM336 227H252V65h84V227zM461 575H395V65h66V575zM336 401H252V249h84V401zm0 174H252V423h84V575z"/><glyph glyph-name="undefined" unicode="勚" horiz-adv-x="1024" vert-adv-y="918" d="M894 8 885-2l-9-8-11-8-11-7-11-5-13-4-13-3-13-2-12-1V-8L684 9V25H792h7l7 1 12 4 6 2 6 3 5 4 4 5 5 5 5 6 5 22 5 29 5 38 3 48 4 56 4 65 5 158 3 81H747L733 423 718 319l-19-91-23-80-29-68-36-61-41-53-49-47-7 7 40 53 33 55 28 60 22 67 18 77 14 88 11 102 8 119 1 5H550v21H690l5 110 5 155v12l64-15 16-11-17-9-7-135-8-107H883l32 27 59-48-27-17h-1l-1-66-3-84-3-74-3-66-4-58-4-49-5-40-5-33-6-25-10-21-8-11zM458-41 439-22 411-1 375 23 306 62l-9 5-18-27-28-28-31-24-37-21-41-17L96-63 45-73l-2 9L89-44l41 20L165-2l30 22 25 25 18 24 14 27 9 27 5 29 1 31V351l64-11 16-11-16-10V183l-4-40-11-38-11-25 36-8 25-7 47-15 40-16 17-8L5e2 8l10-23-7-23-22-10-23 7zM109 441l65-32H425l32 27 59-48-27-22V106L425 74V388H174V98L109 66V441zM402 856l65-10 16-11-16-10V741h23l34 37 43-37V719H467V588l-65-32v43H318V583l-65-32V719H174V511H452l44 48 54-48V489H174l-43-43-54 54 32 32V719H47v22h62v83l65-11 16-10-16-10V741h79V856l65-10 16-11-16-10V741h84V856zm0-137H318V620h84v99z"/><glyph glyph-name="undefined" unicode="勜" horiz-adv-x="1024" vert-adv-y="918" d="M304 9V1l49 55 33 42 28 47 12 24 20 47 5 12 30-18v86l-15-1-11-17-13-16-14-15-15-15-16-14-17-13-18-12-39-22-6 9 16 15 26 32 12 17 20 31 8 16 7 16 7 16 3 11 5 12 56-32 4-6v50H331l-27-21V9zM903-6l-8-12-8-9-10-10-11-7-12-7-11-4-13-4-14-1-13-1v32L728-13V3h75l7 1 7 1 6 1 5 2 8 5 4 4 8 10 3 7 8 18 7 28 7 37 6 44 4 52 5 60 3 68 3 75 1 83v79H791l-3-83-8-93-12-85-16-79-21-72-25-64-29-57L643-4 605-44 563-76l-6 8 33 38 30 43 26 49 22 55 19 63 16 68 12 76 7 84 5 89v81H608v22H727V842l65-11 16-11-16-9V6e2H895l33 27 59-49-27-16-1-64-1-84-2-76-4-69-4-61-5-54-7-48-7-40-9-33L909 5 903-6zM406-24V-8h53l7 1 5 1 4 2 3 2 1 5 1 5 1 6V148l-22-32-19-24-19-22-21-21-22-18-23-16L330 1 304-11l-1 2-2-9-4-13-7-13-9-10-10-9-13-7-13-4-13-2-14-1v32L143-29v16h75l7 1 5 1 5 1 2 2 1 5 1 5 1 7V143l-17-26-19-24-19-23-22-22-24-20L114 9 87-8 58-22l-6 8L95 31l38 45 16 22 28 47 11 24 11 25 8 25 2 8 31-16v83l-15-1-29-36-16-16-16-14-17-13-18-12-18-10-38-15-5 8 15 13 26 28 13 15 22 31 10 16 19 35 6 14h-1l6 10 54-35 2-4v50H85v22H240l32 26 57-46v20H481l32 26 59-48-27-21V14L544 1l-2-14-4-13-7-12-9-11-11-9-12-7-13-4-13-2-14-1v32L406-24zm50 464-18 16-21 54-4 9-82-25-147-39-26-8-3-1-8-19-14 14-23 61 10 2 53 7 28 4h4l43 111 29 88 5 13 57-30 12-16-21-4-13-26-38-69-41-63 54 7 33 3 34 3 35 2h12l-25 46-21 34-13 17 7 7 35-25 16-14 15-14 29-31 12-17 25-35 10-19 1-24-17-19H456zM179 785l59-27 13-14-20-6-18-40-15-29-17-27-18-25-21-24-22-22-24-20-25-19-28-16-6 8 39 46 18 24 31 48 13 26 12 26 10 26 9 28 7 28 3 9zM527 545l-23 22-40 46-17 25-15 25-13 27-10 27-8 28-5 29-1 25H209v21H373l27 22 59-48-27-16-10-5 22-40 14-22 16-21 16-19 19-19 40-35 22-15 15-12-59-45z"/><glyph glyph-name="undefined" unicode="勡" horiz-adv-x="1024" vert-adv-y="918" d="M887-9l-8-10-9-9-10-9-11-8-11-6-13-4-12-4-13-1-14-1v32L679-13V3H786l7 1 7 1 11 3 5 3 5 3 4 4 4 4 4 5 4 7 8 19 8 27 7 37 7 44 6 52 5 60 3 68 3 75 2 83v79H761l-3-83-9-93-15-86-20-79-25-72-30-64-35-57L583-5 537-45 486-76l-5 8 42 38 38 44 33 49 29 56 23 62 20 68 15 76 10 83 5 90 1 80H557v22H697V842l65-11 16-11-16-9V6e2H886l32 27 60-49-27-16-1-64-1-84-3-76-4-69-5-62-6-54-7-48-8-40-10-34L894 3 887-9zM162-24V-8h86l7 1 5 1 5 2 1 1v1l1 1 1 4 2 5V245H55v22H425l54 53 65-53V245H334V14 1l-3-14-4-13-7-12-9-11-10-9-13-7-13-4-13-2-14-1v32L162-24zM140 194l59-28 12-15-20-5-23-45-13-22-29-41-16-20L92-1 52-37l-7 6L82 37 93 59l18 43 9 21 7 21 5 21 4 15 4 14zM457 72l-5 13-11 25-6 12-8 12-16 24-9 11-11 11 4 8 14-7 15-6 14-8 14-8 13-10 12-11 12-12 21-26 10-15 1-24-17-19H480L461 58l-4 14zM438 428l54-48V358H112v22H394l44 48zM141 475V459L81 430V705l60-29h69V786H57v21H423l54 54 64-54V786H389V676h69l29 27 57-49-27-19V464l-59-29v40H141zm69 179H141V497h69V654zm125 0H264V497h71V654zm123 0H389V497h69V654zM335 786H264V676h71V786z"/><glyph glyph-name="undefined" unicode="勥" horiz-adv-x="1024" vert-adv-y="918" d="M795-47l-12-6-22-8-23-7-11-2-24-4-24-1v33L571-26v16H679l18 1 18 2 17 4 8 3 18 6 18 11 9 7 9 10 8 12 7 14 6 16 5 20 4 22 3 24 1 16H539l-33-47-42-43-49-38L360-3 298-30 231-52 157-68 77-78 75-68l77 20 70 24L284 3l55 30 49 34 41 37 34 41 8 13H136v21H485l6 10 22 48 13 47 4 14 60-25 13-14-20-6-14-39-18-35H829l32 27 60-48-27-17h-2v-4l-4-29-5-26-7-25-8-23-11-21L845-5 830-22 814-36 795-47zM947 653l-22 10-32 39-18 17-39-7-113-15-142-16-40-4-36-4-33-4h-7l-10-17 61-31H650v66l65-11 16-10-16-10V621H850l32 27 59-48-27-22V477l-64-32v32H715V374l108 5 26 1-20 18-39 30-21 15 4 9 50-18 43-19 20-11 17-11 17-12 16-12 14-13 12-14 5-24-14-20-24-5-20 13-7 12-8 13-9 13-12 12-10 11-93-19-104-18-96-15-129-18-17-2-10-18-12 15-16 63 11 1 39 2 84 4 130 8V477H516V461l-65-32V654l2-1-10 13-14 64 11 1 29-1h33l36 1h14l83 112 19 30 2 2 48-43 6-19-22 3-41-38-52-43-6-4h33l48 1 106 1h59l24-1-29 24-39 28-21 14 3 9 50-15 23-8 42-20 38-21 17-12 31-25 7-24-10-22-24-7zM314 335l-18-19-10-8-11-7-11-6-12-5-13-3-12-3-13-2H201v32l-75 16v16h75l8 1 7 1 14 3 6 3 6 3 6 4 5 4 11 11 5 7 5 9 5 12 5 14 3 17 4 20 3 22 3 25 2 26 1 17H135l-4-21-69-20 44 226 49-38H295V803H61v22H295l33 27 59-49-27-21V660l-65-32v43H160L140 567H3e2l32 27 60-49-27-16-2-1v-3l-2-29-3-27-3-24-4-23-6-21-6-19-7-18-8-15-10-14zM650 6e2H516V499H650V6e2zm2e2.0H715V499H850V6e2z"/><glyph glyph-name="undefined" unicode="勨" horiz-adv-x="1024" vert-adv-y="918" d="M887-8l-8-11-9-9-10-9-11-8-11-6-13-4-12-4-13-1-14-1v32L679-13V3H786l7 1 7 1 6 1 5 2 5 3 4 3 4 4 5 4 3 5 4 7 8 19 8 27 7 37 7 44 5 52 5 60 3 68 3 75 1 83 1 79H764l-4-83-9-93-14-86-19-79-24-72-30-64-34-57L590-4 545-45 495-76l-5 8 41 38 37 44 32 49 28 56 23 62 19 68 14 76 10 83 6 90v80H564v22H7e2V842l65-11 16-11-16-9V6e2H884l32 27 59-49-26-16-1-64-2-84-2-76-4-69-4-61-6-55-7-47-8-40-10-34L893 4 887-8zM508 141l-9 17-11 18-13 18-15 18-17 19-65 60 10-32 9-46 5-48V115l-5-52-9-54-4-13-5-13-7-11-8-11-11-9-10-7-13-6-13-4-13-2-14-1v33L204-19V-3h86 7l6 1 4 1 4 2 3 2 5 5 2 4 2 6 14 55 8 46 4 46-1 43v2l-14-16-28-28-31-26-31-25-35-23-36-22-38-19L94 33 52 18l-4 9 73 49 65 49 56 51 25 28 22 27 21 29 19 29 7-5-13 46-1 2-25-25-51-45-27-21-28-20-29-17-30-16-31-15-31-12-5 9 101 84 46 44 44 48 36 48-6 12-12 19-60-41-70-38-38-19-42-17-5 8L190 418l51 45 22 21 19 21 8 10H188V477l-65-32V660L78 626 47 607l-6 7 89 105 37 51 32 50 29 55 53-35 10-17-21-2-21-30H365l32 27 59-49-27-16-18-8-21-22-23-21-26-21-11-7H477l32 27 59-48-27-22V515l-64-32v32H371l-26-30-22-20-37-31 16-15 29-36 23-38 14-29 16-7 11 15 97 143 2 3 49-43 6-18-23 3-39-37-47-38-45-33 22-11 27-16 25-16 23-16 20-18 18-18 16-18 15-20 12-20V127l-16-18-25-1-18 17-6 16zM294 653H188V537H294V653zm183 0H359V537H477V653zM361 769H232l-25-30-23-24-27-26 31-15H311l5 7 25 43 12 25 8 20z"/><glyph glyph-name="undefined" unicode="勩" horiz-adv-x="1024" vert-adv-y="918" d="M907-6l-7-11-9-10-10-10-10-7-12-7-12-4-13-4-13-1-13-1v32L7e2-13V3H808l7 1 6 1 6 1 5 2 5 3 3 2 5 4 4 5 3 5 4 7 7 18 7 28 7 37 6 44 5 52 4 60 3 68 2 75 2 83 1 79H794l-4-83-8-93-13-86-18-79-22-71-28-64-31-57L632-4 590-45l-7-5-9-16-23-6h-1l-6-4-6 8 2 2-11 5-8 12-22 24L468-1 450 12 382 49 355 62l3 9 29-5 28-5 27-7 24-7 23-9 21-10 20-10L548 6 564-6l15-14 1-4 29 37 30 50 25 55 22 62 17 69 13 76 9 83 5 90v80H607v22H730V842l65-11 16-11-16-9V6e2H9e2l32 27 59-49-27-16V498l-2-84-2-76-3-69-5-61-5-54-7-48-7-39-9-34L914 5 907-6zM234 89l44-48 3-19-21 6L224 4 180-20 130-42 73-63 42-72l-5 9L137 3l56 44 28 27 13 15zM122 488l65-32H450l32 27 60-49-27-21V115L450 83v32H187V99L122 67V488zM450 221H187V137H450v84zm0 107H187V243H450v85zm0 106H187V349H450v85zM430 873l65-11 16-10-16-10V769h29l33 37 43-37V747H495V632l-65-33v43H337V626l-64-32V747H180V559H463l44 48 54-48V537H180V521l-65-32V747H36v22h79V869l65-11 16-11-16-9V769h93V873l64-11 16-10-16-10V769h93V873zm0-126H337V664h93v83z"/><glyph glyph-name="undefined" unicode="勪" horiz-adv-x="1024" vert-adv-y="918" d="M908 4 893-18l-8-10-10-9-11-7-12-7-12-4-13-4-13-1-13-1v32L725-13V3h76l7 1 7 1 6 1 4 2 5 3 9 6 7 10 4 7 8 19 7 27 7 37 7 44 5 52 4 60 4 68 2 75 2 83v79H780l-4-83-8-93-11-86-17-78-21-72-25-64-30-57L630-4 590-44 547-76l-5 8 34 38 30 43 27 49 23 55 19 63 16 68 12 76 8 84 4 90 1 80H586v22H716V842l64-11 16-11-16-9V6e2H896l33 27 59-49-27-16-1-64-1-84-3-76-3-69-5-61-5-55-7-47-8-40-9-34L908 4zM388-25v15h83 5l4 1 3 1 1 2 1 1 1 2 1 4 1 6v7V288H130V-46L71-76V339l59-29H488l30 27 56-49-27-19V14 1l-2-12-4-13-5-11-8-11-9-8-11-7-12-5-12-2-13-1v29L388-25zM189 248l60-30H370l29 27 57-48-27-19V36L370 6V58H249V20L189-10V248zm181-51H249V79H370V197zM502 515l-12 15-28 29-34 30-63 48-17 11H276l-13-25-26-43-20-29 20-10H380l33 27 59-49-27-21V380l-65-32v32H237l-64-32V495l-24-25-33-30-35-26-38-22-6 8 30 30 29 31 27 33 26 35 23 37 1 1v6l2-1 19 33 21 42v1H46v22H224l27 68 2 6-47-6-42-3-43-1-44 1-1 10 124 28 39 10 74 23 35 13 66 28 31 16 6-12 40-37 1-18-21 9-33-14-36-13-75-21h-4l-15-40-21-47H453l54 54 65-54V648H386l14-4 25-11 46-23 21-12 38-27 16-14 16-15 7-24-11-22-23-7-22 12-11 14zm-122 4H237V402H380V519z"/><glyph glyph-name="undefined" unicode="勫" horiz-adv-x="1024" vert-adv-y="918" d="M541 356l-17 17-36 32-39 30-41 28-44 26V363l-65-32V496l-10-15-22-27-24-26-26-25-29-25-31-22-20-13 55-27H470l32 26 59-48-26-21V-6L470-39V-6H192V-44L128-76V337L87 313 49 295l-6 8 92 80 49 52 22 26 18 26 17 26 13 26 1 2H58v21H299V760l-25-4-44-6-46-5-47-3-49-1-1 9 220 57 77 25 70 25 28 11v1-1l5 2 4-9 46-41 1-16-21 9-43-14-37-10-38-9-35-8V562H513l44 49 53-49V541H364V509l7-2 25-5 26-8 25-9 48-23 46-27 44-31 10-22-8-24-23-10-23 8zM903-6l-8-11-8-10-10-10-11-7-11-6-12-5-13-4-13-1-14-1v32L696-13V3H803l7 1 7 1 6 1 5 2 8 5 4 4 4 5 7 12 7 18 8 28 6 37 6 44 5 52 4 60 3 68 3 75 1 83 1 79H790l-3-83-8-93-13-86-18-79-23-71-27-64-32-57L629-4 588-45 542-76l-6 8 37 38 34 43 29 50 25 55 21 62 17 69 13 76 9 83 5 90v80H604v22H727V842l64-11 16-11-16-9V6e2H895l32 27 59-49-27-16V498l-1-84-3-76-3-69-5-61-5-54-6-48-7-39-9-34L909 5 903-6zM299 146H192V15H299V146zm171 0H364V15H470V146zM299 294H192V168H299V294zm171 0H364V168H470V294zM180 612l-7 25-12 23-7 12-17 23-10 12-13 10 4 8 32-13 14-7 15-9 13-9 12-12 11-12 11-13 9-14 9-16-2-24-19-16-24 1-17 18-2 13zM483 743h-1l3 5 3 4 51-39 8-18-22 1-54-58-44-41-15-16-8 6 11 18 64 129 4 9z"/><glyph glyph-name="undefined" unicode="勬" horiz-adv-x="1024" vert-adv-y="918" d="M906-5l-7-12-9-10-10-9-10-8-12-6-12-5-13-4-13-1-13-1v32L710-13V3h97l7 1 6 1 11 3 4 3 4 2 4 4 3 5 4 5 3 6 7 19 7 28 6 37 6 44 5 52 4 60 3 68 2 75 1 83 1 79H798l-3-83-8-93-13-86-17-78-21-72-26-64-31-57L644-4 604-44 559-76l-5 8 35 38 32 43 27 49 24 56 20 62 16 68 13 77 8 83 4 90 1 80H619v22H734V842l65-11 16-11-16-9V6e2h96l32 27 59-49-27-16V498l-1-84-2-76-4-69-4-61-5-54-6-47-7-40-8-33L912 6 906-5zM420 383l5 6 46-46 4-19-20 4-39-35-61-51-45-33-16-11 21 1 48 2 51 3 55 3 27 1-29 38-15 14 6 8 18-12 18-9 16-9 29-21 25-21 11-11 10-11 8-12 1-25-17-18-24-1-18 17-6 19-5 11-7 12-7 12-4 5-34-7-105-21V-42L302-75V155L195 140l-67-8-7-1-12-18-10 16-13 64 10 1 29-1h31l35 1 38 1 35 1 27 34L394 350l26 33zM196 130l54-36 9-17-22-1-12-15-14-15-30-30L164 2 146-11 127-24 86-47l-6 8L96-23l41 51 23 33 10 16 9 16 17 37zM514-11 508 2l-7 13-17 27-21 29-26 30-15 14 6 8 37-19 17-10 17-11 30-24 13-12 12-13L577 6l1-25-15-19-25-2-19 16-5 13zM312 482h-1l6 8 49-43 6-19-23 3-58-48-32-23-17-12 16-10 23-18 21-22 6-23-14-21-23-5-21 13-12 22-13 22-22 32-16 20-10 8 5 8 12-5 14-5 13-5 8-4 65 96 15 24 3 7zM552 327l-28 30-26 32-24 34-21 36-18 37-12 29H262l-7-14-33-54-38-49-42-44-46-39-49-33-5 7 41 41 38 43 35 47 31 50 24 45H48v21H221l18 43 21 61 2 10H158v21H268l9 34 14 69 10 67 2 17 63-20 14-13-18-8-11-55-18-72-6-19h66l53 54 65-54V660H4e2l35-72 19-36 3-6h46l54 54 64-54V525H470l26-40 23-30 25-28 26-26 27-25 43-34-58-44-30 29zM388 660H320l-9-27-26-63-12-24H415l-10 30-11 43-6 41zM206 851l55-34 10-17-21-2-16-25-16-21-32-40-36-36-20-16-21-14-22-14-6 7 43 60 26 40 23 41 11 22 19 43 3 6zM522 690l-6 17-16 34-10 17-20 32-24 33-14 14 6 8 37-21 17-12 32-28 14-15 14-16 13-18 23-37V673l-17-18H546l-18 18-6 17z"/><glyph glyph-name="undefined" unicode="勭" horiz-adv-x="1024" vert-adv-y="918" d="M889-9l-8-10-9-10-9-9-11-7-12-6-12-4-13-4-13-1-14-1v32L681-13V3H788l8 1 7 1 11 3 5 3 4 3 5 4 4 4 4 5 4 7 8 19 9 27 7 37 7 44 5 52 5 60 4 68 3 75 1 83 1 79H759l-3-83-11-94-16-86-22-79-28-72-35-65-40-56L558-5 507-45 450-76l-5 8 49 39 44 44 38 50 33 55 28 62 22 69 17 75 12 83 6 89 1 80H556v22H695V842l65-11 16-11-16-9V6e2H890l32 27 59-49-27-16V498l-2-84-2-76-4-69-5-62-6-54-7-48-9-40-10-34L896 3 889-9zM65-60 46 3 201 17l57 5v89H74v21H258v97H168V213l-65-32V541l65-32H414l32 26 59-48-27-21V218l-64-32v43H323V132h66l54 54 64-54V111H323V27l18 1 91 6 45 1h44l1-9-43-11L391-4 208-37 87-57 78-75 65-60zM258 358H168V251h90V358zm156 0H323V251h91V358zM258 487H168V380h90V487zm156 0H323V380h91V487zM75 726v22H261V866l64-11 17-11-17-10V748h67l54 54 64-54V726H385l53-30 11-17-25-3-34-42-34-39-2-3h91l44 49 54-49V571H43v21H339l5 10 21 63 7 25 3 12 2 10 1 4h-1l2 5 2 5H75zm111-91-1 10-1 10-6 19-7 21-5 10-8 9 7 7 9-8 11-6 10-7 10-7 17-18 8-9 7-10 13-23-4-24-19-15-25 4-15 19-1 18z"/><glyph glyph-name="undefined" unicode="勮" horiz-adv-x="1024" vert-adv-y="918" d="M904-6l-8-12-8-9-10-10-11-7-11-7-12-4-13-4-13-1-14-1v32L697-13V3H804l7 1 7 1 6 1 5 2 4 3 5 2 4 4 7 10 4 7 7 19 7 27 7 37 6 44 6 52 4 60 3 68 2 75 2 83v79H789l-3-83-9-93-13-86-18-79-23-71-28-65-32-56L625-4 582-45 535-76l-5 8 38 38 34 44 30 49 26 55 22 62 17 69 13 76 10 83 5 90v80H6e2v22H725V842l65-11 16-11-16-9V6e2H897l33 27 59-49-27-16-1-64-1-84-2-76-4-69-4-61-6-55-6-47-8-40-8-33L911 5 904-6zM538 55l-9 19-22 35-27 32-14 16-26 24 2-5 9-35 5-36-1-36-5-37L440-5l-5-13-6-12-8-11-10-10-10-8-11-7-12-5-13-3-13-2-14-1v32L241-29v16h97l7 1 6 1 5 1 4 2 4 2 4 3 3 4 6 9 14 37 7 29 2 17-68-40-63-31L2e2-8 162-21 122-33l-4 9L279 77l52 37 46 37 19 17-5 26-7 18-41-28-48-25-52-24-29-11-30-9-32-9-3 10 78 50 45 32 39 30 34 31 10 10-10 17-14 20-27-17-23-12-25-12-26-11-57-19-5 10 71 50 40 30 32 31 11 13H171v21H474l54 54 65-54V369H406l-25-25-17-14-19-14-2-2 17-15 27-28 23-30 18-32 1-3 11-3 9 12 17 30 26 43 29 49v1l5 7 49-43 6-18-22 3-44-40-41-32-15-10-8-7 13-4 21-11 20-13 19-14 19-15 16-17 31-38 14-21 2-25-16-18-24-2-20 15-8 20zm-9 448 27 92h10l-10-92 16-11 10-16-10-16-16-11H350l-13 1-13 2-13 3-11 6-11 8-9 10-7 12-5 12-3 14-1 13v21L152 536l-2 13V337l-2-55-4-52-6-49-7-46-9-41-11-40L99 19 84-12 67-40 48-63l-9 4L49-31 57-2l8 32 7 35 5 37 4 40 4 44 1 47 1 50-1 54V729l64-32H284V869l64-11 16-11-16-9V793h94l44 49 53-49V772H348V697H543l2 1 30 26 60-49-27-16-18-7-30-41-18-22-10-11-8-12-8 4 5 14 2 14 4 14 2 13 3 13 8 37H296l33-5 16-11-16-10V582l53 7 46 61 71-45 3-21-173-24V519v-4l1-2 1-2 1-2 2-2 4-1 5-2 7-1H529zM264 675H150V557l114 16V675z"/><glyph glyph-name="undefined" unicode="勯" horiz-adv-x="1024" vert-adv-y="918" d="M888-11l-9-10-9-9-10-9-11-6-12-6-12-4-12-4-14-1-13-1v32L679-13V3H786l8 1 6 1 13 3 4 3 5 3 5 4 9 9 13 26 9 28 9 36 8 44 6 52 6 60 3 68 4 75 1 83 1 79H747l-4-83-10-94-16-86-22-79-28-72-34-64-39-57L548-5 496-45 440-76l-5 8 49 39 43 44 38 49 32 56 28 62 22 69 17 75 12 83 6 89 1 80H521v22H683V842l65-11 16-11-16-9V6e2H896l33 27 59-49-27-16-1-64-2-84-3-76-4-70-6-62-7-54-8-48-9-41-12-35L895 1l-7-12zM46 18 208 39l92 13L459 72l59 6 3-9-57-17L307 11 175-20 101-37 89-39 80-58 67-44 46 18zm65 357 64-33H379l32 27 59-48-27-22V116L379 84v32H175V1e2L111 68V375zM379 221H175V138H379v83zm0 1e2H175V243H379v78zM91 697l59-29H430l29 27 57-49-27-19V394l-59-30v30H150L91 364V697zm339-51H150V416H430V646zM189 626l59-29h81l29 27 57-49-27-19V473l-59-30v30H248l-59-30V626zm140-51H248V494h81v81zM50 721v22H259V867l64-11 16-11-16-10V743H435l44 48 53-48V721H50z"/><glyph glyph-name="undefined" unicode="勱" horiz-adv-x="1024" vert-adv-y="918" d="M905-6l-8-11-8-10-10-9-11-8-11-6-12-5-13-4-13-1-13-1v32L741-13V3h65l7 1 6 1 6 1 5 2 8 5 4 4 4 5 4 5 10 25 7 28 7 37 6 44 5 52 4 60 3 68 2 75 2 83v79H794l-4-83-8-93-13-86-18-79-22-71-27-64-31-57L635-4 593-44 547-76l-5 8v1l-6-2-13-3H509v32L423-24V-8h93l5 2 3 1 1 1h2v1l1 2 1 3 1 5V253H372V125l30 2 29 2h4l-14 35-18 34-11 17 8 6 15-13 16-12 14-14 14-15 12-15 11-17 20-34 16-38-4-24-20-14-24 3-14 20-3 17-3 17-9 29-33-12-55-17-55-14-82-19-5-1-9-20-13 15-20 62 11 1 128 13V253H149V-41L85-73V307l64-32H308v88H195V347l-65-33V653l65-32H485l32 27 59-49-27-21V352l-64-32v43H372V275H530l33 27 59-49-27-21V14L594 0l-2-12 19 25 29 49 25 56 21 62 17 69 13 76 8 83 5 90 1 80H609v22H730V842l64-11 16-11-16-9V6e2H896l33 27 59-49-27-16-1-64-1-84-2-76-4-69-4-61-5-54-6-48-8-39-8-34L911 6 905-6zM308 481H195V384H308v97zm177 0H372V384H485v97zM308 599H195V503H308v96zm177 0H372V503H485v96zM399 866l65-11 16-11-16-10V767h43l53 53 65-53V745H464V672l-65-32V745H280V672l-64-32V745H55v22H216v99l64-11 16-11-16-10V767H399v99z"/><glyph glyph-name="undefined" unicode="勴" horiz-adv-x="1024" vert-adv-y="918" d="M907-5l-7-12-9-10-10-9-10-8-12-6-12-5-13-4-13-1-13-1v32L7e2-13V3H808l7 1 6 1 5 1 5 2 5 3 4 2 4 4 3 5 7 11 7 19 7 28 6 37 6 44 5 52 3 60 4 68 2 75 1 83v79H8e2l-4-83-8-93-12-86-17-78-21-72-26-64-31-57L646-4 607-44 563-76l-6 8 35 38 31 43 28 49 23 56 20 62 16 68 13 77 8 83 5 90v80H622v22H736V842l64-11 16-11-16-9V6e2h95l33 27 59-49-27-16-1-64-1-84-2-76-3-69-4-61-5-54-6-47-7-40-8-33L913 6 907-5zM466 6l32 135h5l-1 1 6 7 14-9 14-9 14-10 12-10 11-12 20-25 9-15 7-15 7-16-5-24-20-14-24 5-15 20V27l-2 13-3 12-3 13-5 13-5 12-13 27-8 13-5 5L498 6 517-6l13-20-13-19-19-13H326l-14 1-13 2-13 4-12 7-11 9-9 11-6 12-5 13-2 14-1 13V158l64-11 17-10-17-10V28l1-6 1-5 1-4 1-1V11l1-1 2-1 4-1 5-1 6-1H466zM148-33 126-22 119 2l11 22 7 2 6 5 7 7 7 10 6 12 6 14 5 16 6 18 5 20 2 23h9l3-23 3-22 1-20V67l-1-18-2-17-5-16-6-15-8-14-10-13-23-7zM379 81l-2 10-7 20-5 9-5 10-11 19-7 10-9 8 5 8 11-6 12-4 12-5 11-7 11-7 10-8 10-10 9-9 8-11 8-11V72L424 54H399L381 70l-2 11zM242 197l-59-29V441l59-30H489l33 27 59-48-27-22V197l-65-32v32H242zm93 98H242V219h93v76zm154 0H4e2V219h89v76zM335 390H242V317h93v73zm154 0H4e2V317h89v73zm36 116 25 70h10l-10-70 14-10 10-14-10-15-14-10H332l-12 2-13 3-12 6-10 7-9 10-8 12-4 12-4 13-1 13v22L148 541l-3 21 114 16V681H144V342l-3-55-4-52-5-48-7-46-9-42-10-39L93 25 79-7 62-34 43-58l-7 5 9 27L54 3l8 31 7 35 6 38 4 40 3 44 3 47v51 53V732l59-30H279V874l64-11 16-10-16-10V799h93l44 48 54-48V777H343V702H537l2 2 30 25 59-48-27-17-18-7-30-41-17-22-10-11-8-12-9 5 6 13 2 14 3 14 3 14 3 13 8 37H292l32-6 16-11-16-9V587l52 7 46 61 71-44 3-21-172-24V535l-1-6v-5l1-4v-3l1-1 1-3 2-2 4-2 6-2 7-1H525z"/><glyph glyph-name="undefined" unicode="勶" horiz-adv-x="1024" vert-adv-y="918" d="M597 606l-4 14-11 27-4 10-15-4-30-8-59-14-81-15-42-6 48-25H551l32 27 59-48-27-22V364 351l-3-14-4-13-7-12-9-11 36 19 42 29 37 31 32 35 23 31-18 34-17 42-13 45-8 47-2 21-10-14-21-22-23-21-7 6 10 21-14-15-24-1-18 17zM264 749l49-43 7-18-21 2-31-32-48-45-25-19 26-5 16-11-16-9V317l-64-33V566l-50-31-32-16-32-14-6 8 79 68 47 45 43 47 38 48 17 25h1l2 3zM551 485H399V427H551v58zM847 693H744l-13-21-14-20 11-33 16-42 19-39 20-36 7-10 23 50 16 51 12 55 6 45zM551 564H399V506H551v58zM232 875l49-43 6-19-21 3-24-26-43-38-46-34-23-16-25-14-26-13-27-12-5 8 99 97 36 41 33 41 17 25zm74-206 10 1h23 47l5 21 6 29 9 46H291v21H443v84l64-11 16-11-16-9V787h33l54 54 65-54V766H470l-13-25-23-37-25-34 33 1 28 1 59 1h31 10l-8 15-25 42-12 13 7 7 29-19 14-10 14-10 25-24 22-26 20-28V610l26 54 24 55 20 57 8 30 8 31 6 31 2 9 61-24 13-14-19-6-4-13-25-63-13-29-8-14H877l44 49 54-49V693H912l-11-58-17-59-21-55-27-50-14-19 10-11 28-26 32-23 34-19 69-32-62-50-41 23-38 27-33 30-30 33-3 4-18-21-41-34-44-28-48-23-52-16-3 7-12-8-8-2 28-12 13-15-21-6-13-37-18-35H829l32 27 60-48-27-16-2-1v-3l-4-28-5-26-7-24-8-23-11-20L845-3 830-19 813-33 795-44 772-54l-22-7-23-6-25-3-23-1v32L571-23V-6H679l18 1 9 1 17 3 9 2 9 3 17 6 8 4 10 6 10 7 8 10 8 11 7 14 6 16 5 19 4 22 3 24 1 14H539l-33-45-43-43-48-37L359 0 298-26 231-48 157-63 77-73l-2 9 77 20 70 24L285 6l55 30 48 33 41 37 34 40 7 11H136v21H484l7 11 22 47 13 46 3 12v16l-54 16v16h54l7 1 5 1 3 1 2 1 1 1 2 2 1 4v5l1 6v41H399V313l-64-32V596l-4-6-11 16-14 63z"/><glyph glyph-name="undefined" unicode="勞" horiz-adv-x="1024" vert-adv-y="918" d="M756-16 736-32l-11-7-11-6-11-4-12-5-12-3-13-2-13-2H641v32L534-13V3H641l8 1 16 2 14 4 14 7 6 4 7 5 6 6 3 3 5 9 5 14 6 18 5 22 4 27 5 30 6 72 2 29H499l-26-75-34-64-42-55-50-45-58-37-65-28-73-19-79-9-2 9 76 20 67 25 58 32 50 38 42 44 33 51 27 58 16 55H173v21H444l9 61 5 80v13l64-14 16-12-18-10-6-65-11-53H754l32 27 59-48-27-16-1-1-1-16-3-40-4-36-5-32-5-30-6-25-7-23-8-20L768-1 756-16zM150 496H888l4 5 1-1 28 23 59-48-27-16-19-8-53-60-30-29-34-32-8 5 12 21 47 90 14 29H152v-4l1-26-2-25-4-23-6-22-9-20-11-19-13-18-16-15-25-5-20 14-5 24 13 20 12 7 11 8 10 11 10 14 9 15 7 18 7 21 7 23 5 26 2 16-25-5-3 10 42 19 36 20 32 22 26 23 22 24 16 27 13 28 8 30 5 32 1 35v88l64-11 16-11-16-9V780l-4-42-1-6 33 28 85 68 13-22 27-29 1-18-20 8-69-31-18-8-38-14-20-7-3-9-11-30 21-6 20-7 35-16 15-8 14-8 13-10 12-9 10-11 4-24-13-21-25-3-20 14-3 7-5 9-7 9-8 11-23 22-46 38h-1l-16-27-25-29-29-26-34-22-38-18-42-13-9-2 3-19v-3zm683 56-6 10-8 11-11 12-29 26-61 42-6 3-16-27-25-29-28-25-34-21-37-17-41-12-45-9-2 10 40 18 36 19 30 21 26 22 21 24 16 26 13 27 8 30 4 32 1 35v88l64-11 16-11-16-9V780l-4-42-1-6 52 42 66 49 17 11 10-18 32-32V766l-20 8-102-45-40-15-20-7-1-1-2-8-12-28 33-10 24-8 43-19 19-10 17-11 14-12 14-12 11-14 2-25-15-19-25-2-19 16-3 8zM154 611l-21 13-5 24 13 20 10 6 9 7 10 9 9 10 9 13 8 16 15 36 6 22 5 23h9l3-48-1-23-2-21-4-20-6-19-8-18-10-16-11-15-14-14-24-5zm383 18-22 11-6 24 11 21 8 6 9 6 16 20 8 14 7 15 7 17 14 41 4 24 9-1 1-24 2-23V757l-2-20-3-20-4-19-6-17-8-17-10-15-11-13-24-7z"/><glyph glyph-name="undefined" unicode="勒" horiz-adv-x="1024" vert-adv-y="918" d="M880-10l-8-10-9-10-11-8-10-7-12-6-13-4-12-4-13-1-13-1v32L682-13V3h97l7 1 7 1 6 1 5 2 5 3 5 3 5 4 4 4 5 5 4 7 8 19 9 28 9 36 7 44 6 52 5 60 4 68 3 75 2 83 1 79H744l-4-83-10-94-15-86-21-79-27-71-33-65-38-56L552-5 502-45 447-76l-5 8 47 39 42 44 36 49 31 55 26 62 22 69 16 76 11 82 6 90 1 80H524v22H680V842l65-11 16-11-16-9V6e2H886l32 27 59-49-27-16-1-64-2-84-2-76-5-69-5-63-6-54-8-48-10-40-10-34L887 1l-7-11zM390 863l64-10 17-11-17-10V734h10l44 49 54-49V713H454V573l-64-32v54H339V474H458l32 27 59-49-27-21V259l-64-32v54H339V170H450l54 54 64-54V148H339V-40L275-72V148H40v22H275V281H164V243L99 211V506l65-32H275V595H218V557l-64-32V713H52v21H154V863l64-10 17-11-17-10V734H390V863zM275 452H164V302H275V452zm183 0H339V302H458V452zM390 713H218V616H390v97z"/><glyph glyph-name="undefined" unicode="勵" horiz-adv-x="1024" vert-adv-y="918" d="M81 828l60-29H489l54 54 65-54V777H141V449l-3-75-4-70-5-66-7-61-8-56-11-50L92 25 78-15 62-50 44-79l-8 4 8 31L52-8l8 41 7 44 5 50 5 55 3 59 1 65 1 69-1 74V828zM424-21V-5h82l4 1 4 1 2 1 1 1V0l1 2 2 3v5l1 7V40l-2-9-20-15-24 4-15 20-3 28-3 14-2 9-22-9-43-16-44-13-63-18-9-19-13 14-21 61 11 3 65 4 22 3h8V213H230V-35L165-68V267l65-32H343v73H264l-60-30V562l60-30H484l32 27 59-48-26-22V308l-65-33v33H408V235H521l32 27 59-49-27-21V17 3l-3-14-4-13-7-12-9-11-11-8-12-7-12-5-14-2H499v32L424-21zM908 4 902-8l-8-10-8-10-11-9-11-7-12-5-13-4-14-2-13-1v32L747-8V9h65 7l6 1 5 2 4 1 4 3 3 2 6 8 3 5 12 39 9 38 7 42 7 48 5 54 4 58 3 64 2 68 1 74v25 43H8e2l-3-79-7-88-11-83-15-76-18-71-23-64-26-57-31-51-34-43-39-37-7 7 30 42 26 46 23 51 20 56 17 62 13 68 10 74 7 80 4 86v77H590v21H736V847l65-10 16-11-16-10V605h99l32 27 59-48-27-16 1-52-1-75-2-70-3-65-5-60-5-55-7-51-9-45-9-41-10-37-6-13zM521 213H408V106l16 1 23 1v2l-9 28-13 29-8 14 7 6 12-11 14-11 11-11 23-26 18-27 8-15 7-16 4-9V213zM343 409H264V329h79v80zm141 0H408V329h76v80zM343 511H264V431h79v80zm141 0H408V431h76v80zM416 742l65-11 16-11-16-9V658h24l44 48 53-48V637H481V577l-65-32v92H334V577l-64-32v92H148v21H270v84l64-11 16-11-16-9V658h82v84z"/><glyph glyph-name="undefined" unicode="力" horiz-adv-x="1024" vert-adv-y="918" d="M544 842l-17-10-5-155-5-50H851l32 27 59-49-27-16-1-66-1-85-3-78-4-70-5-62-7-54-8-48-8-39-12-34-13-27-8-11-8-10-10-9-10-8-11-7-12-5-12-4-12-4-14-1-13-1V-2L636 14V30H743l8 1 7 1 12 3 5 3 5 3 5 4 9 9 5 7 8 16 8 26 8 36 7 43 6 52 6 61 3 68 3 77 2 84 1 81H515l-8-78-23-129-34-109-43-91-54-75-62-61-73-50-81-39L46-60l-4 9L128-9l75 46 64 51 55 60 45 72 36 86 28 104 19 124 5 71H93v22H457l4 54 3 172v13l64-13 16-11z"/><glyph glyph-name="undefined" unicode="劣" horiz-adv-x="1024" vert-adv-y="918" d="M810-33l-10-8-10-7-23-12-11-4-13-4-12-2-13-2H706v32L598-24V-8H706l8 1 15 2 7 2 13 6 7 3 6 5 6 5 18 18 10 15 10 18 8 19 7 22 5 24 5 26 2 28 2 31v23H549l-32-64-40-57-48-50-55-43L310-9 240-38 162-58 77-71l-2 9 82 24 73 27 64 33 56 38 47 42 40 47 33 53 16 38H152v21H495l17 63 10 70 1 11 63-18 15-12-19-9-10-56-16-49H835l32 27 59-48-27-16v-8l-2-34-2-33-6-30-6-29-9-27-10-24-13-23L837-5 820-24l-10-9zM788 644l42-50 2-19-19 6-41-32-62-40-67-38-70-34-75-31-79-28-83-23-87-21-92-16-96-13-2 9 94 24 89 24 83 27 81 28 74 31 71 34 66 36 62 39 56 42 49 40 4 5zM312 799l53-37 8-17H353l-32-43-24-29-54-57-62-54-33-26-36-24-38-23-6 8 89 91 52 59 24 29 41 59 33 55 5 9zm49-258v16H469h6l5 2 5 1 2 2 2 5 1 5v6V869l65-11 16-11-16-9V578l-1-13-2-13-5-13-7-13-8-10-11-9-12-7-13-4-14-2-13-2v33L361 541zm545 28-35 52-40 48-44 45-48 42-53 42 5 8 32-11 31-14 59-35 27-20 52-44 46-50 21-27 5-24-13-21-25-5-20 14z"/><glyph glyph-name="undefined" unicode="勇" horiz-adv-x="1024" vert-adv-y="918" d="M795-44l-22-9-12-5-11-3-12-4-11-2-24-3-24-2v33L571-23V-7H688l26 3 18 5 8 2 9 3 16 8 10 6 10 8 8 10 8 13 7 15 7 17 5 21 4 22 3 26 1 16H538l-32-47-42-45-49-39L360 3 299-25 231-48 157-65 77-76 75-66l77 21 70 24L284 7l55 31 48 35 42 39 34 42 9 14H136v22H484l6 10 22 50 14 49 4 14 60-24 13-15-20-6-14-41-19-37H829l32 27 60-49-27-16-2-1v-5l-4-29-5-27-7-26-8-23-10-22L845 0 830-17 814-32 795-44zM532 641l-12 12-15 11-35 22-21 11-76 32-29 11 2 9 31-2 30-3 28-5 26-6 25-6 23-8 22-9 38 18 61 28 65 27H141v21H747l50 20 1-1 10 8 59-48-27-16-65-27v12L611 709l-33-8-20-4 12-7 16-12 10-23-8-23-12-5H792l32 27 59-49-27-21V304l-64-32V380H539V326l-65-32v86H232V294l-64-33V659l64-32H553l-10 4-11 10zM474 498H232V401H474v97zm318 0H539V401H792v97zM474 605H232V519H474v86zm318 0H539V519H792v86z"/><glyph glyph-name="undefined" unicode="𠆮" horiz-adv-x="1024" vert-adv-y="918" d="M325 873l57-32 11-16-20-3-18-41-59-115-64-111-6-8 34-6 17-11-17-10V-45L196-77V499l-33-48-38-50-39-48-41-46-8 6 96 157 60 108 55 112 51 116 26 67zM846-21l-10-9-10-8-10-7-12-6-11-5-13-4-12-3-13-2H742v32L635-17V-1H742l8 1 7 1 14 3 5 3 6 3 6 4 6 4 10 12 11 16 10 24 11 33 9 40 7 47 7 55 5 61 4 69 2 76 1 72H677l-4-77-13-86-19-80-26-73-34-66-40-59-48-51-54-44-61-36-67-27-3 9 60 36 54 41 46 45 40 51 34 57 26 62 21 69 14 75 8 81 2 73H409v21H613V761H367v22H845l54 54 65-54V761H636l42-7 16-10-16-10V544H871l32 27 59-48-27-17V449l-3-76-3-71-6-64-7-57-8-50-10-44-12-39-14-32-18-27-8-10z"/><glyph glyph-name="undefined" unicode="𠠲" horiz-adv-x="1024" vert-adv-y="918" d="M816 4 789-23 757-42l-11-5-12-4-12-4-12-3-12-2-12-1H673v32L566-13V3H673l17 1 16 4 8 2 15 6 7 4 15 9 14 15 15 24 14 33 13 42 12 52 9 60 8 70 5 78 3 86 1 84H580L554 464 515 357l-51-97-62-88-72-77-84-66-95-55L46-71l-4 9L141-9l88 61 76 68 65 77 55 85 43 94 34 102 19 95H249l-29-49-34-49-37-47-41-46-44-43-7 7 36 49 33 50 31 50 27 49 25 51 21 50 19 51 15 52 13 52 8 48 2 15 62-21 14-13-19-7-8-36-16-55-20-54-24-52-16-30H525l12 116 2 127-1 16 65-12 17-10-17-10-5-115-14-112H845l33 26 59-48-27-16h-1l-1-69-3-89-5-80-8-72-10-64-12-56-15-49-18-40L816 4z"/><glyph glyph-name="undefined" unicode="𠠳" horiz-adv-x="1024" vert-adv-y="918" d="M88 122 51 175l65 29V707l64-10 16-11-16-10V232l110 48 27 11V869l65-11 16-11-16-9V-45L317-77V265l-66-46-135-82-8-4-3-21-17 10zM866-13l-9-10-9-9-11-8-11-6-11-6-13-4-13-3-13-1-12-1v32L678-13V3h86l7 1 7 1 12 3 6 3 11 7 4 4 5 5 15 26 11 28 9 36 9 44 7 52 6 60 5 68 3 75 2 83 1 79H710l-4-84-12-93-17-87-25-79-31-72-37-64-45-57L489-6 432-46 370-76l-5 9 56 39 49 44 43 49 36 55 31 62 25 69 19 75 13 83 8 89 1 80H460v22H646V842l64-11 17-11-17-9V6e2H884l32 27 59-49-26-16-1-64-2-84-4-77-5-69-6-63-8-54-9-48-11-42-13-35L874-3l-8-10z"/><glyph glyph-name="undefined" unicode="𠠴" horiz-adv-x="1024" vert-adv-y="918" d="M887-28l-8-10-9-10-11-8-10-7-12-6-12-5-13-3-13-2-13-1v33L678-31v16H786h7l13 3 5 2 5 2 5 4 4 3 9 10 4 7 9 21 10 30 8 39 8 49 7 56 5 65 3 73 3 81 2 90v86H748l-8-94-12-101-18-95-23-87-27-79-32-71-36-63-43-55-47-45-6 7 37 51 33 57 30 63 26 70 21 77 18 85 13 92 9 99 4 89H526v22H688l1 111V866l64-11 17-10-17-10V739l-4-111H893l32 27 59-49-27-16V519l-1-90-3-83-4-74-5-67-7-59-8-51-9-44-12-37-14-31-7-11zM415-28l-8-10-9-10-10-8-11-7-12-6-12-5-12-3-13-2-14-1v33L217-31v16h97 8l12 3 5 2 6 2 4 4 5 3 4 5 8 12 9 21 10 30 9 39 7 49 6 56 6 65 3 73 3 81 2 90v86H278l-7-94-13-101-18-95-23-86-26-80-32-71-37-63L81-39 34-84l-7 7L64-26 98 31l29 63 25 70 21 77 18 85 13 92 9 99 4 89H57v22H218V739 866l65-11 16-10-16-10V739l-4-111H421l32 27 59-49-27-16V519l-1-90-3-83-4-74-5-67-7-59-8-51-10-44-11-37-14-30-7-12z"/><glyph glyph-name="undefined" unicode="𠠵" horiz-adv-x="1024" vert-adv-y="918" d="M2e2 584H71v21H2e2V858l65-11 16-10-16-10V605H378l32 27 59-48-27-22V29l1-5 2-5 2-2 5-1 5-1 7-1H915l32 134h11L947 14 967 1l13-19-13-20-20-13H464l-14 2-14 2-13 4-12 7-11 9-8 10-7 13-5 13-2 13V35 584H265V444l-4-71-8-68-11-64-16-59-19-55-24-50-28-46-32-41L87-46 47-75l-6 7L72-32 1e2 8l25 41 21 46 18 48 14 52 11 57 7 60 4 64v68V584zM740 821l-17-10-3-133-4-67H860l33 27 59-49-27-16V524l-1-70-1-62-2-57-2-49-3-43-3-37-4-30-5-25-6-20-6-13-6-11-8-11-10-9-10-9-12-6-12-5-13-4-13-2H794V93L687 109v16H802l6 1 5 2 4 2 5 2 3 3 4 3 6 10 3 7 4 11 3 19 4 28 3 35 2 42 3 48 1 56 1 61 1 69v65H714l-3-42-13-112-18-94-23-78-29-65-35-53-40-42-44-34-50-27-5 9 42 34 37 38 32 43 26 50 22 61 18 75 14 90 9 109 1 38H482v22H656l3 69V832v13l65-13 16-11z"/><glyph glyph-name="undefined" unicode="𠠶" horiz-adv-x="1024" vert-adv-y="918" d="M888-11l-9-10-9-9-10-9-11-6-12-6-12-4-12-4-14-1-13-1v32L679-13V3H786l8 1 6 1 13 3 4 3 5 3 5 4 9 9 13 26 9 28 9 36 8 44 6 52 6 60 3 68 4 75 1 83 1 79H747l-4-83-10-94-16-86-22-79-28-72-34-64-39-57L548-5 496-45 440-76l-5 8 49 39 43 44 38 49 32 56 28 62 22 69 17 75 12 83 6 89 1 80H521v22H683V842l65-11 16-11-16-9V6e2H896l33 27 59-49-27-16-1-64-2-84-3-76-4-70-6-62-7-54-8-48-9-41-12-35L895 1l-7-12zM172 119 159 94l-7-19-1-13 1-7 5-6 10-6 20-6 28-5 37-2H435l32 135h11L467 30l19-13L499-2 486-22 467-34H252l-43 2-37 6-31 10L114 1 94 26 86 57l3 32 11 31 17 33 25 35L371 487H137v22H387l33 26 59-48-27-16-22-9L193 149l-21-30zM153 847l62-20 14-13-18-8-5-23-11-42-12-40-8-20H396l54 53 64-53V659H167l-15-35-18-36-20-34-22-33-24-30-27-28-8 6 34 67 16 34 27 71 11 37 10 38 8 39 7 40 5 36h-1l3 16z"/><glyph glyph-name="undefined" unicode="𠠷" horiz-adv-x="1024" vert-adv-y="918" d="M915 25l32 134h11L947 25l20-13L980-8 967-27 947-40H426l-14 1-13 2-13 5-13 7-10 8-9 11-7 12-4 13-2 14-1 13V416l-6-26-32-96-38-88-46-79-52-71L107-6 42-59l-6 7L93 8l50 66 45 71 39 79 32 86 27 92 4 21H123l-10-69-68-22 70 472 62-20 15-13-18-6-48-321H294l12 59 14 107 8 115 1 122v13l65-13 16-10-17-11-5-105-11-118-18-111-10-41 23 20 59-48-27-22V106l40 27 44 37 37 41 33 47 27 52 21 56 17 63 12 68 6 74 1 66H480v21H642V859l65-11 16-10-16-10V658H854l32 27 59-48-27-17V571l-2-70-3-64-4-58-5-52-7-45-7-40-10-34-10-28-14-25-9-10-9-10-9-8-11-8-11-6-12-5-12-4-13-3-13-2-13-1v33L637 147v16H744h8l7 2 7 1 6 2 6 2 5 4 5 3 6 5 5 5 4 7 8 12 8 22 8 29 7 35 6 43 5 49 4 56 3 63 1 69 1 65H706l-4-70-10-78-17-73-22-67-28-60-33-54-40-47-45-40-51-32-52-23V40l2-5 1-5 2-2 5-2 5-1h7H915z"/><glyph glyph-name="undefined" unicode="𠠸" horiz-adv-x="1024" vert-adv-y="918" d="M882-11l-8-11-9-9-11-8-10-7-12-5-12-4-13-4-13-1-13-1v32L684-13V3h97l7 1 7 1 12 3 6 3 4 3 5 4 9 9 5 7 9 19 9 28 9 36 8 44 7 52 5 60 4 68 3 75 2 83 1 79H739l-4-83-11-94-16-86-22-80-29-71-34-65-41-56L536-5 483-45 425-76l-4 8 50 39 44 44 39 50 33 55 28 62 23 69 18 75 11 83 7 89 1 80H508v22H675V842l64-11 17-11-17-9V6e2H893l32 27 59-49-27-16V498l-2-84-3-76-5-70-5-62-7-54-9-48-10-41-12-35L890-1l-8-10zM191-24V-8h86 6l5 2 5 1 2 2 1 2V2l1 5 1 6V441l-30-84-26-63-27-60-30-55-31-51-33-47L86 39 49 2 42 8 70 51 97 97l26 49 26 52 24 55 23 59 21 63 21 66 19 71 13 55H51v22H298V859l65-11 16-11-16-10V589h14l53 53 65-53V567H363V13L361 0l-2-13-4-13-6-13-10-10-10-9-13-7-13-4-13-3-13-1v33L191-24z"/><glyph glyph-name="undefined" unicode="𠠹" horiz-adv-x="1024" vert-adv-y="918" d="M864-11l-8-10-10-9-10-8-11-7-11-6-13-4-12-4-14-1-12-1v32L655-13V3H763l7 1 6 1 7 1 5 2 6 3 5 3 9 8 4 5 4 7 9 19 9 28 9 36 7 44 7 52 5 60 4 68 3 75 2 83v79H725l-4-83-10-94-16-86-21-79-28-72-33-64-40-57L529-5 478-45 422-76l-5 8 48 39 43 44 37 49 32 55 27 63 22 68 17 76 11 83 6 89 1 80H501v10l-7-4-11-5-10-20-15-30-18-29-10-15-10-14-10-15-8 5 5 16 9 50 4 16 5 31 2 15 1 11H315V515l-1-1h1l-7-77-10-73-15-69-19-66-23-62-28-58-33-55L144 4 103-41 57-81l-7 7L87-27l34 49 29 51 26 53 22 57 18 60 14 63 11 67 7 70 2 73v84H143l2-5 4-21 1-20-1-20-4-20-6-19-8-18-12-17-22-10-23 8-10 23 8 23 9 8 9 9 8 11 6 13 5 14 4 16 2 17 1 19v22l-3 22 9 3 14-37H250V853l65-11 16-10-16-10V621H430l32 27 59-48H661V842l65-11 16-11-16-9V6e2H871l32 27 60-49-27-16-1-64-2-84-3-76-4-70-5-62-7-54-8-48-10-41-11-34L872 1l-8-12zM252-14 214 39l71 31 27 11V430l65-11 16-10-16-10V108l93 39 31 12 33 10 4-8-55-40-56-36L281 2 271-3l-3-21-16 10z"/><glyph glyph-name="undefined" unicode="𠠻" horiz-adv-x="1024" vert-adv-y="918" d="M894-10l-8-10-10-10-10-8-10-7-12-6-13-4-12-4-13-1-13-1v32L685-13V3H793l7 1 7 1 6 1 5 2 6 3 5 3 4 4 4 4 5 5 4 7 8 19 10 28 8 36 7 44 7 52 5 60 4 68 3 75 2 83v79H757l-4-83-10-94-15-86-22-79-27-71-33-65-39-56L563-5 513-45 457-76l-5 8 48 39 42 44 37 49 31 55 27 62 21 69 16 76 12 82 6 90 1 80H536v22H693V842l65-11 16-11-16-9V6e2H9e2l32 27 60-49-27-16-1-64-1-84-4-76-4-69-5-63-7-54-8-48-9-41-11-33L901 1l-7-11zM174 434l-4-54 4 6 43-24 41-26 38-29 35-31 15-15 23 52 26 69 22 73 15 59H177v-5l-3-75zM416 66l-19 39-20 37-22 35-9-14-41-58-45-52L211 5 158-37 102-73l-6 8 49 44 46 47 42 50 39 54 36 57 17 32-23 29-30 33-33 33-69 63-1-14-6-66-10-63-10-58-14-53-15-50L96 28 75-11 52-46l-8 5L57-3 69 38 80 83l9 49 9 52 6 57 5 61 2 65 2 68-1 74V789l65-32H406l54 54 64-54V735H177V535H435l32 27 60-48-27-16-7-3-17-57-27-76-31-71-33-66-2-3 39-51 26-38 23-40 21-42-1-25L474 9H449L431 27 416 66z"/><glyph glyph-name="undefined" unicode="𠠼" horiz-adv-x="1024" vert-adv-y="918" d="M864-11l-8-10-10-9-10-8-11-7-11-6-13-4-12-4-14-1-12-1v32L655-13V3H763l7 1 6 1 7 1 5 2 6 3 5 3 9 8 4 5 4 7 9 19 9 28 9 36 7 44 7 52 5 60 4 68 3 75 2 83v79H725l-4-83-10-94-16-86-21-79-28-72-33-64-40-57L529-5 478-45 422-76l-5 8 48 39 43 44 37 49 32 55 27 63 22 68 17 76 11 83 6 89 1 80H501v22H661V842l65-11 16-11-16-9V6e2H871l32 27 60-49-27-16-1-64-2-84-3-76-4-70-5-62-7-54-8-48-10-41-11-34L872 1l-8-12zM403 124l-57 88-30 42-12 15-21-44-39-65-43-61-48-56L101-8 43-54l-6 7L86 6l45 55 41 58 37 62 33 64 28 67-49 54-68 65-71 60 6 8 42-21 41-24 39-28 39-30 38-34 7 22 20 75 16 79 13 94 62-20 15-13-19-7-11-65-20-82-24-78-19-45 31-34 35-41 33-43 32-46 4-24-14-21-24-3-21 14zM45 643v21H230V858l65-11 16-10-16-10V664h77l53 54 65-54V643H45z"/><glyph glyph-name="undefined" unicode="𠠽" horiz-adv-x="1024" vert-adv-y="918" d="M711-45l-10-6-22-9-23-8-12-2-12-3-12-1-25-1v32L488-27v16H604l18 2 17 4 17 5 16 8 8 4 13 9 12 13 12 18 11 22 9 28 7 31 6 37 4 42 2 46v40H481l-11-51-21-56-29-52-36-47-44-42-50-37-58-31-64-27L97-65l-3 9 66 30L218 7l52 35 43 38 36 41 29 44 21 47 15 50 6 36H139v21H422l2 54v70l65-11 16-11-16-9V373l-5-54H756l32 27 59-48-26-16V256l-3-49-4-45-6-41-9-37-12-34-14-30L756-5 736-27 711-45zM560 849l-18-10-2-30 8-52 16-54 22-49 17-27L810 746l47 30 10-18 32-32V707l-19 8-70-32-87-35-30-10-65-19-17-4 37-42 41-35 49-30 56-26 63-21 71-18 47-11-62-58-76 22-69 28-60 33-52 38-44 43-35 47-26 53-17 56-6 45-7-31-26-66-36-60-45-52-55-45-63-37-72-30-80-23-88-14-2 9 85 25 75 30 65 33 56 40 46 44 37 48 28 54 20 60 11 65 3 71v13l64-13 16-11zM137 563l-17 19 2 24 19 17 22 6 19 8 18 9 15 11 13 12 11 14 10 17 7 19 7 21 2 25 10 1 4-26 2-25-2-24-6-24-10-22-13-21-18-19-21-16-23-15-27-13-24 2z"/><glyph glyph-name="undefined" unicode="𠠾" horiz-adv-x="1024" vert-adv-y="918" d="M888 0l33 134h10L921 0l19-13 13-19-13-20-19-13H254l-14 1-13 3-13 4-13 6-10 9-9 11-7 12-4 13-3 14V22 449l64-32H786l32 27 60-49-27-21V165l-65-33v65H232V15l2-5 1-3V5l1-1 1-1 2-1 3-1h5l7-1H888zM480 395H232V218H480V395zm306 0H544V218H786V395zm-30 69-12-4-11-3-23-5-23-4-12-1-24-1v32L544 495v16H660h10l19 2 9 2 18 4 18 6 9 3 18 9 15 11 14 14 13 18 10 20 9 25 7 28 4 32 3 36v31H502l-13-43-25-48-34-42-42-37-51-34-58-28-66-25-74-20-82-15-2 9 78 26 70 27 61 30 52 31 43 34 34 35 25 38 17 39 5 23H107v21H445l2 41v58l64-11 17-11-17-9V814l-4-41H836l32 27 60-48-27-17V719l-3-40-6-38-8-35-11-31-15-29-18-25-22-22-24-17-28-14-10-4z"/><glyph glyph-name="undefined" unicode="𠠿" horiz-adv-x="1024" vert-adv-y="918" d="M94 814l64-32H453l54 53 65-53V760H158V435l-2-71-4-66-6-61-8-57-9-54-12-48-13-44L89-5 72-40 51-69l-8 4L53-32 62 4l8 39 8 43 6 47 4 52 4 56 2 61v64 69V814zM885 2 877-8l-9-10-10-8-11-7-12-6-12-5-13-3-13-2-13-1v32L677-2V15H784h7l7 1 11 3 5 3 5 3 4 4 5 4 8 12 8 19 8 28 8 36 7 45 6 53 5 60 4 68 3 76 1 83 1 80H755l-4-84-9-94-15-87-20-79-26-72-31-65-37-57L571 6 523-34 471-65l-5 9 44 38 40 44 34 49 30 56 24 62 21 69 15 76 11 83 5 91 1 81H544v21H691V858l65-11 16-10-16-10V614H887l32 27 59-48-27-16V512l-2-84-3-77-4-69-5-63-6-54-7-48-9-41-11-34-12-28-7-12zM470 13 462 3l-9-9-10-9-11-7-12-6-12-5-13-3-13-2-13-1V-6L261 10V26H369h7l7 1 11 4 5 2 5 4 4 3 5 5 4 5 4 6 6 14 6 22 6 31 6 37 4 44 4 51 3 57 2 65 1 71 1 66H356l-3-70-8-81-13-74-18-68-22-62-28-55-32-49-36-42-42-34-45-26-5 8L141-5l33 37 29 43 25 47 21 53 17 59 13 65 8 71 5 77 1 67H171v22H293V744l64-11 16-11-16-10V536H460l32 27 59-49-27-16V447l-1-72-2-65-4-59-3-53-5-46-6-40-7-35-9-28-10-24-7-12z"/><glyph glyph-name="undefined" unicode="𠡀" horiz-adv-x="1024" vert-adv-y="918" d="M811-49 689-38 581-12 485 26 403 79l-68 66-5 7-26-33-56-57-63-52-71-46L36-76l-5 8 71 49 65 51 56 55 50 58 30 45-23 33-39 91-25 102-5 59-15-42-23-53-24-48-28-44-30-39-33-33-7 5 23 40 22 42 21 44 19 49 17 52 15 56 14 59 11 63 10 68 6 56H44v22H415l54 54 65-54V750H274l-10-65-14-69-8-32H421l32 27 59-49-27-16-4-1-7-61-19-83-26-78-34-73-38-62 11-13 65-56 19-11 33 23 40 36 36 41 30 45 26 50 20 56 16 60 11 68 6 72v63H518v22H671V840l64-11 16-11-16-9V644H872l32 26 60-48-27-16-1-48-1-68-3-63-4-56-5-50-6-44-7-39-9-33-10-28-13-23-8-10-9-10-10-9-11-7-10-7-12-5-12-4-13-3-13-2-13-1v32L659 145v16H767h7l7 1 7 2 6 2 6 2 5 3 5 4 5 5 6 5 4 6 7 13 7 20 8 28 6 35 6 41 5 48 3 55 3 61 2 67v63H734l-3-67-10-77-15-71-21-65-27-59-33-52-37-47-44-39-48-32-30-13 43-24 88-31L699 25l114-7 126 5 59 4-54-75-133-1zM419 562H237l-16-57 17-84 33-96 43-82 12-16 24 46 28 69 21 74 14 77 6 69z"/><glyph glyph-name="undefined" unicode="𠡁" horiz-adv-x="1024" vert-adv-y="918" d="M879-12l-8-10-10-9-10-8-11-7-11-5-13-4-12-4-14-1-12-1v32L692-13V3h86l7 1 7 1 12 3 5 3 5 3 5 4 5 4 4 5 4 7 10 19 10 28 8 36 8 44 7 52 6 60 4 68 3 75 2 83 1 79H734l-4-83-10-94-17-87-23-79-29-71-35-65-41-56L528-5 475-45 417-76l-5 8 51 39 45 44 39 50 34 55 28 62 23 69 18 75 12 83 7 89 1 80H5e2v22H670V842l65-11 16-11-16-9V6e2H891l32 27 59-49-26-16h-1l-1-64-1-84-3-76-5-70-6-62-7-55-8-47-10-42-12-34L887-1l-8-11zM233-24V-8h97l6 1 5 1 5 2 2 2 1 1 1 4 1 5v6V350l-38-61-33-47-34-44-36-42-38-39-39-37L92 46 48 16l-6 7 71 78 33 40 33 41 31 43 29 45 28 47 27 49 26 50 12 28H136l-17-70-70-16 92 384 60-25 13-15-18-5-55-231H351V767H67v21H391l53 54 65-54V767H416V466h28l33 37 43-37V444H416V14L415 1l-2-14-5-13-6-12-9-11-11-9-12-7-13-4-14-2-13-1v32L233-24z"/><glyph glyph-name="undefined" unicode="𠡂" horiz-adv-x="1024" vert-adv-y="918" d="M773-46l-11-5-11-4-24-6-12-2-12-2-12-1-12-1v33L571-18V-2H679l17 1 9 1 8 2 9 2 8 2 16 7 7 4 8 5 11 7 10 10 9 13 9 15 7 19 7 22 6 24 4 28 3 31 1 22H491l-21-51-33-53-41-47-49-40-56-34-64-27-71-20L77-71l-2 9 75 23 66 27 58 31 49 35 41 39 32 44 25 48 10 28H87v21H438l12 61 3 76 64-13 16-11-18-11-5-49-13-53H829l32 27 60-48-27-16-2-1v-9l-4-35-5-32-7-29-8-27-10-25-13-22L831-3 814-20 795-34 773-46zM901 387l-9-9-11-8-10-8-12-6-12-4-12-4-12-3-13-1-13-1v32l-65 16v17h72l8 1 7 1 12 4 6 4 6 3 11 10 5 6 4 6 2 6 3 8 3 11 2 12 3 14 2 15 3 16v5H641V322l-64-32V530H421l-12-46-20-39-25-36-32-30-38-26-43-21-49-18-54-12-60-7-2 9 57 18 50 20 43 21 36 24 30 26 23 27 17 30 12 32 5 28H176l-8-25-72-10 71 206 40-41H361v91H87v22H361V873l65-11 16-10-16-10V773H577V873l64-11 16-10-16-10V773H813l32 26 59-48-26-21V628l-65-32v43H641V551H883l32 27 59-48-27-17-3-1-5-30-2-15-4-15-7-25-5-11-5-10-7-9-8-10zM423 551H577v88H426V574l-3-23zM577 751H426V660H577v91zm236 0H641V660H813v91zM361 639H214l-30-88H361v23 65z"/><glyph glyph-name="undefined" unicode="𠡃" horiz-adv-x="1024" vert-adv-y="918" d="M391-1 376-24l-9-9-9-9-11-7-12-7-12-5-13-3-13-2-13-1v33L198-18V-2h86 7l6 1 6 2 5 2 5 2 9 7 7 10 4 6 8 20 8 29 7 39 7 46 5 55 4 63 3 71 3 79 1 86v84H263l-7-90-11-99-16-92-20-84-23-77-28-69-33-62L88-25 47-69l-7 6L72-14l28 55 25 61 22 68 18 75 15 82 11 90 8 97 3 86H67v21H203V853l64-11 17-11-17-10V729l-3-108H379l32 27 60-48-27-16V516l-1-88-3-80-3-72-5-64-5-57-7-50-8-42-10-35L391-1zm85-17V3H707V358H622l-9-23-34-69-36-63-39-58-43-53-8 6 34 57 31 62 29 64 28 70 25 73 23 78 21 82 3 16H476v21H652l11 49 16 92 16 106 62-20 14-13-18-7-14-77-20-93-9-37H857l54 54 64-54V6e2H704L671 487l-28-78-12-29H806l54 53 64-53V358H772V3h99l54 54L989 3V-18H476z"/><glyph glyph-name="undefined" unicode="𠡄" horiz-adv-x="1024" vert-adv-y="918" d="M882-11l-8-11-9-9-11-8-10-7-12-5-12-4-13-4-13-1-13-1v32L673-13V3H781l7 1 7 1 12 3 6 3 4 3 5 4 9 9 5 7 9 19 9 28 9 36 8 44 7 52 5 60 4 68 3 75 2 83 1 79H739l-4-83-11-94-16-86-22-80-29-71-34-65-41-56L536-5 483-45 425-76l-4 8 50 39 44 44 39 50 33 55 28 62 23 69 18 75 11 83 7 89 1 80H508v22H675V842l64-11 17-11-17-9V6e2H893l32 27 59-49-27-16V498l-2-84-3-76-5-70-5-62-7-54-9-48-10-41-12-35L890-1l-8-10zM99 724l64-33H266V874l65-11 16-10-16-10V691H451l32 27 59-48-27-16-15-7-35-51-27-35-52-60-8 5 13 25 37 87 7 17 11 32 1 3H331V428h80l33 27 59-49-27-16-10-4-16-42-28-61-30-56-17-28 31-28 49-50 22-26 5-24-12-22-24-5-21 12-18 27-19 26-42 48-22-31-38-45-41-41L201 4 154-27 105-54l-5 8 42 35 40 37 38 39 34 43 33 45 25 40-45 43-89 78 4 8 38-18 68-40 32-22 14-10 11 21 25 55 23 58 13 40H163V390l-3-57-4-56-6-53-8-50-10-48-11-46-14-43L91-3 72-40 51-74l-8 4L53-32 73 47l8 42 6 45 6 47 3 49 3 51v53 56V724zm167-54H163V428H266V670z"/><glyph glyph-name="undefined" unicode="𠡅" horiz-adv-x="1024" vert-adv-y="918" d="M870-11l-9-10-9-9-10-8-11-7-12-6-12-4-13-4-13-1-13-1v32L682-13V3h86l7 1 7 1 6 1 6 2 5 3 5 3 9 8 4 5 5 7 8 19 9 28 9 36 8 44 6 52 5 60 4 68 3 75 2 83v79H731l-4-83-10-94-16-86-22-79-28-72-33-64-39-57L534-5 483-45 427-76l-5 8 49 39 42 44 37 49 32 55 27 63 22 68 17 76 11 83 7 89 1 80H507v22H667V842l64-11 16-11-16-9V6e2H876l33 27 59-49-27-16-1-64-1-84-3-76-5-70-5-62-6-54-9-48-9-41-12-34L877 1l-7-12zM230-17V-1h97 6l5 2h3l2 1 1 1 1 1 1 2 1 3v5l1 6V274L244 215l-79-41-54-25-5-21-15 12-34 56 10 4 75 27 123 51 83 38V467H157l-11-69-69-22 54 340 63-21 14-13-17-6-31-188H348V765H71v22H388l54 53 64-53V765H413V488h26l44 49 54-49V467H413V347l90 42 5-8-46-34-46-30-3-3V20L411 7 409-6l-4-13-6-13-10-10-10-10-13-6-13-4-13-3-13-1v33L230-17z"/><glyph glyph-name="undefined" unicode="𠡆" horiz-adv-x="1024" vert-adv-y="918" d="M890-11l-9-10-9-9-10-8-11-7-12-6-12-4-12-4-14-1-13-1v32L681-13V3H788l8 1 6 1 7 1 5 2 6 3 4 3 5 4 4 4 5 5 4 7 9 19 9 28 8 36 8 44 6 52 6 60 4 68 3 75 2 83v79H750l-4-83-10-94-15-86-22-79-28-72-34-64-39-57L553-5 502-45 446-76l-5 8 48 39 43 44 38 49 32 56 27 62 22 68 16 76 12 83 7 89 1 80H525v22H687V842l64-11 16-11-16-9V6e2H897l33 27 59-49-27-16-1-64-1-84-3-76-5-70-5-62-7-54-8-48-10-41-11-34L897 1l-7-12zM278 648l6-2 12-14-19-6-22-56-24-50-13-24-30-50-17-24-2-2 37-37 34-41 33-45 1-8 51 106 40 95 5 12 57-33 10-16-19-2-41-81-54-96-59-92-32-45-32-43-35-42-16-18L298 70l74 17 31 6-15 42-25 62-10 20 8 6 32-33 15-18 14-19 25-41 13-22 22-48 10-24-3-24-18-17-25 3L430-2l-6 25-6 23-7 23-1 3-29-13-71-28L153-25 87-46 81-66 66-53 38 6l90 22L229 203l26 49-17-3-20 15-38 67-27 43L81 475l7 7 21-13 41-31 3-4 36 104 8 25 7 25 12 50 2 10H41v22H223v1l4-1h17V874l64-11 16-10-16-10V670H421l53 54 65-54V648H278z"/><glyph glyph-name="undefined" unicode="𠡇" horiz-adv-x="1024" vert-adv-y="918" d="M888-11l-9-10-9-9-10-9-11-6-12-6-12-4-12-4-14-1-13-1v32L679-13V3H786l8 1 6 1 13 3 4 3 5 3 5 4 9 9 13 26 9 28 9 36 8 44 6 52 6 60 3 68 4 75 1 83 1 79H747l-4-83-10-94-16-86-22-79-28-72-34-64-39-57L548-5 496-45 440-76l-5 8 49 39 43 44 38 49 32 56 28 62 22 69 17 75 12 83 6 89 1 80H521v22H683V842l65-11 16-11-16-9V6e2H896l33 27 59-49-27-16-1-64-2-84-3-76-4-70-6-62-7-54-8-48-9-41-12-35L895 1l-7-12zM91 371l65-32H396l32 27 59-49-27-21V7L396-25V7H156V-31L91-63V371zm305-54H156V28H396V317zm57 158-9 30-7 19-73-21-90-22-118-26-79-16-9-19-13 14-19 63 75 7 12 2 64 206 19 71 15 63 3 14 61-26 12-15-19-5-30-83-46-108-35-74-21-37-2-4 214 24 49 5 25 1-9 24-13 27-28 54-48 79 7 6 25-19 23-22 42-49 36-54 16-28 28-61 12-32-3-24-19-15-24 2-16 19-8 30z"/><glyph glyph-name="undefined" unicode="𠡈" horiz-adv-x="1024" vert-adv-y="918" d="M779-28 757-40l-11-5-12-4-23-6-12-3-12-1-13-1H663v32L555-12V4H671l18 2 8 2 17 4 8 4 16 7 21 13 12 12 10 14 11 17 9 20 8 24 7 26 6 29 4 33 2 24H512l-28-54-40-57-47-50-52-43L287-5 223-35 153-58 77-73 75-63l71 25L211-9l57 34 52 38 45 43 39 48 33 54 12 27H130v21H459l5 11 21 64 15 67 2 12 62-22 14-14-20-7-14-54-22-57H829l32 27 60-48-27-16-3-1-1-13-4-36-7-34-8-31-10-29-12-26-14-24L818 4 8e2-13 779-28zM490 875l50-41 7-17-25 1-55-53-32-29-3-4H754l32 27 59-48-27-22V395l-64-33v65H270V362l-64-32V764l64-32H416l8 13 44 84 17 37v1l5 8zM754 569H270V448H754V569zm0 142H270V590H754V711z"/><glyph glyph-name="undefined" unicode="𠡉" horiz-adv-x="1024" vert-adv-y="918" d="M885-9l-9-11-9-9-9-9-12-7-11-6-12-4-13-4-13-1-14-1v32L676-13V3H783l8 1 6 1 7 1 5 2 5 3 9 7 5 4 8 12 8 19 8 28 8 36 7 44 6 52 5 60 4 68 3 75 1 83 1 79H755l-4-84-12-93-18-87-26-79-32-72-40-65-46-56L524-6 465-46 399-76l-4 9 58 39 52 44 45 50 39 55 33 62 26 69 20 75 14 82 8 89 1 80H554v22H692V842l64-11 16-11-16-9V6e2H887l32 27 59-49-27-16V498l-2-84-3-76-4-69-5-62-6-54-7-48-9-40-11-35L892 2 885-9zM257 823l65-11 16-10-16-10V616h98l54 54 64-54V595H322V362h79l33 27 59-49-27-21V60L401 28V60H172V-4L108-37V394l64-32h85V595H57v21H257V823zM172 340V82H401V340H172z"/><glyph glyph-name="undefined" unicode="𠡊" horiz-adv-x="1024" vert-adv-y="918" d="M760-5l-9-10-20-15-11-7-11-5-12-5-12-3-13-3-13-1-13-1v32L539-6V10H646h8l16 2 7 3 6 2 12 7 6 4 12 11 4 6 6 10 6 17 6 20 5 26 5 29 5 34 4 38 4 43 3 33H501l-24-82-31-70-39-61-47-51-54-42-62-31-69-21-74-12-1 10 70 21 61 28 54 34 46 42 39 49 31 57 25 64 16 65H168v22H446l9 67 4 103 64-14 16-11-17-10-6-74-11-61H761l33 27 59-49-27-16-2-1-1-22-9-83-5-36-6-32-6-29-7-24-8-22-10-19L760-5zm87 646h-1l6 5 43-48 3-18-22 5-126-99 13-9 45-27 46-25 49-23 86-36-61-51-54 26-51 28-47 30-45 33-42 36-38 37-35 40-31 42-27 44-22 43H488l-20-35-43-61-50-57-54-52-61-48-67-45-73-39-79-35-4 9 73 44 67 46 61 47 55 51 49 53 43 56 37 59 3 7H82v21H436l17 33 25 64 23 76 59-26 13-14-20-6-17-51-31-68-4-8H829l53 54 65-54V674H551l25-30 34-38 35-35 37-33 40-32 15-11 76 102 34 44zM238 520l-4 12-6 12-7 12-20 27-40 45-17 14 5 8 20-10 20-9 36-21 16-11 15-12 12-12 12-13 11-13 9-15V510l-17-18H258l-17 18-3 10z"/><glyph glyph-name="undefined" unicode="𠡋" horiz-adv-x="1024" vert-adv-y="918" d="M783-27l-10-7-22-11-23-8-12-3-12-3-12-1-12-1-13-1v32L560-13V3H667l18 1 17 3 16 4 15 7 16 9 11 9 11 11 10 15 10 18 8 21 8 24 6 28 4 31 4 34 1 26H519l-31-56-43-59-51-52-57-45L273-6 203-37 127-60 43-75l-2 9 79 26 72 30 64 35 57 40 50 45 43 50 36 56 13 28H103v21H466l5 11 23 67 16 72 3 10 61-22 13-14-19-7-16-57-23-60H822l32 27 60-48-27-17h-1l-1-14-4-37-5-35-7-32-9-29-10-27-13-25L821 7 804-12 783-27zM7e2 375v16H815l5 1 3 1 1 1 1 1 1 1 2 5 1 4V798H210V363l-65-32V852l65-33H829l32 27 60-48-27-22V412l-1-14-2-13-4-13-7-12-9-11-11-9-12-6-13-5-13-2-14-1v33L7e2 375zM332 739l65-32H627l32 27 59-49-26-21V488l-65-33v65H397V455l-65-32V739zm295-54H397V541H627V685z"/><glyph glyph-name="undefined" unicode="𠡌" horiz-adv-x="1024" vert-adv-y="918" d="M367 546l63-20 15-13-19-7-12-65-21-80-26-74-31-69-36-64-41-57-46-52L163 0 107-39 46-70l-4 8L95-22l48 44 44 47 39 52 35 57 30 61 25 66 21 72 17 76 11 77 2 16zM915 19l32 135h11L947 19 967 6l13-19-13-19-20-13H480l-14 1-14 2-13 4-12 7-11 9-8 11-7 12-5 13-2 13V41 353l64-11 16-11-16-10V81l37 26 41 37 36 41 31 47 26 51 21 58 16 63 11 70 5 76 1 66H530v22H683V866l65-11 16-10-16-10V638H887l32 26 59-48-27-16V548l-2-71-3-66-3-58-5-52-6-46-7-39-9-34-10-28-13-23-9-10-9-9-10-9-11-7-11-6-12-6-11-3-13-3-13-2-13-1v33L673 124v16H781h7l8 1 13 4 6 2 5 4 5 3 6 5 5 5 5 6 6 11 7 21 8 28 6 35 6 43 5 50 3 57 3 63 1 71 1 67H747l-3-70-11-80-15-74-21-67-27-61-33-54-38-48-43-39-49-33-49-21V34l1-4 2-5 2-2 5-2 5-1 7-1H915zM237 338l-9 16-12 18-14 18-16 18-39 36-74 58 5 9 32-12 29-12 28-14 15-10 7 17 39 102 16 55 3 12h-1l5 13 58-29 12-16-21-4-8-16-21-35-37-55-42-49 23-17 22-16 19-17 18-19 15-19 13-21 1-24-15-19-25-1-19 15-7 18zM46 675v22H267V860l65-11 16-10-16-10V697H455l44 48 54-48V675H46z"/><glyph glyph-name="undefined" unicode="𠡍" horiz-adv-x="1024" vert-adv-y="918" d="M882-12l-9-10-9-9-11-8-10-7-12-6-13-4-12-3-13-1-13-1v32L672-13V3H780l7 1 7 1 13 3 5 3 5 3 5 4 4 4 5 5 5 7 9 19 11 28 9 36 8 44 7 52 6 60 4 68 4 75 1 83 1 79H732l-4-83-11-94-17-87-24-79-30-72-36-64-42-57L519-6 464-45 404-76l-4 8 52 40 47 43 41 50 35 55 29 62 25 69 18 75 12 83 7 89 2 80H490v22H668V842l64-11 17-11-17-9V6e2H896l33 27 59-49-27-16-1-64-2-84-4-76-4-70-6-62-7-55-9-48-11-41-12-35L890-2l-8-10zM67-17 46 45 252 71V229H74v22H252V417l64-11 16-10-16-10V251h89l54 53 64-53V229H316V79L456 96l50 5 51 4 2-9-49-15-99-26L264 22 89-13 80-31 67-17zM416 418l-46 23-43 27-38 31-32-26-49-32-52-27-56-22-59-17-3 9 54 27 50 28 47 31 43 35 27 26-34 43-24 43-20 46-14 50-8 48H74v22H415l32 27 60-49-27-16-12-5-18-38-32-55-34-50-39-46-14-14 28-19 39-20 42-17 90-26-63-56-51 19zm-8 343H170l18-41 22-44 25-40 26-36 30-31 2-1 14 16 33 44 29 49 26 51 13 33z"/><glyph glyph-name="undefined" unicode="𠡎" horiz-adv-x="1024" vert-adv-y="918" d="M867-11l-8-11-9-9-11-8-10-7-12-5-13-4-12-4-13-1-13-1v32L658-13V3H766l7 1 7 1 12 3 5 3 5 3 5 4 4 4 5 5 4 7 10 19 9 28 8 36 9 44 6 52 5 60 5 68 3 75 1 83 1 79H724l-3-83-11-94-16-86-22-80-29-71-34-65-41-56L522-5 470-45 412-76l-4 8 50 39 43 44 39 50 33 55 28 62 23 69 17 75 12 83 6 89 1 80H494v22H660V842l65-11 16-11-16-9V6e2H878l32 27 59-49-27-16-1-64-2-84-3-76-4-70-6-62-7-54-8-48-10-41-12-35L875 0l-8-11zM59 38 35 98l96 19 225 51 46 12 96 22 3-10-90-40-90-34L188 74 102 49 80 43 73 24 59 38zm43 747 64-32H386l32 27 59-49-27-21V270l-64-32v43H166V217l-64-33V785zM386 513H166V303H386V513zm0 218H166V534H386V731z"/><glyph glyph-name="undefined" unicode="𠡏" horiz-adv-x="1024" vert-adv-y="918" d="M885-11l-9-10-9-9-10-8-11-7-12-6-12-4-13-4-13-1-13-1v32L675-13V3H783l7 1 7 1 6 1 6 2 5 3 5 3 5 4 4 4 4 5 5 7 9 19 9 28 8 36 8 44 6 52 5 60 5 68 3 75 2 83v79H745l-4-83-10-94-16-86-22-79-27-72-34-64-39-57L547-5 496-45 440-76l-4 8 48 39 43 44 37 49 32 56 27 62 22 68 17 76 12 83 6 89 1 80H520v22H681V842l65-11 16-11-16-9V6e2H892l32 27 59-49-26-16-1-64-2-84-3-76-4-70-5-62-7-54-9-48-9-41-11-34L892 1l-7-12zM74 1 48 60 153 85l115 26V347H87v22H268V605H148l-5-16-16-38-17-38-19-36-21-35-24-32-8 4 27 75 12 37 22 77 9 39 15 82 5 42 5 53 63-18 15-13-19-8-4-24-9-43-11-42-12-41-1-3H268V858l64-11 17-10-17-10V627h56l54 54 65-54V605H332V369h50l54 54 64-54V347H332V125l93 19 43 8 43 7 3-10-81-33L214 43 96 7 89-12 74 1z"/><glyph glyph-name="undefined" unicode="𠡐" horiz-adv-x="1024" vert-adv-y="918" d="M630-57l-22-4-12-2-11-1-11-2H562l-11-1H539l-11-1v33L421-19V-3H528h10 10l10 1 29 3 20 3 20 5 12 4 11 6 10 10 10 14 9 17 9 22 6 27 6 30 3 35 2 28H343l-12-44-70-15 53 2e2H71v21H835l53 54 65-54V343H381L349 223H706l32 27 59-48-27-17h-2V169l-4-38-6-36-9-32-11-29L725 9 709-13 689-32 666-46l-24-8-12-3zM469 504l-6-12-8-11-9-10-11-8-11-7-13-5-12-4-13-2-14-1v32L265 492v17H372h7l12 2 7 5 3 2 3 3 4 5 2 5 3 7 4 13 4 15 4 16 5 36 2 20 4 44 1 39H302l-14-47-20-52-25-47-30-43-34-37-38-34-43-27-46-23-5 9 40 31 35 32 31 35 27 38 23 41 19 44 15 48 7 32H77v21H248l8 54 3 59v13l64-16 16-11-18-10-5-42-9-47H437l32 27 59-48-27-16-1-25-3-48-5-43-4-20-4-18-5-18-5-16-5-13zM587 799l65-32H856l32 26 59-48-26-21V494l-65-32v64H652V462l-65-32V799zm269-54H652V548H856V745z"/><glyph glyph-name="undefined" unicode="𠡑" horiz-adv-x="1024" vert-adv-y="918" d="M773-46l-11-5-11-4-24-6-12-2-12-2-12-1-12-1v33L571-18V-2H679l17 1 9 1 8 2 9 2 8 2 16 7 7 4 8 5 11 7 10 10 9 13 9 15 7 19 7 22 6 24 4 28 3 31 1 22H538l-31-52-42-53-49-47-55-41-61-35-68-27-74-21L77-76l-2 9 77 24 69 28 62 32 55 36 48 42 41 45 34 50 12 23H136v21H484l6 11 22 60 16 65 2 10 60-23 14-13-19-7-15-51-22-52H829l32 27 60-48-27-16-2-1v-9l-4-35-5-32-7-29-8-27-10-25-13-22L831-3 814-20 795-34 773-46zM216 309l-24-6-21 12-7 24 3 18 1 17-2 15-5 14-7 14-12 13-15 13-20 13-24 12-28 9 1 10 31-4 29-4 26-8 16-8L270 587l70 72 41 40 7-6L234 474l-25-39-5-10 11-17 9-24 4-26V330l-12-21zm634 26-20-15-22-12-12-5-11-4-13-2-12-2-13-2-12-1v33L627 341v16H735l8 1 16 2 15 4 7 3 14 7 7 5 6 5 12 12 11 16 11 22 10 26 10 32 8 36 7 41 6 45 4 51 3 42H527l-35-32-29-22-29-21-32-18-34-16-4 8 52 49 47 49 42 52 19 27 17 28 16 29 12 25v1l5 10 55-35 9-17-20-1-29-43-22-29-20-22H890l33 27 59-49-27-16h-2l-1-31-5-52-6-48-8-44-9-40-10-36-13-32-14-28-17-25-20-20zM711 599l64-54V524H404v21H657l54 54zM175 625l-5 7-9 7-10 8-13 7-31 16-39 17-23 7 2 9 24-3H93l21-2 38-5 16-4 16-4 14-5 13-6 13-8 9-23-9-23-22-9-23 8-4 6zm83 148-6 7-20 15-26 16-52 24-20 7 1 9 22-2 22-1 38-4 18-3 16-4 15-4 14-6 13-6 13-7 10-22-7-23-23-10-23 7-5 7z"/><glyph glyph-name="undefined" unicode="𠡒" horiz-adv-x="1024" vert-adv-y="918" d="M875-13l-8-10-10-9-10-7-11-7-12-6-12-4-13-3-13-1-13-1v32L666-13V3H773l8 1 7 1 12 3 6 3 5 3 5 4 5 4 4 5 5 7 10 19 10 28 10 36 8 44 7 52 6 60 5 68 3 75 3 83v79H722l-4-84-11-93-18-87-24-79-30-72-38-64-43-57L504-6 449-45 387-76l-5 9 55 39 48 44 42 49 36 55 30 62 24 69 19 75 13 83 8 89 1 80H475v22H658V842l64-11 16-11-16-9V6e2H892l32 27 59-49-26-16-1-64-2-84-3-76-5-70-7-62-7-55-9-48-11-42-13-34L883-2l-8-11zM276 880l55-36 9-17-22-1-9-13-38-46-29-32-17-15-17-15-3-3H372l32 27 60-48-27-22V444l-65-32v64H148V331H390l32 27 59-48-27-22V68L390 35V78H148V14L84-18V734l64-32h40l48 89 31 67 4 10v1l5 11zM390 310H148V1e2H390V310zM372 681H148V498H372V681z"/><glyph glyph-name="undefined" unicode="𠡓" horiz-adv-x="1024" vert-adv-y="918" d="M884-10l-8-10-9-10-10-8-11-7-12-6-12-4-13-4-13-1-13-1v32L675-13V3H783l7 1 7 1 12 3 5 3 4 3 5 4 4 4 4 5 5 7 8 19 9 28 8 36 7 44 6 52 5 60 4 68 3 75 1 83 1 79H751l-4-83-10-93-15-87-21-79-27-71-31-65-39-56L561-5 513-45 459-76l-5 8 46 39 40 44 36 49 31 55 25 62 21 69 16 76 11 82 6 90 1 80H535v22H687V842l64-11 16-11-16-9V6e2H888l33 27 59-49-27-16-1-64-2-84-3-76-4-69-5-62-6-55-8-47-9-41-11-34L891 2l-7-12zM438 11 422 35 403 59 382 82l-24 22-11 9-24-35-43-45L232-5 178-35 120-58 56-71l-2 9 59 23 52 29 46 33 40 39 36 44 22 36-37 25-54 32-18-60-71-13 82 280H55v22H218l56 192 59-29 12-15-18-4-42-144H428l54 54 64-54V406H450l-13-73-20-74-25-67-22-42 16-10 29-21 27-23 24-24 23-26 19-29 3-24-15-19-24-4-20 15-14 26zM385 406H279L222 212l25-7 38-13 36-15 4-2 17 37 20 63 15 70 8 61zM153 681v-2l2-23V634l-2-23-4-22-6-22-8-23-10-21-19-15-25 3-14 20 3 24 11 16 10 17 8 17 8 18 6 18 5 19 4 20 2 20 3 22v23l9 1 7-22 7-22H289V858l64-11 17-10-17-10V702H474l32 27 59-48-27-17-12-5-4-7-26-47-21-30-35-47-8 5 7 18 14 54 9 34 8 31 1 11H153z"/></font>
</defs>
</svg>
