<svg xmlns="http://www.w3.org/2000/svg"><defs><font name="Jigmo Regular" horiz-adv-x="1024" vert-adv-y="1024"><font-face font-family="Jigmo" font-weight="400" font-stretch="normal" units-per-em="1024" ascent="995" descent="169"/><glyph glyph-name="undefined" unicode="㸖" horiz-adv-x="1024" vert-adv-y="918" d="M389 106l-21 50-23 48-23 48-16 30-18-43-35-70-37-61-40-55L134 7 89-31 42-60l-6 8L75-15l38 41 35 48 33 55 32 61 29 68 27 75 2 8-2 4-28 45-31 45-30 44-32 44 7 7 40-38 38-39 36-42 17-21 8 26 23 89 20 91 2 15 62-23 13-14-18-6-20-78-27-91-22-64 8-11 30-47 28-47 27-49 25-50 23-52V54L450 37l-24 1-18 17-19 51zM443-25V-4h96V833l65-32H823l32 27 59-48-27-22V-4h21l33 38L984-4V-25H443zM823 251H604V-4H823V251zm0 264H604V272H823V515zM178 802l58-29 12-16-20-4-5-12-14-30-15-30-16-31-18-28-19-28-20-28-21-27-23-25-25-24-7 6 16 30 16 29 15 30 14 29 14 30 12 29 12 30 12 30 10 30 7 25v1l5 13zm645-22H604V537H823V780zM436 595l-12 32-13 31-14 29-13 26-14 25-14 23-15 22-14 21-15 20 6 8 23-13 22-16 21-19 19-22 19-24 19-27 18-28 17-31 17-33 15-35-1-25-17-17-25 1-17 18-12 34z"/><glyph glyph-name="undefined" unicode="㸗" horiz-adv-x="1024" vert-adv-y="918" d="M336 298l65-32H623l32 26 59-48-27-21V67L623 35V89H401V51L336 19V298zm287-54H401V110H623V244zm55 165 53-49V339H293v21H634l44 49zm172 71-17 5 49-40-27-21V19L854 6 852-8l-5-12-7-13-8-11-11-8-12-7-13-4-14-3-13-1v33L661-18V-2H769h6l5 1 5 2 2 2 2 5 1 5v6V445H234V-31L169-63V491l-35-9-83-15-3 9 80 26 76 26 71 27 67 28 62 30 58 31 6 4-36 26-43 38-38 41 7 7 45-30 48-30 50-28 4-2 10 6 49 34 44 34 39 37 2 1 42-49 3-19-20 6-28-23-50-35-33-21 46-20 59-22 62-19 66-18 69-16 73-14 50-9-64-61-74 18zM517 616l-32-17-62-28-65-25-71-24-74-21-33-8 54-26H790l28 22-39 12-67 22-64 25-60 28-56 30-15 10zM392 867l38-51V796l-18 8-13-8-31-19-32-18-33-18-34-16-35-16-36-15-37-13-38-13-39-11-4 9 35 21 34 19 33 20 33 20 32 19 31 20 30 20 29 20 28 21 23 18h-1l5 3zM851 705l-16 16-19 16-21 15-24 15-28 15-30 15-32 15-36 15-38 15 2 10 42-6 38-7 36-9 34-10 31-11 30-13 26-14 25-16 22-16 20-18 7-24-11-22-23-8-22 11-13 16z"/><glyph glyph-name="undefined" unicode="㸘" horiz-adv-x="1024" vert-adv-y="918" d="M361-9V8H469h6l5 1 5 2 2 2 2 5 1 5v6V228H71v21H835l53 54 65-54V228H555V29l-1-13-2-14-5-13-7-12-8-11-11-8-12-7-13-5-14-2-13-1v32L361-9zM850 492l-41 11 51-42-27-21V324l-64-32v32H254l-64-32V507l-56-12-83-15-3 9 81 25 75 26 71 26 67 28 62 29 59 29 5 3-35 25-44 37-38 40 7 7 45-29 48-29 49-26 5-3 11 6 48 33 44 34 36 31 5 5 41-49 4-19-20 6-29-22-49-34-32-18 45-19 59-22 62-19 66-17 69-16 73-13 50-10-64-60-74 18zM383 461H254V346H383V461zm193 0H447V346H576V461zm193 0H640V346H769V461zM517 624l-32-16-62-27-66-25-70-23-74-21-12-2 53-27H769l28 23-18 5-67 22-63 25-60 27-56 29-16 10zM392 869l31-43 7-8 1-20-19 8-13-8-31-18-32-18-33-16-35-16-34-16-36-14-37-13-38-12-39-11-4 10 35 20 34 19 34 19 32 19 33 19 30 19 30 20 29 20 28 20 23 17-1 1 1-1 4 3zM851 710l-16 16-18 15-22 15-24 15-27 14-30 15-33 14-36 15-38 15 2 9 42-5 38-6 36-9 34-10 31-11 29-12 27-14 24-15 22-16 20-17 8-24-10-22-24-8-22 11-13 15z"/><glyph glyph-name="undefined" unicode="㸙" horiz-adv-x="1024" vert-adv-y="918" d="M857 507l-29-32-58-53-65-51-53-37H871l44 49 54-49V313H619l-66-39-86-46-19-9H756l32 27 59-48-27-22V-39L756-72v54H359V-55L295-88V151l-24-10-109-39L46 64l-4 9 113 47 105 48 35 17v67l64-33h6l82 45 83 49H55v21H404V441H168v21H404V564l65-11 16-11-16-9V462H598l54 54 64-54V452l15 13 52 52 7 8-10 3-67 21-64 24-60 26-56 28-16 10-32-16-62-26-66-24-70-22-74-20-79-17-84-14-1 9 80 25 75 25 71 26 68 26 62 28 58 29 4 2-34 24-44 36-38 39 7 8 45-29 47-28 50-26 4-2 12 7 48 31 44 33 39 34 2 1 41-49 3-20-20 7-28-22-49-32-30-17 43-18 58-20 63-19 66-17 69-15 72-12 51-10-63-60-68 15zM756 90H359V4H756V90zm0 108H403l-30-14-14-6V111H756v87zm-76 42-2 5-4 6-4 7-6 6-7 7-8 7-9 7-10 7-12 5 3 9 12-2 13-1 13-1 12-2 11-3 11-2 10-4 10-4 10-6 8-6 7-24-12-21-24-7-21 12-1 5zm24 201H469V334h93l43 29 67 50 32 28zM392 877l23-33 16-18 1-20-19 8-14-8-32-18-32-17-33-16-34-15-34-15-36-14-37-13-38-11-39-10-4 9 35 20 34 19 34 18 33 19 32 18 31 19 29 19 29 20 28 19 23 17 4 3zM851 721l-15 14-19 15-22 15-24 15-27 14-30 14-33 14-36 14-38 15 2 10 42-5 38-7 36-8 34-9 31-11 29-12 26-13 25-14 22-15 19-18 9-23-10-22-23-8-23 10-13 15z"/><glyph glyph-name="undefined" unicode="爷" horiz-adv-x="1024" vert-adv-y="918" d="M679 1e2v16h75l6 1 5 1 5 1 2 2 2 5 1 5v7V342H485V-40L421-72V342H184v21H775l33 27 59-48-27-22V138l-1-14-2-13-5-13-7-13-8-10-11-9-12-7-13-4-14-2-13-1V84l-75 16zM848 388l-71 24-67 28-64 31-60 34-56 37-14 12-28-19-63-36-66-32-71-31-74-27-79-25-84-21-3 10 80 31 75 31 71 33 67 35 62 36 57 38 14 10-43 38-43 47-38 50 8 6 46-40 48-39 50-36 4-2 7 6 48 41 45 43 39 45 2 3 47-45 5-19-20 4-30-31-50-44-45-34h1l56-31 59-28 62-26 66-22 69-21 72-17 47-11-63-58-75 22zM391 855l42-48 3-19-20 5-14-11-31-24-33-23-33-22-34-22-35-20-36-19-38-19-38-16-40-15-5 8 35 24 34 24 33 24 33 23 31 24 31 24 30 25 29 25 28 25 22 23 3 2 1 2h2zM850 667l-17 20-18 19-22 19-24 19-27 18-30 18-32 17-35 18-38 18 3 9 41-8 39-10 37-12 34-14 32-16 29-16 27-19 25-20 22-21 20-23 5-24-13-21-24-5-21 13-13 21z"/><glyph glyph-name="undefined" unicode="𤕎" horiz-adv-x="1024" vert-adv-y="918" d="M351-25V-9H458l7 1 5 1 3 1 1 1 3 2 1 5 1 4 1 7V185H55v21H480V346H216v21H689l54 54 65-54V346H544V206H851l53 54 65-54V185H544V13L543-1l-2-13-4-13-7-12-9-11-11-9-12-7-13-4-13-2-14-1v32L351-25zM848 395l-71 25-68 29-63 31-60 34-56 38-14 12-28-19-63-36-66-34-71-31-74-28-79-25-84-21-3 10 80 31 75 32 71 33 67 35 61 37 58 39 14 10-43 40-43 47-38 51 8 6 46-41 48-39 50-37 4-3 7 6 48 42 45 44 39 46 2 2 47-44 6-18-20 3-31-32-49-44-46-36h1l56-32 59-28 62-26 66-24 69-20 72-18 47-11-63-58-75 22zM391 870l42-48 3-19-20 5-14-11-31-25-32-24-33-22-35-22-35-21-36-20-37-18-39-18-40-15-5 9 35 25 34 23 33 25 33 23 31 24 31 25 30 25 28 26 28 25 27 27 2 1zM850 679l-17 20-18 20-22 19-24 19-27 19-30 17-32 18-36 19-37 18 3 9 41-9 39-10 37-12 34-15 32-15 29-18 28-18 24-20 22-22 20-23 5-25-13-20-24-5-21 13-13 21z"/><glyph glyph-name="undefined" unicode="𤕏" horiz-adv-x="1024" vert-adv-y="918" d="M189 0V-38L125-70V269l64-10 17-11-17-10V22H480V364l64-11 16-11-16-9V22H835V269l64-10 16-11-16-10V-22L835-54V0H189zM846 328l-71 29-67 33-64 36-59 40-56 43-14 12-26-20-62-43-67-39-71-37-75-33-79-29-84-25-3 9 79 35 75 37 71 37 66 41 62 42 58 44 17 15-46 50-43 54-37 58 8 6 46-49 48-47 51-43 3-2 5 5 49 48 44 50 36 49 1 1 3 4 2 3 50-42 6-18-20 2-31-38-50-51-51-47 6-4 57-37 59-33 62-31 66-27 68-24 73-21 43-12-63-56-75 25zM389 868l46-47 4-18-19 4-16-15-31-29-32-27-34-27-35-25-35-25-36-24-38-22-39-20-40-18-5 8 68 55 33 26 33 27 31 28 30 28 30 29 29 29 28 30 23 27 5 6zM849 654l-17 24-18 22-22 23-24 22-28 21-29 21-32 19-35 20-37 21 3 9 42-11 39-13 37-15 35-17 31-18 30-21 27-22 25-23 23-26 19-27 4-24-15-20-25-3-19 14-14 24z"/><glyph glyph-name="undefined" unicode="𤕐" horiz-adv-x="1024" vert-adv-y="918" d="M833-46 751-24 674 4 603 38 537 76 513 94 451 52 377 12 3e2-22 218-47 134-66 45-76l-2 9 86 21 81 26 76 31 72 37 68 42 46 35-49 44-48 54-41 59-33 64 8 5 43-56 47-51 51-47 54-41 3-2 42 37 55 60 51 65 47 71 3 4 52-38 7-18H744l-40-56-57-67-61-60-33-27 10-6 64-32 68-27 74-22 78-19L931 6l53-8-63-62-88 18zM384 507l46-46 4-19-19 5-16-15-32-29-32-28-33-27-35-26-35-25-37-24-37-23-39-22-40-19-5 8 34 29 34 28 32 28 33 27 31 29 31 28 30 29 29 30 28 30 23 26 5 6zM844 294l-17 24-19 22-21 23-24 21-28 21-29 21-33 20-35 20-37 21 3 9 42-11 40-13 37-15 34-17 32-19 30-20 27-22 25-24 22-25 20-27 3-25-14-19-25-4-19 15-14 24zM80 414 60 428l-3 25 15 20 10 4 10 7 10 8 9 12 9 14 7 16 7 20 6 22 5 25 3 27h10l3-28 2-16H488V710H101v21H488V871l64-10 16-11-16-10V731H821l54 54 64-54V710H552V584H891l4 4 1 3 2-1 25 21 59-48-26-16-24-10-11-11-11-10-13-12-13-12-14-11-15-13-17-12-16-15-7 7 13 17 10 18 19 33 9 14 7 14 7 13 3 6H164l1-14-2-23-4-22-6-21-8-19-11-18-13-16-17-13-24-3z"/><glyph glyph-name="undefined" unicode="𤕑" horiz-adv-x="1024" vert-adv-y="918" d="M716 455l64-54V380H689V218H818l54 54 65-54V197H689V-45L625-77V197H397l-3-31-12-40-17-37-23-34-29-30L278-2 238-26 194-46 144-63 88-76l-3 9 51 23 45 24L220 5l33 26 27 26 22 28 15 29 11 30 6 31v22H87v21H334V380H243v21H662l54 54zm-91-75H399V218H625V380zm224 33-71 24-68 27-64 30-59 33-56 36-15 11-29-18-62-35-66-31-71-30-74-26-80-24-83-20-3 9 80 31 75 31 71 31 67 34 62 35 57 37 13 9-42 37-43 45-38 49 8 7 46-40 48-37 50-35 3-2 9 6 48 40 44 42 39 44 2 2 47-45 5-19-20 4-30-30-50-42-43-33 55-29 59-27 62-25 66-22 69-20 72-16 47-12-63-58-74 22zM391 869l41-49 3-20-19 7-14-11-31-23-33-23-33-22-34-21-35-19-37-19-37-17-39-17-39-14-4 9 34 24 34 23 33 22 33 24 31 23 31 23 30 24 29 25 28 24 26 26 2 1zM850 684l-17 19-18 19-21 18-25 19-27 17-30 17-32 18-35 17-38 18 3 9 41-8 39-9 37-12 34-13 32-15 29-16 27-18 25-19 22-21 20-22 5-24-13-21-24-5-21 12-13 20z"/><glyph glyph-name="undefined" unicode="𤕒" horiz-adv-x="1024" vert-adv-y="918" d="M630-23V-6H738h6l5 1 3 1 2 1 2 2 2 5 1 5v6V346H93v21H845l34 34-31 9-71 24-67 28-64 30-60 34-56 36-14 12-29-19-62-35-66-32-71-31-74-26-80-25-83-20-3 10 80 30 75 31 71 33 67 34 62 36 57 37 13 10-42 38-43 46-38 49 8 7 46-40 48-38 50-36 4-2 7 6 48 40 45 43 36 41 5 6 47-44 5-19-20 3-30-30-50-43-44-34 56-30 59-28 62-25 66-23 69-20 72-17 47-11-56-51 34-28V346H824V15L823 2l-2-14-5-13-7-12-8-11-11-9-12-6-13-5-14-2-13-1v32L630-23zM219 312l65-32H509l32 26 59-48-27-21V77L509 45V98H284V61L219 28V312zm290-54H284V120H509V258zM391 873l41-49 4-19-20 6-14-12-31-23-33-23-33-22-34-21-35-21-36-19-38-18-38-16-40-15-5 9 35 24 34 23 33 23 33 24 31 23 31 24 30 25 29 25 28 25 22 22 2 2 2 2h1l1 1zM850 685l-17 20-18 19-22 19-24 18-27 19-30 17-32 17-35 18-38 18 3 9 41-8 39-10 37-12 34-13 32-16 29-16 27-18 25-20 22-21 20-22 5-25-13-21-24-4-21 13-13 19z"/><glyph glyph-name="undefined" unicode="𤕓" horiz-adv-x="1024" vert-adv-y="918" d="M254-23V-6H362h6l5 1 4 1 1 1 2 2 1 2 1 3 1 5 1 6V172l-3-2-30-32-32-30-34-28-35-26-37-23-39-21L134-9 92-24 48-37l-4 9L83-6l38 23 35 23 34 25 32 26 31 27 28 29 28 30 25 32 3 3H175l-15-45-72-11 77 231 58-30 12-16-19-4-34-103H384V404H67v21H438l54 54 65-54V404H448V234h18l54 54 65-54V212H448V15L447 2l-2-14-5-13-6-12-9-11-11-9-12-6-13-5-14-2-13-1v32L254-23zM955 51l-9-9-10-8-11-7-11-7-12-4-12-4-12-3-13-1-14-1V39L787 55V72h72l8 1 6 1 7 2 6 3 6 3 5 3 11 10 6 6 2 2 3 7 2 10-2 13-5 16-12 18-20 20-30 21-40 21-52 24-1-1-7 8 20 22 19 21 18 20 16 19 16 19 15 17 13 18 12 16 1 2H672V-35L607-67V468l65-33H895l3 3 3 6 2-2 13 11-66 17-71 22-68 24-64 26-59 30-56 32-16 10-30-17-62-30-66-28-71-25-74-23-79-20-83-17-3 9 80 28 76 27 71 29 67 30 62 31 57 33 9 5-38 30-43 40-38 44 7 7 45-34 48-32 50-30 4-2 10 6 48 36 44 37 39 38 2 2 44-48 4-19-20 5-29-25-50-37-37-24 49-23 59-23 63-22 66-19 69-18 72-14 49-10-56-52 55-45-27-16-21-9-14-14-16-15-18-15-18-16-20-16-21-15-23-16-24-15-10-6 47-6 47-15 38-19 29-22 21-24 14-25 7-25 1-24-5-21-9-19-9-10zM391 879l39-51 2-19-19 7-13-9-31-20-32-20-34-18-33-18-35-17-36-16-38-15-38-14-39-12-4 9 35 22 34 21 33 20 33 20 31 21 31 21 30 21 29 22 28 22 23 19 4 4zM851 710l-16 16-19 17-22 17-24 16-27 15-30 16-33 16-35 15-38 16 2 10 42-6 38-8 37-10 34-11 31-13 29-13 27-16 25-16 22-18 20-20 7-23-12-22-23-7-22 12-13 17z"/><glyph glyph-name="undefined" unicode="𤕔" horiz-adv-x="1024" vert-adv-y="918" d="M986-3 922-67 835-53 753-35 677-13 605 13 539 44 513 58 449 25 375-5 299-30 217-49 133-62 45-69l-2 9 86 18 82 21L288 4l72 29 68 33 37 22-40 29-48 42-41 47-34 50-3-2-34-19-35-19-36-18-37-17-39-15-40-14-4 8 35 24 34 22 33 22 33 23 32 23 30 22 30 23 29 23 28 24 23 20 1 1 3 3h1l40-50 2-19-19 7-13-10-64-43-21-14 41-40 46-38 50-35 54-31 5-3 44 32 55 45 51 51 43 51 6 7 48-44 5-18-20 3-38-42-57-51-61-46-21-13 62-24 69-21 74-17 79-14L986-3zM845 213l-16 18-19 18-22 18-24 17-27 17-30 16-32 16-36 17-37 17 2 9 42-7 39-9 36-11 34-12 32-13 29-15 27-17 24-18 22-19 20-21 6-24-12-21-24-6-21 12-13 18zM71 834l65-32H275l33 26 59-48-27-21V452l-65-32v64H136V420L71 388V834zM915 460l32 135h11L947 460l20-13 13-19-13-19-20-13H688l-14 1-13 2-13 4-12 7-11 9-9 11-7 12-4 13-2 13-1 14V630L362 619l-1 21 241 11V777l-36-3-56-4-60-3-63-2-1 9 61 13 59 12 55 10 53 10 49 10 45 9 43 9 39 9 37 8 28 7 5 2 1-7 57-47 2-16-24 11-23-4-35-6-37-5-41-5-44-5-47-5h-2V654l187 8 52 56 66-51 1-21-306-13V475l1-5 2-4 2-3 5-1 4-1 7-1H915zM275 780H136V506H275V780z"/><glyph glyph-name="undefined" unicode="𤕕" horiz-adv-x="1024" vert-adv-y="918" d="M888 18l33 135h10L921 18 940 5l13-19-13-19-19-13H254 240l-13 2-13 5-13 7-10 8-9 11-7 12-4 13-3 14V40 326l64-32H786l32 27 60-48-27-22V117L786 84v54H232V33l2-5 1-5 1-1h1l2-2 3-1 5-1H888zM480 273H232V160H480V273zm306 0H544V160H786V273zm64 187-71 21-25 9 35-29-26-21V353l-65-32v32H326l-65-32V495l-48-14-79-21-83-16-3 9 80 27 76 27 71 30 67 29 62 31 57 33 9 5-38 30-43 40-38 44 7 7 45-33 48-33 50-30 4-2 10 6 48 36 44 37 39 38 2 2 44-47 4-20-20 5-29-25-50-37-37-24 49-23 59-23 63-22 66-19 69-17 72-15 49-10-63-59-74 19zm-152 1H326V375H698v86zM516 603l-30-16-62-31-66-28-71-25h-1l40-20H698l23 19-10 3-64 27-59 29-56 32-16 10zM391 868l39-51 2-19-19 7-13-9-31-20-32-20-34-18-33-18-35-17-36-16-38-15-38-14-39-12-4 9 35 22 34 21 33 20 33 21 31 21 31 21 30 21 29 22 28 22 23 18 4 4zM851 699l-16 17-19 16-22 17-24 16-27 16-30 15-33 16-35 15-38 16 2 10 42-6 38-8 37-9 34-12 31-13 29-13 27-16 25-16 22-18 20-19 7-24-12-22-23-7-22 12-13 17z"/><glyph glyph-name="undefined" unicode="𤕖" horiz-adv-x="1024" vert-adv-y="918" d="M864-34 820-6 778 25 740 59 728 72 693 44 647 14 599-12 546-32 492-48l-3 9 49 25 47 27 43 31 39 32 30 29-23 30-29 42-24 45-21 47-14 47H474V-38L410-70V1e2l-13-4-43-14-42-12-40-10-38-10-36-9-35-8-33-8-31-6-7-2L83-2 70 13 50 75l11 1 29 3 31 3 32 4h4V418H60v22H495l44 48 54-48V418H474V337H840l32 27 59-48-27-17-12-5-17-35-30-51-33-47-37-43-9-9 10-9 38-27 40-26 42-22L940 4l32-14-61-50-47 26zM410 203H222V94l3 1 39 5 41 5 43 6 45 5 17 1v86zM833 316H598l23-36 27-42 29-39 31-35 22-22 8 9 30 41 28 46 25 49 12 29zm-423-6H222V224H410v86zm0 108H222V332H410v86zm440 48-71 21-68 23-63 27-60 29-56 31-16 10-30-17-62-29-66-27-71-25-74-23-79-19-83-17-3 9 80 27 76 27 71 29 67 29 62 31 57 32 8 5-37 29-43 40-38 43 7 7 45-33 48-31 50-30 4-2 10 6 48 35 44 37 39 37 2 2 44-47 3-20-20 6-29-25-49-37-36-23 48-22 59-23 63-21 65-20 70-16 72-15 49-10-63-59-74 19zM392 869l38-51 2-20-19 8-13-9-32-20-31-18-34-19-33-17-35-18-36-15-38-15-38-13-39-12-4 9 35 21 34 21 33 20 33 20 31 21 32 21 29 21 29 21 28 22 23 18 5 4zM851 702l-16 16-19 16-21 17-25 16-27 15-30 16-33 15-35 15-38 17 2 9 42-6 38-8 37-9 34-11 31-13 29-14 27-14 25-16 22-18 20-19 6-23-11-22-23-7-22 11-13 17z"/><glyph glyph-name="undefined" unicode="𤕗" horiz-adv-x="1024" vert-adv-y="918" d="M815-62 726-47 645-30 572-9 513 13 475-1 402-23 324-41 242-55l-86-9-90-4-1 9 88 15 84 17L316-7l74 23 66 25-5 2-48 31-39 35-29 38-17 37H2e2v22H723l14 13 3-3 19 17 59-49-26-16-30-12-34-28-57-38-61-34-25-12h3l70-16 78-13L823 5l95-7 58-5-64-66-97 11zM699 184H332l20-23 33-29 39-26 47-23 43-17 10 5 61 32 55 35 50 39 9 7zM850 512l-10 2 58-47-27-21V239l-64-32v64H223l-65-32V507l59-29 6 2 33 8 31 9 30 7 30 8 28 7 28 8 27 7 26 7 19 6 5 1 2-6 55-46 2-16-24 11-20-5-26-4-27-5-28-3-29-4-30-3-31-3-31-2-33-2-34-1h-3V391H380l54 54 64-54V369H223V293H807v76H563v22H807v76H568v22H807l31 26-58 16-67 21-64 23-60 26-56 29-16 9-32-15-62-27-66-23-70-22-74-20-79-17-84-14-1 10 80 24 75 25 72 25 67 27 62 27 58 29 3 2-33 24-44 35-38 39 7 8 45-29 47-27 50-26 5-2 11 6 49 32 43 32 36 31 5 4 41-49 3-20-20 7-28-22-49-32-30-16 42-18 59-20 63-18 66-17 69-15 72-13 51-9-63-60-75 17zM392 877l22-31 17-20 1-19-19 8-14-9-32-17-32-17-33-16-34-15-34-15-36-14-37-12-38-11-39-10-4 9 35 19 34 19 34 19 33 18 32 18 31 19 29 19 29 19 28 20 23 16 4 3zM851 722l-15 15-19 15-22 14-24 15-27 14-30 14-33 14-36 14-38 15 2 9 42-5 38-6 36-8 34-9 31-11 29-12 26-13 25-14 22-15 19-17 9-23-10-22-23-9-23 10-13 15z"/><glyph glyph-name="undefined" unicode="𤕘" horiz-adv-x="1024" vert-adv-y="918" d="M837-63 764-52 695-35 631-16 574 7 534 28l-2-1L464 0 392-23 315-42 233-57 147-68 56-74 55-64l89 17 84 19L306-8l74 24 67 26 37 17-9 6-40 34-34 39-18 30-7-6-32-22-34-21-36-20-38-18-41-16-43-14-46-12-3 9 41 21 39 22 37 21 33 22 32 22 29 24 27 24 24 24 22 25 16 22 1 2 3 3 2 3 16-15v20H175V223l-65-32V482l65-11 16-10-16-10V309h92V549l64-11 16-11-16-9V309h94V482l60-11 14-10-14-10V288l-52-26 25-22 6-19-21 3-10-12-6-6H699l12 13 3-3 21 17 59-48-27-16-29-12-30-26-54-39-59-34-5-3 3-1 55-18 60-14 66-11 71-8 76-4 60-4-64-67-80 9zM676 185H404l-11-9 24-23 38-29 41-27 32-16 40 23 53 36 48 38 7 7zM598 288V271l-59-29V482l59-11 15-10-15-10V309h95V549l64-11 16-11-16-9V309h92V482l64-11 16-10-16-10V255l-64-32v65H598zM851 530l-71 17-67 20-63 22-60 24-56 26-16 9-34-15-62-23-65-22-71-20-74-18-78-15-84-12-1 9 80 23 75 23 72 24 67 24 63 26 58 27-30 19-44 34-38 36 6 8 45-26 47-24 50-24 4-2 13 7 48 29 44 30 35 28 5 4 40-51 1-20-18 8-28-19-49-29-25-13 38-14 59-19 62-17 66-15 69-13 73-12 52-9-64-61-74 16zM393 873l15-24 26-28 1-18-20 8-18-10-31-16-31-15-34-15-34-14-34-13-36-12-37-12-38-9-39-9-3 9 35 18 35 18 34 17 32 18 32 17 31 17 30 18 29 18 28 18 27 19zM852 724l-16 14-19 13-21 14-24 13-28 13-30 13-33 14-36 13-38 14 2 10 41-4 39-6 36-7 33-8 31-10 29-10 26-12 24-13 22-14 20-15 10-22-10-23-22-9-23 8-13 14z"/><glyph glyph-name="undefined" unicode="𤕙" horiz-adv-x="1024" vert-adv-y="918" d="M867-57 848-46 825-34 798-22 768-10 735 1 699 12 659 24 616 37 570 49l2 10 48-3 44-3 42-6 39-6 36-8 33-8 30-8L872 7 897-3l23-12 13-20-4-25-21-13-25 4-16 12zM395 81l8-15 36-35 1-18-20 9-20-9L373 3 343-7 310-17l-36-9-38-10-41-9-43-9-46-7-50-7-3 9 47 17 44 16 42 15L224 3l36 14 33 13 30 14 27 12 24 13 17 9 4 3zM211 428l64-32H749l32 27 59-49-27-21V95L749 63V95H275V79L211 47V428zM749 188H275V117H749v71zm0 93H275V210H749v71zm0 93H275V303H749v71zM852 582l-71 15-13 3 18-15V563H550V468H839l44 49 54-49V447H103v21H485v95H249v22H668l32 32-49 15-60 20-56 22-17 8-36-13-61-19-65-18-70-16-75-14-78-12-83-9-1 9 80 20 76 21 72 19 67 21 63 23 50 19-22 12-44 28-39 31 5 8-25-10-32-12-34-11-35-10-35-10-37-9-37-7-39-6-3 9 36 16 35 15 34 16 32 14 33 15 31 15 30 15 29 15 28 15 23 13 4 3 8-15 36-35 1-18-20 8-25-11-31-12-6-3 44-19 47-20 50-19 4-1 15 7 49 24 44 25 40 27 18-28 21-24 1-18-19 8-30-18-49-24-12-4 26-8 59-15 62-14 66-12 69-11 73-9 54-7-64-63-74 13zm1 162-15 11-19 12-22 11-24 12-28 12-30 11-33 11-36 12-38 12 1 10 41-2 38-4 36-5 33-7 30-7 29-8 26-9 24-10 21-11 20-13 11-21-7-24-22-11-23 7-13 11z"/><glyph glyph-name="undefined" unicode="𤕚" horiz-adv-x="1024" vert-adv-y="918" d="M836-59 754-44 678-25 607-3 541 22 514 35 447 7 374-17 297-37 217-52 132-62 44-68v10l86 16 81 18L288-3l73 25 69 27 29 15-32 19-48 36-42 40-33 41-7-4-34-15-35-16-35-14-37-13-39-12-39-11-4 9 35 21 35 19 34 19 32 19 32 19 31 19 30 19 29 20 28 19 22 18 5 3 23-34 16-18 1-19-20 8-14-9-31-17-32-18-16-8 38-29 45-30 49-28 55-26 6-2 46 27 55 38 51 42 47 46 1 2 44-48 4-19-19 5-37-33-57-41-61-39-9-4 51-16 69-16 74-14L845 8l84-8 57-5-64-65-86 11zm10 221-16 15-19 15-21 14-24 15-28 14-30 14-33 14-35 15-38 14 2 10 41-5 38-6 37-8 33-10 32-11 29-11 26-13 24-14 22-16 20-17 8-23-10-22-23-8-22 9-13 15zM286 328V312l-64-32V579l-17-10-36-19-39-18-41-17-43-15-4 9 38 24 36 24 35 23 32 23 30 23 28 23 25 24 22 23 21 24 15 19 1 2H55v21H480V876l64-10 16-11-16-10V762H851l53 55 65-55V741H667l40-47 2-19-23 7-4-2-14-8-15-8-17-8-17-7-19-8-20-9-7-2H812l44 48 54-48V609H598V538H774l44 48 54-48V516H598V448H774l44 48 54-48V426H598V350H829l54 54 64-54V328H286zm248 98H286V350H534v76zm0 90H286V448H534v68zm0 93H286V538H534v71zM335 741l43-39 5-18-20 3-9-9-25-24-28-22-2-2H540l10 8 18 15 16 14 16 13 14 11 13 12 11 11 10 10 9 10 3 5 2 2H335z"/><glyph glyph-name="undefined" unicode="𤕛" horiz-adv-x="1024" vert-adv-y="918" d="M413 413v-1l-23-15-12-8-14-7-14-9-14-8-8-4h47l49 49-11 3zM923 523l33 134h10L956 523l19-13 13-20-13-19-19-13H874l-14 1-14 2-13 5-12 7-11 8-8 11-7 12-5 13-2 14v13V736H704l-2-23-8-43-13-40-16-37-21-33-24-29-30-26-32-20-36-17-39-11-3 8-32-27-43 17-3 2 30-31 5-18 56-46 28 5 48 9 48 8 47 9 45 9 45 8 45 9 43 10 43 10 36 9 5 1 2-7 57-46 2-16-24 11-23-5-43-7-44-7-45-6-46-5h-1V271h59l54 54 64-54V250H761V151H861l54 53 64-53V129H761V15L760 2l-2-14-5-13-6-12-9-11-11-9-12-6-13-5-14-2-13-1v32L567-23V-6H675h6l5 1 3 1 2 1 1 1h1l1 3 1 3 1 5v6V129H472v22H696v99H501v21H696v84l-28-3-47-3-49-2H523 493v-7H294V256h45l54 54 65-54V234H294V187l-2-25 8 1 48 5 51 6 53 4 55 4 2-9-53-15-52-13-50-12-48-10-20-5-2-12-11-36-16-32L236 9 211-16 183-36 151-53 116-65 77-72 74-62l34 16 29 19L162-8l21 21 16 23 13 25 10 27 3 16-8-1-42-9-40-9-38-8-14-3-9-19L61 69 40 131l10 2 37 4 38 5 41 5 42 5 22 3-1 30v2 47H91v22H229v84H51v21H170l-10 8v7l-2 6-2 8-4 7-4 8-6 9-6 9-8 9-8 9-12 8 5 8 12-5 13-4 13-4 12-4 10-6 11-6 9-6 9-8 9-8 7-9 2-24-11-12h97l5 6 11 14 10 14 18 24 9 12 7 10 7 11 7 9 2 5-1 1h1l-17 9-36 24-34 27-29 29-4 4-11-11-35-26-37-24-42-21-44-16-47-13-3 10 42 22 39 23 35 24 33 27 28 28 13 15-16 25-18 36-14 40-8 41 9 4 20-37 21-32 23-31 10-11 7 11 19 34 16 36 12 38 3 8 58-28 13-15-21-5-9-23-22-39-25-37-15-17 5-4 29-22 31-20 34-17 36-15 40-13 39-13-26-23 29 18 29 22 25 23 21 25 18 27 14 30 10 32 7 35 3 37 1 18H518v21H641v2V873l65-11 16-10-16-10V759l-1-2h83l32 27 59-48-27-22V538l1-5 2-5 2-2 5-2 5-1h7 49zM192 875l52-38 8-18H231l-16-17-15-17-17-16-18-15-19-14-19-14-21-12-21-11-23-11-5 8 17 17 17 17 15 17 15 17 14 17 12 17 12 17 11 17 10 17 7 13 5 9zM410 727l-7 13-8 14-10 14-11 13-12 15-13 14-15 15-17 15-18 14 5 8 21-9 22-8 19-11 19-10 17-11 17-13 15-12 14-13 12-15 12-14 2-25-14-19-25-3-19 15-6 13z"/><glyph glyph-name="undefined" unicode="𪺛" horiz-adv-x="1024" vert-adv-y="918" d="M232-21V-37L168-69V161l64-11 17-11-17-9V1H480V195H55v22H480V346H269l-8-8-25-21-27-20-28-18-30-18-33-16-34-14-5 9 29 23 27 22 25 22 24 22 22 22 19 22 19 23 16 22 15 23 13 22 3 5 52-38 8-18H330l-5-7-19-23-15-15H765l53 54 65-54V346H544V217H851l53 53 65-53V195H544V1H792V161l64-11 16-11-16-9V-32L792-64v43H232zM849 433l-71 23-68 26-63 30-60 32-56 34-15 12-29-18-62-34-66-31-71-28-75-26-79-22-83-19-3 9 80 30 75 30 71 31 67 32 62 34 58 36 11 9-41 34-43 45-37 47 7 6 46-37 47-36 51-34 4-2 8 6 48 39 44 41 39 42 2 2 46-45 5-19-20 4-30-29-49-41-42-30 53-28 60-26 62-24 65-22 69-19 73-16 47-11-63-58-74 21zM391 877l41-50 2-19-19 6-14-10-31-23-32-21-34-21-33-20-36-19-36-18-37-18-39-15-39-14-4 10 34 23 34 22 33 22 33 23 32 22 31 23 29 24 29 23 28 25 23 20 5 5zM850 696l-16 18-19 19-21 17-24 18-28 17-29 18-33 16-35 17-38 17 3 9 41-7 39-9 37-11 33-13 32-14 30-16 27-17 24-19 22-19 20-22 6-24-13-21-23-6-22 13-13 19z"/><glyph glyph-name="undefined" unicode="𪺜" horiz-adv-x="1024" vert-adv-y="918" d="M457 5 446 19 434 34 421 49 395 39 354 26 313 13 274 2 235-9l-37-9-36-9-35-8-34-9-11-2-9-19L60-51 39 11l11 2 32 4 34 4h4V448l64-32H431l33 27 59-48-27-22V179l-65-32v32H184V30l4 1 38 6 39 5 41 6 41 6 44 5 18 2-3 2-16 15-18 15-19 15-21 15-22 15 4 9 27-8 24-8 24-10 22-11 21-12 20-12 19-13 17-14 15-15 15-17 5-24-13-21-24-5-21 13-8 15zM786 42V58h64l7 1h5l3 1 2 1 1 2 2 2 1 3 1 5V395H667V-40L602-72V448l65-32H872l31 26-54 14-71 22-67 25-64 28-60 30-56 33-15 10-30-17-62-31-66-29-70-26-75-24-79-21-83-18-3 10 80 27 76 29 71 29 67 31 62 32 57 34 10 6-39 32-43 41-38 45 7 7 45-35 48-33 50-31 4-2 9 6 49 36 44 38 41 42 44-47 4-19-20 5-29-26-49-39-39-26 51-24 59-25 62-22 66-20 69-18 72-15 49-10-63-59-18 4 57-46-27-22V80 66l-3-13-4-13-7-13-8-10-11-9-13-7-12-4-14-2-14-1V26L786 42zM431 289H184V201H431v88zm0 106H184V310H431v85zM391 876l40-50 2-20-19 7-13-9-31-21-33-20-33-19-34-19-35-18-36-17-38-15-38-14-39-13-4 9 34 22 35 21 33 21 33 22 31 21 31 22 30 21 29 23 28 23 22 19 5 4zM850 703l-15 17-19 18-22 17-24 16-27 17-30 16-33 16-35 16-38 16 2 10 42-7 39-8 36-10 34-12 32-13 29-15 26-15 25-18 22-18 20-20 7-24-12-22-24-6-21 11-14 18z"/><glyph glyph-name="undefined" unicode="𬋻" horiz-adv-x="1024" vert-adv-y="918" d="M985 383l-58-51 53-44V267H525l25-29 31-35 34-33 36-30 39-28 41-25 44-22 47-21 50-18 53-15L967-2 905-58 849-37 797-14 747 12 702 40 660 72l-38 34-35 37-30 40-26 42-17 38-2-7-29-61-37-57-46-51-53-44L286 4 217-28 140-54 56-73 53-63l81 29L204-2l63 37 55 40 45 44 39 48 29 52 19 48H44v21H460l12 49 7 63 1 14 64-17 15-12-19-9-8-51-11-37H861l44 44-58 19-71 28-68 31-63 35-60 38-56 42-14 12-26-20-62-41-67-37-71-35-75-32-79-27-84-25-3 10 80 33 75 36 70 36 67 39 62 40 57 43 17 14-46 47-43 51-37 56 8 6 46-47 48-44 51-41 3-2 6 5 48 46 44 49 38 48 4 6 49-42 7-19-20 3-32-37-49-49-50-43 5-3 56-36 59-31 62-30 66-26 69-23 72-20 45-12zM390 871l45-46 3-19-19 4-15-13-32-28-32-26-33-26-35-24-35-24-37-22-37-21-39-20-40-17-5 8 35 27 33 26 33 26 33 26 31 27 31 27 29 28 30 28 27 28 27 30 2 1zM849 664l-16 23-19 22-22 22-24 21-27 20-30 20-32 19-35 20-37 19 3 9 42-10 39-11 37-15 34-16 32-18 30-19 27-22 25-22 22-24 20-27 4-24-15-20-24-4-20 14-14 23z"/><glyph glyph-name="undefined" unicode="𬋼" horiz-adv-x="1024" vert-adv-y="918" d="M529-29v16H637l6 1 6 1 2 1h2l1 1 1 1 1 2 1 3 1 5V9 304H458v22H658l32 27 60-49-26-20 12-24 19-38 20-35 20-29 5 5 14 16 15 16 14 15 14 14 13 15 12 14 12 15 12 14 7 9v1l5 6 45-46 4-19-21 4-13-10-16-12-16-12-17-11-18-11-18-11-19-11-20-10-5-2 17-22 25-28 27-24 29-22 30-20 33-18L992-1 931-49 895-25 863 1 832 30 805 61 781 95l-22 36-18 38-15 41-3 12V9L722-5l-2-13-5-13-6-13-9-10-11-9-12-7-13-4-13-2-14-1v32L529-29zm56 280 59-49-27-16-8-3-3-10-14-34-19-31-22-30-26-28-29-26L464 0 428-23 388-42 344-60l-5 9 39 26L411 2l31 25 26 27 24 27 19 27 16 27 12 27 8 28 3 12H387v22H552l33 27zM330 108l-17 50-19 48-20 48-8 18-12-32-30-70-31-61-34-55L123 8 84-30 43-60l-6 8L70-16l30 42 29 47 28 54 25 62 25 67 22 76 3 11-2 4-23 44-25 44-25 45-26 43 8 6 35-38 33-39 30-42 9-13 4 17 20 90 16 91 2 16 62-22 14-13-18-7-17-78-23-91-20-67 7-11 26-46 24-48 23-49 21-50 20-52-1-24-19-16-24 2-17 18-16 51zM717 351l-14 9-15 10-16 8-18 9-18 8-19 8-20 7-21 7-22 6 1 10h23l23 1 23-1 22-2 21-3 21-5 20-5 20-7 19-8 18-9 14-20-4-25-21-13-24 4-13 11zM428 460v22H658V589H494v22H658v96H443v22H589l-15 16-1 10-3 11-3 10-4 11-6 10-7 11-7 11-9 11-11 12-12 10 5 8 14-7 16-6 14-7 14-7 12-9 12-10 11-11 10-11 9-13 7-13-2-25-13-12H744l10 12 10 15 18 29 8 14 9 14 7 14 8 15 7 14 4 9-1 1 6 9 52-38 8-18H868l-21-22-12-12-13-12-14-12-14-11-14-10-16-9-2-2h88l54 54 64-54V707H723V611H835l44 48 54-48V589H723V482H871l53 53 65-53V460H428zM152 801l59-27 13-14-20-6-4-11-12-31-13-30-14-30-15-29-16-28-17-28-19-27-20-26-21-24-9 5 13 30 13 29 11 30 12 29 11 29 11 29 10 30 17 60 6 26 4 14zM370 597l-11 33-10 30-11 28-11 26-11 25-12 23-11 22-12 20-11 20 7 7 19-13 20-16 18-20 17-21 16-25 17-26 15-29 14-31 15-32 13-36-2-24-19-16-24 2-16 19-10 34z"/><glyph glyph-name="undefined" unicode="𭶺" horiz-adv-x="1024" vert-adv-y="918" d="M764 110l-19 16-22 16-26 16-29 17-32 16-35 18-38 17-41 19-37 16V-42L421-75V418l64-11 16-11-16-9V272l43-8 45-11 41-11 38-13 36-13 32-13 30-14 27-15 24-15 22-17 10-22-8-23-23-10-23 8-15 15zm84 277-72 25-67 29-63 32-60 35-56 38-14 12-28-19-62-37-67-34-70-32-75-28-79-26-84-21-3 9 80 32 75 32 71 34 67 36 61 37 58 39 14 11-43 41-43 48-38 52 8 6 46-42 48-40 50-38 4-2 7 5 48 43 44 45 40 46 2 3 47-44 6-18-20 3-31-33-49-45-47-37 2-1 56-31 60-30 62-26 66-24 68-21 73-18 46-12-64-57-74 23zM390 869l43-49 4-18-20 5-14-12-32-25-32-24-33-23-35-23-35-21-36-20-37-19-39-17-40-16-5 9 35 24 34 24 33 25 32 24 32 25 30 25 31 25 28 26 28 26 23 24 5 5zM850 675l-17 21-18 20-22 19-25 20-26 18-30 19-33 18-35 18-37 18 3 9 41-8 39-10 37-13 34-15 32-16 30-17 27-20 24-20 23-22 20-24 4-24-13-21-25-5-20 14-13 21z"/><glyph glyph-name="undefined" unicode="𭶻" horiz-adv-x="1024" vert-adv-y="918" d="M760 298H264V22H760V298zm86 36-71 29-67 32-63 36-60 39-56 42-14 13-26-21-62-42-67-38-71-36-75-33-12-5 62-31H760l33 27 59-48-27-22V-22L760-54V0H264V-38L199-70V349l-64-23-84-25-3 9 79 35 75 36 71 38 66 40 62 42 58 43 17 15-46 49-43 54-37 57 8 6 46-49 48-45 51-43 3-3 5 5 49 48 44 51 40 52 2 3 50-41 6-19-20 2-31-38-50-50-50-46 5-4 57-36 59-34 62-30 66-27 68-23 72-21 44-13-62-55-76 25zM389 869l46-46 4-19-20 4-15-15-31-28-33-27-33-27-35-25-35-24-36-23-38-22-39-21-40-18-5 9 35 27 33 27 33 26 33 27 31 27 30 28 30 29 29 29 28 30 23 26 5 6zM849 657l-17 23-18 23-22 22-24 21-27 21-30 21-32 19-35 20-37 20 3 9 42-10 39-12 37-15 35-17 31-19 30-20 27-22 25-23 23-25 19-27 4-25-15-20-24-3-20 15-14 24z"/><glyph glyph-name="undefined" unicode="𭶼" horiz-adv-x="1024" vert-adv-y="918" d="M480 267H254V187H480v80zm290 0H544V187H770v80zM480 363H254V289H480v74zm290 0H544V289H770v74zm80 134-71 20-26 8 55-45V458H544V385H770l32 27 59-49-26-21V165l-65-32v32H544V88H856l54 53 64-53V66H544V-38L480-70V66H50V88H480v77H254l-65-32V417l65-32H480v73H222v22H480v90l64-11 16-11-16-9V480H689l51 50-28 9-63 24-60 27-56 29-16 10-32-16-62-27-66-25-70-23-74-20-79-18-83-15-3 10 81 25 75 25 71 26 67 28 62 29 59 29 5 3-35 25-44 38-38 40 7 7 45-30 48-28 49-27 5-3 11 7 48 32 44 34 36 32h-1l6 4 41-49 4-18-20 6-29-23-49-33-32-19 45-19 59-22 62-19 66-17 69-15 73-14 50-9-64-60-74 17zM392 875l31-43 7-9 1-19-19 8-13-8-31-19-32-17-33-17-35-16-34-15-36-15-37-13-38-12-39-10-4 9 35 20 34 19 34 19 32 19 33 19 30 20 30 19 29 20 28 20 23 17-1 1 1-1 4 4zM851 716l-16 15-18 15-22 15-24 15-27 15-30 14-33 14-36 15-38 15 2 10 42-5 38-7 36-8 34-11 31-11 29-12 27-14 24-14 22-16 20-17 8-24-10-22-24-8-22 10-13 16z"/><glyph glyph-name="undefined" unicode="𭶽" horiz-adv-x="1024" vert-adv-y="918" d="M430 461l-14-8-14-6-17-30-29-45-32-41-4-4 48-29 10-17-20-2-7-11-5-8h97l32 27 60-49-27-16-13-5-18-36-32-51-35-46-39-40-43-34-47-28-50-23-53-17-56-10-58-4-1 10 55 14 52 18L217-9l43 26 40 29 20 19-17 17-2 10-2 10-6 19-4 10-5 10-5 10-6 10-4 6-3-2-25-22-27-19-28-18-30-16-32-12-5 9 26 21 24 21 23 22 22 22 19 23 19 24 16 25 16 25 13 27 5 10-13-14-36-34-38-31-40-26-42-22-45-18-46-14-3 10 41 23 38 24 37 26 34 29 33 32 9 10-6 1-17 17-1 10-1 9-3 8-2 9-3 8-5 9-5 9-5 8-3 5-16-16-23-19-25-19-25-15-28-14-5 8 20 22 20 21 18 22 18 21 16 23 15 23 15 24 13 25 11 25 5 11-7-6-37-26-39-23-41-20-44-17-4 9 38 26 35 26 34 28 32 28 29 30 27 32 9 11-19 31-19 39-16 41 9 4 26-34 26-32 16-18 16 24 21 36 16 32 5 11 55-36 9-16-20-2-13-20-25-38-25-31 28-25 29-23 32-21 32-18 34-16 35-14 35-14-62-51-36 17zM517-45v21H703V111H597v21H703V288l65-11 16-10-16-10V132h16l44 49 54-49V111H768V-24h76l54 54 65-54V-45H517zM917 105l-14 18-13 19-13 20-12 23-13 24-11 26-11 28-10 29-8 28H674l-11-32-13-34-17-33-17-31-21-29-22-29-24-27-27-24-29-23-31-20-6 7 23 28 22 28 21 27 18 28 17 29 15 30 13 30 11 30 9 32 3 13H490v22H592V691H517v22h75V863l65-10 16-11-16-10V713H811V863l64-10 17-11-17-10V713h27l24 32 33-32V691H875V342h27l33 38 43-38V320H825l13-18 19-25 17-23 16-22 16-20 15-17 15-17 15-13 14-12 13-9 12-11-58-44-15 16zM435 238H331l-19-25-22-25-10-10 6-2 11-6 11-6 21-16 9-10 9-10 9-11 4-8 8 9 29 43 26 48 12 29zM811 444H657V342H811V444zM342 469H241l-17-23-18-23-15-16 4-1 11-4 10-6 11-6 9-8 9-8 8-10 8-10 6-9 14 19 26 40 25 43 10 22zm469 99H657V466H811V568zM272 592l-2-2-33-30-9-8 46-27 11-16-21-2-5-9-5-8h97l3 3v1l12 9-8 6-32 26-30 29-24 28zm539 99H657V589H811V691zM194 859l52-40 7-17H233l-3-4-17-20-17-19-18-19-18-19-19-17-20-16-20-15-21-14-22-13-6 7 15 20 15 19 30 39 28 40 27 41 12 21 10 17 5 9zM422 706l-6 16-8 15-8 15-11 15-11 15-13 14-14 15-15 14-18 14 5 8 21-8 21-8 19-10 18-11 18-13 16-14 15-15 13-17 12-18 11-18V690l-17-17H445l-17 17-6 16z"/><glyph glyph-name="undefined" unicode="𰠋" horiz-adv-x="1024" vert-adv-y="918" d="M915 20l32 135h11L947 20 967 8l13-20-13-19-20-13H652 638l-14 3-13 4-12 7-11 9-8 11-7 12-5 13-2 13V42 60L512 36 452 11 390-11 325-32l-3 9L382 8l58 30 56 30 55 30 15 9V325H452l-4-17-23-68-30-60-36-55-45-48-53-43L2e2-5 128-40 46-73l-4 8 77 43 66 41 55 43 45 43 37 47 29 51 23 56 18 63 1 3H87v22H397l8 47 10 79 1 12 63-18 15-12-19-9-9-63-9-36H818l54 54 65-54V325H630V146l23 15 48 33 45 32 44 34 37 32 5 4 40-51 2-19-19 7-28-21-47-32-50-32-51-30-49-26V35l1-4 1-4 1-2h1l1-1 2-1 3-1 5-1 7-1H915zM696 378l-3 9-6 9-7 9-10 10-11 10-13 10-15 11-16 11-20 9 4 9 21-5 20-4 19-5 17-6 16-6 15-8 14-8 13-9 11-11 10-11 2-25-15-19-25-2-19 15-2 7zm153 55-71 23-68 26-63 30-60 32-56 34-15 12-29-18-62-34-66-31-71-28-75-26-79-22-83-19-3 9 80 30 75 30 71 31 67 32 62 34 58 36 11 9-41 34-43 45-37 47 7 6 46-37 47-36 51-34 4-2 8 6 48 39 44 41 39 42 2 2 46-45 5-19-20 4-30-29-49-41-42-30 53-28 60-26 62-24 65-22 69-19 73-16 47-11-63-58-74 21zM391 877l41-50 2-19-19 6-14-10-31-23-32-21-34-21-33-20-36-19-36-18-37-18-39-15-39-14-4 10 34 23 34 22 33 22 33 23 32 22 31 23 29 24 29 23 28 25 23 20 5 5zM850 696l-16 18-19 19-21 17-24 18-28 17-29 18-33 16-35 17-38 17 3 9 41-7 39-9 37-11 33-13 32-14 30-16 27-17 24-19 22-19 20-22 6-24-13-21-23-6-22 13-13 19z"/><glyph glyph-name="undefined" unicode="𰠌" horiz-adv-x="1024" vert-adv-y="918" d="M485 681l64-33H688l-1 22-1 183v18l64-13 16-11-16-9 2-167 1-23h96l53 54 65-54V627H754l5-116 13-135 17-110 7-31 2 4 26 60 22 65 18 68 12 72 3 10 61-22 14-13-18-7-13-55-22-71-27-67-31-63-29-48 22-59 28-47 29-31 29-16h1l29 128h11L953 9h1L976-2l9-23-11-22-23-8-51 9-47 27-42 42-33 59-9 24-3-4-45-50L671 6 617-35 558-70l-5 8 51 43 47 46 44 48 38 51 17 27-1 5-24 95-18 116-12 138-6 120H549V369l-3-59-7-57-10-54-14-50-17-47-21-44-25-41-28-36-31-33-35-29-7 7 27 35L401-3l21 38 18 40 15 43 12 44 9 48 6 50 3 53v56V681zM330 108l-17 50-19 48-20 48-8 18-12-32-30-70-31-61-34-55L123 8 84-30 43-60l-6 8L70-16l30 42 29 47 28 54 25 62 25 67 22 76 3 11-2 4-23 44-25 44-25 45-26 43 8 6 35-38 33-39 30-42 9-13 4 17 20 90 16 91 2 16 62-22 14-13-18-7-17-78-23-91-20-67 7-11 26-46 24-48 23-49 21-50 20-52-1-24-19-16-24 2-17 18-16 51zM625 277l-2 21-3 20-5 21-7 21-7 22-9 22-10 23-10 24-13 24 8 6 20-20 18-20 16-20 15-21 13-22 11-22 10-22 9-23 7-23 5-23-7-24-21-11-24 7-12 21-2 19zM152 801l59-27 13-14-20-6-4-11-12-31-13-30-14-30-15-29-16-28-17-28-19-27-20-26-21-24-9 5 13 30 13 29 11 30 12 29 11 29 11 29 10 30 17 60 6 26 4 14zM370 597l-11 33-10 30-11 28-11 26-11 25-12 23-11 22-12 20-11 20 7 7 19-13 20-16 18-20 17-21 16-25 17-26 15-29 14-31 15-32 13-36-2-24-19-16-24 2-16 19-10 34zM873 735l-1 11-4 10-4 12-6 12-7 12-9 13-10 14-12 14-14 13 5 8 17-10 17-9 16-9 15-9 13-11 12-11 11-12 10-13 8-14 7-14-4-24-19-15-25 4-15 19-1 9z"/><glyph glyph-name="undefined" unicode="𰠍" horiz-adv-x="1024" vert-adv-y="918" d="M894 457l53-44-27-16-8-3-15-53-28-70-36-64-44-58-39-42 41-34 46-31 50-26L942-6l36-14-62-52-59 28-55 33-49 38-43 42-2 3-26-21-64-40-70-34-77-26-83-20-3 10 79 29L536 4l64 37 57 42 25 22-9 12-32 51-26 57-20 60-13 64-6 64H492v21H856l29 25-35 9-71 21-68 24-64 27-59 29-56 31-16 11-30-17-62-30-66-27-71-26-74-22-79-20-83-17-3 9 80 28 76 27 71 29 67 29 62 31 57 33 9 5-38 29-43 40-38 43 7 7 45-33 48-32 50-29 4-3 10 6 48 36 44 37 39 38 2 1 44-47 3-19-19 5-29-25-50-37-37-24 49-22 59-24 63-21 65-19 70-17 72-14 49-10-63-60-30 8zM152-23V-6h92l5 1 3 1 4 1v1l1 2 1 3 1 5v7V246H67v22H259V489l65-11 16-11-16-10V374h90l44 49 53-49V353H324V268H434l54 53 64-53V246H298l26-4 16-11-16-10V15L323 1l-2-13-5-13-6-13-9-10-11-9-12-6-13-5-13-2-14-1v32L152-23zm-2 240 58-30 11-16-21-4-2-4-11-22-13-22-13-22-13-21-15-20-15-18-16-19L83 3 66-13 58-8 68 13 98 76l9 22 9 21 8 22 8 23 8 23 7 23 3 7zM455 74l-5 14-7 14-8 14-8 14-10 14-11 14-13 14-13 15-15 12 5 9 38-18 17-9 17-11 15-12 14-12 14-14 12-14 12-15 9-16 1-25-17-18H478L460 60l-5 14zM852 413H587l17-59 21-59 25-54 29-50 34-44 5-5 32 38 37 55 29 60 23 65 13 53zM391 874l39-51 2-19-19 7-13-9-31-20-32-19-34-19-33-18-35-16-36-16-38-15-38-13-39-12-4 8 35 22 34 21 33 20 33 21 31 20 32 21 29 21 29 22 28 22 23 18 4 4zM851 705l-16 18-19 16-22 16-24 16-27 16-30 16-33 15-35 15-38 16 2 10 42-6 38-8 37-10 34-11 31-12 29-14 27-15 25-16 22-18 20-19 7-24-12-22-23-7-22 12-13 16z"/><glyph glyph-name="undefined" unicode="𱭊" horiz-adv-x="1024" vert-adv-y="918" d="M706-40v16h75 6l5 1 3 1 2 1 2 2 2 5 1 5v6V82H544V-51L480-83V82H222V-51L157-83V377l65-32H480v74H55v21H480V549l64-11 16-11-16-9V440H851l53 54 65-54V419H544V345H802l33 26 59-48-27-21V-3l-1-13-2-14-5-12-7-13-8-11-11-9-12-6-13-4-14-3-13-1v33L706-40zM480 203H222V103H480V203zm322 0H544V103H802V203zM480 323H222V224H480v99zm322 0H544V224H802v99zM755 457l-12 9-14 8-15 8-17 7-18 8-19 8-20 7-20 8-23 7 2 10 23-1h23l22-1 22-2 20-3 20-4 18-4 18-5 17-6 17-6 15-20-3-24-20-15-24 3-12 8zm96 63-71 19-67 21-64 22-60 25-55 27-17 10-32-16-62-24-66-23-70-21-75-19-78-16-84-13-1 9 80 24 75 24 72 25 67 25 62 27 58 28 2 1-31 21-44 35-39 37 7 8 45-27 47-26 50-25 4-2 12 7 49 30 44 31 39 33h1l40-50 3-19-20 7-28-21-49-30-27-15 40-15 59-20 63-18 65-16 70-13 72-13 51-8-63-62-74 16zM393 875l17-27 22-24 2-19-19 8-17-9-31-17-32-16-33-15-34-15-35-14-35-13-38-12-38-11-38-9-4 9 35 20 35 18 33 18 33 17 32 18 31 18 30 18 29 19 28 19 27 19zM852 723l-16 14-19 15-21 14-25 14-27 13-30 13-33 14-36 14-38 14 2 10 42-4 38-6 36-8 33-9 31-10 29-11 27-12 24-14 22-14 20-16 9-23-10-23-23-9-22 10-13 14z"/><glyph glyph-name="undefined" unicode="𲭀" horiz-adv-x="1024" vert-adv-y="918" d="M916 338l-17 17-19 18-21 16-22 17-23 16-25 16-26 16-28 16-17 10V-44L654-76V852l64-11 17-10-17-10V494l25-5 31-8 30-11 29-12 28-13 26-14 25-15 24-16 22-17 21-19 9-22-10-23-22-9-24 10-16 18zM448 115l-25 50-26 48-28 49-24 37-24-51-40-69-42-62-45-54-49-46L94-20 40-49l-5 8L81-4l44 42 42 48 39 55 36 61 35 68 31 75 2 5-3 5-34 46-35 44-36 45-38 44 7 7 45-37 44-40 41-41 25-28 11 32 27 90 24 96 3 10 60-25 13-14-18-6-23-79-31-90-25-62 9-12 34-46 33-47 31-49 29-51 27-51V66L514 48l-25-1-18 17-23 51zM203 813l57-31 11-15-20-4-6-12-16-31-17-30-18-30-20-29-22-28-22-27-24-27-26-25-28-24-7 7 20 30 19 30 17 29 17 30 17 29 15 30 14 30 14 30 11 30 9 26 5 12zM502 604l-14 33-15 30-16 29-16 27-17 25-17 23-18 22-17 21-18 21 5 8 26-12 24-17 24-18 23-22 22-24 21-26 20-29 20-31 19-33 17-35 1-25-17-18H535l-18 17-15 34z"/><glyph glyph-name="undefined" unicode="𲭁" horiz-adv-x="1024" vert-adv-y="918" d="M910 6l32 134h11L942 6 961-7l13-19-13-20-19-13H738l-14 1-14 3-13 4-12 7-11 9-8 10-7 13-5 13-2 13V27 294H450l-2-7-23-63-32-63-42-61-55-56L228-6 142-46 40-75l-3 9 98 39 76 45 61 51 46 55 35 59 25 59 15 52H109v21H399l9 45 9 55 8 45 2 15 61-22 14-14-18-6-6-29-13-56-9-33H652l32 27 59-48-27-22V21l1-5 2-5 2-2 5-1 5-2h7H910zM847 386l-71 26-67 29-64 33-59 36-56 39-14 12-28-20-62-37-67-36-70-32-75-29-79-26-84-22-3 9 80 32 75 33 71 35 67 36 61 38 58 40 15 12-45 43-42 48-38 53 8 6 46-43 48-41 50-39 4-2 7 5 48 44 44 46 36 43 6 7 48-43 5-19-20 3-30-33-50-46-47-38 3-2 55-33 60-30 62-27 66-25 68-21 73-19 45-11-63-57-75 23zM390 877l44-47 3-19-19 5-15-13-31-25-33-25-33-23-34-24-36-21-36-21-37-19-39-19-40-15-5 8 35 25 34 25 33 25 32 24 32 26 30 25 30 26 29 26 28 27 23 24 5 5zM850 681l-17 21-19 20-21 20-25 20-26 19-30 19-33 18-35 19-37 18 3 9 41-8 39-11 37-13 34-15 32-17 30-18 27-20 25-21 22-22 20-24 4-25-13-21-25-4-20 14-13 22z"/><glyph glyph-name="undefined" unicode="𲭂" horiz-adv-x="1024" vert-adv-y="918" d="M880-2 833 23 789 51 746 80l-40 31-38 33-37 34-34 37-31 39-22 33V-49L480-81V249l-7-8-36-42-38-40-42-36-45-35-47-31-51-29L161 3 105-20 46-39l-4 9L96-1l52 29 48 31 46 32 42 33 40 36 36 37 34 40 30 40 10 15H71v21H480V456l64-10 16-11-16-10V313H835l53 54 65-54V292H557l26-23 37-31 37-31 39-29 40-27 41-26 43-23 43-23 46-20 47-20 33-14-61-51L880-2zM847 386l-71 26-67 29-64 33-59 36-56 39-14 12-28-20-62-37-67-36-70-32-75-29-79-26-84-22-3 9 80 32 75 33 71 35 67 36 61 38 58 40 15 12-45 43-42 48-38 53 8 6 46-43 48-41 50-39 4-2 7 5 48 44 44 46 36 43 6 7 48-43 5-19-20 3-30-33-50-46-47-38 3-2 55-33 60-30 62-27 66-25 68-21 73-19 45-11-63-57-75 23zM390 877l44-47 3-19-19 5-15-13-31-25-33-25-33-23-34-24-36-21-36-21-37-19-39-19-40-15-5 8 35 25 34 25 33 25 32 24 32 26 30 25 30 26 29 26 28 27 23 24 5 5zM850 681l-17 21-19 20-21 20-25 20-26 19-30 19-33 18-35 19-37 18 3 9 41-8 39-11 37-13 34-15 32-17 30-18 27-20 25-21 22-22 20-24 4-25-13-21-25-4-20 14-13 22z"/><glyph glyph-name="undefined" unicode="𲭃" horiz-adv-x="1024" vert-adv-y="918" d="M716 40V56h65 6l5 1 3 1 2 1 1 1 1 1 1 2 1 3 1 5v6V241H593V-41L528-73V241H329V33L265 1V242l-17-11-58-34-64-33-69-31-5 9 64 40 58 39 54 39 37 29v6l5-2 7 5 43 39 38 39 17 20H66v21H393l25 36 23 38 17 36 3 8 56-32 11-16-21-3-13-24-28-41-2-2H845l39 39-35 8-71 23-67 24-64 27-59 29-56 32-16 11-30-17-62-31-66-28-70-25-75-24-79-20-83-17-3 9 80 28 76 28 71 29 67 30 62 31 57 34 9 5-38 31-43 40-38 44 7 7 45-34 48-32 50-31 4-2 10 6 48 36 44 38 41 40 44-47 4-19-20 5-29-26-50-37-37-25 50-24 59-23 62-22 66-20 69-17 72-15 49-10-61-57 38-31V396H446l-14-17-38-39-44-37-40-31 19-9H528v95l65-11 16-10-16-10V263H802l33 27 59-49-27-21V77l-1-14-2-13-5-13-7-12-8-10L833 5 821-1 808-5 794-8 781-9V24L716 40zM391 878l40-51 1-20-19 8-13-9-31-21-32-19-33-19-34-19-35-17-36-16-38-15-38-14-39-12-4 8 35 22 34 21 33 21 33 21 31 21 31 21 30 22 29 22 28 22 25 21 2 2zM850 707l-15 17-19 17-22 16-24 17-27 16-30 16-33 15-35 16-38 17 2 9 42-6 39-8 36-10 34-12 32-13 29-14 26-15 25-17 22-18 20-19 7-24-12-22-24-7-21 12-14 17z"/><glyph glyph-name="undefined" unicode="𲭄" horiz-adv-x="1024" vert-adv-y="918" d="M425 426l64-32H644V5e2l65-11 16-11-16-9V394H9e2l4 4 4 7 2-2 22 18 59-48-27-17-42-17-7-4-12-8-13-8-15-8-15-8-16-8-16-11-6 8 13 13 11 15 11 13 10 13 9 11 9 11 3 5H709V245H833l2 2 2 3 1-1 28 23 59-48-27-16-16-7-18-27-34-42-40-38-41-34 41-18 49-16 53-15L949-1l50-10-64-59-61 16-56 20-52 22-46 25-22 15L649 2 593-21 534-40 470-55 402-66l-2 10 64 21 60 22 55 24 51 27 29 19-19 16-32 35-27 37-21 40-12 39H489V199l-3-39-7-37-11-35-14-32-17-29L416 2 392-20 364-39 334-54 301-65l-5 9 28 19 23 21L367 5l17 22 14 24 11 26 8 27 5 30 3 32V426zM561 224l19-28 27-32 29-30 32-26 33-22 16 13 36 34 33 36 28 39 8 16H561zm83 149H489V245H644V373zm205 91-71 23-67 24-64 27-59 29-56 32-16 11-30-17-62-31-66-28-70-25-75-24-14-3 53-9 16-11-16-9V324h24l54 54 64-54V303H252V106l25 4 38 8 41 7 41 6 3-9-39-17-38-15-37-14-35-12-35-12-32-10-32-10-29-9-29-8-5-2L81-6 67 8 44 68l10 2 27 5 29 4 30 5 32 6 16 3V303H56v21H188V479l-54-14-83-17-3 9 80 28 76 28 71 29 67 30 62 31 57 34 9 5-38 31-43 40-38 44 7 7 45-34 48-32 50-31 4-2 10 6 48 36 44 38 41 40 44-47 4-19-20 5-29-26-50-37-37-25 50-24 59-23 62-22 66-20 69-17 72-15 49-10-63-59-75 18zM391 878l40-51 1-20-19 8-13-9-31-21-32-19-33-19-34-19-35-17-36-16-38-15-38-14-39-12-4 8 35 22 34 21 33 21 33 21 31 21 31 21 30 22 29 22 28 22 25 21 2 2zM850 707l-15 17-19 17-22 16-24 17-27 16-30 16-33 15-35 16-38 17 2 9 42-6 39-8 36-10 34-12 32-13 29-14 26-15 25-17 22-18 20-19 7-24-12-22-24-7-21 12-14 17z"/></font>
</defs>
</svg>
