<svg xmlns="http://www.w3.org/2000/svg"><defs><font name="Jigmo Regular" horiz-adv-x="1024" vert-adv-y="1024"><font-face font-family="Jigmo" font-weight="400" font-stretch="normal" units-per-em="1024" ascent="995" descent="169"/><glyph glyph-name="undefined" unicode="㒀" horiz-adv-x="1024" vert-adv-y="918" d="M305 862l57-31 11-15-19-4-46-98-59-111-31-55-5-8 32-6 16-10-16-10V-46L181-78V490l-30-45-36-49-38-48-40-45-8 6 31 51 90 157 55 109 51 112 44 112 5 12zM747-29v16h97l6 1 5 1 5 1 2 2 1 2 1 3 1 5V9 525H443V-45L379-77V578l64-32H720l4 11 4 20 8 37 4 18 4 16 3 16 3 15 2 15 1 7-1 1 2 4 3 9 59-27 12-15-23-6-18-35-17-30-21-33-12-17-3-6H865l32 27 60-48-27-22V9L929-5l-3-13-4-13-6-13-9-10-11-9-13-7-12-4-14-2-13-1v32L747-29zM622 498l65-11 16-11-16-9V396h35l53 53 65-53V374H687V261h35l32 27 60-48-27-22V35L722 3V68H586V3L522-29V294l64-33h36V374H468v22H622V498zM586 240V89H722V240H586zM536 591l-2 14-2 14-8 41-4 13-3 13-4 13-6 12 8 6 9-11 11-9 19-22 10-13 23-41 7-15 6-15-5-24-20-15-24 4-14 20-1 15zM347 718v22H622V874l65-11 16-10-16-10V740H843l54 53 64-53V718H347z"/><glyph glyph-name="undefined" unicode="㓃" horiz-adv-x="1024" vert-adv-y="918" d="M75 210l64-33H304l33 27 59-48-27-22V-27L304-59V-5H139V-43L75-75V210zM920 25l32 134h11L952 25l20-13L985-8 972-27 952-40H710l-14 1-14 2-12 5-13 6-11 9-8 11-7 12-4 13-3 13V46 317L398 301l-2 21 228 17V555l-85-14-57-7-60-7-1 10 259 75 83 26 97 35v1-1l5 2 3-9 48-41 2-17-22 10-43-13-75-19-87-18-3-1V343l170 13 49 57 68-49 2-21-289-21V40l1-5 1-3 1-2 1-1 1-1 2-1 3-1 5-1h7H920zM304 156H139V16H304V156zm10 176 53-49V262H77v21H270l44 49zm0 110 53-48V373H77v21H270l44 48zm46 119 54-48V491H56v22H316l44 48zM303 677l64-54V602H77v21H249l54 54zM61 637 41 651l-3 24 14 20 11 5 10 8 10 10 9 12 9 16 8 18 7 21 6 24 6 26 3 29 10 1 3-30 2-19H894l3 3 2 4 1-2 26 22 59-48-27-17-23-9-49-49-30-26-18-14-16-15-7 6 12 19 39 68 16 29 4 8H147l1-15-2-25-4-23-6-22-9-20-11-19-14-17-17-14-24-3z"/><glyph glyph-name="undefined" unicode="㗬" horiz-adv-x="1024" vert-adv-y="918" d="M606 53l-6 9-16 19-10 9-24 20-30 19-18 10-68-28-49-15-51-14-54-12-57-9-3 9 105 39 93 40 80 43 36 22 31 23 29 24 26 25 2 1 42-48 3-20-20 6-7-6H870l11 11 2-2 21 18 60-49-27-16-27-11-35-32-59-42-65-38-72-33L6e2-3 515-26 423-44 325-57 220-65 109-67l-1 9L218-45 321-28 416-9l88 23 81 27 25 10-4 2zM848 197H610l-49-29-35-18 20-4 19-4 33-12 16-7 14-8 14-9 12-10 8-23 63 32 59 39 52 41 12 12zM418 266l-5 8-8 9-9 8-10 9-12 9-28 17-15 9-49-22-40-16-44-14-45-12-49-10-2 9 86 40 77 40 35 20 62 42 27 22 25 22 24 25 44-48 3-17H690l15 14 3-3 19 16 59-48-27-17-31-12-31-25-54-38-59-34-63-31-66-28-70-25-74-22-78-17-81-14-86-11-1 10 83 21 78 22 75 23 70 27 64 27-12 7-5 8zM666 395H433l-41-27-34-20-3-2 16-2 17-4 16-4 16-5 14-7 13-7 13-8 12-10 7-24-1-3 21 11 58 33 53 35 50 38 6 6zM466 420l-5-4h19l-14 4zM259 660l65-32H7e2l32 27 60-49-27-21V492l-65-32v32H324V476l-65-32V660zm441-54H324V514H7e2v92zm66 244h-1l6 7 47-44 6-18-25 4-77-55-49-33H888l3 3 2 4 2-1 26 21 59-48-27-16-23-10-50-47-30-26-17-13-17-15-7 6 13 19 39 67 19 35H153V675l-2-24-4-23-6-22-9-19-11-19-14-16-16-14-25-3-20 15-3 24 15 20 10 5 11 7 9 10 10 11 9 15 8 18 7 20 6 23 5 27 3 28h10l5-47H480V875l64-11 16-11-16-10V711H654l14 16 72 86 18 24 6 10 2 3zM288 738l-5 11-6 11-8 11-19 23-37 36-15 9 3 9 19-6 17-5 17-7 17-7 15-9 28-19 13-11 11-11 11-13 3-25-15-19-24-4-20 15-5 11z"/><glyph glyph-name="undefined" unicode="㙐" horiz-adv-x="1024" vert-adv-y="918" d="M767-18v6L722-34V326H635V-2L570-34V326H482V-34L418-67V380l64-33H601l5 11 5 19 17 51 5 16 4 14 5 13H374v21H885l44 49 53-49V471H710l-46-62-46-57-3-5H874l33 27 59-48-27-22V19L938 6 936-8l-5-12-6-13-9-11-11-8-12-7-13-4-14-3-13-1v33L767-18zM37 123l65 21 79 29V552H53v21H181V847l65-10 16-11-16-10V573h18l54 54 64-54V552H246V197l139 53 4-9-108-68-99-53L96 78l-6-3-5-20L70 67 37 123zM491 615V577l-64-32V807l64-10 16-11-16-10V637H643V871l65-11 16-11-16-9V637H857V807l65-10 16-11-16-10V594l-65-33v54H491zM874 326H787V-2h66 6l5 1 5 2 2 2 1 2 1 3 1 5v6V326z"/><glyph glyph-name="undefined" unicode="㛆" horiz-adv-x="1024" vert-adv-y="918" d="M895 20 866 43 839 68 813 97l-24 30-22 34-21 35-18 38-17 41-2 5V-51L645-83V240l-37-58-29-40-31-37-33-35-35-33L443 8 404-20 364-44l-6 9 66 64 31 33 30 35 27 36 26 38 25 40 22 41 21 43 8 20H4e2v22H645V444l64-11 16-10-16-10V337H846l54 53 65-53V315H711l44-65 48-63 25-28 25-25 26-22 26-19 27-17 53-29L925-1 895 20zM337 92l-17 26-20 24-21 24-3 2-33-62-40-57L158-1 109-42 56-75l-5 8L96-27l41 45 37 51 33 58 29 64 4 11-36 29-57 40-15 10-23-84-62 18L97 402l44 190 2 10H43v22H147l31 162 13 76 61-21 15-13-18-7-32-177-4-20H323l32 26 59-48-27-16-3-1-10-76-17-96-22-87-26-81-13-30 16-12 27-23 25-25 23-26 21-28 4-24-13-21-25-3-20 13-17 26zM321 602H208L175 449 136 296l20-6 35-14 32-15 31-18 7 19 22 77 17 86 14 92 7 85zM9e2 458l-19-18-10-8-11-7-11-5-12-5-12-4-12-2-13-2-13-1v33l-54 16v16h54 8l14 3 7 2 7 2 6 4 6 3 5 5 12 11 2 5 7 21 7 33 4 20 7 49 1 14H814l-10-44-70-16 48 205H646l-7-54-11-59-15-55-18-50-22-45-25-42-28-36-32-31-36-26-38-20-5 8 31 28 27 30 25 33 21 36 19 39 16 44 13 47 10 51 7 56 3 46H463v22H786l32 27 59-49-27-16-10-4-22-104h64l32 27 59-48-27-16-3-2-4-31-8-46-3-20-5-17-4-15-5-14-6-12-8-12z"/><glyph glyph-name="undefined" unicode="㞜" horiz-adv-x="1024" vert-adv-y="918" d="M152 847l64-32H840l32 27 59-49-27-21V638l-62-32 2-6 49-41 1-17-22 10-11-4-29-7-30-7-32-6-35-5-2-1V447h83l54 54 64-54V426H738l51-42 39-29 39-25 20-11 39-18 28-14-61-49-20 14-21 15-38 33-18 18-17 20-17 21-16 22-13 22V270l-62-30 17-13 9-16-19-4-17-33H825l54 54 65-54V153H838l-16-42-23-40-26-31 45-16 29-12 53-29 13-21-5-24-20-13-24 5-21 16-23 15-25 14L739 3l-4 2-37-24-43-20-48-15-51-10-57-5H438v10l58 10 54 13 46 16L638-2l36 22 8 6-39 15-42 15-11-22-72 1 60 118H447v21H589l46 92 33-24V372l-26-26-25-21-27-19-27-17-28-15-31-13-31-10-33-9-4 10 55 35 25 17 47 38 21 21 19 21 19 22 14 20H468l5-10H452l-28-39-46-53-16-17 22-4 16-11-16-9V-41L319-73V267l-47-40-62-42-7 8 73 82 44 54 39 54 18 28 32 56 1-1 3 5 45-33v9H668v67l-8-1-40-3-42-2-44-1H487l-1 10 168 37 71 17 62 19 49 17 4 2v29H216V471l-3-68-6-65-8-62-12-59-15-55-17-52-21-48-23-45L84-23 53-59l-8 6L66-12 85 30l17 45 14 48 12 50 10 53 7 57 5 59 2 63V847zM771 153H650L610 74l39-5 37-6 29-7 15 16 20 30 15 33 6 18zM394 587l6 7 46-46 5-18-21 3-38-32-62-45-46-29-51-25-5 8 95 95 32 35 30 34 9 13zM840 793H216V659H840V793z"/><glyph glyph-name="undefined" unicode="㟎" horiz-adv-x="1024" vert-adv-y="918" d="M9e2-51 871-27 808 16 740 56l-10 6-22-25L662 1 611-28 557-48 496-61l-64-5-1 10 61 15 54 19L595 3l43 31 37 35 12 16-111 52-25-52-57 30 30 63 44 110 12 32H408v22H588l25 74 31 105 59-26 13-15-18-5-24-78-18-55H868l54 54 64-54V320H849l-16-65-23-65-28-58-23-34 76-35 70-40L938 2l13-22-6-24-21-12-24 5zM113 138V73L49 41V670l64-11 16-11-16-9V159h71V831l65-11 16-10-16-10V159h80V670l65-11 16-11-16-9V105L329 73v65H113zM783 320H648l-34-95-31-73 16-3 42-10 41-13 29-10 23 42 23 53 17 59 9 50zM886 865l3-10 47-40 1-17-22 9-80-25-39-11-78-17-39-8-41-6-41-5-28-3-8-2-13-48-10-32-12-31-12-29-29-56-16-25-17-24-20-22-8 5 29 81 18 56 8 30 13 62 6 32 7 44 53-20 149 45 109 39 70 28zm21-339-4 20-11 41-7 20-17 42-31 66-13 23 8 6 38-37 16-19 29-40 14-20 11-21 11-20 18-43-3-25-19-15-24 3-16 19zM686 559l-2 16-2 17-3 17-7 32-5 16-10 33-8 16 8 6 25-27 12-14 10-15 10-16 17-34 7-17 7-19 5-19-6-24-21-13-23 6-14 21v18z"/><glyph glyph-name="undefined" unicode="㢉" horiz-adv-x="1024" vert-adv-y="918" d="M125 783l64-33H501V874l65-11 16-10-16-10V750H856l54 54 64-54V729H189V390l-3-63-6-59-8-57-12-53-15-49-17-46-21-43L84-18 56-52 26-80l-7 6L40-39 58-3 75 35 89 77l12 44 10 48 7 50 5 54 2 57V783zM466 237l-6 10-14 21-17 20-11 11-15 15V-46L338-78V265l-19-44-19-37-21-35-22-33-25-31-27-28-7 5 34 69 31 71 26 75 12 39 9 40 9 42 4 26H201v21H338V590l-50-10-37-5-40-5-2 9 163 66 48 23 20 10 18 11 15 10 11-19 31-31V631l-19 8-32-13-49-16-12-4V445h27l44 49 54-49V424H403V331l15-3 16-5 15-6 14-7 13-8 13-8 24-20 11-11 5-24-13-21-24-5-21 13-5 11zM910 8l33 134h10L943 8 962-5l13-20-13-19-19-13H742l-14 1-13 2-14 5-12 6-10 9-9 11-7 12-4 13-3 14V29 326L467 309l-2 21 191 18V583l-67-14-101-16-2 9 257 94 65 27 55 26 5-11 42-39 1-17-20 8-62-21-70-20-39-11V354l124 11 49 58 69-47 2-22-244-22V29l1-6V18l1-3 1-2 1-1 1-1 2-1 3-1 5-1h7H910z"/><glyph glyph-name="undefined" unicode="㤞" horiz-adv-x="1024" vert-adv-y="918" d="M173 863l65-10 16-11-16-10V-45L173-77V863zM922 3l32 135h11L954 3l19-13 13-19-13-19-19-13H669l-14 1-13 2-13 4-12 7-11 9-9 11-7 12-4 13-2 13-1 14V229L380 181l-5 21 208 49V474l-84-29-90-27-3 9 82 45 95 46v1h2l209 98 4-10 45-39 1-17-21 8-176-63V266l189 44 40 64 75-37 5-21-309-72V18l2-5 1-3 1-1V8l1-2 5-1 5-1 7-1H922zM67 388l-24 6-12 21 5 24 8 8 8 12 8 14 8 16 9 18 8 21 23 75 7 30 10-1V601 572l-1-27-2-26-4-23-4-22-5-21-6-19-7-17-8-16-21-13zM325 503l-3 14-9 30-13 31-27 52-12 17 7 6 33-26 15-14 14-14 24-30 20-30 8-16 7-17-3-24-19-15-24 3-15 19-3 14zm82 25-23 9-10 22 9 23 6 5 7 8 7 11 6 14 7 18 6 20 5 24 5 25 5 30 3 31h10l3-31 3-22H642V873l65-11 16-11-16-10V715H895l33 27 59-48-27-17-15-6-25-39-32-44-12-15-11-18-8 5 7 18 22 86 7 27v3H458l1-15V653l-1-23-2-22-4-20-5-18-8-17-9-15-23-10z"/><glyph glyph-name="undefined" unicode="㥩" horiz-adv-x="1024" vert-adv-y="918" d="M175 863l64-10 17-11-17-10V-45L175-77V863zM387 509l1-3-3-24-20-15-24 3-16 19-1 14-3 14-5 15-5 15-5 16-15 32-18 35-12 17 7 6 32-26 15-14 14-14 24-30 10-15 9-15 5-9H593V697H4e2v21H593V874l65-11 16-10-16-10V718h28l54 54 64-54v-6l20 30 40 69 5 10 54-37 8-17-19-1-37-57-49-71-52-67-37-41H866l54 54 64-54V509H718l-57-58-60-53-59-46H826l33 26 59-48-27-21V-23L826-55V-1H529V-39L464-71V299l-60-35-71-33-4 8 64 43 63 45 8 7v50l38-19 72 63 55 55 22 26H387zM826 165H529V20H826V165zm0 165H529V186H826V330zm-66 71-3 10-9 20-11 19-15 19-8 10-11 7 5 9 12-6 13-3 25-11 12-7 11-8 11-9 10-10 19-22 1-24-16-19-25-1-18 16-3 10zM72 388l-24 6-13 20 5 25 8 8 16 25 16 35 8 21 23 75 7 30 10-1V601 572l-1-27-2-26-3-23-4-22-5-21-6-19-6-17-8-16-21-13zM795 697H658V530h12l61 75 48 66 16 26z"/><glyph glyph-name="undefined" unicode="㦋" horiz-adv-x="1024" vert-adv-y="918" d="M585 630l65-11 16-10-16-10V521h13l44 48 54-48V499H650V384h19l52 54 35 42 31 41 3 4 49-43 6-18-20 2-23-26-39-42-16-14h95l53 54 65-54V362H725l-51-43-49-38-38-27H809l32 27 59-48-27-22V-30L809-62V-9H570V-46L506-78V202l-47-27-62-31-65-31-4 9 116 78 55 39 7 5v43l33-17 58 47 45 39 6 6H349v22H585V499H503v22h82V630zM158 863l64-10 16-11-16-10V-45L158-77V863zM809 112H570V13H809v99zm0 121H570V133H809V233zm-51 50-5 12-7 13-10 14-7 8-7 7-9 5 3 9 11-4 11-1 20-4 10-3 10-4 18-10 8-6 8-6 4-24-13-21-24-5-21 14v6zM75 389l-24 4-14 20 3 25 7 8 8 11 7 14 15 35 14 45 14 52 7 30 10-1 1-59-1-28-1-25-3-23-3-22-4-20-4-19-5-17-7-16-20-14zm855 59-58 45-27 24-50 53-23 28-21 29-20 31-18 32-14 31H629l-7-13-28-44-33-41-36-40-40-38-45-36-47-33-53-30-5 8 45 38 42 39 38 39 35 40 30 40 27 42 16 29H352v21H579l15 35 16 44 14 55 60-26 13-14-20-6-10-29-20-47-6-12H838l54 54 64-54V721H714l92-93 51-45 54-40 78-49-59-46zM287 504l-2 15-3 14-9 31-6 16-13 33-8 17-9 17 7 6 14-14 15-13 13-14 23-29 20-30 9-16 7-16 7-16-5-24-19-15-25 4-14 20-2 14z"/><glyph glyph-name="undefined" unicode="㨊" horiz-adv-x="1024" vert-adv-y="918" d="M107-23V-7h76l6 1 5 1 5 1 2 2 2 5 1 5v7V315L98 262l-4-20-16 10-35 56 161 63V631H56v22H204V863l65-10 16-11-16-10V653h34l54 53 64-53V631H269V396l113 43 37 13 4-9-65-43-67-39-22-12V15L268 1l-2-13-5-13-7-13-8-10-11-9-12-7-13-4-14-2-13-2v33L107-23zm632 1V-6h82l5 1 3 1 2 1 1 1 1 1 1 2 1 3 1 5v7 85H526V-40L461-73V391l65-32H836l32 26 60-48-27-21V16L9e2 2l-3-14-4-13-6-12-9-11-11-8-13-7-12-5-14-2H815v32L739-22zm97 241H526V122H836v97zm0 118H526V240H836v97zM454 450v21H681V604H547l-29-37-32-36-36-32-41-28-44-24-5 8 37 32 33 33 30 35 26 36 23 38 19 40 16 42 6 20H391v22H556l10 49 6 48 1 12 63-19 15-13-19-8-6-32-10-37H858l44 48 54-48V731H610l-15-40-22-44-13-22H788l54 54 64-54V604H746V471H854l54 54 65-54V450H454z"/><glyph glyph-name="undefined" unicode="㪜" horiz-adv-x="1024" vert-adv-y="918" d="M877-30 826 3 780 40 738 82l-6 7-48-45L628 3 567-31 502-58 432-76l-2 9 12 5-5-1-13-1v30L349-19v1L321-32V326H251V-5L198-32V326H130V-35L71-65V377l59-30h92l3 11 8 36 4 17 4 16 3 15 7 28v1H39v21H415l53 54 65-54V471H316L250 368l-12-16-2-5H442l29 27 57-48-27-19V19L5e2 6 498-6l-3-12-6-12-8-10-7-8 20 9L553-6l54 38 50 42 45 48 2 3-36 56-29 56-23 61-19 65-11 65H537v21H688V863l64-10 16-11-16-10V670H886l44 48 53-48V648H752V449H862l32 27 59-48-27-16-8-4-21-59-33-74-38-67-43-62-14-16 9-10 40-35 43-29 47-25L994-4 932-56 877-30zM597 428l22-59 26-59 29-56 32-49 29-39 8 10 36 59 32 65 28 71 18 57H597zM146 615V577L81 545V807l65-10 16-11-16-10V637H254V871l64-11 17-11-17-9V637H423V807l65-10 16-11-16-10V594l-65-33v54H146zM442 326H374V-5h50l5 1h4l3 2 1 1 2 4 1 3 1 6 1 7V326z"/><glyph glyph-name="undefined" unicode="㰐" horiz-adv-x="1024" vert-adv-y="918" d="M803 75V91h54 7l4 1 4 2h2l1 1v1l1 2 2 3v5l1 6v70H758V58L707 32l18-9 25-8 31-5 41-1 50 2L990 23 940-53l-66-3-54 2-47 6-39 10-32 16L677-2 658 22 644 49l-9 29-2 11-1-1-7-18-7-16-15-31-24-43-4-6 6-23-20 3-55 35 7 8 45 40 37 34V347H530l3-20 1-29-1-29-4-4-2-10-4-13-6-11-8-12-9-10-11-8-12-6-13-4-14-2-14-1v32l-33 13V-35L339-67V355l-10-13-25-3-19 16-10 25-13 24-8 12-17 23-9 12-1 1V-34L162-67V4e2l-14-41-18-47-41-87-23-41-25-39-9 4 31 88 29 89 12 46 23 95 9 49 8 50 4 36H36v22H162V864l65-11 16-11-16-9V624h16l44 48 52-47V833l64-33h78l32 27 59-48-27-16-7-3-16-47-19-50-23-51-28-53-14-22 21-22 18-25 15-25 13-26 10-27 9-28 5-28 1-8v21h65l29 27 57-49-27-19V99l-5-3 23-31 16-19 11-9V445l59-30H879l32 27 59-48-27-22V112 99l-3-14-4-12-7-13-9-11-11-8-12-7-13-4-13-3-14-1V59L803 75zm76 213H758V204H879v84zM467 303l3 23v25 24l-3 24-4 26-7 26-7 26-20 56 3 1-6 3 6 30 33 136 14 71v5H403V253h33 7l6 1 6 2 2 2 2 2 1 1 3 17 4 25zm412 91H758V310H879v84zM339 602H227V473l13-5 15-7 28-17 25-21 23-24 8-10V602zm239-87-8 26-9 24-16 34-6 12-8 9 6 7 11-7 12-6 12-8 22-18 20-23 18-26 8-14V501l-18-18-24 1-17 17-3 14zm131-20v21h94V633H765l-13-30-17-32-20-29-22-26-25-22-7 6 29 56 13 31 11 32 10 34 8 35 7 38 3 20H679v22h65l4 40 2 39 1 17 64-16 15-11-18-10-3-25-6-34h32l54 53 64-53V746H799l-7-31-12-40-7-21h80l33 38 43-38V633H868V516h18l33 38 43-38V495H709zM607 689l-3 14-8 27-12 37-11 24-5 12-8 10 7 7 11-8 11-7 12-9 10-9 11-11 19-23 18-26 8-14-1-24-17-18-25 1-17 17z"/><glyph glyph-name="undefined" unicode="㸃" horiz-adv-x="1024" vert-adv-y="918" d="M96-72 78-56 77-32 93-13l15 7 14 8 13 10 13 12 11 15 10 16 10 20 8 22 8 24 5 28 10-1 1-28 1-28-3-25-5-25-7-23L187-3 174-23 159-41 142-57 121-71 96-72zM886-27l-5 16-8 17-9 18-12 18-13 19-33 40-19 20-21 21 6 8 27-15 24-15 23-15 40-34 32-36 13-19L943-4l9-20-3-25-19-16-24 3-16 19-4 16zM628-13 627 2l-4 15-5 16-7 16-8 17-10 17-12 18-14 18-16 18 6 8 41-27 34-30 15-16 13-17 11-17 9-19 7-19 6-20-7-24-22-11-24 7-11 21-1 14zM431-48l-23-7-22 11-7 24 3 14 2 14V23l-1 15-2 15-4 16-5 16-7 17-8 18-12 17 7 7 32-28 13-15 12-17 11-16 8-18 7-18 4-19 4-20V-27L431-48zM63 225l188 29V369H77v21H251V507H144V470L79 438V861l65-32H419l32 27 59-49-26-21V486l-65-32v53H315V390h56l53 54 65-54V369H315V263l112 15 44 4 45 3 1-9-85-27-86-23-239-57-8-20-14 14-22 62zM687 863l65-11 16-11-16-9V693H884l44 48 54-48V671H752V493H868l32 27 59-49-27-21V196l-64-33v54H601l-64-32V525l64-32h86V863zM601 471V239H868V471H601zM251 807H144V529H251V807zm168 0H315V529H419V728l-2-1-7-20-8-19-17-36-10-17-11-15-12-15-25-27-7 6 7 16 5 17 10 33 4 18 4 17 3 18 3 18 2 19 1 14 2 16 58-20v57zM186 631l-1 15-2 15-2 15-7 28-3 14-10 29-7 13 8 6 11-11 12-11 11-12 10-13 9-13 9-15 7-15 7-16 6-17 6-17-6-24-21-13-24 6-13 21v15z"/><glyph glyph-name="undefined" unicode="㸰" horiz-adv-x="1024" vert-adv-y="918" d="M444 519l-23 8-10 23 9 23 5 4 6 7H3e2V345l88 28 44 11 4-9-79-42-57-28V-45L236-77V274L101 211l-3-20-17 11-34 55 189 67V584H144l-7-23-13-40-15-38-16-37-18-35-20-33-9 4L75 494l10 39 8 39 7 41 7 42 5 42 4 44 3 40 2 17 63-18 15-12-18-9-4-25-8-45-19-84h86V869l64-11 16-11-16-9V605h25l54 54 64-54 2 4 6 17 6 20 5 22 10 53 3 31h10l3-31 2-20H664V854l64-11 16-11-16-9V701H901l32 27 60-48-27-17-15-6-43-65-22-30-11-16-8 4 6 18 9 36 12 47 3 14 2 13v2H492l1-14 1-25-1-23-2-21-3-19-5-18-7-16-9-15-23-10zM916 25l33 134h10L949 25l18-13L981-8 967-27 949-40H623l-14 1-13 2-13 5-12 7-11 8-9 11-7 12-4 13-2 14-1 13V595l65-11 16-11-16-10V320L872 481l9-16 35-34V413l-19 8-117-54-1e2-41-71-25-7-3V40l1-5 1-5 3-2 4-2 5-1h7H916z"/><glyph glyph-name="undefined" unicode="㸱" horiz-adv-x="1024" vert-adv-y="918" d="M81 202 47 257l189 67V584H144l-7-23-13-40-15-38-16-37-18-35-20-33-9 4L75 494l10 39 8 39 7 41 7 42 5 42 4 44 3 40 2 17 63-18 15-12-18-9-4-25-8-45-19-84h86V869l64-11 16-11-16-9V605h25l54 54 64-54V584H3e2V345l88 28 44 11 4-9-79-42-57-28V-45L236-77V274L101 211l-3-20-17 11zm693-21v16h60l5 1 3 1 2 1 1 1 1 1 1 1 1 3 1 5v7V461L735 417V111L671 78V392L570 354V31l1-5 1-3 1-3 2-1 2-1 3-1 5-1h7H919l32 134h11L951 16 971 3l12-20-12-19-20-13H592l-14 1-14 2-13 5-12 6-11 9-8 11-7 12-4 13-3 14V37 329l-79-31-7 20 86 33V564l64-10 16-11-16-10V376l101 39V634l64-10 16-11-16-10V440l114 44v12l32 27 59-49-26-21V218l-1-14-3-13-4-13-6-12-10-11-10-9-13-6-13-5-13-2-13-1v33l-54 16zM570 866l60-25 13-15-20-5-7-23-32-82-19-39-4-7H843l53 54 65-54V648H549l-26-43-24-34-26-32-27-30-30-27-7 6 60 102 18 35 17 36 30 75 12 39 11 41 9 36 4 14z"/><glyph glyph-name="undefined" unicode="㻔" horiz-adv-x="1024" vert-adv-y="918" d="M696 165V-8H854l54 54L972-8V-29H355V-8H631V165H382v21h95V385H360v21H477V595H388v21H631V747l-15-2-52-6-56-5-58-3-62-1v9l170 35 1e2 23 45 12 83 24 37 13 34 14 3-9 48-41 1-17-22 9-45-14-40-10-43-9-45-9-18-3V616H821l54 54 64-54V595H850V406h15l54 54 64-54V385H850V186h18l34 38 43-38V165H696zM63 76 32 135l71 19 59 19V455H58v21H162V734H48v22H249l54 54 64-54V734H227V476h11l54 54 65-54V455H227V193l72 24 72 22 3-9-64-40-95-49-93-41L83 85 78 65 63 76zM631 385H542V186h89V385zm155 0H696V186h90V385zM631 595H542V406h89V595zm155 0H696V406h90V595z"/><glyph glyph-name="undefined" unicode="㻧" horiz-adv-x="1024" vert-adv-y="918" d="M896-3 864 20 835 46 806 73l-27 28-25 30-24 32-22 33-19 36-2 3V-44L623-76V196l-36-50-29-34-31-31-33-29-35-27L422 2 382-19 341-37l-5 9L372-2l65 55 29 29 28 30 26 33 24 33 22 36 20 37 6 15H357v21H623V417l64-11 16-10-16-10V287H835l54 54 64-54V266H688l72-78 54-51 58-45 29-20 87-50-59-47L896-3zM36 134l124 38V455H61v21h99V734H51v22H242l54 54 64-54V734H225V476h27l44 49 54-49V455H225V194l139 45 4-9-62-39-62-34-91-44L94 88l-7-3-6-20L66 77 36 134zM482 561l-2 8-7 18-11 18-15 19-15 18-13-22-20-28-21-26-24-25-8 5 42 91 25 62 21 63 8 33 8 34 6 34 2 10 61-24 13-14-19-7-16-50-8-19h88l32 26 59-48-6-4H793V880l64-11 16-11-16-10V733h16l44 49 54-49V712H857V485h24l44 48 54-48V463H857V345l-64-33V463H688l-1-6-70-19 46 242 61-23 14-13-17-5-29-154H793V712H650v14l-8-5-6-2-8-40-17-59-20-56-24-50-28-46-31-42-35-37-38-31-42-26-44-20-5 9 38 28 34 31 31 34 28 37 25 40 22 44 7 17-3-3-25-3-19 15zm93 176H481l-11-25-16-31-14-27 10-3 26-11 12-6 12-7 10-8 10-8 10-9 8-9 2-12 16 55 12 56 7 45z"/><glyph glyph-name="undefined" unicode="㼠" horiz-adv-x="1024" vert-adv-y="918" d="M872 528V30l1-11 1-3 1-3 2-1 5-2 5-1h7 32l32 134h11L958 9 978-4l12-20-12-19-20-13H894l-14 1-14 2-13 5-12 7-11 8-8 11-7 12-4 13-2 14-1 14 4 515H651L626 39l52 14 73 17 39 8 3-9-70-35L499-60l-5-20-15 12-31 57-11-7H222l-14 1-14 2-13 4-12 7-11 9-8 11-7 12-5 13-2 13V68 568l64-11 16-11-16-9V319L338 444l54 53 14 16 44-47 4-19-21 5-63-47-121-81-49-28V61l1-5 2-4 2-3 5-1 5-1 7-1H404l33 135h10L437 46l19-13 13-19L456-5l-7-5L515 9l45 12 37 740H490v22H845l54 54 65-54V761H662l-9-193H813l32 27 59-49-26-16-6-2zM713 247l-2 22-3 20-4 21-5 19-5 19-7 19-15 36-10 18 8 6 31-28 14-17 13-18 11-19 10-20 9-21 8-23 7-23 5-25-6-23-22-13-23 7-13 21-1 22zM117 681l1-11V648 627l-1-18-3-18-4-16-7-15-9-14-22-9-23 9-10 23 10 22 5 3 5 6 7 9 6 11 6 15 5 17 5 20 8 46 3 27 9 1 3-27 3-17H243V858l65-11 16-10-16-10V702H426l32 27 59-48-27-17-19-7-13-19-39-46-11-12-11-14-8 4 7 16 21 73 6 22H117z"/><glyph glyph-name="undefined" unicode="㾃" horiz-adv-x="1024" vert-adv-y="918" d="M32 278l11 5 30 9 16 6 35 14 76 36v64V772l65-32H534V874l64-11 16-10-16-10V740H856l54 53 64-53V718H265V412l-4-67-7-64-11-60-15-55-19-51-22-47-27-42-30-37L96-44 58-70l-6 8L81-29 107 6l23 39 20 41 16 45 14 49 9 52 7 56 2 34-35-32-33-27-32-22-11-6-5-23-16 11-34 55zM875 22l32 134h11L907 22 926 9l13-20-13-19-19-13H527l-13 1-14 2-13 5-12 6-11 9-9 10-6 13-5 13-2 13-1 14V475l65-11 16-11-16-9V252L826 389l4-9 46-41 2-16-21 8-75-24-109-33-76-21-40-9-40-9-11-2V43 36l1-5 1-3 1-2 1-1h1l2-1 3-1 5-1H875zM650 561H858l3 4h1l28 23 60-48-27-16-22-10-22-24-33-33-13-11-10-13-8 6 8 15 17 44 15 42H382l1-10 1-21-2-19-3-17-4-17-6-16-9-14-11-13-24-6-21 12-6 24 12 21 6 3 7 4 6 7 7 10 7 13 6 15 5 17 10 42 2 24h9l3-24 2-14H586V683l64-10 16-11-16-10V561zM108 508l-3 17-4 16-5 16-5 16-13 29-8 14-9 14-10 11 6 8 29-18 15-11 13-12 13-14 11-16 10-16 10-18 8-19 8-20-4-24-20-15-25 4-14 20-3 18z"/><glyph glyph-name="undefined" unicode="䃎" horiz-adv-x="1024" vert-adv-y="918" d="M648 535H767l3 4h1l28 23 30-25-19 24-21 28-20 30-18 32-17 33-12 31H660l-32-57-31-43-34-41-38-39-40-37-46-35-48-31-6 8 42 39 38 40 35 40 31 40 29 42 24 42 16 32H401v22H609l14 34 14 46 12 46 2 10 60-24 13-14-19-6-9-31-19-48-7-13H843l53 53 65-53V715H737l86-97 49-47 24-21 52-39 45-30-60-45-26 22-26 24-25 25-3 3-22-13-14-6-20-34-33-47-36-45-3-2 53-33 10-18-21-1-8-14-7-10H871l32 27 59-48-27-17-13-5-21-41-35-55-40-49-45-42-48-37-52-31-56-24-59-18-64-11-66-4-1 9 64 15 58 19L611-2l50 27 46 32 24 21h-1L713 96l-3 10-3 12-4 10-4 11-5 11-13 21-14 19-32-27-29-21-32-19-34-17-36-14-4 9 57 46 51 47 23 24 41 53 18 28 16 29 13 28-29-31-41-37-43-33-45-28-47-24-50-20-52-15-3 9 47 25 44 26 42 28 39 32 37 33 12 13h-8l-17 18-2 10-5 20-4 9-9 19-6 9-12 16-20-18-25-21-27-20-29-17-31-14-5 8 68 68 39 48 18 25 31 52 14 28 13 28 3 6 55-34 10-17-21-1-6-11-6-10zM325 799l64-54V724H262l-12-50-16-53-17-52-19-52-15-35H285l32 27 60-49-27-21V62L285 30V95H192V30L127-2V365l-24-43-30-46-31-44-9 5L98 384l19 50 10 28v4h1l23 68 15 51 13 51 11 52 6 36H60v21H271l54 54zM285 460H192V116h93V460zM863 266H737l-22-28-25-27-11-10 21-10 23-15 12-10 10-10 9-11 10-12 8-13 13 15 33 46 29 51 16 34zM757 513H634l-18-24-22-26-16-16 6-2 12-5 12-6 11-7 10-8 10-10 10-10 8-11 8-13v-2l21 26 30 43 28 47 13 24z"/><glyph glyph-name="undefined" unicode="䅊" horiz-adv-x="1024" vert-adv-y="918" d="M395 282l-7 13-18 26-23 25-12 12-43 36V-45L227-77V368l-18-44-22-46-23-44-26-42-28-39-30-37L48 81l-8 6 46 81 22 42 37 86 17 45 15 47 13 49 12 49 6 33H44v22H227V722l-29-7-45-9-47-7-50-7-3 10 174 61 69 28 29 13 50 25 20 12 9-17 34-33V773l-19 8-18-7-56-21-32-9-21-6V541h48l54 54 64-54V519H292V410l25-7 20-7 18-8 34-19 16-10 15-12 27-27 6-23-13-22-23-5-22 12zM781-59H767l-13 3-13 4-12 7-11 9-9 11-6 12-4 13-3 13-1 14V286L529 271l-1 10-2-17-9-55-13-51-15-48-19-45-21-40-26-36-28-32-32-27-6 7 22 33L399 4l18 37 15 40 13 42 11 46 8 49 4 52 3 56V718l64-32H685V869l65-11 16-11-16-9V686H854l54 54 65-54V664H535V385l-3-62-3-30 166 15V516l-57-12-44-7-47-6-2 9 199 73 63 25 53 25 19 9 4 2 5-11 43-39 1-17-20 9-29-10-58-19-65-17V314l97 9 49 58 69-48 1-21-216-20V27 20l1-4 1-4 1-2 2-1 2-1 3-2h5l6-1H925l32 135h11L957 5 976-8l13-19-13-19-19-13H781z"/><glyph glyph-name="undefined" unicode="䅜" horiz-adv-x="1024" vert-adv-y="918" d="M346 297l-7 13-8 12-19 25-36 36-9 8V-45L202-77V351l-29-73-22-43-23-42-25-40-27-37L46 81l-8 6 40 81 19 41 33 87 15 45 13 47 12 47 10 50 5 34H42v22H202V721l-61-14-43-8-45-7-3 10 120 47 66 28 56 26 43 25 17 12 13-21 29-30V771l-19 8-35-15-56-20-17-6V541h48l44 48 54-48V519H267V409l21-7 17-7 17-8 16-9 15-10 15-10 26-25 13-13 4-24-14-21-24-5-20 14-7 13zM685 165V-8H843l54 54L961-8V-29H344V-8H621V165H372v21h94V385H350v21H466V595H378v21H621V747l-15-2-53-6-56-5-58-3-61-1-1 9 170 35 1e2 23 46 12 82 24 37 13 34 14 3-9 48-41 1-17-22 9-45-14-40-10-42-9-46-9-18-3V616H810l54 54 65-54V595H839V406h15l54 54 65-54V385H839V186h19l33 38 43-38V165H685zM621 385H531V186h90V385zm154 0H685V186h90V385zM621 595H531V406h90V595zm154 0H685V406h90V595z"/><glyph glyph-name="undefined" unicode="䆛" horiz-adv-x="1024" vert-adv-y="918" d="M894 12l32 134h11L926 12 945-1l13-19-13-20-19-13H716l-14 1-14 2-13 5-12 6-11 9-8 11-7 12-5 13-2 13V33 225L424 212l-2 22 208 13V405l-72-9-50-5-54-3-1 9 306 83 64 20 22 8h1l5 2 2-8 51-43 2-17-23 10-14-4-30-7-67-14-78-13V251l134 8 50 57 68-49 1-22-253-16V26l1-4 2-5 1-1 1-1 2-1 3-1 5-1H894zM91 452l65-33H320l32 27 59-48-27-22V80L320 47v65H156V47L91 15V452zm229-54H156V133H320V398zm43 319 60-26 13-14-21-6-5-12-19-29-25-27-30-23-35-20-40-18-44-15-49-12-53-10-59-6-2 9 56 17 50 17 46 19 39 19 33 19 28 21 22 21 16 22 10 22 5 17 4 15zM899 595l26 106-41-32-30-21-16-10-16-13-7 7 13 16 48 72 7 12 1 1H652V609l1-5 1-5 2-1h1l1-1 3-1 5-1H899zM59 598 41 614l-2 25 16 18 10 4 10 6 10 7 9 9 8 12 8 15 7 17 6 19 6 22 2 24 10 1 4-38H480V874l64-11 16-11-16-10V755H894l3 3 3 5 2-1 24 20 59-49-27-16-17-7-10-115 20-13 13-20-13-19-20-13H673l-14 1-13 2-13 5-12 6-11 9-9 10-7 13-4 13-2 13-1 14V733H146V721l-1-21-4-20-6-19-10-18-11-17-14-14-16-12-25-2z"/><glyph glyph-name="undefined" unicode="䊬" horiz-adv-x="1024" vert-adv-y="918" d="M728 330v1l3 4 2 2 47-44 6-19-23 4-36-29-52-36-41-24H851l53 54 65-54V168H553l86-49 77-35 41-16 43-14 44-14 47-12L986 5 923-52 872-37 824-20 779-2 735 18 694 39 656 62 619 86l-33 26-30 29-12 13V-43L480-75V140l-14-14-36-29-38-27-41-24-43-23L261 2 211-17 159-33 103-47 45-59 43-49 98-28 198 16l46 23 42 24 39 25 36 27 33 27 27 26H55v21H480V359l64-11 16-10-16-10V189h68l82 95 30 39 4 7zM338 216l-6 9-7 9-20 20-27 22-34 25-20 10 4 9 22-7 22-5 19-6 18-6 33-14 15-8 25-17 11-10 6-24-12-21-24-6-21 12-4 8zM941 353l-33 15-59 34-27 18-26 20-23 20-21 21-19 22-16 24-6 12V359l-65-33V503l-11-12-27-23-30-21-33-20-36-18-38-17-42-15-45-13-48-11-3 9 85 42 38 20 34 21 31 21 28 22 24 21 20 22 13 17H401l-5-15-22-11-23 8-13 15-7 8-19 16-24 16-24 15V359l-64-33V574l-12-18-20-26-20-25-24-23-24-22-27-20-29-18-6 8 60 75 33 50 27 53 11 27 10 28 2 8H42v22H2e2v91l-24-3-39-4-41-2-44-1-2 9 216 60 26 8 44 16 13 6 5 2 3-9 48-41 1-17-21 9-10-3-44-10-54-10-13-2V693h25l54 54 65-54V671H264V615l18-2 17-2 30-6 28-9 13-5 23-13 5-9H646v65H510l-65-32V871l65-32H847l33 27 59-49-27-21V634l-65-32v32H711V569H883l43 49 54-49V548H726l52-38 47-29 25-14 27-13 29-12 97-37-62-52zM646 724H510V656H646v68zm201 0H711V656H847v68zM646 817H510V746H646v71zm201 0H711V746H847v71z"/><glyph glyph-name="undefined" unicode="䋾" horiz-adv-x="1024" vert-adv-y="918" d="M366 353l-5 20-2 8-37-15-31-11-16-5V-45L211-77V332l-50-12-66-14-12-2-10-19-12 15-19 63 11 1 34 3 48 4L307 662l41 74-1 1 6 9 53-37 8-18H394l-64-96-80-111-58-71-30-35-4-4 60 7 97 13 32 3 7 1-11 30-17 35-20 34-12 15 6 8 35-24 16-14 14-15 14-17 13-18 11-19 11-19 10-22 8-22-3-24-19-15-24 3-15 19-5 20zM112 266l63-19 14-12-18-9-2-9-8-30-8-29-10-29-12-28-13-28-15-27L87 19 68-7 48-31l-9 5L71 60l9 28 8 28 7 28 6 27 4 28 3 28 2 27 2 12zM363 105l-4 21-5 21-5 20-14 38-17 36-9 18-12 17 7 7 34-27 29-32 13-18 12-20 11-20 10-22 9-24 8-24-5-24-20-14-24 4-14 20-4 23zM856 266H742l-19-27-23-27-12-12 7-3 12-6 12-8 11-8 10-9 10-11 9-11 9-12 6-9 9 11 31 46 28 52 14 34zM758 513H647l-37-49-15-18 5-1 11-5 11-7 11-7 19-17 9-11 8-11 6-10 17 21 28 43 25 47 13 25zm-98 22H766l4 3 29 24 20-17-32 45-18 30-17 32-14 32-11 31H671l-30-56-28-43-32-42-35-39-38-37-43-34-45-32-7 8 39 39 35 39 33 40 29 41 25 41 23 43 15 32H429v22H621l12 33 13 46 13 57 61-24 13-14-19-6-9-30-18-49-6-13H831l54 53 64-53V715H741l82-98 45-46 24-22 47-38 41-30-59-44-49 46-23 24v1l-18-11-14-5-18-33-31-49-33-44-5-5 51-31 11-17-21-2-7-13-8-11H863l32 27 59-48-26-17-12-4-20-41-33-55-38-48-40-43-46-38-49-30-52-25-56-18-58-11-63-4-1 9 60 15 54 19L624-3l46 28 41 31 23 23h-1L716 96l-2 12-3 11-3 11-4 10-10 21-12 21-5 7-29-26-28-21-30-19-31-17-34-14-4 9 52 45 47 47 41 51 18 26 16 28 15 29 9 21-20-23-38-37-40-32-42-29-44-24-47-20-49-15-3 9 43 25 41 26 39 28 36 31 34 34 12 13-8 1-17 18-1 10-2 10-3 10-3 9-8 19-5 9-6 9-4 6-18-18-24-21-25-19-27-17-29-15-5 8 42 45 38 47 18 24 31 50 14 27 12 27 15 34 56-32 11-16-21-3-6-11-6-10zm-511-1-11 33-16 32-9 16-11 15-13 16-27 30-17 14 5 8 41-18 19-11 18-13 4-3 15 34 62 132 20 44 3 6 54-36 9-16-20-2-29-45-44-60-32-39-27-27 17-16 14-16 13-17 12-19 10-19-1-25-17-16H166l-17 18z"/><glyph glyph-name="undefined" unicode="䍫" horiz-adv-x="1024" vert-adv-y="918" d="M265 369l-2-57 46 12 97 23 51 11 3-10-95-40-106-41-2-30-11-59-14-54-18-48-22-43L166-4 136-35 102-59 65-76l-4 8L90-43l25 28 22 32 19 35 16 40 12 46 9 50 6 54v2L76 197l-6-20-15 13-30 57 10 4 166 45 1 7-1 66v91H77v22H201V643H40v21H269l47 113 19 49 4 15 4 6 54-35 10-16-22-2-40-56-40-51-20-23h42l53 54 65-54V643H265V482h29l54 53 65-53V460H265V369zM930 25l32 134h11L962 25l19-13L994-8 981-27 962-40H646l-13 1-13 2-13 5-13 7-10 8L574-6 568 6l-4 13-3 14-1 13V595l65-11 16-11-16-10V321L887 481l10-18 33-32V412l-19 8-144-67-1e2-40-36-12-6-2V46 40l1-5 1-3 1-2 2-2 5-2 5-1h6H930zM472 519l-23 8-11 22 8 24 6 4 6 7 7 11 6 14 6 17 5 20 6 22 9 53 4 31h9l4-31 2-20H683V854l65-11 16-11-16-9V701H915l32 27 60-48-27-17-15-6-32-51-32-44-10-16-9 4 6 18 16 68 7 28 2 16H518l1-14 1-25-1-23-2-21-3-19-4-17-7-17-9-15-22-10zM138 694l-1 14-6 27-7 27-11 28-13 27-9 13 7 7 12-11 14-9 24-22 11-12 19-28 8-14 8-15 7-16-4-25-20-15-24 5-15 19z"/><glyph glyph-name="undefined" unicode="䏧" horiz-adv-x="1024" vert-adv-y="918" d="M690 169l-5 12-6 13-7 12-18 26-37 38-10 7-33-28-35-26-37-24-38-21-41-17-5 8 35 27 64 55 30 29 54 61 24 33 23 35 21 35 19 38 3 5 54-35 9-18-20-1-32-48H896l3 2v1l30 24 59-49-27-16-13-5-28-54-45-67-48-60-54-54-58-48-64-41-67-34-73-28-77-19-81-13-2 9 78 23 72 28 67 32 62 37 57 43 48 43H711l-17 17-4 13zM93 853l64-33H297l32 27 59-48-27-22V19 6L359-8l-5-12-7-13-8-11-11-8-12-7-13-4-14-3-14-1v33L189-18V-2h86 7l5 1 5 2 1 1 1 1 1 2 1 3 1 5V326H157V304l-2-57-4-54-6-49-8-46-10-40-12-36-14-33L86-38 67-60 47-75l-7 7L51-47l9 23L68 3l8 30 6 35 5 38 4 43 2 48 1 51-1 56V853zM887 363H686l-18-22-29-32-23-23 27-10 17-8 17-9 15-11 15-11 13-12 12-14 11-14 10-15V159l33 37 42 58 38 64 21 45zM641 777H823l3 4 1-1 29 24 59-48-27-16-14-6-23-44-37-58-41-56-45-51-48-47-52-44-55-39-59-34-63-30-65-26-5 9 61 35 57 36 53 39 50 42 46 44 42 48 40 51 35 54 32 57 17 36H628l-12-21-23-32-24-28 12-4 16-7 16-8 29-17 26-21 12-12 10-12 4-25-14-20-24-4-20 14-5 12-13 23-8 12-18 23-33 34-19-19-29-28-30-25-34-23-34-20-6 8 28 28 51 57 24 29 41 61 19 32 31 67 15 43 58-32 11-15-20-4-24-45zM297 568H157V347H297V568zm0 231H157V589H297V799z"/><glyph glyph-name="undefined" unicode="䐒" horiz-adv-x="1024" vert-adv-y="918" d="M82 853l65-33H271l32 27 59-48-27-22V19L334 6 332-8l-4-12-7-13-9-11-11-8-12-7-13-4-13-3-14-1v33L163-18V-2h86 7l4 1 5 2 2 2 2 5 1 5 1 6V326H147V304l-3-57-4-54-5-49-8-45-9-41-11-36L94-10 79-37 62-59 43-75l-7 7 9 20 8 23L61 2l6 30 6 35 5 39 3 43 1 48 1 51-1 56V853zM855 266H717l-23-28-27-27-11-10 9-3 13-6 13-8 12-8 12-9 21-21 9-13 9-13v-3l18 18 35 47 32 51 16 33zM271 568H147V347H271V568zm471-55H608l-20-24-22-26-16-16 6-2 12-5 12-6 12-7 11-8 11-9 9-11 9-11 8-12v-7l26 30 33 44 30 47 13 23zM622 535H752l5 5 1-1 27 23 43-36-30 34-23 29-21 30-19 31-18 34-14 31H635l-34-58-32-43-36-41-40-39-43-37-48-34-52-31-5 8 44 40 41 39 38 40 34 41 30 41 26 43 16 31H362v22H585l15 35 15 45 14 56 60-25 14-14-20-6-10-30-20-49-7-12H839l54 53 64-53V715H718l91-97 51-46 27-21 54-39 48-31-59-46-29 22-27 24-27 25-5 6-25-15-15-6-22-34-35-48-37-45 52-35 10-17-21-1-9-14-7-10H863l32 27 59-48-26-17-13-5-23-42-38-54-43-49-46-43-51-36-55-31-59-24-64-18-66-11-71-4-1 9 68 15 63 19L586-2l53 27 49 33 25 20-18 17-3 11-3 11-4 11-5 11-12 21-16 21-7 10-35-28-32-22-34-18-35-17-38-14-4 9 32 23 58 46 51 49 44 53 19 28 17 29 16 32-37-37-43-36-45-33-48-29-50-24-53-19-55-15-2 9 50 25 47 26 45 28 42 32 40 34 12 12h-8l-18 17-2 10-3 10-3 10-4 10-5 9-6 10-14 18-6 8-22-20-27-21-29-19-30-17-32-14-5 8 50 46 45 47 20 24 37 50 16 27 14 27 14 29 3 6 54-35 10-17-21-2-6-11-7-9zM271 799H147V589H271V799z"/><glyph glyph-name="undefined" unicode="䐱" horiz-adv-x="1024" vert-adv-y="918" d="M761-29v16h86l6 1 5 1 5 1 2 2 1 2 1 3 1 5V9 525H483V-45L418-77V578l65-32H736l3 11 4 20 7 37 7 34 5 30 2 14 1 9h-1l4 14 60-27 12-14-22-6-35-66-19-33-11-17-3-6H868l33 27 59-48-27-22V9L932-5l-2-13-5-13-6-13-9-10-11-9-12-7-13-4-14-2-13-1v32L761-29zM77 853l64-33H281l32 27 59-48-27-22V19 6L343-8l-5-12-7-13-8-11-11-8-12-7-13-4-14-3-14-1v33L173-18V-2h86 7l5 1 5 2 1 1 1 1 1 2 1 3 1 5V326H141V304l-2-57-4-54-6-49-8-46-10-40L99 22 85-11 70-38 51-60 31-75l-7 7L35-47l9 23L52 3l8 30 6 35 5 38 4 43 2 48 1 51-1 56V853zM644 498l64-11 16-11-16-9V396h21l54 53 64-53V374H708V261h28l32 27 60-48-27-22V35L736 3V68H615V3L551-29V294l64-33h29V374H504v22H644V498zM615 240V89H736V240H615zM281 568H141V347H281V568zm284 9-2 28-3 14-1 14-8 40-4 13-2 13-6 12 8 6 9-11 10-9 10-12 17-23 8-13 8-14 13-29 6-15-5-24-20-15-24 5-14 20zM281 799H141V589H281V799zm111-81v22H644V874l64-11 16-10-16-10V740H842l53 53 65-53V718H392z"/><glyph glyph-name="undefined" unicode="䑨" horiz-adv-x="1024" vert-adv-y="918" d="M246-25v15h83 5l3 1 4 1 2 3 1 2 1 4 1 6V395L238 373l-44-8-5-1-1-20-4-65-6-60-10-56-11-51-14-47-18-43-19-38L84-48 58-75l-8 6L66-37 80-3 93 34l10 42 9 45 7 50 5 54 3 58v62 9l-47-8-9-18-13 15-18 63 86 7V756l65-32h16l4 7 17 46 9 30 10 42 1 9 1 5 3 8 58-28 13-15-23-5-13-22-19-27-21-26-11-13-13-11H346l29 26 57-48-27-19V439l38 2 41 3 1-10-39-13-39-11h-2V14L404 1l-1-12-4-13-5-11-8-11-9-8-11-7-13-5-12-2-12-1v29L246-25zM228 337l59-11 14-11-14-9V115L228 85V337zM781 177v17h54 7l4 1 4 1 1 1h1l2 4 1 2 1 6V454L751 412V108L687 76V386l-93-37V29l1-5 2-5 2-2 5-1 5-1H923l32 134h11L955 15 974 2l13-20-13-19-19-13H616l-14 1-14 2-13 4-12 7-11 9-8 10-7 13-5 13-2 13V36 323l-73-29-8 20 81 32V557l64-10 16-11-16-10V372l93 37V627l64-11 16-11-16-9V435l105 42v13l32 27 59-49-26-21V215l-1-14-3-13-4-13-6-12-9-11-11-9-12-6-13-5-13-2-14-1v32l-54 16zM346 702H191V419l40 4 44 4 42 4 29 3V702zM252 515l-2 20-2 19-3 17-9 33-12 31-7 14-9 14 7 7 14-10 14-11 13-13 12-15 11-16 10-18 8-19 8-21 6-22 6-23-7-24-22-12-23 7-12 21-1 21zM590 856l61-25 13-14-19-6-7-22-15-42-16-40-18-38-4-7H846l54 54 64-54V640H574l-25-43-23-33-25-32-26-29-29-27-7 6 39 66 35 69 16 36 14 36 25 77 19 76 3 14z"/><glyph glyph-name="undefined" unicode="䒲" horiz-adv-x="1024" vert-adv-y="918" d="M380 73 361 91l-20 18-24 16-16 11-10-14-43-50-49-44-53-39L87-44 24-70l-3 9L77-26l52 38 46 42 42 45 37 50 6 10-26 12-68 29-4 2-13-44-70-14 85 298H55v22H171l53 187 59-28 13-15-19-4-40-140H367l32 27 59-49-27-16-6-2-12-51-22-70-28-65-34-61-1-2 14-6 29-16 26-16 25-18 22-20 8-23-10-23-23-8-23 10-16 18zM925 16l32 134h11L957 16 976 3l13-20-13-19-19-13H713l-14 1-13 2-13 5-13 6-10 9-9 11-7 12-4 13-2 13-1 14V295L4e2 279l-1 22 228 16V524l-85-13-57-7-61-7-2 10 305 86 112 37 31 11 3-8 49-42 1-17-22 10-11-4-33-9-76-18-89-18V321l171 12 50 57 68-49 1-21-290-21V31l1-6 1-2V20l1-1h1l2-1 3-1 5-1h7H925zM364 442H231L167 220l42-7 37-9 34-10h1l32 66 23 61 18 67 10 54zM630 870l65-10 16-11-16-10V749H861l54 54 65-54V728H695V633l-65-33V728H394V633l-65-33V728H44v21H329V870l65-10 16-11-16-10V749H630V870z"/><glyph glyph-name="undefined" unicode="䒳" horiz-adv-x="1024" vert-adv-y="918" d="M926-40 833-4 789 17 747 40 706 64 667 90l-37 28-35 30-32 32-19 22V-45L480-77V178l-50-43-39-29-43-28-45-25-47-23L206 9 153-10 98-27 40-40l-3 9L142 16l95 50 43 26 41 28 37 29 35 31 33 31H71v21H480V362l64-10 16-11-16-10V232H835l53 54 65-54V211H557l58-38 76-45 80-39 42-18 88-30 88-26-63-55zM875 313l-10-8-11-7-22-11-12-4-12-3-13-3-12-1-13-1v33l-64 16v16h72l8 1 15 3 7 3 13 6 6 5 6 4 6 6 4 6 3 7 4 10 3 12 3 15 3 16 3 19 3 21 1 10H703l-9-25-71-10 55 155H440l-8-42-15-47-22-44-28-41-33-37-40-34-44-30-50-27-56-22-60-19-4 9 56 28 50 29 44 31 38 32 32 34 27 36 20 36 16 39 10 40 3 29H163v22H684l32 27 59-49-26-16-13-5-26-78H867l32 27 59-48-27-16-2-1-3-22-6-40-4-17-5-16-5-14-5-13-7-12-9-11-10-9zM630 876l65-11 16-11-16-9V776H861l54 54 65-54V755H695V681l-65-33V755H394V681l-65-33V755H44v21H329V876l65-11 16-11-16-9V776H630V876z"/><glyph glyph-name="undefined" unicode="䕢" horiz-adv-x="1024" vert-adv-y="918" d="M983 280l-366-1-20-45-22-42-19-30H810l54 54 64-54V140H729V-25H849l53 53 65-53V-47H438v22H665V140H542l-19-27-29-36-31-33-34-32-36-29-39-27-40-22-6 8L374 4l30 33 28 33 26 35 24 36 22 38 19 39 18 41 7 21H410v21H631V410H471v22H631V537H410v21H571l-15 17v9l-2 8-5 18-4 9-11 18-17 19-10 7 4 8 12-4 14-4 13-4 11-6 12-7 11-8 10-10 9-10 8-12 7-12-3-24-13-12H720l4 6 36 69 17 37 3 7h-1l6 10 52-40 8-17H821l-14-14-34-32-25-20-9-6h87l54 54 65-54V537H696V432H803l44 48 54-48V410H696V301H865l54 54 64-54V280zM343 634l64-54V559H272l-13-42-16-43-18-43-19-41-13-23H3e2l32 27 59-49-27-21V49L3e2 17V49H199V-16L135-48V270l-28-38-30-36-33-35-8 6 68 122 20 39 11 23v2h1l24 57 15 41 14 42 12 42 5 24H64v21H289l54 54zM3e2 345H199V70H3e2V345zM630 875l65-11 16-10-16-10V774H861l54 54 65-54V753H695V677l-65-32V753H394V677l-65-32V753H44v21H329V875l65-11 16-10-16-10V774H630V875z"/><glyph glyph-name="undefined" unicode="䖳" horiz-adv-x="1024" vert-adv-y="918" d="M706-61l-14 1-14 2-13 4-12 7-11 9-9 11-6 12-5 13-2 13V25 228L439 181l-5 21 186 48V473l-73-27-82-28-4 9 75 45 84 46v1h2l189 98 5-12 42-38 1-17-21 8-154-61V267l157 40 38 66 77-36 4-21-276-72V18l1-5 2-4 2-3 5-1 5-1 7-1H926l32 135h11L958 3l20-13 12-19-12-19-20-13H706zM381 66l-2 21-3 22-5 21-1 5-44-31-60-35-63-32L103-6 90-12 84-32 69-20 38 38l11 3 68 20 97 33V337H136V272L71 240V686l65-32h78V869l65-11 16-11-16-9V654h79l32 27 59-49-27-21V326l-64-32v43H279V117l66 25 21 7-8 23-8 22-21 44-13 22 7 6 38-35 17-20 15-21 13-22 11-22 10-23 8-24 6-25 5-25-8-23-22-11-23 7-12 22V66zM214 632H136V358h78V632zm144 0H279V358h79V632zM465 528l-23 8-11 22 8 24 5 4 7 8 6 11 6 15 6 18 6 20 5 23 9 56 4 31h9l7-53H673V873l65-11 16-11-16-10V715H902l32 27 59-48-27-17-14-6-32-53-20-30-12-15-10-18-8 5 5 18 8 37 5 17 9 45 3 17H511V679l1-25-1-24-1-21-3-20-5-18-6-17-9-15-22-11z"/><glyph glyph-name="undefined" unicode="䙃" horiz-adv-x="1024" vert-adv-y="918" d="M334 459v1l5 10 20-12 33 29 33 33 31 35 26 36 23 38 19 40 16 42 6 20H386v22H553l10 49 5 43 2 17 63-19 14-13-18-8-6-32-11-37H836l54 53 64-53V731H606l-15-40-21-44-14-22H787l53 54 65-54V604H743V471H854l54 54 64-54V450H450v21H679V604H543l-28-38-33-35-37-32-41-28-35-20 25-15 9-17-24-2-44-45-43-39-4-3 17-12 31-28 15-15 13-16 11-17 11-17V201l-16-19H345l-18 16-5 16-7 15-7 16-9 15-10 16-23 32-17 21V-45L185-77V346l-19-21-38-39-42-37-44-34-6 7 70 84 33 42 31 42 15 23v4h2l38 60 24 44 43 92 9 25H59v21H185V874l64-11 16-10-16-10V659h58l32 27 60-48-27-17-12-4-13-29-24-47-27-46-29-44-24-34h6V353l19-11 9-5 30 56 14 28 5 13 4 12 4 10v3zM738-22V-6h82l5 1 3 1 2 1 1 1v1l1 2 1 3 2 5v92H522V-40L458-73V391l64-32H835l32 26 59-48-27-21V16 2l-3-14-4-13-7-12-9-11-10-8-13-7-13-5-13-2H813v32L738-22zm97 241H522V122H835v97zm0 118H522V240H835v97z"/><glyph glyph-name="undefined" unicode="䙤" horiz-adv-x="1024" vert-adv-y="918" d="M409 515l-14 27-7 13-17 25-28 36-12 10 3 4-14-9-10-4-31-74-22-46-24-45-21-35h8V349l11-8 5-3 2 3 29 79 7 23 3 10v4h-2l5 12 57-31 12-16-26-4-16-21-44-50-14-13-3-4 16-14 14-14 25-29 11-16 10-17 9-17-1-24-18-17-25 1-16 18-4 15-5 16-12 30-16 32-9 15-5 8V-45L155-77V334l-38-47-35-37-37-34-7 5 82 125 35 63v8h5l28 58 38 90 16 46 8 27H58v21h97V874l65-11 16-10-16-10V659h35l32 27 59-48-8-5 13-6 15-6 15-7 14-9 14-9 26-22 12-13 24-27 3-24-14-20-24-3-20 14-7 14zM799 97v14h75l5 1h4l4 3 1 1 1 3 1 4 2 5V480H595V77L544 51l21-11 32-10 41-9 53-5 65-1 80 2 155 9-55-74-99-3-83 2-69 6-57 10-47 15L543 1 514 25 492 52 476 82l-5 15-3-1-28-40L391-4 370-27l3-23-19 5L304-2l9 7L426 83V353H322v21H426l30 27 56-48-27-19V105l10-11 21-22 22-18 3-1V528l53-26V834l59-30H836l30 27 56-48-27-19V505l26 23 57-48-27-19V135l-1-12-2-13-3-12-6-12-7-10-10-9-11-7-12-5-12-2-13-1V82L799 97zM639 420l60-30h91l30 27 56-48-26-19V174l-60-30v62H699V141l-60-29V420zm151-51H699V227h91V369zm46 414H653V502h60V7e2l53-26h70V783zm0-131H766V502h70V652zM449 691l-11 27-13 27-15 25-8 13-19 25-11 11 5 8 15-8 15-7 14-8 28-20 12-10 24-25 21-28 2-25-16-19-24-1-19 15z"/><glyph glyph-name="undefined" unicode="䛢" horiz-adv-x="1024" vert-adv-y="918" d="M587 317l63-15 16-12-18-10-5-39-11-56-15-51-19-45-23-42-26-36-31-30-33-25-38-19-39-12-4 9 34 21 30 24L494 5l22 31 20 34 16 38 13 43 10 46 7 52 4 56 1 12zM71 256l65-32H295l32 27 59-49-27-21V-24L295-56V-2H136V-40L71-72V256zM921 8l32 134h11L953 8 972-5l13-20-13-19-19-13H814l-14 1-13 2-13 5-13 6-10 9-9 11-7 12-4 13-2 13-1 14V319l64-10 16-11-16-10V29l1-6V17l1-2 1-3 2-1 2-1 3-1 5-1h7H921zM295 202H136V19H295V202zM907 328l-24 19-24 21-23 24-23 27-23 30-22 33-22 37-22 40-2 5V336l-65-32V529l-32-50-26-34-28-33-30-31-31-28-32-26-35-23-36-20-5 8 29 28 55 58 49 62 23 34 22 35 38 74 7 15H418v22H657V748l-53-9-44-6-45-4-49-3-1 10 172 49 73 25 64 25 29 13 23 11h-1 1l4 2 5-11 42-38 1-17-20 8-32-12-32-10-34-10-36-9-2-1V620H842l54 54 64-54V598H722v-1l77-91 25-28 26-25 24-21 23-19 23-15 21-11 52-24-61-50-25 15zM293 412l64-54V337H74v21H239l54 54zm0 140 64-54V476H74v22H239l54 54zm44 150 65-54V627H54v21H284l53 54zM293 842l64-54V767H74v21H239l54 54z"/><glyph glyph-name="undefined" unicode="䜏" horiz-adv-x="1024" vert-adv-y="918" d="M416 229V-46L357-76V828l59-29h88l33 27 59-49-27-16-8-3-2-5H672l7 47 3 49h1v12l64-18 15-11-18-9-5-32-8-38H854l54 53 65-53V731H726l-11-37-16-45-11-24H818l54 54 65-54V604H828V471h39l54 54 65-54V450H604v21H763V604H678l-20-35-25-36-27-32-32-29-34-25-5 7 25 32 23 33 21 34 18 36 16 37 14 40 11 43 5 22H558v19l-5-16-29-74-24-52-13-26-30-49 21-23 18-25 15-25 14-27 10-27 9-28 5-29 4-29V291l-1-29-3-14-4-13-6-12-8-11-9-10-11-8-12-6-13-4-14-2-14-1v32l-42 16zM49 256l64-32H237l29 27 57-49-27-19V-24L237-53V-2H113V-40L49-72V256zM790-22V-6h72l5 1 3 1 2 1 1 1v1l1 2 1 3 1 5v92H666V-40L602-73V391l64-32H876l33 26 59-48-27-21V16L940 2l-2-14-4-13-7-12-9-11-10-8-13-7-13-5-13-2H855v32L790-22zM237 202H113V19H237V202zm639 17H666V122H876v97zm0 118H666V240H876v97zM237 406l54-48V337H57v21H193l44 48zm0 140 54-48V476H57v22H193l44 48zm26 156 65-54V627H40v21H209l54 54zM237 837l54-49V767H57v21H193l44 49zM493 295l2 25v25l-1 24-3 26-5 25-7 26-8 27-11 27-11 28 2 2-6 2 7 31 35 137 10 49 5 24v4H416V245h42l7 1 6 1 3 1 4 1 2 2 1 2 3 2 1 4 2 5 1 7 5 24z"/><glyph glyph-name="undefined" unicode="䝐" horiz-adv-x="1024" vert-adv-y="918" d="M620 450v21H772V604H691l-19-35-24-36-27-32-29-29-33-25-7 7 25 32 22 32 19 35 18 35 16 38 13 40 11 42 4 23H575v16l-12-37-19-50-24-51-28-54-14-22 21-22 18-25 16-26 13-27 10-27 9-28 6-29 3-29 1-29-1-30-4-4-2-9-4-13-6-12-8-11-10-10-10-8-13-6-13-4-13-2-14-1v32l-34 13V-45L378-77V831l65-32h79l32 27 60-49-27-16-8-3-2-5H684l6 47 4 44 1 17 64-17 15-12-18-9-5-32-8-38H857l54 53 64-53V731H738l-10-37-16-45-11-24H843l44 49 53-49V604H836V471h34l53 54 65-54V450H620zM795-22V-6h71l5 1 3 1 4 2v1l1 2 1 3 1 5v7 85H680V-40L616-73V391l64-32H881l33 26 59-48-27-21V16L945 2l-2-14-5-13-6-12-9-11-11-8-12-7-13-5-13-2H860v32L795-22zM301 212l-9 35-4 16-9 29-5 13 5-40 2-63-3-64-8-65L257 9l-4-3-3-10-6-12-7-11-8-11-11-9-11-7-12-6-13-3-13-3-14-1v33L80-18V-2h75 7l6 1 5 2 6 3 3 3 2 2 20 77 11 59 7 59 1 48-8-13-22-29-23-27-24-24-25-22-26-19-27-15L39 91l-4 8 42 41 20 22 38 49 17 27 33 60 15 33 14 35 3-2-2 19-8 48-16-25-38-47-19-23-22-22-23-20-23-19-26-17-6 7 51 72 31 48 28 49 13 26 12 25 11 27 9-4-18 59-6 16-34-41-27-27-29-27-31-26-7 7 66 95 38 61 31 59 13 30 11 30 3 6H58v22H225l54 54 64-54V750H267l-14-31-33-60-20-30-22-30 14-23 28-60 9-27 9-5-4-8 6-16 4 18 6 21 24 74 17 48 3 5 55-34 9-17-21-2-71-105-13-17-7-11 13-49 8-37 4-3 11-7 11-10 21-22 10-13 19-31 18-34-1-25-18-17-25 2-16 18zm580 7H680V122H881v97zm0 118H680V240H881v97zM508 296l2 24 1 24-1 25-2 25-5 25-6 27-17 53-10 29 2 2-6 2 7 31 33 137 10 49 4 24v4H443V245h34l7 1 5 1 4 1 3 1 3 2 1 2 1 1 2 17 5 25z"/><glyph glyph-name="undefined" unicode="䟻" horiz-adv-x="1024" vert-adv-y="918" d="M535-29v16H643l6 1 5 1 5 1 2 2 1 2 1 3 1 5V9 294H438v21H664V471H532v21H737l54 54 65-54V471H729V315H846l54 54 65-54V294H729V9L728-5l-3-13-4-13-6-13-9-10-11-9-13-7-12-4-14-2-13-1v32L535-29zm-1 252 55-34 10-16-21-3-39-62-36-50-19-24-41-44-23-20-24-18-7 7 62 99 29 51 26 53 23 50h-1l6 11zM39 27l11 4 32 8V396l64-11 17-11-17-10V55l65 19V509H146V492L82 460V820l64-32H327l32 27 59-48-26-22V476l-65-32v65H275V310h59l34 37 43-37V288H275V93l142 44 4-9-67-40L249 38 141-6 89-24 82-44 68-31 39 27zM909-8l-7 24-18 45-11 22-24 43-29 43-33 42 6 8 24-15 23-16 21-18 19-18 19-21 16-21 16-23 14-24 13-24 12-26-2-24-18-17-24 2L909-8zm-1 493-28 25-27 28-27 31-25 34-26 38-25 41-25 44-22 45-18-39-25-48-27-45-29-42-31-38-33-36-34-32-37-27-38-24-6 8 31 32 30 32 28 35 27 36 25 40 24 41 22 45 40 96 20 61 58-28 12-16-20-4-9-23 69-92 57-68 28-29 28-26 27-23 27-19 46-29-59-46-28 22zM327 767H146V530H327V767z"/><glyph glyph-name="undefined" unicode="䠤" horiz-adv-x="1024" vert-adv-y="918" d="M480 571l64-32H845l32 27 59-48-27-22V236l-64-32v43H727V140H872l54 54 64-54V119H727V-46L663-78V119H399v21H663V247H544V231l-64-33V571zM39 27l10 4 30 7V396l59-11 15-11-15-9V56l60 18V509H141V492L77 460V820l64-32H302l32 27 59-48-27-22V476l-64-32v65H257V310h48l33 37 43-37V288H257V94l130 43 5-9-62-40-64-34-65-31-99-42-13-4-6-21L68-31 39 27zM663 382H544V268H663V382zm182 0H727V268H845V382zM663 518H544V404H663V518zm182 0H727V404H845V518zM302 767H141V530H302V767zm140 84 65-32H607l29 27 57-49-27-19V618l-59-29v40H507V613l-65-32V851zm281-3 59-29h98l32 27 59-49-27-21V618l-64-32v43H782V613l-59-30V848zm157-51H782V650h98V797zm-273 0H507V650H607V797z"/><glyph glyph-name="undefined" unicode="䡐" horiz-adv-x="1024" vert-adv-y="918" d="M213 869l65-11 16-11-16-9V724h47l54 53 65-53V702H278V6e2h66l32 27 59-49-27-21V256l-64-32v53H278V154h57l53 54 65-54V132H278V-45L213-77V132H37v22H213V277H146V240L82 208V632l64-32h67V702H46v22H213V869zM921 25l32 134h11L953 25l19-13L985-8 972-27 953-40H644l-14 1-14 2-13 5-12 7-11 8-8 11-7 12-5 13-2 14V46 595l64-11 16-11-16-10V321L852 463l27 18 10-18 32-33 1-18-19 8-110-52-97-42-33-13-35-12-6-2V40l1-5 2-5 2-2 5-2 5-1h7H921zM213 433H146V299h67V433zm131 0H278V299h66V433zM213 578H146V455h67V578zm131 0H278V455h66V578zm127-59-23 8-10 22 7 24 6 3 6 8 7 11 6 14 5 17 6 19 5 23 10 53 3 31h10l3-31 3-20H679V854l64-11 16-11-16-9V701H907l32 27 59-48-27-17-15-6-32-51-20-29-11-15-10-16-9 4 7 18 7 36 5 16 6 30 3 14 3 16H517V666l1-25V618l-2-21-3-19-5-17-6-16-9-15-22-11z"/><glyph glyph-name="undefined" unicode="䣝" horiz-adv-x="1024" vert-adv-y="918" d="M959 127l-6-11-8-11-9-10-11-8-11-7-12-6-13-3-13-2-14-1v32l-54 16v16h54l8 1 5 1 5 1 5 2 3 2 4 3 3 3 3 4 3 6 9 27 6 27 3 32-1 34-4 36-10 36-15 36-22 35-30 33-36 35-8 4 52 134 23 61 19 59 10 33H738V-45L673-77V831l65-32H901l32 27 60-49-27-16-11-4-14-34-42-86-54-91-37-53 47-19 39-32 31-37 22-41 16-41 9-42 4-40-1-38-4-34-7-29-5-13zM154 339v22H321V474H213v21H321V616l64-11 16-10-16-10V495h16l44 49 53-48 17 32 27 62 57-33 10-16-20-3-20-38-33-55-36-53-25-31h57l44 48 54-48V339H457l-40-44-46-44-10-10H503l33 27 59-48-27-22V-34L503-67v43H328V-40L264-72V166l-53-33-60-32-5 8 54 41 51 42 13 12v70l49-25 30 31 41 46 10 13H154zM94 847l65-32H542l32 27 59-49-27-21V638l-64-33v33H159V471l-3-68-4-65-7-61-8-58-10-55-12-52-14-48L85 19 65-21 44-58l-9 4L46-14 67 73l8 47 7 51 6 54 4 57 2 60 1 63-1 66V847zM503 98H328V-2H503V98zm0 122H335l-7-6V120H503V220zm-39 54v6l-1 6-1 6-3 13-3 7-3 7-6 4 5 8 7-4 16-4 16-7 7-5 7-6 6-6 7-7 5-7-1-24-18-17-25 2-16 17 1 11zm22 2e2H385V361h26l45 62 30 51zm56 319H159V659H542V793z"/><glyph glyph-name="undefined" unicode="䤻" horiz-adv-x="1024" vert-adv-y="918" d="M750-22V-6h82l5 1 3 1 3 2 1 1 1 2 1 3V9l1 7v85H558V-40L494-73V391l64-32H847l32 26 59-48-27-21V16 2l-3-14-4-13-7-12-9-11-10-8-12-7-13-5-14-2H825v32L750-22zM382 661l-7 13-8 14-9 13-24 28-31 29-17 15-13 9-32-72-46-83-39-59H301l53 53 65-53V546H296V396h32l54 53 64-53V374H296V69L397 92l39 7 3-9-35-17-71-32-72-27L116-33l-15-4-7-19L80-43 55 18 211 49l20 5V374H77v22H231V546H141l-28-35-31-36-34-34-7 6 72 121 42 81 37 83 16 43 15 44 15 52 59-28 12-15-19-4-10-26-2-5 38-15 21-9 19-11 18-11 17-12 15-13 14-14 13-14 11-16 2-24-15-20-24-2-20 16-5 13zM134 140v16l-3 17-2 16-5 16-5 16-6 16-16 33-11 17 7 7 31-26 14-14 13-15 11-16 10-18 9-17 7-19 6-19 5-20-8-24-22-11-23 8-12 21v16zm713 79H558V122H847v97zM371 313l58-30 11-16-21-4-16-28-21-32-22-32-37-46-9 5 8 18 34 107 4 18 5 16 3 16 3 8zm476 24H558V240H847v97zM488 450v21H701V604H577l-26-37-31-36-35-32-38-28-42-24-5 8 34 32 31 33 28 34 24 36 22 38 18 40 15 42 5 21H429v22H583l9 48 6 48 1 12 63-18 15-12-19-9-6-32-9-37H843l54 53 64-53V731H636l-13-39-21-45-12-22H797l54 54 64-54V604H765V471h94l54 54 65-54V450H488z"/><glyph glyph-name="undefined" unicode="䩔" horiz-adv-x="1024" vert-adv-y="918" d="M873-33 820-9 771 22 728 56l-8 9-48-40-54-35-58-29-63-22-66-15-2 9 61 25 57 29 52 32 47 38 43 42-31 43-27 50-22 54-15 59-7 58H532v22H832l33 27 59-49-27-16-9-3-17-49-31-67-34-59-40-54-10-10 8-7 40-27 44-23 48-18L995 5 932-53 873-33zM580 831l64-32H783l33 27 59-49-27-21V540l1-5v-4l1-4 1-2 2-1 4-2 6-2 7-1h61l27 92h10l-10-92 16-10 11-17-11-16-16-10H870 857l-13 2-13 3-12 6-11 8-8 10-7 12-5 12-3 14-2 13V777H644V659l-3-32-6-32-10-30-12-28-16-28-18-26-21-24-23-23-28-20-29-19-1 2V259l-65-32v54H311V170h86l54 54 64-54V148H311V-40L247-72V148H38v22H247V281H153V243L88 211V506l65-32h94V595H202V557l-64-32V713H49v21h89V863l64-10 16-11-16-10V734H351V863l64-10 16-11-16-10V734h18l33 38 43-38V713H415V573l-64-32v54H311V474H412l32 27 59-49-26-21V411l17 20 20 25 17 25 14 24 12 25 10 25 7 26 4 25 2 27v26V831zM827 363H598l18-52 23-53 26-48 29-42 26-30 40 59 29 57 24 62 14 47zM247 452H153V302h94V452zm165 0H311V302H412V452zM351 713H202V616H351v97z"/><glyph glyph-name="undefined" unicode="䪑" horiz-adv-x="1024" vert-adv-y="918" d="M277 310l64-11 16-11-16-10V229h58l54 54 64-54V208H341V84h83l54 54 65-54V62H341V-51L277-83V62H126l-5-23L50 24 91 189l60-27 13-14-18-5-14-59H277V208H106v21H277v81zM923 25l32 134h11L955 25l19-13L987-8 974-27 955-40H694l-14 1-13 2-13 5-12 7-11 8-9 11-7 12-4 13-2 14-1 13V595l65-11 16-11-16-10V325L886 479l20-29 20-22V409l-18 8-116-63-87-41-31-12-1-1V40l1-5 1-5 3-2 4-2 5-1h7H923zM119 541l65-32H394l32 26 59-48-27-21V326l-64-32v53H184V310l-65-33V541zm275-54H184V369H394V487zm146 33-23 6-12 22 6 23 5 4 6 8v1H35v21H182l24 129H75v22H210l22 124 62-22 14-13-18-6-15-83h98l33 27 59-49-27-21V605h28l34 38 34-31 5 13 5 20 5 23 9 53 3 31h10l3-31 2-20H713V854l65-11 16-11-16-9V701H910l33 27 59-48-27-17-14-5-20-37-26-43-11-15-9-17-9 4 6 18 2 18 3 17 3 17 6 29 1 14 2 13 1 4H579l1-14 1-25V619l-1-21-2-18-4-17-5-16-7-15-22-12zM373 734H271L247 605H373V734z"/><glyph glyph-name="undefined" unicode="䫂" horiz-adv-x="1024" vert-adv-y="918" d="M687 115l45-46 4-19-20 4-25-20-23-16L644 3 591-27 562-41 531-54 499-66 465-76l-5 9 85 57 70 53 38 35 17 18 12 13h-1l6 6zM283 777H447l3 4 1-1 29 24 59-48-27-16-13-6-22-40-35-56-38-53-41-48-45-46-6-5 54-34 10-17-20-1-12-21-18-28H480l32 27 59-49-27-16-11-4-20-48-34-64-37-58-42-54-47-47-51-42L248-6 190-36 128-59 61-76l-2 9 61 27 57 30 52 34 48 38 44 42 40 47 36 52 32 56 28 60 16 44H311l-16-21-27-33-27-30 22-9 16-7 15-8 15-9 13-11 24-22 11-12 10-13 1-24-16-19-24-1-19 15-3 11-5 12-6 11-14 23-20 24-23 25-6 5-23-22-32-27-35-24-36-22-38-20-5 8 61 56 56 58 25 31 46 65 40 70 17 38 2 3-39-33-50-38-54-33-56-29-60-24-3 9 53 33 51 35 48 37 44 40 42 43 21 24-21-2-20 15-9 22-13 23-15 21-19 22-11 11-1 1-16-17-29-28-31-25-34-23-36-20-6 8 56 56 50 58 41 61 18 32 16 33 15 34 10 30 5 12 57-30 11-16-20-4-8-17-14-28zM922-40l-9 16L890 8 865 37 851 51 802 92l-19 12 4 9 44-14 21-8 20-10 20-11 18-12 18-14 16-14L975-2l5-24-13-21-24-5-21 12zm3 893 64-54V777H802l-31-48-11-15-24-28-25-26-12-12H866l33 27 59-48-27-22V165l-65-33v33H649V148l-64-32V681l64-33h32l4 8 40 97 6 16 3 8H535v22H871l54 54zM866 320H649V186H866V320zm0 151H649V342H866V471zm0 156H649V492H866V627zM439 756H270l-12-21-23-32-26-30-1-2 13-4 15-6 14-7 14-8 25-19 23-22 10-13 3-23 35 48 33 52 30 54 16 33z"/><glyph glyph-name="undefined" unicode="䯬" horiz-adv-x="1024" vert-adv-y="918" d="M110 271l64-32H365l32 27 60-49-27-21V113L365 81v32H302V46H404l43 48 54-48V24H302V-48L238-80V24H39V46H238v67H174L110 81V271zM550 571l65-32H855l32 27 59-48-26-22V236l-65-32v43H767V140H885l44 49 53-49V119H767V-46L703-78V119H487v21H703V247H615V231l-65-33V571zM365 217H174V135H365v82zM703 382H615V268h88V382zm152 0H767V268h88V382zM444 582l54-48-27-16V298l-54-27v27H122L68 271V582l54-27H417l27 27zm-27-48H122V319H417V534zm-57-18 54-48-27-16V371l-53-26v26H207l-54-26V516l54-27H334l26 27zm-26-48H207V393H334v75zm369 50H615V404h88V518zm152 0H767V404h88V518zM129 752l64-33H347l32 27 59-48-27-22V610l-64-32v32H193l-64-32V752zm389 99 65-32h73l30 27 56-49-27-19V618l-59-29v40H583V613l-65-32V851zm235-3 60-29h72l32 27 59-49-27-21V618l-64-32v43H813V613l-60-30V848zM347 698H193V632H347v66zm538 99H813V650h72V797zm-229 0H583V650h73V797zM42 769v22H238v86l64-10 16-11-16-10V791h99l44 48 54-48V769H42z"/><glyph glyph-name="undefined" unicode="䰿" horiz-adv-x="1024" vert-adv-y="918" d="M82-69 58-65 45-44l4 24L58-9 66 3l8 15 7 16 7 19 7 20 6 22 10 50 5 28h9l4-29 2-27 1-26V67l-2-23-2-22-5-21-5-20-7-19-8-17L82-69zM292 28l-1 14-3 14-2 14-4 14-4 14-5 14-13 29-10 14 7 6 27-21 12-12 12-12 10-14 10-14 9-15 7-17 6-16 6-17-7-24-21-13-24 6-12 22V28zM231-28l-23-7-21 12-8 24 3 11 3 13 1 13 1 15V68 83l-3 35-3 19-5 18 9 4 9-18 10-16 10-16 7-17 7-17 5-16 4-17 4-16 2-16 1-16-13-22zM402 39l-7 27-4 14-5 12-5 13-7 13-14 24-9 13-10 11 5 7 28-15 14-9 13-9 24-23 20-27 9-15 9-15-2-25-18-16-25 1-16 19zM781 177v17h54 7l4 1 4 1 1 1h1l2 4 1 2 1 6V454L751 412V108L687 76V386l-93-37V29l1-5 2-5 2-2 5-1 5-1H923l32 134h11L955 15 974 2l13-20-13-19-19-13H616l-14 1-14 2-13 4-12 7-11 9-8 10-7 13-5 13-2 13V36 323l-73-29-8 20 81 32V557l64-10 16-11-16-10V372l93 37V627l64-11 16-11-16-9V435l105 42v13l32 27 59-49-26-21V215l-1-14-3-13-4-13-6-12-9-11-11-9-12-6-13-5-13-2-14-1v32l-54 16zM162 236 98 204V588L75 560 53 537l-8 5 66 149 36 98 21 70 3 8 59-28 12-16-20-4-21-51-2-5H307l32 27 60-48-27-16-14-6-13-18-10-15-26-31-32-31-18-17-10-10H356l32 27 59-48-26-22V236l-65-32v32H162zm65 170H162V258h65V406zm129 0H291V258h65V406zM227 577H162V428h65V577zm129 0H291V428h65V577zM590 856l61-25 13-14-19-6-7-22-15-42-16-40-18-38-4-7H846l54 54 64-54V640H574l-25-43-23-33-25-32-26-29-29-27-7 6 39 66 35 69 16 36 14 36 25 77 19 76 3 14zM305 742H189l-20-40-35-61-14-22 42-21h72l13 20 32 59 15 34 6 15 4 13 1 3z"/><glyph glyph-name="undefined" unicode="䲊" horiz-adv-x="1024" vert-adv-y="918" d="M636 450v21H778V604H705l-18-35-23-35-26-33-28-29-31-25-7 7 22 31 21 33 19 34 17 36 14 38 13 40 10 42 4 23H594v9l-10-29-19-50-22-52-28-54-13-22 20-23 18-25 14-25 13-27 10-27 8-28 6-29 3-29 1-29-1-29-4-4-2-10-3-13-6-12-8-11-10-10-10-8-13-6-13-4-13-2-14-1v32l-31 12V-46L408-76V828l59-29h75l32 27 59-49-26-16-8-3-2-5h99l5 46 4 44 1 18 64-17 15-12-18-9-5-32-8-38H855l54 53 64-53V731H749l-9-36-15-45-11-25H842l44 49 54-49V604H843V471h24l54 54 64-54V450H636zM796-22V-6h71l6 1 2 1 4 2v1l1 2 1 3 1 5v7 85H695V-40L631-73V391l64-32H882l33 26 59-48-27-21V16L946 2l-2-14-5-13-6-12-9-11-11-8-12-7-13-5-13-2H861v32L796-22zM76-77 51-75 36-56l2 24 8 12L53-8 60 7l6 17L78 63l6 23 10 51 4 28h9l4-28 3-28 1-26 1-24-1-24-2-21-3-21-3-19-6-19-6-17L76-77zM236 34l-1 14-5 29-6 28-4 14-5 15-8 13 8 6 11-12 12-10 11-12 10-13 9-14 8-15 8-15 11-32 5-18-7-23-22-12-23 7L236 5V34zM197-37l-23-8-22 12-8 23 4 13 2 13 1 14 1 14 1 16V76l-1 34-1 18-4 19 9 4 8-18 9-17 8-17 7-17 10-33 4-16 3-16 2-16 2-17-12-21zM325 32l-4 28-3 13-8 25-4 13-17 36-8 11 7 7 11-9 12-7 12-9 22-21 19-25 8-14 8-15 7-16-3-24-19-15-25 3-15 19zM882 219H695V122H882v97zM139 229 80 199V575L68 557 49 533l-8 5L80 655l29 97 18 68 8 36 3 9 60-26 12-14-19-6-18-51-2-7h77l32 27 59-48-26-16-13-6-9-17-10-14-22-32-27-32-16-18-9-10h87l27 26 53-48-27-16V229l-53-27v27H139zM882 337H695V240H882v97zM528 296l3 24 1 25-1 24-2 26-5 25-6 26-15 54-10 28 3 2-6 2 19 88 7 28 5 26 6 26 5 25 7 47 1 5H467V245h31l7 1 5 1 4 1 3 1 2 2 3 3 2 17 4 25zM188 401H139V251h49V401zm106 0H242V251h52V401zM188 573H139V423h49V573zm106 0H242V423h52V573zM247 740H162l-15-38-29-62-15-27 36-18h55l10 18 24 60 11 33 4 15 3 14 1 5z"/><glyph glyph-name="undefined" unicode="䴱" horiz-adv-x="1024" vert-adv-y="918" d="M436 356l-9 13-10 13-12 13-29 26-34 25-13 8V353l-64-33v13l-10-3-4-14-12-28H372l32 27 60-48-27-16-11-5-14-32-27-49-20-29 34-25 40-36 8-23-10-23-24-8-22 11-32 37-26 27-14-16-39-37-43-32-46-28-50-23L87-58 29-71l-2 9L79-39l49 25 44 27 41 31 36 33 32 36 14 18-49 42-44 33 5 9 27-8 26-10 49-24 10-6 16 27 21 45 10 28H229l-7-16-18-32-20-30-22-29-24-27-26-27L84 82 53 59l-7 7 45 59 38 58 16 30 15 30 12 30 12 31 8 31 10 41 60-25 3-3V466l-30-32-27-26-29-25-31-24-33-23-36-21-38-20-5 8 89 83 26 27 47 54 20 28 19 28 17 27 11 21V713H50v21H265V874l64-11 16-10-16-10V734h70l54 54 64-54V713H329V473l23-5 22-7 21-8 20-9 19-11 18-12 16-13 15-14 14-15 5-24-14-21-23-4-21 12-8 14zM930 25l32 134h11L962 25l19-13L994-8 981-27 962-40H687l-14 1-13 2-13 5-12 7-11 8-9 11-7 12-4 13-2 14-1 13V595l64-11 16-11-16-10V323L892 480l15-25 25-27 1-18-19 8-96-50-87-42-63-25-3-1V46l1-6V35l1-3 1-2 3-2 4-2 5-1h7H930zM176 545v6l-1 5-1 7-6 15-4 7-3 4-10-23-13-25-14-24-17-22-18-20-20-19-21-15-7 7 25 44 12 22 10 23 9 23 8 24 6 26 6 25 4 27 4 40 63-20 15-13-19-8-3-10-8-30-4-12 10-4 10-4 10-5 8-5 9-7 7-6 7-8 6-9-2-24-18-17-25 3-16 18 1 4zm352-25-20 5 8-12-2-25-19-16-24 2-17 18v9l-2 8-2 9-7 19-11 20-15 22-2 2-10-17-12-18-14-18-30-33-8 6 10 20 7 20 13 39 9 37 4 18 2 19 1 18 1 12h-1l2 17 63-18 15-13-20-9-6-19-7-21-9-19-5-11 4-2 13-6 13-6 11-7 12-8 10-8 10-9 5-6-5 9 7 24 4 4 6 7 6 11 6 14 6 17 5 20 5 23 9 53 4 31h9l4-31 2-20H710V854l65-11 16-11-16-9V701H917l32 27 59-48-27-17-14-5-38-65-21-30-9-17-9 4 6 18 6 36 4 16 5 30 3 13 2 17H568l2-14V641 619l-1-21-3-18-3-18-6-16-7-15-22-11z"/><glyph glyph-name="undefined" unicode="䵙" horiz-adv-x="1024" vert-adv-y="918" d="M364 261h-1l6 8 49-42 7-18-24 2-28-24-27-20-28-19-16-9-2-2 25-12 17-10 30-22 28-25 24-28 4-25L414-5 389-9 370 5l-7 15-16 27-19 28-22 27-9 9V14L296 1l-2-14-4-13-7-12-9-11-10-9-13-7-13-4-13-2-14-1v32L136-24V-8h75l7 1 5 1 5 2 2 2 1 5 1 5 1 6v91L178 57 101-2l-1-23-17 9L41 34l9 5L178 98l21 10 22 8 12 5V369l64-11 17-11-17-9V156l42 61 15 25 6 12 4 7zm506 5H760l-19-27-23-27-11-12 7-3 12-6 11-8 22-17 9-11 18-23 5-8 8 10 30 46 27 51 14 35zM419 464l-20 13-31 50-24 30-26 29-21 19V487l-7-4 6-4 10-17-20-1-17-29 27-7 23-9 22-11 21-11 20-14 20-16 18-17 17-19 16-19 4-25-14-20-24-4-20 14-11 18-24 35-14 17-30 30-18 14-37 27-5 3-26-38-24-30-51-56-24-23 9-4 12-6 10-6 11-8 10-8 9-9 9-11 8-10 8-12V173l-18-18H179l-18 18-2 10-5 20-3 10-9 20-11 20-6 10-22-18-30-22-32-19-6 8 72 81 43 57 20 30 37 61 26 55v94l-17-27-20-29-44-53-23-24-25-20-26-19-28-15-6 8 40 46 37 49 17 27 32 57 14 31 14 33 4 10H62v22H233v79l-21-5-68-14-35-6-36-5-3 10 66 29 157 61 87 36 3-10 48-41 1-16-22 9-39-12-62-17-12-3V686h83l44 48 54-48V664H297V627l20-7 19-9 18-10 36-25 17-14 31-31 14-18 5-24-14-21-24-4zm355 49H667l-35-49-16-18 5-1 11-5 11-7 10-7 11-8 9-9 8-11 8-11 6-9 14 20 28 43 25 47 12 25zM641 596h-1l6 11 56-32 11-16-21-3-5-10-7-11H782l33 27 17-15-29 43-17 30-16 32-15 32-11 31H691l-29-56-28-43-31-41-34-40-38-37-41-34-45-32-6 7 37 40 34 39 32 40 29 41 25 41 22 43 14 32H454v22H641l12 33 13 46 9 47 3 10 60-24 14-13-19-7-9-30-17-48-6-14H864l44 48 53-48V715H759l58-73 44-49 45-44 47-39 39-29-59-44-24 22-45 48-17-10-14-5-17-33-30-48-33-45-5-5 51-30 10-17-20-3-8-13-7-11H876l33 27 59-48-27-17-12-4-19-41-32-55-36-48-41-43-44-37-47-31-51-24-55-19-57-11-61-4-1 9 58 15 52 19L644-3l44 28 41 31 23 23h-2L733 97l-4 22-4 11-3 10-5 11-10 20-11 18-28-25-27-22-29-19-31-17-33-14-5 9 52 45 45 47 40 51 17 26 16 28 14 29 8 17-17-19-37-36-39-33-41-29-43-24-46-20-47-15-4 9 42 25 40 25 37 29 36 31 33 34 11 13-8 1-16 18-1 10-5 20-6 19-4 9-5 9-10 14-16-17-24-21-25-19-26-17-28-15-6 8 60 68 35 47 16 25 28 52 12 28 10 23z"/><glyph glyph-name="undefined" unicode="𠅗" horiz-adv-x="1024" vert-adv-y="918" d="M593 675l58-30 12-16-20-4-32-72-45-88-23-42-4-6 27-5 16-10-16-10V-40L501-72V356l-36-53-28-37-31-35-8 5 84 165 40 86 36 88 35 1e2zM893-28 859 8 826 46 796 88l-14 23-47-55-49-45-54-41-59-35-5 8 51 44 47 45 42 48 37 50 13 21-38 78-21 52-18 56-8 30-33-50-29-41-32-38-8 4 65 132 37 84 31 83 14 41 12 41 10 40 3 9 60-26 12-15-19-6-23-63-18-41-8-18H874l33 27 59-48-27-16-5-2-10-49-19-69-24-66-29-62-35-58-3-5 26-34 32-37 32-32 34-31 50-39-59-44-36 34zM105-13V3h75l7 1 5 1 3 1h2l1 2 1 1 1 1 1 3v5l1 7V734H42v22H299l53 54 65-54V734H266V25 11L263-2l-4-13-7-12-9-11-11-9-11-7-13-4-14-2-14-1v32L105-13zM873 482H737l-45-84-9-15 45-89 26-48 28-44 3-5 22 43 24 59 19 63 15 66 8 54zM763 349l-1 10-2 20-2 10-4 20-9 30-6 9 7 6 8-7 10-6 9-7 9-8 8-8 8-9 14-20 6-11 6-11-2-25-20-15-24 3-15 19zM411 686v21H657V871l65-11 16-11-16-9V707H849l53 54 65-54V686H411z"/><glyph glyph-name="undefined" unicode="𠆓" horiz-adv-x="1024" vert-adv-y="918" d="M606 675l57-30 12-15-20-5-31-72-44-88-23-42-4-6 27-5 16-10-16-10V-40L516-72V355l-35-52-28-37-30-35-8 5L517 444l36 87 48 131 5 13zM899-28 865 8 833 47 804 88l-13 22-46-54-48-45-53-41-57-35-6 8 50 44 46 45 41 48 36 50 13 21-15 29-23 49-20 52-17 56-8 30-32-50-28-40-31-39-8 4 62 132 36 84 32 83 24 82 10 39 3 9 60-25 12-15-19-5-23-63-17-42-9-18H881l32 27 59-48-27-16-5-3-9-48-19-69-24-66-29-62-33-58-3-5 26-35 30-36 32-33 33-30 49-39-59-44-35 34zM110-13V3h75l7 1 4 1 4 1h2l1 2V9l1 1 2 3v5l1 7V146L84 113 75 94 62 108 38 168l11 2 110 18 37 7 11 1v87l51-9 26 36 25 32H65v21H326l10 13 3-2 20 16 59-48-27-16-34-15-72-48 2-2-16-9V207l79 12 40 5 40 4 2-9-37-15-76-26-48-14V25 11L268-2l-4-13-7-12-9-11-11-9-12-7-12-4-14-2-14-1v32L110-13zM879 482H747l-44-84-9-15 44-89 26-48 28-44 2-4 20 41 24 60 19 63 14 65 8 55zM771 359l-3 21-3 19-2 10-3 10-6 20-5 9 7 6 7-7 10-6 9-7 9-8 8-9 15-19 13-21 6-11-3-24-19-15-25 3-15 19v10zM93 651l65-32H320l32 27 59-49-26-21V441l-65-32v43H158V436L93 404V651zm227-54H158V474H320V597zm109 89v5H45v21H207V869l64-11 16-11-16-9V712h44l53 54 65-54v-5H668V871l64-11 17-11-17-9V707H853l54 54 64-54V686H429z"/><glyph glyph-name="undefined" unicode="𠆙" horiz-adv-x="1024" vert-adv-y="918" d="M118-20V-4h76l6 1 5 1 3 1h2l1 2 1 1 1 1 1 3 1 5v7V213H56v21H312l54 54 48-40 74 153 38 86 35 88 34 1e2 58-30 12-15-20-4-31-73-43-87-22-43-4-6 26-5 16-10-16-10V-40L507-72V353l-34-50-28-37-21-26 6-6V213H280V18L279 4 277-9l-5-13-6-12-9-11-11-9-12-7-13-4-13-2-14-1v32L118-20zm767-8L852 8 821 47 792 88l-13 22-46-54-47-45-52-41-57-35-5 8 49 44 45 45 41 48 36 50 13 21-16 29-22 49-20 53-17 55-7 30-32-50-28-40-31-39-8 4 81 174 33 83 14 42 25 82 10 40 2 8 60-25 13-15-20-5-22-63-18-42-8-18H867l33 27 59-48-27-16-5-2-9-49-19-69-24-66-28-62-33-58-3-5 26-35 30-36 32-33 32-30 48-39-59-44-35 34zM866 482H735l-43-84-9-15 44-89 26-48 27-44 2-4 20 41 23 60 19 62 14 66 8 55zM79 266l-23 8-10 23 9 23 2-1 4 2 4 5 5 7 5 9 4 12 5 14 8 33 1 19h10l1-19 2-7H367l32 26 59-48-27-16-21-9-24-29-18-17-6-11-9 4 5 11 2 13 2 12 3 21 2 14v7H110l1-6 2-15 1-14V323l-1-13-2-12-4-11-6-12-22-9zm680 93-2 21-4 19-2 10-5 20-3 10-6 9 7 6 8-7 9-6 18-15 8-9 15-19 7-10 12-22-3-24-19-15-25 3-15 19v10zM106 663l64-32H316l32 27 59-48-27-22V467l-64-32v32H170l-64-32V663zm210-53H170V489H316V610zm105 76v15H59v22H211V864l64-10 17-11-17-10V723h75l34 37 43-37V707H657V871l65-11 16-11-16-9V707H860l44 49 54-49V686H421z"/><glyph glyph-name="undefined" unicode="𠊵" horiz-adv-x="1024" vert-adv-y="918" d="M302 862l57-30 11-16-19-3-44-99-58-111-31-54-6-9 33-6 16-10-16-10V-46L180-78V488l-28-43-35-49-37-48-38-45-8 6 88 155 56 106 52 111 47 115 20 54 5 12zM722 309H888l4 4 1-1 28 23 59-48-27-16-15-6-28-45-44-57-50-50-55-45-60-37L637-1 567-26 494-45 415-56l-83-5-1 9 81 16 75 19L556 8l64 28 58 34 30 21-19 16-3 12-5 12-13 23-7 11-17 23-22 22-44-30-36-22-40-20-41-17-44-15-4 9 75 48 34 24 32 25 30 27 27 27 26 28 23 29 20 31 19 31 3 5 52-38 9-18H742l-12-15-8-10zm156-22H704l-28-29-30-28-12-10 11-3 15-7 15-7 14-9 13-10 13-10 12-12 10-13 10-14 1-12 31 29 42 48 38 54 19 33zM591 567H757l5 7 2-1 25 21 60-48-27-16-18-8-26-37-41-50-44-46-48-42-50-38-53-33-56-30-59-25-62-20-64-16-2 10 60 25 56 27 54 30 51 33 47 36 15 12h-9l-19 16-3 11-4 11-4 10-6 10-6 10-8 11-8 10-20 19-28-22-31-22-34-20-35-18-37-15-5 8 61 49 54 49 25 25 45 53 37 57 14 25 2 3H450V6e2l-65-32V804l65-11 16-10-16-10V660H630V860l65-11 16-10-16-10V660H875V804l64-11 17-10-17-10V617l-64-33v54H576l44-31 8-17-21-1-8-13-8-9zm153-21H575l-24-27-26-27-17-15 8-2 14-6 14-6 13-7 13-9 12-9 11-11 10-13 10-12V386l41 41 39 46 36 48 15 25z"/><glyph glyph-name="undefined" unicode="𠛫" horiz-adv-x="1024" vert-adv-y="918" d="M331 169l-5 11-7 12-8 11-9 12-22 25-27 25-9 6-27-23-36-27-37-25-40-22-41-19-5 8 69 56 32 29 59 61 27 32 49 68 21 36 17 32 6 10 54-36 9-17-21-1-33-48H525l33 27 59-49-27-16-12-5-23-48-37-64-42-59-47-53-51-47-56-41L261-6 197-36 128-60 55-76l-2 9 68 27 64 30 59 34 54 38 49 43 45 47 40 52 36 56 32 60 18 43H331l-48-55-29-28 25-9 17-7 17-9 16-9 14-9 14-11 13-11 11-13 11-13 2-24-15-20-24-2-19 15-5 11zM742-24V-8H849l7 1 5 1 5 2 1 1v1l1 1 2 4 1 5V863l64-10 16-11-16-10V14 1l-3-14-4-13-7-12-8-11-11-9-13-7-13-4-13-2-14-1v32L742-24zM663 783l64-11 16-11-16-9V138l-64-33V783zm-364-6H489l4 5 1-1 28 23 59-48-27-16-15-6-24-42-39-55-42-53-46-49-49-44-52-42-56-37-59-32-63-29-65-24-4 9 61 33 57 35 53 38 50 40 47 42 24 25-24-4-20 14-11 23-7 12-9 11-18 22-10 11-24 22-2 1-20-19-31-26-35-26-37-22-40-20-5 8 64 57 29 29 26 29 25 31 23 30 19 32 19 33 16 34 17 42 57-32 10-16-20-3-9-18-16-27zm180-21H285l-14-22-26-32-28-31 15-3 16-6 16-7 15-8 14-9 13-10 13-10 23-24 4-25-12-18 18 19 40 48 37 52 34 54 16 32z"/><glyph glyph-name="undefined" unicode="𠴻" horiz-adv-x="1024" vert-adv-y="918" d="M51 745l65-32H216l32 27 59-49-27-21V186l-64-32v64H116V154L51 121V745zM805 196v16h43 6l6 1 3 1 3 2 1 3 1 3 1 5 1 6V466l-71-36V126L739 96V4e2l-64-33V56l1-7 1-5 1-4 3-2 1-1 2-1 4-1 5-1H922l32 135h11L954 34l19-12L986 2 973-17 954-30H699l-13 1-14 3-13 4-12 7-10 9-8 10-7 13-4 12-2 13V56 337l-51-26-7 13 1-4 1-29-2-30-4-3-2-10-5-13-5-12-8-11-10-10-11-8-12-6-13-4-14-2-14-1 1 32-43 16v16h43l6 1 6 1 4 1 5 3 3 3 3 18 5 24 2 24 1 24-1 24-4 26-5 25-7 26-21 54-12 29 2 2-6 2 17 61 16 56 14 52 12 49 5 23v4H411V-45L347-77V831l64-32h98l32 27 59-49-27-16-8-3-18-48-22-50-25-52-31-53-14-21 22-23 20-24 17-26 14-27 11-27 10-29 6-28 2-19 59 30V571l-15-23-21-29-24-28-8 6 41 98 13 35 12 34 21 74 9 38 8 40 9 51 61-22 14-14-19-7-5-22-12-40-13-39-15-39-4-9H843l54 54 64-54V654H659l-19-41-19-33-5-8 59-11 15-10-15-10V391l64 33V640l60-10 14-11-14-9V454l71 36v15l32 27 59-49-27-21V233l-1-14-2-13-5-13-6-12-9-11-11-9-12-6-13-4-13-3-14-1v33l-43 16zM216 691H116V240H216V691z"/><glyph glyph-name="undefined" unicode="𡊌" horiz-adv-x="1024" vert-adv-y="918" d="M864 57 929 3V-18H417V3H810l54 54zM70 66 38 124l95 30 51 19V552H55v21H184V847l65-10 16-11-16-10V573h20l54 54 64-54V552H249V198l140 52 5-9-74-47-135-74L97 78l-6-3-5-20L70 66zM779 358l64-54V283H503v21H725l54 54zm123-38-27 31-49 67-23 36-22 37-20 39-19 41-17 43-12 41H648l-32-73-31-57-35-56-39-52-42-50-47-48-51-44-7 7 43 51 39 52 37 52 33 54 29 55 26 57 20 52H382v21H598l13 45 16 62 11 64h1l1 10 62-22 14-13-19-7-11-46-19-65-11-28H843l53 54 65-54V655H725l94-140 51-64 53-57 27-26 38-34-58-43-28 29z"/><glyph glyph-name="undefined" unicode="𡊵" horiz-adv-x="1024" vert-adv-y="918" d="M50-28V-7H480V173H120v22H480V335l64-10 16-11-16-10V195H786l54 53 64-53V173H544V-7H856l54 54L974-7V-28H50zM896 849l64-54V774H485l-25-45-28-40-32-37-37-35-6-5H782l32 27 59-49-27-21V351l-64-32v64H336V319l-65-32V549l-41-24-52-27-57-23-61-20-4 9 56 30 52 30 47 31 44 32 39 32 35 34 30 35 26 35 22 37 6 14H63v21H842l54 54zM782 590H336V405H782V590z"/><glyph glyph-name="undefined" unicode="𡏗" horiz-adv-x="1024" vert-adv-y="918" d="M711 103l-3 12-10 24-6 12-14 23-19 23-10 11-40-31-35-22-37-21-40-17-41-15-4 8 70 49 62 50 28 27 26 28 23 28 22 31 19 31 18 33 3 5 53-37 10-17-21-1-11-16-9-12H9e2l1 1 1 2 30 23 59-48-27-16-14-6-26-46-42-58-47-52-53-46-56-39L665-8 599-34 528-53 454-66l-79-4-1 9 76 15 71 21L586-1l60 29 55 35 30 24h-2l-18 16zM60 66 29 124l128 42 20 7V552H45v21H177V847l65-10 16-11-16-10V573h23l54 54 65-54V552H242V197l144 53 4-9-75-47-106-58-93-45L81 75 76 55 60 66zM890 287H728l-26-29-29-29-13-11 12-4 15-6 14-9 13-9 13-10 23-23 10-13 10-14v-9l26 26 40 49 36 56 18 35zM621 574H775l4 6 2-1 27 22 59-48-27-16-16-7-25-38-39-52-42-47-45-43-48-39-50-35-53-30-56-26-59-21-61-16-3 9 57 26 53 28 51 30 48 34 44 36 16 15H601l-17 16-7 22-4 11-12 21-6 10-17 20-9 10-25-22-30-23-31-21-34-18-36-16-5 9 84 73 25 25 44 53 21 28 18 29 30 54 5 11 54-36 9-17-20-1-9-14-8-11zm143-21H606l-22-27-25-27-18-18 9-2 14-5 13-7 12-8 13-9 22-21 9-12 9-14V390l36 40 36 46 34 50 16 27zM730 869l65-10 16-11-16-10V756h71l54 54 65-54V735H795V648l-65-32V735H584V648l-64-32V735H330v21H520V869l64-10 16-11-16-10V756H730V869z"/><glyph glyph-name="undefined" unicode="𡑊" horiz-adv-x="1024" vert-adv-y="918" d="M308-34v21H614V132H384v22H614V742l-42-7-54-5-54-5-55-2H353l-1 9 213 44 102 26 99 30 48 16 47 18 3-9 49-42 1-17-22 10-60-18-50-14-52-12-51-11V154H790l54 54 64-54V132H679V-13H867l54 54 64-54V-34H308zM35 123l128 49V552H52v21H163V847l64-10 16-11-16-10V573h21l44 48 54-48V552H227V199l82 35 38 15 5-8-65-47-61-40-84-49L92 78l-3-1-4-21L68 67 35 123zM524 258l-2 9-4 9-3 8-5 10-7 9-15 17-9 9-19-27-20-26-24-23-25-22-29-20-32-18-5 8 46 51 20 25 17 25 14 24 13 26 9 25 8 25 5 26 3 21 1 16 63-19 15-13-20-9-2-10-10-30-13-29-8-15 13-2 12-4 13-6 12-6 11-8 11-9 10-9 9-12 8-11V248l-18-17H543l-18 17-1 10zm364-39-4 13-11 26-16 26-20 25-24 26-5 3-24-40-18-25-20-24-23-23-25-21-7 6 45 81 12 26 10 24 9 25 7 25 5 24 2 24 2 18 1 17 63-18 15-11-19-10-1-6-7-28-10-27-11-25 24-10 17-8 16-9 15-10 14-11 13-13 12-13 12-14 10-15V222l-16-18-24-1-19 16zM524 501l-2 10-4 9-3 10-5 8-6 9-7 8-8 9-8 7-21-30-20-25-24-24-25-21-29-19-32-17-5 8 24 25 42 49 17 24 14 25 13 25 9 25 8 26 5 27 3 21 1 17 63-19 15-13-20-9-2-11-10-30-13-30-6-12 10-1 13-4 13-5 12-6 12-8 11-10 10-10 9-12 8-13-1-25-18-17-24 2-18 17-1 10zm360-30-5 13-6 13-16 26-20 25-24 25-4 2-9-18-16-25-18-25-20-23-23-22-25-21-7 7 32 53 13 25 12 26 10 24 9 25 6 25 6 24 2 25 2 20 1 16 63-17 16-12-20-9-1-7-7-29-10-27-10-23 23-8 17-8 16-9 15-10 28-24 12-14 11-15 10-16V458l-16-18H906l-18 17-4 14z"/><glyph glyph-name="undefined" unicode="𡓷" horiz-adv-x="1024" vert-adv-y="918" d="M50-27V-6H480V113H120v21H480v97l64-11 16-11-16-10V134H786l54 54 64-54V113H544V-6H856l54 54L974-6V-27H50zM389 703l-5 10-17 21-23 22-13 12-51 36-3 1-44-55-24-26-22-22h93l44 48 54-48V680H181v16l-41-37 46-23H341l32 27 59-49-26-21V455l-65-32v32H186V389H336l44 49 54-49V368H186V306H341l44 48 53-48V284H186V253l-65-32V643L78 613 49 596l-6 8 87 99 61 80 36 57 15 25v1l6 9 51-39 8-18-20 1-1-1 22-5 21-7 20-7 18-7 17-9 16-9 15-10 13-11 12-12 6-24-12-21-24-6-21 13zM758 276v16h75l7 1 5 1 3 1 2 1h1l1 1 1 2 1 4v5l1 6v37H593V264l-65-32V564l65-32H855l32 27 59-49-26-21V314l-2-14-2-13-4-13-6-12-10-11-10-9-13-7-13-4-13-3H833v32l-75 16zm97 154H593V372H855v58zm0 80H593V452H855v58zM341 538H186V476H341v62zm0 76H186V560H341v54zm182-38v22H713v87H609l-29-24-32-24-35-22-38-19-41-18-5 9 67 52 57 52 24 27 22 27 17 25H458v22H628l18 36 14 37 57-31 12-15-21-4-6-13-6-10H861l54 54 64-54V770H683l-22-29-24-29-6-6H833l43 49 54-49V685H777V598H899l34 37 43-37V576H523z"/><glyph glyph-name="undefined" unicode="𡖇" horiz-adv-x="1024" vert-adv-y="918" d="M291 327l-7 23-9 23-9 22-24 45-28 46-23 34-35-61-32-46-33-44-37-41-8 6 54 94 24 48 24 50 20 50 38 105 29 110 11 58 2 10 61-24 14-13-19-6-10-40-18-57-4-12H465l32 27 60-48-27-16-6-3-19-91-29-107-35-99-40-89-45-82-50-73-56-64L189 8 123-37 52-71l-4 9 64 43 59 49 53 57 49 64 44 71 37 76-17-14-24 3-16 18-6 22zm430 0-7 23-8 23-10 22-24 45-28 46-23 34-35-61-32-46-33-44-37-41-7 6 53 94 24 48 24 50 21 50 37 105 29 110 11 58 2 10 61-24 14-13-19-6-10-40-18-57-4-12H895l33 27 59-48-27-16-6-3-19-91-29-107-35-99-40-89-45-82-50-73-56-64L620 8 553-37 482-71l-4 9 64 43 59 49 53 57 49 64 44 71 37 76-17-14-24 3-16 18-6 22zM463 686H265l-30-76-25-53-12-23 14-10 23-19 21-21 19-20 34-44 15-23 13-24 12-24 10-25-3-22 35 87 30 96 24 105 18 96zm430 0H695l-30-76-25-53-12-23 14-10 23-19 21-21 19-20 34-44 15-23 13-24 12-24 10-25-3-22 35 87 30 96 24 105 18 96z"/><glyph glyph-name="undefined" unicode="𡖈" horiz-adv-x="1024" vert-adv-y="918" d="M83-34v21H457V304H83v22H875l32 27 59-49-27-21V-45L875-77v43H83zM875 304H522V-13H875V304zM83 476v22H457V815H83v22H875l32 26 59-48-27-22V444l-64-32v64H83zM875 815H522V498H875V815z"/><glyph glyph-name="undefined" unicode="𡖐" horiz-adv-x="1024" vert-adv-y="918" d="M242 173l-4 11-3 11-11 23-15 23-17 25-4 3-16-19-28-27-29-26-30-22-33-20-6 8 49 55 45 58 20 30 20 32 34 67 16 36 11 29-18-18-42-38-45-33-48-29-50-25-4 8 43 33 41 35 39 37 36 40 34 42 18 26-18-1-18 16-3 12-4 11-4 11-5 10-6 11-6 10-14 21-6 10-11-14-25-28-26-25-29-23-31-21-6 7 45 57 39 57 33 61 15 31 13 33 11 34 9 29 4 14 58-28 13-15-20-5-20-46H359l32 27 59-48-27-16-11-5-17-39-29-56-32-53-35-49-36-45-11-11 51-28 12-16-21-3-25-50H386l32 27 59-49-27-16-9-4-17-46-28-64-31-59-35-53-39-47-42-42L203-5 154-35 102-59 47-76l-4 9L93-41l46 30 42 34 39 38 36 42 29 42H261l-17 17-2 11zM381 363H256l-12-19-23-34-24-31-1-1 4-2 14-7 14-7 14-9 12-9 23-21 9-11 9-13 9-12V176l14 25 26 55 23 62 14 45zM808 256v16h53l7 1 5 1 5 1 2 2 1 5 1 5 1 7V610L749 565V148l-65-32V543L571 504V34l1-4 2-5 2-2 5-2 5-1 7-1H921l32 135h11L953 19 972 6l13-19-13-19-19-13H593l-14 1-14 2-13 4-12 7-11 9-8 11-7 12-5 13-2 13V41 482l-94-31-7 19 101 35V740l64-11 16-11-16-9V527l113 38V863l65-10 16-11-16-10V587l134 46v10l32 27 59-49-27-21V294l-1-14-2-13-4-13-7-13-9-10-10-9-13-7-13-4-13-2-14-1v32l-53 16zM352 756H223l-10-19-19-32-21-31-4-4 11-4 13-6 12-7 12-8 21-19 11-11 9-12 9-12v-9l21 33 26 52 25 54 13 35z"/><glyph glyph-name="undefined" unicode="𡖩" horiz-adv-x="1024" vert-adv-y="918" d="M709 170l-3 13-5 12-6 13-7 12-8 13-9 12-21 25-7 6-27-25-31-27-33-24-34-21-37-18-5 8 58 54 27 27 26 29 23 30 44 64 19 34 18 35 16 36-44-43-49-39-52-35-55-30-58-26-4 9 51 34 49 37 47 39 43 41 39 44 30 39-23-2-19 15-4 12-5 11-6 12-13 22-17 23-17 21-39-45-27-25-30-23-31-21-7 7 47 57 41 57 18 30 17 31 16 32 14 33 13 33 11 35 3 8 58-28 12-16-20-4-7-17-14-29H826l32 27 59-48-27-16-12-5-20-43-33-59-35-55-39-52-38-42 53-31 10-16-20-3-11-20-18-29H890l32 27 59-49-27-16-12-5-24-52-38-67-43-61-47-54-52-48-56-41-59-35-64-27-67-20-72-13-2 9 68 23 62 27 58 33 53 36 49 43 42 44-21 1-16 18-4 12zM367 364l59-48-27-21V-14L335-46v32H45V8H335V156H56v22H335V316H45v22H335l32 26zm515-1H713l-14-21-26-32-22-25 23-10 16-8 15-9 13-11 13-11 13-12 10-14 10-14 9-15-1-14 22 28 36 58 33 64 19 46zM367 854l59-48-27-22V454l-64-32v65H45v21H335V646H56v22H335V806H45v21H335l32 27zm452-98H664l-32-52-22-30 11-4 14-7 14-8 26-17 23-21 11-12 9-13 3-20 24 35 30 54 28 57 16 38z"/><glyph glyph-name="undefined" unicode="𡖲" horiz-adv-x="1024" vert-adv-y="918" d="M904-50 876-27 816 16 752 56l-9 6-21-24L678 1 629-27 576-48 518-61l-62-5v10l58 15 52 19L612 3l41 30 35 36 12 16-104 52-24-51-58 29 43 97 29 75 11 33H446l-9-24-29-63-32-59-37-53-39-48-43-42L209-5 159-35 106-59 49-76l-3 9L97-41l47 30 44 34 41 38 36 42 30 42H271l-18 17-2 11-3 11-5 11-11 23-15 23-19 25-4 3-17-20-28-26-30-26-31-22-33-20-6 8 51 55 45 58 22 30 20 32 18 33 17 34 16 36 13 32-21-21-44-38-45-33-49-29-51-25-5 8 45 34 42 34 40 37 37 40 36 42 18 26-19-1-18 16-3 11-4 11-10 22-12 21-7 11-15 20-12-14-25-28-27-25-29-23-32-21-6 7 46 57 41 57 18 30 16 31 15 31 14 33 11 34 11 35 2 8 59-28 12-15-19-4-7-18-14-29H372l32 27 59-48-27-16-12-5-17-39-30-57-33-52-36-49-38-45-10-10 53-29 10-16-20-3-9-20-17-30H399l32 27 59-49-26-16-10-4v-1H604l38 121 14 49 2 9 60-26 12-14-18-5-37-124-3-10H870l54 54 64-54V320H857l-15-65-21-65-28-58-22-34 37-17 70-37L943 1l13-21-7-24-21-12-24 6zM792 320H665l-33-94-30-74 15-3 40-10 40-13 26-9 22 40 21 54 17 59 9 50zM394 363H264l-36-53-25-31v-1l33-16 13-8 24-20 12-10 19-24 9-13V173l16 28 27 56 24 61 14 45zM890 864l4-9 45-40 1-17-20 9-77-25-36-11-76-17-38-8-39-6-39-5-26-3-7-2-13-47-10-33-12-30-12-30-13-28-14-28-16-25-17-24-18-22-8 5 35 108 16 58 7 31 11 63 7 45 53-19 142 44 70 25 96 39v1l4 1zm21-337-9 40-6 20-14 41-8 21-30 67-12 22 8 6 36-37 17-19 28-40 24-41 11-21 9-21 8-21-4-25-19-15-24 3-15 20zM697 576l-2 16-3 17-6 32-14 49-7 16 8 5 23-26 12-14 10-15 10-16 16-34 7-17 12-38-6-24-21-13-24 6-13 21-2 35zM365 756H229l-9-19-20-32-22-31-3-4 11-4 13-6 12-7 12-8 12-9 11-10 10-11 10-11 9-13V579l23 37 27 51 26 54 14 35z"/><glyph glyph-name="undefined" unicode="𡖹" horiz-adv-x="1024" vert-adv-y="918" d="M723 120l-6 10-7 11-9 11-22 23-47 40-8 4-14-13-29-22-30-21-33-19-35-18-5 8 56 51 47 50 41 51 16 26 15 26 13 26 14 34 56-32 11-17-21-2-5-10-11-17H895l33 27 59-48-27-16-11-5-16-37-30-54-36-49-40-44-46-40-50-35-56-30-60-25-64-19-70-14-2 9 65 24L604-9l55 29 49 33 44 36 11 11-16-3-20 14-4 9zm-430 0-6 10-7 11-9 11-22 23-47 40-8 4-14-13-29-22-30-21-33-19-35-18-5 8 55 51 48 50 41 51 16 26 15 26 13 26 14 34 56-32 11-17-21-2-5-10-11-17H465l32 27 60-48-27-16-11-5-16-37-30-54-36-49-40-44-46-40-50-35-56-30-60-25-64-19L51-69l-2 9 65 24L174-9l55 29 49 33 44 36 11 11-16-3-21 14-3 9zM459 299H266l-14-18-22-26-24-25-1-1 25-8 20-8 18-8 17-8 16-9 28-20 22-22 4-24 6 6 33 42 29 47 24 50 12 32zm430 0H696l-14-18-22-26-24-25-1-1 25-8 20-8 19-8 16-8 16-9 28-20 22-22 4-24 6 6 33 42 29 47 25 50 11 32zM265 620l65-32H699l32 27 59-48-26-22V437l-65-32v32H330l-65-32V620zm434-53H330V459H699V567zM671 684H885l4 5 1-1 27 23 59-49-27-16-19-8-14-17-52-56-33-31-16-17-8 6 13 20 9 20 36 71 13 28H161V645l-1-27-4-26-6-24-8-22-11-20-14-18-16-16-24-4-21 13-4 24 13 21 10 6 11 9 10 12 10 14 8 18 8 21 7 23 6 27 6 30 3 33 10 1 4-34 3-22H482V871l65-11 16-11-16-9V684H653l15 18 70 96 18 27 5 11 2 4 5 8 50-41 7-18-24 2-59-52-71-55zM294 719l-6 13-14 25-18 25-36 39-16 11 5 9 36-15 17-8 17-9 15-10 14-11 14-12 12-13 22-28 2-24-16-19-25-2-18 16-5 13z"/><glyph glyph-name="undefined" unicode="𡛎" horiz-adv-x="1024" vert-adv-y="918" d="M793-44 754-19 713 4 668 25 621 45 582 60 538 31 470 0 392-26 303-46 203-60 93-68 92-58 2e2-39l97 22L381 8l73 30 61 32 11 8-66 19-114 28-29-55-73 3L350 269H50v22H361l87 162 52-40 9-17-20-3-54-102H856l54 54 64-54V269H709l-9-51-23-57-35-50-21-19 66-20 49-19 46-22L826 8l41-26 13-21-6-24-21-13-24 6-36 26zM645 269H423L352 135l52-3 62-7 59-9 39-9 36 39 26 42 15 45 4 36zM210 474V409l-64-32V682l64-11 17-11-17-10V495H480V753l64-11 16-10-16-10V495H813V682l65-11 16-11-16-10V441l-65-32v65H210zM899 870l65-54V795H65v21H845l54 54z"/><glyph glyph-name="undefined" unicode="𡝙" horiz-adv-x="1024" vert-adv-y="918" d="M536-29v16H643l7 1 4 1 4 1h2l1 1v1l2 2 1 3V2l1 7V294H447v21H838l54 54 65-54V294H729V9-5l-3-13-4-13-7-13-9-10-11-9-12-7-12-4-14-2-14-1v32L536-29zM380 120l-17 24-20 22-22 22-12 10-8-16-42-65-46-59L161 5 106-39 44-76l-5 8L93-23l49 49 44 54 39 59 35 65 11 23-29 19-31 18-33 17-1 1-13-59-70-19 83 396H73v21H181l51 244 61-24 14-14-18-5-42-201H369l32 27 59-48-26-16-5-2-12-72-22-92-27-85-31-78-7-14 21-14 28-21 25-23 24-25 22-26 4-24-13-21-24-5-21 14-16 24zM538 223l56-34 10-16-20-3-21-36-34-51-37-48-19-23-21-22-22-20-23-18-7 7 59 99 41 77 38 88zM895 16l-8 23-9 22-22 44-12 22-28 42-31 42 6 8 23-15 22-16 21-18 18-19 18-20 17-22 15-22 14-24 12-24 12-26-2-24-18-17-25 2L902-8l-7 24zM367 6e2H243L181 301l41-11 35-13 30-13 30 86 22 82 18 88 10 80zM9e2 485l-26 25-27 28-25 31-25 35-25 37-24 41-24 44-20 43-17-37-24-48-26-45-28-42-30-38-32-36-34-32-35-27-38-24-6 8 30 32 29 32 27 34 26 37 25 39 22 42 22 44 20 47 18 50 19 61 59-28 12-15-20-5-9-24 66-91 56-68 28-30 26-25 26-23 26-19 45-29-59-46-28 22zM786 546l65-54V471H538v21H732l54 54z"/><glyph glyph-name="undefined" unicode="𡡙" horiz-adv-x="1024" vert-adv-y="918" d="M666 190H407l-60-67-23-23 23-2 67-6 65-8 63-10 12-2 40 28 36 35 28 38 8 17zM449 606v22H674v81H547l-36-25-37-22-39-20-44-18-46-16-4 9 79 50 36 25 31 25 29 25 25 26 17 21H373v17l-8-6-17-7-7-10-26-30-30-31-34-31-32-25 45-26 21-14 17-14 15-15 13-17 9-18 6-18 2-21-2-20-5-13-6-12-8-11-9-10-10-9-11-7-12-5-13-4-14-1-13-1v32l-54 16v16h54l7 1 6 1 4 1 5 2 4 2 5 6 6 10 3 6 3 7 2 8 1 10-2 12-5 13-8 15-11 17-33 36-21 19 1 1-7 6 41 60 22 36 18 34 7 15 2 5H151V304L86 271V870l65-32H3e2l32 27 60-48-11-7H575l7 10 15 27 13 27 3 7 55-34 11-17-22-2-7-12-4-6H880l44 49 54-49V789H630l-26-30-28-27-3-2H823l44 48 54-48V709H738V628H898l33 38 43-38V606H449zM742 326v16h82l5 1 3 1 2 1 2 2 1 1 1 4v4l1 7v31H524V314l-64-32 10-8 7-19-19 2-26-36-7-9H855l54 54 64-54V190H738l-29-51-37-44-43-36 35-7L779 26 887-4l18-16 2-25-16-18-25-2L763-30 594 19l-21 6L511-3 442-26 364-44 279-56l-94-7L83-65 82-55 183-42l91 15L357-9l73 22 63 26 7 3L309 86 275 55 250 34 209 84l70 62 43 44H50v22H341l21 25 37 48 18 25 3 4 40-32V598l64-32H839l32 26 59-48-27-21V363 349l-3-13-4-13-7-12-9-11-10-9-12-6-14-4-13-3-14-1v33l-75 16zm97 143H524V416H839v53zm0 75H524V490H839v54z"/><glyph glyph-name="undefined" unicode="𡨀" horiz-adv-x="1024" vert-adv-y="918" d="M351-27v16H458l7 1 5 1 4 1 3 3 1 4 1 5 1 7V221H103v22H480V363H286v22H620l53 54 65-54V363H544V243H802l54 54 65-54V221H544V11L543-3l-2-13-4-13-7-12-9-11-11-9-12-7-13-4-13-2-14-1v32L351-27zM292 182l49-42 7-17-21 1-25-27-23-21-50-39L171-2 138-19 104-36 68-51l-5 8 87 70 49 45 42 43 18 21 16 22 11 16 6 8zM845-4 831 15 815 33 775 69 753 88l-51 36-58 37 3 9 35-9 33-12 60-27 27-16 25-16 24-17 21-18 20-20 18-20 6-24-13-21-24-5-21 12L845-4zm30 365-48 22-47 25-45 26-44 30-42 32-40 35-38 37-36 40-12 15-18-21-42-43-45-41-47-37-50-35-52-32-55-29-57-25-59-23-63-19-4 9 58 29 55 29 53 31 51 33 47 34 44 37 43 39 40 40 37 43 33 42 4 6 49-43 6-18-8 1 49-39 41-30 42-28 43-27 45-24 44-22 46-19 47-18 88-28-63-54-50 20zM150 721l1-16-2-25-4-25-6-23-8-20-11-20-14-17-16-15-24-4-21 14-3 25 13 20 11 5 10 8 10 11 9 13 9 16 8 20 7 22 6 25 5 28 4 30h9l5-31 1-20H477V876l65-10 16-11-16-10V742H885l3 3 1 3 1-1 27 22 59-48-27-16-20-9-14-15-51-51-16-15-17-14-16-16-8 6 13 19 46 86 12 25H150z"/><glyph glyph-name="undefined" unicode="𡩆" horiz-adv-x="1024" vert-adv-y="918" d="M407 146l-5 14-7 15-9 16-26 32-33 33-17 16V-45L246-77V242l-32-66-25-41-26-39-28-35-29-31L74 2 40-22l-6 7L84 48l23 35 22 36 21 38 37 85 16 46 15 49 8 32H148V304L84 272V616l64-32h98V702H42v22H246V874l64-11 17-10-17-10V724h86l54 53 64-53V702H310V584h98l32 27 60-49-27-21V347l-65-32v54H310V292l32-15 23-12 40-28 17-15 15-16 14-17 11-18 10-18-2-25-19-16-24 2-17 18-3 14zM937 25l32 134h11L969 25l20-13 13-20-13-19-20-13H702l-13 1-14 2-12 5-13 7-11 8-9 11-6 12-4 13-3 14-1 13V595l65-11 16-11-16-10V324L896 476l4 3 17-26 23-25 1-18-19 8-64-36-114-56-61-25-2-1V46 40l1-5 1-3 1-2 2-2 5-2 5-1h6H937zM246 562H148V390h98V562zm162 0H310V390h98V562zm138-42-23 6-12 22 7 23 5 5 5 7 6 11 6 14 5 17 6 20 5 23 9 53 3 31h10l3-31 2-20H723V854l65-11 16-11-16-9V701H925l32 27 59-48-27-17-14-6-37-64-10-15-11-15-9-17-8 4 5 18 3 18 12 64 2 13 2 17H586l1-14 1-25V619l-1-21-3-18-3-18-6-16-7-14-22-12z"/><glyph glyph-name="undefined" unicode="𡶲" horiz-adv-x="1024" vert-adv-y="918" d="M897 20 870 43 843 69 818 97l-23 30-22 34-20 35-18 38-17 41v2V-51L653-83V237l-34-55-29-40-30-37-32-35-34-32L458 8 420-19 380-44l-6 9L407-4l62 66 28 35 27 36 26 38 23 39 22 42 20 42 9 21H416v22H653V444l65-11 16-10-16-10V337H849l53 53 65-53V315H719l67-98 24-30 24-28 24-25 25-22 26-20 27-16 51-29L927-1 897 20zM110 138V73L45 41V670l65-11 16-11-16-9V159h67V831l65-11 16-10-16-10V159h76V670l65-11 16-11-16-9V105L318 73v65H110zM905 459l-18-19-11-7-10-7-12-6-11-5-13-4-12-2-13-2-13-1v33l-43 16v16h43 8l14 3 7 2 12 6 12 8 11 11 5 14 4 12 7 33 3 20 7 49 1 14H820l-9-44-70-16 47 205H656l-6-54-12-59-14-54-18-51-21-45-25-42-28-36-31-31-34-26-38-20-5 8 30 28 27 30 23 33 21 35 19 40 15 44 13 47 10 51 7 56 2 46H477v22H791l32 27 59-49-26-16-10-4-22-104h61l32 27 59-48-26-16-4-2-7-55-8-42-4-17-4-15-5-14-5-12-8-11z"/><glyph glyph-name="undefined" unicode="𡹬" horiz-adv-x="1024" vert-adv-y="918" d="M786-24V-8h86l7 1 4 1 5 2 2 2 2 5 1 5 1 6V423H493V-46L434-76V474l53-27V826l64-33H838l32 27 59-48-27-22V451l24 20 59-48-27-22V14L957 1l-2-14-4-13-7-12-9-11-11-9-12-7-13-4-13-2-14-1v32L786-24zM579 347l65-32H745l33 27 59-48-27-22V73L745 41v64H644V41L579 9V347zM117 138V73L58 44V670l59-11 15-11-15-9V159h65V831l60-11 15-10-15-10V159h74V670l59-11 14-11-14-9V105L316 76v62H117zM745 294H644V127H745V294zm93 478H551V444H653V675l64-32H838V772zm0-151H717V444H838V621z"/><glyph glyph-name="undefined" unicode="𡺆" horiz-adv-x="1024" vert-adv-y="918" d="M189-11V-48L125-81V192l64-10 17-11-17-10V11H480V262l64-10 16-11-16-10V11H835V192l64-10 16-11-16-10V-32L835-65v54H189zM739 320v17h64 7l5 1 3 1 2 1 2 2 1 5 1 5 1 6v73H591V308l-64-33V601l-45-31-41-25-44-22-5 9 73 61 33 31 29 29v29l17-9 13 15 25 33 9 12H410v22H606l21 35 18 36 19 44 56-32 10-17-20-2-11-21-23-38-4-5H857l53 54 65-54V733H657l-35-44-32-32-5-5 6-3H825l32 27 59-48-27-22V358l-1-13-2-14-4-13-7-12-9-11-10-9-13-6-13-5-13-2-14-1v32l-64 16zM167 820H341l3 5h1l28 22 59-48-27-16-19-8-21-25-30-29-35-29-54-37 49-24 22-13 20-14 16-14 14-15 11-18 7-18 1-21-2-21-6-12-7-12-8-11-9-9-10-8-12-7-12-5-13-4-13-2-14-1v33l-53 16v16h53 7l6 1 6 2 8 4 3 3 4 3 6 10 3 6 4 6 2 6v8l-2 11-6 13-10 14-13 17-17 17-20 19-24 17-6 8 17 20 43 57 23 34 9 15 8 15 1 2H167V308l-65-33V853l65-33zM825 530H591V453H825v77zm0 98H591V551H825v77z"/><glyph glyph-name="undefined" unicode="𡽃" horiz-adv-x="1024" vert-adv-y="918" d="M649 530l26-14 11-15-20-4-9-20-10-17H876l44 48 54-48V438H634l-22-33-27-34-12-12H821l44 48 54-48V337H741V230H852l54 53 65-53V208H458v22H677V337H554v1l-32-29-36-28-40-27-43-24-45-21-5 8 76 60 34 31 31 31 27 31 25 33 21 32 2 3H385v22H581l20 43 10 27H458v21H677V659H554v1l-32-29-36-29-40-26-43-24-45-22-5 8 76 61 34 31 31 30 27 32 25 32 21 33 2 3H385v9l-14-8-10-4-24-50-29-50-33-51-19-26-38-46 27-22 25-24 22-26 18-26 15-28 11-28 8-29 5-31V290l-4-31-3-14-5-12-7-12-8-11-10-9-11-7-13-6-13-4-12-2-14-1v32l-54 16v16h54l7 1 5 1 4 1 4 1 3 3 5 4 2 5 2 5 7 30 3 23v24l-3 24-6 25-8 25-12 27-15 27-38 57 1 2-6 3 53 118 30 77 15 48 1 1H147V-45L82-77V831l65-32H307l32 27 54-45H581l20 44 11 30 5 13 58-30 11-16-20-4-9-19-10-18H856l53 54 65-54V760H635l-23-33-27-34-12-13H821l44 48 54-48V659H741V551H873l44 48 54-48V530H649zM465-27V-43L4e2-75V142l65-10 16-11-16-10V-5H644V2e2l64-11 16-11-16-9V-5H887V142l64-10 16-11-16-10V-38L887-70v43H465z"/><glyph glyph-name="undefined" unicode="𢏜" horiz-adv-x="1024" vert-adv-y="918" d="M701 385H907l3 3h1l28 24 60-49-27-16-14-5-30-54-46-67-50-60-57-55-60-47-66-41-71-34-76-28-80-19-85-13-1 9 81 23 76 28 70 32 65 37 59 43 50 43H713l-18 16-4 13-5 13-6 13-8 12-9 13-10 12-12 13-27 26-11 8-35-29-37-26-38-24-41-21-42-17-5 8 37 27 68 55 31 29 30 30 27 32 26 33 23 34 22 36 23 42 54-36 8-17-20-1-13-21-20-27zM305-18l-8-10-9-11-9-8-11-8-11-6-13-5-13-3-13-2-13-1v32L130-24V-8h75l7 1 7 1 11 3 8 6 4 3 4 5 4 6 11 24 8 22 7 26 6 29 6 33 5 36 3 39 4 43 2 46 1 38H141l-8-68-68-24 41 359 56-36H299V783H66v21H299l32 27 59-48-27-22V530l-64-32v64H165L143 374H303l33 27 59-48-27-16-1-1-1-24-2-47-3-45-4-40-5-39-6-35-7-32-8-29-9-27L311-6l-6-12zM898 363H684l-18-22-31-33-23-22 28-10 18-8 17-9 16-10 15-11 14-13 12-13 12-15 10-15V158l-12-14 50 52 44 59 39 64 23 44zM638 777H830l3 4h1l29 23 59-48-27-16-14-6-24-44-39-59-43-55-47-51-50-48-54-43-58-39-61-35-65-29-69-26-4 9 64 35 59 36 56 39 53 42 48 45 45 48 40 50 38 54 33 57 18 36H625l-14-21-24-32-24-28 12-4 18-7 16-7 29-18 14-10 13-11 13-12 11-12 4-25-13-20-24-4-21 14-6 11-6 12-16 23-30 35-25 23-20-20-30-27-32-25-34-23-37-20-5 8 57 57 51 57 23 30 40 63 17 34 16 34 16 42 57-32 11-16-20-3-9-18-15-27z"/><glyph glyph-name="undefined" unicode="𢑑" horiz-adv-x="1024" vert-adv-y="918" d="M902 363l59-49-26-21V-38L870-70v43H84V-5H870V154H127v21H870V314H96v22H870l32 27zM838 873l59-49-27-21V447l-64-32v65H155v21H806V662H191v21H806V824H165v22H806l32 27z"/><glyph glyph-name="undefined" unicode="𢑠" horiz-adv-x="1024" vert-adv-y="918" d="M367 364l59-48-27-21V-35L335-68v54H45V8H335V156H56v22H335V316H45v22H335l32 26zM785 196v16h54 6l5 1 3 1 4 2 1 3 1 3 1 5v6V470L754 428V127L689 95V402l-94-37V56l1-7V45l1-4 2-2 1-1 2-1 4-2h4l7-1H928l32 135h11L960 34l19-12L992 2 979-17 960-30H617 603l-13 3-13 4-12 7-11 9-9 11-7 12-4 12-3 14V56 340l-74-29-8 20 82 32V572l64-11 16-10-16-10V388l94 38V640l65-10 16-11-16-10V451l106 42v12l33 27 59-49-27-21V233l-1-14-2-13-5-13-6-12-9-11-11-9-12-6-13-4-13-3-14-1v33l-54 16zM367 854l59-48-27-22V454l-64-32v65H45v21H335V646H56v22H335V806H45v21H335l32 27zm226 14 60-25 13-15-20-5-7-23-15-40-16-40-18-37-4-8H851l53 54 65-54V654H575l-25-43-23-33-25-31-27-29-28-27-8 6 57 1e2 34 70 14 36 26 75 11 40 9 41v-1l3 10z"/><glyph glyph-name="undefined" unicode="𢑰" horiz-adv-x="1024" vert-adv-y="918" d="M432 370l60-49-27-21V-37L4e2-69v53H37V6H4e2V321H37v22H4e2l32 27zm497-2 59-48-27-22V-32L897-65v43H536V0H897V159H557v22H897V320H542v21H897l32 27zM64 68V90H183V239H87v22H246l44 48 54-48V239H248V90h21l44 48 53-48V68H64zM929 852l59-48-27-22V441l-64-32v53H536v22H897V643H557v21H897V804H542v21H897l32 27zm-497 1 60-48-27-22V442l-65-32v54H37v21H4e2V805H37v21H4e2l32 27zM64 549v21H183V722H87v22H246l44 48 54-48V722H248V570h21l44 49 53-49V549H64z"/><glyph glyph-name="undefined" unicode="𢓰" horiz-adv-x="1024" vert-adv-y="918" d="M327 660l53-38 8-17H368l-43-63-30-38-31-36-33-36-9-9 38-6 16-11-16-9V-40L195-72V397l-34-31-37-31-39-29-41-27-6 8 66 69 63 70 58 73 53 76 44 75 5 10zM892-52 858-28 789 15 715 56l-15 7-26-26L625 1 570-28 510-49 445-61l-71-5v10l66 15 61 19L554 4l48 30 41 36 12 14-125 54-28-54-57 32 33 62 33 72 29 70H348v22H548l43 122 18 57 59-27 12-15-18-5-26-78-19-54H864l53 54 65-54V320H828l-17-66-25-65-31-58-24-33 83-35 76-40L928 2l12-21-4-24-20-13-24 4zM762 320H609l-39-96-33-71 20-4 45-10 45-12 34-11 27 43 25 53 19 59 10 49zM874 866l3-10 48-41 1-17-21 10-50-16-83-21-85-17-43-8-44-6-45-5-34-3-8-3-4-14-22-66-12-30-14-30-30-55-17-26-19-23-21-22-8 6 33 80 20 57 17 60 7 31 7 33 6 33 2 10 53-20 166 45 120 39 77 29zm19-321-5 20-7 20-17 42-10 21-36 67-14 23 8 7 40-37 35-39 29-40 24-42 11-21 9-21-3-25-19-16-24 3-16 18-5 20zM655 558l-4 33-4 17-8 33-11 33-7 16-8 16 8 6 26-26 12-14 12-15 20-32 9-18 14-36 6-19-6-24-20-14-24 6-14 21-1 17zM287 864l53-38 8-17H328l-37-52-26-32-55-62-58-55-31-26-32-23-33-21-6 7L152 662l47 63 45 65 43 74z"/><glyph glyph-name="undefined" unicode="𢣝" horiz-adv-x="1024" vert-adv-y="918" d="M172 863l64-10 16-11-16-10V-45L172-77V863zM501 289H334v22H501V413l65-10 16-11-16-10V311H844l54 53 65-53V289H877l15-23 24-25 1-19-20 8-31-15-23-10-25-9-24-7-24-7-26-5-26-4-26-3-27-1-2 9 94 41 42 22 40 25 19 12 15 11H566V264l-5-46-8-45-13-41-18-39-22-35-27-33L442-4 407-30 368-52 325-69l-5 8 37 27L389-7l29 29 24 29 19 31 16 33 12 34 7 36 5 39v40 25zM926-3l21 88-30-17-30-14-30-12-33-10-32-9-34-8-35-5-36-3-36-1-2 10 68 22 62 23 29 13 55 29 26 15 47 35 21-28 2 7h10l-1-22 6-9 1-19-9 4-7-89 19-13 13-19-13-19-19-13H659l-14 1-14 2-13 4-12 7-11 9-8 11-7 12-5 13-2 13V19 267l64-11 16-11-16-10V12l1-4 2-5 2-2 2-2 3-1h5l7-1H926zM904 224l19-28 21-23 1-19-19 8-36-18-26-12-27-10-27-9-27-8-28-6-29-5-29-3H667l-2 9 79 33 50 22 46 26 43 28 21 15zM785 313l-20 14 2 6-1 4-2 5-4 7-9 14-14 16-9 6 4 9 11-6 21-4 9-2 9-3 16-5 8-4 7-3 7-6 3-24-14-20-24-4zM501 752H334v21H501V876l65-11 16-11-16-9V773H844l54 54 65-54V752H877l15-23 24-26 1-19-20 9-31-16-23-9-25-9-24-8-24-6-26-6-26-4-26-2-27-1-2 9 94 41 42 22 40 24 19 12 15 12H566V726l-5-46-8-45-13-41-18-39-22-35-27-33-31-29-35-26-39-21-43-18-5 9 37 26 32 27 29 29 24 29 19 32 16 32 12 34 7 36 5 39v40 26zM659 401H645l-13 2-12 3-12 6-11 8-9 10-7 12-4 12-3 14-1 13V729l64-11 16-11-16-9V481v-6-6l1-3v-3l1-1 1-2 2-1 4-2 5-2 8-1H932l27 92h10l-10-92 16-10 11-17-11-16-16-10H659zM79 389l-24 5-14 20 4 24 8 9 7 11 8 14 8 16 8 18 7 21 23 76 7 30 9-1 1-59-1-28-2-25-3-24-3-22-4-20-5-19-6-17-8-16-20-13zM311 504l-3 14-8 30-5 15-14 33-16 34-11 17 7 6 16-14 15-13 27-28 12-14 11-15 9-15 17-32 7-17-4-24-19-15-24 4-15 20-2 14zM936 616l38-53 1-19-19 8-39-21-30-14-30-13-33-10-32-9-34-8-35-5-36-3H651l-2 9 68 22 62 24 29 13 55 28 26 16 47 35zm-32 70 19-28 21-23 1-19-19 8-36-18-26-11-27-11-27-9-27-7-28-7-29-5-29-2-30-1-2 9 79 33 50 23 46 25 43 28 21 15zM785 776l-20 14 2 5-1 4-2 6-4 6-9 14-14 16-9 6 4 9 11-6 21-4 9-2 9-3 16-5 8-3 7-4 7-5 3-25-14-19-24-4z"/><glyph glyph-name="undefined" unicode="𢩻" horiz-adv-x="1024" vert-adv-y="918" d="M98-18V-2h75 7l5 1 4 2 3 2 1 5 1 5 1 6V317l-85-44-15-7-3-21-17 11-36 54 156 64V632H53v22H195V863l64-10 16-11-16-10V654h27l54 53 64-53V632H259V4e2l107 42 36 12 5-8-63-43-85-50V19L258 6 256-8l-4-12-7-13-9-11-11-8-12-7-13-4-13-3-14-1v33L98-18zM921-58 903-41 862 54 847 86l-3 6L718 54 435-26l-8-20-14 14-25 60 10 3L501 50l91 207 45 113 40 112 34 113 3 8 59-28 12-15-19-4-35-94-48-111-54-111-29-55L536 77 520 54 660 80 763 97l54 8 19 2-40 76-57 101 8 6 28-28 50-59 45-61 40-62 35-63 16-32 1-24-17-18-24-1zM595 838l61-25 13-14-19-6-11-37-19-55-23-54-25-53-28-52-30-50-34-47-36-47-39-45-43-42-7 7 66 97 30 49 28 49 25 51 23 51 20 52 18 53 15 54 15 64z"/><glyph glyph-name="undefined" unicode="𢪎" horiz-adv-x="1024" vert-adv-y="918" d="M561 871l59-28 12-15-19-4-35-99-47-113-24-55-6-11 28-5 16-11-16-10V-45L465-77V475l-40-72-31-49-32-46-8 4 89 209 42 110 57 172 19 68zM86-18V-2h75 7l5 1 5 2 2 2 1 5 1 5 1 6V315l-83-48-3-20-17 9-37 54 9 4 131 58V632H58v22H183V863l65-10 16-11-16-10V654h30l44 48 54-48V632H248V401l60 27 65 26 5-8-27-22-57-41-46-29V19L246 6 244-8l-4-12-7-13-9-11-10-8-13-7-13-4-13-3-14-1v33L86-18zM920 46l32 135h11L952 46l20-13 13-19L972-5 952-18H737l-14 1-13 2-13 4-12 7-11 9-9 11-7 12-4 13-2 13-1 14V385l-36-9-42-6-3 9 39 16 37 18 5 3V842l65-11 16-11-16-9V453l37 25 34 27 34 29 32 33 33 34 28 33 6 7 46-44 6-19-20 3-22-22-37-34-37-31-39-29-39-25-40-21-22-10V61l1-5 1-4 3-3 4-1 5-1 7-1H920z"/><glyph glyph-name="undefined" unicode="𢼻" horiz-adv-x="1024" vert-adv-y="918" d="M875-30 821 3 772 40 728 82l-7 8-53-46L609 2 545-32 476-58 403-76l-2 9 67 28L531-6l58 38 53 43 48 48 2 2-39 56-30 56-25 60-19 66-13 65H514v21H675V863l64-10 17-11-17-10V670H867l54 54 65-54V648H739V449H859l33 27 59-48-27-16-10-4-22-59-35-74-40-68-44-61-15-16 8-9 43-35 46-30 49-25L995-4 933-56 875-30zM421 18 403 37 363 74 339 92l-15 12-28-34-43-38L207 0 157-24 104-41 48-49l-2 9L98-22 145 2l43 28 39 32 35 39 23 31-103 67-39-81-58 29 36 73 45 105 13 33H47v22H187l15 43 22 71 60-26 12-14-18-5-14-46-9-23H409l54 53 65-53V358H446l-21-68-26-64-31-58-16-26 42-25 50-34 22-18 9-23-8-23-23-9-23 8zM577 428l23-58 28-60 30-55 32-50 34-40 9 11 39 59 34 66 29 70 19 57H577zM380 358H248l-22-57-30-71-7-16 52-19 34-14 31-15 15 28 25 54 21 62 13 48zm65 497 3-8 49-43 1-16-22 9-42-12-33-8-67-14-35-6-35-4-36-4-37-3H167l-12-47-20-69-24-63-27-58-16-26-17-24-8 3 14 58 15 60 14 63 7 33 6 35 10 67h-1l3 15 62-21v-1l116 31 65 20 62 21 24 10 5 2zm5-304-4 22-4 21-6 20-7 20-8 19-18 38-9 19-12 17 7 7 35-28 16-16 27-37 13-20 10-21 10-22 9-24 8-24-5-24-20-14-24 5-15 20-3 22zM261 568l-2 14-2 15-4 15-7 31-15 51-7 17 8 5 12-15 12-14 22-29 18-29 17-30 12-29-3-24-20-15-24 3-15 20-2 14z"/><glyph glyph-name="undefined" unicode="𢿎" horiz-adv-x="1024" vert-adv-y="918" d="M889-29 839 3 794 40 752 82l-5 7-47-45L644 3 584-31 520-58 451-76l-2 9 62 28L570-6l53 38 49 42 45 48 2 3-36 56-28 56-23 61-18 65-12 65H554v21H703V863l64-10 16-11-16-10V670H897l44 48 54-48V648H767V449H874l33 27 59-48-27-16-9-4-20-59-33-73-38-68-42-61-14-17 9-10 40-35 43-30 46-25 85-35-62-51-55 27zM336 210h2l-8-46-7-25H474l44 49 54-49V118H317L302 82 281 46 256 15 228-12 195-34 159-52 120-65 78-72l-3 9 38 17 33 20L175-5l25 23 21 26 17 28 14 31 5 15H36v21H263l7 36 4 41V462l64-10 16-11-16-10V213l-2-3zM613 428l22-59 26-59 29-56 31-49 29-39 7 10 36 59 32 65 27 71 18 57H613zM508 283l43-38V224H363v21H475l33 38zm-306 0 43-38V224H56v21H168l34 38zM508 389l43-38V330H363v21H475l33 38zm-306 0 43-38V330H56v21H168l34 38zm74 469 60-26 13-15-25-7-10-16-20-30-8-10-7-9H433l32 26 59-48-27-21V454l-64-32v54H174V438l-64-32V777l64-32h92l1 3v13l2 13 2 23 1 12 1 10 1 20v4h-2l4 15zM433 602H174V497H433V602zm0 121H174V623H433V723z"/><glyph glyph-name="undefined" unicode="𣍏" horiz-adv-x="1024" vert-adv-y="918" d="M794-66 668-60 555-47 454-28 366-2 290 32 228 74l-3 2-30-49-31-37-36-29L88-59 45-71l-2 9L79-41l31 25 28 29 23 36 19 41 8 23-9 10-34 55-18 61 9 2 29-52 34-41 9 42 9 61 4 59H157L93 277V697l64-33h65V793H44v22H366l44 48 54-48V793H286V664h70l32 27 59-48-26-22V277l-65-32v65H281l-7-67-13-64-17-58-4-7 11-9 59-32 72-27 84-20 97-15L672 3 794 2 930 6l60 4-58-74-138-2zM651 438l-19-48-20-45-19-36H819l54 53 64-53V287H755V106h99l54 54 65-54V85H482v21H690V287H581l-17-27-27-40-29-36-31-35-34-31-36-29-39-26-6 8 60 67 28 35 25 36 24 37 22 39 20 41 18 42 16 44 8 26H457v21H660V578H513v22H660V715H457v22H610h-4l-16 19-1 11-1 9-2 10-2 10-4 9-5 9-5 10-6 10-8 9-10 8 5 8 12-5 12-4 13-6 11-6 11-8 10-10 10-10 8-11 8-12 6-13-3-25-16-12H743l4 6 19 45 13 28 15 39 5 13 3 6 54-36 9-18-24-1-34-39-35-34-12-9h95l44 48 53-48V715H724V6e2h69l54 54 64-54V578H724V459H870l54 54 64-54V438H651zM283 331h73V487H286V390l-3-59zM222 643H157V509h65V643zm134 0H286V509h70V643zM222 487H157V331h64l1 59v97z"/><glyph glyph-name="undefined" unicode="𣑃" horiz-adv-x="1024" vert-adv-y="918" d="M929-22 881-1 790 48 747 75l-40 29-39 30-36 32-34 34-31 36-23 31V-39L480-71V231l-43-47-40-36-41-33-45-32-47-28-50-26L160 5 104-15 46-31l-4 9L97 4 197 60l45 29 43 31 39 33 37 35 34 36 30 37 7 10H71v22H480V423l64-11 16-10-16-10V293H835l53 54 65-54V271H558l99-75 38-26 40-25 83-45 90-39 83-31-62-52zM440 849l65-32H725l33 26 59-48-27-21V442v-4l2-2v-2l1-1 2-2 4-2 5-1 7-1H925l27 91h11l-11-91 16-11 11-16-11-16-16-11H798l-13 2-12 3-12 6-11 8-8 11-7 11-5 13-3 13-2 14V795H505V597l-4-37-8-34-13-32-18-30-22-25-26-22-29-19-34-15-36-10-41-8-2 10 36 16 31 19 26 18 23 20 18 21 14 22 10 24 7 25 3 28V849zM213 366l-24-7-21 14-5 23 3 14v12l-1 11-4 11-8 12-11 12-16 12-20 10-24 11-28 9 1 9 59-6 25-6 17-6L3e2 635l77 64 7-7L230 504l-14-19-10-15-3-4 9-11 9-21 5-23V386l-13-20zM618 607l-3 8-4 9-4 10-7 10-16 20-21 22-13 9 4 8 16-6 15-5 15-5 14-7 25-15 11-9 10-9 10-10 8-12 1-24-17-18-25-1-18 17-1 8zM174 632l-6 6-8 6-10 7-28 14-55 23-22 5 1 10 24-2H92l20-1 19-1 18-2 16-3 15-3 14-4 13-5 11-6 12-22-8-23-21-11-24 7-3 5zm82 125-6 6-9 7-11 7-12 7-30 14-36 15-20 6 2 10 21-2h21l19-1 19-1 16-2 16-3 15-3 14-4 12-4 13-6 11-21-5-25-21-11-25 6-4 5z"/><glyph glyph-name="undefined" unicode="𣑧" horiz-adv-x="1024" vert-adv-y="918" d="M930-29 881-9 790 38 748 63 708 90l-39 29-37 31-33 33-32 34-23 30V-42L480-74V212l-44-45-39-34-41-32-45-29-47-27-51-25L160-2 104-20 45-36l-2 9L97-2l52 27 48 27 46 28 42 30 40 30 36 33 34 35 31 35 5 8H71v21H480V395l64-11 16-10-16-10V272H835l53 54 65-54V251H559l60-45 76-50 40-23 40-22 43-21 89-36 85-30-62-53zM55 450l79 10 104 16V676H71v22H238V866l64-11 16-10-16-10V698h59l54 54 65-54V676H302V486l82 13 49 7 51 7 2-9-95-33-89-26-158-41-46-11-9-19-13 14-21 62zm844-16-18-19-10-7-11-7-11-6-12-5-13-4-12-3-13-1-13-1v32L679 430v16H794l7 1 7 1 7 3 6 2 6 3 6 4 6 4 11 11 3 6 5 13 6 20 4 26 5 31 3 38 3 42 2 48 1 53 1 47H758l-7-47-11-53-15-49-18-45-22-42-25-37-29-34-32-29-35-24-39-19-5 8 31 28 28 28 25 32 22 33 19 36 15 39 14 42 9 46 7 49 3 38H507v22H883l32 27 59-49-27-16V751l-3-104-4-44-3-39-5-34-6-30-6-26-9-21-12-19zM521 570l-22 12-6 24 11 21 10 5 8 7 9 7 16 20 8 12 8 14 7 16 7 17 5 19 9-1V723l1-20-2-19-2-17-3-18-6-16-6-15-8-15-9-14-12-12-23-7z"/><glyph glyph-name="undefined" unicode="𣖃" horiz-adv-x="1024" vert-adv-y="918" d="M932-53 837-21 793-3 709 37 670 58 633 81l-34 25-33 26-24 25V-48L477-81V126l-11-9-37-26-38-24-42-23-45-21L257 4 207-12 154-27 99-40 40-49l-2 9L145 0l50 20 46 22 83 46 37 24 34 26 23 19H66v21H477v89l65-11 16-11-16-10V178H834l54 54 64-54V157H566l86-42 78-33 84-30 89-25L995 3 932-53zM711 275v16h82l4 1 4 2 1 1h1l1 1 2 5 1 5 1 7V510H652V290l-65-32V510H437V290l-65-32V510H216V260l-64-32V563l64-32H413l5 7 53 73H44v21H882l44 49 54-49V611H558l-28-19-72-46-25-15H808l32 27 59-48-27-22V313l-1-14-2-14-4-12-7-13-9-11-11-8-12-7-13-4-13-3H786v32l-75 16zM227 708l-65-32V848l65-11 16-11-16-9V730H477V893l65-11 16-11-16-9V730H787V848l64-11 16-11-16-9V708l-64-32v32H227z"/><glyph glyph-name="undefined" unicode="𣘻" horiz-adv-x="1024" vert-adv-y="918" d="M528-28v16h93l4 1 4 1 1 1 1 1 1 1 2 5 1 5 1 7V215H402v22H636V354H521v22H696l54 54 65-54V354H7e2V237H815l54 53 64-53V215H7e2V10L699-4l-2-14-4-13-7-11-9-12-11-8-12-7-13-4-13-3H614v32L528-28zM326 350l-6 13-13 25-8 12-9 12-20 23-18 18V-40L188-72V417l-23-62-20-46-21-45-24-43-25-41-28-39-9 5L92 278l30 92 13 47 12 49 11 48 9 51 5 35H43v21H188V863l64-10 16-11-16-10V621h14l54 54 64-54V6e2H252V472l18-6 16-7 31-17 14-10 14-11 13-11 12-13 11-14 4-24-15-20-24-4-20 15zM514 174l54-34 11-17-22-2-15-24-33-41-17-19L452-2 430-19 406-36 381-52l-7 7 68 89 15 21 36 62 17 40h1l3 7zM873-1l-9 18-10 18-22 34-28 35-32 35-19 16 6 9 45-23 21-13 20-13 36-32 16-17 15-18 13-19 13-19 1-25-16-18-25-1-18 16-7 17zm22 354-32 22-30 25-29 27-28 29-27 31-25 34-24 35-21 39-1 2-32-48-29-39-32-37-33-35-35-32-37-29-38-25-41-23-42-19-5 9 70 56 33 29 32 32 29 33 28 35 27 38 25 39 24 42 24 49 55-35 9-17-20-2-1-1 36-41 57-58 29-26 29-24 29-21 30-19 30-17 60-29-61-49-33 20zM733 871l65-10 16-11-16-10V752h55l54 54 65-54V731H798V638l-65-32V731H602V638l-64-32V731H364v21H538V871l64-10 16-11-16-10V752H733V871z"/></font>
</defs>
</svg>
