<svg xmlns="http://www.w3.org/2000/svg"><defs><font name="Jigmo Regular" horiz-adv-x="1024" vert-adv-y="1024"><font-face font-family="Jigmo" font-weight="400" font-stretch="normal" units-per-em="1024" ascent="995" descent="169"/><glyph unicode="&#13494;" horiz-adv-x="1024" vert-adv-y="918" d="M486 599l60-26 13-14-22-7-20-43-28-52-10-17-12-17-3-6H745l32 27 59-49-27-21V-25L745-58V-4H279V-41L215-74V449l64-32H450l3 11 8 40 8 38 10 52 4 27h-1l4 14zM745 199H279V18H745V199zm0 196H279V221H745V395zM310 753l58-29 12-15-20-4-10-24-22-41-25-40-28-38-31-37-34-35-38-33-40-31-44-29-47-27-5 8 78 70 35 35 31 35 29 36 26 37 22 37 20 39 17 39 12 34 4 13zM885 421l-43 30-39 31-35 35-30 38-25 41-21 43-17 45-11 48-5 45H372v22H637l26 22 59-48-27-17-14-7 23-53 22-40 24-36 28-33 30-31 33-28 37-25 40-22 76-35-62-50-47 25zM663 783z"/><glyph unicode="&#13495;" horiz-adv-x="1024" vert-adv-y="918" d="M394 169l41-50 3-19-20 6-75-53-68-41-72-37-38-17-40-16L83-72l-4 9L219 28l63 46 58 46 49 44 5 5zM838-52 801-8 780 13 732 54 706 73l-91 56-33 19 3 9 38-9 36-11 35-14 63-31 29-18 28-19 26-21 25-22 22-22 7-24-11-22-23-7-22 11zM53 186v22H177V810l65-32H782l32 27 59-49-27-21V208h27l44 48 54-48V186H53zM782 756H242V208H782V756zM682 310l-10 19-13 20-15 21-38 42-49 44-56 45-16-30-27-43-31-40-34-36-38-34-41-30-44-26-6 8 37 34 35 35 31 36 28 38 24 40 21 41 19 43 15 46 12 47 8 45 2 16 62-22 14-13-19-8-8-32-16-52-20-48-3-5 33-14 34-17 30-18 28-18 26-20 23-20 21-21 19-22 16-22 13-23V291l-17-18H707l-18 17-7 20z"/><glyph unicode="&#13496;" horiz-adv-x="1024" vert-adv-y="918" d="M865 9 816 45 770 88l-42 50-38 58-35 64-32 71-28 79-24 85-19 89H515l-73-66-29-22 37-25 42-38 36-42 30-46 22-50 16-54 9-56 2-59-4-63L592-1l-5-2-2-10-6-13-7-12-8-10-11-10-10-7-13-5-13-4-13-2-14-1v32L383-29v16H490l7 1 6 1 5 1 3 1 3 3 2 2 2 2 18 76 8 55 2 53-2 31-54-46-46-35-48-34-50-30-51-29-53-26-54-24-57-21L73-49l-4 9L175 15 275 74l47 32 45 33 44 35 42 37 40 38 37 38-13 38-18 37-59-46-76-52-39-23-81-42-41-19-43-17-44-14-4 10 115 71 74 50 69 53 67 57 28 27-30 38-33 33-65-46-78-47-42-22-44-21-46-19-5 8L276 452l67 54 60 55 22 23H232v21H641l54 54 64-54V584H563l30-82 32-81 34-74L788 482l27 31 5 6 44-48 4-18-20 5-60-48-64-43-22-14-36-20 29-52 37-58 39-50 41-43 42-35 45-27 80-35-61-52L865 9zM301 821l53-37 9-17-21-1-30-41-25-29-55-56-31-28-34-27-36-26-38-25-41-24-6 8 98 94 29 30 50 58 42 59 18 29 15 28 3 5zM897 552l-29 19-28 21-26 24-26 25-24 28-23 30-21 32-20 35-2 2-11-6v31l-3 6H378v21H660l27 23 59-48-27-17 52-54 25-24 53-42 26-18 27-15 27-13 60-26-61-51-31 17zM684 806v-2l3 1-3 1z"/><glyph unicode="&#13497;" horiz-adv-x="1024" vert-adv-y="918" d="M216 94l45-47 5-19-21 5L206 2 164-24 143-35 120-46 97-55 48-71l-4 9L121-3l35 30 16 16 29 32 10 12v1l5 6zm473 0 46-47 4-19-21 5L679 2 637-24 616-35 593-46l-23-9-49-16-4 9L594-3l35 30 16 16 29 32 10 12v1l5 6zM907-37l-9 14-9 12L878 2 866 13 839 36 824 47 807 58l-19 9 4 9 41-7 20-6 19-7 18-8 17-10 17-11 15-12L954 2l13-15 5-25-13-20-24-5-21 13-7 13zM434-37l-9 14-9 12L405 2 393 13 366 36 351 47 334 58l-19 9 3 9 42-7 20-6 19-7 18-8 17-10 17-11 15-12L481 2l13-15 5-25-13-20-25-5-20 13-7 13zM58 573l54-11 13-10-13-9V138H395l54 53 64-53V116H112V78L58 52V573zm473 0 54-11 14-10-14-9V138H868l54 53 64-53V116H585V78L531 52V573zm356 1 59-49-27-21V206l-65-32v32H679l-54-26V574l54-27H854l33 27zm-473 0 59-49-27-21V206l-65-32v32H206l-54-26V574l54-27H381l33 27zM854 317H679V228H854v89zm-473 0H206V228H381v89zM854 421H679V339H854v82zm-473 0H206V339H381v82zM854 525H679V443H854v82zm-473 0H206V443H381v82zm270 96-13 1-13 2-12 3-12 6-11 8-9 10-7 12-4 12-4 14-1 13V863l65-10 16-11-16-10V756l91 32 53 19 49 21 42 20 4-10 44-40 1-17-21 9-51-16-53-14-29-6-29-6-31-4-33-5-34-2-3-1V691v-4l1-2 1-2 1-2 2-1 4-2 5-2 7-1H912l27 92h11l-11-92 16-11 11-16-11-16-16-11H651zM439 675l27 92h11l-11-92 16-11 11-16-11-16-16-11H178l-13 1-13 2-13 3-11 6-11 8-9 10-7 12-5 12-3 14-1 13V863l65-10 16-11-16-10V756l91 32 53 19 49 21 42 20 4-10 43-40 1-17-20 9-51-16-53-14-29-6-29-6-31-4-33-5-34-2-3-1V691v-4l1-2 1-2 1-2 2-1 4-2 5-2 7-1H439z"/><glyph unicode="&#20847;" horiz-adv-x="1024" vert-adv-y="918" d="M749 127v16h86l6 1 5 1 5 1 2 2 1 5 2 5v7V503H512V-40L447-72V503H82v22H597L768 869l55-36 9-17-20-1-62-98-92-133-46-59H856l32 27 59-49-26-21V165l-1-14-3-13-4-13-7-13-9-10-10-9-13-7-13-4-13-2-13-2v33l-86 16zM353 626l-8 22-9 22-26 48-34 51-65 87 7 7 31-23 29-23 49-49 39-48 17-24 14-23 12-24 11-24-3-25-19-15-24 3-16 18-5 20z"/><glyph unicode="&#20848;" horiz-adv-x="1024" vert-adv-y="918" d="M910 78l64-54V3H50V24H856l54 54zM813 385l65-53V310H146v22H759l54 53zM709 854l54-36 9-16-20-1-18-27-33-46-36-45-40-45-23-23-9-8H820l54 54 64-54V585H96v22H575l84 149 26 47 21 46 3 5zM347 670l-5 15-7 16-19 33-36 56-14 21-16 20 7 7 41-31 37-31 16-15 28-31 23-32 9-16V657l-17-18H370l-18 17-5 14z"/><glyph unicode="&#20850;" horiz-adv-x="1024" vert-adv-y="918" d="M876-41 829-13 786 19 747 55 714 95l-27 43-23 46-17 49-11 51-4 50H318v22H610l26 21 59-48-27-16-15-8 5-15 19-46 22-43 25-39 29-35 33-32 36-28 40-26 44-22 85-33-62-52-53 25zM343 277l57-31 11-16-20-3-14-28-26-45-29-40-31-38-35-33-38-30-40-26-43-22L88-53 40-66l-3 9L80-34l41 24 37 27 35 28 31 31 28 33 27 36 23 39 20 42 16 39 5 12zm293 63v-1 1zM50 439v22H480V622H152v22H480V802H103v21H802l54 54 65-54V802H544V644H754l54 53 64-53V622H544V461H856l54 53 64-53V439H50z"/><glyph unicode="&#20852;" horiz-adv-x="1024" vert-adv-y="918" d="M356 231l51-40 7-18-21 1-11-15-28-31-29-29-32-29-35-28-37-26L181-9 139-33 94-55 46-76l-4 8L161 20l68 57 30 30 27 30 25 29 22 30 17 26 6 9zM874-46 831 11 785 66l-49 50-104 96 5 8 33-15 32-17 61-41 57-46 54-52L925-7l6-24-11-21-25-7-21 13zM843 829l57-30 12-16-20-3-93-216-77-159-54-101H867l54 54 64-54V283H50v21H655L825 777l13 39 5 13zM219 476l-8 40-8 37-10 36-11 34-12 31-14 30-31 55-16 26 7 7 25-20 24-23 21-27 20-29 18-32 16-35 14-37 13-39 12-42 9-44-6-24-21-13-23 6-13 21-6 42zm275 60-7 37-8 34-9 34-12 32-13 31-15 30-34 57-18 28 7 7 27-22 25-24 23-27 20-29 19-32 17-33 14-35 13-37 11-39 9-40-6-24-21-13-24 6-13 21-5 38z"/><glyph unicode="&#20857;" horiz-adv-x="1024" vert-adv-y="918" d="M922-17 921 1l-3 18-3 20-1 7-56-22L707-23 592-53l-16-4-8-19-14 14L531-1l49 9 25 3L802 280 915 446l5 8 51-41 7-18-20 1-83-105-69-83-76-86-83-87-21-20L735 33 851 53l40 5 20 2-5 21-7 23-16 50-9 26 8 4 33-44 14-22 23-44 9-21 8-21 7-20 6-21 4-19-8-24-22-11-23 8-11 22v16zM438-17 437 1l-2 18-3 20-2 7-54-22L227-23 114-53 98-57 90-76 76-62 53-1l48 9 25 3L350 324l87 130 50-41 7-17-19 1-82-106-69-83L210 79 147 15 369 53l39 5 19 2-5 22-22 72-9 26 9 4 32-44 26-44 10-22 10-21 8-21 7-21 5-20 4-19-8-24-22-11-23 8-11 22v16zM676 241l-10 20-11 19-27 38-16 20-57 59-22 21 5 8 28-13 26-14 23-15 78 130 25 46 20 40 8 18 2 4H270l52-34 9-17-21-1-28-39-32-43-39-45-46-48-19-18 14-10 21-18 19-18 18-19 16-20 15-21 13-20 1-25-16-18-25-2-18 17-8 19-10 19-23 38-31 39-36 39-41 41 5 8 28-13 26-14 22-14 89 153 23 42 19 42H39v22H578l98 136 41 65 12 20 3 4 51-40 7-18-20 1-55-63-41-41-44-40-31-24H867l54 53 64-53V622H752l51-34 10-17-22-1-44-60-57-67-46-48-19-18 35-28 38-37 31-40 13-21 1-25-15-18-25-2-19 17-8 18zM325 697l-6 13-8 14-10 15-24 32-46 54-19 20 6 7 46-27 39-27 34-27 28-28 12-14 10-15 2-24-15-19-24-2-20 15-5 13z"/><glyph unicode="&#20858;" horiz-adv-x="1024" vert-adv-y="918" d="M80 268l65-33H373l33 27 59-48-27-22V-12L373-45V20H145V-45L80-77V268zM920-4l32 135h11L952-4l20-13 13-19-13-19-20-13H614 6e2l-13 3-13 4-13 7-10 9-9 11-6 11-5 13-2 14-1 14V303l65-11 16-11-16-10V141l153 41 72 22 70 23 35 13 3-8 50-43 1-16-21 10-13-5-74-18-75-16-38-6-39-6-38-5-40-3-39-1h-7V11l1-5 1-3 1-3 1-1 2-1 3-1h5l7-1H920zM373 214H145V41H373V214zM733 347l-9-9-9-9-11-8-11-6-12-5-12-4-13-3-13-2H630v32L523 349v16H630l8 1 14 2 6 2 6 3 5 3 10 8 5 5 5 7 5 8 5 10 4 14 4 16 4 18 3 21 1 23 1 26v5 43H467l-6-39-17-44-24-40-33-36-40-30-46-26-53-21-60-18-66-12-72-8-1 10 69 18 62 20 55 22 46 25 40 27 31 29 23 31 17 32 9 35 2 25H211v22H716l33 26 59-48-27-16v-4-30l-1-28-2-26-4-24-3-22-6-21-6-19-8-16-9-16-9-11zM312 796l53-37 8-18H351l-28-32-25-24-28-21-31-20-33-20-37-18-40-17-43-15-45-13-4 9 79 45 68 44 29 22 26 22 22 22 19 22 16 22 11 18 5 9zM892 578l-43 18-40 20-35 21-31 23-26 25-23 27-17 28-9 22-4-2v16l-4 21H372v22H638l26 21 59-48-27-16-5-3 12-16 21-20 23-19 26-18 29-16 33-15 37-14 40-13 44-10 45-13-63-56-46 15zM663 803v-1l1 1h-1z"/><glyph unicode="&#20861;" horiz-adv-x="1024" vert-adv-y="918" d="M224 240l64-32H735l32 27 59-48-26-22V-19L735-52V2H288V-35L224-68V240zm511-53H288V24H735V187zM910 353l54-49V283H60v21H866l44 49zM247 384l-65-32V685l65-32H562L687 820l22 32 7 13 4 4 48-42 7-18-22 2-61-62-70-63-40-33H766l32 27 59-48-27-22V384l-64-32v32H247zM474 510H247V405H474V510zm292 0H539V405H766V510zM474 632H247V531H474V632zm292 0H539V531H766V632zM363 714l-7 14-9 14-9 14-12 14-13 14-33 28-19 14-20 14 3 9 48-16 22-9 20-10 19-11 18-13 16-14 15-15 13-16 11-17 1-25-17-18-24-1-19 16-4 14z"/><glyph unicode="&#20862;" horiz-adv-x="1024" vert-adv-y="918" d="M817-53 797-39 776-25 728 2 701 16 575 69l2 9 38-3 35-6 33-7 32-8 31-10 28-10 28-11 25-12L851-2l22-15 13-21-7-24-21-12-24 6-17 15zM389 96l10-17 33-33 1-18-19 8-22-10-96-39-69-23-36-11-39-9-39-9-41-7-2 9L245 18l91 47 53 31zM66 107v21H345V237H136v22H345V361l65-10 16-11-16-10V259H614V361l65-10 16-11-16-10V259h91l54 53 64-53V237H679V128H840l54 54 64-54V107H66zM614 237H410V128H614V237zM892 603l-43 16-14-12V353l-65-32v54H254V337l-65-32V638l-21-9-39-15-43-13-45-12-4 9 80 42 68 41 29 20 25 20 23 21 19 20 16 21 10 15 6 9 51-40 7-18-22 1-27-29-25-20-28-20-31-18-5-3 21-10H770l6 5-32 22-27 23-22 25-17 27-8 18-6-3v18l-4 20H372v21H638l26 22 59-49-27-16-3-1 10-12 20-18 23-17 26-16 29-15 34-13 36-13 40-11 91-21-63-58-47 15zM480 502H254V396H480V502zm290 0H544V396H770V502zM480 628H254V523H480V628zm290 0H544V523H770V628zM663 811v-1h1l-1 1z"/><glyph unicode="&#20863;" horiz-adv-x="1024" vert-adv-y="918" d="M843-57 831-42 802-12 786 3 771 15 728 7 660-4l-68-9L458-28l-65-7L263-47l-63-5-41-3-11-17-11 16L123 8h11l62 1 97 3 66 70 44 50H60v22H866l44 48 54-48V132H488L443 92 388 48 347 20l-13-7 121 4 134 5 68 3 69 2 29 1-48 35-47 32 4 9 56-17 25-10 48-22 22-13 20-12L873 2l17-15 8-24-10-22-23-8-22 10zM786 296l54-49V226H184v21H742l44 49zM90 325v16h75 7l5 1 4 2 3 2 1 5 1 5 1 6v76l-87-22-12-3-8-19-14 14-22 61 112 17 31 4v86H51v21H187v83l64-11 16-10-16-10V597h21l54 54 65-54V576H251V499l39 5 33 3 33 3 33 2 2-9-31-13-31-11-32-10-46-13V362l-1-13-2-14-4-12-7-13-9-11-11-9-12-6-13-4-13-3-14-1v33L90 325zm769-36H846l-13 1-12 4-12 5-10 7-9 11-8 11-4 12-4 13-1 14V562H636l-5-42-13-42-3-5 31-12 22-10 20-12 18-12 10-22-9-23-22-11-24 9-9 10-14 12-36 23-11 6-18-24-32-30-38-25-44-22-49-18-56-14-60-9-2 9 57 20 51 21 44 22 37 24 30 26 24 28 9 14-125 50 2 10 40-4 38-6 35-7 27-7 3 9 7 32 1 32H396v22H572v94l64-11 16-11-16-9V584H773l33 27 59-49-27-21V367l-1-7v-5l1-4v-2l2-4 2-3 4-2 6-1 7-1h69l24 70h11l-11-70 14-10 10-15-10-14-14-10H859zM733 882l46-47 4-18-21 4-33-26-37-27-42-27-42-23H887l44 48 54-48V696H39v22H580L694 834l26 31 12 15 1 2zM327 746l-6 9-17 21-38 37-34 28-19 14 5 8 22-9 41-16 19-8 32-17 15-9 25-18 10-10 6-23-11-22-25-6-21 13-4 8z"/><glyph unicode="&#20865;" horiz-adv-x="1024" vert-adv-y="918" d="M358 861l59-29 12-15-20-5-57-122-33-63h30l32 27 59-49-26-21V283l-65-32v53H273V170h50l54 54 64-54V148H273V-40L208-72V148H39v22H208V304H132V267L67 234V659l65-32H307l9 49 21 95 10 42 7 34 1 5 3 9zM971 288H750l34-72 20-36 20-34 6-9 4 5 19 41 14 27 20 41 7 13 2 4 51-40 8-18-23 1-40-40-35-29-13-8-7-7 33-43 24-26 27-25 28-23 46-33-59-45-31 27-29 29-26 30-24 34-22 35-19 37-17 39-14 41-10 43-7 41H674V59l27 7 27 5 26 4 27 3 3-9-24-13L617-13 567-40l-3-20-17 9L510 4l61 23 38 13V288H541l-6-39-15-62-18-57-22-52-26-46L424-7 390-40 353-65l-6 8 28 32 26 35 22 40 20 44 16 50 13 54 9 60 7 66 4 71V847l64-32H896l33 27 59-49-27-21V616l-65-32v54H556V482h81v96l65-10 16-11-16-10V482h86v96l64-10 16-11-16-10V482h28l34 37 43-37V460H852V310h21l44 48 54-48V288zM637 460H556l-3-68-8-74-1-8h93V460zm151 0H702V310h86V460zm-580-5H132V326h76V455zm141 0H273V326h76V455zM208 605H132V476h76V605zm141 0H273V476h76V605zM96 680l-1 17-4 33-3 15-4 15-3 15-9 28-5 14-7 13 8 6 11-11 12-10 11-11 10-13 10-14 9-15 8-16 7-18 7-17 7-19-6-24-20-14-24 6-14 20zM896 793H556V659H896V793zM213 702l-2 19-4 36-7 33-4 16-12 43-7 13 7 6 11-11 12-10 11-12 11-14 9-15 10-16 15-36 7-20 6-21-5-24-21-13-24 5-13 21z"/><glyph unicode="&#40889;" horiz-adv-x="1024" vert-adv-y="918" d="M880 206l-45 36-42 39-39 41-36 43-31 46-22 38H382l-11-17-54-67-58-61-65-54-71-48-77-41-4 8 69 50 64 53 59 58 52 61 41 58H50v22H340l33 57 35 75 3 8H125v21H419l19 51 23 86 17 85 3 15 62-22 14-13-19-7-17-74-29-89-13-32H781l54 54 64-54V611H613l23-42 27-46 29-44 6-8H856l54 54 64-54V449H714l43-52 37-37 38-35 42-33 44-31 70-42-59-47-49 34zM601 611H470l-12-29-41-78-21-33H653l-18 38-20 52-14 50zM759 849l50-40 7-19-21 2-15-18-51-51-37-34-20-17-44-32-7 7L722 791l24 36 8 14 5 8zM303 676l-7 19-16 35-19 33-21 30-24 29-14 13 5 8 36-17 18-10 17-12 31-28 28-34 13-18 12-20 1-24-17-19-24-1-19 16z"/><glyph unicode="&#63953;" horiz-adv-x="1024" vert-adv-y="918" d="M359 474l58-29 12-15-20-5-14-33-24-50-27-50-30-48-33-48-35-45-38-45-42-43-44-40L74-16 67-9l78 92 35 46 34 46 30 47 28 47 24 49 23 48 20 50 15 45 5 13zM873 15 852 62l-45 92-50 88-55 86-88 125 7 7 38-35 37-37 34-39 33-40 62-84 56-89 26-46 25-48 1-24L916-1H892L873 15zM55 573v22H480V826l64-11 16-11-16-9V595H851l53 53 65-53V573H55z"/><glyph unicode="&#64117;" horiz-adv-x="1024" vert-adv-y="918" d="M819-61 799-49 777-37 727-14 638 19 568 44l3 9 37-2 36-4 35-5 32-6 31-7 29-8 27-9 26-9L848-7l23-11 14-20-4-24-20-14-24 3-18 12zM381 73l5-11 42-38 1-18-21 9L378 3 314-17 246-36l-36-9-37-8-38-7-41-7-41-4-2 9L232 7l64 26 58 27 22 11 5 2zM46 74V95H306v84H118v22H306v82l65-10 16-11-16-10V201h29l33 37 43-37V179H371V95H637v84H531v22H637v82l64-10 16-11-16-10V201h91l44 48 53-48V179H701V95H863l44 49 54-49V74H46zM238 292V276l-64-32V554l64-33H769l32 27 59-48-27-22V282l-64-33v43H238zM472 396H238V314H472v82zm297 0H536V314H769v82zM472 5e2H238V418H472v82zm297 0H536V418H769v82zM78 581 53 642l104 18 134 23 34 5 36 5 6 1v64H87v22H367v87l64-11 16-11-16-10V6e2l-64-32V673l-68-25-65-21-96-29-39-11-7-19-14 13zm843 61 26 91h11l-11-91 17-11 10-16-10-16-17-11H668l-14 1-12 1-13 4-12 6-10 8-10 10-7 12-4 12-3 13-1 14V867l64-11 17-11-17-10V744l148 52 52 20 47 20 4-9 47-41 1-17-22 9-7-3-26-7-26-7-56-13-60-12-32-5-33-4-33-3-4-1V669v-7-5l1-3 1-5 1-1 2-2 4-1 5-2 8-1H921z"/><glyph unicode="&#131164;" horiz-adv-x="1024" vert-adv-y="918" d="M63-59 37 1 91 13l88 17 5 1V595H50v21H3e2l8 43 9 50 11 48 13 70 3 23 2 9 61-24 13-15-20-6-16-48-28-69-22-47-13-23-6-11h50l53 54 65-54V595H349V63l51 9 45 6 45 5 3-9-43-16L321 16 84-53 77-72 63-59zM917-18l-10-8-21-14-12-6-11-5-12-3-12-3-13-2-12-2H801v32L694-13V3H801l9 1 16 2 14 4 15 7 13 8 7 6 1 1 3 6 4 9 4 13 3 16 3 19 2 22 2 26 1 28v20H702l-4-11-20-47-24-42-28-38-31-34L559-9 521-33 479-52 434-66l-4 10 40 22L505-9l32 27 28 30 25 33 21 35 18 39 12 36H479v22H647l7 31 8 44h-1l3 16 63-21 13-13-18-7-8-33-5-17H898l32 27 59-49-26-16v-5l-2-30-4-53-4-22-4-21-5-18-7-16-8-15-12-13zM290 595H243V43l47 9V595zM416 488l61-24 13-14-19-6-32-104-43-122-26-60-10 3 4 33 15 95 18 95 17 94 2 10zM106 235l-2 30-2 29-3 28-7 54L72 481l9 3 15-22 13-24 12-25 10-26 9-27 8-29 13-58 6-32 4-31-8-23-22-11-23 8-11 21-1 30zM517 659l65-32H894l32 27 59-49-27-21V304l-64-32V380H765V326l-64-32v86H582V294l-65-33V659zM701 498H582V401H701v97zm193 0H765V401H894v97zM701 605H582V519H701v86zm193 0H765V519H894v86zM704 654l-4 7-12 17-18 19-37 32-15 10 4 8 17-6 34-10 15-5 27-12 12-6 11-6 16-13 84 89 4 5H535v21H863l13 14 3-2 18 15 60-48-27-16-42-18-50-31-35-19-36-18-7-4 4-14-12-22-24-6-21 12-3 7zM170 686l-2 20-4 39-3 18-8 36-8 35-7 17 9 5 24-29 11-16 19-35 8-19 15-40 6-21 5-22-6-24-22-12-23 7-13 21-1 20z"/><glyph unicode="&#132352;" horiz-adv-x="1024" vert-adv-y="918" d="M868 26 821 79l-42 59-37 65-32 72-26 77-10 38H355l-29-79-31-71-35-65-38-58-40-52-44-46L91-18 41-49l-5 8L78-3l39 43 37 47 34 52 32 58 29 64 26 70 20 59H66v22H301l20 75 21 97 60-23 14-13-19-7-17-69-19-60H669l-6 23-17 90-10 96-5 97H318v22H609l27 22 59-49-27-16-21-10 11-63 19-93 23-86 11-33H840l54 54 64-54V390H718l9-24 30-72 33-65 38-58 42-51 44-45 66-50-59-45-53 46z"/><glyph unicode="&#132353;" horiz-adv-x="1024" vert-adv-y="918" d="M344 324l58-28 12-16-20-4-14-36-26-51-29-48-31-44-34-39-38-36L182-9 139-36 94-58 45-74l-3 9L84-39l40 28 36 30 34 33 31 36 29 38 26 43 23 46 20 48 21 61zM871-40 823-6 781 31 743 73l-32 45-28 50-21 53-17 56-10 61-4 58H320v22H609l26 21 59-48-27-16-17-9 7-24 18-55 22-52 26-46 29-42 33-38 36-34 40-30 43-26 80-37-61-50-52 28zM344 722l58-28 12-16-20-4-14-36-26-51-29-48-31-44-34-40-38-35-40-31-43-27-45-22-49-16-3 9 42 26 40 28 36 30 34 32 31 36 29 39 26 43 23 45 20 49 21 61zM871 358l-48 33-42 38-38 42-32 45-28 50-21 53-17 56-10 60-4 59H320v22H609l26 21 59-48-27-16-17-9 7-24 18-56 22-51 26-46 29-42 33-38 36-34 40-30 43-26 80-37-61-50-52 28zM634 402v-1 1zm0 398v-1 1z"/><glyph unicode="&#132354;" horiz-adv-x="1024" vert-adv-y="918" d="M523 710l64-14 16-11-17-10-6-94-10-106-13-99-18-90-20-81-24-73-28-65-32-55-36-46-40-36-7 7 30 41 28 48 25 56 21 63 19 71 15 80 13 88 10 96 6 105 3 113 1 12zM265 863l64-10 16-11-16-10V-34L265-67V863zM890 6 859 66l-27 65-23 73-21 80-16 86-13 94-9 101-6 108V783H539v21H722l27 22 59-48-27-16-23-12 8-75 15-107 16-98 19-91 21-83 24-76 26-67 29-59 31-52L982-4 925-46 890 6zM82 718l64-11 17-10-17-10V197L82 165V718z"/><glyph unicode="&#132355;" horiz-adv-x="1024" vert-adv-y="918" d="M645-39 623-51l-23-8-12-3-11-3-13-2-12-1H539v32L432-20V-4H539l18 1 16 4 8 2 8 2 7 4 23 12 17 14 17 19 15 22 14 27 12 32 10 36 10 40 7 45 4 49 3 42H393l-24-71-72-10L403 581H90v22H831l54 53 65-53V581H471L4e2 369H729l32 27 59-49-27-16-2-1-1-29-5-53-8-49-10-44-12-41-15-37-16-33-20-29-23-26-25-21-11-7zM748 854l52-39 7-18-20 1-56-71-58-65-43-41-23-18-7 6 14 26 76 121 53 89h-1l6 9zM356 661l-8 19-10 19-12 18-13 18-16 19-36 35-43 36 5 8 28-10 26-11 24-14 23-15 21-16 19-18 17-19 16-21 14-21 12-24-1-24-18-17-24 1-17 17-7 20z"/><glyph unicode="&#132356;" horiz-adv-x="1024" vert-adv-y="918" d="M302-51l-14 2-13 2-13 4-12 7-11 9-9 10-7 13-4 13-2 13-1 13V541H39v21H867l54 54 64-54V541H281V29l1-5 2-5 2-2 5-1 4-1 7-1H910L929 1l13-19-13-20-19-13H302zM770 870l51-39 7-18-20 1-60-76-61-69-45-45-25-21-7 6 49 81L770 870zM356 668l-9 20-10 19-12 20-30 39-37 37-45 38 5 8 28-10 28-13 25-15 23-16 22-18 20-18 17-21 16-21 14-23 12-24-1-25-18-17-24 2-17 17-7 21z"/><glyph unicode="&#132357;" horiz-adv-x="1024" vert-adv-y="918" d="M802 505H238V356H802V505zm86 9-14 7 20-16-27-21V302l-65-32v64H238V296l-4-45-6-43-11-42-13-40-17-37-20-36-23-33-27-30L86-37 52-61l-6 7L72-23 94 9l20 31 17 33 14 34 12 35 8 36 6 38 2 39V547l-42-26-44-20-46-20-5 9 79 56 35 28 32 28 29 28 25 29 23 29 19 29 17 30 16 36 56-33 10-16-21-2-8-15-22-32-25-31-28-29-31-28-34-27-24-16 54-27H802l26 21-22 14-35 27-31 30-26 32-21 34-17 37-11 37-1-1v6l-5 31H372v22H637l27 22 59-49-27-16-11-5 19-33 21-29 24-27 26-25 30-23 33-20 37-20 40-16 82-29-61-53-48 20zM664 801h-1 1z"/><glyph unicode="&#132358;" horiz-adv-x="1024" vert-adv-y="918" d="M311 783l56-33 10-16-21-2-8-15-22-32-25-31-28-29-31-28-34-27-37-25-40-24-44-20-46-20-5 9 79 56 35 28 32 28 29 28 25 29 23 29 19 29 17 30 16 36zM888 514l-43 23-8 5 46-38-27-21V291l-64-32v65H281V263l-1-1-4-47-9-45-11-42-17-38-19-36-24-31L170-5 139-30 105-49 68-65l-5 9L94-32 121-8l23 27 20 28 16 30 13 32 11 35 7 37 4 40 1 43V377l65-32H792V504H195v22H792l30 25-16 11-35 27-31 30-26 32-21 34-17 37-11 37-1-1v6l-5 31H372v22H637l27 22 59-49-27-16-11-5 19-33 21-29 24-27 26-25 30-23 33-20 37-20 40-16 82-29-61-53-48 20zM664 801h-1 1z"/><glyph unicode="&#132360;" horiz-adv-x="1024" vert-adv-y="918" d="M480 666l64-11 16-10-16-10V492H794l32 27 60-49-27-21V169l-65-32v65H544V-41L480-73V202H230V137l-65-32V524l65-32H480V666zm0-196H230V223H480V470zm314 0H544V223H794V470zM306 777l5 12 56-32 11-16-21-3-8-17-22-34-26-33-28-31-31-29-34-29-37-27-40-25-43-23-47-21-5 8 79 60 35 29 31 30 29 30 26 30 22 31 20 31 16 32 12 27zM888 506l-43 24-39 26-35 30-31 31-26 35-22 36-17 38-11 40v1 3l-5 34H372v21H637l27 22 59-48-27-16-12-6 20-37 21-32 24-29 27-26 30-25 33-23 37-20 40-18 81-30-62-53-47 22zM664 810l-1-1 1 1z"/><glyph unicode="&#132362;" horiz-adv-x="1024" vert-adv-y="918" d="M867-47 820-24 778 2 740 31 708 63 680 97l-22 37-17 40-11 42-4 39H321v22H605l26 21 59-48-27-16-13-7 20-40 21-32 24-30 28-27 31-24 35-22 40-19 43-17 88-28-62-55-51 20zM344 217l55-35 10-16-21-2-11-19-26-36-28-32-31-29-34-26L221-1 182-21 141-38 96-51 49-60l-3 9L89-32l40 21 36 21 34 23 31 25 28 26 24 29 23 31 19 32 20 41zm286 44h1-1zM59 355v21H228V791l63-32 73 16 195 38 134 30 43 11 1-7 57-47 2-16-24 11-23-5-89-14-141-17-49-5-50-5-52-3-53-2H293V644H799l53 54 65-54V623H721V376H851l54 54 64-54V355H59zM657 623H293V376H657V623z"/><glyph unicode="&#132363;" horiz-adv-x="1024" vert-adv-y="918" d="M310 779l57-31 12-16-21-4-9-18-22-36-25-35-28-33-31-32-34-30-34-27 59-29H779l32 26 60-48-27-21V-24L779-56V-2H234V-40L170-72V514l-39-26-43-25-47-22-5 8 78 62 35 31 32 32 29 31 26 33 22 32 20 34 16 34 16 41zM779 466H234V19H779V466zM645 104l-28 30-30 30-32 29-5 4-33-30-47-36-52-30-54-27-58-22-62-17-2 10 56 26 53 28 49 32 45 33 41 37 26 27-67 48-84 54-45 26 4 10 50-18 47-20 46-22 43-23 35-21 17 21 30 45 27 49 23 52 3 6 56-32 11-16-21-3-19-36-32-51-36-48-15-16 37-28 35-29 32-30 31-31 8-24-11-22-24-7-22 11-26 31zM887 482l-43 25-39 28-35 31-31 33-25 36-22 39-17 40-11 42v3 2l-5 35H372v22H637l27 22 59-49-27-16-13-6 21-42 21-34 25-31 26-29 31-26 33-24 36-21 40-20 80-31-62-52-47 23zM663 802z"/><glyph unicode="&#132364;" horiz-adv-x="1024" vert-adv-y="918" d="M887 172l-43 28-38 30-27-21V-24L715-56V-2H314V-40L250-72V274l-36-35-37-32-40-30-44-28-47-25-5 8 40 34 37 33 35 34 32 34 28 35 26 35 22 36 20 37 16 37 17 46 58-30 11-16-20-4-10-21-22-40-24-38-28-37-23-26 58-29H715l32 27 52-42-29 27-30 37-26 39-21 41-16 44-11 46-5 44H375v22H639l26 21 59-48-27-16-13-7 22-50 22-38 24-35 27-31 30-29 33-27 37-24 39-21 77-34-62-51-46 25zM715 231H314V19H715V231zM321 757l56-33 10-17-22-2-6-10-20-28-23-27-26-25-29-24-31-22-34-21-36-20-39-17-43-16-4 8 103 74 29 25 25 24 23 24 21 25 17 25 15 26 11 23 3 8zM849 519l-40 20-35 22-32 23-28 27-25 28-19 30-16 31-8 27-1-1v6l-1 1-4 30H379v22H618l27 22 59-48-27-17-9-4 14-23 20-24 21-23 24-20 27-20 30-17 34-15 36-15 80-26-62-54-43 18zm-185 2v-1h1l-1 1zM643 770v-1h2l-2 1z"/><glyph unicode="&#132365;" horiz-adv-x="1024" vert-adv-y="918" d="M271 15V-50L207-82V473l64-33H482V602l65-11 16-10-16-10V440H758l32 27 59-48-27-22V-18L758-50V15H271zM482 223H271V36H482V223zm276 0H547V36H758V223zM482 419H271V244H482V419zm276 0H547V244H758V419zM314 746l58-30 11-16-20-4-10-21-22-40-24-38-28-37-31-35-34-34-37-31-40-30-44-28-47-25-5 8 40 34 37 33 35 34 32 34 28 34 26 36 22 36 20 36 16 37 17 47zM887 425l-43 28-39 30-35 34-30 36-26 39-21 42-16 43-11 47-5 44H375v21H639l26 22 59-49-27-16-13-7 22-50 22-37 24-35 27-32 30-29 33-26 37-24 39-22 77-33-62-51-46 25zM664 773h1-1z"/><glyph unicode="&#132366;" horiz-adv-x="1024" vert-adv-y="918" d="M480 492l64-10 16-11-16-10V326H673l54 54 65-54V304H544V165H856l54 53 64-53V143H544V-45L480-77V143H50v22H480V304H232v22H480V492zM875 349l-53 27-49 30-46 33-45 35-40 38-39 42-35 44-31 47-9 16-8-13-39-50-42-47-45-44-50-40-53-38-57-34-61-31-64-26-68-23-4 9 63 32 60 34 55 35 52 37 48 40 44 42 40 43 37 46 32 49 29 50 3 6 53-37 10-17-21-1-4-6 55-59 38-37 41-35 42-33 44-29 45-27 49-24 50-22 90-33-62-53-55 24zM345 855l50-41 7-18-20 2-35-39-55-51-30-24-32-22-69-42-38-17-39-16-5 8 98 74 56 50 49 52 42 53 21 31zM858 631l-35 44-41 43-46 41-109 81 4 9 35-12 33-13 31-15 58-34 52-38 47-43 21-22 7-24-12-22-23-6-22 11z"/><glyph unicode="&#132367;" horiz-adv-x="1024" vert-adv-y="918" d="M878-53 830-28 787 1 749 33 715 68l-28 39-22 41-18 44-11 46-4 44H318v22H610l26 21 59-48-27-16-14-7 23-50 22-37 24-34 29-30 33-28 36-25 39-22L905 9l88-31-63-53-52 22zM343 235l56-32 10-17-20-2-13-24-26-39-29-36-32-33-35-29L217-4 177-26 134-45 88-61 40-72 37-62 81-41l40 22L159 4l34 26 32 28 28 29 26 32 23 34 21 37 20 45zM915 460l54-48V390H55v22H871l44 48zM657 883l65-11 16-11-16-9V751H835l53 54 65-54V730H722V499l-65-32v43H356V494l-64-33V730H77v21H292V883l64-11 16-11-16-9V751H657V883zm0-153H356V531H657V730z"/><glyph unicode="&#132368;" horiz-adv-x="1024" vert-adv-y="918" d="M316 233l57-31 11-17-21-3-9-18-20-36-24-33-26-32-29-31L224 4 190-22 154-46 115-68 73-87l-5 9 69 55 59 57 26 29 23 31 21 31 18 33 16 33 16 42zM866-49 831-28 8e2-4 771 22 744 51 720 82l-21 34-19 37-15 39-1 3-5-3v25l-3 12H399v22H632l27 22 59-49-27-16-7-4 24-36 23-30 24-28 25-25 27-22 28-19 29-18 31-15 69-26-62-52-36 18zM657 235v-1l2 1h-2zM55 337v21H281V777H98v22H808l53 54 65-54V777H743V358H871l44 48 54-48V337H55zM679 487H345V358H679V487zm0 151H345V509H679V638zm0 139H345V659H679V777z"/><glyph unicode="&#132369;" horiz-adv-x="1024" vert-adv-y="918" d="M730-32l-9-9-10-8-22-14-11-5-13-4-13-2-13-2H627v32L519-28v16H635l7 1 7 2 12 4 6 3 5 4 11 10 5 6 4 6 4 9 5 11 3 14 4 16 2 18 1 21 2 23-1-1v43H465l-7-34-16-42-26-36-32-33L344 6 298-17 246-36 187-52 122-62 50-69 49-59l68 17 62 18L234-3l46 23 40 25 30 26 24 27 16 29 9 31 2 20H209v22H712l32 27 59-49-25-15v-1l-1-28-1-25-2-24-3-21-4-20-4-19-7-17-7-16-10-14-9-10zM888 175l-43 16-39 18-35 19-31 21-26 23-22 25-18 26-8 18-6-3v20l-3 17H370v22H634l26 22 60-49-27-16-3-1 10-11 20-18 22-17 26-16 29-15 33-13 36-12 41-11 90-22-63-57-46 14zM311 378l51-40 8-18-22 1-27-28-26-20-27-20-31-19-34-17-36-15-39-15-42-13-46-12-3 9 79 42 35 20 62 40 25 20 22 20 20 21 15 20 13 20 3 4zm348 4v-2l1 1-1 1zm64 120-9-9-20-16-11-6-12-5-12-5-12-4-12-2-13-2H609v32L502 502v16H617l15 2 7 2 7 3 12 6 13 10 6 5 1 2 2 5 3 7 2 8 2 12 2 12 1 16 1 4-1 43H464l-6-28-16-33-25-30-30-24-37-21-43-17-49-14-54-12-61-7-66-4-2 10 65 14 58 15 50 17 44 18 36 20 29 21 21 21 14 22 8 22 1 10H225v22H690l33 27 59-49-26-15V624l-3-38-2-17-3-15-4-15-5-13-7-13-9-11zM857 647l-40 13-36 14-32 15-29 17-25 18-21 20-17 22-4 8-8-4v23l-4 14H374v22H618l27 22 59-48-25-15 20-14 21-13 24-11 27-10 30-10 34-10 38-8 41-7 49-10-63-60-43 12zM318 817l48-43 7-19-22 3-23-19-24-15-26-15-28-13-31-13-34-12-36-11-40-9-42-7-2 9 107 51 30 16 50 32 21 16 18 15 13 16 12 15 2 3zm325-3v-2l2 1-2 1z"/><glyph unicode="&#132370;" horiz-adv-x="1024" vert-adv-y="918" d="M465 515l5-10 44-40 1-17-21 9-30-10-80-23-29-7-29-6-30-5-30-4-31-3V229H355l54 54 64-54V208H235V23H355l54 53 64-53V1H235V-37L170-69V445l56-28 116 44 1e2 43 23 11zm357-66 59-48-27-21V-20L789-53V1H551V23H789V208H551v21H789V401H551v22H789l33 26zM310 768l57-31 12-16-21-3-9-19-21-36-25-35-28-33-30-32-34-30-37-29-39-27-43-24-47-23-4 8 76 63 35 31 31 31 28 32 48 64 19 33 16 34 12 30 4 12zM878 471l-42 26-39 28-34 31-30 33-26 36-21 38-16 40-11 43-5 39H371v22H632l26 22 59-48-27-17-12-6 21-42 21-34 24-31 26-28 30-27 32-23 36-22 40-19 78-32-61-52-47 23zM657 792v-1h1l-1 1z"/><glyph unicode="&#132371;" horiz-adv-x="1024" vert-adv-y="918" d="M331 142l42-49 3-19-20 6-33-25-56-36L237 2 172-31 137-46 1e2-61 61-74l-4 9L213 41l26 20 49 40 43 41zM836-41 820-22 785 16 743 51 721 68l-76 52 4 9 31-8 30-10 28-13 28-13 26-15 24-16 23-17 22-18 40-41 6-24-12-21-24-6-21 12-14 20zm70 290 64-53V174H59v22H852l54 53zM226 335V297l-65-32V823l65-33H803l32 27 59-48-27-22V313l-64-32v54H226zM375 552H226V356H375V552zm214 0H440V356H589V552zm214 0H653V356H803V552zM375 769H226V573H375V769zm214 0H440V573H589V769zm214 0H653V573H803V769z"/><glyph unicode="&#132372;" horiz-adv-x="1024" vert-adv-y="918" d="M346 151l48-43 6-19-21 3-29-26-26-21-28-20-64-37-74-36-41-16L73-78l-4 8L179 1l61 43 50 43 20 21 18 20 15 20 3 3zM910-75l-23 8-60 55-50 39L622 135l4 9 40-14 72-31 64-33 57-34L908-2l22-17 10-22-8-24-22-10zM78 191v22H480V360l64-11 16-10-16-10V213H828l53 54 65-54V191H78zM214 378V313l-64-32V760l64-33H480V866l64-11 16-10-16-10V727H809l33 27 59-48-27-22V346l-65-33v65H214zM480 549H214V399H480V549zm329 0H544V399H809V549zM480 706H214V571H480V706zm329 0H544V571H809V706z"/><glyph unicode="&#132373;" horiz-adv-x="1024" vert-adv-y="918" d="M683-16V0H790l7 1h5l3 1 2 1 1 1 1 1V7l1 3 1 5 1 7V154H655V2L590-31V154H438V2L374-31V154H217V-24L152-56V381l-31-5-71-6-1 10 68 17 62 18 55 20 47 21 39 25 31 25 23 27 16 28 9 29 2 19H209v21H712l32 27 59-48-25-16v-1l-1-25-1-25-2-23-3-21-4-19-4-18-6-17-8-15-10-13-18-19-10-8-11-7-11-6-12-5-12-4-13-3-13-1-12-1v33L519 411v16H635l7 1 14 3 5 3 6 3 6 4 6 4 10 11 8 14 4 11 3 13 4 15 2 17 2 20v20 43H465l-7-35-16-40-26-35-32-31-40-26-46-22-53-18-58-15-33-5 63-32H812l32 27 59-49-27-21V22L875 8 873-6l-4-13-7-12-9-11-10-9-13-6-13-4-13-3-14-1v33L683-16zM374 328H217V175H374V328zm216 0H438V175H590V328zm222 0H655V175H812V328zm76 276-43 15-38 18-35 18-31 21-27 22-22 23-18 26-7 16-6-3v19l-4 19H370v21H635l26 22 59-49-27-16-2-1 9-9 19-17 23-16 26-15 29-14 33-13 36-11 41-11 90-21-63-58-46 14zM311 802l50-41 8-18-22 1-27-26-25-20-28-19-30-17-34-17-36-15-39-14-43-13-45-11-3 10 115 60 32 19 29 19 25 20 23 20 19 19 16 19 15 24zm348 2v-1h2l-2 1z"/><glyph unicode="&#132374;" horiz-adv-x="1024" vert-adv-y="918" d="M331 154l43-48 4-19-20 5-34-26-56-40-62-37-69-35L61-76l-4 8L212 45l52 43 45 43 20 22 2 1zM850-61 820-18 784 22 743 60 720 78l-76 55 5 9 31-9 30-12 29-13 27-15 26-16 25-17 45-40L883-1l19-22 5-24-13-21-23-6-21 13zm56 328 64-54V192H59v21H852l54 54zM257 854l64-11 16-10-16-10V495h90V766l64-11 17-10-17-10V441l-64-32v64H321V286l-64-32V473H161V409L96 376V766l65-11 16-10-16-10V495h96V854zm457 0 64-11 16-10-16-10V495h90V766l64-11 17-10-17-10V441l-64-32v64H778V286l-64-32V473H613V409l-64-33V766l64-11 16-10-16-10V495H714V854z"/><glyph unicode="&#132375;" horiz-adv-x="1024" vert-adv-y="918" d="M351-24V-8H458l7 1 5 1 4 2 3 2 1 5 1 5 1 6V240l-32-39-38-42-41-39-43-35-45-32-47-28L184-1 132-22 78-39l-4 9L123-3l47 28 45 30 42 32 40 33 38 37 35 39 33 41 31 44 11 18H254V234l-65-32V541l65-32H480V616H71v22H480V863l64-10 16-11-16-10V638H856l54 53 64-53V616H544V509H770l32 26 59-48-26-21V267l-65-33v65H554l28-32 32-34 33-31 35-28 36-27 39-23 40-21 42-19 45-16 89-27-63-56L860 4 813 26 768 51 727 77l-39 31-36 32-32 35-30 38-26 41-20 40V14L543 1l-2-14-4-13-7-12-9-11-11-9-12-7-13-4-13-2-14-1v32L351-24zM544 298v1-1zM480 487H254V320H480V487zm290 0H544V320H770V487zm69 173-23 9-49 51-37 32-62 46-46 32 4 9 28-7 27-9 26-10 24-11 47-26 44-29 40-32 9-23-9-23-23-9zM380 847l42-49 2-19-19 6-56-36-57-30-31-14-32-13-34-12-36-11-38-9-4 9 97 55 81 52 46 35 38 36h1z"/><glyph unicode="&#132377;" horiz-adv-x="1024" vert-adv-y="918" d="M389 177l42-49 4-19-20 6-44-34-67-44L233-5 157-43 116-60 74-75l-4 8L211 30l64 47 60 49 49 46v1l5 4zM840-53 802-6 758 37 706 78l-60 40-66 38 4 10 38-10 37-12 35-14 33-17 31-17 30-19 28-21 27-21 24-23 23-24 7-24-11-22-24-7-22 12zM39 186v22H168V734l64-32H415l6 10 7 18 41 86 20 48 5 10 55-35 9-18-22-1-22-31-26-31-26-29-14-14-15-13H792l32 27 59-48-27-22V208h31l44 48 54-48V186H39zM792 681H232V208H792V681zM346 619l64-32H613l32 26 59-48-26-21V291l-65-32v43H410V286l-64-32V619zM613 438H410V324H613V438zm0 127H410V459H613V565z"/><glyph unicode="&#132378;" horiz-adv-x="1024" vert-adv-y="918" d="M803-52 785-38 765-24 718 4 693 18 573 72l2 10 36-5 34-5 32-8 31-9 29-9 54-22 25-13L839-3l21-14 12-22-7-23-22-12-23 7-17 15zM393 98l11-19 30-31 1-18-20 8-47-23-62-26-67-24-72-21-38-10-39-7-3 9L285 34l57 32 51 32zM60 123v21H340V283H168v21H340V436l64-11 17-11-17-9V304H620V436l64-11 16-11-16-9V304h54l54 54 64-54V283H684V144H845l54 54 65-54V123H60zM620 283H404V144H620V283zM959 703H456l-49-71-68-86-32-34 362 32 70 4h2l-33 33-70 62 5 9 30-13 29-14 27-15 51-36 24-21 1-1 5 1 1-6 37-37 20-23 19-25 5-24-14-20-24-5-21 14-30 47-35 44-11 13-84-17-203-33-132-21-169-23-9-18-13 15-17 63 151 13 29 57 73 136H64v21H482V864l65-10 16-11-16-10V724H841l54 54 64-54V703z"/><glyph unicode="&#132379;" horiz-adv-x="1024" vert-adv-y="918" d="M851-65 837-49 804-18 766 12 722 41 645 85l3 10 31-6 30-7 28-9 27-10 25-11 24-13 23-13L878-4l19-16 9-23-10-23-23-8-22 9zM328 106l4 4 38-52 1-20-19 8-31-18L265 0 203-26 171-39 136-51 99-61 61-71l-4 9L186 10l80 50 46 34 16 12zm578 97 64-54V128H59v21H852l54 54zM845 788l65-11 16-10-16-10V234l-65-32v43H179V229l-65-32V788l65-11 16-10-16-10V267H845V788zM701 308l-59 13-54 18-48 20-33 18-19-10-49-21-52-18-54-12-57-8-59-4-1 9 56 14 54 17 50 18 47 21 41 22-35 32-24 33-18 35-8 34H304v21H635l7 9 2-2 23 20 60-48-27-16-22-9-20-24-38-37-41-33-17-11 44-14 50-12 55-9 117-12-63-65-64 11zM618 539H391l16-23 23-27 26-23 31-22 20-11 38 30 35 32 32 36 6 8zM284 850l65-32H664l32 27 60-48-27-22V640l-65-32v32H349l-65-32V850zm380-53H349V662H664V797z"/><glyph unicode="&#132380;" horiz-adv-x="1024" vert-adv-y="918" d="M385 185l43-48 3-20-20 6-44-35-65-47L231-1 194-22 155-40 115-58 73-74l-5 9L209 33l63 49 58 50 50 48 5 5zM831-50 794-2 749 42 698 85l-28 20-62 40-34 20 4 9 38-11 36-12 35-15 33-17 31-18 29-19 28-21 27-23 24-23 23-26 6-23-12-22-23-6-22 12zM60 219v21H480V861l64-11 16-10-16-10V240H845l54 54 65-54V219H60zM386 825l5-10 43-39 1-17-20 8-3-1-34-9-39-8-45-7-51-5-26-2V570H328l44 48 54-48V548H217V383H328l44 48 54-48V361H217V324l-64-33V781l58-30 26 11 48 17 58 24 16 8 15 7 8 5h-1l5 2zm453-50 59-48-27-22V340l-64-32v53H598v22H807V548H598v22H807V727H598v21H807l32 27z"/><glyph unicode="&#132381;" horiz-adv-x="1024" vert-adv-y="918" d="M317 185l55-34 10-17-21-1-8-13-22-30-24-28-27-27-29-24-33-23-34-22-38-20-40-18L62-87l-4 9 73 49L164-5l30 25 27 25 24 26 21 26 19 27 16 27 13 29 3 5zM887-56 851-38 818-17 787 5 759 30 734 57 712 86l-19 31-15 31-8-4v28l-3 9H378v21H644l26 22 59-48-27-16-3-2 19-23 24-24 24-22 26-21 28-18 29-17 31-15L913 5l74-24-62-54-38 17zM668 187v-1l2 1h-2zM926 347l54-48V277H50v22H882l44 48zM765 863l64-10 16-11-16-10V734h22l53 54 65-54V713H829V374l-64-32v32H254l-65-32V713H60v21H189V863l65-10 16-11-16-10V734H765V863zm0-150H254V396H765V713zM666 435l-22 44-14 24-15-16-24-23-25-20-27-19-27-16-6 8 59 72 37 51 3 4-74 1e2 6 7 23-13 21-15 21-17 20-17 7-7 24 43 15 31 15 32 3 6 55-34 10-17-21-2-28-45-37-53 27-33 30-44 3-25-16-19-24-3-19 16zm-237 0-22 44-14 24-14-16-25-23-25-20-26-19-28-16-5 8 59 72 37 51 2 4-74 1e2 7 7 22-13 22-15 20-17 20-17 7-7 24 43 16 31 14 32 4 6 54-34 10-17-20-2-28-45-38-53 28-33 30-44 2-25-15-19-24-3-20 16z"/><glyph unicode="&#132382;" horiz-adv-x="1024" vert-adv-y="918" d="M390 178l41-49 3-19-19 6-79-56-71-42-75-39-40-18-41-16L66-70l-5 8L173 10 273 80l61 48 55 50h1zM833-26 813-3 791 19 741 61l-58 39-98 58 3 9 39-9 38-12 35-14 66-33 59-39 27-21 26-23L901-8l8-23-12-22-23-7-22 11-19 23zM619 290l-65-32V493l65-11 16-11-16-9V311H732V563l64-11 17-11-17-9V311H909V493l64-11 16-11-16-9V290l-57-29 53-48V191H50v22H871l43 47-5-2v32H619zm-494 0-64-32V493l64-11 17-11-17-9V311H238V563l65-11 16-11-16-9V311H415V493l65-11 16-11-16-9V290l-65-32v32H125zM260 593l-65-32V791l65-11 16-11-16-9V614H485V859l65-11 16-11-16-10V614H774V791l65-11 16-11-16-9V593l-65-32v32H260z"/><glyph unicode="&#132383;" horiz-adv-x="1024" vert-adv-y="918" d="M832-63 753-51 680-36 612-18 550 4l-6 3-51-18-73-20-79-16-84-11-89-7-94-1-1 10 93 12 87 14 81 18L409 9l69 23 7 3-43 24-45 32-38 37-27 36H173v21H726l13 13 2-3 21 17 59-48-27-16-27-12-30-25-54-37-58-33-7-3 74-16 71-11 76-7 82-5 59-3-64-68-84 9zM704 164H349l25-19 42-28 45-25 50-21 33-11 56 29 52 33 46 37 6 5zM294 234l-65-32V470l-50-39-35-25-38-23-40-22-6 8 97 89 57 58 15 18v4h3l32 37 43 59 18 30 3 4 51-39 8-18-21 1-35-44-27-29-2-1H514l5 6 49 80 17 30 4 7 49-42 6-19-23 3-37-31-40-28-10-6H753l54 53 65-53V516H560V447H748l44 48 53-48V425H560V351H748l44 48 53-48V330H560V256H836l44 48 54-48V234H294zm201 96H294V256H495v74zm0 95H294V351H495v74zm0 91H294V447H495v69zM310 790l53-38 9-17H350l-6-9-22-24-25-23-27-22-30-21-33-19-36-19-39-16-43-16-45-13-3 9 112 67 60 44 25 22 22 23 19 22 16 22 15 28zM878 571l-42 18-39 19-34 22-30 23-26 25-22 27-17 29-8 22-4-2v16l-4 21H370v21H629l27 22 59-48-27-16-6-3 13-16 20-21 22-19 26-18 29-17 32-15 36-14 39-13 44-10 44-13-63-56-46 16zM654 797v-1h2l-2 1z"/><glyph unicode="&#132384;" horiz-adv-x="1024" vert-adv-y="918" d="M358 8 352-4l-7-12-8-10-10-9-11-8-12-6-13-4-13-2-14-1v32L178-8V9h86 7l6 1 4 1 4 2 5 4 2 3 2 4 2 6 3 7 2 12 5 45 2 31 1 35 2 42 2 97v57l1 50H236l-2-68-7-71-10-64-14-57-17-50-21-44-25-38-29-32L79-45 43-65l-6 8L65-29 89 1l21 32 18 37 15 41 12 47 9 54 6 61 2 68v65H96v22H314l32 27 59-49-27-16V355 298l-1-52-2-47-1-41-2-37-2-32-2-27-3-22-4-18-3-14zM916 56 980 2V-19H446V2H862l54 54zm-30 64-21 29-20 34-6 13-17-29-27-37-30-33-33-27-7 7 25 33 22 36 20 38 18 42 8 24-4 14-13 47-11 51-8 56-6 62-2 60H754V477 409 347l-2-55-3-48-5-42-5-36-7-31-8-25-6-12-7-11-8-11-10-9-10-8-12-7-12-5-13-3-13-2-13-1V74L512 90v16H627l6 1 5 2 5 1 4 3 4 3 7 8 3 5 4 6 5 17 5 25 5 32 4 40 3 47 2 53 1 61v67l-1 74v29h-2v43H652l-5-41-67-26 22 203H460v22H849l53 53 65-53V759H667L654 644h33l33 27 59-48-27-16 2-45H873l32 27 59-49-27-16-3-1-5-41-12-63-13-58-17-55-17-45 8-17 19-32 19-25 19-20 35-27-59-45-25 25zM477 541l59-29h52l29 27 57-49-27-19V194l-59-29v61H536V162l-59-30V541zm111-51H536V248h52V490zm284 50H785l28-115 15-54 14-40 9 42 9 57 8 60 4 50zM136 750l62-20 15-13-20-8-4-21-10-41-12-40-14-38-14-37-35-70-19-32-22-30-24-28-8 5L73 477l23 71 10 36 17 76 6 39 5 41 2 10zM386 430l-18 30-16 31-14 35-11 36-10 40-8 41-5 44-2 47 2 43H181v22H282l27 22 59-48-27-17-19-9 14-55 11-40 13-39 14-34 14-32 16-28 17-25 18-22 26-26-58-42-21 26zM309 783h-1 1z"/><glyph unicode="&#132385;" horiz-adv-x="1024" vert-adv-y="918" d="M855-8l-8-10-8-10-10-9-11-7-11-7-13-4-13-4-13-1-13-1v32L647-13V3H755l7 1 7 1 6 1 5 2 5 3 8 6 8 10 3 7 6 13 6 19 5 23 4 29 3 33 2 38 2 42v47 51 3l-1-1v43H699l-3-58-10-64-14-60-20-54-25-50-31-44L560 5 520-28 474-55 424-76l-3 9 43 29L502-6l33 35 28 38 23 43 19 46 15 50 9 55 6 60v53H527v22H831l32 27 59-49-26-15 1-29V277l-1-47-1-45-3-39-3-36-5-32-6-28-7-24-9-22-7-12zM178 163l56-32 10-17-21-3-32-48-35-43-40-39L94-37 71-54 45-70l-6 7L91 5l29 43 14 22 22 43 10 22 12 28zM401 23l-8 15-8 15-10 14-22 28-12 14-28 26-17 12 4 9 39-14 19-9 18-10 17-11 31-26 28-31 12-16 2-25L451-5 427-8 407 8l-6 15zM32 191v22h99V691H42v22h89V858l64-11 16-10-16-10V713H349V858l64-11 16-10-16-10V713h22l33 37 43-37V691H413V213h27l33 38 43-38V191H32zM349 358H195V213H349V358zm0 167H195V380H349V525zM601 735l61-23 14-13-19-7-6-21-13-39-14-38-16-36-19-34-21-32-22-30-24-28-27-25-28-22-7 7 39 58 18 30 17 31 15 32 12 33 12 34 11 36 8 38 5 33 1 4 3 12zM917 451l-24 30-22 32-19 34-17 35-14 38-11 39-8 41-6 43-1 40H636v21H774l26 22 59-48-27-16-16-8 16-45 15-38 16-34 17-32 19-30 21-28 22-26 23-23 37-31-58-44-27 28zM349 691H195V546H349V691zm451 98v-1 1z"/><glyph unicode="&#132386;" horiz-adv-x="1024" vert-adv-y="918" d="M509 184l19-22 29-27 32-25 35-23 39-21 6-3 20 12 43 30 39 34 32 36 6 9H509zm189 21H824l6 8 2-1 25 20 59-48-27-16-19-8-21-26-40-38-45-34-36-22 26-9 52-15L863 4 923-6l52-9-64-61-64 14-58 17-55 20L684-3 665 8 599-18 534-37 464-53 389-64l-80-6-1 9 78 17 72 19L524-4l61 24 33 16-19 14-35 30-30 33-24 36-15 35H434v21H633v91H431l5-4V270H279V215h2l19-1 34-3 15-3 15-3 14-4 14-4 12-5 12-5 13-21-5-24-21-13-24 5-7 7-7 7-19 15-24 15-43 23V-42L214-74V188l-39-47-22-22-24-22-27-20L74 58 44 41l-6 8 66 74 36 47 16 24 14 25 11 24 11 25 1 2H41v22H214V412l65-11 16-11-16-9V292h59l44 48 42-37v15H633v86l-4-1H616v32L508 451v16H616l8 1 14 2 7 2 6 3 6 3 6 4 6 4 5 5 6 6 3 5 4 7 4 10 3 12 3 15 3 16 1 19 1 16h-1v43H454l-7-33-17-38-25-35-33-29-39-25-46-21-52-18-59-14-66-9-71-6-1 9 69 17 62 17 54 20 47 21 39 23 32 25 23 25 15 27 9 27 2 17H199v22H701l32 27 60-49-26-15-1-25-1-23-1-22-3-20-4-19-5-17-6-16-8-15-9-13-9-9-10-9-10-8-11-7-11-6-12-5-5-2 37-6 16-11-16-9V318H865l44 48 54-48V296H698V205zM878 635l-43 15-39 17-35 17-31 20-26 22-23 22-17 25-7 15-7-3v19l-4 18H359v21H624l26 23 59-49-27-16-1-1 7-7 20-16 23-16 26-14 29-13 32-13 37-11 40-10 92-19-63-59-46 13zM3e2 827l50-41 7-18-21 2-27-25-25-20-28-18-31-16-33-16-36-14-39-14-43-12-45-10-3 10 80 39 67 38 29 18 26 19 23 19 19 19 15 18 15 22zm348 2v-2l2 1-2 1z"/><glyph unicode="&#132387;" horiz-adv-x="1024" vert-adv-y="918" d="M866-61 845-45 799-13 745 16 685 45 584 88l2 10 38-6 37-6 36-8 34-10 32-10 31-11 30-13L878 7 903-8l13-20-5-25-21-13-24 5zM378 115l25-35 14-17 1-19-20 8-37-20L299 5 266-8 230-20 193-32 153-42 111-52 67-60l-2 9L215 18l63 32 54 32 25 16 21 17zM50 116v21H320V297H82v22H320V451l65-11 16-10-16-10V319H644V451l65-11 16-10-16-10V319H829l53 54 65-54V297H709V137H861l54 54 64-54V116H50zM644 297H385V137H644V297zM529 881l64-33H770l32 27 59-48-26-22V546l1-5 1-3 1-2v-1l1-1 5-2 5-1h7 40l32 134h11L928 531l19-13 13-20-13-19-19-13H856l-14 1-13 2-13 5-13 7-10 8-9 11-6 12-5 13-2 14-1 13V827H593V735l20-5 20-8 20-9 18-10 16-11 16-12 14-14 12-15 11-16 2-25-17-18-24-1-19 16-4 12-6 13-8 13-9 12-11 13-12 13-30 26-9 6V699l-4-39-8-37-11-34-17-31-21-28-24-25-29-21-32-18-34-13-39-11-3 10 33 19 29 20 25 21 21 22 17 23 13 25 10 26 6 28 4 31V881zM80 473 57 534l132 22 41 7 16 3V796H79v21H364l54 54 64-54V796H310V576l46 8 43 6 88 11 2-10-83-29-165-48-121-31-19-5-7-18-14 13z"/><glyph unicode="&#132388;" horiz-adv-x="1024" vert-adv-y="918" d="M804-54 786-41 743-15 694 10 637 34 573 60l2 10 35-3 34-5 33-7 30-7 29-8 28-9 26-11L837-3l22-12 12-22-6-23-21-13-24 6-16 13zM394 88l8-15 35-35 1-18-20 8L367 6 337-5 272-27 203-47 129-64 90-70l-3 9L286 30l57 29 51 29zM60 105v21H340V248H168v22H340V388l64-11 17-11-17-10V270H620V388l64-11 16-11-16-10V270h54l54 54 64-54V248H684V126H845l54 54 65-54V105H60zM620 248H404V126H620V248zM227 580l65-33H732l33 27 59-48-27-22V397l-65-32v43H292V392l-65-32V580zm505-54H292V430H732v96zm145 60-48 19-47 21-45 23-44 26-42 28-41 29-38 32-37 35-11 12-21-21-42-36-45-34-47-31-49-29-53-27-54-23-57-22-59-18-62-15-3 9 113 51 53 26 51 29 47 29 45 32 43 32 39 35 37 36 35 39 2 2 46-46 2-10 87-55 85-45 44-20 45-18 45-17 47-14 92-25-63-56-50 17zM625 7e2l64-53V625H318v22H571l54 53z"/><glyph unicode="&#132389;" horiz-adv-x="1024" vert-adv-y="918" d="M96-74 78-58 77-34 93-15l15 6 14 8L135 9l13 12 11 14 11 17 9 18 8 22 8 24 5 26h10l1-28 1-27-3-25-5-24-7-23L187-6 174-26 159-44 141-60 121-73 96-74zM886-30l-5 17-8 16-9 17-25 36-15 19-37 40-21 21 6 8 51-29 44-31 36-35 15-17 13-19L943-6l9-20-3-25-19-16-24 3-16 19-4 15zM628-16 627-1l-4 14-5 15-6 17-9 16-22 34-14 18-16 18 6 8 40-27 19-14 16-15 15-15 13-16 11-18 9-18 7-19 6-19-7-24-22-12-24 7-11 22-1 13zM431-51l-23-7-22 12-7 24 3 13 2 14V19 33l-3 15-4 16-5 16-7 17-8 17-12 17 7 7 32-28 25-30 11-17 8-17 7-18 4-18 4-19V-29L431-51zM157 179v22H367V330H60v21H367V470H157v22H367V611H265v21H641l54 54 64-54V611H657V492H802l33 27 59-49-27-21V351h15l44 48 54-48V330H867V179l-65-32v32H157zM593 330H431V201H593V330zm209 0H657V201H802V330zM593 470H431V351H593V470zm209 0H657V351H802V470zM280 795l53-37 9-17-21-1-32-45-24-31-26-29-58-55-32-27-34-26-35-23-38-22-6 7 61 60 55 59 49 60 41 60 18 31 14 26 6 10zM593 611H431V492H593V611zm306-92-28 24-27 26-25 27-47 60-41 68-18 37-1 3-10-4v29l-3 8H372v21H676l26 22 59-48-26-16-4-2 51-62 50-53 26-24 26-22 27-21 27-18 50-30-60-47-29 22zM7e2 803v-1l2 1h-2z"/><glyph unicode="&#132390;" horiz-adv-x="1024" vert-adv-y="918" d="M633 182l51-39 8-18-21 1-25-32-40-46L561 5 513-34 487-52 460-69l-6 8L550 56l50 72 33 54zM393-28l-9-9-10-8-11-7-12-6-12-4-11-4-13-3-13-1H289v32L203-22V-6h94l7 1 14 3 13 6 6 4 5 4 6 6 5 6 4 5 5 12 5 19 5 25 4 30 4 36 2 40 2 45 1 51v45H268l-7-52-11-60-16-54-20-51-24-46-29-41L129-8 93-38 52-61l-5 8L79-22l29 34 24 36 22 40 18 44 14 48 11 51 7 56 3 45H73v21H208V487l65-11 16-10-16-10V412l-3-59H385l32 27 59-48-27-16V286l-1-52-2-46-2-43-4-37-4-33-6-29-7-25-9-21-12-19-9-9zM898-38 888-15 866 30 840 71l-30 39-51 56 5 8 24-11 23-13 22-15 21-17 20-18 19-19 17-21 17-22 30-49 1-24-17-19H917L898-38zM451 213v21h96V767l54-27 85 38 99 44 45 21 4-10 45-40 1-17-21 9-5-2-48-15-79-22-28-7-57-12-30-4V557H842l54 54 64-54V535H844V234h27l54 54 64-54V213H451zM780 535H612V234H780V535zM108 844l65-32H380l32 27 59-49-27-21V469l-64-32v54H173V453l-65-32V844zm272-54H173V512H380V790z"/><glyph unicode="&#132391;" horiz-adv-x="1024" vert-adv-y="918" d="M395 142l39-52 1-19-19 8-44-28-66-37-72-34-76-31-41-14L75-77l-4 9L249 37l62 41 57 42 26 22h1zM832-41 812-22 790-3 742 33 654 85l-68 34 3 9 39-7 37-10 35-11 32-13 32-14 30-15 28-17L873 4l23-21 9-23-10-22-22-9-23 10-18 20zM50 154v21H480V702H82v22H480V869l64-11 16-11-16-9V724H824l54 53 64-53V702H544V175H877l44 49 53-49V154H50zM371 662l2-7 54-45 1-16-23 11-18-5-40-6-43-6-68-6-25-2H192V451H308l44 48 54-48V430H192V301H308l44 48 54-48V280H192V263l-65-32V627l58-29 67 23 82 28 37 13zm476-41 59-48-27-21V269l-64-32v43H609v21H815V430H609v21H815V573H609v22H815l32 26z"/><glyph unicode="&#132392;" horiz-adv-x="1024" vert-adv-y="918" d="M929-33 905-6 862 51 842 81l-35 64-17 33-14 35-1 5V-45L710-77V283H639V-45L574-77V169l-10-18-25-39-27-36-29-33-31-30-32-26-35-22-37-19-5 8L401 9l26 29 25 31 23 34 21 36 20 37 19 41 16 42 8 24H451v21H574V428H421v21H574V562H461v22H574V686H431v21H743l7 13 43 90 14 30 8 23h-1l6 11 54-35 10-17-23-2-16-21-37-44-29-29-17-16-3-3h86l54 54 65-54V686H775V584h76l32 27 59-49-27-21V449h17l25 33 32-33V428H915V251l-64-33v65H775v-9l70-106 42-55 44-50 55-53-57-43zM296 772l64-11 17-11-17-9V482l-4-75-11-71-4-17 24-18 34-34 16-19 29-38 24-41 11-21-1-24-18-18-24 2-18 17-13 40-17 39-9 20-34 59-10 16-7-30-24-63-29-59-36-54-41-49L150-2 96-41 37-76l-5 8L84-25l46 44 41 47 35 50 29 53 23 56 17 59 13 62 3 36-56-28L96 295l-6-21-15 12-30 59 11 3 43 10V847l64-10 16-11-16-10V373l90 21 31 7 9 1 1 10 2 70V772zM710 428H639V304h71V428zm141 0H775V304h76V428zM710 562H639V449h71V562zm141 0H775V449h76V562zM710 686H639V584h71V686zM566 749l-5 12-5 13-6 12-7 12-17 22-20 22-12 10 4 8 15-6 16-5 15-6 14-8 14-9 13-10 12-12 11-13 21-28 1-25-16-18-25-1-18 16-5 14z"/><glyph unicode="&#132393;" horiz-adv-x="1024" vert-adv-y="918" d="M842-68 824-55 784-31 761-18 736-6 680 17 583 54l2 10 37-3 35-4 33-6 32-6 30-8 55-18L832 9 856-3l22-12 13-20-5-24-20-14-24 5zM399 83l7-13 39-37V16l-20 8L368 2 304-20 236-39l-36-9-38-8-39-7-41-6-2 10L287 27l86 42 26 14zM53 91v21H177V533l65-32H383V601l64-11 17-10-17-10V501H582V601l64-11 17-10-17-10V501H782l32 26 59-48-27-22V112h27l44 49 54-49V91H53zM383 224H242V112H383V224zm199 0H447V112H582V224zm2e2.0H646V112H782V224zM383 353H242V245H383V353zm199 0H447V245H582V353zm2e2.0H646V245H782V353zM383 479H242V375H383V479zm199 0H447V375H582V479zm2e2.0H646V375H782V479zM686 864l2 5 3 6 55-34 10-17-20-2-37-58-26-38-28-37-4-5h22 32 35l35 1 74-1h5l-21 26-41 46-16 15 5 9 40-21 19-10 34-23 30-24 13-12 13-13 11-14 4-24-14-20-24-4-21 14-5 13-15 25-52-11-36-7-102-15-32-4-31-4-37-4-11-18-11 15-15 64h11 59l17 1 15 40 49 124 6 16zm-425 0h-1l3 5 3 6 55-34 10-17-21-2-12-20-37-57-41-56-5-5h12 34 36l37 1 77-1 8-1-21 27-41 46-16 15 5 9 20-11 20-10 18-10 35-23 29-24 14-12 12-13 12-14 3-24-13-20-25-4-20 14-6 13-15 25-55-11-38-7-72-10-35-5-33-4-32-4-31-3-9-1-10-18-12 15-14 64h11 61l30 1 15 40 49 124 6 16z"/><glyph unicode="&#132394;" horiz-adv-x="1024" vert-adv-y="918" d="M717 605h-1l4 5v-1l2 3 48-43 6-18-23 3-56-47-30-24-17-12-7-5H824l54 53 64-53V444H553l89-52 77-38 41-17 87-32 46-14 91-25-63-56-49 17-47 19-14 7 41-34-27-22V-35L760-67v43H263V-40L199-73V252l-35-11-57-14-62-11-2 9 112 43 51 23 46 23 43 24 40 25 35 27 32 28 26 26H82v22H480V653l64-11 16-10-16-10V466h83l12 16 67 104 11 19zM480 99H263V-3H480V99zm280 0H544V-3H760V99zM480 219H263V121H480v98zm280 0H544V121H760v98zM544 430V290l-64-32V409l-41-35-37-28-41-25-44-23-47-21-46-17 39-20H760l27 23-50 24-41 23-75 50-34 27-31 30-12 13zM325 494l-2 11-8 22-12 23-7 11-17 23-11 11-12 10 5 8 14-7 16-5 15-7 14-8 12-9 13-10 11-11 20-24 9-14V494l-18-18-24 1-18 17zM311 789l55-35 9-17-21-2-7-10-22-28-25-27-28-25-31-24-34-22-37-22-40-20-43-17-46-16-4 9 79 50 67 49 29 25 25 25 23 25 19 25 16 26 16 31zM890 548l-43 20-39 22-35 24-31 26-27 28-21 31-17 32-10 28-3-2v14l-4 24H372v22H638l26 21 59-48-27-16-8-4 16-23 20-25 24-23 26-20 30-19 33-18 36-16 41-15 86-26-63-54-47 17zM663 801v-1 1z"/><glyph unicode="&#132395;" horiz-adv-x="1024" vert-adv-y="918" d="M611 874l62-21 14-13-18-7-17-74-14-47-8-26H873l53 54 65-54V664H747V455H864l44 48 54-48V433H747V224H874l44 48 54-48V202H747V-45L683-77V664H623l-16-45-38-93-22-46-24-46-26-45-9 3 48 146 28 95 22 93 9 46 8 46 8 56zM188 164l56-34 9-17-20-2-18-27-33-43L143 0 99-38 74-54 48-70l-6 7L96 5l32 44 26 43 22 43 9 23 3 6zM421 23l-8 15-9 14-10 15-24 28-13 13-29 27-18 12 5 9 41-14 19-9 18-9 17-12 17-12 16-14 15-14 14-16 12-17 3-24L472-5 448-8 428 7l-7 16zM35 191v22H139V691H45v22h94V858l64-11 17-10-17-10V713H366V858l65-11 16-10-16-10V713h28l33 37 43-37V691H431V213h11l44 48 54-48V191H35zM366 358H203V213H366V358zm0 167H203V380H366V525zm0 166H203V546H366V691z"/><glyph unicode="&#132396;" horiz-adv-x="1024" vert-adv-y="918" d="M418 80l5-11 43-39 1-18-20 9L377-4 304-26 227-46l-41-9-42-8-43-8-45-5-3 9L252 7 356 50l62 30zM855-48 833-37 809-26 782-15 723 5 689 16 575 46l2 10h41l40-2 38-4 36-5 33-6 32-6 58-16L881 7 906-3l15-20-3-24-19-15-25 2-19 12zM44 89v22H243V423l65-33H451l19 70H2e2v22H476l24 86 4 13 58-29 12-15-21-4-19-39-7-12H706l53 53 65-53V460H515l-23-36-25-34H716l33 27 59-48-27-22V111h86l54 54 64-54V89H44zm672 92H308V111H716v70zm0 91H308V202H716v70zm0 97H308V294H716v75zM883 490l-36 13-34 14-34 16-63 38-30 21-27 24-26 25-20 24H457l-43-37-46-33-52-31-56-27-61-26-67-21-72-19-3 10 68 28 62 29 57 30 51 31 47 33 39 33H85v22H403l14 14 30 37 24 37 7 15H168v21H753l54 54 64-54V790H551l-28-47-31-41-15-15H837l53 53 65-53V665H635l72-40 31-15 32-14 31-12 33-11 33-10 34-8 36-7 47-11-63-59-38 12z"/><glyph unicode="&#132397;" horiz-adv-x="1024" vert-adv-y="918" d="M845 197l54-36 9-17-21-1-14-22-29-37-33-33-35-29L738-4 696-27 652-45 605-60 556-70l-53-6-2 9 49 16 46 18 42 20L677 9l35 24 32 27 29 29 26 31 23 35 23 42zM145 618l63-17 15-12-17-9-8-73-11-86-13-81-13-74-15-68-17-61-18-56L92 33 71-9 47-43l-8 5L65 43 78 91l12 55 11 61 10 67 10 74 9 79 7 86 6 88 2 17zM353 47l-18 55-15 60-13 66-11 74-9 79-6 87-4 93-2 1e2 2 101H155v21H256l26 22 59-49-27-16-23-11 17-166 12-92 12-84 14-77 15-71 17-63 18-55 19-48 21-41-51-56L373 0 353 47zM775 295l51-40 7-18-21 1-11-15-27-30-29-28-30-27-32-25-33-22-35-20-36-18-39-15-39-12-4 9 68 43 31 23 31 24 27 24 27 26 26 27 23 29 22 29 20 31 3 4zm-75 91 53-38 8-18H740l-22-27-21-21-46-42-55-41-30-19-32-18-36-17-5 8 81 74 46 46 19 22 33 44 14 21 14 26zM636 863l2 5h1l3 6 54-35 10-17-22-2-11-16-24-33-26-30-26-27 67 4 79 6 81 4h2l-13 17-26 29-14 15-17 14 5 8 40-18 19-10 18-10 16-12 16-13 14-14 13-15 13-15 11-16 1-25-16-18-25-1-18 16-6 14-6 14-8 14-5 9-51-14-78-16-77-15-75-12-36-5-14-2-3-5 53-24 13-14-21-6-33-74-9-19-18-33 63 15 15 3-2 24-5 24-5 26-6 13 8 5 9-12 9-9 18-22 15-22 13-22 1-3 30 70 24 63 57-31 12-16-20-3-14-31 62-87-8 23 10 2 15 1 13 1 1 10 3 20 3 20 3 20 3 19 2 18 3 19 1 17 2 12h-1l3 15 61-23 14-13-21-7-19-51-24-55-10-19v-1l23 2 15 1 15 1 29 1h3l-7 31-13 46-7 15 8 6 10-14 12-12 21-25 18-26 15-27 12-27-4-24-19-15-25 4-15 20-2 25-1 11-28-17-13-7-42-18-15-6-6-2-5-13 33-41 27-29 27-27 27-23 25-20 44-29-59-46-27 23-27 25-26 29-25 32-25 34-25 38-46 83-22 47-5 14-20-41-29-50-29-47-32-46-33-41-35-39-37-35-38-32-41-28-6 8 33 35 32 37 30 38 30 41 27 42 27 45 13 24-13 3-14 21 1 10-39-25-48-28-26-13-6-22-16 12-30 58 11 3 16 3 32 7 5 32 9 40 4 20 4 20 10 54-9 13-17 63 11 1 36 2 54 3 40 83 22 53 5 14z"/><glyph unicode="&#132398;" horiz-adv-x="1024" vert-adv-y="918" d="M411 82l-23 45-18 28-20 27-11 13-1 1V-53L284-80V310H227V-52L167-81V175l-21-45-16-31-18-28L94 45 74 22 53 1 45 6 81 88l23 60 23 68 19 73 5 21H84v21h83v97H39v21H167v97H84v22h83v75H39v21H167v70l-18-8-23-9-23-7-23-7-3 9 73 57 53 47 35 33 14 15h-1l6 5 42-49 3-19-20 6-25-19-43-28-3-1 16-3 14-11L382 845l35 26 17-25 23-26 1-18-20 8-26-14-41-19-42-16-6-2 15-3 13-11-13-9V664h53l53 54 65-54V643H338V568h47l30 27 56-49-27-19V449h13l33 38 44-38V428H444V288l-59-29v51H338V212l10-6 16-7 16-8 15-10 14-12 14-12 27-27 24-32 3-24-15-20-24-3-20 15-7 16zM561 826l64-33H801l32 27 59-48-27-22V52l1-7V40l1-3 1-2 1-1 1-1h2l3-1 5-1 7-1h36l32 135h11L955 30l19-13L987-2 974-22 955-34H887l-14 1-14 2-13 4-11 7-12 9-8 10-7 13-4 13-3 13V52 772H625V428l-3-66-7-61-10-60-14-56-17-52-22-48-24-45L5e2-1 467-38 431-70l-7 7 27 38 24 40 22 41 18 45 15 47 13 50 9 53 6 55 3 60V826zM284 428H227V331h57v97zm101 0H338V331h47v97zm323-20-4 22-4 21-6 20-6 20-7 20-17 38-10 19-12 17 7 7 18-13 17-15 16-16 14-18 13-19 12-21 11-22 9-22 8-24 7-25-6-24-21-13-23 5-14 21-2 22zM284 546H227V449h57v97zm101 0H338V449h47v97zM284 643H227V568h57v75zm0 21v82l-40-11-4 9-13-8V664h57z"/><glyph unicode="&#132399;" horiz-adv-x="1024" vert-adv-y="918" d="M776 630l-1 1 3 4 3 3 49-41 7-18-23 2-35-30-30-22-33-19-16-8H840l54 53 64-53V480H655l44-30 8-18H684l-16-17-10-11-12-10-23-19-13-8-4-3H812l44 49 54-49V343H544V260H737l44 49 54-49V239H544V183l-4-27H829l54 54 64-54V134H537l-1-3 9-12 21-19 24-18 31-17 37-16 43-14 50-13 57-11L871 1l70-8 55-7-64-63-72 11-65 15-59 16-53 18L638 3 599 26 567 51 542 78l-15 29-7-17-27-39-36-33L413-9 360-31 3e2-47 232-59l-76-7-85-2v10l82 12 74 15 64 18L345 8l46 23 34 26 26 28 17 30 6 19H77v22H478l2 27v56H189v21H480v83H114v21H384l-10 8-2 8-7 16-5 9-5 9-21 30-9 11-10 8 5 8 12-7 14-4 25-11 21-13 20-15 17-16 3-24-11-17H584l3 4 15 26 13 25 23 50 2 7-1 1 2 3H66v22H388V650l65-10 16-11-16-10V502H571V650l65-10 16-11-16-10V502h42l12 11 12 15 23 28 21 27 18 26 12 21zM276 530l-2 7-4 8-5 9-16 19-22 20-14 11-15 9 3 10 18-7 33-10 15-6 14-5 25-14 10-8 10-10 9-10 1-25-16-18-25-1-18 16-1 5zm37 277 51-39 8-18-21 1-28-31-26-22-27-20-31-19-34-19-37-17-39-16-43-14-45-12-4 9 80 43 68 42 29 21 47 43 20 21 15 21 13 22 4 4zM892 596l-43 17-39 18-35 21-31 22-27 24-22 26-18 28-8 19-5-2v17l-4 20H372v22H638l26 21 59-48-27-16-4-2 11-14 20-19 23-18 26-17 30-16 33-14 37-13 40-12 89-22-63-57-46 15zM663 812v-1l1 1h-1z"/><glyph unicode="&#132400;" horiz-adv-x="1024" vert-adv-y="918" d="M842-68 824-55 784-31 761-18 736-6 680 17 583 54l2 10 37-3 35-4 33-6 32-6 30-8 55-18L832 9 856-3l22-12 13-20-5-24-20-14-24 5zM399 83l7-13 39-37V16l-20 8L368 2 304-20 236-39l-36-9-38-8-39-7-41-6-2 10L287 27l86 42 26 14zM53 91v21H177V533l65-32h87v88l65-11 16-10-16-10V501h86V601l64-11 16-10-16-10V501h86v88l65-11 16-10-16-10V501h87l32 26 59-48-27-22V112h27l44 49 54-49V91H53zM329 224H242V112h87V224zm151 0H394V112h86V224zm150 0H544V112h86V224zm152 0H695V112h87V224zM329 353H242V245h87V353zm151 0H394V245h86V353zm150 0H544V245h86V353zm152 0H695V245h87V353zM329 479H242V375h87V479zm151 0H394V375h86V479zm150 0H544V375h86V479zm152 0H695V375h87V479zM261 864h-1l3 5 3 6 55-34 10-17-21-2-12-20-37-57-41-56-5-5h12 34 36l37 1 77-1 8-1-21 27-41 46-16 15 5 9 20-11 20-10 18-10 35-23 29-24 14-12 12-13 12-14 3-24-13-20-25-4-20 14-6 13-15 25-55-11-38-7-72-10-35-5-33-4-32-4-31-3-9-1-10-18-12 15-14 64h11 61l30 1 15 40 49 124 6 16zm425 0 2 5 3 6 55-34 10-17-20-2-37-58-26-38-28-37-4-5h22 32 35l35 1 74-1h5l-21 26-41 46-16 15 5 9 40-21 19-10 34-23 30-24 13-12 13-13 11-14 4-24-14-20-24-4-21 14-5 13-15 25-52-11-36-7-102-15-32-4-31-4-37-4-11-18-11 15-15 64h11 59l17 1 15 40 49 124 6 16z"/><glyph unicode="&#132401;" horiz-adv-x="1024" vert-adv-y="918" d="M390 153l44-47 4-19-20 5-31-25-55-37-30-18-66-36-36-16-38-16-40-15-5 9L248 28l55 42 47 42 20 20 20 21zM801-20 780 2 758 22 736 41 714 58 667 88l-50 27-26 12 2 9 30-2 29-5 29-9 28-10 28-13 28-15 27-18 26-19 26-22L868-1l9-23-10-22-23-8-23 10-20 24zM55 154v21H230V299H171V261l-60-29V460l60-11 14-10-14-10V320h59V498l59-11 14-11-14-9V320h67V460l65-11 16-10-16-10V277l-65-32v54H289V175H485V535H259l-64-32V853l64-33H781l32 27 59-48-27-22V535l-64-32v32H550V175H743V294H676V256l-59-30V455l59-11 14-11-14-9V315h67V492l54-10 13-11-13-9V315h62V455l59-11 14-11-14-9V272l-59-30v52H797V175h64l54 54 65-54V154H55zM485 670H259V557H485V670zm296 0H550V557H781V670zM485 799H259V691H485V799zm296 0H550V691H781V799z"/><glyph unicode="&#132403;" horiz-adv-x="1024" vert-adv-y="918" d="M130 654l65-33H392l-13 13-2 10-9 22-4 11-6 11-15 24-18 26-11 11 2 3H111v21H490v99l65-11 16-11-16-9V773H816l54 54 64-54V752H686l43-35 7-18-24 2-59-56-28-24H835l53 54 65-54V6e2H765l7-11 29-30 1-19-20 9-29-12-46-15-26-7-18-4V455H817l44 48 54-48V433H663V369H770l32 27 59-49-26-21V283h42l44 48 53-48V261H835V170l-65-32v43H672l65-53 55-37 28-15 27-14 28-12 28-10 69-21-63-54-31 12L848-8 790 29 763 51 711 99l-23 28-22 30-3 5V-40L598-72V181H485V-40L421-72V123L383 86 353 61 321 38 288 17 253-2 216-19 178-33 137-44l-3 9L203 6l62 45 29 23 51 51 23 27 22 28-115 1v21H421v59H216v22H421v64H281v22H421v64H222v22H421v50l-26-5-30-4-31-4-34-3-35-1-1 9 148 52 70 28 39 19 5-11 44-39 1-17-21 9-26-9-23-6-16-4V455H598v43l-43-7-37-3-2 9 124 50 49 22 21 10 19 10 16 10 1 1H195V347l-3-55-5-53-8-50-11-48-12-44-15-41-18-38-20-35L79-48 53-75l-8 6L63-37 77-3 91 32l11 37 10 40 8 42 5 45 4 48 2 51-1 52V654zM598 261H485V202H598v59zm172 0H663V202H770v59zM598 347H485V283H598v64zm172 0H663V283H770v64zM598 433H485V369H598v64zM328 752l6-4 15-8 14-8 12-8 13-10 22-20 10-11 9-10 8-12 1-25-13-15H609l6 9 7 17 52 102-1 1 1 2H328z"/><glyph unicode="&#132404;" horiz-adv-x="1024" vert-adv-y="918" d="M511 826l64-33H869l32 27 59-48-27-22V557l-64-32v64H575V482l-2-65H713V568l65-11 16-11-16-9V417h88l54 54 64-54V396H778V261h96l32 27 59-48-27-22V-13L874-45V19H658V-45L593-77V294l65-33h55V396H572l-4-58-7-65-10-62-11-57-13-53-17-48L492 9 470-30 446-63l-8 4 14 38 13 40 12 44 10 48 8 51 7 56 5 59 3 64 1 69v72V826zM165 163l56-32 11-16-21-3-16-27-31-43-17-21-38-39L88-37 42-70l-7 7L83 4l28 44 12 21 21 44 9 21 8 22 4 7zM375 24l-7 15-17 29-9 14-23 27-26 26-15 12 5 9 18-8 19-7 18-8 16-10 17-12 15-12 15-14 26-30 11-17 2-25L425-5 4e2-8 381 8l-6 16zM658 240V41H874V240H658zM29 191v22h91V691H38v22h82V858l65-11 16-10-16-10V713H326V858l65-11 16-10-16-10V713h14l33 37 43-37V691H391V213h19l33 38 43-38V191H29zM326 358H185V213H326V358zm0 167H185V380H326V525zm0 166H185V546H326V691zm543 81H575V611H869V772z"/><glyph unicode="&#132405;" horiz-adv-x="1024" vert-adv-y="918" d="M711-29v16H818l7 1 5 1 3 1h2l1 1 1 1 1 2 1 3V2l1 7V423H481v21H863l54 54 64-54V423H904V9-5l-3-13-4-13-7-13-9-10-10-9-12-7-13-4-14-2-14-1v32L711-29zM178 163l56-32 10-17-21-3-32-48-35-43-40-39L94-37 71-54 45-70l-6 7L91 5l29 43 14 22 22 43 10 22 12 28zM401 23l-8 15-8 15-10 14-22 28-12 14-28 26-17 12 4 9 39-14 19-9 18-10 17-11 31-26 28-31 12-16 2-25L451-5 427-8 407 8l-6 15zM549 358l65-32h85l32 27 59-49-26-21V1e2L699 68v64H614V68L549 35V358zm150-54H614V154h85V304zM32 191v22h99V691H42v22h89V858l64-11 16-10-16-10V713H349V858l64-11 16-10-16-10V713h22l33 37 43-37V691H413V213h27l33 38 43-38V191H32zM349 358H195V213H349V358zm0 167H195V380H349V525zm527-29-21 11-34 48-27 29-15 15-49 41-8 6-27-47-29-37-33-33-37-28-40-23-45-17-4 9 38 26 34 28 30 30 26 33 21 36 18 39 13 40H513v22H692l7 26 6 50 3 49 1 18 63-15 16-12-18-10-4-37-11-54-5-15h81l54 53 65-53V702H744l-5-14-12-29 33-11 21-8 20-10 20-11 18-13 18-13 34-30 16-16 6-24-13-21-24-6zM349 691H195V546H349V691z"/><glyph unicode="&#132406;" horiz-adv-x="1024" vert-adv-y="918" d="M626 95l41-49 3-20-20 7-27-18L6e2 1 575-13 550-25 523-37 467-57l-30-8-31-6-3 9 78 46 47 31 42 30 38 32 13 14 5 4zM164 163l57-31 11-16-21-4-28-48-31-42L135 2 116-18 96-36 75-53 53-70l-7 7L89 4l26 43 21 43 9 22 8 21 11 30zM909-41 895-27 881-15 848 11 829 23 789 46 767 57 743 67l2 10 27-3 25-4 25-5 23-7 23-9 22-9 21-11 20-12L950 4l17-15 9-23-9-22-23-9-23 9-12 15zM352 40l-7 14-8 15-9 13-20 27-23 26-14 12 5 8 34-14 17-9 16-10 15-11 15-13 26-28 12-16 11-16 1-25L407-6H382L364 10 352 40zM483 573l59-11 15-10-15-10V138H867l54 53 64-53V116H542V1e2L483 70V573zm115 3 59-29H853l32 27 59-49-27-21V206l-64-32v32H657l-59-29V576zM41 191v22h82V691H49v22h74V858l64-11 16-10-16-10V713H313V858l64-11 16-10-16-10V713h25l25 32 32-32V691H377V213h30l24 32 32-32V191H41zM313 358H187V213H313V358zm540-41H657V228H853v89zm0 104H657V339H853v82zM313 525H187V380H313V525zm540 0H657V443H853v82zM313 691H187V546H313V691zm298-70-14 1-12 2-13 3-12 6-10 8-10 10-6 12-5 12-3 14-1 13V863l64-10 17-11-17-10V755l136 43 56 20 51 20 23 11 4-10 45-40 2-17-22 9-31-10-28-8-28-7-30-6-31-6-33-6-34-4-36-5-37-2-7-1V702v-6-5l1-4v-2l2-2 1-2 2-1 3-2 5-2 8-1H904l27 92h11l-11-92 16-11 11-16-11-16-16-11H611z"/><glyph unicode="&#132407;" horiz-adv-x="1024" vert-adv-y="918" d="M359 107l39-52 1-19-19 8-32-18L291-2 227-28 191-40 154-52 114-62 72-71l-2 9L210 9l84 50 45 32 16 13 4 3zM851-40 835-26 816-12 771 15 716 41 618 83l2 10 38-5 36-6 34-7 32-9 29-10 28-10 26-12 23-11L888 9 908-5l10-22-7-23-22-11-24 8-14 13zM55 116v22H329V245H114v22H329v96l65-10 16-11-16-10V267H630v96l65-10 16-11-16-10V267h97l53 53 65-53V245H695V138H851l53 53 65-53V116H55zM630 245H394V138H630V245zM345 391v14h76l5 1h3l2 2h2l2 2 1 2 1 5 1 5v8V682H145V382L86 352V696L43 674l-6 8 36 36 13 14v1-1l33 38 25 32 20 32 6 10-1 1 6 8 51-39 8-18-22 1-13-14-32-30-37-28-12-9 27-13H257V874l64-11 16-11-16-10V703H438l28 26-6 12-8 11-8 10-10 11-24 22-29 22-16 9 3 9 19-5 19-4 18-6 18-6 16-8 29-17 14-10 12-11 11-12 5-24-13-21-21-4 29-25-27-19V430l-1-13-1-13-4-12-5-12-8-10-10-9-10-7-12-5-12-2-13-1v30l-76 15zm531-14-53 23-48 26-43 30-11 10-21-17-48-30-52-26-57-21-62-16-3 10 57 25 52 28 46 29 42 33 14 14-26 29-26 38-21 41-14 43-4 25-25-20-28-19-29-17-6 8 43 49 39 49 33 50 14 26 12 26 12 27 12 35 57-31 12-15-21-4-5-10-33-56-19-26-4-5H864l53 54 65-54V717H878l-15-51-22-53-27-47-33-43-20-21 43-24 46-20 49-18 98-28-63-56-58 21zM189 645l60-30h83l29 27 57-48-27-19V466l-59-30v40H249V460l-60-29V645zm143-51H249V498h83v96zM812 717H644l-21-22-13-12 13-29 21-36 24-34 28-30 27-23 19 23 25 40 21 44 16 46 8 33z"/><glyph unicode="&#132408;" horiz-adv-x="1024" vert-adv-y="918" d="M858-72 840-60 797-37 746-15 717-3 586 43l2 10 38-2 36-4 34-5 33-6 31-7 29-7 27-9L867-5l23-10 14-19-2-25-20-15-24 2zM286 406l-14-7 63-10 16-11-16-10V320H689v79l65-10 16-11-16-10V320H876l34 38 43-38V299H754V89H882l44 49 54-49V68H377l3-8 42-38 1-18-20 8L374 2 314-18l-32-9-33-8-71-16-37-6-39-5-41-4-2 9L235 8l88 38 27 12 19 10H44V89H270V299H71v21H270v78l-49-24V609l65-32H770l32 27 59-49-26-21V395l-65-32v43H286zM689 146H335V89H689v57zm0 77H335V168H689v55zm0 76H335V244H689v55zM496 482H286V427H496v55zm274 0H560V427H770v55zM496 555H286V503H496v52zm274 0H560V503H770v52zM311 740l64-33H680l33 27 59-48-27-22V612l-65-32v32H375l-64-32V740zm369-54H375V633H680v53zM120 710l-18 17v25l18 17 9 2 8 3 8 3 8 6 7 7 7 9 7 12 5 13 6 16 1 17h9l2-18 1-5H867l5 4 4 7 2-2 22 18 59-49-27-16-52-21-46-25-15-6-14-10-6 8 12 12 44 57 1 1H2e2l1-7-1-16-4-16-6-16-8-13-10-14-13-11-15-10-24 1zm615 94 43-38V745H278v21H702l33 38z"/><glyph unicode="&#132409;" horiz-adv-x="1024" vert-adv-y="918" d="M820-68 785-40 765-27 719-1 666 25 573 64l2 10 35-4 35-5 32-7 31-8 29-9 53-21L815 9 838-4l21-13 12-22-6-23-21-12-24 6zM393 91l10-16 33-34 1-18-20 8L367 9 306-16 239-38 167-58l-38-8-39-6-3 9L286 30l82 46 21 12-1 1 1-1 4 3zM60 111v21H340V261H168v22H340V406l64-10 17-11-17-10V283H620V406l64-10 16-11-16-10V283h54l54 54 64-54V261H684V132H845l54 54 65-54V111H60zM620 261H404V132H620V261zM851 449h48l3 3h1l28 24 59-49-26-16-19-8-22-26-36-37-29-25-15-14-7 6 11 17 16 34 15 30 12 28 4 11H130v-6-22l-2-21-4-18-4-18-7-17-9-15-10-14-24-8-22 11-7 23 10 22 7 4 7 7 8 9 7 11 7 15 7 16 6 19 11 44 4 26h9l3-26 2-20h43L149 820l63-27 88 34 37 17 30 16 13 8 6-12 40-38 1-18-21 9-15-5-37-10-20-4-45-8-50-5-23-1 5-79h70l44 48 53-48V675H223l6-102h83l33 38 43-38V552H231l6-103H786l6 103H663v21H793l6 102H663v22H801l6 102H652v21H808l32 27 59-48-27-16-6-3-15-331zM579 478l-23 33-19 21-35-21-29-15-31-13-34-10-34-9-4 10 59 35 51 36 23 19 2 2-57 48-19 14 3 9 47-15 21-9 21-10 14-8 25 29 15 22 17 27 51-40 8-18-21 1-27-30-22-21-1-1 17-14 33-33 6-23-12-22-24-6-21 12zM547 715l-5 7-15-14-26-19-27-17-28-15-30-12-31-10-4 9 49 38 45 39 20 20 14 16-28 26-34 25-18 11 3 9 43-11 21-7 20-9 19-10 29 45 14 26 3 5 53-36 9-18H622l-27-37-14-16 23-21 15-15 6-25-12-21-24-5-21 12-21 30z"/><glyph unicode="&#132410;" horiz-adv-x="1024" vert-adv-y="918" d="M408 67 394 98l-7 15-16 29-28 40-10 13-1 1V-53L279-80V310H225V-52L166-81V171l-19-41-16-30-17-28L96 45 77 22 56 1 48 6 82 88l23 60 11 33 20 70 14 59H85v21h81v97H42v21H166v97H85v22h81v75H42v21H166v70l-17-8-22-9-22-7-23-7-3 9 17 14 70 58 51 48 35 36 43-48 4-18-21 5-24-18-41-28-4-2 16-3 14-10 135 99 33 26 21-31 18-20 1-19-19 8-64-32-41-16-5-2 14-3 14-11-14-9V664h47l53 54 65-54V643H332V568h45l29 27 57-49-27-19V449h28l24 33 33-33V428H436V288l-59-29v51H332V211l26-12 15-9 14-10 28-23 26-28 12-15 12-16 2-25-15-19-24-2-20 15zM909-47 874-12 847 38 828 95 812 63 782 16 750-23 716-54 681-76l-5 8 26 29L728-5l24 40 23 47 22 54 12 33-22 115-6 52-26-18V111L696 81v51H643V68L584 38V259l-2-18-7-51-9-49-10-44-13-42-15-38-18-35-20-30-23-27-8 6 13 31L484-6l10 35 9 37 8 40 6 43 5 47 2 49 1 52-1 56V691l65-32H750L740 846l-1 18 65-10 17-10-15-10 7-146 2-29h49l54 54 64-54V638H817l7-1e2 12-131 13-96 8 30 16 83 16 90 2 11 61-22 14-13-18-7-15-71-20-85-23-76-20-59 17-71 20-58 20-38 1-1 26 114h11L955 3l22-9 10-23-10-23-23-9-45 14zM696 337H643V154h53V337zM279 428H225V331h54v97zm98 0H332V331h45v97zM752 638H589V492h76l44 49 54-49V471H589V385l54-27h53l29 27 55-47-8 61-13 134-7 105zM279 546H225V449h54v97zm98 0H332V449h45v97zm-98 97H225V568h54v75zm0 103-18-5-20-6-4 8-12-7V664h54v82zm6e2 1-3 8-4 9-5 9-5 9-13 20-17 20-11 8 5 8 12-6 14-4 13-5 12-6 23-13 10-8 10-8 9-8 8-10 3-25-15-19-25-2-19 15-2 8z"/><glyph unicode="&#132411;" horiz-adv-x="1024" vert-adv-y="918" d="M421-54l-3 6-5 7-6 7-17 16-11 8L353 7l-15 6 3 10 17-4 16-2 30-5 14-4 25-9 21-12 10-7 6-25-12-21-24-6-21 12-2 6zm479 0-4 6-4 7-6 7-18 16-10 8L832 7l-16 6 4 10 16-4 17-2 29-5 14-4 25-9 22-12 9-7 6-25-12-21-24-6-21 12-1 6zM174 33l33-45 1-19-22 8-21-9-15-6-33-10-17-5-37-8-20-5-4 10 18 9L128 3l22 19 11 11H39V54H58V347l38-7 30 32 9 12 4 6-2 1 5 4 34-47v53l43-21H329l22 26 48-48-20-8h42l24 27 51-49-27-13V76l8 11 32-33V33H174zm478 0 34-45 1-19-23 8-20-9-15-6-33-10-17-5-38-8-19-5-4 10 18 9L607 3l22 19 11 11H517V54h22V347l36-7 29 32 10 12 3 6-1 1 4 4 34-47v53l43-21H808l21 26 49-48-21-8h39l27 27 54-49-27-16V79l6 8 32-33V33H652zm2 94H593V54h61v73zM808 358H697V54H808V207l-6-2V116L759 95v21H746L703 95V259l43-22h13l22 27 27-27V358zm45-10-2-1V54h45v73H853v21h43v84H853v21h43v75H853v20zM176 127H117V54h59v73zM329 358H219V54H329V207l-5-2V116L281 95v21H267L224 95V259l43-22h14l21 27 27-27V358zm46-10-3-1V54h49v73H375v21h46v84H375v21h46v75H375v20zM759 216H746V138h13v78zm-478 0H267V138h14v78zM626 334l-18-3-8-1 6-4-13-9V253h2l25 32 32-32V232H593V148h5l24 33 32-33V325l-24 10-4-1zm-478 0-19-3h-4l6-5-14-9V253l24 32 32-32V232H117V148h3l24 33 32-33V325l-24 10-4-1zm144-3 32-32V277H224v22h43l25 32zm478 0 32-32V277H703v22h43l24 32zM421 413l-3 6-5 7-6 8-17 15-11 8-26 18-15 6 3 9 17-3 16-2 30-5 14-4 25-9 21-12 10-8 6-24-12-21-24-6-21 12-2 5zm479 0-4 6-4 7-6 8-18 15-10 8-26 18-16 6 4 9 16-3 17-2 29-5 14-4 25-9 22-12 9-8 6-24-12-21-24-6-21 12-1 5zM174 501l33-45 1-19-22 8-21-9-15-6-33-11-17-5-37-7-20-5-4 9 18 9 71 50 22 19 11 12H39v21H58V815l38-7 30 32 9 12 4 5-2 2 5 3 34-47v54l43-22H329l22 27 48-48-20-8h42l24 27 51-49-27-13V544l8 10 32-32V501H174zm478 0 34-45 1-19-23 8-20-9-15-6-33-11-17-5-38-7-19-5-4 9 18 9 71 50 22 19 11 12H517v21h22V815l36-7 29 32 10 12 3 5-1 2 4 3 34-47v54l43-22H808l21 27 49-48-21-8h39l27 27 54-49-27-16V547l6 7 32-32V501H652zm2 94H593V522h61v73zM808 826H697V522H808V675l-6-2V584l-43-22v22H746l-43-22V726l43-21h13l22 27 27-27V826zm45-10-2-1V522h45v73H853v21h43v83H853v22h43v75H853v20zM176 595H117V522h59v73zM329 826H219V522H329V675l-5-2V584l-43-22v22H267l-43-22V726l43-21h14l21 27 27-27V826zm46-10-3-1V522h49v73H375v21h46v83H375v22h46v75H375v20zM759 683H746V605h13v78zm-478 0H267V605h14v78zM626 802l-18-3-8-1 6-5-13-8V721h2l25 32 32-32V699H593V616h5l24 32 32-32V793l-24 10-4-1zm-478 0-19-3-4-1 6-5-14-9V721l24 32 32-32V699H117V616h3l24 32 32-32V793l-24 10-4-1zm144-3 32-32V745H224v22h43l25 32zm478 0 32-32V745H703v22h43l24 32z"/><glyph unicode="&#133718;" horiz-adv-x="1024" vert-adv-y="918" d="M537 593l64-11 16-11-16-9V494H786l32 26 60-48-27-21V370h33l44 49 54-49V349H851V186l-65-32v64H601V-54L537-86V218H307v22H537V349H225v21H537V472H320v22H537v99zM125 662l64-32H638h-1l15 26 76 121 52 89v1l6 8 51-38 8-18H824l-56-71-58-64-42-41-17-13H867l54 53 64-53V608H189V346l-3-62-5-57-8-53-10-50-14-46-15-41L115 0 93-33 69-60 42-81l-7 7L53-47 69-17 83 15 95 51l11 39 8 44 6 47 3 51 2 55V662zM786 349H601V240H786V349zm0 123H601V370H786V472zM394 682l-8 20-11 18-11 19-14 18-15 18-36 36-20 17-23 18 5 9 27-10 27-12 24-13 22-15 21-17 19-18 18-18 16-21 14-22 11-23V662l-18-17H418l-17 18-7 19z"/><glyph unicode="&#134011;" horiz-adv-x="1024" vert-adv-y="918" d="M2e2 1e2V383l-42-23-43-20-47-19-5 10 80 54 34 24 27 24 24 22 18 20 12 17H184V476l-64-32V648l64-10 16-11-16-10V514h84l2 11V697l65-11 16-11-16-9V535l-5-21h80V648l54-10 13-11-13-9V471l-54-27v48H322l-4-7-15-22-21-22-24-21-29-20-22-13 58-29H496V708H117v22H591l11 9 15 17 45 47 26 28 34 42 44-47 5-19-22 5-26-20-52-33-19-12-20-10-14-7H826l54 53 65-53V708H550V358H786l32 27 60-48-27-22V19L850 6 847-8l-4-12-7-13-8-11-11-8-13-7-12-4-14-3-13-1v33L657-18V-2H765h6l5 1 5 2 2 2 2 5 1 5v6V127H550V-16L496-42V127H265V1e2l-4-24-7-24-10-21-12-20L216-6 199-21 178-34 156-45l-25-8-26-7-4 9 23 13L160-9 173 6l11 15 7 15 5 16 4 15 1 16-1 17zM496 234H265V148H496v86zm290 0H550V148H786v86zM496 337H265V256H496v81zm290 0H550V256H786v81zm93 26-39 18-35 20-32 25-21 19-27-18-38-22-42-16-44-13-47-7-2 9 43 18 39 19 36 21 32 24 21 19-29 41-19 37-16 42-9 38H589v22H829l32 26 59-48-27-16-11-5-10-23-22-41-27-37-29-33-2-2 14-11 30-17 31-14 33-11 82-18-63-59-40 13zM823 637H663l39-64 25-31 24-28 3-2 26 34 20 35 16 37 7 19zM365 751l-4 8-14 18-9 10-23 22-28 25-17 12 4 8 19-8 20-6 33-13 29-14 24-14 11-8 10-8 5-24-12-21-24-6-21 12-3 7z"/><glyph unicode="&#173960;" horiz-adv-x="1024" vert-adv-y="918" d="M231 538l57-35H792l32 27 59-48-27-16-7-3-13-191h36l54 54 64-54V251H835L816-31 749-59l3 51H247l-3-39-67-27 29 325H39v21H207l24 266zM490 251H270L249 14H469l21 237zm282 0H555L534 14H754l18 237zM511 482H290L272 272H492l19 210zm279 0H576L557 272H774l16 210zM318 763l50-40 7-19-20 2-35-39-56-53-31-24-68-47-37-22-40-19-42-19-4 8 102 81 59 53 51 53 43 54 21 31zM896 545l-32 18-31 20-29 23-27 25-26 28-24 29-23 32-20 35-1 3-12-6v31l-3 6-344-1v22H643l28 22 59-48-27-16h-1l54-54 54-45 27-19 29-17 28-14 30-13 68-24-62-52-34 15zM668 795v-2l2 2h-2z"/><glyph unicode="&#173961;" horiz-adv-x="1024" vert-adv-y="918" d="M821-65 804-52 766-26 720-1 637 35 573 61l2 9 35-3 34-5 33-6 30-7 29-8 28-9 25-9L837 1l21-13 13-21-6-24-21-13-23 5zM394 89l7-14 37-36 1-18-20 8L336-4 305-15 238-35 203-45l-36-8-38-7-39-6-3 9L286 31l57 29 51 29zM60 104v21H340V244H168v21H340V380l64-11 17-11-17-10V265H620V380l64-11 16-11-16-10V265h54l54 54 64-54V244H684V125H845l54 54 65-54V104H60zM620 244H404V125H620V244zM193 596l64-33H766l33 27 59-48-27-22V404l-65-32v43H257V399l-64-32V596zm573-54H257V437H766V542zM125 642v21H480v92H60v21H480v91l64-11 16-10-16-10V776H845l54 54 65-54V755H544V663H801l44 49 54-49V642H125z"/><glyph unicode="&#173962;" horiz-adv-x="1024" vert-adv-y="918" d="M335 238l64-32H625l32 27 59-49-27-21V27L625-5V48H399V11L335-22V238zm290-54H399V70H625V184zM765 297l21 49h11l-11-49 13-8 9-13-9-13-13-9H633l-12 1-12 3-12 5-10 7-9 10-7 11-6 12-3 13-2 14v80H430l-3-23-9-33-14-29-17-27-23-23-26-21-30-17-34-14-37-12-41-8-3 10 37 18 32 17 27 19 24 20 18 19 15 21 10 22 7 22 3 24 1 15H179V-39L114-72V463l65-32H605l5 8 34 60 14 27 12 26 3 6H308l4-2 15-5 14-6 12-7 13-8 23-20 10-12 9-11 9-14V449l-17-18H375l-17 17-3 11-3 11-5 11-4 10-13 22-15 21-10 11-11 9 2 4H50v22H480V685l64-11 16-11-16-9V580H856l41 41-34 15-31 15-59 36-28 19-55 44-24 24-21-11v36l-3 4 3 3-4 2v-9H415v21H616l29 24 59-48-14-9 49-27 59-30 59-25 30-10 30-10 30-8 41-13-56-49 42-35V558H693l37-27 9-18H715l-15-17-23-22-41-34-12-9H845l33 27 59-48-27-22V11L909-3l-2-13-5-13-7-12-8-11-11-9-12-6-13-5-14-2-13-1v33L716-26v16H830l5 1 3 1 2 1 1 1 1 1 2 4 1 5v7V410H625V330l-1-7v-9-3l1-2 1-3 3-2 3-3 6-2 8-2H765zM351 818l48-44 4-19-20 4-34-29-29-21-33-20-35-19-38-19-41-18-44-17-48-17-51-14-4 9 131 70 72 45 31 22 27 22 24 21 21 21 17 21 2 2z"/><glyph unicode="&#173963;" horiz-adv-x="1024" vert-adv-y="918" d="M825-63 804-49 756-23 701 4 573 57l2 9 38-4 35-5 34-7 64-17 58-20 53-24 24-13 13-20-4-24-20-14-25 4-20 15zM377 81l13-20 25-27 1-19-19 8L358 4 329-8 266-31 232-41 195-51l-38-9-40-8-42-7-3 9L217-3l62 29 52 29 23 15 15 11H58v21H318V242H89v22H318V381l64-11 17-10-17-10V264H631V378l-8-2-52-10-53-5-1 9 98 33 46 19 45 20 42 22 41 25 40 27 38 28 36 31 31 29 5 5 43-48 4-19-20 6-23-20-42-30-42-28-45-24-46-22-47-19-48-16-34-9 56-10 16-10-16-10V264H806l53 54 65-54V242H695V102H837l53 54 65-54V81H377zM631 242H382V102H631V242zM453 390l-12 18-27 32-16 16-24-11-92-35-104-34-55-15-7-20-14 14-25 60 38 8V850l64-32H422l32 27 60-49-27-21V589l-65-32v32H179V435l187 38 12 2-48 41-40 30 4 9 49-16 45-21 21-12 21-13 38-29 35-32 7-24-11-21-24-7-22 10zM893 740l40-50 3-19-20 6-54-38-37-23-38-21-39-19-39-16-41-14-41-12-42-9-42-6-3 9 78 33 74 36 70 41 67 47 63 54 1 1zM422 698H179V611H422v87zM851 867l41-50 2-19-19 6-47-33-34-19-69-35-36-15-36-13-37-10-38-8-39-5-2 9 103 47 64 35 61 40 58 45 24 21h-1l5 4zM422 796H179V720H422v76z"/><glyph unicode="&#173964;" horiz-adv-x="1024" vert-adv-y="918" d="M168 321l64-32H792l32 27 59-48-27-22V-27L792-59V-5H232V-43L168-75V321zm624-53H232V16H792V268zM351 235l64-32H609l32 27 59-48-27-22V91L609 59V91H415L351 59V235zm258-53H415V112H609v70zM71 348v22H480v96l64-11 16-11-16-10V370H850l44 48 53-48V348H71zM220 469V453l-64-33V752l64-33H386l-12 11-4 12-5 13-13 26-8 12-31 42-13 15-14 14 6 7 35-18 17-10 15-10 28-23 13-12 11-13 11-13 10-13 2-25-13-15H598l10 14 35 52 11 16 39 59 8 14 2 2 48-43 6-19-22 4-50-45-48-38-17-12-4-4H804l32 27 59-48-27-22V458l-64-32v43H220zM480 585H220V490H480v95zm324 0H544V490H804v95zM480 698H220V606H480v92zm324 0H544V606H804v92z"/><glyph unicode="&#173965;" horiz-adv-x="1024" vert-adv-y="918" d="M903 497l-23 28-41 61-19 33-18 36-16 38-14 40-10 32-26-60-22-42-25-42-26-40-29-39-31-37-33-36-7-6 14-14V428H477V288l-59-29v51H361V213l31-13 16-9 31-21 30-25 27-30 13-17 4-24-14-20-25-3-20 14-8 16-17 31-19 29-21 27-23 27-5 3V-53L308-80V310H241V-52L181-81V185l-10-23-18-32-18-31-19-29L97 45 75 21 53 1 46 6 86 88l26 61 24 67 23 74 5 20H87v21h94v97H39v21H181v97H87v22h94v75H39v21H181v72l-48-20-25-7-24-6-4 9 1e2 73 59 48 39 36 41-50 2-19-20 7-27-19-46-28-2-1 15-3 14-11-14-9V664h67v82l-24-6-23-5-4 10 20 12 137 89 39 27 12-21 29-30 1-18-20 8-33-16-45-19-44-17-4-2 12-2 14-11-14-9V664h70l54 54 65-54V643H361V568h57l29 27 57-49-27-19V449h43l24 33 6-6 55 86 45 82 36 83 16 42 13 43 12 44 2 9 60-26 12-14-19-6-8-25 47-84 42-64 21-29 22-27 45-46 35-29-58-44-25 26zM584 320l65-32H855l32 27 59-48-26-22V-13L855-45V9H649V-29L584-61V320zm271-53H649V30H855V267zM308 428H241V331h67v97zm110 0H361V331h57v97zm416 86 65-54V439H605v21H780l54 54zM308 546H241V449h67v97zm110 0H361V449h57v97zM308 643H241V568h67v75z"/><glyph unicode="&#178475;" horiz-adv-x="1024" vert-adv-y="918" d="M714-49l-11-5-11-5-12-3-12-4-11-2-12-2-24-3H609v33L501-24V-8H618h9l9 2 17 3 17 5 9 3 16 8 18 12 16 16 16 22 13 27 12 34 9 38 7 45H254V142l-65-32V425l65-11 16-10-16-10V228H480V521H232v22H673l54 54 65-54V521H544V386H792l32 27 59-49-27-16 1-36-3-59-4-54-8-49-11-45-14-39-17-35L779 0 754-25 725-44l-11-5zm78 413H544V228H788l2 29 2 56v9-1 43zM311 782l56-33 11-16-21-3-8-16-22-33-26-33-28-30-31-30-34-27-37-27-40-24-44-23-46-20-5 8 41 29 73 58 31 29 29 30 26 30 23 30 19 31 16 31 14 32 3 7zM888 502l-43 24-39 26-35 29-31 31-26 34-21 35-18 38-11 39v5l-5 33H372v21H638l26 22 59-49-27-16-11-6 19-35 21-31 24-28 27-27 30-23 33-22 36-20 41-18 81-30-62-53-47 21zM664 801h-1 1z"/><glyph unicode="&#178476;" horiz-adv-x="1024" vert-adv-y="918" d="M75 188 35 239l144 74 176 98 9 44 12 119 4 130-2 137-1 18 65-10 17-10-17-11V703l-8-134-17-122-25-112-34-99-41-88-51-75-58-63-66-50L67-76l-3 9 66 44 58 53 50 64 43 73 35 85 27 96 6 30-78-60-99-69-65-42-13-8-2-21-17 10zM837 290l-12 18-13 18-16 19-38 35-23 17-79 51 1-5 4-22 19-67 24-64 29-59 34-56 39-51 43-49 49-44 71-54-59-45-57 48-50 52-44 56-39 58-32 63-15 31-24 61-21 65-17 69-12 74-10 79-6 82-3 87 1 92 1 12 64-15 15-12-16-8-3-69-2-85 3-81 5-76 8-65 2 7 34-8 31-10 30-12 27-14 26-15 23-16 22-18 20-19 17-21 15-22 3-25-16-19-24-2-20 15-9 19zM235 574l-11 24-12 23-13 21-14 20-14 19-33 36-38 32 4 9 26-8 24-11 23-13 22-16 20-18 19-19 19-23 17-23 15-26 15-27V549l-17-17H263l-18 16-10 26zM869 772l42-49 3-19-20 6-120-83-56-34-64-34-5 8L851 755l17 16 1 1z"/><glyph unicode="&#178477;" horiz-adv-x="1024" vert-adv-y="918" d="M404 202l43-48 4-19-20 5-45-37-67-48-72-45-77-41-41-19L86-67l-5 9L224 44l65 51 60 52 55 55zM860-41 842-16 8e2 32 776 55 723 99l-60 42-66 41 3 9 39-11 38-13 35-16 33-17 32-19 30-21 29-22 27-23 25-25L911-3l6-23-12-22-24-6-21 13zM491 852l-1 1 6 7 49-41 7-19-23 3-43-40-44-37-18-13H775l33 27 59-49-27-21V245h20l44 49 54-49V224H87v21h97V745l65-32H406l8 10 41 67 32 55 4 7zM775 691H249V245H775V691zM644 312l-21 31-48 60-25 28-25-26-40-36-43-31-47-28-49-22-52-18-4 10 47 26 43 29 41 31 37 33 34 37 23 30-25 22-65 54-72 54 5 8 42-17 40-21 39-22 36-24 25-18 11 17 25 45 22 50 19 53 3 8 58-30 11-15-19-4-16-37-27-51-31-49-15-19 33-30 30-29 27-30 26-32 5-24-13-21-24-5-21 13z"/><glyph unicode="&#178478;" horiz-adv-x="1024" vert-adv-y="918" d="M480 643l64-11 16-11-16-9V-45L480-77V643zm-83-90 7-14 37-35 1-18-20 8-11-4-35-9-19-5-43-9-23-4-25-3-23-2V270h96l44 48 54-48V248H243V60h96l44 49 54-49V39H243V-26L179-58V502l56-28 68 29 38 18 31 17 21 12-1 1 1-1 4 3zm427-56 59-49-27-21V6L792-26V39H598V60H792V248H598v22H792V448H598v22H792l32 27zM311 780l56-32 11-16-21-3-8-17-22-36-25-33-28-32-31-31-35-29-37-27-40-26-43-24-47-22-5 9 79 60 35 30 31 31 29 30 26 32 22 31 20 32 16 33 14 33 3 7zM887 491l-43 25-39 27-34 30-31 32-26 35-22 37-17 39-11 41v1 3l-5 35H372v21H638l26 22 59-49-27-16-12-6 20-39 21-32 24-30 27-28 30-25 33-23 37-21 40-18 80-31-61-52-48 22zM663 801z"/><glyph unicode="&#178479;" horiz-adv-x="1024" vert-adv-y="918" d="M435 215l50-41 7-18-20 1-15-18-30-33-32-31-34-29-36-27L288-5 248-27 207-46 163-63 117-76l-3 9 79 46L230 3l35 25 32 27 31 28 29 30 27 31 25 33 26 38zM604 619l65-14 16-11-17-10-5-81-10-94-14-88-19-79-24-73-28-64-33-57L497-1 456-40 409-70l-6 8 39 37 33 43 30 49 26 55 22 62 18 70 15 77 10 84 6 92 2 99v13zM904-13 879 42l-22 62-19 71-15 78-12 86-9 93-5 102-1 110 3 112H573v21H777l27 22 59-48-27-16-24-12 6-78 11-109 12-99 15-92 16-83 20-73 21-66 24-56 26-47 27-38 1-1-58-42-29 48zM366 322l51-40 7-18-20 1-36-43-52-53-27-24-28-23-29-20-30-19-31-16-32-14-5 8 76 68 48 48 44 53 42 58 20 30 2 4zm-63 91 51-39 8-18-21 1-23-29-41-43-46-40-24-20-26-19-28-18-29-17-6 9L222 296l35 45 30 46 11 18h-1l6 8zM452 309l-18 37-11 18-25 39-46 60-33 40H269l-44-85-24-42-27-38-27-35-29-33-30-29-32-26-7 7 47 66 22 35 43 76 20 41 26 63H58v22H216l19 52 19 58 58-29 12-15-20-4-12-32-13-30H396l54 53 64-53V503H341l30-20 42-34 19-17 34-36 30-37 13-20 2-24-16-19-24-2-19 15zM417 642l-4 15-5 17-5 11-40-15-30-9-61-16-64-14-65-13-12-2-9-19-13 15-18 63 10 1 66 5 41 94 15 39 13 35 5 17 3 7 57-32 10-16-21-3-20-32-38-55-30-38-12-14 42 4 32 3 31 3 32 3 30 3 31 1 8 1-2 5-18 33-21 36-13 17 6 7 36-26 16-14 15-15 14-15 24-31 11-17 10-17 8-17-2-24-19-17-24 3-16 18-4 15z"/><glyph unicode="&#178480;" horiz-adv-x="1024" vert-adv-y="918" d="M391 117l40-51 1-19-19 7-68-42-63-32-33-15-69-26-37-12-38-9-4 9L231 2l85 56 51 39 24 20zM860-63 843-46 803-13 758 19 708 51 623 99l3 10 34-7 32-9 31-10 29-11 56-26 50-29 45-33 11-22-8-23-23-11-23 9zM50 148v22H410V455l64-11 16-11-16-9V170H582V573H485V535l-64-32V858l64-11 16-10-16-10V745h85l44 48 54-48V724H485V595h97l32 26 59-48-27-21V170H829V337H695v21H829V535H695v22H829V745H711v22H829l32 26 60-48-27-21V170h20l33 38 43-38V148H50zm64 683 65-11 16-10-16-10V218l-65-32V831zm151-81 64-10 16-11-16-10V288l-64-32V750z"/><glyph unicode="&#178481;" horiz-adv-x="1024" vert-adv-y="918" d="M609 759l65-11 16-11-16-10V524h22l44 48 54-48V502H674V267h38l44 49 53-49V246H674V-44L609-76V246H479v21H609V502H494v22H609V759zM165 163l56-32 11-16-21-3-16-27-31-43-17-21-38-39L88-37 42-70l-7 7L83 4l28 44 12 21 21 44 9 21 8 22 4 7zM908-45 879-10 859 38l-15 63-12 77-8 93-5 110-2 126 1 143 4 147H479v21H823l32 27 59-48-27-16-4-133-2-141 2-124 5-108 8-90 11-73 14-54 7-20 24 101h11L952 5 974-5l10-22-10-22-22-11-44 15zM375 24l-7 15-17 29-9 14-23 27-26 26-15 12 5 9 18-8 19-7 18-8 16-10 17-12 15-12 15-14 26-30 11-17 2-25L425-5 4e2-8 381 8l-6 16zM29 191v22h91V691H38v22h82V858l65-11 16-10-16-10V713H326V858l65-11 16-10-16-10V713h14l33 37 43-37V691H391V213h19l33 38 43-38V191H29zM326 358H185V213H326V358zm0 167H185V380H326V525zm0 166H185V546H326V691z"/><glyph unicode="&#178482;" horiz-adv-x="1024" vert-adv-y="918" d="M168 328l64-32H792l32 27 59-48-27-22V-37L792-69v53H232V-53L168-85V328zm624-53H232V6H792V275zM351 238l64-33H609l32 27 59-48-27-22V84L609 52V84H415L351 52V238zm258-54H415V105H609v79zM892 599l-43 17-16 8-20-16V484l-64-32v43H544V395H860l44 49 54-49V374H66v21H480V495H275V479l-64-32V647l-43-21-39-16-43-14-45-13-4 9 80 44 67 42 29 21 26 22 22 21 20 22 15 21 13 22 3 4 52-38 8-18H351l-28-30-26-22-27-21-25-16 30-15H749l14 12-19 14-27 25-22 26-18 27-8 21-5-2v16l-4 21H372v21H638l26 22 59-48-27-16-5-3 12-13 20-20 23-19 27-16 29-16 33-15 37-13 40-12 89-22-63-57-46 15zM749 630H275V517H749V630zM663 817v-1l1 1h-1z"/><glyph unicode="&#178483;" horiz-adv-x="1024" vert-adv-y="918" d="M899 34 874 69l-22 36-21 39-20 40-17 43-16 44-13 43V-51L7e2-83V276l-32-68-25-46-26-42-28-40-29-38L529 9 495-22l-7 7 49 75 23 39 43 84 20 45 19 48 17 50 16 51 9 35H537v21H7e2V659H495v22H7e2V863l65-10 16-11-16-10V681h87l54 53 64-53V659H765V433h45l54 54 64-54V412H765V392l49-106 42-79 46-69 24-32 25-30 30-32L924 1 899 34zM419-10 414 4l-6 15-7 14-9 14-11 15-13 14-30 30-12 10H294L282 89 257 51 229 19 196-8 161-30 124-47 84-60l-4 9 34 22L146-6l28 25 25 27 21 31 17 34 1 5H168V1e2L103 68V234H71v22H268l2 49v13l64-14 16-12-18-9-2-27h57l44 48 54-48V234H327l-10-50-14-46H404l54 53 65-53V116H355l13-5 19-10 19-12 16-13 15-14 14-14 13-16 10-17L484-3l-3-25-18-16-25 2-16 18-3 14zM266 234H168V138h78l5 13 10 45 5 38zM380 872l58-30 11-16-23-4-22-31-10-13-21-23-12-11-10-10h37l33 27 59-48-27-16-9-4-11-98h29l34 37 43-37V573H225l-12-24-12-21-4-7H397l32 27 59-48-27-22V324l-64-32v32H180l-64-32V554l64-33h2l3 13 4 24 3 15H55v22H195l4 29 2 21 1 20v20l-1 20v8H109v21H335l3 7 16 43 5 14 13 41 3 13 1 7-1 1 5 12zm17-458H180V346H397v68zm0 86H180V436H397v64zM386 713H263l-1-11-4-22-4-22-6-22-7-22-7-19H368l18 118zM201 781l-2 17-4 18-3 8-7 17-4 9-7 6 6 8 8-5 11-4 9-5 9-6 9-6 9-8 15-18 7-9 6-11-2-24-18-16-25 2-16 18-1 9z"/><glyph unicode="&#178484;" horiz-adv-x="1024" vert-adv-y="918" d="M536 486l65-32H860l32 27 59-49-27-21V205l-64-32v43H763V130H890l44 48 54-48V109H763V-40L698-72V109H473v21H698v86H601V2e2l-65-32V486zM173 163l56-32 11-16-21-3-16-27-30-43L138 1 118-18 98-37 75-54 51-70l-6 7L92 4l28 44 12 21 21 43 9 22 8 22 3 7zM381 24l-7 15-8 15-9 14-20 27-23 27-14 13-15 12 5 9 18-8 19-7 17-8 17-10 16-12 15-12 15-14 13-15 12-15 12-17 2-25L430-5 406-7 387 9l-6 15zM39 191v22h90V691H48v22h81V858l64-11 16-10-16-10V713H332V858l64-11 17-10-17-10V713h14l33 37 43-37V691H396V213h18l33 38 43-38V191H39zM332 358H193V213H332V358zm528-34H601V238H860v86zm0 108H601V346H860v86zM332 525H193V380H332V525zM818 731l58-29 12-15-22-5-38-64-35-51-4-6h94l44 48 54-48V539H475v22H776l4 12 5 21 19 73 7 30 3 13 1 8h-1l4 13zM332 691H193V546H332V691zm290-81-1 13-2 12-2 13-3 12-3 13-4 12-4 12-5 13-8 11 8 6 10-9 12-8 10-10 10-11 10-11 8-12 8-13 7-14 13-29-5-24-21-14-24 5-14 20v13zM510 735v21H698V867l65-11 16-10-16-10V756h69l54 54 65-54V735H510z"/><glyph unicode="&#178485;" horiz-adv-x="1024" vert-adv-y="918" d="M897-73l-24 4-52 34-42 21L679 28 651 39l1 9 31-1 30-3 28-4 27-6 26-6 25-6L866 5l21-9 21-11 14-20-4-24-21-14zM350 54l40-36 1-17-20 8L318-9l-27-9-91-24-69-14-37-5-38-5-3 10L245 21l73 33H50V76H356v78H168l-65-33V284l65-11 16-11-16-9V175H356V303l65-11 16-11-16-10V76H603V303l65-11 16-11-16-10V175H856V286l65-11 16-11-16-9V154l-65-33v33H668V76H893l44 48 53-48V54H350zm1 262v16H458h7l5 1 3 1 1 1h1l2 2v2l1 2 1 6 1 6v56H50v22H480v39l49-8 88 35 52 19H189v22H723l27 12 14 7v-2l11 9 60-48-27-16-65-27v13l-60-13-56-10-32-5-35-4-6-1 6-4-16-10v-8H856l54 53 64-53V409H544V353l-1-14-2-13-4-13-7-12-9-11-11-9-12-6-13-5-13-2-14-1v32L351 316zM840 872l64-11 17-11-17-9V759l-64-32v32H657V709H840l32 27 59-48-27-22V576l-64-32V688H657V580l-64-33V861l64-11 16-10-16-10V781H840v91zm-677 2 64-11 16-11-16-10V782H383v79l64-11 17-10-17-10V581l-64-32V690H227V577l-64-32V690H55v21H383v50H187l-24-13V874z"/><glyph unicode="&#178486;" horiz-adv-x="1024" vert-adv-y="918" d="M874-73 840-51 821-40 779-19 732 1 651 32l1 9 31-1 30-2 27-4 28-5 26-6 24-6 25-8 22-8 22-9 20-10 15-20-4-24-20-14-24 3zM352 48l38-36 1-17-20 9L345-6 291-23 231-39l-32-8-33-7-35-6-37-6-38-4-3 9L217 4l80 35 19 9H50V69H356v76H168l-65-32V262l65-11 16-11-16-9V167H356V274l65-11 16-11-16-10V69H603V274l65-11 16-11-16-10V167H856v98l65-11 16-10-16-10V145l-65-32v32H668V69H893l44 49 53-49V48H352zM39 281v22H168V453l64-32H792l32 27 59-49-27-21V303h31l44 48 54-48V281H39zM378 399H232V303H378v96zm204 0H442V303H582v96zm210 0H646V303H792v96zM668 848l-15-8 5-63 17-70 1-1H909l33 38 43-38V684H685l16-34 32-46 28-28 46 31 32 27 29 30 45-46 4-19-20 5-18-16-38-27-35-21 43-23 38-14 30-7 30 131h11L948 492l22-9 10-23-10-22-23-10-36 3-42 10-46 16-48 26-34 25-33-14-51-17-54-15-57-11-61-9-64-5-1 9 6 1v27H189l-64-33V680l64-32H426l32 27 59-49-27-21V474l-39-20 88 24 54 18 51 20 46 20 13 7-20 19-38 57-30 65H39v22H218l-11 10v5 6l-2 6-2 7-3 7-4 8-10 16-7 8-9 6 3 6H77v21H286v55l65-11 16-10-16-10V812h86l53 54 65-54V791H438l33-27 7-18-28 2-50-37-9-5H609l-15 61-6 87-1 18 65-13 16-11zM426 554H189V495H426v59zm0 72H189V575H426v51zM180 791l5-2 11-2 10-4 10-3 19-10 9-6 8-7 7-7 7-8V718l-11-12H374l4 5 19 38 10 21 7 17 1 4H180zm659-47-7 8-17 16-11 9-37 26-30 19-17 8 3 9 18-4 19-2 18-3 16-4 16-4 30-10 14-6 13-6 13-7 11-22-6-23-22-11-24 7z"/><glyph unicode="&#184388;" horiz-adv-x="1024" vert-adv-y="918" d="M666 857l55-34 10-17-21-2-65-94-30-40-23-27H781l54 54 64-54V621H550V304H840l54 54 64-54V283H550V-40L485-72V283H172l-13-69-69-20 68 380 62-22 14-14-17-5-41-229H485V621H125v22H576l16 41 38 88 33 80 3 5zM385 684l-5 15-11 31-7 15-8 15-9 15-21 30-12 15-14 15 6 8 18-11 17-9 33-24 15-14 13-14 13-15 22-31 10-18-1-24-18-17-24 1-17 17z"/><glyph unicode="&#184389;" horiz-adv-x="1024" vert-adv-y="918" d="M910 314l-36 35-43 34-23 17-52 32-78 43V-45L613-77V842l65-11 16-11-16-9V489l27-6 33-8 63-22 29-13 28-14 51-31 24-17 22-17 10-23-9-23-23-10-23 9zM443 67l-7 29-3 10-61-26L259 35 136-8l-4-1-8-20-14 13L84 44l11 3 26 5 48 10 14 64 33 142 39 193 8 44 3 15 61-23 14-14-19-6-34-126-44-142-33-92-19-44-3-7 218 51 22 4-9 33-19 59-42 122 9 5 39-55 32-56 28-58 24-58 11-30 9-29-4-24-19-15-24 4-15 19-6 29zM178 745l61-20 15-13-19-8-4-20-11-41-13-41-15-40-18-41-20-39-23-40-24-38-28-38-30-38-8 6 59 125 17 40 27 79 11 40 9 39 7 39 4 32 3 17zM495 404l-21 31-20 35-17 37-17 42-15 44-13 47-12 51-10 55-6 47H209v22H337l-1 1 32 26 59-48-27-16-15-8 44-117 18-44 19-40 20-37 20-32 20-29 21-24 21-21 7-7-58-43-22 28zM367 805h1-1z"/><glyph unicode="&#184390;" horiz-adv-x="1024" vert-adv-y="918" d="M377 272l6 8 49-42 7-18-20 2-48-55-32-35-69-65-36-32L196 5 157-23 116-51 74-76l-6 8L173 32l65 67 61 69 55 72 23 32zM812 0 792 34 770 67 747 98l-25 31-27 29-58 55-64 53 5 8 39-18 37-20 35-23 34-25 31-27 31-29 54-65 25-35L887-5l2-24-15-19-24-3-20 16L812 0zM60 330v21H480V623H268l-24-41-24-35-25-33-28-33-29-30-31-29-7 6 66 106 38 71 17 36 16 36 14 37 13 39 11 38 3 8 59-28 12-15-20-4-25-59-18-38-6-10H480V842l64-10 16-11-16-10V645H738l54 53 64-53V623H544V351H845l54 54 65-54V330H60z"/><glyph unicode="&#184391;" horiz-adv-x="1024" vert-adv-y="918" d="M325 153l44-48 3-18-19 5-62-46L230 9 164-26 128-42 91-57 51-71l-3 9L177 26l55 42 49 42 23 21 21 22zM847-56 817-15 781 24 739 61l-73 52-28 18 4 9 32-8 30-11 29-12 28-14 27-15 25-17 23-18 23-20L880 4l19-22 5-24-12-21-24-6-21 13zm68 317 65-53V186H50v22H861l54 53zM313 863l65-10 16-11-16-10V288l-65-32V863zM518 411l-2-5h1l1-11 3-11 4-12 6-11 7-10 9-9 9-7 10-5 10-3 11-1 12 1 12 4 12 6 12 7 11 9 10 11 7 11 5 12 4 10 1 9V514H652l-26-5-30-8-25-10-19-11-15-12-9-13-7-13-3-15V411zM141 793l65-10 16-11-16-10V363l-65-32V793zM564 264l-22 6-20 11-18 13-15 15-12 17-11 19-7 20-5 20-1 21h3l-3 7 6 28 11 26 16 22 21 17 24 13 28 9 30 6 34 1h7 43V702H458v22H673V863l65-10 16-11-16-10V724h86l54 53 64-53V702H738V535h86l54 54 64-54V514H738V396h-1l-2-12-6-22-11-20-12-18-15-17-18-15-19-12-21-10-22-6-24-3-23 3z"/><glyph unicode="&#184392;" horiz-adv-x="1024" vert-adv-y="918" d="M368 190l46-45 4-19-20 4-63-55-60-45-67-42-36-21-37-19L95-70l-5 8L247 66l52 49 46 49 21 24 2 2zM842-43 810 6 793 29 774 51 754 73l-44 39-77 57 4 9 32-10 31-12 29-14 28-17 26-18 26-20 24-21 43-48L896-9l4-24-14-20-25-4-19 14zm62 331 65-54V213H55v21H851l53 54zM308 869l64-11 16-11-16-9V294l-64-33V869zm355 0 64-11 16-11-16-9V755l96 33 34 13 2-8 50-43 1-16-22 10-11-4-73-20-77-18V519H829l54 54 64-54V498H727V299l-64-32V498H442v21H663V688l-60-11-43-7-44-6-46-4-2 9 195 64V869zM136 799l64-11 16-11-16-9V369l-64-32V799z"/><glyph unicode="&#184393;" horiz-adv-x="1024" vert-adv-y="918" d="M368 153l44-48 3-18-19 5-62-46L273 9 207-26 171-42 134-57 94-71l-3 9L220 26l55 42 49 42 23 21 21 22zM847-56 817-15 781 24 739 61l-73 52-28 18 4 9 32-8 30-11 29-12 28-14 27-15 25-17 23-18 23-20L880 4l19-22 5-24-12-21-24-6-21 13zm57 317 65-53V186H60v22H851l53 53zM146 842l65-11 16-11-16-9V267l-65-33V842zM790 286l-8-10-9-10-10-8-11-7-12-6-11-5-13-3-14-2-13-1v33L582 283v16H689h8l6 2 12 3 5 2 5 4 4 3 4 5 5 5 4 7 4 8 5 14 4 18 4 22 5 26 3 30 1 12H469v22H769l3 38 3 75H598V557l-64-32V858l64-11 16-10-16-10V745H749l53 54 65-54V724H598V616H775l33 27 59-48-27-17h-1l-1-19-4-77h32l33 37 43-37V460H832l-4-50-5-28-5-26-5-22-7-20-8-17-8-11zM335 777l64-10 16-11-16-10V347l-64-32V777z"/><glyph unicode="&#184394;" horiz-adv-x="1024" vert-adv-y="918" d="M383 264l49-43 6-18-20 3-47-53-66-64-35-31L196-1 157-28 116-54 74-78l-6 8L207 58l63 66 58 67 27 35 26 35 2 3zM812-6 792 27 771 58l-49 59-55 55-61 52-33 25 5 9 39-17 37-19 35-22 33-24 32-26 30-28 29-30 26-32 25-33L887-9l2-24-15-19-24-3-20 15L812-6zm55 290-52 25-45 27-40 29-34 32-28 34-22 37-14 38-7 40v2l-21-51-32-55-41-47-49-41-57-34-65-27-72-20-80-13-2 10 76 23 67 27 59 31 49 36 41 39 33 44 25 49 17 54 9 58 2 53H479l-29-22-31-21-34-18-36-18-6 8 85 76 23 25 22 25 36 50 14 25 13 25 9 25 4 7 56-31 11-17-21-3-23-36-20-27-22-25-24-25-2-1H869l3 4 8 9 2-2 19 16 59-49-27-16-49-20-52-29-87-41-5 8 20 17 80 73 8 8H648l-5-60-8-37h1l11-36 14-33 19-31 23-28 27-26 33-24 37-22 43-21 49-19 94-30-62-55-57 22zM81 374 50 432l130 43L466 589l5-8-75-51-78-45-78-40-79-37-59-26-5-20-16 12zM313 784l65-54V709H71v21H259l54 54z"/><glyph unicode="&#184395;" horiz-adv-x="1024" vert-adv-y="918" d="M703-28v16H810l7 1 5 1h3l1 1 3 3 1 1v3l1 5 1 7v94L774 54 721 76l-48 25-43 26-36 29-30 32-25 33-17 34-5-11-18-31-23-28-27-25-31-23-35-21-38-19-43-16-46-14-50-12-3 10 88 42 38 21 32 23 30 22 24 23 20 24 15 24 12 25 1 2H192V-36L127-68V325l65-32H469l1 2 5-2h36v1l-3 38 4 36H260v21H495l22 19 60-48-27-16-20-10 12-31 5-10H832l32 27 59-49-27-21V10L895-4l-2-13-4-13-7-12-9-11-10-9-13-7-13-4-13-2-14-1v32L703-28zM832 271H558l18-24 24-25 29-23 34-22 39-20 45-19 85-28V271zM744 476l-9-8-20-16-11-6-12-6-12-4-12-3-12-3-13-1-13-1v33L523 477v16H638l8 1 14 3 7 3 7 3 6 4 6 4 12 10 3 4 3 5 3 8 3 9 3 12 2 14 1 16v9 41H467l-7-29-17-35-26-30-33-26-40-22-45-19-53-15-59-11-65-8-72-4-1 9 69 15 63 16 55 17 48 20 39 20 31 22 24 23 15 23 9 23 1 11H211v22H716l33 27 59-49-27-16V606l-1-21-1-19-3-18-4-17-4-15-7-14-7-14-10-12zM894 632l-43 13-38 15-35 16-32 18-26 18-23 21-18 22-6 11-8-4v22l-4 15H372v21H638l27 22 59-48-25-15 23-16 22-13 26-12 29-12 33-10 37-10 41-9 44-7 50-10-64-60-46 12zM314 808l47-44 6-18-21 3-26-21-25-16-28-16-31-14-33-13-36-13-39-11-43-10-45-8-3 10 81 35 68 34 30 17 26 16 22 17 19 17 16 16 9 12 6 7zm349-2v-2l2 1-2 1z"/><glyph unicode="&#184396;" horiz-adv-x="1024" vert-adv-y="918" d="M841-22l-9-8-10-9-11-7-11-6-12-4-12-5-13-2-13-2-13-1v33L630-17V-1H737h8l14 3 7 2 6 2 11 7 6 5 11 11 10 17 11 22 9 28 8 34 7 39 5 44 2 50 1 55v60l-1 14-2-1v43H682l-1-13-10-73-15-69-22-66-27-60-33-57-38-51L492-3 442-44 387-81l-5 8 47 44 42 46 37 49 31 51 27 55 21 58 16 62 11 65 7 69v73V635l65-11 16-11-16-9V499l-3-44H850l32 27 60-48-26-16 1-38 1-62-1-57-3-53-5-48-7-43-9-39-12-33-14-30-17-26-9-11zM320 393l-3-64-2-16 120 27 46 8 4-9-88-36-86-33-11-60-15-54-19-50-23-46-28-42-31-37-35-33-40-28-6 7 31 35L161-1l25 39 20 40 17 45 14 47 9 51 4 28-129-44-14-4-7-20-14 13-28 60 122 28 74 17 2 33-1 60v1 88H106v21H255V862l65-10 16-11-16-10V502h25l54 54 65-54V481H320V393zM160 783l58-29 12-15-20-4-14-29-12-24-30-48-36-48-20-24-47-46-7 5 58 110 23 51 10 24 9 23 16 54zM497 635l-1-22-17-17-25 1-17 18-5 17-11 33-7 17-7 16-18 32-21 33-11 15 6 8 33-23 17-13 28-29 13-15 12-16 12-16 9-18H650V863l65-11 16-11-16-9V656H867l54 54 65-54V635H497z"/><glyph unicode="&#184397;" horiz-adv-x="1024" vert-adv-y="918" d="M387 39 376 97l-2 8-82-41L172 12 122-7l-7-21-15 13L72 44l10 3 66 15 11 63 44 238 16 97 7 49 2 10 62-21 13-14-18-7-29-125-26-96-43-138-17-45-2-6 77 21 71 19 55 14-16 63-16 60-26 91 9 4 18-27 17-27 29-57 24-58 31-87 9-30-5-24-20-14-24 4-14 20zM8e2 84v16h54l7 1 5 1 5 1 1 1v1l1 2 1 3 1 5V423H779V-45L714-77V423H617V73L552 41V398l-19-31-41-59-45-60-8 5 69 129 44 89v5l2-1 42 92 25 60 15 43H509v21H644l18 54 17 59 14 57 3 9 60-25 13-14-19-6-12-39-21-59-14-36H871l53 54 65-54V670H694l-27-63-29-59-32-60-18-30 29-14h97V6e2l65-11 16-11-16-9V444h96l33 27 59-48-27-22V121l-1-13-2-13-5-13-6-13-9-10-10-9-13-7-13-4-13-2-14-2V68L8e2 84zM151 745l63-20 15-12-19-9-4-20-10-40-11-41-14-40-15-40-18-40-20-39-22-39-24-39-27-37-9 5 35 83 29 81 24 79 9 40 8 39 5 39 4 33h-1l2 17zM426 406l-18 32-16 33-15 38-14 41-13 44-11 47-10 51-8 54-4 47H183v22H291l-2 1 32 26 59-48-27-16-16-8 40-118 16-45 17-40 17-36 18-33 18-28 18-25 18-21 4-4-58-42-19 28zM320 805v-1l1 1h-1z"/><glyph unicode="&#184398;" horiz-adv-x="1024" vert-adv-y="918" d="M379 66l-5 29-2 7-48-25-97-43L122-9l-7-21-15 13L72 42l10 3 65 16 46 249 24 144 10 59 61-22 14-13-18-7-30-125-39-140-29-91-17-44-2-6 185 50 16 3-23 92-34 121 9 3 18-26 16-27 30-57 24-57 21-57 10-29 8-29-4-25-20-14-24 5-15 20-5 28zm58-95V-8h97V831l65-32H814l32 27 60-49-27-21V-8l44 49L976-8V-29H437zM814 240H599V-8H814V240zm0 269H599V261H814V509zM150 735l63-18 15-13-19-8-3-20-10-41-12-39-13-40-16-40-37-78-22-39-24-38-28-37-8 5L86 452l14 40 12 39 11 39 9 39 7 39 6 39 4 32h-1l2 16zM423 401l-17 30-17 35-15 37-14 40-12 44-11 46-10 50-7 54-5 47H182v22H287l32 27 59-49-27-16-15-8 38-116 17-44 17-39 17-36 17-33 18-28 18-24 22-25-57-42-20 28zM814 777H599V530H814V777zM318 795h1-1z"/><glyph unicode="&#184399;" horiz-adv-x="1024" vert-adv-y="918" d="M540 285l65-10 16-11-16-10V138H809l54 53 64-53V116H605V-42L540-75V116H85v22H540V285zM481 435H261V327H440l10 17 17 35 11 37 3 19zm281 0H542l-8-35-18-43-18-30H762V435zM546 456H762V576H550V494l-4-38zm343 84-43 21-6 4-14-11V274l-64-33v65H483l-20-26-35-34-41-31-46-27-52-25-58-20-3 9 51 30 46 30 41 32 34 32 25 30H261V268l-64-32V587l-27-17-40-21-43-19-46-18-4 9 41 26 73 53 31 26 29 27 26 26 22 27 20 27 16 28 16 34 55-34 10-17-21-2-8-12-22-31-25-28-28-27-31-26-8-6 28-15H762l13 11-34 31-26 30-22 32-17 34-10 32-2-1v12l-5 26H372v21H638l26 22 59-49-27-16-10-5 18-27 21-27 24-24 26-23 29-21 34-19 36-17 40-16 85-27-63-55-47 19zM663 809zM485 576H261V456H484l1 38v82z"/><glyph unicode="&#184400;" horiz-adv-x="1024" vert-adv-y="918" d="M863-6 825 15 790 37 757 61 728 88l-28 28-24 31-22 31-17 35-1 3V-40L571-72V251H453V-40L388-72V190l-22-30-31-36-33-33-35-31-36-27L193 9 153-13 111-30 67-44l-3 9 74 47 35 26 33 27 31 30 29 31 28 33 26 36 23 37 10 19H189v21H388V374H146v22H388V503H189v22H388v91H211v22H796l44 48 54-48V616H636V525H797l32 27 59-49-27-21V218l-64-32v65H636v-2l44-51 25-26 26-24 29-22 29-20 32-18 33-17 36-16 74-27-62-52L863-6zM571 374H453V272H571V374zm226 0H636V272H797V374zM571 503H453V396H571V503zm226 0H636V396H797V503zM571 616H453V525H571v91zM235 866l58-28 12-15-20-5-7-18-17-37-13-23H840l54 53 64-53V718H236l-14-23-22-32-24-30-25-28-27-27-30-24-31-22-6 7 45 58 41 60 36 63 15 33 14 34 13 35 11 36 3 8z"/><glyph unicode="&#184401;" horiz-adv-x="1024" vert-adv-y="918" d="M283 395l-2-63-1-15 57 15 79 19 4-9-37-19-72-34-35-15-10-61-13-54-16-50-20-47-24-42-27-38-31-33-34-29-7 7 26 35L142-2l20 39 17 41 14 45 11 48 9 50 2 27-102-40-9-3-5-21-16 13-30 58 166 46 1 33v61 1 87H98v22H220V867l64-11 16-10-16-10V505h20l44 48 54-48V483H284V396l-1-1zM531-58l-23-8-22 11-8 23 2 38 1 35-1 32-3 29-5 25-3 10-6 1 3 11-9 20-10 18-11 16-15 14 4 9 22-7 21-13 13-12 90 249 53 137 9-3-88-349-8-36-6-29-3-22-2-14-6 1 5-15 9-32 5-36 3-39V-36L531-58zM599 9V30H760V734H617v22H848l54 54 64-54V734H824V30h47l53 54 65-54V9H599zM483 485l-3 10-4 10-5 11-13 21-9 10-10 11-10 11-14 8 5 9 15-6 16-4 14-6 15-8 13-8 12-9 12-10 10-11 10-13 8-13-1-24-17-18-25 1-17 18-2 10zM138 787l60-27 12-14-20-6-11-28-24-48-13-25-32-48-17-25-20-24-22-23-8 5L91 634l18 50 16 48 6 23 4 17 3 15zM371 638l-5 16-5 17-5 16-13 32-23 49-10 15 7 7 29-24 14-13 14-14 23-30 11-17 10-16 18-36-2-24-19-17-24 3-17 18-3 18zm164 93-3 11-4 11-12 21-14 21-19 21-12 9 4 8 14-6 15-4 14-6 14-7 13-8 12-10 11-10 11-11 9-12 9-13V721l-17-17H555l-18 16-2 11z"/><glyph unicode="&#184402;" horiz-adv-x="1024" vert-adv-y="918" d="M880-55 832-34 789-11 751 16 717 45 689 76l-23 34-18 37-11 38-5 35H318v22H611l26 21 59-48-27-16-12-6 20-32 20-29 25-26 28-23 32-22 36-20 40-17L902 9l93-26-63-56-52 18zM344 189l53-36 9-18H385l-11-17-26-31-29-29-32-26L252 8 215-12 175-30 133-45 88-56 40-63l-3 9L81-37l41 19L160 2l35 21 32 23 29 24 25 26 23 28 20 29 17 31 3 5zm292 37zm88 67v16H831l7 1 5 1h3l2 1 1 1 1 1 1 2 1 3 1 5V875l64-11 16-11-16-10V331 317l-3-13-4-13-7-13-8-10-11-9-12-7-13-4-14-2-14-1v32L724 293zM201 421l49-42 7-18-23 2-14-13-35-27-41-25-46-24-54-20-5 8 83 67 32 31 25 30 10 14 9 14 3 3zM435 309l-6 10-7 9-9 11-21 21-43 33-18 10 4 9 19-6 20-5 19-5 16-6 16-7 15-8 14-8 14-9 23-20 5-24-12-21-24-5-21 13-4 8zM620 821l64-10 16-11-16-10V399l-64-32V821zM1e2 861l64-33H403l32 27 59-48-27-22V437l-64-33v33H164l-64-33V861zM403 565H164V458H403V565zm0 121H164V587H403v99zm0 121H164V707H403V807z"/><glyph unicode="&#184403;" horiz-adv-x="1024" vert-adv-y="918" d="M793-24V-8h54l6 1 5 1 3 1 3 1 1 1v1l1 1 1 4 1 5v6V218H749V-34L685-67V218H565V-45L501-77V584l64-32H685V681H468v21H685V869l64-11 16-11-16-9V702H865l54 54 64-54V681H749V552H868l33 26 59-48-27-21V14L932 1l-2-14-5-13-6-12-9-11-11-9-12-7-13-4-13-2-14-1v32L793-24zM385 39 374 97l-1 8-81-41L174 12 126-7l-7-20-15 12L75 44l11 3 64 15 11 63 35 189 24 146 7 49 2 10 62-21 13-14-18-7-17-77-24-96-27-94-29-92-17-45-2-6 76 21 69 19 55 14-16 63-25 90-16 61 9 4 34-55 15-28 26-57 23-58 10-29 18-59-5-24-20-14-24 4-14 20zM685 374H565V240H685V374zm183 0H749V240H868V374zM153 745l63-20 15-12-18-8-4-21-10-40-11-41-14-40-15-40-17-40-20-39-22-39-24-38-27-38-8 5 33 83 29 81 13 40 11 39 8 40 8 39 5 39 4 37 1 13zM424 406l-18 32-16 34-15 37-14 41-12 44-11 47-9 51-8 54-4 47H185v22H290l-2 1 33 26 59-48-27-16-16-8 38-118 34-85 16-36 18-33 18-28 18-25 21-25-57-42-19 28zM685 530H565V396H685V530zm183 0H749V396H868V530zM846 765l-10 22-13 19-15 18-17 17-11 6 3 9 13-3 13-3 13-3 14-5 12-6 12-8 13-8 22-21 11-12 3-25-14-20-24-3-20 14-5 12zM320 805v-1h1v1h-1z"/><glyph unicode="&#184404;" horiz-adv-x="1024" vert-adv-y="918" d="M411 132l39-52 1-20-19 8-71-42L296-7 263-23 227-37 190-51 152-63 112-74l-4 9L275 33l59 39 53 39 20 17 4 4zM823-42 804-24 763 11 713 44 657 76l-63 32 2 10 37-7 34-9 33-10 31-12 30-13 28-14 27-15 24-17L864 3l22-19 9-22-10-23-23-9-23 10-16 18zM55 148v22H485V272H259V256l-64-32V573l64-32H765l32 27 59-49-27-21V261l-64-32v43H550V170H856l54 54 64-54V148H55zM485 396H259V294H485V396zm280 0H550V294H765V396zM485 519H259V417H485V519zm280 0H550V417H765V519zM625 874l64-11 17-10-17-10V767H797l54 53 64-53V745H689V621l-64-32v32H394l-65-32V745H103v22H329V874l65-11 16-10-16-10V767H625V874zm0-129H394V643H625V745z"/><glyph unicode="&#184405;" horiz-adv-x="1024" vert-adv-y="918" d="M860-63 843-46 803-13 758 19 708 51 623 99l3 10 34-7 32-9 31-10 29-11 56-26 50-29 45-33 11-22-8-23-23-11-23 9zM391 128l40-51 1-19-19 7-68-42L282-9 249-24 180-51 143-62l-38-9-4 9L231 12l85 56 51 40 24 20zM44 148v22h81V532L99 495 72 459 43 425l-8 6 79 160 11 23v2h1l26 61 53 139 15 43 4 13 58-30 12-15-20-4-32-77-44-90-24-43-2-5 17-3 17-10-17-10V170H829V337H711v21H829V541H711v21H829V745H706v22H829l32 26 60-48-27-21V170h15l33 38 43-38V148H44zm550 93-9-9-10-8-11-7-11-6-12-5-12-4-13-3-13-2H490v32l-75 16v16h75l8 1 8 1 13 3 6 3 6 3 6 4 5 4 11 11 3 5 4 12 5 17 4 23 4 28 3 34 3 37 1 43 1 48 1 40H469V514l-65-32V863l65-10 16-11-16-10V734H581l44 49 54-49V713H469V6e2H582l32 27 59-49-27-16V537l-1-49-2-44-3-40-3-35-4-31-5-27-6-23-8-20-11-17-9-10zM265 654l64-11 16-11-16-9V412h91l44 48 53-48V390H329V288l-64-32V654z"/></font>
</defs>
</svg>
