<svg xmlns="http://www.w3.org/2000/svg"><defs><font name="Jigmo2 Regular" horiz-adv-x="1024" vert-adv-y="1024"><font-face font-family="Jigmo2" font-weight="400" font-stretch="normal" units-per-em="1024" ascent="995" descent="169"/><glyph unicode="&#177984;" horiz-adv-x="1024" vert-adv-y="918" d="M66-18V3H304l72 446H146v22H380l58 355 62-21 14-14-17-5-52-315H732l33 27 59-49-27-21V3h64l54 54L980 3V-18H66zM732 449H442L369 3H732V449z"/><glyph unicode="&#177985;" horiz-adv-x="1024" vert-adv-y="918" d="M899 837l65-54V761H679V573H840l32 27 59-48-27-22V261l-64-32v65H679V-45L614-77V294H437l-10-61-16-61-23-55-28-49-33-43-40-37-45-30-50-24-55-16-3 9 49 26 43 29 38 33 31 36 27 41 21 46 16 50 11 55 5 51H206V229l-65-32V605l65-32H378V761H82v22H845l54 54zM438 315H614V552H442V369l-4-54zM840 552H679V315H840V552zM614 761H442V573H614V761zM378 552H206V315H377l1 54V552z"/><glyph unicode="&#177986;" horiz-adv-x="1024" vert-adv-y="918" d="M442 684l64-15 16-12-18-9-8-85-17-98-23-91-30-85-37-78-42-71-50-63-55-55-63-48-68-39-5 8 61 47 55 52 48 57 43 63 36 69 30 75 25 82 18 88 13 94 7 102v12zm151-3 64-11 16-11-16-10V509H861l54 53 65-53V487H840V-40L775-72V487H657V385l-4-60-9-57-13-53-18-51-23-47-27-43-33-40L494-2 452-33 407-60l-5 8 37 35 34 36 30 37 25 40 21 41 17 45 13 46 8 49 5 53 1 55V681zM159 385l-2 25-4 24-5 23-6 24-7 23-17 44-20 45 7 6 19-17 17-19 30-43 13-23 11-24 9-25 9-26 7-27 5-28-7-23-22-12-23 7-12 21-2 25zm127 76-2 19-2 19-4 21-6 21-16 44-22 48-13 24 8 6 39-40 17-21 14-22 13-22 11-22 9-22 8-23 6-22 4-23-9-23-22-11-23 9-11 22 1 18zM899 831l65-54V756H82v21H845l54 54z"/><glyph unicode="&#177987;" horiz-adv-x="1024" vert-adv-y="918" d="M743-29v16h75l7 1 5 1 5 1 2 2 1 5 1 5 1 7V562H544V-34L480-67V562H184V-45L120-77V616l64-32H480V777H60v22H845l54 54 65-54V777H544V584H647l77 115 23 36 20 35 3 4 50-41 8-17-22 1-60-65-55-49-24-19H840l32 27 59-49-27-21V9L903-5l-2-13-4-13-7-13-9-10-10-9-13-7-13-4-13-2-14-1v32L743-29zM399 76l-7 12-14 24-17 23-22 26-19-30-19-26-21-23-22-22-26-20-27-18-6 6 37 51 31 49 13 26 12 24 9 26 7 26 6 26 4 27 3 11 61-22 14-13-20-8-2-10-11-29-12-28-3-6 22-9 27-16 13-9 13-11 24-22 11-12 5-24-14-21-24-4-21 13-5 13zM785 45 764 58 742 97l-8 13-18 24-22 27-16-24-18-24-19-23-21-23-24-21-25-19-7 7 49 76 25 50 12 25 9 25 8 25 6 25 6 25 2 10 61-25 12-14-20-6-13-35-13-27-5-10 7-3 14-7 15-8 14-9 14-10 26-22 24-25 5-24-13-21-24-4zM399 317l-11 22-12 22-8 11-16 22-14 16-20-31-18-23-19-23-22-21-23-20-25-18-7 7 49 74 26 47 11 24 9 24 8 24 7 24 4 24 3 9 60-25 13-14-19-6-14-33-12-25-2-3 7-2 15-7 13-7 14-8 25-18 22-20 10-11 4-25-14-20-24-4-20 14zm355 14-4 11-5 11-7 10-7 12-19 21-17 17-21-34-17-23-19-22-21-22-22-20-24-18-7 7 31 50 28 47 12 24 10 24 9 23 7 25 7 24 7 33 61-25 13-14-20-6-13-32-13-26 9-3 16-6 15-6 14-8 14-9 24-21 11-12 10-13 1-25-15-19-25-1-19 15-4 11zM310 629l-4 12-15 26-22 28-27 29-17 16-18 15 6 8 42-19 19-11 19-10 16-12 30-24 24-28 10-14 1-25-17-18-24-1-19 16-4 12z"/><glyph unicode="&#177988;" horiz-adv-x="1024" vert-adv-y="918" d="M879-34 835-1 793 40 754 85l-34 53-32 57-29 64-26 69-21 76-9 42-37-84-49-88-56-80-63-71-70-64L251 5 168-40 78-76l-4 9 84 44 77 52 70 57 63 65 57 70 49 79 43 85 37 93 31 101 23 105 2 13 61-22 14-14-19-7-22-91-32-94 21-58 31-71 30-65 33-58 34-52 36-45 38-38 39-33 40-25 75-35-61-50-49 27zM423 854l59-26 13-15-19-5-14-40-23-58-25-56-28-54-31-52-33-49-36-47-39-44-42-42-45-38-7 7 37 45 67 93 31 48 28 50 49 105 21 55 18 57 16 58 3 8z"/><glyph unicode="&#177989;" horiz-adv-x="1024" vert-adv-y="918" d="M845 332l-10 21-14 22-17 24-6 7-106-20-138-22 50-89 36-56 38-49 39-43 42-37 42-31 45-26 46-19L940 0l45-12-63-56-55 20-51 26-49 32-45 38-41 45-39 49-35 56-31 62-27 67-7 20-6-24-31-82-39-72-45-64-54-54L308 5 241-30 167-56 88-71l-2 9 75 25L228-4l59 38 52 46 46 53 38 61 32 68 25 77 3 14-312-45-8-17-13 14-18 63 131 12 84 140 52 98 23 52H77v21H485V858l65-11 16-10-16-10V691H851l53 54 65-54V670H455l30-19 10-17-21-1-25-43-41-63-47-64-53-65-14-15 114 10 69 5 17 2 5 24 12 93 2 12 62-18 15-13-18-8-13-77-2-8 131 10 72 4 27 1-27 32-88 91-35 34 6 8 80-52 66-52 28-25 25-24 22-24 19-24 16-23 13-24-1-25-17-17H870l-18 18-7 19z"/><glyph unicode="&#177990;" horiz-adv-x="1024" vert-adv-y="918" d="M770 358l65-54V283H559l-5-42-10-50-17-45-22-43-27-39-33-35L408-3 365-30 318-53 266-71l-3 9 46 28L350-5l35 30 31 32 25 34 20 36 16 38 11 40 6 43 1 35H189v21H716l54 54zm95 73-51 28-50 32-48 35-45 39-43 42-42 46-39 50-36 53-16 29-41-65-39-54-42-53-45-50-49-47-51-46-55-43-59-40-62-38-6 8 56 46 52 46 50 47 46 49 44 49 40 51 37 52 35 53 30 56 28 56 3 6 55-34 10-17-20-2-9-15 69-77 43-43 44-40 44-36 46-34 47-29 48-27 49-23 87-33-62-52-53 25zM646 525l65-54V449H292v22H593l53 54z"/><glyph unicode="&#177991;" horiz-adv-x="1024" vert-adv-y="918" d="M668 621l64-53V546H544V417H775l33 27 59-48-27-22V202l-65-32v54H544V-51L480-83V224H254V159l-65-32V449l65-32H480V546H308v22H614l54 53zM759 30l-8 13-10 14-11 14-13 14-49 43-19 16-21 14 3 9 49-17 23-10 21-10 19-11 18-13 17-12 16-14 14-14 13-15 3-25L810 6 786 2 766 16l-7 14zM480 396H254V245H480V396zm295 0H544V245H775V396zm115 96-43 24-43 28-44 31-43 34-44 37-43 41-44 43-43 48-20 25-51-61-44-46-47-44-50-43-52-41-55-38-58-36-61-34-64-30-5 8 58 39 109 82 50 41 48 43 45 45 42 45 40 47 36 48 37 53 50-40 8-18-21 1-6-8L655 716l46-35 90-61 44-25 43-23 42-19 75-31-62-52-43 22z"/><glyph unicode="&#177992;" horiz-adv-x="1024" vert-adv-y="918" d="M305 872l58-30 11-16-20-4-44-98-57-113-31-55-6-10 33-5 16-11-16-10V-45L185-77V494l-63-93-37-48-39-46-8 6 89 156 55 108 52 112 46 116 25 67zM597 752l56-34 11-16-19-4-45-112H835l53 54 65-54V564H591L496 327H637V501l64-11 16-11-16-10V327h70l53 54 65-54V306H701V153H863l53 54 65-54V132H701V-39L637-71V132H325v21H637V306H495l-43-43-36 36h-1v1l-17 17 36 29 87 218H353v22H530l67 166zM384 613l-24 8-9 23 9 23 6 5 7 8 7 12 7 14 7 19 6 21 5 23 10 57 3 32 10 1 4-33 2-22H887l33 27 59-49-27-16-16-6-8-14-38-57-23-31-12-18-9 5 8 19 5 20 10 35 4 17 5 15 3 15 3 14 1 2H436l1-15V741l-1-24-2-22-4-21-6-19-8-17-10-15-22-10z"/><glyph unicode="&#177993;" horiz-adv-x="1024" vert-adv-y="918" d="M781 546l59-48-27-22V251l-64-33v43H423l-19-36-36-51 20-9H781l32 26 59-48-27-22V-40L781-72v43H388V-45L324-77V121l-6-6-52-48-57-43-63-37L78-44l-4 9L136 5l56 42 51 46 44 49 37 49v6l3-2 33 56 6 10H195v22H376l13 27 23 64 1 6H130v21H419l11 41 9 56H249v21H749l32 27zm0-403H388V-8H781V143zM749 380H474l-7-25-29-67-3-5H749v97zm0 118H505l-16-71-8-26H749v97zm141 26-43 23-43 27-43 29-41 31-41 34-41 37-40 40-38 43-21 27-21-24-44-47-47-45-49-43-37-29H582l54 54 64-54V605H335v16l-62-45-56-36-58-35-60-31-63-28-5 8 113 76 53 39 52 40 48 41 47 44 45 44 42 45 41 48 38 49v-1l3 3 47-42 7-19-15 2 111-88 43-31 43-29 43-27 84-45 42-18 78-31-62-51-44 21z"/><glyph unicode="&#177994;" horiz-adv-x="1024" vert-adv-y="918" d="M602-29v16H709l7 1 5 1 3 1h2l1 1 1 1 1 2 1 3V2l1 7V208H309v21H731v97l64-11 16-11-16-9V229h62l54 54 64-54V208H795V9-5l-3-13-4-13-7-13-9-10-11-9-11-7-13-4-14-2-14-1v32L602-29zM274 857l58-29 11-16-19-4-41-96-53-111-34-63 31-5 16-11-16-10V-41L163-73V481l-22-36-33-49-35-47-36-45-8 5 81 154 50 105 48 110 43 113 20 59 3 7zM539 56l-5 12-13 24-8 13-20 25-22 26-14 13 5 8 17-9 17-7 31-17 14-10 26-22 12-11 21-25 3-24-15-20-25-2-19 15-5 11zM458 353V315l-65-32V654l65-33H606v81H313v22H606V863l65-10 16-11-16-10V724H853l54 53 65-53V702H671V621H818l33 27 59-48-27-22V331l-65-32v54H458zM606 476H458V374H606V476zm212 0H671V374H818V476zM606 6e2H458V498H606V6e2zm212 0H671V498H818V6e2z"/><glyph unicode="&#177995;" horiz-adv-x="1024" vert-adv-y="918" d="M273 871l58-29 12-15-19-4-40-99-53-113-34-65 31-5 16-11-16-10V-45L164-77V487l-53-85-33-48-36-46-8 4 78 157 50 108 46 111 43 116 19 60 3 7zM759 145h-1l6 10 53-36 9-17-22-1-29-35-26-28-29-28L704-4l-2-1H846l54 53L965-5V-27H311V-5H685l7 10 36 71 15 32 16 37zM515 30l-3 11-4 11-12 23-14 24-18 25-13 11 6 9 15-9 15-7 14-8 26-19 12-10 11-11 10-12 9-12 9-14-1-24L559 1H535L517 18l-2 12zM423 388l64-32H789l32 27 59-49-27-21V176l-64-32v32H487l-64-32V388zm366-54H487V198H789V334zm84 165 65-54V424H338v21H820l53 54zm15 4-37 18-34 22-31 26-18 20-28-23-38-25-41-20-44-15-47-11-3 9 42 21 38 22 36 24 32 27 25 25-7 9-21 36-18 40-15 43-9 42H614v22H839l32 27 59-49-27-16-9-4-11-26-22-43-25-41-28-36-3-2 17-14 28-19 30-15 31-11 79-21-63-57-39 15zM515 850l64-10 16-11-16-10V526l-64-32V850zM355 799l65-10 16-11-16-10V537l-65-33V799zm479-6H682l40-70 23-34 24-29 22 33 19 37 16 40 8 23z"/><glyph unicode="&#177996;" horiz-adv-x="1024" vert-adv-y="918" d="M412 132l42-49 3-18-19 5-39-28-31-19-65-36-35-17-75-29-41-12-42-11-3 9L249 6l61 41 54 41 48 44zM837-60 803-22 783-4 761 14 713 47 658 78l-62 32 3 9 36-6 33-8 33-10 31-12 29-13 28-15 26-16 25-17L863 3l22-20 8-23-10-22-24-8-22 10zm84 3e2 64-54V165H44v21H867l54 54zM286 847l65-10 16-11-16-10V256l-65-32V847zM555 272v16h75l7 1 5 1 4 1 3 3 1 4 1 5 1 7V664H410v22H652V853l64-11 16-11-16-10V686H835l53 54 65-54V664H716V310l-1-14-2-13-4-13-7-12-9-11-11-9-12-7-13-4-13-2-14-1v32l-75 16zM125 777l64-10 17-11-17-10V299l-64-32V777zM519 585l60-25 13-15-20-6-15-41-13-30-14-28-32-53-18-25-19-24-20-22-23-20-7 6 39 78 23 53 11 27 18 57 8 29 6 25h-1l4 14zM865 369l-6 20-7 20-17 43-36 69-29 50 7 7 44-40 19-21 34-42 14-22 13-21 12-22 10-22 8-22-3-24-20-15-24 3-15 19-4 20z"/><glyph unicode="&#177997;" horiz-adv-x="1024" vert-adv-y="918" d="M715-18V-2H823h6l5 1 3 2h2l1 1 1 1 1 2 1 3 1 5v6V750H185V-45L120-77V804l65-32H844l32 27 60-49-27-21V19L908 6 906-8l-5-12-6-13-9-11-11-8-12-7-13-4-13-3-14-1v33L715-18zM643 711l2 5 3 7 56-33 10-17-21-3-25-41-41-59-31-38-17-19-4-4H693l54 53 64-53V487H539V342h96l44 48 53-48V320H539V148H706l53 54 65-54V127H2e2v21H313V385l65-11 16-11-16-9V148h96V487H228v22H557l55 124 25 63 6 15zM382 567l-4 15-6 16-7 15-8 15-18 29-21 30-13 13 6 9 34-19 16-12 15-11 14-13 13-15 13-15 11-16 11-17 9-18-1-25-18-17-25 2-16 18-5 16z"/><glyph unicode="&#177998;" horiz-adv-x="1024" vert-adv-y="918" d="M557 272l62-21 14-13-20-8-8-32-20-50-27-44-32-41-38-35L444-3 395-28 341-49 281-66 216-76l-1 9 60 21 55 23L379 3l42 28 37 31 30 34 25 37 19 40 14 42 8 41 3 16zM762-40l-14 1-13 2-13 5-12 7-11 8-9 11-7 12-4 13-2 14-1 13V281H504V216l-65-32V835l65-32H818l32 27 59-48-27-22V248l-64-32v65H740V46l1-6 1-5 1-3 1-2V29l1-1 2-1 4-1 5-1h6H910l32 134h11L942 25l19-13L974-8 961-27 942-40H762zM160 180l10-15 12-31 10-32 7-33 2-35-1-35-12-21-24-6-21 12-7 24 4 28 1 29-2 27-4 28-8 27-10 27-14 28-16 28-41 57 7 7 30-22 27-24 11-13 49 71 73 120L365 640l8-4-48-123-46-106-62-129-36-65-17-28-4-5zM818 455H504V302H818V455zm0 163H504V476H818V618zM206 640l-7 14-8 14-10 13-24 27-14 13-32 27-19 12 4 9 43-14 21-8 19-9 18-11 17-12 15-13 15-14 13-15 12-17 2-24-15-19-25-2-19 15-6 14zM818 782H504V640H818V782z"/><glyph unicode="&#177999;" horiz-adv-x="1024" vert-adv-y="918" d="M360 541l65-32H863l53 53 65-53V487H425V342l-3-55-7-53-9-49-13-47-16-44-20-41-23-38-26-34-29-30-33-26-7 7 24 33L285-2l19 35 16 37 14 39 10 42 9 44 5 46 2 49V541zM932 188l20-30 19-21 1-19-19 8-33-20-52-28-53-25-57-23L699 8 636-11 572-28 504-44 434-56 361-66l-2 10L497-16 562 5l61 22 59 24 56 25 53 26 50 28 47 28 44 30zm-775-7 9-16 13-31 9-32 7-33 2-35-1-35-12-21-24-6-21 12-7 24 4 28 1 29-1 27-5 28-7 27-10 28-13 27-16 28-19 28-21 29 6 7 30-23 26-24 11-12 48 70 71 120L357 640l9-4-70-178-44-98-58-116-33-58-4-5zM887 334l13-21 28-29V265l-19 8-71-38-90-38-47-18-49-16-51-14-52-13-54-11-56-8-2 9 153 56 93 39 87 43 41 23 76 47zM821 468l21-32 18-19 1-20-19 9-50-28-35-17-36-15-38-15-39-13-41-13-42-10-44-10-45-7-2 10 122 51 73 34 35 18 64 37 57 40zm-60 75-19 14-49 30-11 5-89-34-46-16-101-27-3 9 177 87 12 6-151 68 3 10 45-9 43-10 39-10 70-22 45 26 57 37 20 15 2 2H353v21H628V869l65-11 16-11-16-9V745H849l54 54 64-54V724H809l26-38 11-12 1-19-20 8-42-24-41-20 26-12 24-12 22-13 13-21-5-24-21-13-24 6-18 13zM201 640l-7 14-17 27-24 27-14 13-31 27-18 12 4 9 43-14 38-17 18-11 16-12 16-13 27-29 12-17 2-24-15-19-25-2-19 15-6 14z"/><glyph unicode="&#178000;" horiz-adv-x="1024" vert-adv-y="918" d="M695-18V-2H802h7l5 1 4 2 3 2 1 5 1 5 1 6V578l64-10 16-11-16-10V19L887 6 885-8l-4-12-7-13-9-11-11-8-12-7-13-4-13-3-14-1v33L695-18zM134 590l65-32H393l32 27 59-48-27-22V32L393-1V64H199V-1L134-33V590zm475-28 64-10 16-11-16-10V111L609 78V562zM393 301H199V85H393V301zm0 236H199V322H393V537zM676 870l55-35 9-16-21-2-46-69-40-53-16-18-4-4H849l54 53 64-53V651H78v22H598l21 56 47 117 5 13 5 11zM361 721l-4 15-12 29-8 15-17 30-21 31-13 15 6 7 17-11 17-10 16-12 29-25 13-14 23-29 18-32-1-24-17-17H382l-17 18-4 14z"/><glyph unicode="&#178001;" horiz-adv-x="1024" vert-adv-y="918" d="M785-50 762-60l-11-4-12-3-12-3-12-2-12-2-12-1H679v32L571-27v16H679l17 1 10 1 8 2 17 4 16 7 8 4 8 4 9 7 9 8 9 11 7 14 7 17 7 19 5 22 4 25 3 28 1 20H546l-30-49-41-49-47-43L374 5 315-26 250-51 178-70 101-82l-2 9 74 23 66 26L299 5l53 34 47 37 39 42 33 46 10 19H157v21H493l5 10 21 54 14 55h-1l4 15 61-24 13-14-20-7-13-45-20-44H825l32 27 59-48-27-16-1-1-1-7-3-32-4-29-7-27-8-25-9-23L844 3 830-16 814-31 795-44l-10-6zM174 523l-1 11-2 10-2 11-6 20-9 20-4 10-8 8 6 8 10-7 11-5 20-14 10-10 17-19 15-24 6-14-3-24-3-2h99l4 7 20 43 22 50 4 12 2 6h-1l2 3H39v21H254v95H82v21H254V864l64-10 17-11-17-10V760h65l54 54 64-54V739H318V644H441l44 48 54-48V623H399l41-29 10-17-24-1-33-34-11-11-24-21-10-8h88l44 49 54-49V481H318V386h54l54 54 64-54V364H318V269l-64-32V364H77v22H254v95H44v21H183l-8 9-1 12zM916 263l-28 24-22 30-18 37-14 42-10 49-8 56-4 61-1 69 2 63H727V640l-1-1-3-47-7-43-4-16 30-26 20-22 18-23 16-25 2-25-16-18-24-2-19 16-10 22-13 21-14 20-7 8-17-39-19-29-22-25-24-21-27-16-29-10-4 9 22 18 19 21 16 22 14 24 12 27 10 29 7 33-28 23-50 33-28 17 4 9 33-7 30-10 29-12 16-8 2 31 2 43v53H539v21H663V864l64-10 16-11-16-10V715h86l32 27 59-48-26-17h-2l-1-46 1-66 5-58 6-51 9-43 12-36 13-27 12-16 25 111h11L959 314l8-4 19-16 3-25-16-18-24-3-33 15z"/><glyph unicode="&#178002;" horiz-adv-x="1024" vert-adv-y="918" d="M480 364l64-11 16-11-16-9V182H856l54 54 64-54V161H544V-45L480-77V161H50v21H480V364zM413 853l64-33H837l32 27 59-48-27-22V401l-64-32v64H477V369l-64-32V853zm-256 0 65-11 16-11-16-10V390l-65-32V853zM837 621H477V455H837V621zm0 178H477V643H837V799z"/><glyph unicode="&#178003;" horiz-adv-x="1024" vert-adv-y="918" d="M186 837l64-11 16-11-16-10V525h34l53 53 65-53V503H250V-45L186-77V503H44v22H186V837zM391-68 352-15 387 1l26 11L648 127l5-8-54-47L492-5 440-38 410-56l-2-21-17 9zM916-44 901-26 866 8 826 40 784 70l-71 47 3 9 29-7 28-8 27-9 26-11 25-13 47-27 23-16L962 2l9-23-9-23-23-9-23 9zM906 360l41-50 2-19-19 6-71-51-69-44-23-13-23-13-25-11-5 8 36 39L905 359l1 1zM556 199l-9 16-10 15-12 15-14 15-15 14-16 15-38 29-22 13 3 9 26-7 24-8 23-9 22-11 21-12 19-13 17-14 17-17 14-16 14-18 2-25-15-20-25-2-19 15-7 16zM849 447l-9-9-10-8-10-8-11-6-12-6-12-4-13-2-13-2-13-1v32L638 449v17H746h7l8 1 13 3 6 3 5 3 5 4 6 4 5 6 11 16 6 12 7 15 6 18 5 20 5 23 4 25 7 58 1 20H666l-19-50-28-56-33-50-38-44-42-38-48-33-51-26-56-19-4 9 50 28 45 32 40 35 36 39 31 44 26 47 22 52 9 30H387v21H613l15 67 9 66 1 12 63-20 14-12-18-8-9-50-15-55H854l33 27 59-48-27-16-2-1-1-9-3-31-4-30-5-28-5-26-6-23-8-22-8-20-9-17-10-17-9-10z"/><glyph unicode="&#178004;" horiz-adv-x="1024" vert-adv-y="918" d="M888 35l33 135h10L921 35l19-12L953 3 940-16 921-29H657l-14 1-13 2-13 4-13 7-10 9-9 11-7 12-4 13-2 14-1 13V267H435l-9-53-18-56-24-50-31-44-37-38L273-6 224-31 170-49 110-61 45-66 43-56l63 15 54 19L209 1l41 27 35 31 29 35 23 39 17 44 12 49 4 41H82v21H835l53 54 65-54V267H636V51l1-5 1-5 2-2 5-2 5-1 7-1H888zM173 406v22H318V568H82v21H480V724H163v21H480V858l64-11 16-10-16-10V745H759l54 54 65-54V724H544V589H835l53 54 65-54V568H706V428h43l53 54 65-54V406H173zM383 568V428H641V568H383z"/><glyph unicode="&#178005;" horiz-adv-x="1024" vert-adv-y="918" d="M125 831l64-32H867l54 54 64-54V777H189V449l-3-75-5-71-8-66-10-61-13-57-16-51-19-45L94-18 70-52 42-80l-7 6L52-41 68-5 82 35 95 80l10 50 8 54 7 59 3 64 2 69V831zM873-24 822 6 774 42 730 82l-41 46-37 50-33 55-30 61-25 65-19 66H366V40L556 85l116 24 2-10L513 38 234-57l-7-19-14 13L185-4 302 24V708l64-32H799l32 27 59-49-27-21V425l-64-33v33H556l29-58 33-59 34-54 37-49 6-7L838 335l44 47 5 5 44-48 3-19-20 6-86-65-81-52-30-18-11-6 21-24 40-38 43-34 45-28 47-24L989 4 927-48 873-24zM799 654H366V446H799V654z"/><glyph unicode="&#178006;" horiz-adv-x="1024" vert-adv-y="918" d="M239 301v-7H426V466H243V353l-4-52zm104-74 57-31 11-16-21-3-20-37-18-27-20-26-21-25-46-46L239-5 211-25 181-44l-6 9 64 75 19 25 34 51 26 51 12 27 13 33zM932-20 908-1 861 41 817 86l-42 49-38 53-16 29 8 6L851 123l72-53 69-45-60-45zM636 466H490V294H636V466zm209 0H7e2V294H845V466zM649 653l-20-15-12-6-10-6-12-5-12-3-12-3-12-2-13-2H534v32L426 659v16H534l8 1 8 1 8 1 7 2 15 5 14 7 14 11 1 1 6 8 8 15 9 22 9 23H376l-32-39-31-35-35-34-39-34-13-11 17-8H856l54 53 64-53V589H243V487H845l33 27 59-48-27-22V240l-65-32v64H7e2V-51L636-83V272H490V-51L426-83V272H236l-3-22-10-48-13-47-17-44-20-42-23-39L123-6 92-40 58-70l-7 7L77-27 99 10l20 38 17 39 14 40 11 42 9 43 6 46 3 46V582l-26-19-49-32-52-32-6 8 89 78 44 42v16l10-5 56 58 30 35 27 35 23 35 20 34 20 39 55-35 9-17-21-1-11-18-6-10H646l33 27 59-48-27-16-9-4-9-26-6-14-11-23-6-11-6-9-15-16z"/><glyph unicode="&#178007;" horiz-adv-x="1024" vert-adv-y="918" d="M453-29v16H560l7 1 5 1 5 1 2 2 1 5 1 5 1 7V116H222v22H582v91l51-8 116 62H313v21H788l33 19 1-2 13 10 59-48-27-16-65-27v9l-59-18-23-7-48-12-13-2 4-2-17-10V138H867l54 53 64-53V116H646V9L645-5l-2-13-4-13-7-13-9-10-10-9-13-7-13-4-13-2-14-1v32L453-29zM146 826l65-33H851l53 54 65-54V772H622l-18-32-23-34-19-24-10-12h-1H808l32 27 59-49-27-21V390l-64-32v43H394V385l-65-32V702l65-32H538l2 6 3 15 4 15 3 14 3 13 6 37v2H211V476l-3-73-5-70-7-65-9-60-12-57-14-52-16-47-18-42-23-37L80-58l-8 5L87-18l13 39 11 42 11 46 8 51 7 55 5 58 3 64 2 67-1 72V826zM808 525H394V423H808V525zm0 123H394V546H808V648z"/><glyph unicode="&#178008;" horiz-adv-x="1024" vert-adv-y="918" d="M610 869l64-11 16-11-16-9V605H867l54 54 64-54V584H673l-7-99-14-101-22-90-30-83-36-72-44-63-52-53-58-42-64-32-71-20-2 9 64 30L394 5l50 44 43 52 37 60 30 69 24 78 17 87 11 95 3 94H391v21H610V869zM928 19l32 135h11L960 19 980 6l13-19-13-19-20-13H757l-14 1-13 2-13 4-13 7-10 9-9 11-7 12-4 13-2 13-1 14V471l65-11 16-11-16-9V34l1-4 1-5 2-2 5-2 5-1 7-1H928zM78 745l64-32H292l32 27 60-49-27-21V186l-65-32v64H142V154L78 121V745zm214-54H142V240H292V691z"/><glyph unicode="&#178009;" horiz-adv-x="1024" vert-adv-y="918" d="M60-44v22H458V366l65-11 16-11-16-10V192H781l54 54 64-54V171H523V-22H845l54 54 65-54V-44H60zM749 348v16h75 6l5 2 5 1 2 2 2 5 1 5v6V715H179V335l-65-32V769l65-32H365l92 98 31 36h-1l5 5 44-48 3-18-22 5-42-29-34-22-37-21-13-6H845l33 26 59-48-27-21V385l-1-13-2-13-5-13-7-13-8-10-11-9-12-7-13-4-14-2-13-2v33l-75 16zM329 661l65-32H630l33 27 59-49-27-21V426l-65-32v54H394V410l-65-32V661zm301-54H394V469H630V607z"/><glyph unicode="&#178010;" horiz-adv-x="1024" vert-adv-y="918" d="M434 869l53-11 14-11-14-9V724h35l44 48 54-48V702H487V6e2h49l29 27 57-49-27-18V256l-59-30v51H487V154h21l54 54 65-54V132H487V-48L434-75V132H294v22H434V277H382V240l-54-27V627l54-27h52V702H301v22H434V869zM921 8l-5 26-12 54-6 23-67-32-64-27-93-35L636 3l-6-20L615-4 587 54l10 4 79 18 24 104 29 124 17 76 12 66 1 3v3l1 3H641v21H853l54 54 64-54V455H778l44-17 14-14-19-7-15-51-24-76-45-121-35-86-1-2 156 40 36 9h3l-12 41-30 89 8 4 20-25 18-27 16-27 14-26 26-55 11-28 9-28L988-7l-6-24-20-14-24 6-14 20-3 27zM53 745l64-32h89l29 27 57-49-27-18V186l-59-30v62H117V154L53 121V745zm153-54H117V240h89V691zM434 433H382V299h52V433zm102 0H487V299h49V433zM434 578H382V455h52V578zm102 0H487V455h49V578zM878 799l53-49V729H665v21H834l44 49z"/><glyph unicode="&#178011;" horiz-adv-x="1024" vert-adv-y="918" d="M698-26v16H806h6l5 1 5 2 2 2 1 5 1 5 1 6V376H197V-38L132-70V430l65-33H827l32 27 59-48-26-22V11L890-2l-2-14-4-12-7-13-9-11-10-8-13-7-13-5-13-2-13-1v33L698-26zM320 254l64-33H639l33 27 59-48-27-22V42L639 10V64H384V26L320-6V254zm319-54H384V85H639V2e2zm64 153 54-49V283H267v21H659l44 49zM541 864l65-32H875l32 27 59-49-27-21V469l-64-32v43H606V464l-65-32V864zM428 578l-9 16-23 29-13 14-15 14-35 28-19 14-1-222-64-32V663l-28-38-23-29-26-26-28-25-30-23-32-20-34-18-5 8 52 52 47 53 38 56 17 30 15 30 13 32 4 10H65v22H249v95l64-11 16-11-16-9V777h76l54 54 65-54V755H313V710l32-9 22-9 22-10 20-11 19-12 18-14 17-15 15-17 13-17 3-25-14-19-24-4-20 15-8 15zm447 17H606V502H875v93zm0 108H606V617H875v86zm0 107H606V724H875v86z"/><glyph unicode="&#178012;" horiz-adv-x="1024" vert-adv-y="918" d="M563 105l-11 27-14 27-18 26-11 14-15 18V-56L430-88V175l-22-45-20-34-21-31-23-29-25-25-27-22-7 7 36 57 16 30 30 66 13 35 11 38 10 40 9 42 5 27H289v22H430V487l64-11 16-10-16-10V353h27l54 53 64-53V331H494V238l18-8 16-9 16-10 29-22 13-12 13-14 22-28 1-25-15-19-25-1-19 15zM707 638h99l13 62 15 63 16 74 3 8 58-29 12-15-21-5-42-87-22-41-13-21-6-9h37l54 53 64-53V616H858V444h11l44 48 54-48V423H858V245h11l44 49 54-49V224H858V25h12l54 53 64-53V3H728V-34L663-67V550l-13-22-20-31-22-28-8 5 5 14-18-12H568l-14 1-13 3-13 5-12 6-10 10-9 10-5 12-5 13-2 13V713H447V664l-3-45-7-42-8-38-12-35-15-32-17-28-20-24-22-19-26-16-26-9-4 8 20 17 18 19 15 20 13 23 11 26 9 29 7 32 5 35 3 39v41 48H301v21h87V869l59-11 15-11-15-9V734h38l30 27 56-48-27-19V562l1-6 1-5 1-4 2-2 1-1h1l2-2h2l32 133h11L587 541l20-13 8-13 35 96 23 74 10 39 20 82 8 39 3 14 61-24 13-14-19-6-20-66-14-41-15-39-13-31zm87-414H728V25h66V224zM46 745l65-32h83l33 27 59-49-27-21V186l-65-32v64H111V154L46 121V745zm148-54H111V240h83V691zM794 423H728V245h66V423zm0 193H728V444h66V616z"/><glyph unicode="&#178013;" horiz-adv-x="1024" vert-adv-y="918" d="M190-22 167 40l96 13 7 1V369H2e2v21H367v97H222v22H479l44 48 54-48V487H431V390h69l44 49 54-49V369H523V-51L458-83V56L394 34 332 16 211-16l-8-19-13 13zM874-37 832-3 794 34 761 76l-1 2-30-37L688 0 643-34 593-62 540-82l-3 9 47 29 41 33 39 36 35 42 30 46 5 8-24 49-18 53-13 55-8 60-1 22-16-34-38-65-22-31-24-30-9 5 43 103 12 34 11 34 10 34 8 34 7 33 6 35 3 28 3 16 61-19 15-13-19-8-3-16-10-36-11-35v-1H856l54 54 64-54V406H892l-16-70-21-71-25-65-29-59-9-14 13-18 32-34 35-29 38-26 71-37-61-49-46 29zM114 627l65-32H871l44 48 54-48V573H179V310l-3-51-5-49-7-47-9-44-11-41-13-38L115 5 97-27 77-55 53-80l-8 6L59-45 82 18 92 53l8 37 6 38 5 42 3 45 1 46-1 49V627zM458 159H335V63l52 6 33 4 34 3h4v83zM826 406H689l-4-12-3-7 11-45 17-55 19-52 22-46 10-16 19 47 20 62 16 68 10 56zM458 261H335V181H458v80zM335 369V283H458v86H335zM265 659l-65-32V853l65-33H802l33 27 59-48-27-22V659l-65-32v32H265zM501 799H265V681H501V799zm301 0H566V681H802V799z"/><glyph unicode="&#178014;" horiz-adv-x="1024" vert-adv-y="918" d="M325-26v16H439l5 1 3 1 2 2h1l1 1 2 5 1 5v7V153l-16-21-20-22-21-21-22-19-24-17-26-14-6 8 52 65 30 46 26 49 10 25 10 27 2 6H325v22H489l-11 7-4 10-4 10-13 20-17 20-20 21-12 11-14 9 3 9 17-6 16-4 15-6 15-6 14-7 20-13 33 49 12 21H343v21H550l4 4 4 6 2-2 22 19 60-48-27-16-34-14-52-36-21-13 15-14 10-11 4-24-13-17h36l4 3 1 2 1-1 27 22 59-48-27-16-26-11-12-11-20-17-22-16-13-9-11-10-2 2V12L518-2l-2-14-5-12-6-12-9-12-11-8-12-7-13-4-14-3H433v32L325-26zM46 745l65-32H212l32 27 59-49-26-21V186l-65-32v64H111V154L46 121V745zM883 187l-36 14-32 17-30 18-14 10-12-8-29-18 49-10 16-11-18-11-3-21-3-16h90l33 27 59-48-27-17h-1l-1-14-1-18-1-17-5-29-2-12-6-22-5-11-7-11-8-11-8-9-10-10-11-7-11-6-13-4-12-4-14-2H797v32L722-26v16h82l7 1 6 2 5 2 5 2 4 4 5 3 3 5 4 5 6 9 1 5 4 18 2 12 1 13 2 15 1 17 1 27H766L751 89 732 54 709 24 681-2 649-25 612-42 572-56 528-66l-3 10 39 18 35 21L628 4l25 24 20 25 16 27 12 29 6 21H606v21H711l3 23v36 1l-31-15-43-17-46-14-48-10-3 9 86 41 37 22 35 23 30 24 4 4-22 26-17 26-13 28-4 15-21-19-16-13-37-22-6 7 14 16 23 33 10 16 9 16 8 16 7 16 6 16 5 17 3 11h-1l2 4 3 10 58-29 12-16-22-4-9-17-12-17-1-2H833l54 54 65-54V391H896l-22-38-24-33-27-30-9-8 26-11 30-10 33-9 82-19-63-58-39 12zM556 265H519V188l4 6 28 60 5 10v1zM212 691H111V240H212V691zM824 391H696l-5-7 31-36 20-18 21-18 5-3 15 17 21 29 17 29 3 7zM339 569l-22 11-7 23 11 22 6 3 7 6 7 8 6 11 7 13 6 16 5 17 10 43 2 25h10l2-25 2-12H611v71H397v22H807l44 48 54-48V801H676V730H907l32 26 59-48-27-16-18-8-21-26-17-18-18-16-7-10-8 5 5 11 2 11 3 12 2 11 8 34 2 10H676V504l-65-32V708H394l1-11V676l-1-20-3-18-4-17-6-16-8-15-10-14-24-7zm505 22 53-48V521H703v22h97l44 48zm-314 0 54-48V521H389v22h97l44 48zm10 78 44-37V610H408v22h99l33 37zm288 0 43-37V610H703v22h92l33 37z"/><glyph unicode="&#178015;" horiz-adv-x="1024" vert-adv-y="918" d="M342-42v22H630V117H403v22H630V268H485V230l-65-32V640l65-33H840l32 27 59-48-27-22V246l-64-32v54H695V139H803l54 53 65-53V117H695V-20H865l53 53 65-53V-42H342zM41 123l121 43 18 6V552H57v21H180V847l64-10 16-11-16-10V573h14l53 54 65-54V552H244V198l134 51 5-8-71-47-99-57-88-46L99 78l-5-2-5-21L73 67 41 123zM630 427H485V289H630V427zm210 0H695V289H840V427zM630 586H485V448H630V586zm210 0H695V448H840V586zM338 693v21H630V873l65-11 16-10-16-10V714H889l44 49 54-49V693H338z"/><glyph unicode="&#178016;" horiz-adv-x="1024" vert-adv-y="918" d="M349-42v21H468V431l65-32H802l33 27 59-49-27-21V-21h22l44 48 54-48V-42H349zM802 101H533V-21H802V101zM41 123l121 43 18 6V552H57v21H180V847l64-10 16-11-16-10V573h14l53 54 65-54V552H244V198l134 51 5-8-71-47-99-57-88-46L99 78l-5-2-5-21L73 67 41 123zM802 239H533V123H802V239zm0 138H533V261H802V377zM460 489V424l-65-32V714l65-32h96V787H359v21H858l54 54 64-54V787H780V682h95l33 27 59-49-27-21V456l-65-32v65H460zm96 171H460V510h96V660zm159 0H620V510h95V660zm160 0H780V510h95V660zM715 787H620V682h95V787z"/><glyph unicode="&#178017;" horiz-adv-x="1024" vert-adv-y="918" d="M50-26V-5H480V128H120v22H480V258l64-11 16-11-16-10V150H786l54 54 64-54V128H544V-5H856l54 54L974-5V-26H50zM313 463l-6-12-7-12-9-10-10-9-11-7-13-5-13-4-13-2-14-1v32l-53 16v16h53l7 1 6 1 5 1 4 1 3 2 3 3 3 3 2 5 3 5 2 7 4 9 2 10v12l-1 13-4 15-8 16-10 17-28 38-20 20 1 1-6 5 14 21 32 62 18 36 8 18 9 23H139V264L74 232V864l65-32H271l32 27 60-49-27-16-15-6-19-27-12-17-28-33-32-33-32-29 44-28 19-15 17-16 14-17 11-17 9-19 5-20 2-20-2-21-4-13zM855 244l-85 2-70 5-58 8-48 11-38 14-31 19-23 21-17 24-8 17-7-7-26-27-73-67V241l-18 8-44 48 9 6 46 22 15 7 16 8 35 16V575H324v21H430l32 27 59-48-27-22V376l-5-2 13-12 21-14 22-12 27-10 34-8 43-5 55-3 68-1 82 2 99 5 61 2-58-73-101-1zM781 380v16h61l4 1 4 1 1 1 1 1 1 1 1 2 1 3 1 5v69H688V368l-65-33V627l-24-20-34-22-35-21-6 9 55 56 25 28 19 24v33l18-9 27 41 7 10H539v22H687l15 31 14 33 12 34 3 7 57-29 12-16-21-4-26-52-2-4H863l53 54 65-54V756H737l-27-39-25-30-2-3 5-2H856l32 27 59-49-26-21V418l-1-14-3-14-4-13-6-12-9-11-11-8-12-7-13-5-13-2H835v32l-54 16zm75 190H688V501H856v69zm0 90H688V591H856v69zM445 727l-5 10-13 22-9 11-19 22-24 24-14 9 4 9 17-7 17-5 16-6 29-16 14-8 24-19 12-11 10-12 4-24-14-20-25-4-20 15-4 10z"/><glyph unicode="&#178018;" horiz-adv-x="1024" vert-adv-y="918" d="M684 831l65-11 16-10-16-10V552H867l54 53 64-53V530H749V-51L684-83V530H490v22H684V831zM273 342l-7 16-16 30-9 16-23 30-44 47-1 1-20-38-28-48-31-45-34-43-8 4 48 98 42 1e2 37 104 30 110 12 56 10 53 3 15 61-23 14-14-19-6-9-39-17-57-16-50H414l32 27 59-48-27-17-5-2-14-79-24-98-29-90-35-83-40-77-45-68-50-61-56-53-61-44L53-70l-4 8 58 44 53 49 49 55 44 61 39 68 33 74 30 80 24 88 20 95 12 86H241l-15-40-23-53-23-49 24-11 20-11 19-12 17-13 17-14 29-30 12-17 12-17 2-24-16-19-24-2-19 16zm615-79-8 14-9 14-10 14-12 15-27 28-15 14-17 14-18 13 4 9 44-16 20-9 19-10 18-11 33-26 14-14 14-15 13-16 3-25-15-19-24-3-20 14-7 15z"/><glyph unicode="&#178019;" horiz-adv-x="1024" vert-adv-y="918" d="M683 834l64-11 17-11-17-9V642h74l53 54 65-54V620H747V419H863l53 54 65-54V397H747V-48L683-80V397H467v22H683V620H509v22H683V834zM265 358l-7 15-17 31-23 30-27 32-15 16h-1l-19-38-28-48-31-45-33-43-8 4 46 98 42 1e2 35 104 16 54 14 56 12 56 10 52 3 16 61-23 14-13-19-7-9-39-16-57-16-50H410l32 27 59-48-27-17-5-2-13-79-24-98-29-90-33-83-40-76-44-69-50-61-54-53-60-44L57-70l-5 8 58 44 52 49 47 55 43 61 38 68 33 74 29 80 24 88 19 95 13 86H241l-14-40-22-53-23-49 24-11 19-11 18-12 17-14 31-28 14-16 12-16 12-17 1-24-15-19-25-2-19 16-6 16zM886 165l-5 13-7 13-9 13-23 28-15 14-34 28-21 13 4 9 47-15 21-10 20-10 18-12 17-12 15-13 14-15 11-16 11-17-1-25-18-17H907l-18 18-3 13z"/><glyph unicode="&#178020;" horiz-adv-x="1024" vert-adv-y="918" d="M757-39 715-23 677-5 641 16 609 39 581 65 556 93l-21 30-17 32-9 30h-4l-13-31-28-48-37-45-47-41-58-34-69-27-82-18-2 10 77 27 62 33 50 37 38 40 29 43 21 44 4 10H186v22H457l4 12 9 44 5 43 1 28H248v21H652l54 54 64-54V334H540l-4-35-9-46-14-46H714l54 54 64-54V185H522l15-18 23-25 24-23 26-20 28-18 30-17 34-15 35-12 39-11L865 6 801-53 757-39zM881 275l-45 33-42 34-39 37-35 38-32 41-24 36H383l-13-18-53-58-59-54-65-47-70-42-77-36-4 8 70 45 65 48 58 51 52 55 38 48H50v22H341l33 51 35 66 1 4H125v21H419l19 46 23 74 18 77 2 13 61-23 14-14-19-7-17-62-28-79-12-25H781l54 54 64-54V637H614l49-76 29-38 6-7H856l54 53 64-53V494H716l41-42 36-33 38-31 42-28 44-27 74-40-61-48-49 30zM602 637H470l-13-28-41-69-18-24H652l-16 29-20 47-14 45zM754 844v1l3 4 3 3 48-43 6-19-22 3-14-14-50-44-37-30-41-28-22-14-6 7L723 8e2l31 44zM303 694l-14 32-8 15-19 29-10 14-36 40-14 11 5 9 36-14 17-9 32-22 15-12 15-14 26-31 12-17 3-25-16-19-24-3-20 16z"/><glyph unicode="&#178021;" horiz-adv-x="1024" vert-adv-y="918" d="M894-48 860-20 829 12 8e2 49 775 90l-22 45-18 49-16 54-12 58-8 57H592V44l86 26 68 19 4-9-61-36L601-1 489-52l-6-2-5-20-15 11L431-5l96 29V745l65-32h98V869l65-11 16-11-16-9V713h99l32 27 59-49-27-21V342l-64-32v43H710l18-52 21-53 22-49 23-44 19-31L921 283l5 8 48-43 6-18-21 2-47-47-48-41-43-31 23-31 28-29 29-25L931 8l62-30-61-50-38 24zM267 380l28-7 15-11-17-10-5-48-10-64-1-6h80l53 54 65-54V213H281l26-17 20-15 18-17 35-36 16-18 30-40 13-21 3-25L426 5 402 3 382 19 364 59 353 80l-24 39-41 58-20 25-5-21-19-54-23-48-28-42L160 0 124-31 84-54 40-71l-4 9L73-37 106-9l28 33 25 36 21 40 18 45 13 50 3 18H57v21H218l3 16 7 60 2 66 1 4H44v21H230V519H107v22H230V659H70v22H191l-6 1-13 21v14 14l-1 13-2 14-5 27-4 14-9 28-7 13 7 6 11-11 12-11 11-11 18-26 9-14 14-29 5-16 5-16-6-24-13-7h82l3 10 4 20 10 38 5 18 4 18 14 52 2 11 1 4 1 2 2 7 58-29 12-16-22-4-34-62-20-32-26-37h45l44 48 54-48V659H295V541h12l53 54 65-54V519H295V401h74l54 54 64-54V380H267zM854 525H592V374H854V525zM592 691V546H854V691H592z"/><glyph unicode="&#178022;" horiz-adv-x="1024" vert-adv-y="918" d="M679 648l64-10 16-11-16-10V353l-5-65-13-61-20-56-27-52-35-46-42-42L553-5 498-37 437-62 369-82l-3 9 63 30 55 32 48 34 41 38 34 40 27 44 21 46 14 50 8 54 2 58V648zM372 114l-20 21-22 20-23 19-13 9-41-66-46-59L156 5 1e2-39 39-76l-5 8L87-23l48 49 44 54 39 59 35 65 2 3-66 34-72 30-17 1 69 328H67v21H174l51 244 61-24 14-14-18-5-42-201H361l33 27 59-48-27-16-4-2-13-72-21-92-27-85-31-78-15-30 48-27 27-20 26-22 23-23 7-23-11-22-24-7-22 11-17 22zM913-34 9e2-17 885 0 867 17 823 52l-83 54-32 20 3 9 38-10 34-12 32-12 29-14 53-30 23-16 21-17L960 6l16-19 5-24-13-21-24-5-21 13-10 16zM489 810l65-33H868l32 27 59-48-27-22V191l-64-32V756H554V175l-65-32V810zM360 6e2H235L167 275l31-7 37-10 35-12 2-1 12 29 26 76 22 82 17 88 11 80z"/><glyph unicode="&#178023;" horiz-adv-x="1024" vert-adv-y="918" d="M344 115l-17 21-20 20-22 19-9 7-37-65-43-59L149 6 97-39 41-76l-6 8L84-23l44 48 40 54 36 59 32 65 2 5-30 18-30 15-65 30-19 1 64 328H66v21h96l48 243 61-23 14-13-18-5-39-202H335l32 27 60-48-27-16-5-2-11-72-20-91-24-85-29-79-14-30 17-9 27-19 25-19 23-22 22-23 6-24-12-21-24-7-21 13-16 21zM923 23l33 135h10L956 23l19-13L988-9 975-28 956-41H566l-14 1-14 2-13 4-11 7-12 9-8 10-7 13-4 13-3 13V45 311l64-33H858V452H463v21H858l32 27 60-48-27-22V225l-65-33v65H544V38l1-5 1-3 1-2 1-1 1-1 2-1h3l5-1 7-1H923zM333 6e2H224L161 274l27-6 34-10 31-12 11 27 24 76 20 83 16 88 9 80zm205-18-43-43-54 54 32 32V793l65-11 16-11-16-9V604H675V863l65-10 16-11-16-10V604H874V793l65-11 16-11-16-9V561l-65-33v54H538z"/><glyph unicode="&#178024;" horiz-adv-x="1024" vert-adv-y="918" d="M328 116l-17 21-18 19-20 19-7 5-34-62-40-59L146 6 98-39 44-76l-6 8L84-24l41 49 38 54 33 59 31 65 2 5-28 18-58 30-32 15-18 1 60 328H67v21h89l45 243 62-22 14-14-18-5-37-202h97l32 27 59-48-26-16-4-2-11-72-19-91-23-85-27-78-14-31 16-10 26-18 24-20 22-21 17-19v16H670V306H548l-43-43-35 34h-1v1l-18 19 36 29 79 218H416v22H574l59 166 57-33 12-15-19-4-41-114H840l54 54 64-54V564H634L548 327H670V501l64-11 16-11-16-10V327h48l54 54 65-54V306H734V153H865l54 54 64-54V132H734V-39L670-71V132H395l5-24-13-21-23-5-21 13-15 21zM318 6e2H218L159 274l25-6 31-10 28-11 10 26 22 76 19 83 14 88 10 80zm128 13-23 8-11 22 8 24 5 4 7 9 6 11 7 15 6 18 11 45 10 57 3 32 10 1 6-55H896l32 27 59-49-27-16-14-6-24-41-19-29-22-32-10-18-9 5 6 19 4 19 13 52 9 43v4H493l1-15V741 717l-2-22-4-20-4-19-7-16-9-16-22-11z"/><glyph unicode="&#178025;" horiz-adv-x="1024" vert-adv-y="918" d="M332 122l-16 23-17 23-19 21-6 6-6-12-37-65-41-59L144 6 94-39 39-76l-5 8L80-24l43 49 38 54 35 59 31 65 10 25-52 36-26 16-10-57-70-20 74 397H64v21h92l45 243 62-22 14-14-18-5-37-202H322l32 27 60-48-27-16-4-2-11-72-20-91-23-85-28-78-7-16 20-14 24-21 23-23 21-25 19-26 3-25-14-19-24-4-20 15-14 24zM652-24V-8H759l7 1 5 1 4 2 3 2 1 5 1 5 1 6V277H577l-14-31-45-79-49-72-55-65-62-57-6 7 52 64 47 67 43 73 37 79 6 14H423v22H539l19 48 28 91 1 6H411v22H592l16 68 6 39H473v22H618l7 42 7 65H436v22H635l2 21 7 115 1 12 64-16 15-11-17-9-9-97-2-15H843l54 53 64-53V702H693l-11-75-7-32H820l44 48 54-48V573H671l-11-50-15-57H868l54 53 64-53V444H639l-6-20-32-92-15-33H781V423l64-11 16-11-16-10V299h23l54 54 64-54V277H845V14L844 1l-2-14-4-13-7-12-9-11-11-9-12-7-13-4-13-2-14-1v32L652-24zM669 97l-4 13-6 13-7 14-9 14-22 28-29 30-18 14 5 8 41-18 19-10 18-11 16-12 15-13 14-14 12-15 10-17 9-17-2-24-18-17-25 3-16 18-3 13zM321 6e2H218L163 3e2l35-10 31-13 22-11 26 83 19 83 15 88 10 80z"/><glyph unicode="&#178026;" horiz-adv-x="1024" vert-adv-y="918" d="M734 445V309l-7-63-15-59-21-54-28-48-35-41L586 7 538-23 485-47 426-65 361-76l-2 9 61 21 53 25L520 7l40 32 34 35 27 39 21 43 15 47 9 51 4 57V476l64-10 16-11-16-10zM338 116l-16 20-20 20-21 19-7 6-36-63-42-59L151 6 1e2-39 45-76l-6 8L86-24l43 49 39 54 35 59 31 65 2 5-29 18-59 30-33 15-19 1 62 328H70v21h92l46 243 62-22 13-14-17-5-38-202H330l32 27 59-48-27-16-4-2-11-72-19-91-24-85-28-79-14-30 17-10 26-18 25-20 23-21 21-24 5-23-12-22-24-5-21 12-16 22zM894-59 872-24 842 12 805 48 761 86l-51 40 5 8 31-11 30-13 27-14 50-30 23-17 20-17L933-5l15-20 4-24-14-20-24-4-20 14zM477 584l65-32H845l32 26 59-48-27-21V148l-64-32V530H542V138l-65-33V584zM328 6e2H224L162 274l26-6 34-10 29-11 10 26 23 76 19 83 16 88 9 80zm94 22v22H670V780H465v22H821l53 53 65-53V780H734V644H884l44 48 53-48V622H422z"/><glyph unicode="&#178027;" horiz-adv-x="1024" vert-adv-y="918" d="M898 37 870 67 843 99l-26 34-24 36-23 38-22 39-20 42-15 38V-45L648-77V282l-34-54-33-44-35-40-38-39-42-37-44-33L375 5 324-22l-4 8 43 36 41 36 39 37 35 38 33 40 30 42 27 43 25 44 22 47 9 25H399v22H648V681H443v21H648V869l65-11 16-11-16-9V702H821l54 54 64-54V681H713V396H859l54 53 65-53V374H713v-6l68-101 52-69 27-31 27-29 57-52 42-34L928 9 898 37zM339 122l-15 23-17 23-20 21-6 6-6-12-37-65-42-59L151 6 1e2-39 45-76l-6 8L86-24l43 49 39 54 35 59 31 65 10 25-26 18-53 34-11-57-69-20 74 397H70v21h93l45 243 62-22 14-14-18-5-37-202H330l32 27 59-48-27-16-4-2-11-72-19-91-24-85-28-79-7-15 20-14 24-21 23-23 21-24 20-27 3-25-15-19-24-4-20 14-14 25zM328 6e2H225L169 3e2l35-10 32-13 22-11 26 83 19 83 16 88 9 80zm522 47 57-31 10-17-20-3-22-37-26-39-29-40-34-40-19-20-8 6 42 93 26 63 8 20 6 19 5 18h1l3 8zM531 481l-5 19-5 18-6 18-7 17-16 34-20 33-12 16 7 7 33-23 16-14 14-15 14-16 13-17 11-18 11-20 9-19 8-21-3-25-19-15-24 3-15 19-4 19z"/><glyph unicode="&#178028;" horiz-adv-x="1024" vert-adv-y="918" d="M729 315l-18-11-4-45-12-62-20-57-26-50-34-45L574 8 528-24 474-48 415-66 350-76l-1 9 60 21 54 24L509 6l38 32 33 37 26 40 19 45 14 50 7 56 2 60v13l65-13 16-11zM328 116l-17 21-18 19-20 19-7 5-34-62-40-59L146 6 98-39 44-76l-6 8L84-24l41 49 38 54 33 59 31 65 2 5-28 18-58 30-32 15-18 1 60 328H67v21h89l45 243 62-22 14-14-18-5-37-202h97l32 27 59-48-26-16-4-2-11-72-19-91-23-85-27-78-14-31 16-10 26-18 24-20 22-21 21-24 5-24-13-21-23-5-21 13-15 21zM860-37l-7 13-10 14L830 6 795 40 750 78l-56 42 4 9 34-13 32-14 29-15 26-14 24-15 21-16 18-15 17-16L912-5l11-18 1-24-17-18-25-1-17 17-5 12zM466 428l65-32H824l33 27 59-49-27-21V127L824 95V374H531V105L466 73V428zM318 6e2H218L159 274l25-6 31-10 28-11 10 26 22 76 19 83 14 88 10 80zm70-129v21H643V611H531V573l-65-32V799l65-32H643V869l64-11 16-11-16-9V767H824l33 26 59-48-27-21V589l-65-32v54H707V492H886l44 49 53-49V471H388zM643 745H531V632H643V745zm181 0H707V632H824V745z"/><glyph unicode="&#178029;" horiz-adv-x="1024" vert-adv-y="918" d="M278 118l-15 20-16 20-18 18-2 2-29-59-36-60L122 7 77-38 29-75l-6 7L63-24 99 25l33 53 30 59 26 65 3 7-24 17-51 30-27 15-21 1 54 328H50v21h75l40 242 62-21 14-13-18-5-32-203h79l32 27 59-48-26-16-4-2-10-71-17-91-20-85-25-79-12-32 14-9 24-19 21-20 20-21 18-24 5-24-14-20-25-4-19 13-13 22zM783 754l54-10 13-11-13-9V650l-4-45-6-42-9-34 28-16 32-21V798H739V506l-54-26V846l54-27H878l29 27 57-48-27-19V516l-54-27 17-14 30-26 13-14 12-13 11-14 2-24-15-20-24-2-20 15-5 12-7 13-17 29-10 15-55 66-2 3-10-26-17-32-21-27-25-25-27-19-31-15-33-11-2 4-19-2 29-20 10-17-20-3-17-35H867l54 54 64-54V266H828l-14-51-25-52-31-46-19-21 44-17 41-18 38-21 37-22L933-8l11-22-8-23-22-11-23 7-29 25L831-8 798 14 762 34 724 53l-22 9-29-22L621 9 561-17 496-37 423-52l-78-9-2 9 76 20L487-9l61 25 53 29 45 31 6 5-57 18-48 13-50 13H480l68 141H329v21H558l45 92-4 10-7 13-17 29-10 15-55 66-2 3-11-26-17-32-21-27-24-25-27-19-31-15-34-11-2 8 28 18 24 19 22 22 17 23 15 26 12 29 9 32 6 34 3 38 1 41V754l53-10 14-11-14-9V650l-3-45-6-42-9-34 27-16 35-23V798H436V507l-59-29V849l59-30H575l27 27 54-48-27-16V514l-52-25 18-14 29-26 14-14 12-13 10-14 3-24-9-11 20 13 25 19 21 22 18 23 14 26 12 29 9 32 6 34 3 38 1 41V754zM762 266H620L555 132l46-5 49-8 34-8 31 38 23 41 18 44 6 32zM269 6e2H187L134 273l20-5 29-10 21-10 7 24 20 76 17 83 13 88 8 81z"/><glyph unicode="&#178030;" horiz-adv-x="1024" vert-adv-y="918" d="M379 740l59-11 14-11-14-9V-46L379-76V740zM278 118l-15 20-16 20-18 18-2 2-29-59-36-60L122 7 77-38 29-75l-6 7L63-24 99 25l33 53 30 59 26 65 3 7-24 17-51 30-27 15-21 1 54 328H50v21h75l40 242 62-21 14-13-18-5-32-203h79l32 27 59-48-26-16-4-2-10-71-17-91-20-85-25-79-12-32 14-9 24-19 21-20 20-21 18-24 5-24-14-20-25-4-19 13-13 22zM797-25v15h83 6l3 1 2 1h2v2l1 1 1 2 1 4 1 6 1 7V756H586v21H898l30 27 56-48-27-19V14L956 1l-2-12-3-13-6-11-7-11-10-8-11-7-11-5-13-2-13-1v29L797-25zm2 134-9 17-19 32-35 46-33 37V22L639-10V193l-28-39-23-27-24-25-26-24-27-20-27-17-30-14-5 8 44 45 41 48 18 27 18 28 33 60 14 33 5 11H555V223l-59-30V544l59-30h84v74H467v21H639V711l64-11 17-11-17-9V609h85l44 48 54-48V588H703V514h82l30 27 56-48-27-19V287l-59-29v29H703V263l22-10 18-10 18-11 17-13 32-27 15-15 15-16 13-17 5-24-14-21-24-4-21 14zM269 6e2H187L134 273l20-5 29-10 21-10 7 24 20 76 17 83 13 88 8 81zM591 353l-2 10-2 10-2 11-4 11-12 33-5 13-8 10 8 6 9-9 12-7 10-8 20-18 8-9 16-19V493H555V309h84v20l-6-5-24 2-17 18-1 9zm194-44V419l-18-27-20-25-22-23-11-12-11-12V309h82zm0 184H703V343l19 56 13 43 6 23h-1l5 12 40-23v39zM494 738l-4 16-3 15-13 29-8 14-9 14-12 15-12 14-16 13 5 8 38-17 17-11 16-11 15-14 13-15 11-16 11-18 9-19 7-20-5-24-20-14-24 5-15 21-1 15z"/><glyph unicode="&#178031;" horiz-adv-x="1024" vert-adv-y="918" d="M348-23V-7H456l6 1 5 1 5 1 2 2 1 5 2 5v7V144H114v21H477v67l53-9 129 85 10 8H234v21H698l17 15 2-2 17 14 59-48-27-17-64-26v1l-41-18-50-20-28-10-33-10 8-5-16-10V165H786l54 54 64-54V144H542V15L540 1l-2-13-4-13-7-13-9-10-10-9-13-7-13-4-13-2-13-2v33L348-23zM880 434h15l4 4 29 23 59-48-27-16-17-7-16-24-44-55-12-13-13-11-11-14-8 6 7 15 18 49 6 16 12 31 5 16 3 7H123l1-9 1-19V366l-2-18-4-18-6-18-8-17-20-13-25 5-12 20 4 24 8 9 14 22 6 13 5 15 3 15 4 18 1 18 1 20-1 22 9 2 14-41 2-10h31V813l52-8 24 12 116 50 3-8 50-43 1-17-22 10-13-4-56-9-18-3-18-2-35-3-12-1-8-5V689h82l33 37 43-37V667H213V559h82l33 37 43-37V537H213V434H413V618l65-11 16-10-16-10V434h78V691H483l-65-32V873l65-11 16-11-16-10V813h76l44 48 54-48V791H483V712h73l32 27 59-48-26-22V434H816V537H679v22H816V667H679v22H816V797H7e2v22H816l32 27 59-49-27-21V434z"/><glyph unicode="&#178032;" horiz-adv-x="1024" vert-adv-y="918" d="M926-11l27 91h11L953-11l16-11 11-16-11-16-16-11H560 547l-13 2-12 4-12 6-11 8-9 10-7 11-5 13-3 13-1 14V74H2e2V10L136-23V294l64-32H474v71H265l-65-32V492l-62-28-45-16-47-13-4 9 84 46 74 47v7l6-3 29 21 31 26 30 27 27 27 24 29 20 26 5 7 49-43 6-19-21 3-13-14-14-14H571l3 3 1 3 2-1 26 22 60-48-27-16-23-10-25-21-25-18-14-9-14-8-5-2H765l32 27 59-49-27-21V333l-64-32v32H539V262H824l32 27 59-49-27-21V63L824 31V74H539V16l-1-7 1-5V1l1-5 2-1 2-2 3-2 6-1 7-1H926zM474 162H2e2V96H474v66zm350 0H539V96H824v66zM474 240H2e2V183H474v57zm350 0H539V183H824v57zM474 416H265V354H474v62zm291 0H539V354H765v62zM474 490H265V437H474v53zm291 0H539V437H765v53zM563 596H356l-25-22-34-25-37-24-10-6 15-7H505l5 5 20 26 24 37 7 11 2 5zM147 724l1-15-2-25-4-23-6-22-9-20-11-19-14-17-17-14-24-3-20 14-3 24 14 20 11 6 10 7 10 10 9 12 9 16 8 18 7 21 6 24 6 26 3 29 10 1 3-30 2-19H480V873l64-11 16-10-16-10V745H894l3 3 2 4 1-1 26 21 59-48-27-17-23-9-49-49-30-26-18-14-16-15-7 6 12 19 39 68 16 29 4 8H147z"/><glyph unicode="&#178033;" horiz-adv-x="1024" vert-adv-y="918" d="M361-26v16H469h6l5 1 5 2 2 2 2 5 1 5v6V160H71v21H835l53 54 65-54V160H555V11L554-2l-2-14-5-12-7-13-8-11-11-8-12-7-13-5-14-2-13-1v33L361-26zM724 514l25 70h10l-10-70 14-10 10-14-10-15-14-9H404l-26-11-77-27-66-18 7-4H754l33 27 59-48-27-22V254l-65-33v33H242l-64-33V397l-46-9-93-14-1 9 89 25 51 15v16l18-10 93 33 47 19-3 2-9 10-7 12-5 12-3 13-1 14V683l64-11 16-11-16-9V544v-7-5-4-3l1-1 1-3 3-2 3-2 6-1 8-2h13l23 11 62 35 55 38 51 40 45 43 42 47 47-44 5-19-20 3-31-31-51-43-57-41-62-36-6-3H724zM368 385H242V275H368V385zm196 0H433V275H564V385zm190 0H628V275H754V385zM87 471 72 490l2 24 19 16 17 4 16 5 14 7 13 9 12 10 12 12 10 15 9 17 9 19 6 22 10-1-1-24-1-23-4-22-7-21-9-19-12-19-15-16-18-14-20-13-22-10-25 3zm801 36-8 14-9 14-11 14-13 14-29 28-36 27-20 13 4 9 47-14 21-9 20-10 20-10 18-13 16-13 16-14 14-16 13-16 3-25-15-19-24-4-20 15-7 15zM471 632l-6 10-7 11-18 20-22 19-26 20-17 8 4 10 17-5 18-3 17-4 16-6 31-13 14-8 12-9 13-11 12-11 5-23-13-22-24-5-21 13-5 9zM146 749V739l-1-21-4-19-7-18-9-18-11-15-14-14-17-12-24-1-19 16-1 25 17 18 10 4 10 5 9 7 9 8 9 11 7 13 7 16 6 18 6 21 2 23h10l4-35H480V871l64-10 16-11-16-10V771H894l3 3 3 6 2-2 24 20 59-49-27-16-32-13-16-13-40-28-33-20-15-12-7 8 13 14 11 16 37 54 7 10H146z"/><glyph unicode="&#178034;" horiz-adv-x="1024" vert-adv-y="918" d="M152 847l64-32H840l32 27 59-49-27-21V595l-64-33v33H216V390l-3-58-6-55-8-53-12-50-15-47-18-44-20-41L110 5 83-29 53-59l-7 6L67-17 85 19l17 39 14 40 12 42 10 45 7 48 5 50 2 52V847zM926 22l32 134h11L958 22 978 9l12-19-12-20-20-12H793 779l-14 3-13 4-12 7-11 9-8 10-7 12-5 14-2 13V44 375H531l-3-41-11-65-18-60-25-56-32-50-38-44-44-39-50-33-56-26-62-21-4 9 57 30 49 32 43 36 37 39 30 42 25 47 18 51 13 55 7 59 1 35H250v22H469v8V578l65-11 16-11-16-9V405l-1-8H707l32 27 59-49-27-21V37l1-5 1-3 1-2 1-1 1-1 2-1 3-1h5l7-1H926zM847 448l-4 12-6 12-7 12-9 12-11 13-26 26-16 13-18 12 4 9 41-15 20-8 17-9 17-10 15-11 14-12 12-14 11-14 9-16-1-25-17-16H867l-17 18-3 11zm-7 345H216V616H840V793z"/><glyph unicode="&#178035;" horiz-adv-x="1024" vert-adv-y="918" d="M868-27l-9-10-10-8-11-8-11-6-12-5-12-4-13-2-12-2-13-1v33L657-24V-8H772l8 1 13 3 6 3 5 3 6 4 5 4 10 12 9 13 9 18 8 22 8 27 7 31 7 35 6 39 4 44 5 47 3 39H533l-8-68-67-25 43 380 55-36H869V791H484v22H869l32 27 59-49-27-21V534l-64-32v65H559L536 358H892l32 27 59-48-27-17h-2l-2-28-4-48-5-46-6-41-8-38-8-34-9-31-10-27L890 3 876-17l-8-10zM130 138V73L65 41V670l65-11 16-11-16-9V159h71V831l65-11 16-10-16-10V159h81V670l65-11 16-11-16-9V105L347 73v65H130z"/><glyph unicode="&#178036;" horiz-adv-x="1024" vert-adv-y="918" d="M590 367l65-33H875l32 27 59-48-27-22V-16L875-48V17H655V-48L590-80V367zM473 777l62-30 195 46 77 20 69 21 26 9 5 2 2-8 52-44 2-16-23 10-15-4-69-15-37-7-39-7-84-12-91-8-48-3H538V546H864l54 54 64-54V525H538V390l-3-62-6-59-9-55-13-53-15-49-18-45-22-42-24-38-28-33-32-29-7 7 23 34L403 3l18 38 15 41 13 44 10 47 7 49 5 53 2 56V777zM875 313H655V38H875V313zM115 138V73L50 41V670l65-11 16-11-16-9V159h73V831l64-11 16-10-16-10V159h84V670l64-11 16-11-16-9V116L336 84v54H115z"/><glyph unicode="&#178037;" horiz-adv-x="1024" vert-adv-y="918" d="M652-24V-8H759l7 1 5 1 4 2 3 2 1 5 1 5 1 6V277H577l-14-31-45-79-49-72-55-65-62-57-6 7 52 64 47 67 43 73 37 79 6 14H423v22H539l19 48 28 91 1 6H411v22H592l16 68 6 39H473v22H618l7 42 7 65H436v22H635l2 21 7 115 1 12 64-16 15-11-17-9-9-97-2-15H843l54 53 64-53V702H693l-11-75-7-32H820l44 48 54-48V573H671l-11-50-15-57H868l54 53 64-53V444H639l-6-20-32-92-15-33H781V423l64-11 16-11-16-10V299h23l54 54 64-54V277H845V14L844 1l-2-14-4-13-7-12-9-11-11-9-12-7-13-4-13-2-14-1v32L652-24zM111 138V73L52 44V670l59-11 14-11-14-9V159h63V831l60-11 15-10-15-10V159h69V670l65-11 16-11-16-9V116L303 84v54H111zM669 97l-4 13-6 13-7 14-9 14-22 28-29 30-18 14 5 8 41-18 19-10 18-11 16-12 15-13 14-14 12-15 10-17 9-17-2-24-18-17-25 3-16 18-3 13z"/><glyph unicode="&#178038;" horiz-adv-x="1024" vert-adv-y="918" d="M125 783l64-33H501V874l65-11 16-10-16-10V750H856l54 54 64-54V729H189V390l-3-63-6-59-8-57-12-53-15-49-17-46-21-43L84-18 56-52 26-80l-7 6L40-39 58-3 75 35 89 77l12 44 10 48 7 50 5 54 2 57V783zM220-48v22H563V131H285v22H563V703l65-11 16-11-16-10V153H787l54 53 65-53V131H628V-26H852l54 53 65-53V-48H220zm34 635 64-33H431l32 27 59-48-27-22V268l-64-32v65H318V236l-64-32V587zm596 12-17-10-2-32-7-50-10-47-10-33 24-15 38-31 33-35 29-38 24-42-1-25-17-17H909l-17 17-7 20-7 20-19 38-22 37-27 37-12 16-14-35-20-39-24-36-27-32-31-28-34-24-6 6 25 32 23 32 20 34 17 35 15 37 11 39 8 41 6 44 3 46v62l64-13 16-11zM431 533H318V322H431V533z"/><glyph unicode="&#178039;" horiz-adv-x="1024" vert-adv-y="918" d="M125 783l64-33H501V874l65-11 16-10-16-10V750H877l44 49 53-49V729H189V390l-3-63-6-59-8-57-12-53-15-49-17-46-21-43L84-18 56-52 26-80l-7 6L40-39 58-3 75 35 89 77l12 44 10 48 7 50 5 54 2 57V783zM173-38v22H539V152H234v21H539V305l64-10 17-11-17-10V173H790l54 54 64-54V152H603V-16H850l54 54 64-54V-38H173zm90 7e2 65-32H481l33 26 59-48-27-21V367l-65-33v65H328V334l-65-32V662zM863 350l-16 20-37 40-22 20-14-16-33-29-35-24-39-20-41-14-44-9-2 9 38 19 35 21 32 23 29 26 26 29 11 15-37 27-90 57 4 9 36-10 35-12 32-14 31-14 13-7 10 16 18 39 15 41 7 26H615v22H830l32 27 59-49-27-16-9-4-10-27-20-45-24-42-12-15 25-17 25-20 23-20 21-21 7-24-12-21-23-7-22 11zM481 608H328V420H481V608z"/><glyph unicode="&#178040;" horiz-adv-x="1024" vert-adv-y="918" d="M125 492l64-32H597l93 147 25 43 22 42 52-38 9-17H777l-65-80-41-45-48-47-5-5H861l54 54 65-54V439H189V299l-3-52-5-48-8-46-10-43-14-40-16-36L115 1 93-29 69-54 42-75l-7 7L53-41 69-13 84 17 95 49l11 35 8 37 6 41 3 43 2 46V492zM878-59 838-41 802-20 767 5 736 32 708 63 682 97l-23 37-19 40-6 18-35-46-44-44-49-40-56-35L389-4 322-30 250-50 172-66l-2 10 74 25L312-3l61 31 56 33 49 37 43 40 36 42 31 46 25 49 19 52 4 8 58-29 12-15-21-4-17-38-24-42 42-55 26-31 28-26 29-25 31-21 31-17 34-15L9e2 5l82-21-62-57-42 14zM472 416l55-34 10-17-21-2-28-42-22-27-26-27-26-26-30-23-32-23-33-21-37-19-38-16-5 8 63 51 55 50 46 52 20 27 17 27 16 28 16 34zm-95 97-5 15-6 16-20 34-13 19-51 60-22 22 6 8 52-31 43-32 35-34 14-18 13-18 11-18 8-19-4-25-18-15-25 4-15 18-3 14zM93 702v22H485V874l65-11 16-10-16-10V724H835l53 53 65-53V702H93z"/><glyph unicode="&#178041;" horiz-adv-x="1024" vert-adv-y="918" d="M732 18l33 135h10L765 18 784 5l13-19-13-19-19-13H383l-14 1-13 2-13 4-13 7-10 9-9 11-7 12-4 13-3 13V40 252l64-11 17-10-17-10V33l2-5 1-4 2-2 5-2 5-1 7-1H732zM77-16 57-2 53 23 68 42 83 52 97 62l13 13 12 16 11 19 10 21 8 25 7 27 6 30 4 33 10 1 5-34 2-32-1-31-3-29-7-27-8-25-12-24-15-21L122 4 102-12 77-16zM896 59l-7 19-8 20-10 20-12 20-30 38-36 39-21 20 5 8 27-12 25-14 23-16 22-17 19-18 18-20 16-20 14-22 12-23 10-24-3-25-19-15-24 3-16 19-5 20zM565 139l-9 16-21 30-13 16-27 29-32 28-18 13 4 9 43-16 21-9 19-10 36-26 17-14 15-16 15-17 13-18 3-24-14-20-25-2-19 14-8 17zM775 417l65-54V342H173v21H722l53 54zm108 0-48 28-47 32-46 35-45 39-42 42-40 46-40 50-36 53-17 29-35-55-41-54-44-50-48-49-52-45-57-43-60-40-64-37-69-34-5 9 63 42 58 44 56 44 51 45 47 48 43 49 38 50 35 52 32 55 26 54 3 7 55-33 11-17-21-2-13-25 69-77 43-43 44-41 43-36 45-34 45-29 46-25 47-23 83-33-62-52-51 24zM620 584l64-54V509H329v21H566l54 54z"/><glyph unicode="&#178042;" horiz-adv-x="1024" vert-adv-y="918" d="M87-18V-2h75 6l5 1 5 2 2 2 2 5 1 5 1 6V316L92 266l-3-20-16 10-37 54 148 63V632H50v22H184V863l64-10 16-11-16-10V654h18l54 53 65-53V632H248V401l1e2 40 34 13 5-8-59-43-80-50V19L247 6 245-8l-4-12-7-13-9-11-11-8-12-7-13-4-14-3-13-1v33L87-18zM696 224v16H804h6l5 1 5 2 2 2 2 5 1 5v6V380H683V61l1-5 2-4 2-3 5-1 4-1 7-1H916l32 135h11L948 46l19-13 13-19L967-5 948-18H704l-14 1-13 2-13 4-12 7-11 9-9 11-7 12-4 13-2 13-1 14V380H476l-1-1-3-47-5-44-6-41-9-39-10-35-12-33-14-30-16-26-19-23-21-17-7 5 21 49 9 26 8 29 7 31 5 34 4 36 3 40 1 41V815l65-32H825l33 27 59-49-27-21V261l-1-13-2-14-5-13-7-12-8-11-11-8-12-7-13-5-14-2-13-1v33L696 224zM618 578H476V401H618V578zm207 0H683V401H825V578zM618 761H476V6e2H618V761zm207 0H683V6e2H825V761z"/><glyph unicode="&#178043;" horiz-adv-x="1024" vert-adv-y="918" d="M418 820l65-32H887l33 27 59-48-27-22V-8L887-40V25H483V-40L418-72V820zM95-18V-2h75 7l4 1 5 2 2 2 2 5 1 5 1 6V317L94 266l-3-20-17 10-36 54 154 63V632H52v22H192V863l64-10 16-11-16-10V654h24l54 53 65-53V632H256V4e2l71 28 69 26 5-8-62-43-83-50V19L255 6 253-8l-4-12-7-13-9-11-11-8-12-7-13-4-13-3-14-1v33L95-18zM887 767H483V46H887V767zM571 638l64-33H735l32 27 59-48-26-22V208l-65-33v65H635V175l-64-32V638zm164-54H635V261H735V584z"/><glyph unicode="&#178044;" horiz-adv-x="1024" vert-adv-y="918" d="M82-18V-2h75 7l4 1 5 2 2 2 2 5 1 5 1 6V313l-77-45-2-21-16 10-40 52 135 63V632H60v22H179V863l64-10 16-11-16-10V654h24l44 48 54-48V632H243V402l87 39 32 13 5-8-26-22-55-41-43-28V19L242 6 240-8l-4-12-7-13-9-11-11-8-12-7-13-4-13-3-14-1v33L82-18zM564 278v-1H688V476H569V342l-5-64zM893 722l-1 1 5 8 52-40 7-18-23 1-74-75-35-32 26-28 36-32 37-29 61-40-60-46-42 33-39 35-34 35V476H753V277h71l54 54 65-54V256H753V29l1-5 1-3 1-2 1-1 1-1 5-1 4-1 7-1H897l33 134h10L930 14 949 1l13-19-13-20-19-13H774l-14 2-13 2-13 4-12 7-11 9-9 10-6 13-5 13-2 13-1 13V256H560l-7-38-17-55-24-50-30-45-36-40L404-5 357-33 304-55 246-71l-3 9 53 25L343-9l39 32 35 34 28 38 22 41 18 45 11 50 3 25H315v21H502l1 7 1 58V476H460v12l-33-34-40-34-43-31-44-27-6 8 38 35 35 36 34 38 32 40 30 42 3 5-19-2-19 17-11 29-13 27-15 26-26 37-11 11 5 8 14-7 15-7 15-8 13-9 14-11 12-12 24-26 11-14 11-16V598l30 54 22 48 21 52 12 32H377v21H577l32 27 57-47-11 65 9 2 22-54 22-52 24-48 18-30 48 108 14 35h-1l6 10 53-37 9-17H856l-37-46-41-47-16-17-3-3 28-42 25-32 71 122 6 13 4 7zM667 783l-26-15-10-5-15-35-26-53-27-50-31-47-32-44-31-36H691l54 54 58-49-29 37-29 44-25 48-23 50-18 53-12 48z"/><glyph unicode="&#178045;" horiz-adv-x="1024" vert-adv-y="918" d="M451 870l60-24 13-15-19-6-28-98-38-113-19-54-6-15 23-4 14-11-14-9V-46L378-76V457l-25-53-24-49-27-47-8 4 66 208 32 109 43 172 13 60 3 9zM926 180l45-47 4-18-20 4-15-14-34-26-36-25-40-23L789 9 745-11 697-29 648-45 595-59 540-71l-2 9L638-18l89 44 40 23 37 25 35 24 31 26 29 27 25 27 2 2zM72-18V-2h64 7l5 1 4 2 2 2 2 5 1 5 1 6V310L97 269l-2-20-17 9-41 51 121 62V632H55v22H158V863l64-10 16-11-16-10V654h30l33 37 43-37V632H222V404l74 37 29 13 6-8-47-42-62-48V19L221 6 219-8l-4-12-7-13-9-11-11-8-12-7-13-4-13-3-14-1v33L72-18zM854 313l46-45 5-19-20 4-42-38-29-24-62-42-32-18-34-16-34-15-35-11-35-9-3 9 90 56 29 20 55 44 51 49 48 53 2 2zM486 664l59-10 14-11-14-9V120L486 91V664zM775 430l49-41 7-19-21 2-23-24-21-18-44-36-50-32-27-14-29-12-30-11-4 8 69 58 41 38 36 38 16 20 28 40 3 3zm122-56-34 23-33 27-31 29-30 32-7 9-9-12-33-34-35-30-37-26-39-22-42-16-4 9 35 25 32 27 31 30 29 31 27 35 15 22-43 65-23 44-8 19-23-41-19-29-21-27-22-25-8 5 50 123 12 31 20 64 17 65 7 34 3 9 60-25 13-14-20-6-16-48-14-33-6-15H844l54 54 65-54V707H884l-21-51-25-49-26-45-20-29 44-39 31-24 31-21 32-17 64-29-62-50-35 21zM815 707H682l-14-27-1-2 48-61 30-36 10-10 10 18 21 44 20 47 9 27z"/><glyph unicode="&#178046;" horiz-adv-x="1024" vert-adv-y="918" d="M743 272H593l-19-31-19-28-6-8 27-7 42-16 40-17 22-12 24 38 26 50 13 31zM605 294H751l2 2 30 24 59-48-27-16-12-5-18-38-32-52-25-35 41-27 34-25 32-27 30-29 28-30 7-23-11-23-24-6-22 11L794 6 767 33 738 60 708 85l-8 6-18-21-40-38L599-1 553-28 505-50 454-66 401-76l-2 9 48 20 46 23L535 2l39 30 37 34 33 38 14 18-53 34-65 38-28-33-24-23-25-22-27-19-6 7 54 79 32 55 15 28 13 29 13 29 23 70 53-27V488l-29-34-32-35-34-32-35-30-37-27-38-24-40-21-41-17-5 8 69 54 33 28 32 30 30 31 29 33 28 36 4 6-20 1-17 17-3 19-3 9-5 19-3 9-6 14-22-35-17-24-19-24-21-23-22-21-24-20-6 6-52-38-78-50V19L248 6 245-8l-4-12-7-13-9-11-10-8-13-7-13-4-13-3-13-1v33L87-18V-2h76 6l5 1 5 2 2 2 1 5 2 5v6V316L96 267l-3-21-16 10-38 54 145 63V632H55v22H184V863l65-10 16-11-16-10V654h15l53 53 65-53V632H249V401l64 27 66 26 3-5 27 45 27 51 24 50 19 52 7 27 9 35 59-26 13-15-20-5-15-37-12-25 12-7 18-13 9-8 8-9 15-18 7-10V525l44 73V724H378v21H633V869l64-11 17-11-17-9V745H842l53 54 65-54V724H697V561l27-31 8-9 25 56 8 20 14 40 11 39 7 28 59-27 12-15-20-5-10-22-22-39-2-3 14-7 14-8 12-9 25-20 23-22 22-25 3-25-14-20-25-3-20 15-11 26-20 38-31 48-16-23-29-35-16-16 33-33 28-25 30-23 31-21 32-19 33-18 66-30-61-49-37 20-35 23-33 25-31 27-29 29-27 31-25 32-22 35-1 1V363l-64-32v14h-3l-21-45-4-6z"/><glyph unicode="&#178047;" horiz-adv-x="1024" vert-adv-y="918" d="M75-23V-7h64l7 1 5 1 5 1 2 2 1 5 1 5 1 7V308L98 266l-2-20-17 8-41 51 123 63V631H56v22H161V863l64-10 17-11-17-10V653h11l44 48 54-48V631H225V401l77 38 29 12 5-8-47-42-51-39-13-9V15L224 1l-2-13-4-13-7-13-9-10-10-9-13-7-13-4-13-2-14-2v33L75-23zm638 1V-5H821h7l4 1 4 1 1 1 1 1h1l1 3 1 3 1 5V5e2H727v21H889l44 49 54-49V5e2H907V16L906 2l-2-13-4-13-7-12-9-11-11-9-12-6-13-5-13-2-14-1v32L713-22zM304 11l93 11 87 7v82H330v22H484v89H415V206l-64-32V513l64-32H617l32 26 59-48-27-21V211l-64-32v43H548V133h35l54 54 64-54V111H548V35l49 4 39 2 38 1h39l1-9-74-20L564-4 406-36 346-47l-9-19-13 15-20 62zM484 343H415V244h69v99zm133 0H548V244h69v99zM484 459H415V364h69v95zm133 0H548V364h69v95zM584 691h-2l5 13 58-28 12-16-25-5-29-46-32-45-3-4h85l34 37 43-37V538H302v22H555l4 10 4 19 4 18 4 16 3 16 4 14 2 13 2 11 2 10v4zM420 589v11l-1 21-3 21-2 11-3 10-7 22-5 10 7 5 8-8 10-7 10-8 17-18 7-10 14-22 6-11 6-13-5-24-20-15-24 5-15 20zM330 706v22H484V860l64-11 16-11-16-10V728h35l54 54 64-54V706H330zM908 833l54-48V763H752v22H864l44 48z"/><glyph unicode="&#178048;" horiz-adv-x="1024" vert-adv-y="918" d="M711 269l2-1-2-12H858l54 54 64-54V234H710l23-45 19-29 21-28 23-26 27-25 30-24 33-23 36-22 67-35-60-48-42 26-38 27-34 29-30 30-27 32-22 33-18 35-14 35-6 26-12-37-22-47-27-41-33-38L567 6 525-22 478-45 427-63 371-76l-3 9 52 23 45 25L506 8l35 30 30 32 25 35 20 38 15 41 12 44v6H432v22H646l3 16V417H559l-16-30-15-24-18-23-18-21-20-18-21-16-7 7 37 67 21 49 9 25 9 27 7 28 7 29 5 31 3 10 60-24 14-14-20-6-3-12-11-31-11-30-2-2H801l54 53 65-53V417H713V272l-2-3zM351-2l-7-11-7-11-9-10-11-8-11-7-13-6-12-3-14-2-13-1v32L168-13V3h86l7 1 6 1 5 1 5 2 7 5 5 7 4 6 2 7 6 19 6 26 4 31 4 37 4 42 2 47 2 53 1 120v15 43H231l-2-32-6-71-9-68-13-63-15-61-19-56-22-53-25-48L91-30 59-69l-8 6L74-19 94 27l19 48 15 52 14 55 10 59 8 62 5 65 3 69V654l64-11 17-11-17-9V509 487h92l32 27 59-48-27-17 1-41-1-122-2-54-3-49-3-43-5-39-5-35-6-29-8-26-5-13zM904 556l-10 25-23 48-5 8-67-20-46-12-89-20-44-8-44-8-84-13-20-2-9-18-12 15-16 63 10 2 83 4 34 3 11 35 30 98 7 25 7 24 10 44 4 14 59-28 13-15-20-5-12-28-21-48-25-47-12-23-14-23-16-22 74 7 184 19 17 1-13 23-29 42-48 60 6 8 24-13 22-15 22-17 19-18 20-20 18-21 33-46 31-51V559l-16-19H922l-18 16zM55 654v21H206V853l64-11 16-11-16-10V675h65l53 54 65-54V654H55z"/><glyph unicode="&#178049;" horiz-adv-x="1024" vert-adv-y="918" d="M885-40 856-17 829 8 804 35 781 64 760 96l-20 34-16 35-14 38-7 26-16-49-26-52-32-46-37-42L547 4 498-27 442-52 381-71l-3 9 56 29L483-3l42 34 37 37 31 40 24 44 19 47 10 41H420v21H651l6 44 2 54v18l65-14 15-11-17-10-4-44-7-37H850l53 54 65-54V240H713l39-60 21-30 23-28 23-26 24-23 25-21 26-19 28-16 54-29-60-48-31 20zM364-6l-7-11-9-10-10-9-10-8-12-6-12-5-13-4-13-1-14-1v32L178-13V3h86l8 1 6 1 11 3 8 5 4 4 4 5 4 5 3 7 7 18 7 24 5 30 5 36 3 42 3 48 1 52v58l-2 64-1 18-2-1v43H232l-1-32-7-71-9-68-14-64-16-60-20-56-24-53-27-49L84-31 49-69l-8 6L66-19 89 27l20 49 17 52 15 55 11 58 9 62 6 65 3 69V654H45v21H210V853l65-11 16-11-16-10V675H377l44 49 39-35H744l4 10 4 20 6 18 18 69 4 17 5 26 4 13 58-29 12-16-22-5-31-56-21-31-24-33-2-3h75l44 48 53-48V667H726V545h62l54 54 65-54V524H726V402H834l54 53 64-53V380H436v22H661V524H481v21H661V667H475V654H234V509l-1-22H338l32 27 59-48-25-16 2-42 1-64V284l-1-54-2-50-4-44-5-40-6-34-8-30L370 6 364-6zM589 746l-2 14-3 13-3 14-8 26-5 13-4 14-7 12 7 6 10-10 12-10 11-10 20-24 17-27 8-14 7-15 5-15-3-24-20-15-24 4-15 20-3 28z"/><glyph unicode="&#178050;" horiz-adv-x="1024" vert-adv-y="918" d="M358 3V25H638V380H427v21H638V750H395v22H828l54 54 64-54V750H703V401h92l54 54 65-54V380H703V25H864l54 53 64-53V3H358zM71 777l65-32H280l33 27 59-48-27-22V111L280 78v43H136V57L71 25V777zM852 119l-7 21-16 41-18 38-19 36-22 36-12 17 7 7 35-25 17-15 30-32 28-37 13-20 24-42-1-25-17-17H870l-18 17zM280 423H136V143H280V423zm0 301H136V444H280V724z"/><glyph unicode="&#178051;" horiz-adv-x="1024" vert-adv-y="918" d="M442 438l64-32H868l32 27 59-49-27-21V10L868-23V42H506V-23L442-55V438zM73 777l65-32H286l32 27 59-48-27-22V89L286 57v64H138V57L73 25V777zM868 384H506V63H868V384zM286 423H138V143H286V423zm0 301H138V444H286V724zM879 830l58-30 12-16-20-4-37-80-68-131-38-63-22-31-8 5 24 70 74 205 22 68 3 7zM542 564l-7 31-10 29-10 27-12 27-13 26-29 49-34 48 6 8 26-18 23-19 22-22 20-24 19-26 17-27 15-29 14-31 12-32 10-33-4-24-20-15-24 4-14 20-7 31z"/><glyph unicode="&#178052;" horiz-adv-x="1024" vert-adv-y="918" d="M206 377l65-32H742l32 26 59-48-26-21V-12L742-44V20H271V-44L206-76V377zM742 171H271V42H742V171zm0 152H271V193H742V323zM904 498l65-54V423H55v21H851l53 54zM422 538l-6 13-17 27-23 27-47 44-7 5-29-42-25-30-27-28-30-28-32-25-35-24-38-21-6 8 31 30 29 29 51 58 41 59 18 31 15 31 12 32 13 41 58-29 12-15-20-4-7-16-17-35-6-10 29-12 20-9 20-11 17-11 17-12 15-13 13-14 13-15 11-15 1-24-15-19-25-2-19 16-5 13zm385-20-8 15-10 16-23 32-28 32-34 34-4 4-11-17-23-32-26-29-27-28-31-26-32-24-36-21-37-18-5 8 31 27 55 54 25 28 42 58 18 31 16 32 13 33 15 42 58-28 12-16-21-4-7-18-19-35-2-4 29-14 21-12 20-13 18-13 34-29 15-16 13-16 13-18 2-24-15-20-24-2-20 15-7 16zm60 345 64-53V788H98v22H813l54 53z"/><glyph unicode="&#178053;" horiz-adv-x="1024" vert-adv-y="918" d="M93 853l64-33H297l32 27 59-48-27-22V19 6L359-8l-5-12-7-13-8-11-11-8-12-7-13-4-14-3-14-1v33L189-18V-2h86 7l5 1 5 2 1 1 1 1 1 2 1 3 1 5V326H157V304l-2-57-4-54-6-49-8-46-10-40-12-36-14-33L86-38 67-60 47-75l-7 7L51-47l9 23L68 3l8 30 6 35 5 38 4 43 2 48 1 51-1 56V853zM645-25V-9H759l5 1 3 2 2 1h1l1 1 1 2 1 3 1 5V257H381v21H774V423l62-10v39H453v21H836V632H474v22H836V793H459v21H836l32 27 59-48-27-22V419l-62-31V278h19l54 54 64-54V257H838V13-1l-2-14-5-12-7-12-8-12-11-8-12-7-13-4-14-3H752v32L645-25zM582 73l-2 10-3 11-6 12-7 13-21 29-27 32-16 16 5 7 40-22 34-23 15-12 14-12 12-13 10-12 8-14 7-15-3-24-20-15-24 4-15 19-1 9zM297 568H157V347H297V568zm0 231H157V589H297V799z"/><glyph unicode="&#178054;" horiz-adv-x="1024" vert-adv-y="918" d="M894-61 860-41 828-18 799 7 772 35 749 65 728 98l-18 34-14 37-3 14-20-48-21-37-25-34-30-31L564 5 527-21 486-43 442-62 394-78l-4 9 43 25 39 26L507 8l30 27 27 30 23 30 19 31 15 33 11 34 3 12H392v21H639l6 171H534l-17-31-16-25-35-47-21-21-22-19-7 6 26 50 23 50 11 26 18 52 7 27 7 27 5 28 2 10 61-24 13-14-20-6-13-39-12-28H798l54 54 64-54V397H710l-6-171H847l54 54 64-54V205H7e2l38-57 22-28 23-26 25-24 26-21 28-19 30-16L923-1l70-26-62-52-37 18zM99 853l65-33H313l32 27 59-48-27-22V19 6L374-8l-4-12-7-13-9-11-10-8-13-7-13-4-13-3-14-1v33L205-18V-2h86 7l5 1 5 2 1 1V3l1 2 1 3 2 5V326H164V304l-3-57-4-54-7-49-8-46-10-40-12-37-14-32L89-38 70-60 49-75l-6 7L54-47 64-24 73 3l8 30 7 35 5 38 4 43 2 48 1 51-1 56V853zM313 568H164V347H313V568zM476 828l64-32H816l33 27 59-48-27-22V533l-65-32v65H540l-64-33V828zm340-53H540V587H816V775zM313 799H164V589H313V799z"/><glyph unicode="&#178055;" horiz-adv-x="1024" vert-adv-y="918" d="M81 853l65-33H276l32 27 59-48-26-22V19L340 6 337-8l-4-12-6-13-9-11-11-8-12-7-13-4-14-3-14-1v33L168-18V-2h86 7l5 1 5 2 1 1 1 1 1 2 1 3 1 5V326H146V304l-3-57-4-54-5-49-8-45-10-41-11-36L92-10 77-38 59-59 39-75l-7 7L42-48l9 24L59 2l7 31 6 34 5 39 3 43 1 48 1 51-1 56V853zM911-51 882-22 860 18 843 67l-13 59-9 69-4 39H687V-34L622-67V234H498l-4-40-7-43-10-40-12-36-15-34-17-30-20-26-22-23-26-18-27-14-6 8 20 21 17 22L384 5l13 26 11 29 9 30 7 34 6 36 2 39 2 42V627l64-32H734l20 49 88 193v-1l3 6 54-36 9-17-20-1-75-112-53-71-10-10h64l32 26 60-48-27-16h-1l-3-87V369l4-89 6-78 9-65 11-53 14-40 10-19 25 107h11L954 0l5-2 21-14 6-23-13-21-24-6-38 15zM622 412H498V256H622V412zm189 0H687V256H816l-2 20-3 92v44zM276 568H146V347H276V568zm346 5H498V433H622V573zm192 0H687V433H811v38l3 102zM276 799H146V589H276V799zM477 666l-3 14-6 29-4 14-10 28-11 29-7 15-8 13 7 6 12-11 13-10 13-11 11-12 21-26 18-29 15-31-2-24-20-16-24 3-15 19zm140 42-2 15-4 14-9 30-5 15-7 15-15 33-9 16 7 6 28-25 14-13 12-14 22-28 18-30 8-16 6-16-3-25-20-15-24 5-15 19-2 14z"/><glyph unicode="&#178056;" horiz-adv-x="1024" vert-adv-y="918" d="M379 348l-15 26-8 12-21 25-25 24-25 22V-40L221-72V438l-14-36-20-48-22-46-24-45-27-43-28-40-31-39-9 5 63 133 19 46 32 93 14 48 12 50 11 50 6 34H51v21H221V863l64-10 16-11-16-10V621h37l53 54 65-54V6e2H285V474l23-7 19-7 17-8 33-19 15-10 14-12 26-27 5-24-13-20-24-5-21 13zM921 30l64-54V-45H361v21H867l54 54zM882 84l-6-12-7-11-9-10-10-9-11-7-13-5-12-4-14-2-13-1V55L679 72V88H787h7l6 1 4 1 5 2 6 5 6 7 2 6 3 7 7 27 6 36 7 44 5 51 5 60 3 68 3 74 2 83 1 90 1 88H671l-5-105-11-106-10-65 23-20 31-30 28-31 25-34 23-36 2-24-15-19-25-3-19 16-18 33-20 32-22 31-24 29-16-64-26-79-31-69-37-60-42-50-47-38-53-28-4 8 44 35 38 43 34 50 30 58 25 66 21 76 16 85 2 13-43 35-34 25-74 47 4 9 44-14 41-17 39-20 28-18 4 34 7 104 2 101H423v21H866l32 27 59-48-27-17V650l-1-91-3-84-2-76-4-68-5-61-5-54-7-47-7-39-9-33-5-13z"/><glyph unicode="&#178057;" horiz-adv-x="1024" vert-adv-y="918" d="M921 842l64-54V767H787V595h89l32 26 59-48-27-21V283l-64-32v64H787V-40L723-72V315H628l-7-48-13-63-19-57-23-52-28-47L505 8 468-27 425-55 379-76l-4 9 39 29L448-6l30 36 25 40 22 44 17 49 13 53 9 59 3 40H481V251l-65-33V627l65-32h89V767H372v21H867l54 54zM333 350l-12 25-8 13-18 24-9 12-23 23-6 6V-40L192-72V419l-24-64-20-46-22-45-24-43-26-41-28-39-9 5 38 88 33 90 15 46 13 47 13 49 10 48 10 51 5 35H44v21H192V863l65-10 16-11-16-10V621h16l54 54 65-54V6e2H257V472l18-6 17-6 15-8 16-10 14-10 27-22 24-26 4-25-15-20-24-4-20 15zm297-13h93V573H634V406l-4-69zM876 573H787V337h89V573zM723 767H634V595h89V767zM570 573H481V337h88v1l1 68V573z"/><glyph unicode="&#178058;" horiz-adv-x="1024" vert-adv-y="918" d="M388 335l-21 13-22 39-10 12-21 24-26 24-10 10V-45L213-77V433l-11-31-20-48-22-46-23-45-26-43-27-40-31-39-8 5 60 133 34 91 15 48 14 48 12 50 11 50 5 34H49v21H213V863l65-10 16-11-16-10V621h31l54 54 65-54V6e2H278V474l22-7 17-7 18-8 16-9 15-10 29-22 26-27 4-24-13-20-24-5zm65 432 61-31 171 42 42 12 75 24 63 26 21 11 5 2 5-11 42-38V786l-20 8-30-11-34-10-36-10-39-9-41-8-45-8-48-7-50-5-53-5H517V584H684V729l65-11 16-11-16-9V584H861l54 54 65-54V562H7e2V401H861l33 27 59-48-27-17V338l-1-49-3-47-4-43-5-40-7-38-10-33-10-32-13-28L859 3 851-8l-9-9-10-9-10-8-11-7-11-5-13-5-12-2-14-2-12-1v32L641-8V9H749h7l7 1 12 3 6 3 5 3 5 4 5 4 5 6 15 25 10 22 9 26 8 30 6 33 5 37 4 41 2 44 1 48v41H7e2V363l-4-51-8-50-13-47-17-47-22-44-27-43-30-40L544 3 505-32 461-65l-6 7 35 40 33 40 28 40 24 41 20 41 16 42 12 43 8 44 4 45 1 45V562H517V396l-3-57-5-56-8-52-11-51-12-49-17-47-18-43L422-1 398-39 371-74l-8 5 17 40 16 40 14 42 13 44 10 45 9 47 5 49 4 51 2 52V767z"/><glyph unicode="&#178059;" horiz-adv-x="1024" vert-adv-y="918" d="M874-53 817-40 768-18 729 10 699 45 676 84l-16 43-11 47-12-48-15-49-17-45L586-9 564-45 540-74l-8 5 14 34L560 3l12 40 11 45 10 48 8 53 7 56 5 61 3 65 2 64v18l64-15 17-12-18-9-4-50-7-66-9-62 19-57 16-41 19-35 23-30 2-2V605H586v3l-4-1-29-60-42-76-22-36-9-13 31-5 16-11-16-9V-40L446-72V376l-31-39-27-29-29-28-8 6 61 102 38 71 35 73 31 78 14 40h1l3 7 55-30H816l-6 2 5 23 5 23 4 23 27 113 5 23 4 18 4 14 59-27 13-15-21-6-9-24-40-87-22-41-24-39h34l54 54 64-54V605H804V337h71l33 37 43-37V315H804V32l31-10 47-9 58-1h64L940-59l-66 6zM325 336l-19 15-18 37-8 13-8 11-19 24-14 15V-40L175-72V408l-18-53-19-46-21-45-22-43-24-41-27-39-9 5L85 278l15 45 13 46 12 48 12 48 10 49 9 50 4 36H39v21H175V863l64-10 17-11-17-10V621h26l44 49 54-49V6e2H239V471l16-5 16-7 15-8 14-9 27-21 12-12 12-13 10-13 3-24-15-20-24-3zM507 862l57-31 11-17-20-3-24-50-36-64-39-59-42-54-23-24-24-22-8 6 62 115 44 94 27 67 15 42zM673 699l-1 17-2 17-3 17-3 18-10 35-11 36-8 17 8 6 27-30 12-16 11-17 9-16 9-18 9-18 7-19 5-18 6-20-7-23-21-13-24 7-12 21-1 17z"/><glyph unicode="&#178060;" horiz-adv-x="1024" vert-adv-y="918" d="M894-32 853-6 817 24 786 59 759 27 718-9 674-38 627-61 577-76l-3 9 44 25 40 27 37 33 33 36 30 42 2 3-24 46-19 49-15 54-9 58-4 57H650v22H861l33 27 59-49-27-16-7-3-12-47-23-65-26-60-29-54-9-13 8-10 29-27 32-22 34-18L1e3 2 938-52 894-32zM304 337l-18 15-16 37-7 12-15 24-9 12-10 11V-40L165-72V395l-14-40-36-90-21-44-23-40-26-40-8 5L81 277l14 46 24 93 11 48 9 50 7 50 5 36H41v21H165V863l64-10 16-11-16-10V621h14l44 49 54-49V6e2H229V470l13-4 15-7 14-8 14-10 25-21 22-24 11-14 1-24-15-19-25-2zM480 876l59-27 12-15-22-6-13-25-17-32-21-32-24-33-2-4h86l32 27 59-48-27-22V476l-64-32v32H429V331H549l32 27 59-48-27-22V57L549 25V78H429V14L364-18V734l65-32h8l4 11 23 91 8 33 4 26h-1l2 4 3 9zm69-566H429V1e2H549V310zm309 53H7e2l15-53 18-54 20-48 22-43 12-18 22 47 21 57 17 62 11 50zM677 831l64-32h85l32 27 59-49-27-21V546v-6-5l1-4 1-4 3-3 4-2 5-2 8-1h23l27 92h11l-11-92 16-10 11-17-11-16-16-10H912 899l-13 2-13 3-12 6-10 8-9 10-7 12-5 12-3 14-1 13V777H741V659l-3-32-5-30-7-30-10-28-11-28-14-26-17-24-18-23-21-21-24-19-7 7 28 49 12 24 10 25 8 25 6 25 5 25 3 27 1 27v27V831zM538 681H429V498H538V681z"/><glyph unicode="&#178061;" horiz-adv-x="1024" vert-adv-y="918" d="M317 363l-7 13-7 12-7 12-18 24-21 24-5 5V-40L187-72V412l-21-57-18-46-45-88-25-41-27-39-9 5L94 278l15 46 14 46 25 95 10 49 9 51 5 35H46v21H187V863l65-10 16-11-16-10V621h30l44 49 54-49V6e2H252V472l16-6 17-7 15-8 29-19 13-11 25-24 11-14 3-24-15-20-24-3-20 15-5 12zM358-42v21H475V431l64-32H801l32 27 60-49-27-21V-21h19l44 48 53-48V-42H358zM801 101H539V-21H801V101zm0 138H539V123H801V239zm0 138H539V261H801V377zM468 489V424l-65-32V714l65-32h92V787H368v21H854l54 54 65-54V787H781V682h92l32 27 59-49-27-21V456l-64-32v65H468zm92 171H468V510h92V660zm156 0H624V510h92V660zm157 0H781V510h92V660zM716 787H624V682h92V787z"/><glyph unicode="&#178062;" horiz-adv-x="1024" vert-adv-y="918" d="M331 362l-6 13-8 12-17 25-11 12-23 23-7 7V-40L195-72V421l-25-66-20-46-22-45-25-43-26-41-28-39-9 5L95 278l32 92 14 47 12 49 11 49 9 50 6 35H44v21H195V863l64-10 16-11-16-10V621h19l54 54 64-54V6e2H259V472l19-5 17-7 16-8 16-10 28-21 25-24 12-13 4-24-14-21-24-4-21 14-6 13zM782-23V-6h97 7l4 1 4 1 3 1 2 4 1 3V9l1 6V320H472V-41L408-73V374l64-32h42V593l-33-37-31-30-33-25-34-23-6 8 52 60 49 67 23 36 13 23v27l11-6 18 35 10 22H387v22H563l18 45 20 55 57-30 12-16-20-3-13-30-10-21H888l44 48 54-48V750H617l-27-47-20-32 8-4H795l33 27 59-49-27-21V342h41l32 27 59-49-27-21V15 1l-3-13-4-13-7-12-9-11-11-9-11-6-13-5-14-2-14-1v32L782-23zM545 274l64-33H760l32 27 59-48-27-22V48L760 16V69H609V32L545-1V274zm215-54H609V91H760V220zm35 210H578V342H795v88zm0 110H578V452H795v88zm0 105H578V561H795v84z"/><glyph unicode="&#178063;" horiz-adv-x="1024" vert-adv-y="918" d="M346 361l-7 13-8 13-19 24-36 36-9 9V-40L202-72V430l-29-76-21-46-23-45-26-43-27-40-30-39-8 5 40 88 36 90 16 46 15 48 25 97 10 51 5 34H42v21H202V863l65-10 16-11-16-10V621h27l54 54 65-54V6e2H267V473l21-6 17-7 17-8 16-9 15-10 15-11 26-24 13-14 4-24-14-21-24-4-20 14-7 12zM779-23V-7h97l6 1 5 1 5 1 2 2 1 2 1 3 1 5v7V322H475V-33L411-65V376l64-32h61V624l-26-35-28-33-29-29-31-26-33-23-6 7 25 30 46 63 23 34 41 75 14 31H393v22H542l29 76 18 55 58-28 12-16-19-4-12-29-21-46-4-8H885l44 48 54-48V718H854V344h43l33 26 59-48-27-21V15L961 1l-2-13-5-13-6-13-9-10-11-9-12-7-13-4-14-2-13-2v33L779-23zM551 274l64-33H758l32 27 59-48-27-22V62L758 30V84H615V46L551 14V274zm207-54H615V105H758V220zm32 229H601V344H790V449zm0 135H601V471H790V584zm0 134H601V605H790V718z"/><glyph unicode="&#178064;" horiz-adv-x="1024" vert-adv-y="918" d="M774 553l3 4 2 3 47-44 6-19-23 4-59-49-32-24-16-10H842l53 53 65-53V396H743V291H850l44 48 54-48V269H743V160h87l53 54 65-54V139H743V16H865l54 54 64-54V-5H523V-43L458-75V304l-44-52-36-37-39-37-7 6 86 127 25 38 15 27v74l32-16 28 58 13 33 9 27h-1l4 10H372v22H541V713H395v21H541V863l65-10 16-11-16-10V734H743V863l65-10 16-11-16-10V734h48l44 49 54-49V713H808V584h72l44 48 54-48V562H548l54-27 12-15-20-4-24-48-20-35-10-15H683l7 9 63 93 17 26 4 7zM344 349l-14 26-8 12-18 24-22 24-21 20V-40L196-72V426l-27-72-21-46-23-44-24-43-27-41-29-39-8 5L94 278l33 92 26 96 12 49 9 50 6 35H41v21H196V863l65-10 16-11-16-10V621h44l44 49 54-49V6e2H261V473l20-6 17-7 17-8 30-19 15-11 13-12 25-26 4-24-14-21-24-4-20 14zM678 139H523V16H678V139zm0 130H523V160H678V269zm0 127H526l-3-5V291H678V396zm65 317H606V584H743V713z"/><glyph unicode="&#178065;" horiz-adv-x="1024" vert-adv-y="918" d="M494-3V-41L430-73V335l64-32H606l16 30 17 36 4 10H392v22H854l54 53 64-53V379H714l-24-28-20-20-11-10-22-18h-1H870l32 27 59-49-26-21V-25L870-57V-3H494zM333 350l-12 25-8 13-18 24-9 12-23 23-6 6V-40L192-72V419l-24-64-20-46-22-45-24-43-26-41-28-39-9 5 38 88 33 90 15 46 13 47 13 49 10 48 10 51 5 35H44v21H192V863l65-10 16-11-16-10V621h16l54 54 65-54V6e2H257V472l18-6 17-6 15-8 16-10 14-10 27-22 24-26 4-25-15-20-24-4-20 15zm240-69H494V18h79V281zM727 95H637V18h90V95zM870 281H791V18h79V281zM727 192H637V116h90v76zm0 89H637V214h90v67zM538 477v17h86 7l5 1 3 1 2 1 1 1 1 1 1 2 1 3v5l1 6V875l64-11 17-10-17-10V790l15-41 18-38 15-25 87 66 26 21 11 10 6 6 4 4 33-46 5-6 1-20-21 9-8-4-70-30-41-15-23-7-2-1 21-27 27-27 31-24 34-21 37-18 80-28-62-53-46 20-42 25-38 28-33 32-28 36-23 38-14 34V515 502l-3-14-4-13-7-12-8-11-11-9-12-6-13-5-14-2-14-1v32l-86 16zm46 296 59-48-27-16-8-4-3-10-13-33-17-30-19-28-22-26-26-22-28-21-31-18-34-14-36-12-5 9 32 21 28 21 24 21 22 22 19 24 16 24 13 25 10 26 8 28 3 13H393v21H551l33 27z"/><glyph unicode="&#178066;" horiz-adv-x="1024" vert-adv-y="918" d="M399 831l64-32H872l53 54 65-54V777H463V449l-3-75-3-71-6-65-8-61-9-56-12-51-13-45-16-41-18-35-20-29-8 5L366-7l8 40 8 45 6 50 5 54 4 60 2 64 1 69-1 74V831zM320 351l-5 12-14 25-16 24-9 12-25 28V-40L186-72V412l-20-57-20-46-43-88-25-41-28-39-8 5L93 278l29 92 25 95 10 49 9 51 5 35H46v21H186V863l65-10 16-11-16-10V621h29l44 49 54-49V6e2H251V471l16-5 16-7 15-8 15-9 14-10 26-23 12-12 10-14 4-24-15-20-25-3-19 15zm191-25 64-32H852l33 27 59-48-27-22V-23L852-55V-1H575V-39L511-71V326zM852 135H575V20H852V135zm0 138H575V157H852V273zM660 454l-6 17-7 19-10 20-10 19V347l-65-32V454l-11-23-15-26-16-24-19-22-19-20-8 6 20 50 19 52 9 28 8 29 14 62 6 33 2 17H474v22h88V756l65-11 16-11-16-9V638h11l33 37 43-37V616H627V551l23-12 11-6 20-15 19-15 8-9 8-9 2-25-15-19-24-2-19 15zm270-70-27 41-11 21-21 46-10 24-2 8V353l-65-33V490l-26-39-19-24-21-22-22-21-25-18-7 7 32 50 27 50 24 51 9 27 9 27 7 28 2 10H721v22h73V756l65-11 16-11-16-9V638h25l34 37 43-37V616H859V604l28-48 27-41 27-37 14-17 29-31 3-4-57-42z"/><glyph unicode="&#178067;" horiz-adv-x="1024" vert-adv-y="918" d="M136 627l64-32H308V815l64-11 16-11-16-9V595H512V869l65-11 16-11-16-9V734H754l54 54 64-54V713H577V595H877l44 48 53-48V573H2e2V385l-3-61-5-57-8-55-11-52-13-48-16-45-18-41-22-38L80-46 53-75l-8 6L63-34 79 1 93 39l13 41 10 44 8 46 6 49 4 52 2 56V627zM894-61 842-37 797-1 758 46l-32 57-6 15-46-40-44-33-46-28L536-8 487-28l-4 9 44 29 41 30 41 34 38 35 38 38 16 19-22 81-16 87-11 98-5 103h-1v18l65-11 16-10-15-10 4-85 11-93 15-83 8-32 36 52 31 50 32 59 54-36 9-17-20-1-22-37-36-51-38-48-27-31 15-39 27-48 31-37 34-27L913 1l10-2 30 128h11L953-7l2-1 22-11 8-23-12-22-23-8-56 11zM259 3V19h97l7 1 4 1 5 2 2 2 2 5 1 4 1 7V331H216v22H501l54 53 65-53V331H442V41l-1-14-2-13-4-13-7-12-9-11-11-9-12-7-13-4-13-2-14-1v32L259 3zm13 281 60-25 13-14-21-6-10-24-11-22-13-23-30-44-38-45-21-21-24-22-7 6 43 79 23 47 10 23 8 22 6 20 6 21 6 28zM556 173l-2 11-4 12-5 12-6 11-8 12-9 11-12 12-13 12-15 10 4 9 36-12 17-8 15-9 14-10 13-11 12-12 10-14 10-15 7-17-4-24-20-15-24 4-15 20-1 11zM881 439l-6 13-5 12-8 12-9 13-23 23-29 24-17 10 3 8 20-5 20-5 19-6 18-9 16-10 15-10 14-13 13-14 12-15 10-17V425l-18-17H902l-17 17-4 14zM528 519l54-48V449H254v22H484l44 48z"/><glyph unicode="&#178068;" horiz-adv-x="1024" vert-adv-y="918" d="M817 847l-16-9 2-148 5-133h38l54 54 65-54V535H809l9-127 13-114 9-50 24 63 20 62 18 76 61-24 13-15-19-5-14-49-25-66-28-61-31-57-3-4 12-45 23-59 25-40L931 6l28 121h11L960-7l23-11 9-23-11-22-23-9-51 16-41 36-33 52-25 64-22-28-42-44-46-39-49-33-53-28-4 8 45 37L679 8l39 41 36 45 33 47 6 11-8 32-18 1e2-13 118-10 133H623V86l84 20 44 10 3-10-81-38-83-33L508 5 384-35l-21-6-6-20-15 13-26 60 93 21 28 7V535H348l-9-5-4-1-8-66-15-86-19-80-23-73-27-68-32-61-35-55L137-8 93-48 46-81l-6 8L79-33l36 44 32 49 28 54 26 60 21 65 4 14-18-13-24 5-14 20-2 15-2 15-3 14-5 14-5 12-12 25-8 13-7 10-25-48-26-39-28-37-8 5 35 84 17 45 15 47 14 49 12 51 11 54 9 56 7 59 5 47H43v21H265l44 49 54-49V756H228l-8-56-11-60-14-57-4-15h83l33 27 46-38H498V691H350v22H498V869l65-11 16-11-16-9V713h60l44 48 54-48V691H563V557H743l-5 132-2 164v18l65-13 16-11zM496 535V54l68 16V535H496zM359 178l-1 43-1 23-1 21-3 22-2 21-7 43-2 22-5 22 9 3 23-39 19-41 15-44 12-44 5-24 3-23-7-23-22-11-23 7-12 22zM680 413l60-25 13-14-20-6-5-15-36-85-23-50-28-55-9 3 11 60 22 101 10 60 3 17 2 9zM273 546H185l-21-71-19-49-13-30 16-7 13-9 14-10 12-12 11-13 11-15 9-16 8-17 7-17 8 30 15 78 11 82 6 76zM886 663l-3 14-8 27-10 28-13 28-15 29-10 14 7 7 13-12 14-9 26-23 23-25 11-13 18-28 8-15-1-24-18-17-25 2-17 17z"/><glyph unicode="&#178069;" horiz-adv-x="1024" vert-adv-y="918" d="M831-28 758 11 695 61l-52 63-43 74-33 86-25 96-7 43H238V56l315 81 4-9L454 82 356 44 217-5 110-37l-7-19L89-43 64 18l94 19 15 4V734l63-31 144 31 115 28 112 31 109 37 54 19 3-8 49-42 1-17-22 10-66-21-114-30-44-10 2-122 10-114 8-51H840l54 54 64-54V423H6e2l5-30 23-89 30-78 38-65 45-53 53-43 62-34 36-12 29 124h10L921 10l7-2L947-6l5-25-15-20-24-4-82 27zM515 605l-3 114-66-12-59-8-60-6-61-4-28-1V444H532l-7 43-10 118zm334-22-5 15-7 14-9 15-11 14-26 30-33 30-20 14 4 9 46-18 21-10 20-12 18-12 17-14 15-15 13-16 12-17 10-19-2-24-18-18-24 2-17 18-4 14z"/><glyph unicode="&#178070;" horiz-adv-x="1024" vert-adv-y="918" d="M833-35 763-3 7e2 39 646 90l-46 58-37 67-29 74-10 42H240V48L367 72l198 38 2-9-47-20-95-34-95-29L235-8 141-29l-25-5-9-19L94-38 73 24 175 38V826l65-33H757l32 27 59-48-27-22V514l-64-32v64H562l4-80 11-83 8-30H801l53 53 65-53V331H590l5-22 26-67 33-58 39-51 47-43 54-36 63-29 33-11 29 124h11L920 5l6-2 20-15 4-25-15-19-24-4-78 25zM498 546H240V353H518l-4 18-13 90-3 85zm419-93-2 14-9 26-6 13-8 13-9 14-20 27-13 13 6 7 32-17 16-9 14-12 14-11 12-13 12-14 9-15 9-16 7-17-3-24-19-15-24 3-16 20-2 13zM757 772H240V568H757V772z"/><glyph unicode="&#178071;" horiz-adv-x="1024" vert-adv-y="918" d="M344 740l64-11 16-11-16-9V-45L344-77V740zM760-24V-8H868l6 1 5 1 3 1 3 1 1 1v1l1 1 1 4 1 5v6V756H563v21H889l33 27 59-48-27-22V14L953 1l-2-14-5-13-6-12-9-11-11-9-12-7-13-4-13-2-14-1v32L760-24zM184-58l-23-8-22 11-8 23 3 38V41l-2 31-4 29-7 24-6 14-4 1 2 4-2 4-11 20-14 17-18 17-21 16 3 9 28-7 25-12 23-17 4-4 89 198 95 196 9-4L202 226l-20-64-5-22-3-15-4 1 5-11 10-33 7-36 3-40V-37L184-58zM787 103l-25 38-52 74-27 34-19 22-13-20-32-43-34-39-38-35-39-30-43-26-6 8 35 33 33 36 31 37 28 40 26 43 18 34-33 35-91 85 5 8 38-19 36-23 35-25 28-22 10 21 19 52 17 55 10 38H465v22H724l54 54 64-54V514H770l-18-57-21-56-24-54-19-35 32-30 62-68 30-37 28-38 5-24-13-21-24-5-21 14zM138 481l-5 11-6 10-7 11-21 22-26 22-16 11-18 10 4 9 20-6 19-4 19-6 17-7 17-8 15-8 14-10 13-12 11-12 11-14 1-24-15-19-25-2-19 16-3 10zM646 593l-2 10-2 10-4 11-8 20-12 20-6 11-9 8 5 8 12-7 23-11 11-7 21-17 9-10 9-11 8-10 7-13-1-24-18-17-24 1-17 18-2 10zM467 738l-3 15-4 15-6 15-8 15-8 14-10 14-26 29-16 13 5 8 39-17 17-10 17-12 15-13 14-15 13-17 10-17 9-19 8-20-5-24-20-15-24 5-14 20-3 16zM206 728l-5 11-7 10-16 22-22 22-28 23-16 9 3 9 19-6 18-4 18-6 17-7 15-7 15-9 27-21 12-13 10-13 3-24-15-20-25-2-19 15-4 11z"/><glyph unicode="&#178072;" horiz-adv-x="1024" vert-adv-y="918" d="M888 858l65-11 16-10-16-10V-40L888-72V858zM436 346l-4-55-6-52-9-50-12-46-14-43-17-40-20-36L332-8 307-35 279-59l-7 7 19 29L308 8l15 33 13 35 11 38 10 41 7 43 4 47 3 50 1 53V858l65-11 16-10-16-10V347l-1-1zM766 59l-8 30-9 30-11 29-11 29-27 57-29 52-1-10-17-54-21-51-27-47-32-44-38-39L492 6 444-24 391-49l-5 8L432-7l42 35 36 38 30 39 26 42 21 44 15 47 11 50 5 52 1 40H469v21H620V595H496v21H706l53 54 65-54V595H684V401h65l53 54 65-54V380H683l-4-46-4-23 33-32 21-26 20-27 18-28 32-59 14-31 11-32 11-33-4-24L811 4 787 8 772 28l-6 31zM194-58l-23-8-22 11-8 23 3 38V41l-2 31-5 28-8 25-6 15h-3l1 3-1 4-13 20-15 18-19 17-23 16 3 9 29-7 27-11 23-17 7-6L262 445l70 136 10-4L212 225l-21-64-6-22-2-14-3 1 5-11 10-33 7-36 3-40V-37L194-58zM148 481l-5 10-7 11-18 22-25 22-15 11-17 11-19 10 3 9 21-5 21-5 20-6 17-6 18-8 16-9 14-10 14-11 12-13 11-13 2-25-16-19-24-2-19 15-4 11zM740 850l58-30 11-16-21-3-29-54-21-37-24-37-13-18-13-19-9 4 7 22 11 43 30 1e2 9 33v1l4 11zM573 668l-5 39-3 18-4 18-13 50-5 17-4 16-7 14 8 6 24-25 11-14 11-15 9-16 19-35 8-18 14-41-4-24-20-14-24 4-15 20zM220 727l-6 11-7 11-18 22-24 22-29 23-18 9 4 9 20-6 19-4 19-5 17-7 32-17 14-10 14-11 12-12 11-13 3-25-15-19-24-3-20 14-4 11z"/><glyph unicode="&#178073;" horiz-adv-x="1024" vert-adv-y="918" d="M663 390l64-10 16-11-16-10V245h75l54 54 65-54V224H727V-45L663-77V224H534V84L469 52V224H313v21H469V390l65-10 16-11-16-10V245H663V390zM174-47l-23-8-22 11-8 24 3 38V53l-1 32-5 29-6 25-5 13-4 1 2 5-12 24-14 18-15 17-20 15 4 9 26-7 24-12 22-17 2-3L231 460l64 138 9-3L191 241l-18-65-5-22-2-15-5 1 6-13 9-33 6-36 3-40 1-43-12-22zM844 82l-4 12-5 11-7 12-8 12-10 12-23 25-14 13-17 11 4 9 20-8 19-6 17-8 17-9 15-9 14-11 13-12 12-12 10-14 10-15-1-25-17-17-25 1-17 17-3 11zm87 228-34 20-60 42-52 45-22 24-20 25-16 25-14 27-8 23H526l-22-35-20-30-48-56-27-28-29-25-30-26-33-24-35-22-36-21-6 8 86 85 26 28 45 57 20 28 35 58 2 3H302v21H458V697H318v21H458V853l65-11 16-11-16-10V718H684V853l65-11 16-11-16-10V718h32l54 54 64-54V697H749V562h75l54 54 64-54V541H721l30-30 43-37 24-19 52-34 29-16 93-45-61-50zM128 499l-5 11-5 10-7 11-9 11-21 22-28 23-16 9 3 9 19-6 19-4 17-6 17-7 16-8 14-10 14-10 12-12 11-12 10-13 1-25-16-18-25-1-18 16-3 10zM684 697H523V562H684V697zM192 748l-5 11-6 11-7 11-8 11-21 22-24 22-16 9 4 9 18-6 17-4 17-6 16-7 15-8 14-9 13-10 12-12 12-12 10-13 1-25-15-18-24-3-20 16-3 11z"/><glyph unicode="&#178074;" horiz-adv-x="1024" vert-adv-y="918" d="M866-61 840-35 809-8 771 21 703 67 677 83l4 9 58-17 26-9 49-21 43-23 19-12L894-2l16-13 10-23-9-22-22-10-23 9zM613 337l65-11 16-11-16-10V230l-5-49-12-46-19-40-25-37-32-33L547-3 504-26 456-45 402-59 342-69l-2 10 56 19 49 22L488 5l36 26 29 27 24 29 17 32 12 34 6 37 1 40V337zM184-58l-23-8-22 11-8 23 3 38V41l-2 31-4 29-7 24-6 14-4 1 2 4-2 4-11 20-14 17-18 17-21 16 3 9 28-7 25-12 23-17 4-4 89 198 95 196 9-4L202 226l-20-64-5-22-3-15-4 1 5-11 10-33 7-36 3-40V-37L184-58zM430 435l65-32H796l32 27 59-49-27-21V92L796 60V381H495V84L430 52V435zm466 4-28 14-26 16-25 19-22 22-20 26-15 30-10 32-3 16-9-23-22-38-28-32-32-25-36-19-40-14-42-10-46-6-51-5-2 10 91 29 38 16 33 17 28 19 23 23 19 26 15 32 11 39 8 43 3 16 62-21 14-13-19-8-4-14 5-16 14-31 15-25 16-21 19-17 20-14 22-12 24-10 26-9 27-9 37-14-62-52-28 13zM138 481l-5 11-6 10-7 11-21 22-26 22-16 11-18 10 4 9 20-6 19-4 19-6 17-7 17-8 15-8 14-10 13-12 11-12 11-14 1-24-15-19-25-2-19 16-3 10zm284-28-25-2-18 16-2 24 2 1 2 2 2 3v1l-13-9-5 39-13 12-14 11-18 9 3 9 20-7 18-4v3l12 7 29 21 54 53 92 104 8-6-34-67-34-56-32-46-15-19-15-18-7-6 9-10 7-14 4-15-1-17-16-19zM627 880l59-27 12-15-20-5-14-33-12-26-5-8H878l4 3v2l2-1 26 22 59-48-26-16-31-13-12-11-31-25-12-9-10-11-8 6 9 13 20 49 7 17H636l-13-21-33-49-18-24-20-23-22-22-8 6 50 107 21 51 9 26 15 51 6 21 4 13zM206 728l-5 11-7 10-16 22-22 22-28 23-16 9 3 9 19-6 18-4 18-6 17-7 15-7 15-9 27-21 12-13 10-13 3-24-15-20-25-2-19 15-4 11zm222 10-4 7-4 8-7 8-16 17-10 9-10 9-13 9-14 7 3 9 16-4 16-3 15-3 14-4 13-4 13-6 12-6 11-7 11-8 10-9 4-24-13-21-24-5-21 13-2 8z"/><glyph unicode="&#178075;" horiz-adv-x="1024" vert-adv-y="918" d="M473 503v22H667V697H523v21H667V874l65-11 16-10-16-10V718h11l44 49 52-47 41 88h-1l6 11 55-32 11-17-20-3-28-55-39-71-41-67-35-49h75l54 53 64-53V503H772l-39-50-48-54-37-36H844l32 27 59-49-27-21V-22L844-54V0H629V-38L564-70V291l-36-26-57-34-5 8 49 42 49 45v1 68l44-22 46 53 43 55 16 22H473zM422 15l1-1-7-9-1 1-35-35-54 54 32 32V519H272L197 269 168 162l-4-22-3-14-4 1 5-13 9-33 6-36 3-39V-36L169-58l-23-8-22 11-8 23 2 38 1 35-2 32-3 28-6 25-4 12-5 1 2 7-11 22-12 18-14 16-18 15 4 9 24-7 24-11 19-17L220 444l36 82v15h6l18 40 9-4-10-36h79l33 27 59-49-27-21V103l65 64 41 38 8-6-42-71L422 15zM844 170H629V22H844V170zm0 171H629V192H844V341zM122 483l-4 11-5 10-6 10-8 11-9 10-22 22-13 12-16 8 4 10 17-6 18-5 17-6 15-7 29-16 13-10 11-12 11-13 9-13 1-24-17-19H142l-18 17-2 10zM828 697H732V532l44 71 38 66 14 28zm-441 3-3 16-4 15-6 15-6 16-8 15-18 29-11 16-13 14 6 7 34-19 16-12 15-13 13-14 13-16 11-16 10-17 9-18 7-19-4-24-20-15-24 4-15 20-2 16zM181 730l-4 10-11 22-8 11-8 10-10 11-23 22-14 9 4 9 16-6 17-5 16-5 15-7 14-8 13-10 24-20 11-13 10-13 1-24-16-19-25-1-18 16-4 11z"/><glyph unicode="&#178076;" horiz-adv-x="1024" vert-adv-y="918" d="M192-53l-23-8-21 10-9 24 3 38 1 35-2 31-4 28-7 25-4 13-5 1 2 5-12 23-12 18-16 16-19 15 4 9 26-6 23-13 22-16 1-2 81 194 89 195 9-3L209 230l-18-64-5-22-2-14-4 1 5-13 9-33 6-35 3-39V-31L192-53zM404 85V-45L340-77V460l64-32H603v91H329v22H539V858l64-11 17-10-17-10V541h65V858l64-11 17-10-17-10V541H845l54 54 65-54V519H668V428H867l32 27 59-49-27-21V14L930 1l-2-14-4-13-7-12-9-11-11-9-12-7-13-4-13-2-14-1v32L781-24V-8h64l7 1 5 1 4 2 3 2 1 5 1 5 1 6V406H668V-40L603-72V406H404V87l9 5 83 47 93 56 6-7-43-51-45-46-29-27-12-10V31l-18 8-44 46zM782 74l-7 12-17 25-21 26-41 44-16 14 6 8 19-10 19-9 36-19 30-21 28-21 23-24 5-23-13-21-24-5-21 13-6 11zM519 245l-6 13-15 23-17 23-9 11-20 22-11 11-13 9 4 9 15-6 17-5 15-6 29-14 27-18 25-22 12-12 5-24-13-21-24-6-21 13zM787 373l46-46 5-18-23 4-24-18-15-10-30-17-16-7-16-7-17-6-16-7-5 8 13 11 58 61 29 37 10 13 1 2zM145 484l-4 11-5 10-7 11-8 10-10 11-11 11-26 22-17 10 4 9 18-6 19-5 17-5 16-7 15-8 14-9 14-10 12-11 11-12 10-14 1-25-17-18-24-1-19 16-3 10zM854 787l56-32 11-16-21-3-11-20-38-61-30-40-34-40-19-20-8 5 69 159 15 41 7 20 3 7zM439 617l-5 21-7 19-7 20-9 18-18 36-23 34-13 16 6 8 37-24 17-14 16-16 15-17 13-18 13-20 12-21 20-45-3-24-19-16-24 3-16 19-5 21zM211 719l-3 11-10 21-7 11-8 11-19 22-25 22-15 8 4 9 17-6 18-4 16-6 15-6 15-8 14-9 13-10 12-11 11-12 10-13 2-25-16-19-24-1-20 15z"/><glyph unicode="&#178077;" horiz-adv-x="1024" vert-adv-y="918" d="M293 740l54-11 13-11-13-9V-48L293-75V740zM768-24V-8H876l6 1 5 1 5 2 2 2 2 5 1 5v6V482l-12-5-14-29-15-25-7-12-9-11-8-11-7-11-9 4 4 12 1 14 1 13 8 68 1 9H766l26-6 16-10-18-11-3-61-8-76-6-33 12-11 14-16 14-20 27-46 26-56 24-64-2-25-19-16-25 3-15 19-18 64-17 56-16 46-12 28-16-61-20-56-25-50-28-42-34-36L606-9 566-28l-5 9L594 8l28 30 25 36 22 41 18 47 15 54 12 59 8 66 5 73 1 74-1 10H706l-17-42-12-26-14-27-17-25-8 4 7 37-14-9V189l-59-29v61H522l-2-20-7-45-11-39-12-36-15-31-17-26L438 3 415-13 391-23l-4 7L405 1l15 18 14 21 11 25 9 29 8 33 6 37 4 41v16H421l-35-43-38 54 24 32V441l49-11 12-11-12-8V243h52l1 9-1 50V498H351v21H518l3 10 2 19 10 55 3 17 3 17 2 17 3 16 1 11h-1l4 14 60-25 13-15-21-6-20-43-25-49-10-17-10-16-3-5h41l34 38 43-38V498H527V302l-3-53v-6h48V441l59-11 15-10 15 76 6 28 8 57 4 29 2 29 2 24 2 17 62-19 16-12-19-9-8-40-16-59-7-22H832l32 27 33-27V756H529v21H897l33 27 59-48-27-22V14L961 1l-2-14-5-13-7-12-8-11-11-9-12-7-13-4-14-2-13-1v32L768-24zM165-58l-23-8-22 11-9 23 3 38 1 35-2 32-3 29-6 25-3 11-6 1 3 8-10 22-11 18-13 15-16 15 4 9 23-7 23-12 16-15 96 252 57 136 9-3-39-143-57-207-16-64-4-22-2-15-5 1 5-14 9-32 5-36 3-39V-36L165-58zM117 484l-3 10-11 21-15 21-9 11-23 22-14 8 3 10 17-6 17-5 16-6 14-7 14-8 14-9 12-11 11-11 10-12 9-14V474l-18-18H137l-18 18-2 10zm303 94-1 11-2 22-2 13-2 12-3 13-2 14-5 13 8 5 9-13 18-21 15-21 13-22 12-21 4-10-4-25-20-14-24 5-14 21v18zm6 159-4 15-5 15-7 15-9 15-10 14-12 15-29 29-19 13 5 8 42-16 20-11 18-11 17-13 15-15 13-17 12-17 10-19 8-20-4-25-20-15-24 5-15 19-2 16zm-253-6-4 10-5 11-5 10-7 11-8 10-19 22-10 11-14 9 5 8 15-6 16-4 15-6 14-7 13-8 13-9 12-10 11-12 10-11 9-13 1-25-17-18-24-1-19 17-2 11z"/><glyph unicode="&#178078;" horiz-adv-x="1024" vert-adv-y="918" d="M484-24V-40L419-72V245l-12-12-28-25-30-25-33-23-35-21-6 8 54 57 48 56 40 56 33 57 14 29 14 36 57-33 10-16-20-3-25-42-16-24H642l1 3 3 11 13 33 20 46 3 7-1 1 6 9 51-40 7-18-24 1-20-20-29-25-9-7-2-1H825l54 54 64-54V299H701V213H801l44 48 54-48V191H701V105H801l44 49 54-49V84H701V-2H864l54 54L982-2V-24H484zM2e2-59l-23-7-23 11-7 23 3 38V41l-2 31-5 28-8 25-7 15-3 1 1 2-2 4-13 20-16 18-20 17-23 16 3 9 30-7 27-11 25-17 7-8 98 201L344 581l9-4L218 225l-12-35-9-29-6-22-3-15-3 1 5-10 11-33 7-36 3-40V-37L2e2-59zM637 84H484V-2H637V84zm0 107H484V105H637v86zm0 108H484V213H637v86zM456 466V449l-65-32V654l65-33H850l32 27 59-48-27-22V444l-64-32v54H456zM154 480l-5 10-7 11-9 11-10 11-13 11-29 22-17 12-20 10 3 9 21-5 22-5 20-5 19-7 34-17 15-10 13-11 13-13 11-13 2-25-15-19-24-2-20 15-4 10zM620 6e2H456V487H620V6e2zm230 0H685V487H850V6e2zM727 869l64-11 16-11-16-9V767h67l54 53 64-53V745H791V670l-64-32V745H579V670l-65-32V745H328v22H514V869l65-11 16-11-16-9V767H727V869zM229 726l-6 12-16 22-22 22-28 22-16 12-18 9 3 9 20-5 20-4 19-6 18-7 17-8 31-19 14-11 12-12 11-13 4-24-14-20-25-4-19 15-5 10z"/><glyph unicode="&#178079;" horiz-adv-x="1024" vert-adv-y="918" d="M138-45 117-33 111-9l13 21 12 8 11 10 11 12 10 14 9 18 9 19 7 23 7 24 7 27 4 30h10l3-30 2-30-1-27-2-26-5-25-7-23-8-21L192-5 178-23 162-40l-24-5zM651 832h-1l6 10 53-36 9-17-21-1-42-56-49-55-19-18-24-21H695l32 26 59-48-27-16-11-5-29-124h62l32 27 59-49-27-16-11-4-29-125h62l32 27 59-48-27-16-2-1V250l-4-40-4-37-5-34-6-31-7-30-8-26-9-24L876 6 864-13l-7-11-10-10-9-8-10-9-11-6-12-5-12-5-13-2-13-2-13-1v32L646-24V-8H754l7 1 7 1 13 3 6 3 10 7 5 4 5 6 12 19 7 17 7 19 7 23 12 54 9 68 3 38 2 28H249l-62-63-64-52-71-45-5 8 63 53 57 56 51 61 46 64 39 69 34 73 28 79 22 83 17 88 11 92 1 13 63-17 15-13-18-8-12-77-20-92-6-17H545l70 122 20 39 16 33zM382-2 358-7 338 8l-5 24 5 13 3 14 3 15 1 15v15l-1 17-2 18-7 37-8 19 9 5 24-34 10-18 9-17 7-19 5-18 4-19 2-19V37l-1-19L382-2zM510 73l-1 14-2 14-3 14-4 15-6 15-7 15-16 31-12 15 6 7 31-23 15-13 13-13 12-15 10-15 9-16 8-16 7-18 4-18-7-24-21-11-24 7-12 21V73zm178 35-4 12-5 13-7 13-7 13-9 13-11 13-24 26-15 12 4 8 18-7 18-7 18-9 16-10 15-11 13-12 13-13 11-15 11-15 9-16-2-25-18-17-24 2-17 18-3 14zm89 341H363l-20-37-46-70-30-38H739l38 145zM691 616H431l-15-47-33-81-9-17H653l38 145zM223 642l-7 21-8 21-10 20-23 38-13 20-30 38-17 19 6 8 23-13 22-14 20-16 20-16 17-19 16-19 15-20 13-22 12-22 11-24-2-25-18-16-25 2-16 18-6 21z"/><glyph unicode="&#178080;" horiz-adv-x="1024" vert-adv-y="918" d="M875-38 836-8 801 27 772 69l-23 46-18 51-13 55-4 31-6-28-21-59-29-53-37-47-44-40L525-9 467-37 402-58 331-71l-2 9 67 24 59 28 52 30 43 36 36 39 29 43 22 48 15 52 9 58 2 62v97l65-11 16-11-16-9V375l3-26 11-62 14-56 14-42 95 161 13 26v3 1l1 3 1 1 3 6 54-35 10-17-24-1L820 218l-43-45 17-36 24-38 27-32 30-26 34-21L946 4l36-14-62-52-45 24zM350 96l-7 17-7 19-9 19-12 19-27 42-34 46-1 2-5-23-17-56-21-52-24-47-30-43L122 1 85-32 42-60l-5 8L71-17l30 37 26 39 23 42 18 46 16 49 11 52 8 56 4 60V847l65-10 16-11-16-10V541L384 679l5 6 46-46 4-19-21 4-65-54-62-47-19-14V428l-4-67-8-64-4-18 35-26 22-18 20-19 34-38 15-19 13-20 11-20 9-20-2-25-19-16-24 2-16 18-4 18zm109 52-21 13-5 24 13 21 14 9 13 11 12 13 10 15 9 18 9 20 6 24 5 25 4 29 2 31 10 1 6-32 5-30 1-28-1-28-5-25-7-25-9-23-13-21-15-20-19-17-24-5zM85 351l-25 5-13 20 5 25 11 15 10 16 8 19 7 22 6 23 5 26 3 28 2 30 1 33 1 35 9 1 10-34 8-33 4-31 2-31V491l-2-28-4-27-7-25-9-24-12-23-20-13zM899 826l59-48-27-22V459l-64-33v43H457v22H867V633H480v21H867V778H464v21H867l32 27z"/><glyph unicode="&#178081;" horiz-adv-x="1024" vert-adv-y="918" d="M895 43 866 70 840 99l-25 32-22 33-20 35-17 36-16 39-11 40-8 39h-6V-40L651-72V318l-21-52-23-42-27-39-30-36-34-34-38-31-42-28-45-25-49-21-5 9 43 30 40 31 36 31 31 33 28 34 24 35 21 38 17 38 13 40 5 24H408v21H651V530l64-11 16-10-16-10V374H857l53 54 65-54V353H733l37-66 20-33 21-32 23-29 24-27 25-26 26-23 28-22 48-32-59-46-31 26zM316 97l-5 18-7 18-8 19-22 40-12 21-29 43-3-19-15-55-19-52-23-48-27-42L115 1 81-32 42-60l-6 8L66-18 93 19l23 39 20 43 17 45 14 49 10 52 7 57 3 60V847l65-10 16-11-16-10V546l77 106 18 25h-1l6 7 47-44 5-19-21 4-59-54-57-48-15-12V428l-3-67-8-64-4-20 31-24 38-38 31-38 14-19 12-20 10-20 8-20-2-24-19-16-25 3-15 19-4 17zM82 352l-24 3-14 20 3 25 10 14 9 18 8 19 7 21 5 24 5 26 3 28 2 31 2 32v35l10 1 9-34 8-33 4-31 2-31 1-29-2-28-3-26-6-25-8-24-11-22-20-14zm339 64-23 10-9 22 9 23 5 4 7 6 6 9 7 13 6 15 6 19 4 20 10 50 3 28 9 1 4-29 2-18H887l33 27 59-48-27-16-17-7-32-46-20-26-12-14-10-16-9 4 7 17 5 18 12 47 7 27 3 12H469l1-13 1-23-1-21-2-20-3-18-5-18-7-15-9-15-23-9zM747 874l65-11 16-10-16-10V761h47l54 53 64-53V739H812V652l-65-33V739H624V652l-64-33V739H394v22H560V874l64-11 16-10-16-10V761H747V874z"/><glyph unicode="&#178082;" horiz-adv-x="1024" vert-adv-y="918" d="M480 585l64-11 16-11-16-9V404H749l53 54 65-54V383H544V195H867l54 54 64-54V174H544V-39L480-72V174H50v21H480V383H250l-35-42-53-56-30-25-31-25-7 7 89 124 38 60 32 62 15 30 16 38 56-34 10-16-20-3-26-44-38-55H480V585zm187 84H894l3 5 2-1 27 23 59-49-27-16-19-8-39-47-28-30-33-33-17-18-8 6 12 22 47 94 14 30H148l1-17-3-29-3-27-7-25-8-22-11-21-14-19-17-16-23-5-21 13-5 24 13 21 10 7 11 9 10 12 10 16 9 19 8 22 7 25 6 28 6 32 4 34h10l4-35 2-24H648l93 133 30 50 6 14v-1l3 5 52-38 8-18H818l-23-26-72-71-56-48zM285 724l-4 12-6 13-15 26-9 13-24 26-14 15-16 12 5 9 19-9 19-8 18-9 16-10 16-11 14-12 13-13 12-13 10-15 9-15-1-25-18-17-25 1-16 18-3 12zm210 15-3 14-5 14-6 14-15 28-10 14-24 30-15 13 5 8 37-19 17-10 16-12 15-13 13-13 12-15 11-16 9-16 8-18-3-24-19-15-25 3-15 19-3 14z"/><glyph unicode="&#178083;" horiz-adv-x="1024" vert-adv-y="918" d="M886-61 824-26 770 28 731 86 676 52 619 21 558-7 495-32 428-53 357-71l-3 9L484-5l59 30 56 31 53 34 49 36 7 5-25 53-33 103-9 37-209-25-2 21 206 24-14 61-12 72-161-16-3 21 160 16-7 43-9 86-158-16-2 21 157 16-5 45-11 169v12l65-9 16-10-15-10 10-146 5-44 182 19 48 59 69-47 3-21-3e2-31 9-85 8-45 136 14 48 59 69-47 3-21-253-25 11-66 15-66 171 19 48 60 70-46 3-21-287-33 6-27 33-96 15-34 31 29 39 42 38 46 48-43 6-19-20 3-27-29-45-42-46-37 37-55 44-43L910-1l19-4 29 126h11L959-12l2-1 21-11 8-24-11-21-24-8-69 16zM340-24l-9-10-10-8-10-8-11-7-12-5-12-5-13-2-13-2-13-1v32L151-24V-8h86l8 1 7 1 12 3 6 3 5 3 5 4 5 4 9 12 18 35 17 57 11 73 4 86-7 94-7 36-36-55-29-36-31-35-33-34-36-32-38-30-40-28-44-26-5 9 70 67 63 68 28 35 26 36 24 37 22 37 19 39 17 39 2-1-24 72-19 37-38-34-43-33-46-31-47-26-49-23-5 8 43 32 42 33 40 34 37 36 37 39 7 8-9 18-69 93-88 89 6 8 103-77 78-93 5-8 34 45 32 46 29 47 28 50 3 5 53-37 9-17H438l-21-33-34-49-36-45-38-42-14-14 28-49 40-104 2-10h1v-1l21-93 10-99V184l-10-81-16-66-24-50-7-11zM804 741l-5 12-14 23-9 11-9 11-10 11-25 22-13 11-16 10 4 9 18-6 18-4 17-6 16-7 31-17 14-9 13-11 12-12 12-13 4-24-13-20-25-4-20 13z"/><glyph unicode="&#178084;" horiz-adv-x="1024" vert-adv-y="918" d="M893 315v1l5 4 43-47 3-19-20 5-53-39-36-25-39-24-20-11 32-33 30-28 31-26 32-25 34-22L994-9 934-55 897-30 863-2 830 28 799 60 770 94l-26 36-24 37-23 40-18 42-8 22-54-50-50-42-2-2V36l81 22 31 6 31 6 3-9-55-31-27-13L523-31 473-52l-4-1-6-20-15 12L418-3l10 3 72 19V132l-41-26-57-30-59-25-4 9 53 34 52 37 49 38 7 6v6h7l33 29 46 44 43 47 42 48 39 53 37 54 35 58 3 5 52-38 8-18H825l-28-40-41-56-44-52-30-32 42-59 41-51 30 35 98 107zM295-20l-8-11-8-9-11-8-10-8-12-6-12-4-13-3-13-2-14-1v32L119-24V-8h75l8 1 7 1 11 3 5 3 5 3 4 4 4 4 5 6 3 6 15 35 14 57 10 74 3 86-6 94-3 22-23-39-25-38-26-34-28-34-30-33-32-30-35-28-37-26-6 7 29 33 54 68 48 68 21 36 20 37 33 76 14 40 4-2-21 76-13 31-26-29-37-33-39-31-39-26-42-24-6 8 69 64 32 34 32 36 29 39 7 10-7 18-57 93-71 88 6 7 88-77 66-93 23 36 26 45 24 48 23 50 3 6 56-34 10-16-20-2-17-33-29-48-30-45-32-43-13-15 24-50 34-104 1-6 3-2-2-4 18-91 9-99V185l-8-80-13-65L303-9l-8-11zM528 288l-7 13-9 12-23 26-14 14-51 42-21 14 4 8 47-15 21-9 38 52 24 36 20 36 18 38 3 5 54-36 9-17-22-1-14-19-30-35-16-17-35-31-29-20 20-11 17-11 17-12 15-13 13-13 12-15 3-24-14-20-25-3-20 14-5 12zM348 573v21H633V738H396v22H633V875l64-11 17-11-17-10V760H816l54 53 64-53V738H697V594H864l53 54 65-54V573H348z"/><glyph unicode="&#178085;" horiz-adv-x="1024" vert-adv-y="918" d="M662 648l65-10 16-11-16-10V353l-6-65-13-61-21-57-28-51-36-46-43-42L531-5 474-37 411-62 342-82l-4 9 65 30 57 32 50 35 43 37 35 40 28 44 21 46 15 50 8 54 2 58V648zM904-34 890-17 874-1 835 34 785 69l-94 57 4 9 37-10 36-12 33-12 30-14 28-14 27-16 23-16 22-17L950 6l17-19 5-24-12-21-24-5-21 12-11 17zM73 76 45 135l116 29 36 9V455H71v21H197V734H59v22H311l54 54 65-54V734H261V476h38l54 54 64-54V455H261V191l131 37 42 11 4-9-76-40-112-49-72-29L94 83 87 63 73 76zM466 810l65-33H857l32 27 60-48-27-22V191l-65-32V756H531V175l-65-32V810z"/><glyph unicode="&#178086;" horiz-adv-x="1024" vert-adv-y="918" d="M509 342l65-11 16-11-16-9V240l-4-43-7-41-12-38-16-36-20-34-24-31-27-28-31-25-35-22-39-18-5 8 32 27 28 27 24 27 21 29 16 30 14 30 10 32 7 34 3 35V342zm274 0 64-11 17-11-17-9V-40L783-72V342zM37 135l137 38V455H63v21H174V734H52v22H271l54 54 64-54V734H239V476h21l54 54 64-54V455H239V192l115 36 39 11 4-9-68-40-69-34-66-30L98 88 87 84 81 64 66 76 37 135zM872 358l-51 19-48 23-45 28-43 33-5 4-27-22-50-35-53-30-57-24-61-19-63-14-3 10 59 23 56 26 51 29 48 33 44 36 21 20-37 43-34 47-29 51-25 52H389v22H834l54 54 64-54V691H852l-34-60-36-55-39-49-26-27 40-25 42-22 45-17 45-13 1e2-17-64-61-53 13zM779 691H533l31-40 36-45 37-39 39-36 26 30 33 48 30 51 14 31zM679 763l-1 8-4 10-5 9-7 11-19 24-25 25-16 12 5 8 18-8 18-7 17-8 15-8 14-8 25-20 10-11 9-11 8-13-2-24-19-17-24 3-16 18-1 7z"/><glyph unicode="&#178087;" horiz-adv-x="1024" vert-adv-y="918" d="M862-10 846-31l-9-9-10-9-11-7-12-6-12-4-12-3-14-2-13-1v32L646-24V-8H753l8 1 6 1 7 2 5 1 5 3 5 3 5 4 4 4 4 6 4 6 5 11 6 16 5 20 5 25 4 28 4 32 2 35 2 40 1 44 1 36H682l-21-70-27-65-34-58-39-52-45-46-51-39-57-32-62-24-4 9 56 33L447 3l44 41 38 46 32 50 27 56 22 61 13 53H460v21H627l10 64 5 78 1 12 64-16 15-11-18-10-7-61-11-56H841l32 27 59-48-26-16-1-1V273l-1-45-2-41-3-38-4-34-4-31-5-28-7-25-8-21-9-20zM68 76 38 135l71 19 59 19V455H64v21H168V734H53v22H257l53 54 65-54V734H233V476h13l54 54 64-54V455H233V193l73 24 72 22 4-9-65-40-64-34-94-43L89 85 83 65 68 76zM418 374l-23 9-8 23 9 22 6 4 6 7 7 9 6 13 7 16 5 19 5 21 5 24 5 27 3 29h10l5-48H895l32 27 59-48-27-16-16-7-23-35-20-26-23-28-11-15-8 4 7 18 5 17 13 48 7 27 3 13H468l2-14V491l-1-22-2-20-4-19-5-17-7-16-10-15-23-8zM763 871l64-10 16-11-16-10V742h28l54 54 64-54V720H827V618l-64-33V720H609V618l-65-33V720H398v22H544V871l65-10 16-11-16-10V742H763V871z"/><glyph unicode="&#178088;" horiz-adv-x="1024" vert-adv-y="918" d="M337-35v22h88V343l65-32H835l32 27 59-49-27-21V-13h12l34 37 43-37V-35H337zM562 289H490V-13h72V289zm136 0H627V-13h71V289zm137 0H763V-13h72V289zM31 135l70 19 58 19V455H57v21H159V734H46v22H243l54 54 64-54V734H223V476h30l44 49 54-49V455H223V194l70 23 71 22 4-9-63-39-63-34-92-44L82 85 77 65 61 76 31 135zM534 857l65-10 16-11-16-10V392l-65-32V857zM840 426l-3 17-5 17-12 32-8 16-9 16-21 32-13 14 6 8 35-22 16-12 16-14 14-15 12-17 11-17 10-18 9-19 8-21-5-24-20-15-24 5-14 20-3 17zM392 811l65-11 16-11-16-9V427l-65-32V811zm330 59 63-20 14-12-18-8-5-26-10-44-10-43-12-41-5-14H866l44 48 54-48V640H732l-15-43-15-36-16-35-18-33-20-31-9 4 30 107 18 75 16 80 6 43 6 43 5 40 2 16z"/><glyph unicode="&#178089;" horiz-adv-x="1024" vert-adv-y="918" d="M938 5 935-9l-4-13-7-12-8-11-11-9-12-6-13-5-14-2-14-1v33L766-19V-3h86 7l5 1 3 1 2 1 2 2 1 2 1 3 1 5V410H775l-4-45-8-51-1-6 35-33 14-14 25-30 10-14 9-15 8-14 5-15-4-25-19-14-24 4-15 20-1 11-2 12-3 13-5 15-6 15-26 52-6 11-4-19-13-44-15-41-17-36-21-34-23-29-26-24-8 7 17 29 15 32 13 33 3 9-14-11-25 3-15 20-1 13-2 13-4 13-3 13-5 14-6 14-15 30-6-21-12-39-16-37-17-34-21-30-23-27-26-23-7 6 17 29 15 30 13 31 11 33 10 35 8 37 5 39 4 42 1 45v2H459V-35L395-68V464l64-32h85v22V571H354v21H868l54 54 64-54V571H779V475l-2-43h97l32 27 59-49-27-21V18 5zM36 134l124 38V455H61v21h99V734H51v22H263l44 48 48-43H537V874l64-11 16-10-16-10V761H740V874l64-11 17-10-17-10V761h84l44 48 54-48V739H804V652l-64-33V739H601V652l-64-33V739H360v-5H225V476h27l44 49 54-49V455H225V194l139 45 4-9-62-39-62-34-91-44L94 88l-7-3-6-20L66 77 36 134zM714 410H606v-6l-6-46-7-45 12-8 14-11 24-25 11-13 10-14 16-29 7-15 9 38 8 41 6 45 3 48 1 40zM607 432H715l-1 43v96H608V454l-1-22z"/><glyph unicode="&#178090;" horiz-adv-x="1024" vert-adv-y="918" d="M232 331V14H808l53 54 65-54V-8H232V-45L168-77V331H55v22H292V734H103v22H292V869l64-11 16-11-16-9V756H668V869l64-11 17-11-17-9V756h70l54 54 65-54V734H732V353H851l53 53 65-53V331H232zM715 40 682 65l-69 48-38 23-5 3-75-35-57-22-59-21-61-18-63-16-3 10 172 77 99 52-117 60-96 45 4 10 52-13 50-15 49-16 91-37 13-6 56 35 46 32 79 64 5 3 40-50 2-19-19 7-28-21-47-32-49-30-30-16 55-29 74-47 12-21-5-24-21-12-24 6zM668 466H356V353H668V466zm0 134H356V487H668V6e2zm0 134H356V621H668V734z"/><glyph unicode="&#178091;" horiz-adv-x="1024" vert-adv-y="918" d="M870-28 817-4 768 25 723 58 682 94l-37 40-32 44-29 47-24 51-16 46-46-36-80-53-44-25-7-4V36L571 69l50 7 51 7 2-9-48-18-97-30L381-12 282-36 206-52l-8-20-14 15L162 4l11 2L302 26V172l-80-35-57-22-61-21L41 74l-4 9 170 86 97 55 45 27 77 55 25 20H66v22H480v99l64-10 16-11-16-10V348H851l53 54 65-54V326H556l24-39 30-45 33-40 35-37 3-2 94 85 62 61 42-49 2-19-20 6-56-37-41-25-45-23-24-11 21-19 40-30 43-26 46-22 49-20L989 6 926-49 870-28zM222 476V439l-65-33V863l65-32H802l33 27 59-48-27-22V455l-65-32v53H222zM480 643H222V498H480V643zm322 0H544V498H802V643zM480 810H222V664H480V810zm322 0H544V664H802V810z"/><glyph unicode="&#178092;" horiz-adv-x="1024" vert-adv-y="918" d="M32 278l11 5 30 9 16 6 35 14 76 36v64V772l65-32H534V874l64-11 16-10-16-10V740H856l54 53 64-53V718H265V412l-4-67-7-64-11-60-15-55-19-51-22-47-27-42-30-37L96-44 58-70l-6 8L81-29 107 6l23 39 20 41 16 45 14 49 9 52 7 56 2 34-35-32-33-27-32-22-11-6-5-23-16 11-34 55zM299-45v21H593V150H358v21H593V321l64-10 16-11-16-10V171H773l53 54 65-54V150H657V-24H832l54 54 65-54V-45H299zM845 275l-68 23-63 28-56 31-31 21-56-33-62-31-67-26-73-21-77-18-3 10 74 27 68 29 62 31 58 34 39 28-26 23-37 42-31 46-23 49-13 48H370v21H779l2 2 1 2 29 23 60-48-27-17-15-6-20-35-37-51-43-46-48-43-8-6 12-7 54-25 59-22 66-18 119-26-63-59-75 20zM770 616H472l21-38 29-41 34-39 38-34 35-25 20 17 41 42 36 45 31 47 13 26zM108 508l-3 17-4 16-5 16-5 16-13 29-8 14-9 14-10 11 6 8 29-18 15-11 13-12 13-14 11-16 10-16 10-18 8-19 8-20-4-24-20-15-25 4-14 20-3 18z"/><glyph unicode="&#178093;" horiz-adv-x="1024" vert-adv-y="918" d="M32 278l11 5 30 9 16 6 35 14 78 38 1 62V769l59-29H534V874l64-11 16-10-16-10V740H856l54 53 64-53V718H262V412l-4-67-7-63-10-60-15-55-19-51-22-47-26-42-30-38L95-43 58-70l-6 7L82-30 108 6l23 38 20 41 17 46 14 48 10 52 7 57 2 37-38-35-33-27-32-22-11-6-5-23-16 11-34 55zM391 126l56-31 12-16-22-4-10-16-25-34L388 8 358-24 341-39 303-68l-7 7 14 19 34 57 9 17 9 18 15 35 5 17 9 24zM682-19V-3H796l5 1 3 1 2 2h1l1 1 2 5 1 5v7V345l-18-40-24-43-25-41-27-38-30-35-31-33-34-31-36-26-6 7 54 68 25 36 24 37 22 39 39 82 16 44 15 46 8 28H607v21H811V666l65-11 16-10-16-10V466h21l34 38 43-38V445H876V19L875 5 873-9l-5-13-7-12-8-11-11-8-12-7-13-5-14-2H790v32L682-19zM542 9l-3 11-4 11-4 11-6 12-5 12-15 24-8 12-11 11 6 7 14-8 14-7 12-8 25-19 11-10 10-10 18-24 8-13-1-25-17-17-25 1L544-2 542 9zM328 661l59-29H522l32 27 59-49-27-21V156l-64-32v32H387l-59-30V661zM522 314H387V177H522V314zm0 148H387V335H522V462zM108 508l-3 17-4 16-5 16-5 16-13 29-8 14-9 14-10 11 6 8 29-18 15-11 13-12 13-14 11-16 10-16 10-18 8-19 8-20-4-24-20-15-25 4-14 20-3 18zM522 610H387V483H522V610z"/><glyph unicode="&#178094;" horiz-adv-x="1024" vert-adv-y="918" d="M878-22l-8-10-10-9-10-8-22-13-13-4-13-3-13-2-13-1v32L668-24V-8H776l7 1 7 1 7 2 5 1 6 3 5 3 9 8 4 6 4 6 10 21 10 30 9 41 8 51 7 59 5 69 4 78 4 87 2 96v93H535l-22-32-27-35-28-34-31-33-33-30-7 6 48 74 44 74 37 74 31 77 14 39 14 49 59-28 12-15-19-5-9-22-17-40-41-78-11-19H889l33 27 59-49-27-16-1-78-2-97-3-88-4-80-6-70-7-62-9-54-10-45-12-38-15-30-7-12zM231 860l60-26 12-15-20-6-8-18-27-60-32-59-19-29H318l32 27 59-49-27-21V59L318 27V91H138V27L74-5V679l64-32h45l4 15 10 45 20 84 4 21 7 34 3 14zM476 530l64-32H690l33 27 59-49-27-21V175l-65-32v65H540V143l-64-32V530zM318 366H138V113H318V366zM690 476H540V229H690V476zM318 625H138V388H318V625z"/></font>
</defs>
</svg>
