<svg xmlns="http://www.w3.org/2000/svg" viewBox="0 0 100 100"><defs><filter x="-.071873" y="-.82295" width="1.1437" height="2.6459" id="f"><feGaussianBlur stdDeviation=".85723739"/></filter></defs><g transform="translate(-261.64 -240.64)"><ellipse ry="1.25" rx="14.3125" cy="29.4375" cx="15.5" transform="matrix(3.02269,0,0,3.62725,264.79094,221.42783)" style="fill:#939393;filter:url(#f)"/><path d="m346.98294 321.45083v-72.6231h-67.8051v72.7881l67.8051-.16445z" style="fill:#803300;fill-rule:evenodd;stroke-width:1.10000002"/><path d="m346.82894 327.57783v-11.3476h-65.4555c-1.72271 3.14435-4.03535 6.98126.0 11.5115l65.4555-.16446z" style="fill:#803300;fill-rule:evenodd;stroke-width:1.10000002"/><path d="m346.98294 254.13083v-11.3476l-63.4491-.18891c-5.58239 3.65651-6.96498 7.85774-6.51772 11.6776l69.9677-.14084z" style="fill:#520;fill-rule:evenodd;stroke:#000;stroke-width:3.02269006"/><path d="M337.13794 246.96983h5.7883101v37.581501H337.13794z" style="fill:#b3b3b3;stroke-width:1.10000002"/><path d="m284.15094 246.96983c-3.97122 2.46136-4.49548 5.48152-4.06175 8.42611l65.3048.1653c-.96822-.55935-2.26721-6.30168-2.6125-8.59144h-58.6311z" style="fill:#f2f2f2;fill-rule:evenodd;stroke-width:1.10000002"/><path d="M277.00092 254.14183h72.297501v73.626297H277.00092z" style="fill:#ccb4a5;stroke:#000;stroke-width:3.02269006;stroke-linecap:round"/><path d="M281.56592 258.89383h63.2533v64.505096H281.56592z" style="fill:#9e6c4a;stroke-width:1.10000002"/><path d="m279.89394 257.08983v67.7589" style="fill:none;stroke:#7d330d;stroke-width:.90680701"/><text y="310.98984" x="286.33997" style="font-style:normal;font-weight:400;font-size:35.20000076px;line-height:1.25;font-family:sans-serif;letter-spacing:0;word-spacing:0;fill:#000;fill-opacity:1;stroke:none;stroke-width:1.10000002"><tspan style="font-size:52.79999924px;stroke-width:1.10000002" y="310.98984" x="286.33997">漢</tspan></text></g></svg>