<svg version="1.0" xmlns="http://www.w3.org/2000/svg" width="920pt" height="920pt" viewBox="0 0 920 920"><g transform="translate(0.000000,920.000000) scale(0.100000,-0.100000)" fill="#000" stroke="none"><path d="M1702 9151c-133-92-196-144-292-241-155-154-253-3e2-318-473-73-196-66 209-69-4099l-3-3878h3730 3730v3795 3795h-115-115v564 564l-2122 6c-1168 3-2625 9-3238 12l-1115 6-73-51zm5998-576c0-50 34-216 80-394 17-63 30-118 30-122 0-5-1426-9-3170-9-3012 0-3170 1-3170 18 0 33 28 122 58 186 54 116 150 225 281 320l63 46h2914 2914v-45zm480-4315V760H4750 1320v35e2 35e2h3430 3430V4260z"/><path d="M1420 4255V9e2h40 40v3355 3355h-40-40V4255z"/><path d="M4540 6425v-225h-420-420v-165-165h420 420v-185-185h180 180v185 185h430 430v-185-185h180 180v185 185h460 460v165 165h-460-460v225 225h-180-180v-225-225h-430-430v225 225h-180-180v-225z"/><path d="M2773 6578c-31-36-193-246-193-251 0-3 52-33 116-67 244-129 498-296 673-443 51-44 96-75 1e2-70 3 5 52 73 109 150 56 78 102 145 102 150 0 21-177 160-325 255-164 105-519 298-551 298-6 0-20-10-31-22z"/><path d="M3990 4825v-565l573-2 572-3 3-172 2-173h-640-640v-155-155h631 631l-7-52c-7-61-48-240-64-280l-11-28h-7e2-7e2v-160-160h610c336 0 610-4 610-9 0-15-161-181-235-241-222-181-561-346-941-457-72-21-131-42-132-48 0-5 34-53 75-105 42-52 90-116 106-142 17-27 35-48 41-48 7 0 70 20 141 44 652 220 1088 518 1339 914 32 51 62 92 67 92s14-10 21-22c45-78 152-226 219-303 254-293 624-521 1069-658 169-53 244-70 248-59 10 32 131 2e2 180 251 42 44 53 62 42 65-8 3-53 12-1e2 21-498 96-953 331-1201 620l-69 80 670 3 670 2v160 160h-816-816l7 27c11 45 43 214 52 273l8 55 678 3 677 2v155 155h-670-670v175 175h6e2 6e2v565 565H5355 3990v-565zm1150-5v-270h-405-405v270 270h405 405v-270zm1220 0v-270h-420-420v270 270h420 420v-270z"/><path d="M2416 5070c-59-78-106-143-104-145 2-1 71-36 153-77 263-132 499-277 654-402 45-37 86-64 89-61 4 3 55 75 114 158l107 152-32 28c-61 52-233 165-377 248-148 84-425 222-470 234-24 6-35-6-134-135z"/><path d="M3230 3708c-201-455-486-1019-702-1387-43-74-75-138-71-142 24-20 323-229 330-229 9 0 188 338 321 605 106 213 288 601 402 859 77 173 90 211 79 220-92 71-287 216-291 216-3 0-33-64-68-142z"/></g></svg>