<?xml version="1.0" standalone="no"?>
<!DOCTYPE svg PUBLIC "-//W3C//DTD SVG 20010904//EN"
 "http://www.w3.org/TR/2001/REC-SVG-20010904/DTD/svg10.dtd">
<svg version="1.0" xmlns="http://www.w3.org/2000/svg"
 width="920.000000pt" height="920.000000pt" viewBox="0 0 920.000000 920.000000"
 preserveAspectRatio="xMidYMid meet">
<metadata>
Created by potrace 1.11, written by Peter Selinger 2001-2013
</metadata>
<g transform="translate(0.000000,920.000000) scale(0.100000,-0.100000)"
fill="#000000" stroke="none">
<path d="M1702 9151 c-133 -92 -196 -144 -292 -241 -155 -154 -253 -300 -318
-473 -73 -196 -66 209 -69 -4099 l-3 -3878 3730 0 3730 0 0 3795 0 3795 -115
0 -115 0 0 564 0 564 -2122 6 c-1168 3 -2625 9 -3238 12 l-1115 6 -73 -51z
m5998 -576 c0 -50 34 -216 80 -394 17 -63 30 -118 30 -122 0 -5 -1426 -9
-3170 -9 -3012 0 -3170 1 -3170 18 0 33 28 122 58 186 54 116 150 225 281 320
l63 46 2914 0 2914 0 0 -45z m480 -4315 l0 -3500 -3430 0 -3430 0 0 3500 0
3500 3430 0 3430 0 0 -3500z"/>
<path d="M1420 4255 l0 -3355 40 0 40 0 0 3355 0 3355 -40 0 -40 0 0 -3355z"/>
<path d="M4540 6425 l0 -225 -420 0 -420 0 0 -165 0 -165 420 0 420 0 0 -185
0 -185 180 0 180 0 0 185 0 185 430 0 430 0 0 -185 0 -185 180 0 180 0 0 185
0 185 460 0 460 0 0 165 0 165 -460 0 -460 0 0 225 0 225 -180 0 -180 0 0
-225 0 -225 -430 0 -430 0 0 225 0 225 -180 0 -180 0 0 -225z"/>
<path d="M2773 6578 c-31 -36 -193 -246 -193 -251 0 -3 52 -33 116 -67 244
-129 498 -296 673 -443 51 -44 96 -75 100 -70 3 5 52 73 109 150 56 78 102
145 102 150 0 21 -177 160 -325 255 -164 105 -519 298 -551 298 -6 0 -20 -10
-31 -22z"/>
<path d="M3990 4825 l0 -565 573 -2 572 -3 3 -172 2 -173 -640 0 -640 0 0
-155 0 -155 631 0 631 0 -7 -52 c-7 -61 -48 -240 -64 -280 l-11 -28 -700 0
-700 0 0 -160 0 -160 610 0 c336 0 610 -4 610 -9 0 -15 -161 -181 -235 -241
-222 -181 -561 -346 -941 -457 -72 -21 -131 -42 -132 -48 0 -5 34 -53 75 -105
42 -52 90 -116 106 -142 17 -27 35 -48 41 -48 7 0 70 20 141 44 652 220 1088
518 1339 914 32 51 62 92 67 92 5 0 14 -10 21 -22 45 -78 152 -226 219 -303
254 -293 624 -521 1069 -658 169 -53 244 -70 248 -59 10 32 131 200 180 251
42 44 53 62 42 65 -8 3 -53 12 -100 21 -498 96 -953 331 -1201 620 l-69 80
670 3 670 2 0 160 0 160 -816 0 -816 0 7 27 c11 45 43 214 52 273 l8 55 678 3
677 2 0 155 0 155 -670 0 -670 0 0 175 0 175 600 0 600 0 0 565 0 565 -1365 0
-1365 0 0 -565z m1150 -5 l0 -270 -405 0 -405 0 0 270 0 270 405 0 405 0 0
-270z m1220 0 l0 -270 -420 0 -420 0 0 270 0 270 420 0 420 0 0 -270z"/>
<path d="M2416 5070 c-59 -78 -106 -143 -104 -145 2 -1 71 -36 153 -77 263
-132 499 -277 654 -402 45 -37 86 -64 89 -61 4 3 55 75 114 158 l107 152 -32
28 c-61 52 -233 165 -377 248 -148 84 -425 222 -470 234 -24 6 -35 -6 -134
-135z"/>
<path d="M3230 3708 c-201 -455 -486 -1019 -702 -1387 -43 -74 -75 -138 -71
-142 24 -20 323 -229 330 -229 9 0 188 338 321 605 106 213 288 601 402 859
77 173 90 211 79 220 -92 71 -287 216 -291 216 -3 0 -33 -64 -68 -142z"/>
</g>
</svg>
